G04*
G04 #@! TF.GenerationSoftware,Altium Limited,Altium Designer,21.9.1 (22)*
G04*
G04 Layer_Color=255*
%FSLAX25Y25*%
%MOIN*%
G70*
G04*
G04 #@! TF.SameCoordinates,A70FD659-B22A-45BA-B102-ADB4057F9A3D*
G04*
G04*
G04 #@! TF.FilePolarity,Positive*
G04*
G01*
G75*
%ADD12R,0.03937X0.03937*%
%ADD13R,0.03937X0.06693*%
%ADD14R,0.07480X0.06102*%
G04:AMPARAMS|DCode=22|XSize=196.85mil|YSize=452.76mil|CornerRadius=49.21mil|HoleSize=0mil|Usage=FLASHONLY|Rotation=90.000|XOffset=0mil|YOffset=0mil|HoleType=Round|Shape=RoundedRectangle|*
%AMROUNDEDRECTD22*
21,1,0.19685,0.35433,0,0,90.0*
21,1,0.09843,0.45276,0,0,90.0*
1,1,0.09843,0.17717,0.04921*
1,1,0.09843,0.17717,-0.04921*
1,1,0.09843,-0.17717,-0.04921*
1,1,0.09843,-0.17717,0.04921*
%
%ADD22ROUNDEDRECTD22*%
%ADD23C,0.19685*%
D12*
X308008Y1062067D02*
D03*
X270606D02*
D03*
X121000D02*
D03*
X158402D02*
D03*
X195803D02*
D03*
X345409D02*
D03*
X794228D02*
D03*
X644622D02*
D03*
X457614D02*
D03*
X420213D02*
D03*
X719425D02*
D03*
X569819D02*
D03*
X495016D02*
D03*
X607221D02*
D03*
X756827D02*
D03*
X121000Y931327D02*
D03*
X195803D02*
D03*
X158402D02*
D03*
X308008D02*
D03*
X270606D02*
D03*
X345409D02*
D03*
X719425D02*
D03*
X644622D02*
D03*
X607221D02*
D03*
X756827D02*
D03*
X794228D02*
D03*
X569819D02*
D03*
X420213D02*
D03*
X457614D02*
D03*
X495016D02*
D03*
X794228Y518642D02*
D03*
X756827D02*
D03*
X719425D02*
D03*
X644622D02*
D03*
X607221D02*
D03*
X569819D02*
D03*
X495016D02*
D03*
X457614D02*
D03*
X420213D02*
D03*
X345409D02*
D03*
X308008D02*
D03*
X270606D02*
D03*
X195803D02*
D03*
X158402D02*
D03*
X121000D02*
D03*
X794228Y646787D02*
D03*
X756827D02*
D03*
X719425D02*
D03*
X644622D02*
D03*
X607221D02*
D03*
X569819D02*
D03*
X495016D02*
D03*
X457614D02*
D03*
X420213D02*
D03*
X345409D02*
D03*
X308008D02*
D03*
X270606D02*
D03*
X195803D02*
D03*
X158402D02*
D03*
X122957D02*
D03*
X794228Y789504D02*
D03*
X756827D02*
D03*
X719425D02*
D03*
X644622Y789898D02*
D03*
X607221D02*
D03*
X569819D02*
D03*
X495016D02*
D03*
X459583D02*
D03*
X420213D02*
D03*
X345409D02*
D03*
X308008D02*
D03*
X270606D02*
D03*
X195803D02*
D03*
X158402D02*
D03*
X121000Y789504D02*
D03*
D13*
X308008Y1054980D02*
D03*
X270606D02*
D03*
X121000D02*
D03*
X158402D02*
D03*
X195803D02*
D03*
X345409D02*
D03*
X794228D02*
D03*
X644622D02*
D03*
X457614D02*
D03*
X420213D02*
D03*
X719425D02*
D03*
X569819D02*
D03*
X495016D02*
D03*
X607221D02*
D03*
X756827D02*
D03*
X121000Y924240D02*
D03*
X195803D02*
D03*
X158402D02*
D03*
X308008D02*
D03*
X270606D02*
D03*
X345409D02*
D03*
X719425D02*
D03*
X644622D02*
D03*
X607221D02*
D03*
X756827D02*
D03*
X794228D02*
D03*
X569819D02*
D03*
X420213D02*
D03*
X457614D02*
D03*
X495016D02*
D03*
X794228Y511555D02*
D03*
X756827D02*
D03*
X719425D02*
D03*
X644622D02*
D03*
X607221D02*
D03*
X569819D02*
D03*
X495016D02*
D03*
X457614D02*
D03*
X420213D02*
D03*
X345409D02*
D03*
X308008D02*
D03*
X270606D02*
D03*
X195803D02*
D03*
X158402D02*
D03*
X121000D02*
D03*
X794228Y639701D02*
D03*
X756827D02*
D03*
X719425D02*
D03*
X644622D02*
D03*
X607221D02*
D03*
X569819D02*
D03*
X495016D02*
D03*
X457614D02*
D03*
X420213D02*
D03*
X345409D02*
D03*
X308008D02*
D03*
X270606D02*
D03*
X195803D02*
D03*
X158402D02*
D03*
X122957D02*
D03*
X794228Y782417D02*
D03*
X756827D02*
D03*
X719425D02*
D03*
X644622Y782811D02*
D03*
X607221D02*
D03*
X569819D02*
D03*
X495016D02*
D03*
X459583D02*
D03*
X420213D02*
D03*
X345409D02*
D03*
X308008D02*
D03*
X270606D02*
D03*
X195803D02*
D03*
X158402D02*
D03*
X121000Y782417D02*
D03*
D14*
X233205Y1052717D02*
D03*
Y1064331D02*
D03*
X831630Y1052717D02*
D03*
Y1064331D02*
D03*
X382811Y1052717D02*
D03*
Y1064331D02*
D03*
X682024Y1052717D02*
D03*
Y1064331D02*
D03*
X532417Y1052717D02*
D03*
Y1064331D02*
D03*
X233205Y921976D02*
D03*
Y933591D02*
D03*
X831630Y921976D02*
D03*
Y933591D02*
D03*
X532417Y921976D02*
D03*
Y933591D02*
D03*
X382811Y921976D02*
D03*
Y933591D02*
D03*
X682024Y921976D02*
D03*
Y933591D02*
D03*
X831630Y509291D02*
D03*
Y520905D02*
D03*
X682024Y509291D02*
D03*
Y520905D02*
D03*
X532417Y509291D02*
D03*
Y520905D02*
D03*
X382811Y509291D02*
D03*
Y520905D02*
D03*
X233205Y509291D02*
D03*
Y520905D02*
D03*
X831630Y637437D02*
D03*
Y649051D02*
D03*
X682024Y637437D02*
D03*
Y649051D02*
D03*
X532417Y637437D02*
D03*
Y649051D02*
D03*
X382811Y637437D02*
D03*
Y649051D02*
D03*
X233205Y637437D02*
D03*
Y649051D02*
D03*
X831630Y780154D02*
D03*
Y791768D02*
D03*
X682024Y780154D02*
D03*
Y791768D02*
D03*
X532417Y780154D02*
D03*
Y791768D02*
D03*
X382811Y780154D02*
D03*
Y791768D02*
D03*
X233205Y780154D02*
D03*
Y791768D02*
D03*
D22*
X819579Y605278D02*
D03*
X820025Y559660D02*
D03*
X822000Y1018000D02*
D03*
X821554Y972382D02*
D03*
D23*
X141118Y724554D02*
D03*
X141000Y846500D02*
D03*
M02*
