G04*
G04 #@! TF.GenerationSoftware,Altium Limited,Altium Designer,21.9.1 (22)*
G04*
G04 Layer_Physical_Order=2*
G04 Layer_Color=16711680*
%FSLAX25Y25*%
%MOIN*%
G70*
G04*
G04 #@! TF.SameCoordinates,A70FD659-B22A-45BA-B102-ADB4057F9A3D*
G04*
G04*
G04 #@! TF.FilePolarity,Positive*
G04*
G01*
G75*
G04:AMPARAMS|DCode=22|XSize=196.85mil|YSize=452.76mil|CornerRadius=49.21mil|HoleSize=0mil|Usage=FLASHONLY|Rotation=90.000|XOffset=0mil|YOffset=0mil|HoleType=Round|Shape=RoundedRectangle|*
%AMROUNDEDRECTD22*
21,1,0.19685,0.35433,0,0,90.0*
21,1,0.09843,0.45276,0,0,90.0*
1,1,0.09843,0.17717,0.04921*
1,1,0.09843,0.17717,-0.04921*
1,1,0.09843,-0.17717,-0.04921*
1,1,0.09843,-0.17717,0.04921*
%
%ADD22ROUNDEDRECTD22*%
%ADD23C,0.19685*%
%ADD24C,0.05000*%
G36*
X860767Y1062733D02*
X861500Y1061334D01*
Y1055000D01*
X868472Y1048028D01*
X869500Y1046066D01*
Y1041500D01*
X874500Y1036500D01*
Y1033500D01*
X876961Y1031039D01*
X876961Y540961D01*
X871500Y535500D01*
Y529000D01*
X867000Y524500D01*
Y520060D01*
X866934Y519934D01*
X862500Y515500D01*
Y512500D01*
X862848Y512152D01*
X862512Y511512D01*
X859500Y508500D01*
Y505776D01*
X859195Y505195D01*
X857000Y503000D01*
X118884D01*
X114000Y507884D01*
Y719500D01*
X112539Y720961D01*
Y848039D01*
X114000Y849500D01*
Y1065171D01*
X118183Y1069355D01*
X854145Y1069355D01*
X860767Y1062733D01*
D02*
G37*
%LPC*%
G36*
X839717Y1028679D02*
X804284D01*
X802793Y1028483D01*
X801404Y1027908D01*
X800212Y1026993D01*
X799297Y1025800D01*
X798722Y1024411D01*
X798526Y1022921D01*
Y1013079D01*
X798722Y1011588D01*
X799297Y1010200D01*
X800212Y1009007D01*
X801404Y1008092D01*
X802793Y1007517D01*
X804284Y1007321D01*
X839717D01*
X841207Y1007517D01*
X842595Y1008092D01*
X843788Y1009007D01*
X844703Y1010200D01*
X845278Y1011588D01*
X845475Y1013079D01*
Y1022921D01*
X845278Y1024411D01*
X844703Y1025800D01*
X843788Y1026993D01*
X842595Y1027908D01*
X841207Y1028483D01*
X839717Y1028679D01*
D02*
G37*
G36*
X141837Y857130D02*
X140163D01*
X138511Y856868D01*
X136919Y856351D01*
X135429Y855591D01*
X134075Y854608D01*
X132892Y853425D01*
X131909Y852071D01*
X131149Y850581D01*
X130632Y848989D01*
X130370Y847337D01*
Y845663D01*
X130632Y844011D01*
X131149Y842420D01*
X131909Y840929D01*
X132892Y839575D01*
X134075Y838392D01*
X135429Y837409D01*
X136919Y836649D01*
X138511Y836132D01*
X140163Y835870D01*
X141837D01*
X143489Y836132D01*
X145080Y836649D01*
X146571Y837409D01*
X147925Y838392D01*
X149108Y839575D01*
X150092Y840929D01*
X150851Y842420D01*
X151368Y844011D01*
X151630Y845663D01*
Y847337D01*
X151368Y848989D01*
X150851Y850581D01*
X150092Y852071D01*
X149108Y853425D01*
X147925Y854608D01*
X146571Y855591D01*
X145080Y856351D01*
X143489Y856868D01*
X141837Y857130D01*
D02*
G37*
G36*
X837741Y570339D02*
X802308D01*
X800818Y570143D01*
X799429Y569568D01*
X798237Y568653D01*
X797322Y567460D01*
X796746Y566072D01*
X796550Y564581D01*
Y554739D01*
X796746Y553249D01*
X797322Y551860D01*
X798237Y550667D01*
X799429Y549753D01*
X800818Y549177D01*
X802308Y548981D01*
X837741D01*
X839232Y549177D01*
X840620Y549753D01*
X841813Y550667D01*
X842728Y551860D01*
X843303Y553249D01*
X843499Y554739D01*
Y564581D01*
X843303Y566072D01*
X842728Y567460D01*
X841813Y568653D01*
X840620Y569568D01*
X839232Y570143D01*
X837741Y570339D01*
D02*
G37*
%LPD*%
D22*
X819579Y605278D02*
D03*
X820025Y559660D02*
D03*
X822000Y1018000D02*
D03*
X821554Y972382D02*
D03*
D23*
X141118Y724554D02*
D03*
X141000Y846500D02*
D03*
D24*
X233000Y1048000D02*
D03*
X382606D02*
D03*
X681819D02*
D03*
X532213D02*
D03*
X831425D02*
D03*
X233000Y917260D02*
D03*
X382606D02*
D03*
X532213D02*
D03*
X681819D02*
D03*
X831425D02*
D03*
X532213Y775437D02*
D03*
X384563Y632721D02*
D03*
X243500Y512000D02*
D03*
X681819Y775437D02*
D03*
X534169Y632721D02*
D03*
X393500Y512000D02*
D03*
X842000D02*
D03*
X692500D02*
D03*
X542500D02*
D03*
X234957Y632721D02*
D03*
X683776D02*
D03*
X833382D02*
D03*
X233000Y775437D02*
D03*
X382606D02*
D03*
X831425D02*
D03*
M02*
