G04*
G04 #@! TF.GenerationSoftware,Altium Limited,Altium Designer,21.9.1 (22)*
G04*
G04 Layer_Color=32768*
%FSLAX25Y25*%
%MOIN*%
G70*
G04*
G04 #@! TF.SameCoordinates,A70FD659-B22A-45BA-B102-ADB4057F9A3D*
G04*
G04*
G04 #@! TF.FilePolarity,Positive*
G04*
G01*
G75*
%ADD26C,0.00394*%
%ADD27C,0.00197*%
D26*
X231236Y1058524D02*
X235173D01*
X233205Y1056555D02*
Y1060492D01*
X829661Y1058524D02*
X833598D01*
X831630Y1056555D02*
Y1060492D01*
X380842Y1058524D02*
X384780D01*
X382811Y1056555D02*
Y1060492D01*
X680055Y1058524D02*
X683992D01*
X682024Y1056555D02*
Y1060492D01*
X530449Y1058524D02*
X534386D01*
X532417Y1056555D02*
Y1060492D01*
X231236Y927783D02*
X235173D01*
X233205Y925815D02*
Y929752D01*
X829661Y927783D02*
X833598D01*
X831630Y925815D02*
Y929752D01*
X530449Y927783D02*
X534386D01*
X532417Y925815D02*
Y929752D01*
X380842Y927783D02*
X384780D01*
X382811Y925815D02*
Y929752D01*
X680055Y927783D02*
X683992D01*
X682024Y925815D02*
Y929752D01*
X829661Y515098D02*
X833598D01*
X831630Y513130D02*
Y517067D01*
X680055Y515098D02*
X683992D01*
X682024Y513130D02*
Y517067D01*
X530449Y515098D02*
X534386D01*
X532417Y513130D02*
Y517067D01*
X380842Y515098D02*
X384780D01*
X382811Y513130D02*
Y517067D01*
X231236Y515098D02*
X235173D01*
X233205Y513130D02*
Y517067D01*
X829661Y643244D02*
X833598D01*
X831630Y641276D02*
Y645213D01*
X680055Y643244D02*
X683992D01*
X682024Y641276D02*
Y645213D01*
X530449Y643244D02*
X534386D01*
X532417Y641276D02*
Y645213D01*
X380842Y643244D02*
X384780D01*
X382811Y641276D02*
Y645213D01*
X231236Y643244D02*
X235173D01*
X233205Y641276D02*
Y645213D01*
X829661Y785961D02*
X833598D01*
X831630Y783992D02*
Y787929D01*
X680055Y785961D02*
X683992D01*
X682024Y783992D02*
Y787929D01*
X530449Y785961D02*
X534386D01*
X532417Y783992D02*
Y787929D01*
X380842Y785961D02*
X384780D01*
X382811Y783992D02*
Y787929D01*
X231236Y785961D02*
X235173D01*
X233205Y783992D02*
Y787929D01*
D27*
X227496Y1047697D02*
Y1069350D01*
X238913Y1047697D02*
Y1069350D01*
X227496Y1047697D02*
X238913D01*
X227496Y1069350D02*
X238913D01*
X825921Y1047697D02*
Y1069350D01*
X837339Y1047697D02*
Y1069350D01*
X825921Y1047697D02*
X837339D01*
X825921Y1069350D02*
X837339D01*
X377102Y1047697D02*
Y1069350D01*
X388520Y1047697D02*
Y1069350D01*
X377102Y1047697D02*
X388520D01*
X377102Y1069350D02*
X388520D01*
X676315Y1047697D02*
Y1069350D01*
X687732Y1047697D02*
Y1069350D01*
X676315Y1047697D02*
X687732D01*
X676315Y1069350D02*
X687732D01*
X526709Y1047697D02*
Y1069350D01*
X538126Y1047697D02*
Y1069350D01*
X526709Y1047697D02*
X538126D01*
X526709Y1069350D02*
X538126D01*
X227496Y916957D02*
Y938610D01*
X238913Y916957D02*
Y938610D01*
X227496Y916957D02*
X238913D01*
X227496Y938610D02*
X238913D01*
X825921Y916957D02*
Y938610D01*
X837339Y916957D02*
Y938610D01*
X825921Y916957D02*
X837339D01*
X825921Y938610D02*
X837339D01*
X526709Y916957D02*
Y938610D01*
X538126Y916957D02*
Y938610D01*
X526709Y916957D02*
X538126D01*
X526709Y938610D02*
X538126D01*
X377102Y916957D02*
Y938610D01*
X388520Y916957D02*
Y938610D01*
X377102Y916957D02*
X388520D01*
X377102Y938610D02*
X388520D01*
X676315Y916957D02*
Y938610D01*
X687732Y916957D02*
Y938610D01*
X676315Y916957D02*
X687732D01*
X676315Y938610D02*
X687732D01*
X825921Y504272D02*
Y525925D01*
X837339Y504272D02*
Y525925D01*
X825921Y504272D02*
X837339D01*
X825921Y525925D02*
X837339D01*
X676315Y504272D02*
Y525925D01*
X687732Y504272D02*
Y525925D01*
X676315Y504272D02*
X687732D01*
X676315Y525925D02*
X687732D01*
X526709Y504272D02*
Y525925D01*
X538126Y504272D02*
Y525925D01*
X526709Y504272D02*
X538126D01*
X526709Y525925D02*
X538126D01*
X377102Y504272D02*
Y525925D01*
X388520Y504272D02*
Y525925D01*
X377102Y504272D02*
X388520D01*
X377102Y525925D02*
X388520D01*
X227496Y504272D02*
Y525925D01*
X238913Y504272D02*
Y525925D01*
X227496Y504272D02*
X238913D01*
X227496Y525925D02*
X238913D01*
X825921Y632417D02*
Y654071D01*
X837339Y632417D02*
Y654071D01*
X825921Y632417D02*
X837339D01*
X825921Y654071D02*
X837339D01*
X676315Y632417D02*
Y654071D01*
X687732Y632417D02*
Y654071D01*
X676315Y632417D02*
X687732D01*
X676315Y654071D02*
X687732D01*
X526709Y632417D02*
Y654071D01*
X538126Y632417D02*
Y654071D01*
X526709Y632417D02*
X538126D01*
X526709Y654071D02*
X538126D01*
X377102Y632417D02*
Y654071D01*
X388520Y632417D02*
Y654071D01*
X377102Y632417D02*
X388520D01*
X377102Y654071D02*
X388520D01*
X227496Y632417D02*
Y654071D01*
X238913Y632417D02*
Y654071D01*
X227496Y632417D02*
X238913D01*
X227496Y654071D02*
X238913D01*
X825921Y775134D02*
Y796787D01*
X837339Y775134D02*
Y796787D01*
X825921Y775134D02*
X837339D01*
X825921Y796787D02*
X837339D01*
X676315Y775134D02*
Y796787D01*
X687732Y775134D02*
Y796787D01*
X676315Y775134D02*
X687732D01*
X676315Y796787D02*
X687732D01*
X526709Y775134D02*
Y796787D01*
X538126Y775134D02*
Y796787D01*
X526709Y775134D02*
X538126D01*
X526709Y796787D02*
X538126D01*
X377102Y775134D02*
Y796787D01*
X388520Y775134D02*
Y796787D01*
X377102Y775134D02*
X388520D01*
X377102Y796787D02*
X388520D01*
X227496Y775134D02*
Y796787D01*
X238913Y775134D02*
Y796787D01*
X227496Y775134D02*
X238913D01*
X227496Y796787D02*
X238913D01*
M02*
