G04*
G04 #@! TF.GenerationSoftware,Altium Limited,Altium Designer,21.9.1 (22)*
G04*
G04 Layer_Color=16711935*
%FSLAX25Y25*%
%MOIN*%
G70*
G04*
G04 #@! TF.SameCoordinates,8F0FC1BE-C161-4982-B8DB-F3E27E61BA57*
G04*
G04*
G04 #@! TF.FilePolarity,Positive*
G04*
G01*
G75*
%ADD11C,0.00394*%
%ADD197C,0.00197*%
D11*
X55500Y-186469D02*
Y-182531D01*
X53531Y-184500D02*
X57468D01*
X431531Y-231000D02*
X435468D01*
X433500Y-232968D02*
Y-229031D01*
X152000Y-125210D02*
Y-121273D01*
X150031Y-123242D02*
X153969D01*
X133500Y-129469D02*
Y-125531D01*
X131532Y-127500D02*
X135468D01*
X211803Y-229000D02*
X215740D01*
X213771Y-230968D02*
Y-227031D01*
X179668Y-132387D02*
Y-128449D01*
X177699Y-130418D02*
X181637D01*
X172387Y-132576D02*
Y-128639D01*
X170418Y-130607D02*
X174355D01*
X196168Y-152886D02*
Y-148950D01*
X194200Y-150918D02*
X198136D01*
X192668Y-127831D02*
X196605D01*
X194636Y-129800D02*
Y-125863D01*
X78965Y-214579D02*
X82902D01*
X80933Y-216547D02*
Y-212610D01*
X164500Y-230968D02*
Y-227031D01*
X162531Y-229000D02*
X166469D01*
X143532Y-123242D02*
X147468D01*
X145500Y-125210D02*
Y-121273D01*
X156532Y-123242D02*
X160468D01*
X158500Y-125210D02*
Y-121273D01*
X114232Y-114558D02*
Y-110621D01*
X112264Y-112589D02*
X116201D01*
X157000Y-112469D02*
Y-108531D01*
X155032Y-110500D02*
X158968D01*
X150500Y-112469D02*
Y-108531D01*
X148531Y-110500D02*
X152469D01*
X120791Y-114652D02*
Y-110715D01*
X118823Y-112684D02*
X122760D01*
X125886Y-79122D02*
Y-75185D01*
X123917Y-77153D02*
X127854D01*
X76032Y-142347D02*
X79969D01*
X78000Y-144315D02*
Y-140378D01*
X136500Y-55968D02*
Y-52031D01*
X134531Y-54000D02*
X138469D01*
X133500Y-104469D02*
Y-100531D01*
X131532Y-102500D02*
X135468D01*
X268000Y-148468D02*
Y-144532D01*
X266032Y-146500D02*
X269969D01*
X268000Y-139969D02*
Y-136031D01*
X266032Y-138000D02*
X269969D01*
X230031Y-164500D02*
X233968D01*
X232000Y-166469D02*
Y-162531D01*
X222750Y-164689D02*
X226687D01*
X224719Y-166658D02*
Y-162721D01*
X246532Y-185000D02*
X250468D01*
X248500Y-186969D02*
Y-183031D01*
X288000Y-119968D02*
Y-116032D01*
X286032Y-118000D02*
X289968D01*
X246969Y-163882D02*
Y-159945D01*
X245000Y-161913D02*
X248937D01*
X263764Y-124274D02*
X267701D01*
X265732Y-126243D02*
Y-122306D01*
D197*
X264032Y-71000D02*
X267969D01*
X266000Y-72969D02*
Y-69032D01*
M02*
