G04*
G04 #@! TF.GenerationSoftware,Altium Limited,Altium Designer,21.9.1 (22)*
G04*
G04 Layer_Color=32896*
%FSLAX25Y25*%
%MOIN*%
G70*
G04*
G04 #@! TF.SameCoordinates,8F0FC1BE-C161-4982-B8DB-F3E27E61BA57*
G04*
G04*
G04 #@! TF.FilePolarity,Positive*
G04*
G01*
G75*
%ADD10C,0.00984*%
%ADD12C,0.01000*%
%ADD14C,0.00787*%
%ADD15C,0.00591*%
G36*
X461733Y-113637D02*
Y-113924D01*
X461096Y-113691D01*
Y-115795D01*
X460778D01*
Y-113300D01*
X460829D01*
X461733Y-113637D01*
D02*
G37*
G36*
X459971Y-115034D02*
Y-115216D01*
X458842D01*
Y-115795D01*
X458524D01*
Y-115216D01*
X458179D01*
Y-114960D01*
X458524D01*
Y-113311D01*
X458862D01*
X459971Y-115034D01*
D02*
G37*
G36*
X462621Y-115077D02*
X462629Y-115158D01*
X462645Y-115232D01*
X462664Y-115294D01*
X462687Y-115344D01*
X462711Y-115383D01*
X462730Y-115414D01*
X462746Y-115430D01*
X462749Y-115437D01*
X462800Y-115480D01*
X462854Y-115507D01*
X462909Y-115531D01*
X462959Y-115546D01*
X463005Y-115554D01*
X463040Y-115558D01*
X463056Y-115562D01*
X463075D01*
X463153Y-115558D01*
X463223Y-115542D01*
X463281Y-115523D01*
X463331Y-115504D01*
X463366Y-115480D01*
X463393Y-115465D01*
X463413Y-115449D01*
X463417Y-115445D01*
X463455Y-115395D01*
X463483Y-115340D01*
X463506Y-115286D01*
X463518Y-115232D01*
X463525Y-115185D01*
X463529Y-115147D01*
X463533Y-115131D01*
Y-115119D01*
Y-115115D01*
Y-115112D01*
X463859D01*
X463855Y-115174D01*
X463851Y-115232D01*
X463828Y-115337D01*
X463812Y-115387D01*
X463793Y-115430D01*
X463774Y-115469D01*
X463754Y-115504D01*
X463739Y-115538D01*
X463719Y-115566D01*
X463700Y-115589D01*
X463685Y-115608D01*
X463673Y-115624D01*
X463661Y-115635D01*
X463657Y-115639D01*
X463653Y-115643D01*
X463615Y-115674D01*
X463568Y-115705D01*
X463475Y-115752D01*
X463382Y-115783D01*
X463289Y-115806D01*
X463242Y-115814D01*
X463203Y-115818D01*
X463168Y-115825D01*
X463137D01*
X463110Y-115829D01*
X463075D01*
X463009Y-115825D01*
X462951Y-115822D01*
X462839Y-115798D01*
X462788Y-115783D01*
X462742Y-115767D01*
X462699Y-115748D01*
X462660Y-115728D01*
X462625Y-115713D01*
X462594Y-115694D01*
X462571Y-115678D01*
X462548Y-115663D01*
X462532Y-115651D01*
X462521Y-115639D01*
X462513Y-115635D01*
X462509Y-115631D01*
X462470Y-115593D01*
X462435Y-115550D01*
X462408Y-115504D01*
X462385Y-115461D01*
X462346Y-115368D01*
X462319Y-115275D01*
X462303Y-115197D01*
X462299Y-115162D01*
X462295Y-115131D01*
X462291Y-115108D01*
Y-115088D01*
Y-115077D01*
Y-115073D01*
Y-113311D01*
X462621D01*
Y-115077D01*
D02*
G37*
G36*
X42219Y-47156D02*
X42285Y-47159D01*
X42347Y-47171D01*
X42405Y-47183D01*
X42459Y-47198D01*
X42510Y-47214D01*
X42556Y-47233D01*
X42599Y-47253D01*
X42638Y-47272D01*
X42669Y-47291D01*
X42696Y-47307D01*
X42719Y-47322D01*
X42739Y-47334D01*
X42750Y-47346D01*
X42758Y-47350D01*
X42762Y-47354D01*
X42801Y-47392D01*
X42836Y-47435D01*
X42870Y-47482D01*
X42898Y-47528D01*
X42944Y-47621D01*
X42975Y-47714D01*
X42987Y-47757D01*
X42998Y-47800D01*
X43006Y-47835D01*
X43014Y-47866D01*
X43018Y-47893D01*
Y-47912D01*
X43022Y-47924D01*
Y-47928D01*
X42684Y-47963D01*
X42676Y-47873D01*
X42661Y-47796D01*
X42638Y-47726D01*
X42610Y-47672D01*
X42587Y-47625D01*
X42564Y-47594D01*
X42548Y-47575D01*
X42541Y-47567D01*
X42482Y-47520D01*
X42420Y-47485D01*
X42354Y-47458D01*
X42296Y-47443D01*
X42242Y-47431D01*
X42195Y-47427D01*
X42180Y-47423D01*
X42156D01*
X42075Y-47427D01*
X42001Y-47443D01*
X41939Y-47466D01*
X41885Y-47489D01*
X41842Y-47516D01*
X41815Y-47536D01*
X41796Y-47551D01*
X41788Y-47559D01*
X41741Y-47613D01*
X41706Y-47668D01*
X41679Y-47722D01*
X41664Y-47776D01*
X41652Y-47819D01*
X41648Y-47858D01*
X41644Y-47881D01*
Y-47885D01*
Y-47889D01*
X41652Y-47959D01*
X41668Y-48033D01*
X41695Y-48098D01*
X41722Y-48160D01*
X41753Y-48211D01*
X41780Y-48254D01*
X41788Y-48269D01*
X41796Y-48281D01*
X41803Y-48285D01*
Y-48289D01*
X41834Y-48331D01*
X41873Y-48374D01*
X41916Y-48421D01*
X41963Y-48467D01*
X42059Y-48560D01*
X42156Y-48653D01*
X42207Y-48696D01*
X42250Y-48735D01*
X42292Y-48770D01*
X42327Y-48801D01*
X42354Y-48824D01*
X42378Y-48843D01*
X42393Y-48855D01*
X42397Y-48859D01*
X42494Y-48940D01*
X42583Y-49018D01*
X42657Y-49088D01*
X42715Y-49146D01*
X42766Y-49196D01*
X42801Y-49231D01*
X42820Y-49255D01*
X42828Y-49259D01*
Y-49262D01*
X42882Y-49328D01*
X42925Y-49391D01*
X42963Y-49452D01*
X42995Y-49507D01*
X43018Y-49553D01*
X43033Y-49588D01*
X43041Y-49612D01*
X43045Y-49615D01*
Y-49619D01*
X43060Y-49662D01*
X43068Y-49701D01*
X43076Y-49740D01*
X43080Y-49775D01*
X43084Y-49806D01*
Y-49829D01*
Y-49844D01*
Y-49848D01*
X41303D01*
Y-49530D01*
X42626D01*
X42579Y-49464D01*
X42556Y-49437D01*
X42537Y-49410D01*
X42517Y-49387D01*
X42502Y-49371D01*
X42490Y-49359D01*
X42486Y-49356D01*
X42467Y-49336D01*
X42444Y-49317D01*
X42389Y-49266D01*
X42327Y-49208D01*
X42261Y-49150D01*
X42199Y-49099D01*
X42172Y-49076D01*
X42149Y-49053D01*
X42129Y-49037D01*
X42114Y-49026D01*
X42106Y-49018D01*
X42102Y-49014D01*
X42040Y-48960D01*
X41978Y-48909D01*
X41924Y-48859D01*
X41873Y-48816D01*
X41827Y-48774D01*
X41788Y-48735D01*
X41749Y-48700D01*
X41718Y-48669D01*
X41687Y-48638D01*
X41664Y-48614D01*
X41644Y-48595D01*
X41625Y-48576D01*
X41605Y-48552D01*
X41598Y-48545D01*
X41543Y-48479D01*
X41497Y-48421D01*
X41458Y-48362D01*
X41427Y-48316D01*
X41404Y-48273D01*
X41388Y-48242D01*
X41381Y-48223D01*
X41377Y-48215D01*
X41353Y-48157D01*
X41338Y-48098D01*
X41322Y-48044D01*
X41315Y-47997D01*
X41311Y-47955D01*
X41307Y-47924D01*
Y-47904D01*
Y-47897D01*
X41311Y-47839D01*
X41318Y-47784D01*
X41326Y-47730D01*
X41342Y-47683D01*
X41381Y-47590D01*
X41419Y-47516D01*
X41443Y-47482D01*
X41462Y-47454D01*
X41481Y-47427D01*
X41501Y-47408D01*
X41516Y-47392D01*
X41524Y-47377D01*
X41532Y-47373D01*
X41536Y-47369D01*
X41578Y-47330D01*
X41625Y-47295D01*
X41675Y-47268D01*
X41726Y-47245D01*
X41827Y-47206D01*
X41928Y-47179D01*
X41970Y-47171D01*
X42013Y-47163D01*
X42052Y-47159D01*
X42083Y-47156D01*
X42110Y-47152D01*
X42149D01*
X42219Y-47156D01*
D02*
G37*
G36*
X44135Y-47218D02*
X44178Y-47280D01*
X44228Y-47342D01*
X44275Y-47396D01*
X44322Y-47443D01*
X44356Y-47482D01*
X44372Y-47493D01*
X44384Y-47505D01*
X44388Y-47509D01*
X44391Y-47513D01*
X44473Y-47578D01*
X44554Y-47641D01*
X44632Y-47695D01*
X44710Y-47738D01*
X44776Y-47776D01*
X44803Y-47792D01*
X44826Y-47804D01*
X44845Y-47815D01*
X44861Y-47819D01*
X44869Y-47827D01*
X44872D01*
Y-48145D01*
X44814Y-48122D01*
X44756Y-48094D01*
X44698Y-48067D01*
X44644Y-48040D01*
X44597Y-48017D01*
X44558Y-47997D01*
X44535Y-47982D01*
X44531Y-47978D01*
X44527D01*
X44457Y-47936D01*
X44395Y-47893D01*
X44341Y-47854D01*
X44298Y-47819D01*
X44259Y-47792D01*
X44236Y-47769D01*
X44217Y-47753D01*
X44213Y-47749D01*
Y-49848D01*
X43883D01*
Y-47152D01*
X44096D01*
X44135Y-47218D01*
D02*
G37*
G36*
X47697Y-49848D02*
X46731D01*
X46642Y-49844D01*
X46560Y-49841D01*
X46487Y-49833D01*
X46424Y-49825D01*
X46370Y-49817D01*
X46331Y-49813D01*
X46320Y-49810D01*
X46308Y-49806D01*
X46300D01*
X46231Y-49786D01*
X46168Y-49763D01*
X46114Y-49744D01*
X46068Y-49720D01*
X46029Y-49701D01*
X46002Y-49685D01*
X45986Y-49674D01*
X45978Y-49670D01*
X45928Y-49635D01*
X45885Y-49592D01*
X45842Y-49553D01*
X45808Y-49515D01*
X45777Y-49480D01*
X45753Y-49452D01*
X45738Y-49433D01*
X45734Y-49425D01*
X45695Y-49363D01*
X45656Y-49297D01*
X45625Y-49235D01*
X45602Y-49173D01*
X45579Y-49119D01*
X45563Y-49076D01*
X45559Y-49061D01*
X45555Y-49049D01*
X45551Y-49041D01*
Y-49037D01*
X45528Y-48944D01*
X45509Y-48851D01*
X45497Y-48762D01*
X45485Y-48676D01*
X45482Y-48603D01*
Y-48572D01*
X45478Y-48545D01*
Y-48525D01*
Y-48506D01*
Y-48498D01*
Y-48494D01*
X45482Y-48362D01*
X45493Y-48242D01*
X45513Y-48133D01*
X45520Y-48083D01*
X45532Y-48040D01*
X45544Y-47997D01*
X45551Y-47963D01*
X45559Y-47932D01*
X45571Y-47904D01*
X45575Y-47881D01*
X45583Y-47866D01*
X45586Y-47858D01*
Y-47854D01*
X45629Y-47753D01*
X45680Y-47664D01*
X45734Y-47586D01*
X45784Y-47520D01*
X45831Y-47466D01*
X45870Y-47427D01*
X45885Y-47416D01*
X45897Y-47404D01*
X45901Y-47400D01*
X45905Y-47396D01*
X45967Y-47346D01*
X46033Y-47307D01*
X46099Y-47272D01*
X46161Y-47245D01*
X46215Y-47225D01*
X46258Y-47214D01*
X46273Y-47206D01*
X46285D01*
X46293Y-47202D01*
X46296D01*
X46362Y-47190D01*
X46440Y-47179D01*
X46518Y-47171D01*
X46595Y-47167D01*
X46665Y-47163D01*
X47697D01*
Y-49848D01*
D02*
G37*
G36*
X19323Y-49132D02*
X19389Y-49136D01*
X19452Y-49148D01*
X19510Y-49160D01*
X19564Y-49175D01*
X19614Y-49191D01*
X19661Y-49210D01*
X19704Y-49229D01*
X19742Y-49249D01*
X19773Y-49268D01*
X19801Y-49284D01*
X19824Y-49299D01*
X19843Y-49311D01*
X19855Y-49322D01*
X19863Y-49326D01*
X19867Y-49330D01*
X19906Y-49369D01*
X19940Y-49412D01*
X19975Y-49458D01*
X20003Y-49505D01*
X20049Y-49598D01*
X20080Y-49691D01*
X20092Y-49734D01*
X20103Y-49776D01*
X20111Y-49811D01*
X20119Y-49842D01*
X20123Y-49869D01*
Y-49889D01*
X20127Y-49900D01*
Y-49904D01*
X19789Y-49939D01*
X19781Y-49850D01*
X19766Y-49773D01*
X19742Y-49703D01*
X19715Y-49648D01*
X19692Y-49602D01*
X19669Y-49571D01*
X19653Y-49551D01*
X19646Y-49544D01*
X19587Y-49497D01*
X19525Y-49462D01*
X19459Y-49435D01*
X19401Y-49419D01*
X19347Y-49408D01*
X19300Y-49404D01*
X19285Y-49400D01*
X19261D01*
X19180Y-49404D01*
X19106Y-49419D01*
X19044Y-49443D01*
X18990Y-49466D01*
X18947Y-49493D01*
X18920Y-49512D01*
X18901Y-49528D01*
X18893Y-49536D01*
X18846Y-49590D01*
X18811Y-49645D01*
X18784Y-49699D01*
X18769Y-49753D01*
X18757Y-49796D01*
X18753Y-49835D01*
X18749Y-49858D01*
Y-49862D01*
Y-49866D01*
X18757Y-49935D01*
X18772Y-50009D01*
X18800Y-50075D01*
X18827Y-50137D01*
X18858Y-50188D01*
X18885Y-50230D01*
X18893Y-50246D01*
X18901Y-50257D01*
X18908Y-50261D01*
Y-50265D01*
X18939Y-50308D01*
X18978Y-50351D01*
X19021Y-50397D01*
X19067Y-50444D01*
X19164Y-50537D01*
X19261Y-50630D01*
X19312Y-50673D01*
X19354Y-50712D01*
X19397Y-50746D01*
X19432Y-50777D01*
X19459Y-50801D01*
X19482Y-50820D01*
X19498Y-50832D01*
X19502Y-50836D01*
X19599Y-50917D01*
X19688Y-50995D01*
X19762Y-51064D01*
X19820Y-51123D01*
X19871Y-51173D01*
X19906Y-51208D01*
X19925Y-51231D01*
X19933Y-51235D01*
Y-51239D01*
X19987Y-51305D01*
X20030Y-51367D01*
X20068Y-51429D01*
X20099Y-51484D01*
X20123Y-51530D01*
X20138Y-51565D01*
X20146Y-51588D01*
X20150Y-51592D01*
Y-51596D01*
X20165Y-51639D01*
X20173Y-51678D01*
X20181Y-51716D01*
X20185Y-51751D01*
X20189Y-51782D01*
Y-51806D01*
Y-51821D01*
Y-51825D01*
X18408D01*
Y-51507D01*
X19731D01*
X19684Y-51441D01*
X19661Y-51414D01*
X19642Y-51387D01*
X19622Y-51363D01*
X19607Y-51348D01*
X19595Y-51336D01*
X19591Y-51332D01*
X19572Y-51313D01*
X19548Y-51293D01*
X19494Y-51243D01*
X19432Y-51185D01*
X19366Y-51127D01*
X19304Y-51076D01*
X19277Y-51053D01*
X19254Y-51030D01*
X19234Y-51014D01*
X19219Y-51003D01*
X19211Y-50995D01*
X19207Y-50991D01*
X19145Y-50937D01*
X19083Y-50886D01*
X19029Y-50836D01*
X18978Y-50793D01*
X18932Y-50750D01*
X18893Y-50712D01*
X18854Y-50677D01*
X18823Y-50646D01*
X18792Y-50615D01*
X18769Y-50591D01*
X18749Y-50572D01*
X18730Y-50552D01*
X18710Y-50529D01*
X18703Y-50521D01*
X18648Y-50455D01*
X18602Y-50397D01*
X18563Y-50339D01*
X18532Y-50292D01*
X18509Y-50250D01*
X18493Y-50219D01*
X18485Y-50199D01*
X18482Y-50191D01*
X18458Y-50133D01*
X18443Y-50075D01*
X18427Y-50021D01*
X18419Y-49974D01*
X18416Y-49932D01*
X18412Y-49900D01*
Y-49881D01*
Y-49873D01*
X18416Y-49815D01*
X18423Y-49761D01*
X18431Y-49707D01*
X18447Y-49660D01*
X18485Y-49567D01*
X18524Y-49493D01*
X18548Y-49458D01*
X18567Y-49431D01*
X18586Y-49404D01*
X18606Y-49384D01*
X18621Y-49369D01*
X18629Y-49354D01*
X18637Y-49350D01*
X18641Y-49346D01*
X18683Y-49307D01*
X18730Y-49272D01*
X18780Y-49245D01*
X18831Y-49222D01*
X18932Y-49183D01*
X19033Y-49156D01*
X19075Y-49148D01*
X19118Y-49140D01*
X19157Y-49136D01*
X19188Y-49132D01*
X19215Y-49128D01*
X19254D01*
X19323Y-49132D01*
D02*
G37*
G36*
X22711Y-51825D02*
X22354D01*
Y-50634D01*
X21896D01*
X21853Y-50638D01*
X21822D01*
X21795Y-50642D01*
X21776Y-50646D01*
X21760D01*
X21752Y-50649D01*
X21748D01*
X21686Y-50669D01*
X21659Y-50680D01*
X21636Y-50692D01*
X21613Y-50704D01*
X21597Y-50712D01*
X21589Y-50715D01*
X21586Y-50719D01*
X21554Y-50743D01*
X21523Y-50770D01*
X21465Y-50828D01*
X21438Y-50855D01*
X21419Y-50878D01*
X21407Y-50894D01*
X21403Y-50898D01*
X21364Y-50952D01*
X21322Y-51010D01*
X21279Y-51072D01*
X21236Y-51130D01*
X21201Y-51185D01*
X21174Y-51227D01*
X21163Y-51243D01*
X21155Y-51255D01*
X21147Y-51262D01*
Y-51266D01*
X20794Y-51825D01*
X20352D01*
X20813Y-51096D01*
X20868Y-51018D01*
X20918Y-50948D01*
X20969Y-50890D01*
X21011Y-50836D01*
X21050Y-50797D01*
X21081Y-50766D01*
X21101Y-50746D01*
X21108Y-50739D01*
X21139Y-50715D01*
X21174Y-50688D01*
X21244Y-50646D01*
X21275Y-50630D01*
X21298Y-50615D01*
X21314Y-50607D01*
X21322Y-50603D01*
X21252Y-50591D01*
X21186Y-50580D01*
X21128Y-50560D01*
X21069Y-50545D01*
X21019Y-50525D01*
X20973Y-50502D01*
X20930Y-50482D01*
X20891Y-50463D01*
X20860Y-50440D01*
X20829Y-50420D01*
X20806Y-50405D01*
X20786Y-50389D01*
X20771Y-50378D01*
X20759Y-50366D01*
X20755Y-50362D01*
X20751Y-50358D01*
X20720Y-50320D01*
X20689Y-50281D01*
X20643Y-50199D01*
X20612Y-50118D01*
X20588Y-50040D01*
X20573Y-49974D01*
X20569Y-49947D01*
Y-49920D01*
X20565Y-49900D01*
Y-49885D01*
Y-49877D01*
Y-49873D01*
X20569Y-49792D01*
X20581Y-49718D01*
X20600Y-49648D01*
X20619Y-49590D01*
X20643Y-49540D01*
X20658Y-49501D01*
X20674Y-49478D01*
X20678Y-49474D01*
Y-49470D01*
X20724Y-49408D01*
X20771Y-49354D01*
X20821Y-49307D01*
X20868Y-49272D01*
X20910Y-49245D01*
X20945Y-49229D01*
X20969Y-49218D01*
X20973Y-49214D01*
X20976D01*
X21011Y-49202D01*
X21054Y-49191D01*
X21139Y-49171D01*
X21232Y-49160D01*
X21318Y-49148D01*
X21399Y-49144D01*
X21434D01*
X21465Y-49140D01*
X22711D01*
Y-51825D01*
D02*
G37*
G36*
X17244Y-49132D02*
X17306Y-49136D01*
X17414Y-49160D01*
X17465Y-49175D01*
X17512Y-49191D01*
X17554Y-49210D01*
X17593Y-49229D01*
X17624Y-49249D01*
X17655Y-49268D01*
X17682Y-49284D01*
X17702Y-49299D01*
X17717Y-49311D01*
X17729Y-49322D01*
X17737Y-49326D01*
X17740Y-49330D01*
X17775Y-49369D01*
X17810Y-49408D01*
X17837Y-49450D01*
X17861Y-49493D01*
X17899Y-49575D01*
X17923Y-49652D01*
X17938Y-49718D01*
X17942Y-49749D01*
X17946Y-49773D01*
X17950Y-49796D01*
Y-49811D01*
Y-49819D01*
Y-49823D01*
X17946Y-49893D01*
X17934Y-49959D01*
X17919Y-50017D01*
X17899Y-50067D01*
X17884Y-50106D01*
X17868Y-50137D01*
X17857Y-50153D01*
X17853Y-50160D01*
X17810Y-50207D01*
X17764Y-50250D01*
X17713Y-50288D01*
X17663Y-50320D01*
X17616Y-50343D01*
X17581Y-50358D01*
X17566Y-50366D01*
X17554Y-50370D01*
X17550Y-50374D01*
X17546D01*
X17636Y-50401D01*
X17709Y-50436D01*
X17775Y-50479D01*
X17830Y-50517D01*
X17872Y-50556D01*
X17903Y-50587D01*
X17919Y-50607D01*
X17927Y-50611D01*
Y-50615D01*
X17969Y-50684D01*
X18004Y-50758D01*
X18027Y-50828D01*
X18043Y-50898D01*
X18051Y-50960D01*
X18055Y-50987D01*
Y-51010D01*
X18059Y-51026D01*
Y-51041D01*
Y-51049D01*
Y-51053D01*
X18055Y-51115D01*
X18047Y-51177D01*
X18035Y-51235D01*
X18020Y-51293D01*
X17981Y-51390D01*
X17962Y-51437D01*
X17938Y-51476D01*
X17915Y-51515D01*
X17896Y-51546D01*
X17872Y-51573D01*
X17857Y-51596D01*
X17841Y-51616D01*
X17830Y-51627D01*
X17822Y-51635D01*
X17818Y-51639D01*
X17772Y-51682D01*
X17721Y-51716D01*
X17667Y-51747D01*
X17612Y-51775D01*
X17562Y-51794D01*
X17508Y-51813D01*
X17403Y-51841D01*
X17356Y-51852D01*
X17314Y-51860D01*
X17275Y-51864D01*
X17240Y-51868D01*
X17213Y-51872D01*
X17174D01*
X17100Y-51868D01*
X17034Y-51860D01*
X16968Y-51848D01*
X16906Y-51837D01*
X16852Y-51817D01*
X16798Y-51798D01*
X16747Y-51779D01*
X16704Y-51755D01*
X16666Y-51732D01*
X16631Y-51713D01*
X16604Y-51693D01*
X16576Y-51674D01*
X16557Y-51662D01*
X16545Y-51650D01*
X16538Y-51643D01*
X16534Y-51639D01*
X16491Y-51592D01*
X16452Y-51546D01*
X16421Y-51499D01*
X16394Y-51449D01*
X16367Y-51402D01*
X16348Y-51352D01*
X16320Y-51262D01*
X16309Y-51220D01*
X16301Y-51181D01*
X16297Y-51146D01*
X16293Y-51119D01*
X16289Y-51096D01*
Y-51076D01*
Y-51064D01*
Y-51061D01*
X16293Y-50971D01*
X16309Y-50890D01*
X16332Y-50816D01*
X16355Y-50754D01*
X16378Y-50704D01*
X16402Y-50665D01*
X16417Y-50642D01*
X16421Y-50638D01*
Y-50634D01*
X16476Y-50572D01*
X16534Y-50517D01*
X16596Y-50475D01*
X16654Y-50436D01*
X16708Y-50409D01*
X16755Y-50389D01*
X16770Y-50382D01*
X16782Y-50378D01*
X16790Y-50374D01*
X16794D01*
X16724Y-50343D01*
X16666Y-50308D01*
X16615Y-50273D01*
X16572Y-50238D01*
X16542Y-50207D01*
X16518Y-50184D01*
X16503Y-50168D01*
X16499Y-50160D01*
X16464Y-50106D01*
X16441Y-50052D01*
X16421Y-49997D01*
X16410Y-49943D01*
X16402Y-49900D01*
X16398Y-49866D01*
Y-49842D01*
Y-49839D01*
Y-49835D01*
X16402Y-49780D01*
X16406Y-49730D01*
X16433Y-49633D01*
X16468Y-49547D01*
X16507Y-49474D01*
X16545Y-49415D01*
X16565Y-49392D01*
X16580Y-49369D01*
X16596Y-49354D01*
X16608Y-49342D01*
X16611Y-49338D01*
X16615Y-49334D01*
X16658Y-49299D01*
X16701Y-49264D01*
X16747Y-49237D01*
X16794Y-49214D01*
X16887Y-49179D01*
X16980Y-49156D01*
X17019Y-49144D01*
X17057Y-49140D01*
X17093Y-49136D01*
X17123Y-49132D01*
X17147Y-49128D01*
X17182D01*
X17244Y-49132D01*
D02*
G37*
G36*
X43348Y-8148D02*
X42157D01*
Y-8606D01*
X42161Y-8649D01*
Y-8680D01*
X42165Y-8707D01*
X42169Y-8726D01*
Y-8742D01*
X42173Y-8750D01*
Y-8754D01*
X42192Y-8816D01*
X42204Y-8843D01*
X42215Y-8866D01*
X42227Y-8889D01*
X42235Y-8905D01*
X42239Y-8913D01*
X42243Y-8916D01*
X42266Y-8947D01*
X42293Y-8979D01*
X42351Y-9037D01*
X42378Y-9064D01*
X42402Y-9083D01*
X42417Y-9095D01*
X42421Y-9099D01*
X42475Y-9138D01*
X42533Y-9180D01*
X42596Y-9223D01*
X42654Y-9266D01*
X42708Y-9301D01*
X42751Y-9328D01*
X42766Y-9339D01*
X42778Y-9347D01*
X42786Y-9355D01*
X42790D01*
X43348Y-9708D01*
Y-10150D01*
X42619Y-9689D01*
X42541Y-9634D01*
X42471Y-9584D01*
X42413Y-9533D01*
X42359Y-9491D01*
X42320Y-9452D01*
X42289Y-9421D01*
X42270Y-9401D01*
X42262Y-9394D01*
X42239Y-9363D01*
X42211Y-9328D01*
X42169Y-9258D01*
X42153Y-9227D01*
X42138Y-9204D01*
X42130Y-9188D01*
X42126Y-9180D01*
X42114Y-9250D01*
X42103Y-9316D01*
X42083Y-9374D01*
X42068Y-9432D01*
X42048Y-9483D01*
X42025Y-9529D01*
X42006Y-9572D01*
X41986Y-9611D01*
X41963Y-9642D01*
X41944Y-9673D01*
X41928Y-9696D01*
X41913Y-9716D01*
X41901Y-9731D01*
X41889Y-9743D01*
X41886Y-9747D01*
X41882Y-9751D01*
X41843Y-9782D01*
X41804Y-9813D01*
X41723Y-9859D01*
X41641Y-9890D01*
X41563Y-9914D01*
X41497Y-9929D01*
X41470Y-9933D01*
X41443D01*
X41424Y-9937D01*
X41408D01*
X41401D01*
X41397D01*
X41315Y-9933D01*
X41241Y-9921D01*
X41172Y-9902D01*
X41113Y-9883D01*
X41063Y-9859D01*
X41024Y-9844D01*
X41001Y-9828D01*
X40997Y-9824D01*
X40993D01*
X40931Y-9778D01*
X40877Y-9731D01*
X40830Y-9681D01*
X40795Y-9634D01*
X40768Y-9591D01*
X40753Y-9557D01*
X40741Y-9533D01*
X40737Y-9529D01*
Y-9526D01*
X40725Y-9491D01*
X40714Y-9448D01*
X40694Y-9363D01*
X40683Y-9269D01*
X40671Y-9184D01*
X40667Y-9103D01*
Y-9068D01*
X40663Y-9037D01*
Y-7791D01*
X43348D01*
Y-8148D01*
D02*
G37*
G36*
Y-12094D02*
X43030D01*
Y-10771D01*
X42964Y-10818D01*
X42937Y-10841D01*
X42910Y-10860D01*
X42887Y-10880D01*
X42871Y-10895D01*
X42859Y-10907D01*
X42856Y-10911D01*
X42836Y-10930D01*
X42817Y-10953D01*
X42766Y-11008D01*
X42708Y-11070D01*
X42650Y-11136D01*
X42599Y-11198D01*
X42576Y-11225D01*
X42553Y-11248D01*
X42537Y-11268D01*
X42526Y-11283D01*
X42518Y-11291D01*
X42514Y-11295D01*
X42460Y-11357D01*
X42409Y-11419D01*
X42359Y-11473D01*
X42316Y-11524D01*
X42274Y-11570D01*
X42235Y-11609D01*
X42200Y-11648D01*
X42169Y-11679D01*
X42138Y-11710D01*
X42114Y-11733D01*
X42095Y-11753D01*
X42076Y-11772D01*
X42052Y-11791D01*
X42045Y-11799D01*
X41979Y-11854D01*
X41920Y-11900D01*
X41862Y-11939D01*
X41816Y-11970D01*
X41773Y-11993D01*
X41742Y-12009D01*
X41723Y-12016D01*
X41715Y-12020D01*
X41657Y-12044D01*
X41598Y-12059D01*
X41544Y-12075D01*
X41497Y-12083D01*
X41455Y-12086D01*
X41424Y-12090D01*
X41404D01*
X41397D01*
X41339Y-12086D01*
X41284Y-12079D01*
X41230Y-12071D01*
X41183Y-12055D01*
X41090Y-12016D01*
X41016Y-11978D01*
X40982Y-11954D01*
X40954Y-11935D01*
X40927Y-11916D01*
X40908Y-11896D01*
X40892Y-11881D01*
X40877Y-11873D01*
X40873Y-11865D01*
X40869Y-11861D01*
X40830Y-11819D01*
X40795Y-11772D01*
X40768Y-11722D01*
X40745Y-11671D01*
X40706Y-11570D01*
X40679Y-11469D01*
X40671Y-11427D01*
X40663Y-11384D01*
X40659Y-11345D01*
X40656Y-11314D01*
X40652Y-11287D01*
Y-11248D01*
X40656Y-11179D01*
X40659Y-11112D01*
X40671Y-11050D01*
X40683Y-10992D01*
X40698Y-10938D01*
X40714Y-10887D01*
X40733Y-10841D01*
X40753Y-10798D01*
X40772Y-10759D01*
X40791Y-10728D01*
X40807Y-10701D01*
X40822Y-10678D01*
X40834Y-10659D01*
X40846Y-10647D01*
X40850Y-10639D01*
X40853Y-10635D01*
X40892Y-10597D01*
X40935Y-10561D01*
X40982Y-10527D01*
X41028Y-10499D01*
X41121Y-10453D01*
X41214Y-10422D01*
X41257Y-10410D01*
X41300Y-10399D01*
X41335Y-10391D01*
X41366Y-10383D01*
X41393Y-10379D01*
X41412D01*
X41424Y-10375D01*
X41428D01*
X41463Y-10713D01*
X41373Y-10721D01*
X41296Y-10736D01*
X41226Y-10759D01*
X41172Y-10787D01*
X41125Y-10810D01*
X41094Y-10833D01*
X41075Y-10849D01*
X41067Y-10856D01*
X41020Y-10915D01*
X40985Y-10977D01*
X40958Y-11043D01*
X40943Y-11101D01*
X40931Y-11155D01*
X40927Y-11202D01*
X40923Y-11217D01*
Y-11241D01*
X40927Y-11322D01*
X40943Y-11396D01*
X40966Y-11458D01*
X40989Y-11512D01*
X41016Y-11555D01*
X41036Y-11582D01*
X41051Y-11601D01*
X41059Y-11609D01*
X41113Y-11656D01*
X41168Y-11691D01*
X41222Y-11718D01*
X41276Y-11733D01*
X41319Y-11745D01*
X41358Y-11749D01*
X41381Y-11753D01*
X41385D01*
X41389D01*
X41459Y-11745D01*
X41532Y-11729D01*
X41598Y-11702D01*
X41660Y-11675D01*
X41711Y-11644D01*
X41754Y-11617D01*
X41769Y-11609D01*
X41781Y-11601D01*
X41785Y-11594D01*
X41789D01*
X41831Y-11563D01*
X41874Y-11524D01*
X41920Y-11481D01*
X41967Y-11435D01*
X42060Y-11338D01*
X42153Y-11241D01*
X42196Y-11190D01*
X42235Y-11147D01*
X42270Y-11105D01*
X42301Y-11070D01*
X42324Y-11043D01*
X42343Y-11019D01*
X42355Y-11004D01*
X42359Y-11000D01*
X42440Y-10903D01*
X42518Y-10814D01*
X42588Y-10740D01*
X42646Y-10682D01*
X42696Y-10631D01*
X42731Y-10597D01*
X42755Y-10577D01*
X42759Y-10569D01*
X42762D01*
X42828Y-10515D01*
X42890Y-10472D01*
X42952Y-10434D01*
X43007Y-10402D01*
X43053Y-10379D01*
X43088Y-10364D01*
X43112Y-10356D01*
X43115Y-10352D01*
X43119D01*
X43162Y-10336D01*
X43201Y-10329D01*
X43240Y-10321D01*
X43275Y-10317D01*
X43306Y-10313D01*
X43329D01*
X43344D01*
X43348D01*
Y-12094D01*
D02*
G37*
G36*
X41016Y-13786D02*
X41129Y-13693D01*
X41249Y-13603D01*
X41366Y-13526D01*
X41478Y-13452D01*
X41529Y-13421D01*
X41575Y-13394D01*
X41618Y-13367D01*
X41653Y-13347D01*
X41684Y-13332D01*
X41703Y-13320D01*
X41719Y-13313D01*
X41723Y-13309D01*
X41878Y-13231D01*
X42033Y-13161D01*
X42180Y-13103D01*
X42246Y-13080D01*
X42312Y-13056D01*
X42371Y-13033D01*
X42425Y-13018D01*
X42471Y-13002D01*
X42510Y-12990D01*
X42545Y-12979D01*
X42568Y-12971D01*
X42584Y-12967D01*
X42588D01*
X42747Y-12928D01*
X42825Y-12913D01*
X42894Y-12901D01*
X42960Y-12889D01*
X43026Y-12878D01*
X43081Y-12870D01*
X43135Y-12862D01*
X43181Y-12858D01*
X43224Y-12855D01*
X43263Y-12851D01*
X43294D01*
X43317Y-12847D01*
X43333D01*
X43344D01*
X43348D01*
Y-13184D01*
X43201Y-13196D01*
X43065Y-13216D01*
X42941Y-13235D01*
X42883Y-13247D01*
X42828Y-13258D01*
X42782Y-13266D01*
X42739Y-13277D01*
X42700Y-13285D01*
X42669Y-13293D01*
X42646Y-13301D01*
X42627Y-13305D01*
X42615Y-13309D01*
X42611D01*
X42433Y-13367D01*
X42266Y-13429D01*
X42184Y-13460D01*
X42107Y-13491D01*
X42037Y-13526D01*
X41967Y-13557D01*
X41905Y-13584D01*
X41851Y-13611D01*
X41804Y-13634D01*
X41761Y-13654D01*
X41726Y-13673D01*
X41703Y-13685D01*
X41688Y-13693D01*
X41684Y-13697D01*
X41602Y-13743D01*
X41521Y-13790D01*
X41447Y-13836D01*
X41377Y-13883D01*
X41315Y-13926D01*
X41253Y-13968D01*
X41199Y-14011D01*
X41152Y-14046D01*
X41106Y-14081D01*
X41067Y-14112D01*
X41036Y-14143D01*
X41009Y-14166D01*
X40985Y-14182D01*
X40970Y-14197D01*
X40962Y-14205D01*
X40958Y-14209D01*
X40698D01*
Y-12471D01*
X41016D01*
Y-13786D01*
D02*
G37*
G36*
X78821Y-57132D02*
X78887Y-57136D01*
X78950Y-57148D01*
X79008Y-57160D01*
X79062Y-57175D01*
X79112Y-57191D01*
X79159Y-57210D01*
X79202Y-57229D01*
X79241Y-57249D01*
X79272Y-57268D01*
X79299Y-57284D01*
X79322Y-57299D01*
X79341Y-57311D01*
X79353Y-57322D01*
X79361Y-57326D01*
X79365Y-57330D01*
X79404Y-57369D01*
X79438Y-57412D01*
X79473Y-57458D01*
X79501Y-57505D01*
X79547Y-57598D01*
X79578Y-57691D01*
X79590Y-57734D01*
X79601Y-57776D01*
X79609Y-57811D01*
X79617Y-57842D01*
X79621Y-57869D01*
Y-57889D01*
X79625Y-57901D01*
Y-57904D01*
X79287Y-57939D01*
X79279Y-57850D01*
X79264Y-57772D01*
X79241Y-57703D01*
X79213Y-57648D01*
X79190Y-57602D01*
X79167Y-57571D01*
X79151Y-57551D01*
X79144Y-57544D01*
X79085Y-57497D01*
X79023Y-57462D01*
X78957Y-57435D01*
X78899Y-57419D01*
X78845Y-57408D01*
X78798Y-57404D01*
X78783Y-57400D01*
X78759D01*
X78678Y-57404D01*
X78604Y-57419D01*
X78542Y-57443D01*
X78488Y-57466D01*
X78445Y-57493D01*
X78418Y-57512D01*
X78399Y-57528D01*
X78391Y-57536D01*
X78344Y-57590D01*
X78309Y-57644D01*
X78282Y-57699D01*
X78267Y-57753D01*
X78255Y-57796D01*
X78251Y-57835D01*
X78247Y-57858D01*
Y-57862D01*
Y-57866D01*
X78255Y-57936D01*
X78271Y-58009D01*
X78298Y-58075D01*
X78325Y-58137D01*
X78356Y-58188D01*
X78383Y-58230D01*
X78391Y-58246D01*
X78399Y-58258D01*
X78406Y-58261D01*
Y-58265D01*
X78437Y-58308D01*
X78476Y-58351D01*
X78519Y-58397D01*
X78565Y-58444D01*
X78662Y-58537D01*
X78759Y-58630D01*
X78810Y-58673D01*
X78853Y-58711D01*
X78895Y-58746D01*
X78930Y-58777D01*
X78957Y-58801D01*
X78981Y-58820D01*
X78996Y-58832D01*
X79000Y-58836D01*
X79097Y-58917D01*
X79186Y-58995D01*
X79260Y-59065D01*
X79318Y-59123D01*
X79369Y-59173D01*
X79404Y-59208D01*
X79423Y-59231D01*
X79431Y-59235D01*
Y-59239D01*
X79485Y-59305D01*
X79528Y-59367D01*
X79567Y-59429D01*
X79598Y-59484D01*
X79621Y-59530D01*
X79636Y-59565D01*
X79644Y-59588D01*
X79648Y-59592D01*
Y-59596D01*
X79663Y-59639D01*
X79671Y-59678D01*
X79679Y-59716D01*
X79683Y-59751D01*
X79687Y-59782D01*
Y-59806D01*
Y-59821D01*
Y-59825D01*
X77906D01*
Y-59507D01*
X79229D01*
X79182Y-59441D01*
X79159Y-59414D01*
X79140Y-59387D01*
X79120Y-59363D01*
X79105Y-59348D01*
X79093Y-59336D01*
X79089Y-59332D01*
X79070Y-59313D01*
X79047Y-59294D01*
X78992Y-59243D01*
X78930Y-59185D01*
X78864Y-59127D01*
X78802Y-59076D01*
X78775Y-59053D01*
X78752Y-59030D01*
X78732Y-59014D01*
X78717Y-59003D01*
X78709Y-58995D01*
X78705Y-58991D01*
X78643Y-58937D01*
X78581Y-58886D01*
X78527Y-58836D01*
X78476Y-58793D01*
X78430Y-58750D01*
X78391Y-58711D01*
X78352Y-58676D01*
X78321Y-58645D01*
X78290Y-58614D01*
X78267Y-58591D01*
X78247Y-58572D01*
X78228Y-58552D01*
X78209Y-58529D01*
X78201Y-58521D01*
X78146Y-58455D01*
X78100Y-58397D01*
X78061Y-58339D01*
X78030Y-58292D01*
X78007Y-58250D01*
X77991Y-58219D01*
X77983Y-58199D01*
X77980Y-58192D01*
X77956Y-58133D01*
X77941Y-58075D01*
X77925Y-58021D01*
X77917Y-57974D01*
X77914Y-57932D01*
X77910Y-57901D01*
Y-57881D01*
Y-57873D01*
X77914Y-57815D01*
X77921Y-57761D01*
X77929Y-57706D01*
X77945Y-57660D01*
X77983Y-57567D01*
X78022Y-57493D01*
X78045Y-57458D01*
X78065Y-57431D01*
X78084Y-57404D01*
X78104Y-57385D01*
X78119Y-57369D01*
X78127Y-57354D01*
X78135Y-57350D01*
X78139Y-57346D01*
X78181Y-57307D01*
X78228Y-57272D01*
X78278Y-57245D01*
X78329Y-57222D01*
X78430Y-57183D01*
X78531Y-57156D01*
X78573Y-57148D01*
X78616Y-57140D01*
X78655Y-57136D01*
X78686Y-57132D01*
X78713Y-57128D01*
X78752D01*
X78821Y-57132D01*
D02*
G37*
G36*
X76680D02*
X76753Y-57140D01*
X76823Y-57156D01*
X76889Y-57175D01*
X76947Y-57202D01*
X77006Y-57225D01*
X77056Y-57257D01*
X77103Y-57284D01*
X77141Y-57311D01*
X77180Y-57342D01*
X77211Y-57365D01*
X77235Y-57388D01*
X77254Y-57412D01*
X77270Y-57427D01*
X77277Y-57435D01*
X77281Y-57439D01*
X77332Y-57509D01*
X77374Y-57590D01*
X77413Y-57675D01*
X77448Y-57765D01*
X77475Y-57858D01*
X77498Y-57951D01*
X77518Y-58048D01*
X77533Y-58137D01*
X77545Y-58227D01*
X77553Y-58308D01*
X77561Y-58382D01*
X77564Y-58444D01*
Y-58498D01*
X77568Y-58537D01*
Y-58552D01*
Y-58564D01*
Y-58568D01*
Y-58572D01*
X77564Y-58696D01*
X77557Y-58812D01*
X77545Y-58921D01*
X77526Y-59022D01*
X77506Y-59111D01*
X77487Y-59193D01*
X77464Y-59266D01*
X77436Y-59332D01*
X77413Y-59387D01*
X77390Y-59437D01*
X77370Y-59476D01*
X77347Y-59511D01*
X77332Y-59538D01*
X77320Y-59553D01*
X77312Y-59565D01*
X77308Y-59569D01*
X77258Y-59623D01*
X77204Y-59670D01*
X77149Y-59709D01*
X77095Y-59743D01*
X77037Y-59775D01*
X76982Y-59798D01*
X76928Y-59817D01*
X76874Y-59833D01*
X76827Y-59844D01*
X76781Y-59856D01*
X76742Y-59864D01*
X76707Y-59868D01*
X76676D01*
X76657Y-59872D01*
X76637D01*
X76548Y-59868D01*
X76466Y-59852D01*
X76393Y-59837D01*
X76327Y-59813D01*
X76276Y-59794D01*
X76237Y-59775D01*
X76222Y-59771D01*
X76210Y-59763D01*
X76206Y-59759D01*
X76202D01*
X76137Y-59712D01*
X76074Y-59658D01*
X76024Y-59604D01*
X75981Y-59549D01*
X75946Y-59499D01*
X75923Y-59460D01*
X75915Y-59445D01*
X75908Y-59433D01*
X75904Y-59429D01*
Y-59425D01*
X75865Y-59344D01*
X75838Y-59259D01*
X75818Y-59181D01*
X75807Y-59107D01*
X75795Y-59045D01*
Y-59022D01*
X75791Y-58999D01*
Y-58979D01*
Y-58968D01*
Y-58960D01*
Y-58956D01*
X75795Y-58886D01*
X75803Y-58820D01*
X75814Y-58754D01*
X75826Y-58696D01*
X75846Y-58642D01*
X75865Y-58587D01*
X75884Y-58541D01*
X75908Y-58498D01*
X75931Y-58459D01*
X75950Y-58424D01*
X75970Y-58397D01*
X75989Y-58370D01*
X76001Y-58351D01*
X76012Y-58339D01*
X76020Y-58331D01*
X76024Y-58327D01*
X76067Y-58285D01*
X76113Y-58246D01*
X76164Y-58215D01*
X76210Y-58188D01*
X76257Y-58161D01*
X76303Y-58141D01*
X76393Y-58114D01*
X76431Y-58102D01*
X76470Y-58095D01*
X76501Y-58091D01*
X76532Y-58087D01*
X76556Y-58083D01*
X76587D01*
X76657Y-58087D01*
X76722Y-58098D01*
X76784Y-58110D01*
X76839Y-58126D01*
X76885Y-58145D01*
X76920Y-58157D01*
X76944Y-58168D01*
X76947Y-58172D01*
X76951D01*
X77013Y-58211D01*
X77068Y-58254D01*
X77118Y-58296D01*
X77157Y-58343D01*
X77192Y-58382D01*
X77219Y-58413D01*
X77235Y-58436D01*
X77239Y-58440D01*
Y-58370D01*
X77235Y-58300D01*
X77231Y-58238D01*
X77223Y-58176D01*
X77219Y-58122D01*
X77211Y-58071D01*
X77204Y-58025D01*
X77192Y-57982D01*
X77184Y-57943D01*
X77176Y-57912D01*
X77169Y-57885D01*
X77165Y-57862D01*
X77157Y-57846D01*
X77153Y-57835D01*
X77149Y-57827D01*
Y-57823D01*
X77110Y-57745D01*
X77072Y-57675D01*
X77029Y-57621D01*
X76990Y-57575D01*
X76955Y-57536D01*
X76928Y-57509D01*
X76909Y-57493D01*
X76901Y-57489D01*
X76854Y-57458D01*
X76808Y-57439D01*
X76761Y-57423D01*
X76715Y-57412D01*
X76680Y-57404D01*
X76649Y-57400D01*
X76622D01*
X76552Y-57408D01*
X76486Y-57423D01*
X76431Y-57447D01*
X76381Y-57470D01*
X76342Y-57497D01*
X76315Y-57520D01*
X76300Y-57536D01*
X76292Y-57544D01*
X76265Y-57578D01*
X76237Y-57621D01*
X76214Y-57668D01*
X76199Y-57714D01*
X76183Y-57757D01*
X76171Y-57792D01*
X76168Y-57815D01*
X76164Y-57819D01*
Y-57823D01*
X75834Y-57796D01*
X75857Y-57687D01*
X75892Y-57590D01*
X75931Y-57505D01*
X75974Y-57435D01*
X76016Y-57381D01*
X76032Y-57357D01*
X76051Y-57338D01*
X76063Y-57326D01*
X76074Y-57315D01*
X76078Y-57311D01*
X76082Y-57307D01*
X76121Y-57276D01*
X76164Y-57249D01*
X76249Y-57202D01*
X76334Y-57171D01*
X76416Y-57152D01*
X76490Y-57136D01*
X76521Y-57132D01*
X76548D01*
X76571Y-57128D01*
X76602D01*
X76680Y-57132D01*
D02*
G37*
G36*
X82209Y-59825D02*
X81852D01*
Y-58634D01*
X81394D01*
X81351Y-58638D01*
X81320D01*
X81293Y-58642D01*
X81274Y-58645D01*
X81258D01*
X81250Y-58649D01*
X81247D01*
X81184Y-58669D01*
X81157Y-58680D01*
X81134Y-58692D01*
X81111Y-58704D01*
X81095Y-58711D01*
X81087Y-58715D01*
X81084Y-58719D01*
X81053Y-58742D01*
X81021Y-58770D01*
X80963Y-58828D01*
X80936Y-58855D01*
X80917Y-58878D01*
X80905Y-58894D01*
X80901Y-58898D01*
X80862Y-58952D01*
X80820Y-59010D01*
X80777Y-59072D01*
X80734Y-59131D01*
X80699Y-59185D01*
X80672Y-59228D01*
X80661Y-59243D01*
X80653Y-59255D01*
X80645Y-59262D01*
Y-59266D01*
X80292Y-59825D01*
X79850D01*
X80311Y-59096D01*
X80366Y-59018D01*
X80416Y-58948D01*
X80467Y-58890D01*
X80509Y-58836D01*
X80548Y-58797D01*
X80579Y-58766D01*
X80599Y-58746D01*
X80606Y-58739D01*
X80637Y-58715D01*
X80672Y-58688D01*
X80742Y-58645D01*
X80773Y-58630D01*
X80796Y-58614D01*
X80812Y-58607D01*
X80820Y-58603D01*
X80750Y-58591D01*
X80684Y-58579D01*
X80626Y-58560D01*
X80568Y-58545D01*
X80517Y-58525D01*
X80471Y-58502D01*
X80428Y-58482D01*
X80389Y-58463D01*
X80358Y-58440D01*
X80327Y-58420D01*
X80304Y-58405D01*
X80284Y-58389D01*
X80269Y-58378D01*
X80257Y-58366D01*
X80253Y-58362D01*
X80249Y-58358D01*
X80218Y-58320D01*
X80187Y-58281D01*
X80141Y-58199D01*
X80110Y-58118D01*
X80086Y-58040D01*
X80071Y-57974D01*
X80067Y-57947D01*
Y-57920D01*
X80063Y-57901D01*
Y-57885D01*
Y-57877D01*
Y-57873D01*
X80067Y-57792D01*
X80079Y-57718D01*
X80098Y-57648D01*
X80117Y-57590D01*
X80141Y-57540D01*
X80156Y-57501D01*
X80172Y-57478D01*
X80176Y-57474D01*
Y-57470D01*
X80222Y-57408D01*
X80269Y-57354D01*
X80319Y-57307D01*
X80366Y-57272D01*
X80408Y-57245D01*
X80443Y-57229D01*
X80467Y-57218D01*
X80471Y-57214D01*
X80474D01*
X80509Y-57202D01*
X80552Y-57191D01*
X80637Y-57171D01*
X80730Y-57160D01*
X80816Y-57148D01*
X80897Y-57144D01*
X80932D01*
X80963Y-57140D01*
X82209D01*
Y-59825D01*
D02*
G37*
G36*
X59820Y-60656D02*
X59886Y-60659D01*
X59948Y-60671D01*
X60006Y-60683D01*
X60060Y-60698D01*
X60111Y-60714D01*
X60157Y-60733D01*
X60200Y-60753D01*
X60239Y-60772D01*
X60270Y-60791D01*
X60297Y-60807D01*
X60320Y-60822D01*
X60339Y-60834D01*
X60351Y-60846D01*
X60359Y-60850D01*
X60363Y-60853D01*
X60402Y-60892D01*
X60436Y-60935D01*
X60471Y-60982D01*
X60499Y-61028D01*
X60545Y-61121D01*
X60576Y-61214D01*
X60588Y-61257D01*
X60599Y-61300D01*
X60607Y-61335D01*
X60615Y-61366D01*
X60619Y-61393D01*
Y-61412D01*
X60623Y-61424D01*
Y-61428D01*
X60285Y-61463D01*
X60277Y-61373D01*
X60262Y-61296D01*
X60239Y-61226D01*
X60211Y-61172D01*
X60188Y-61125D01*
X60165Y-61094D01*
X60149Y-61075D01*
X60142Y-61067D01*
X60083Y-61020D01*
X60021Y-60985D01*
X59955Y-60958D01*
X59897Y-60943D01*
X59843Y-60931D01*
X59796Y-60927D01*
X59781Y-60923D01*
X59758D01*
X59676Y-60927D01*
X59602Y-60943D01*
X59540Y-60966D01*
X59486Y-60989D01*
X59443Y-61016D01*
X59416Y-61036D01*
X59397Y-61051D01*
X59389Y-61059D01*
X59342Y-61113D01*
X59307Y-61168D01*
X59280Y-61222D01*
X59265Y-61276D01*
X59253Y-61319D01*
X59249Y-61358D01*
X59245Y-61381D01*
Y-61385D01*
Y-61389D01*
X59253Y-61459D01*
X59269Y-61532D01*
X59296Y-61598D01*
X59323Y-61660D01*
X59354Y-61711D01*
X59381Y-61754D01*
X59389Y-61769D01*
X59397Y-61781D01*
X59404Y-61785D01*
Y-61788D01*
X59435Y-61831D01*
X59474Y-61874D01*
X59517Y-61920D01*
X59563Y-61967D01*
X59661Y-62060D01*
X59758Y-62153D01*
X59808Y-62196D01*
X59851Y-62235D01*
X59893Y-62270D01*
X59928Y-62301D01*
X59955Y-62324D01*
X59979Y-62343D01*
X59994Y-62355D01*
X59998Y-62359D01*
X60095Y-62440D01*
X60184Y-62518D01*
X60258Y-62588D01*
X60316Y-62646D01*
X60367Y-62696D01*
X60402Y-62731D01*
X60421Y-62755D01*
X60429Y-62758D01*
Y-62762D01*
X60483Y-62828D01*
X60526Y-62890D01*
X60565Y-62953D01*
X60596Y-63007D01*
X60619Y-63053D01*
X60634Y-63088D01*
X60642Y-63112D01*
X60646Y-63116D01*
Y-63119D01*
X60662Y-63162D01*
X60669Y-63201D01*
X60677Y-63240D01*
X60681Y-63275D01*
X60685Y-63306D01*
Y-63329D01*
Y-63344D01*
Y-63348D01*
X58904D01*
Y-63030D01*
X60227D01*
X60180Y-62964D01*
X60157Y-62937D01*
X60138Y-62910D01*
X60118Y-62887D01*
X60103Y-62871D01*
X60091Y-62859D01*
X60087Y-62855D01*
X60068Y-62836D01*
X60045Y-62817D01*
X59990Y-62766D01*
X59928Y-62708D01*
X59862Y-62650D01*
X59800Y-62599D01*
X59773Y-62576D01*
X59750Y-62553D01*
X59730Y-62537D01*
X59715Y-62526D01*
X59707Y-62518D01*
X59703Y-62514D01*
X59641Y-62460D01*
X59579Y-62409D01*
X59525Y-62359D01*
X59474Y-62316D01*
X59428Y-62274D01*
X59389Y-62235D01*
X59350Y-62200D01*
X59319Y-62169D01*
X59288Y-62138D01*
X59265Y-62115D01*
X59245Y-62095D01*
X59226Y-62076D01*
X59206Y-62052D01*
X59199Y-62045D01*
X59145Y-61979D01*
X59098Y-61920D01*
X59059Y-61862D01*
X59028Y-61816D01*
X59005Y-61773D01*
X58989Y-61742D01*
X58982Y-61723D01*
X58978Y-61715D01*
X58954Y-61657D01*
X58939Y-61598D01*
X58923Y-61544D01*
X58916Y-61497D01*
X58912Y-61455D01*
X58908Y-61424D01*
Y-61404D01*
Y-61397D01*
X58912Y-61339D01*
X58919Y-61284D01*
X58927Y-61230D01*
X58943Y-61183D01*
X58982Y-61090D01*
X59020Y-61016D01*
X59044Y-60982D01*
X59063Y-60954D01*
X59082Y-60927D01*
X59102Y-60908D01*
X59117Y-60892D01*
X59125Y-60877D01*
X59133Y-60873D01*
X59137Y-60869D01*
X59179Y-60830D01*
X59226Y-60795D01*
X59276Y-60768D01*
X59327Y-60745D01*
X59428Y-60706D01*
X59529Y-60679D01*
X59571Y-60671D01*
X59614Y-60663D01*
X59653Y-60659D01*
X59684Y-60656D01*
X59711Y-60652D01*
X59750D01*
X59820Y-60656D01*
D02*
G37*
G36*
X63211Y-63348D02*
X62245D01*
X62155Y-63344D01*
X62074Y-63341D01*
X62000Y-63333D01*
X61938Y-63325D01*
X61884Y-63317D01*
X61845Y-63313D01*
X61833Y-63310D01*
X61822Y-63306D01*
X61814D01*
X61744Y-63286D01*
X61682Y-63263D01*
X61628Y-63244D01*
X61581Y-63220D01*
X61542Y-63201D01*
X61515Y-63185D01*
X61500Y-63174D01*
X61492Y-63170D01*
X61441Y-63135D01*
X61399Y-63092D01*
X61356Y-63053D01*
X61321Y-63015D01*
X61290Y-62980D01*
X61267Y-62953D01*
X61251Y-62933D01*
X61247Y-62925D01*
X61209Y-62863D01*
X61170Y-62797D01*
X61139Y-62735D01*
X61115Y-62673D01*
X61092Y-62619D01*
X61077Y-62576D01*
X61073Y-62561D01*
X61069Y-62549D01*
X61065Y-62541D01*
Y-62537D01*
X61042Y-62444D01*
X61022Y-62351D01*
X61011Y-62262D01*
X60999Y-62177D01*
X60995Y-62103D01*
Y-62072D01*
X60991Y-62045D01*
Y-62025D01*
Y-62006D01*
Y-61998D01*
Y-61994D01*
X60995Y-61862D01*
X61007Y-61742D01*
X61026Y-61633D01*
X61034Y-61583D01*
X61046Y-61540D01*
X61057Y-61497D01*
X61065Y-61463D01*
X61073Y-61432D01*
X61085Y-61404D01*
X61088Y-61381D01*
X61096Y-61366D01*
X61100Y-61358D01*
Y-61354D01*
X61143Y-61253D01*
X61193Y-61164D01*
X61247Y-61086D01*
X61298Y-61020D01*
X61344Y-60966D01*
X61383Y-60927D01*
X61399Y-60915D01*
X61410Y-60904D01*
X61414Y-60900D01*
X61418Y-60896D01*
X61480Y-60846D01*
X61546Y-60807D01*
X61612Y-60772D01*
X61674Y-60745D01*
X61729Y-60725D01*
X61771Y-60714D01*
X61787Y-60706D01*
X61798D01*
X61806Y-60702D01*
X61810D01*
X61876Y-60690D01*
X61954Y-60679D01*
X62031Y-60671D01*
X62109Y-60667D01*
X62179Y-60663D01*
X63211D01*
Y-63348D01*
D02*
G37*
G36*
X58527Y-61016D02*
X57212D01*
X57305Y-61129D01*
X57395Y-61249D01*
X57472Y-61366D01*
X57546Y-61478D01*
X57577Y-61529D01*
X57604Y-61575D01*
X57631Y-61618D01*
X57651Y-61653D01*
X57666Y-61684D01*
X57678Y-61703D01*
X57686Y-61719D01*
X57689Y-61723D01*
X57767Y-61878D01*
X57837Y-62033D01*
X57895Y-62180D01*
X57918Y-62246D01*
X57942Y-62312D01*
X57965Y-62371D01*
X57981Y-62425D01*
X57996Y-62471D01*
X58008Y-62510D01*
X58019Y-62545D01*
X58027Y-62568D01*
X58031Y-62584D01*
Y-62588D01*
X58070Y-62747D01*
X58085Y-62824D01*
X58097Y-62894D01*
X58109Y-62960D01*
X58120Y-63026D01*
X58128Y-63081D01*
X58136Y-63135D01*
X58139Y-63182D01*
X58143Y-63224D01*
X58147Y-63263D01*
Y-63294D01*
X58151Y-63317D01*
Y-63333D01*
Y-63344D01*
Y-63348D01*
X57814D01*
X57802Y-63201D01*
X57783Y-63065D01*
X57763Y-62941D01*
X57752Y-62883D01*
X57740Y-62828D01*
X57732Y-62782D01*
X57721Y-62739D01*
X57713Y-62700D01*
X57705Y-62669D01*
X57697Y-62646D01*
X57693Y-62627D01*
X57689Y-62615D01*
Y-62611D01*
X57631Y-62433D01*
X57569Y-62266D01*
X57538Y-62184D01*
X57507Y-62107D01*
X57472Y-62037D01*
X57441Y-61967D01*
X57414Y-61905D01*
X57387Y-61851D01*
X57363Y-61804D01*
X57344Y-61761D01*
X57325Y-61726D01*
X57313Y-61703D01*
X57305Y-61688D01*
X57301Y-61684D01*
X57255Y-61602D01*
X57208Y-61521D01*
X57162Y-61447D01*
X57115Y-61377D01*
X57073Y-61315D01*
X57030Y-61253D01*
X56987Y-61199D01*
X56952Y-61152D01*
X56917Y-61106D01*
X56886Y-61067D01*
X56855Y-61036D01*
X56832Y-61009D01*
X56817Y-60985D01*
X56801Y-60970D01*
X56793Y-60962D01*
X56789Y-60958D01*
Y-60698D01*
X58527D01*
Y-61016D01*
D02*
G37*
G36*
X85145Y-74694D02*
X85188Y-74756D01*
X85238Y-74818D01*
X85285Y-74873D01*
X85331Y-74919D01*
X85366Y-74958D01*
X85382Y-74970D01*
X85393Y-74981D01*
X85397Y-74985D01*
X85401Y-74989D01*
X85483Y-75055D01*
X85564Y-75117D01*
X85642Y-75172D01*
X85719Y-75214D01*
X85785Y-75253D01*
X85812Y-75269D01*
X85836Y-75280D01*
X85855Y-75292D01*
X85870Y-75296D01*
X85878Y-75304D01*
X85882D01*
Y-75622D01*
X85824Y-75598D01*
X85766Y-75571D01*
X85708Y-75544D01*
X85653Y-75517D01*
X85607Y-75494D01*
X85568Y-75474D01*
X85545Y-75459D01*
X85541Y-75455D01*
X85537D01*
X85467Y-75412D01*
X85405Y-75370D01*
X85351Y-75331D01*
X85308Y-75296D01*
X85269Y-75269D01*
X85246Y-75245D01*
X85227Y-75230D01*
X85223Y-75226D01*
Y-77325D01*
X84893D01*
Y-74628D01*
X85106D01*
X85145Y-74694D01*
D02*
G37*
G36*
X88703Y-76192D02*
Y-76270D01*
X88699Y-76343D01*
X88695Y-76413D01*
X88687Y-76479D01*
X88680Y-76537D01*
X88672Y-76592D01*
X88660Y-76642D01*
X88652Y-76689D01*
X88645Y-76731D01*
X88633Y-76766D01*
X88625Y-76797D01*
X88618Y-76821D01*
X88610Y-76840D01*
X88606Y-76855D01*
X88602Y-76863D01*
Y-76867D01*
X88559Y-76952D01*
X88505Y-77030D01*
X88451Y-77092D01*
X88393Y-77147D01*
X88342Y-77189D01*
X88299Y-77220D01*
X88284Y-77228D01*
X88272Y-77236D01*
X88265Y-77244D01*
X88261D01*
X88164Y-77286D01*
X88063Y-77317D01*
X87958Y-77341D01*
X87861Y-77356D01*
X87818Y-77360D01*
X87776Y-77364D01*
X87737Y-77368D01*
X87706D01*
X87679Y-77372D01*
X87644D01*
X87504Y-77364D01*
X87442Y-77356D01*
X87384Y-77348D01*
X87326Y-77337D01*
X87275Y-77325D01*
X87229Y-77313D01*
X87186Y-77298D01*
X87147Y-77282D01*
X87116Y-77271D01*
X87085Y-77259D01*
X87062Y-77247D01*
X87042Y-77236D01*
X87031Y-77232D01*
X87023Y-77224D01*
X87019D01*
X86934Y-77166D01*
X86864Y-77100D01*
X86809Y-77038D01*
X86763Y-76976D01*
X86728Y-76921D01*
X86705Y-76879D01*
X86697Y-76863D01*
X86689Y-76852D01*
X86685Y-76844D01*
Y-76840D01*
X86670Y-76793D01*
X86654Y-76743D01*
X86631Y-76638D01*
X86616Y-76530D01*
X86604Y-76425D01*
X86600Y-76378D01*
X86596Y-76332D01*
Y-76293D01*
X86592Y-76258D01*
Y-76231D01*
Y-76212D01*
Y-76196D01*
Y-76192D01*
Y-74640D01*
X86949D01*
Y-76192D01*
Y-76281D01*
X86957Y-76367D01*
X86965Y-76440D01*
X86976Y-76510D01*
X86988Y-76572D01*
X87003Y-76631D01*
X87015Y-76681D01*
X87031Y-76724D01*
X87046Y-76758D01*
X87062Y-76793D01*
X87077Y-76817D01*
X87089Y-76840D01*
X87100Y-76855D01*
X87108Y-76867D01*
X87112Y-76871D01*
X87116Y-76875D01*
X87151Y-76906D01*
X87190Y-76933D01*
X87275Y-76976D01*
X87364Y-77007D01*
X87458Y-77026D01*
X87543Y-77042D01*
X87578Y-77046D01*
X87613D01*
X87636Y-77049D01*
X87675D01*
X87756Y-77046D01*
X87830Y-77034D01*
X87900Y-77022D01*
X87954Y-77003D01*
X88001Y-76987D01*
X88036Y-76976D01*
X88055Y-76964D01*
X88063Y-76960D01*
X88117Y-76925D01*
X88164Y-76883D01*
X88202Y-76840D01*
X88230Y-76801D01*
X88253Y-76762D01*
X88272Y-76735D01*
X88280Y-76716D01*
X88284Y-76708D01*
X88296Y-76673D01*
X88303Y-76638D01*
X88319Y-76557D01*
X88331Y-76471D01*
X88338Y-76386D01*
X88342Y-76312D01*
Y-76277D01*
X88346Y-76250D01*
Y-76227D01*
Y-76208D01*
Y-76196D01*
Y-76192D01*
Y-74640D01*
X88703D01*
Y-76192D01*
D02*
G37*
G36*
X84159Y-76378D02*
Y-76681D01*
X82992D01*
Y-77325D01*
X82662D01*
Y-76681D01*
X82297D01*
Y-76378D01*
X82662D01*
Y-74640D01*
X82929D01*
X84159Y-76378D01*
D02*
G37*
G36*
X313974Y-195006D02*
X314078Y-195025D01*
X314168Y-195056D01*
X314245Y-195087D01*
X314280Y-195106D01*
X314307Y-195122D01*
X314335Y-195138D01*
X314354Y-195153D01*
X314369Y-195165D01*
X314381Y-195173D01*
X314389Y-195176D01*
X314393Y-195180D01*
X314466Y-195254D01*
X314525Y-195335D01*
X314571Y-195421D01*
X314610Y-195506D01*
X314633Y-195580D01*
X314645Y-195611D01*
X314653Y-195638D01*
X314656Y-195661D01*
X314660Y-195677D01*
X314664Y-195688D01*
Y-195692D01*
X314335Y-195751D01*
X314319Y-195665D01*
X314296Y-195591D01*
X314268Y-195529D01*
X314241Y-195479D01*
X314214Y-195440D01*
X314191Y-195413D01*
X314175Y-195394D01*
X314172Y-195390D01*
X314121Y-195351D01*
X314067Y-195320D01*
X314016Y-195300D01*
X313966Y-195285D01*
X313919Y-195277D01*
X313884Y-195270D01*
X313853D01*
X313784Y-195273D01*
X313721Y-195289D01*
X313667Y-195308D01*
X313620Y-195328D01*
X313586Y-195351D01*
X313559Y-195370D01*
X313539Y-195386D01*
X313535Y-195390D01*
X313492Y-195436D01*
X313461Y-195487D01*
X313442Y-195537D01*
X313426Y-195584D01*
X313419Y-195626D01*
X313411Y-195658D01*
Y-195681D01*
Y-195685D01*
Y-195688D01*
Y-195731D01*
X313419Y-195770D01*
X313438Y-195836D01*
X313465Y-195894D01*
X313496Y-195945D01*
X313527Y-195979D01*
X313555Y-196007D01*
X313574Y-196022D01*
X313578Y-196026D01*
X313582D01*
X313648Y-196061D01*
X313710Y-196088D01*
X313776Y-196108D01*
X313834Y-196119D01*
X313884Y-196127D01*
X313927Y-196135D01*
X313978D01*
X313993Y-196131D01*
X314012D01*
X314051Y-196422D01*
X314001Y-196410D01*
X313954Y-196402D01*
X313915Y-196395D01*
X313880Y-196391D01*
X313853Y-196387D01*
X313818D01*
X313737Y-196395D01*
X313663Y-196410D01*
X313597Y-196433D01*
X313543Y-196461D01*
X313500Y-196488D01*
X313469Y-196511D01*
X313450Y-196527D01*
X313442Y-196534D01*
X313392Y-196593D01*
X313353Y-196655D01*
X313326Y-196717D01*
X313310Y-196779D01*
X313299Y-196829D01*
X313295Y-196872D01*
X313291Y-196887D01*
Y-196899D01*
Y-196907D01*
Y-196911D01*
X313299Y-196996D01*
X313318Y-197074D01*
X313341Y-197140D01*
X313372Y-197198D01*
X313403Y-197244D01*
X313426Y-197279D01*
X313446Y-197303D01*
X313454Y-197310D01*
X313516Y-197365D01*
X313582Y-197404D01*
X313648Y-197431D01*
X313710Y-197450D01*
X313764Y-197462D01*
X313807Y-197466D01*
X313822Y-197469D01*
X313846D01*
X313915Y-197466D01*
X313981Y-197450D01*
X314040Y-197431D01*
X314086Y-197407D01*
X314125Y-197388D01*
X314156Y-197369D01*
X314172Y-197353D01*
X314179Y-197349D01*
X314226Y-197295D01*
X314265Y-197233D01*
X314300Y-197167D01*
X314327Y-197097D01*
X314346Y-197039D01*
X314354Y-197012D01*
X314358Y-196988D01*
X314362Y-196969D01*
X314366Y-196953D01*
X314369Y-196946D01*
Y-196942D01*
X314699Y-196984D01*
X314691Y-197046D01*
X314680Y-197105D01*
X314645Y-197213D01*
X314602Y-197307D01*
X314579Y-197345D01*
X314556Y-197384D01*
X314532Y-197419D01*
X314509Y-197446D01*
X314490Y-197473D01*
X314470Y-197493D01*
X314459Y-197508D01*
X314447Y-197520D01*
X314439Y-197528D01*
X314435Y-197531D01*
X314389Y-197566D01*
X314342Y-197601D01*
X314296Y-197628D01*
X314245Y-197652D01*
X314148Y-197691D01*
X314055Y-197714D01*
X314012Y-197722D01*
X313974Y-197729D01*
X313939Y-197733D01*
X313908Y-197737D01*
X313884Y-197741D01*
X313849D01*
X313776Y-197737D01*
X313710Y-197729D01*
X313644Y-197718D01*
X313582Y-197702D01*
X313524Y-197683D01*
X313473Y-197663D01*
X313423Y-197640D01*
X313380Y-197617D01*
X313337Y-197598D01*
X313302Y-197574D01*
X313271Y-197555D01*
X313248Y-197535D01*
X313229Y-197520D01*
X313213Y-197508D01*
X313205Y-197501D01*
X313201Y-197497D01*
X313155Y-197450D01*
X313116Y-197400D01*
X313081Y-197349D01*
X313050Y-197299D01*
X313027Y-197252D01*
X313004Y-197202D01*
X312973Y-197109D01*
X312965Y-197066D01*
X312957Y-197027D01*
X312949Y-196992D01*
X312945Y-196961D01*
X312942Y-196938D01*
Y-196918D01*
Y-196907D01*
Y-196903D01*
X312945Y-196810D01*
X312961Y-196724D01*
X312984Y-196651D01*
X313007Y-196589D01*
X313031Y-196538D01*
X313054Y-196500D01*
X313070Y-196476D01*
X313073Y-196468D01*
X313128Y-196410D01*
X313186Y-196360D01*
X313248Y-196321D01*
X313310Y-196290D01*
X313365Y-196267D01*
X313407Y-196251D01*
X313423Y-196247D01*
X313434Y-196243D01*
X313442Y-196239D01*
X313446D01*
X313380Y-196205D01*
X313326Y-196170D01*
X313279Y-196131D01*
X313240Y-196096D01*
X313209Y-196065D01*
X313186Y-196038D01*
X313174Y-196022D01*
X313171Y-196014D01*
X313139Y-195960D01*
X313116Y-195906D01*
X313097Y-195852D01*
X313085Y-195801D01*
X313077Y-195758D01*
X313073Y-195727D01*
Y-195704D01*
Y-195696D01*
X313077Y-195630D01*
X313089Y-195564D01*
X313105Y-195506D01*
X313124Y-195456D01*
X313143Y-195413D01*
X313159Y-195378D01*
X313171Y-195359D01*
X313174Y-195351D01*
X313213Y-195293D01*
X313260Y-195242D01*
X313306Y-195200D01*
X313353Y-195161D01*
X313392Y-195134D01*
X313426Y-195110D01*
X313450Y-195099D01*
X313454Y-195095D01*
X313458D01*
X313527Y-195064D01*
X313597Y-195041D01*
X313667Y-195021D01*
X313729Y-195010D01*
X313780Y-195002D01*
X313822Y-194998D01*
X313919D01*
X313974Y-195006D01*
D02*
G37*
G36*
X315801Y-195064D02*
X315844Y-195126D01*
X315894Y-195188D01*
X315941Y-195242D01*
X315987Y-195289D01*
X316022Y-195328D01*
X316038Y-195339D01*
X316049Y-195351D01*
X316053Y-195355D01*
X316057Y-195359D01*
X316139Y-195425D01*
X316220Y-195487D01*
X316298Y-195541D01*
X316375Y-195584D01*
X316441Y-195623D01*
X316469Y-195638D01*
X316492Y-195650D01*
X316511Y-195661D01*
X316527Y-195665D01*
X316534Y-195673D01*
X316538D01*
Y-195991D01*
X316480Y-195968D01*
X316422Y-195941D01*
X316364Y-195914D01*
X316309Y-195886D01*
X316263Y-195863D01*
X316224Y-195844D01*
X316201Y-195828D01*
X316197Y-195824D01*
X316193D01*
X316123Y-195782D01*
X316061Y-195739D01*
X316007Y-195700D01*
X315964Y-195665D01*
X315925Y-195638D01*
X315902Y-195615D01*
X315883Y-195599D01*
X315879Y-195595D01*
Y-197695D01*
X315549D01*
Y-194998D01*
X315762D01*
X315801Y-195064D01*
D02*
G37*
G36*
X319359Y-196562D02*
Y-196639D01*
X319355Y-196713D01*
X319351Y-196783D01*
X319343Y-196849D01*
X319336Y-196907D01*
X319328Y-196961D01*
X319316Y-197012D01*
X319309Y-197058D01*
X319301Y-197101D01*
X319289Y-197136D01*
X319282Y-197167D01*
X319274Y-197190D01*
X319266Y-197210D01*
X319262Y-197225D01*
X319258Y-197233D01*
Y-197237D01*
X319215Y-197322D01*
X319161Y-197400D01*
X319107Y-197462D01*
X319049Y-197516D01*
X318998Y-197559D01*
X318955Y-197590D01*
X318940Y-197598D01*
X318928Y-197605D01*
X318921Y-197613D01*
X318917D01*
X318820Y-197656D01*
X318719Y-197687D01*
X318614Y-197710D01*
X318517Y-197725D01*
X318474Y-197729D01*
X318432Y-197733D01*
X318393Y-197737D01*
X318362D01*
X318335Y-197741D01*
X318300D01*
X318160Y-197733D01*
X318098Y-197725D01*
X318040Y-197718D01*
X317982Y-197706D01*
X317931Y-197695D01*
X317885Y-197683D01*
X317842Y-197667D01*
X317803Y-197652D01*
X317772Y-197640D01*
X317741Y-197628D01*
X317718Y-197617D01*
X317698Y-197605D01*
X317687Y-197601D01*
X317679Y-197594D01*
X317675D01*
X317590Y-197535D01*
X317520Y-197469D01*
X317466Y-197407D01*
X317419Y-197345D01*
X317384Y-197291D01*
X317361Y-197248D01*
X317353Y-197233D01*
X317345Y-197221D01*
X317341Y-197213D01*
Y-197210D01*
X317326Y-197163D01*
X317310Y-197113D01*
X317287Y-197008D01*
X317272Y-196899D01*
X317260Y-196794D01*
X317256Y-196748D01*
X317252Y-196701D01*
Y-196662D01*
X317248Y-196627D01*
Y-196600D01*
Y-196581D01*
Y-196565D01*
Y-196562D01*
Y-195010D01*
X317605D01*
Y-196562D01*
Y-196651D01*
X317613Y-196736D01*
X317621Y-196810D01*
X317633Y-196880D01*
X317644Y-196942D01*
X317660Y-197000D01*
X317671Y-197050D01*
X317687Y-197093D01*
X317702Y-197128D01*
X317718Y-197163D01*
X317733Y-197186D01*
X317745Y-197210D01*
X317757Y-197225D01*
X317764Y-197237D01*
X317768Y-197240D01*
X317772Y-197244D01*
X317807Y-197275D01*
X317846Y-197303D01*
X317931Y-197345D01*
X318021Y-197376D01*
X318114Y-197396D01*
X318199Y-197411D01*
X318234Y-197415D01*
X318269D01*
X318292Y-197419D01*
X318331D01*
X318412Y-197415D01*
X318486Y-197404D01*
X318556Y-197392D01*
X318610Y-197372D01*
X318657Y-197357D01*
X318692Y-197345D01*
X318711Y-197334D01*
X318719Y-197330D01*
X318773Y-197295D01*
X318820Y-197252D01*
X318859Y-197210D01*
X318886Y-197171D01*
X318909Y-197132D01*
X318928Y-197105D01*
X318936Y-197085D01*
X318940Y-197078D01*
X318952Y-197043D01*
X318959Y-197008D01*
X318975Y-196926D01*
X318987Y-196841D01*
X318994Y-196756D01*
X318998Y-196682D01*
Y-196647D01*
X319002Y-196620D01*
Y-196597D01*
Y-196577D01*
Y-196565D01*
Y-196562D01*
Y-195010D01*
X319359D01*
Y-196562D01*
D02*
G37*
G36*
X88222Y-4132D02*
X88295Y-4140D01*
X88365Y-4156D01*
X88431Y-4175D01*
X88489Y-4202D01*
X88547Y-4225D01*
X88598Y-4256D01*
X88644Y-4284D01*
X88683Y-4311D01*
X88722Y-4342D01*
X88753Y-4365D01*
X88776Y-4388D01*
X88796Y-4412D01*
X88811Y-4427D01*
X88819Y-4435D01*
X88823Y-4439D01*
X88873Y-4509D01*
X88916Y-4590D01*
X88955Y-4676D01*
X88990Y-4765D01*
X89017Y-4858D01*
X89040Y-4951D01*
X89060Y-5048D01*
X89075Y-5137D01*
X89087Y-5226D01*
X89095Y-5308D01*
X89102Y-5382D01*
X89106Y-5444D01*
Y-5498D01*
X89110Y-5537D01*
Y-5552D01*
Y-5564D01*
Y-5568D01*
Y-5572D01*
X89106Y-5696D01*
X89098Y-5812D01*
X89087Y-5921D01*
X89067Y-6022D01*
X89048Y-6111D01*
X89029Y-6193D01*
X89005Y-6266D01*
X88978Y-6332D01*
X88955Y-6387D01*
X88932Y-6437D01*
X88912Y-6476D01*
X88889Y-6511D01*
X88873Y-6538D01*
X88862Y-6553D01*
X88854Y-6565D01*
X88850Y-6569D01*
X88800Y-6623D01*
X88745Y-6670D01*
X88691Y-6709D01*
X88637Y-6743D01*
X88578Y-6775D01*
X88524Y-6798D01*
X88470Y-6817D01*
X88415Y-6833D01*
X88369Y-6844D01*
X88322Y-6856D01*
X88284Y-6864D01*
X88249Y-6868D01*
X88218D01*
X88198Y-6872D01*
X88179D01*
X88090Y-6868D01*
X88008Y-6852D01*
X87934Y-6837D01*
X87868Y-6813D01*
X87818Y-6794D01*
X87779Y-6775D01*
X87764Y-6771D01*
X87752Y-6763D01*
X87748Y-6759D01*
X87744D01*
X87678Y-6713D01*
X87616Y-6658D01*
X87566Y-6604D01*
X87523Y-6549D01*
X87488Y-6499D01*
X87465Y-6460D01*
X87457Y-6445D01*
X87449Y-6433D01*
X87445Y-6429D01*
Y-6425D01*
X87407Y-6344D01*
X87380Y-6259D01*
X87360Y-6181D01*
X87349Y-6107D01*
X87337Y-6045D01*
Y-6022D01*
X87333Y-5999D01*
Y-5979D01*
Y-5968D01*
Y-5960D01*
Y-5956D01*
X87337Y-5886D01*
X87345Y-5820D01*
X87356Y-5754D01*
X87368Y-5696D01*
X87387Y-5642D01*
X87407Y-5587D01*
X87426Y-5541D01*
X87449Y-5498D01*
X87473Y-5459D01*
X87492Y-5424D01*
X87511Y-5397D01*
X87531Y-5370D01*
X87542Y-5351D01*
X87554Y-5339D01*
X87562Y-5331D01*
X87566Y-5327D01*
X87608Y-5285D01*
X87655Y-5246D01*
X87705Y-5215D01*
X87752Y-5188D01*
X87799Y-5161D01*
X87845Y-5141D01*
X87934Y-5114D01*
X87973Y-5102D01*
X88012Y-5094D01*
X88043Y-5091D01*
X88074Y-5087D01*
X88097Y-5083D01*
X88128D01*
X88198Y-5087D01*
X88264Y-5098D01*
X88326Y-5110D01*
X88381Y-5126D01*
X88427Y-5145D01*
X88462Y-5157D01*
X88485Y-5168D01*
X88489Y-5172D01*
X88493D01*
X88555Y-5211D01*
X88609Y-5254D01*
X88660Y-5296D01*
X88699Y-5343D01*
X88734Y-5382D01*
X88761Y-5413D01*
X88776Y-5436D01*
X88780Y-5440D01*
Y-5370D01*
X88776Y-5300D01*
X88772Y-5238D01*
X88765Y-5176D01*
X88761Y-5122D01*
X88753Y-5071D01*
X88745Y-5025D01*
X88734Y-4982D01*
X88726Y-4943D01*
X88718Y-4912D01*
X88710Y-4885D01*
X88706Y-4862D01*
X88699Y-4846D01*
X88695Y-4835D01*
X88691Y-4827D01*
Y-4823D01*
X88652Y-4745D01*
X88613Y-4676D01*
X88571Y-4621D01*
X88532Y-4575D01*
X88497Y-4536D01*
X88470Y-4509D01*
X88450Y-4493D01*
X88443Y-4489D01*
X88396Y-4458D01*
X88350Y-4439D01*
X88303Y-4423D01*
X88257Y-4412D01*
X88222Y-4404D01*
X88191Y-4400D01*
X88163D01*
X88094Y-4408D01*
X88028Y-4423D01*
X87973Y-4447D01*
X87923Y-4470D01*
X87884Y-4497D01*
X87857Y-4520D01*
X87841Y-4536D01*
X87833Y-4544D01*
X87806Y-4578D01*
X87779Y-4621D01*
X87756Y-4668D01*
X87740Y-4714D01*
X87725Y-4757D01*
X87713Y-4792D01*
X87709Y-4815D01*
X87705Y-4819D01*
Y-4823D01*
X87376Y-4796D01*
X87399Y-4687D01*
X87434Y-4590D01*
X87473Y-4505D01*
X87515Y-4435D01*
X87558Y-4381D01*
X87574Y-4357D01*
X87593Y-4338D01*
X87605Y-4326D01*
X87616Y-4315D01*
X87620Y-4311D01*
X87624Y-4307D01*
X87663Y-4276D01*
X87705Y-4249D01*
X87791Y-4202D01*
X87876Y-4171D01*
X87958Y-4152D01*
X88031Y-4136D01*
X88063Y-4132D01*
X88090D01*
X88113Y-4128D01*
X88144D01*
X88222Y-4132D01*
D02*
G37*
G36*
X91667Y-6825D02*
X90701D01*
X90612Y-6821D01*
X90530Y-6817D01*
X90456Y-6809D01*
X90394Y-6802D01*
X90340Y-6794D01*
X90301Y-6790D01*
X90290Y-6786D01*
X90278Y-6782D01*
X90270D01*
X90200Y-6763D01*
X90138Y-6740D01*
X90084Y-6720D01*
X90037Y-6697D01*
X89999Y-6678D01*
X89971Y-6662D01*
X89956Y-6650D01*
X89948Y-6646D01*
X89898Y-6612D01*
X89855Y-6569D01*
X89812Y-6530D01*
X89777Y-6491D01*
X89746Y-6456D01*
X89723Y-6429D01*
X89708Y-6410D01*
X89704Y-6402D01*
X89665Y-6340D01*
X89626Y-6274D01*
X89595Y-6212D01*
X89572Y-6150D01*
X89548Y-6096D01*
X89533Y-6053D01*
X89529Y-6037D01*
X89525Y-6026D01*
X89521Y-6018D01*
Y-6014D01*
X89498Y-5921D01*
X89479Y-5828D01*
X89467Y-5739D01*
X89455Y-5653D01*
X89451Y-5579D01*
Y-5548D01*
X89448Y-5521D01*
Y-5502D01*
Y-5483D01*
Y-5475D01*
Y-5471D01*
X89451Y-5339D01*
X89463Y-5219D01*
X89482Y-5110D01*
X89490Y-5060D01*
X89502Y-5017D01*
X89514Y-4974D01*
X89521Y-4939D01*
X89529Y-4908D01*
X89541Y-4881D01*
X89545Y-4858D01*
X89552Y-4842D01*
X89556Y-4835D01*
Y-4831D01*
X89599Y-4730D01*
X89649Y-4641D01*
X89704Y-4563D01*
X89754Y-4497D01*
X89801Y-4443D01*
X89840Y-4404D01*
X89855Y-4392D01*
X89867Y-4381D01*
X89871Y-4377D01*
X89874Y-4373D01*
X89937Y-4322D01*
X90003Y-4284D01*
X90068Y-4249D01*
X90131Y-4222D01*
X90185Y-4202D01*
X90228Y-4191D01*
X90243Y-4183D01*
X90255D01*
X90262Y-4179D01*
X90266D01*
X90332Y-4167D01*
X90410Y-4156D01*
X90487Y-4148D01*
X90565Y-4144D01*
X90635Y-4140D01*
X91667D01*
Y-6825D01*
D02*
G37*
G36*
X249139Y-203548D02*
Y-203850D01*
X247972D01*
Y-204495D01*
X247642D01*
Y-203850D01*
X247277D01*
Y-203548D01*
X247642D01*
Y-201810D01*
X247909D01*
X249139Y-203548D01*
D02*
G37*
G36*
X249830Y-203660D02*
Y-203742D01*
X249838Y-203812D01*
X249842Y-203870D01*
X249849Y-203916D01*
X249857Y-203951D01*
X249861Y-203978D01*
X249869Y-203994D01*
Y-203998D01*
X249884Y-204037D01*
X249904Y-204068D01*
X249927Y-204095D01*
X249946Y-204122D01*
X249970Y-204137D01*
X249985Y-204153D01*
X249997Y-204161D01*
X250001Y-204165D01*
X250040Y-204184D01*
X250078Y-204200D01*
X250117Y-204207D01*
X250152Y-204215D01*
X250187Y-204219D01*
X250210Y-204223D01*
X250234D01*
X250296Y-204219D01*
X250354Y-204204D01*
X250400Y-204188D01*
X250443Y-204165D01*
X250474Y-204145D01*
X250497Y-204126D01*
X250513Y-204114D01*
X250517Y-204110D01*
X250536Y-204087D01*
X250552Y-204060D01*
X250575Y-203998D01*
X250598Y-203928D01*
X250610Y-203858D01*
X250622Y-203792D01*
Y-203765D01*
X250625Y-203742D01*
X250629Y-203718D01*
Y-203703D01*
Y-203695D01*
Y-203691D01*
X250951Y-203738D01*
Y-203812D01*
X250947Y-203878D01*
X250936Y-203943D01*
X250928Y-204002D01*
X250912Y-204056D01*
X250897Y-204103D01*
X250882Y-204149D01*
X250866Y-204188D01*
X250847Y-204223D01*
X250831Y-204254D01*
X250816Y-204281D01*
X250800Y-204300D01*
X250788Y-204316D01*
X250781Y-204331D01*
X250777Y-204335D01*
X250773Y-204339D01*
X250734Y-204374D01*
X250695Y-204405D01*
X250653Y-204432D01*
X250606Y-204456D01*
X250517Y-204491D01*
X250431Y-204514D01*
X250350Y-204529D01*
X250319Y-204533D01*
X250288Y-204537D01*
X250265Y-204541D01*
X250230D01*
X250144Y-204537D01*
X250067Y-204525D01*
X249997Y-204510D01*
X249935Y-204491D01*
X249884Y-204475D01*
X249849Y-204460D01*
X249826Y-204448D01*
X249818Y-204444D01*
X249756Y-204405D01*
X249702Y-204359D01*
X249659Y-204312D01*
X249621Y-204270D01*
X249593Y-204227D01*
X249574Y-204196D01*
X249562Y-204172D01*
X249558Y-204169D01*
Y-204165D01*
X249531Y-204087D01*
X249508Y-204006D01*
X249492Y-203916D01*
X249485Y-203831D01*
X249477Y-203757D01*
Y-203726D01*
X249473Y-203695D01*
Y-203672D01*
Y-203656D01*
Y-203645D01*
Y-203641D01*
Y-201810D01*
X249830D01*
Y-203660D01*
D02*
G37*
G36*
X31874Y-5343D02*
Y-5630D01*
X31237Y-5397D01*
Y-7500D01*
X30919D01*
Y-5005D01*
X30970D01*
X31874Y-5343D01*
D02*
G37*
G36*
X32762Y-6782D02*
X32770Y-6864D01*
X32786Y-6937D01*
X32805Y-7000D01*
X32828Y-7050D01*
X32851Y-7089D01*
X32871Y-7120D01*
X32886Y-7135D01*
X32890Y-7143D01*
X32941Y-7186D01*
X32995Y-7213D01*
X33049Y-7236D01*
X33100Y-7252D01*
X33146Y-7259D01*
X33181Y-7263D01*
X33197Y-7267D01*
X33216D01*
X33294Y-7263D01*
X33364Y-7248D01*
X33422Y-7228D01*
X33472Y-7209D01*
X33507Y-7186D01*
X33534Y-7170D01*
X33554Y-7155D01*
X33558Y-7151D01*
X33597Y-7100D01*
X33624Y-7046D01*
X33647Y-6992D01*
X33659Y-6937D01*
X33666Y-6891D01*
X33670Y-6852D01*
X33674Y-6837D01*
Y-6825D01*
Y-6821D01*
Y-6817D01*
X34000D01*
X33996Y-6879D01*
X33992Y-6937D01*
X33969Y-7042D01*
X33953Y-7093D01*
X33934Y-7135D01*
X33915Y-7174D01*
X33895Y-7209D01*
X33880Y-7244D01*
X33860Y-7271D01*
X33841Y-7294D01*
X33825Y-7314D01*
X33814Y-7329D01*
X33802Y-7341D01*
X33798Y-7345D01*
X33794Y-7349D01*
X33756Y-7380D01*
X33709Y-7411D01*
X33616Y-7457D01*
X33523Y-7488D01*
X33430Y-7512D01*
X33383Y-7519D01*
X33344Y-7523D01*
X33309Y-7531D01*
X33278D01*
X33251Y-7535D01*
X33216D01*
X33150Y-7531D01*
X33092Y-7527D01*
X32980Y-7504D01*
X32929Y-7488D01*
X32883Y-7473D01*
X32840Y-7453D01*
X32801Y-7434D01*
X32766Y-7418D01*
X32735Y-7399D01*
X32712Y-7384D01*
X32689Y-7368D01*
X32673Y-7356D01*
X32661Y-7345D01*
X32654Y-7341D01*
X32650Y-7337D01*
X32611Y-7298D01*
X32576Y-7256D01*
X32549Y-7209D01*
X32526Y-7166D01*
X32487Y-7073D01*
X32460Y-6980D01*
X32444Y-6903D01*
X32440Y-6868D01*
X32436Y-6837D01*
X32432Y-6813D01*
Y-6794D01*
Y-6782D01*
Y-6778D01*
Y-5017D01*
X32762D01*
Y-6782D01*
D02*
G37*
G36*
X34409Y-69136D02*
X34514Y-69156D01*
X34603Y-69187D01*
X34680Y-69218D01*
X34715Y-69237D01*
X34743Y-69253D01*
X34770Y-69268D01*
X34789Y-69284D01*
X34805Y-69295D01*
X34816Y-69303D01*
X34824Y-69307D01*
X34828Y-69311D01*
X34902Y-69384D01*
X34960Y-69466D01*
X35006Y-69551D01*
X35045Y-69637D01*
X35068Y-69710D01*
X35080Y-69741D01*
X35088Y-69769D01*
X35092Y-69792D01*
X35096Y-69807D01*
X35100Y-69819D01*
Y-69823D01*
X34770Y-69881D01*
X34754Y-69796D01*
X34731Y-69722D01*
X34704Y-69660D01*
X34677Y-69609D01*
X34649Y-69571D01*
X34626Y-69544D01*
X34611Y-69524D01*
X34607Y-69520D01*
X34556Y-69481D01*
X34502Y-69450D01*
X34451Y-69431D01*
X34401Y-69415D01*
X34354Y-69408D01*
X34320Y-69400D01*
X34288D01*
X34219Y-69404D01*
X34157Y-69419D01*
X34102Y-69439D01*
X34056Y-69458D01*
X34021Y-69481D01*
X33994Y-69501D01*
X33974Y-69516D01*
X33970Y-69520D01*
X33928Y-69567D01*
X33897Y-69617D01*
X33877Y-69668D01*
X33862Y-69714D01*
X33854Y-69757D01*
X33846Y-69788D01*
Y-69811D01*
Y-69815D01*
Y-69819D01*
Y-69862D01*
X33854Y-69901D01*
X33873Y-69967D01*
X33900Y-70025D01*
X33932Y-70075D01*
X33963Y-70110D01*
X33990Y-70137D01*
X34009Y-70153D01*
X34013Y-70157D01*
X34017D01*
X34083Y-70192D01*
X34145Y-70219D01*
X34211Y-70238D01*
X34269Y-70250D01*
X34320Y-70258D01*
X34362Y-70265D01*
X34413D01*
X34428Y-70261D01*
X34448D01*
X34486Y-70552D01*
X34436Y-70541D01*
X34389Y-70533D01*
X34351Y-70525D01*
X34316Y-70521D01*
X34288Y-70517D01*
X34254D01*
X34172Y-70525D01*
X34098Y-70541D01*
X34032Y-70564D01*
X33978Y-70591D01*
X33935Y-70618D01*
X33904Y-70642D01*
X33885Y-70657D01*
X33877Y-70665D01*
X33827Y-70723D01*
X33788Y-70785D01*
X33761Y-70847D01*
X33745Y-70909D01*
X33734Y-70960D01*
X33730Y-71003D01*
X33726Y-71018D01*
Y-71030D01*
Y-71037D01*
Y-71041D01*
X33734Y-71127D01*
X33753Y-71204D01*
X33776Y-71270D01*
X33807Y-71328D01*
X33838Y-71375D01*
X33862Y-71410D01*
X33881Y-71433D01*
X33889Y-71441D01*
X33951Y-71495D01*
X34017Y-71534D01*
X34083Y-71561D01*
X34145Y-71581D01*
X34199Y-71592D01*
X34242Y-71596D01*
X34258Y-71600D01*
X34281D01*
X34351Y-71596D01*
X34417Y-71581D01*
X34475Y-71561D01*
X34521Y-71538D01*
X34560Y-71518D01*
X34591Y-71499D01*
X34607Y-71484D01*
X34615Y-71480D01*
X34661Y-71425D01*
X34700Y-71363D01*
X34735Y-71297D01*
X34762Y-71228D01*
X34781Y-71169D01*
X34789Y-71142D01*
X34793Y-71119D01*
X34797Y-71100D01*
X34801Y-71084D01*
X34805Y-71076D01*
Y-71072D01*
X35134Y-71115D01*
X35127Y-71177D01*
X35115Y-71235D01*
X35080Y-71344D01*
X35037Y-71437D01*
X35014Y-71476D01*
X34991Y-71515D01*
X34967Y-71549D01*
X34944Y-71577D01*
X34925Y-71604D01*
X34905Y-71623D01*
X34894Y-71639D01*
X34882Y-71650D01*
X34874Y-71658D01*
X34870Y-71662D01*
X34824Y-71697D01*
X34777Y-71732D01*
X34731Y-71759D01*
X34680Y-71782D01*
X34583Y-71821D01*
X34490Y-71844D01*
X34448Y-71852D01*
X34409Y-71860D01*
X34374Y-71864D01*
X34343Y-71868D01*
X34320Y-71872D01*
X34285D01*
X34211Y-71868D01*
X34145Y-71860D01*
X34079Y-71848D01*
X34017Y-71833D01*
X33959Y-71813D01*
X33908Y-71794D01*
X33858Y-71771D01*
X33815Y-71747D01*
X33773Y-71728D01*
X33738Y-71705D01*
X33707Y-71685D01*
X33683Y-71666D01*
X33664Y-71650D01*
X33648Y-71639D01*
X33641Y-71631D01*
X33637Y-71627D01*
X33590Y-71581D01*
X33551Y-71530D01*
X33516Y-71480D01*
X33485Y-71429D01*
X33462Y-71383D01*
X33439Y-71332D01*
X33408Y-71239D01*
X33400Y-71197D01*
X33392Y-71158D01*
X33384Y-71123D01*
X33381Y-71092D01*
X33377Y-71068D01*
Y-71049D01*
Y-71037D01*
Y-71034D01*
X33381Y-70940D01*
X33396Y-70855D01*
X33419Y-70781D01*
X33443Y-70719D01*
X33466Y-70669D01*
X33489Y-70630D01*
X33505Y-70607D01*
X33509Y-70599D01*
X33563Y-70541D01*
X33621Y-70490D01*
X33683Y-70451D01*
X33745Y-70420D01*
X33800Y-70397D01*
X33842Y-70382D01*
X33858Y-70378D01*
X33869Y-70374D01*
X33877Y-70370D01*
X33881D01*
X33815Y-70335D01*
X33761Y-70300D01*
X33714Y-70261D01*
X33676Y-70227D01*
X33645Y-70195D01*
X33621Y-70168D01*
X33610Y-70153D01*
X33606Y-70145D01*
X33575Y-70091D01*
X33551Y-70036D01*
X33532Y-69982D01*
X33520Y-69932D01*
X33512Y-69889D01*
X33509Y-69858D01*
Y-69835D01*
Y-69827D01*
X33512Y-69761D01*
X33524Y-69695D01*
X33540Y-69637D01*
X33559Y-69586D01*
X33579Y-69544D01*
X33594Y-69509D01*
X33606Y-69489D01*
X33610Y-69481D01*
X33648Y-69423D01*
X33695Y-69373D01*
X33742Y-69330D01*
X33788Y-69291D01*
X33827Y-69264D01*
X33862Y-69241D01*
X33885Y-69229D01*
X33889Y-69225D01*
X33893D01*
X33963Y-69194D01*
X34032Y-69171D01*
X34102Y-69152D01*
X34164Y-69140D01*
X34215Y-69132D01*
X34258Y-69128D01*
X34354D01*
X34409Y-69136D01*
D02*
G37*
G36*
X32178Y-69132D02*
X32252Y-69140D01*
X32321Y-69156D01*
X32387Y-69175D01*
X32445Y-69202D01*
X32504Y-69225D01*
X32554Y-69257D01*
X32601Y-69284D01*
X32640Y-69311D01*
X32678Y-69342D01*
X32709Y-69365D01*
X32733Y-69388D01*
X32752Y-69412D01*
X32768Y-69427D01*
X32775Y-69435D01*
X32779Y-69439D01*
X32830Y-69509D01*
X32872Y-69590D01*
X32911Y-69675D01*
X32946Y-69765D01*
X32973Y-69858D01*
X32996Y-69951D01*
X33016Y-70048D01*
X33031Y-70137D01*
X33043Y-70227D01*
X33051Y-70308D01*
X33059Y-70382D01*
X33062Y-70444D01*
Y-70498D01*
X33066Y-70537D01*
Y-70552D01*
Y-70564D01*
Y-70568D01*
Y-70572D01*
X33062Y-70696D01*
X33055Y-70812D01*
X33043Y-70921D01*
X33024Y-71022D01*
X33004Y-71111D01*
X32985Y-71193D01*
X32962Y-71266D01*
X32934Y-71332D01*
X32911Y-71387D01*
X32888Y-71437D01*
X32868Y-71476D01*
X32845Y-71511D01*
X32830Y-71538D01*
X32818Y-71553D01*
X32810Y-71565D01*
X32806Y-71569D01*
X32756Y-71623D01*
X32702Y-71670D01*
X32647Y-71709D01*
X32593Y-71744D01*
X32535Y-71775D01*
X32480Y-71798D01*
X32426Y-71817D01*
X32372Y-71833D01*
X32325Y-71844D01*
X32279Y-71856D01*
X32240Y-71864D01*
X32205Y-71868D01*
X32174D01*
X32155Y-71872D01*
X32135D01*
X32046Y-71868D01*
X31964Y-71852D01*
X31891Y-71837D01*
X31825Y-71813D01*
X31774Y-71794D01*
X31736Y-71775D01*
X31720Y-71771D01*
X31708Y-71763D01*
X31705Y-71759D01*
X31701D01*
X31635Y-71712D01*
X31572Y-71658D01*
X31522Y-71604D01*
X31479Y-71549D01*
X31444Y-71499D01*
X31421Y-71460D01*
X31413Y-71445D01*
X31406Y-71433D01*
X31402Y-71429D01*
Y-71425D01*
X31363Y-71344D01*
X31336Y-71258D01*
X31317Y-71181D01*
X31305Y-71107D01*
X31293Y-71045D01*
Y-71022D01*
X31289Y-70999D01*
Y-70979D01*
Y-70968D01*
Y-70960D01*
Y-70956D01*
X31293Y-70886D01*
X31301Y-70820D01*
X31313Y-70754D01*
X31324Y-70696D01*
X31344Y-70642D01*
X31363Y-70587D01*
X31382Y-70541D01*
X31406Y-70498D01*
X31429Y-70459D01*
X31448Y-70424D01*
X31468Y-70397D01*
X31487Y-70370D01*
X31499Y-70351D01*
X31510Y-70339D01*
X31518Y-70331D01*
X31522Y-70327D01*
X31565Y-70285D01*
X31611Y-70246D01*
X31662Y-70215D01*
X31708Y-70188D01*
X31755Y-70161D01*
X31802Y-70141D01*
X31891Y-70114D01*
X31929Y-70102D01*
X31968Y-70095D01*
X31999Y-70091D01*
X32030Y-70087D01*
X32054Y-70083D01*
X32085D01*
X32155Y-70087D01*
X32221Y-70098D01*
X32283Y-70110D01*
X32337Y-70126D01*
X32383Y-70145D01*
X32418Y-70157D01*
X32442Y-70168D01*
X32445Y-70172D01*
X32449D01*
X32511Y-70211D01*
X32566Y-70254D01*
X32616Y-70296D01*
X32655Y-70343D01*
X32690Y-70382D01*
X32717Y-70413D01*
X32733Y-70436D01*
X32737Y-70440D01*
Y-70370D01*
X32733Y-70300D01*
X32729Y-70238D01*
X32721Y-70176D01*
X32717Y-70122D01*
X32709Y-70071D01*
X32702Y-70025D01*
X32690Y-69982D01*
X32682Y-69943D01*
X32675Y-69912D01*
X32667Y-69885D01*
X32663Y-69862D01*
X32655Y-69846D01*
X32651Y-69835D01*
X32647Y-69827D01*
Y-69823D01*
X32609Y-69745D01*
X32570Y-69675D01*
X32527Y-69621D01*
X32488Y-69575D01*
X32453Y-69536D01*
X32426Y-69509D01*
X32407Y-69493D01*
X32399Y-69489D01*
X32352Y-69458D01*
X32306Y-69439D01*
X32259Y-69423D01*
X32213Y-69412D01*
X32178Y-69404D01*
X32147Y-69400D01*
X32120D01*
X32050Y-69408D01*
X31984Y-69423D01*
X31929Y-69447D01*
X31879Y-69470D01*
X31840Y-69497D01*
X31813Y-69520D01*
X31798Y-69536D01*
X31790Y-69544D01*
X31763Y-69578D01*
X31736Y-69621D01*
X31712Y-69668D01*
X31697Y-69714D01*
X31681Y-69757D01*
X31670Y-69792D01*
X31666Y-69815D01*
X31662Y-69819D01*
Y-69823D01*
X31332Y-69796D01*
X31355Y-69687D01*
X31390Y-69590D01*
X31429Y-69505D01*
X31472Y-69435D01*
X31514Y-69381D01*
X31530Y-69357D01*
X31549Y-69338D01*
X31561Y-69326D01*
X31572Y-69315D01*
X31576Y-69311D01*
X31580Y-69307D01*
X31619Y-69276D01*
X31662Y-69249D01*
X31747Y-69202D01*
X31833Y-69171D01*
X31914Y-69152D01*
X31988Y-69136D01*
X32019Y-69132D01*
X32046D01*
X32069Y-69128D01*
X32100D01*
X32178Y-69132D01*
D02*
G37*
G36*
X37711Y-71825D02*
X36745D01*
X36655Y-71821D01*
X36574Y-71817D01*
X36500Y-71810D01*
X36438Y-71802D01*
X36384Y-71794D01*
X36345Y-71790D01*
X36333Y-71786D01*
X36322Y-71782D01*
X36314D01*
X36244Y-71763D01*
X36182Y-71740D01*
X36128Y-71720D01*
X36081Y-71697D01*
X36042Y-71678D01*
X36015Y-71662D01*
X36000Y-71650D01*
X35992Y-71646D01*
X35941Y-71612D01*
X35899Y-71569D01*
X35856Y-71530D01*
X35821Y-71491D01*
X35790Y-71456D01*
X35767Y-71429D01*
X35751Y-71410D01*
X35747Y-71402D01*
X35709Y-71340D01*
X35670Y-71274D01*
X35639Y-71212D01*
X35616Y-71150D01*
X35592Y-71096D01*
X35577Y-71053D01*
X35573Y-71037D01*
X35569Y-71026D01*
X35565Y-71018D01*
Y-71014D01*
X35542Y-70921D01*
X35522Y-70828D01*
X35511Y-70739D01*
X35499Y-70653D01*
X35495Y-70579D01*
Y-70548D01*
X35491Y-70521D01*
Y-70502D01*
Y-70482D01*
Y-70475D01*
Y-70471D01*
X35495Y-70339D01*
X35507Y-70219D01*
X35526Y-70110D01*
X35534Y-70060D01*
X35546Y-70017D01*
X35557Y-69974D01*
X35565Y-69939D01*
X35573Y-69908D01*
X35585Y-69881D01*
X35588Y-69858D01*
X35596Y-69842D01*
X35600Y-69835D01*
Y-69831D01*
X35643Y-69730D01*
X35693Y-69641D01*
X35747Y-69563D01*
X35798Y-69497D01*
X35844Y-69443D01*
X35883Y-69404D01*
X35899Y-69392D01*
X35910Y-69381D01*
X35914Y-69377D01*
X35918Y-69373D01*
X35980Y-69322D01*
X36046Y-69284D01*
X36112Y-69249D01*
X36174Y-69222D01*
X36228Y-69202D01*
X36271Y-69191D01*
X36287Y-69183D01*
X36298D01*
X36306Y-69179D01*
X36310D01*
X36376Y-69167D01*
X36454Y-69156D01*
X36531Y-69148D01*
X36609Y-69144D01*
X36679Y-69140D01*
X37711D01*
Y-71825D01*
D02*
G37*
G36*
X5918Y-60136D02*
X6023Y-60156D01*
X6112Y-60187D01*
X6190Y-60218D01*
X6225Y-60237D01*
X6252Y-60253D01*
X6279Y-60268D01*
X6299Y-60284D01*
X6314Y-60295D01*
X6326Y-60303D01*
X6334Y-60307D01*
X6338Y-60311D01*
X6411Y-60385D01*
X6470Y-60466D01*
X6516Y-60551D01*
X6555Y-60637D01*
X6578Y-60710D01*
X6590Y-60742D01*
X6598Y-60769D01*
X6601Y-60792D01*
X6605Y-60807D01*
X6609Y-60819D01*
Y-60823D01*
X6279Y-60881D01*
X6264Y-60796D01*
X6241Y-60722D01*
X6213Y-60660D01*
X6186Y-60610D01*
X6159Y-60571D01*
X6136Y-60544D01*
X6120Y-60524D01*
X6116Y-60520D01*
X6066Y-60482D01*
X6012Y-60451D01*
X5961Y-60431D01*
X5911Y-60416D01*
X5864Y-60408D01*
X5829Y-60400D01*
X5798D01*
X5728Y-60404D01*
X5666Y-60419D01*
X5612Y-60439D01*
X5565Y-60458D01*
X5531Y-60482D01*
X5503Y-60501D01*
X5484Y-60516D01*
X5480Y-60520D01*
X5437Y-60567D01*
X5406Y-60617D01*
X5387Y-60668D01*
X5371Y-60714D01*
X5364Y-60757D01*
X5356Y-60788D01*
Y-60811D01*
Y-60815D01*
Y-60819D01*
Y-60862D01*
X5364Y-60900D01*
X5383Y-60966D01*
X5410Y-61025D01*
X5441Y-61075D01*
X5472Y-61110D01*
X5500Y-61137D01*
X5519Y-61153D01*
X5523Y-61157D01*
X5527D01*
X5593Y-61191D01*
X5655Y-61219D01*
X5721Y-61238D01*
X5779Y-61250D01*
X5829Y-61257D01*
X5872Y-61265D01*
X5922D01*
X5938Y-61261D01*
X5957D01*
X5996Y-61552D01*
X5946Y-61541D01*
X5899Y-61533D01*
X5860Y-61525D01*
X5825Y-61521D01*
X5798Y-61518D01*
X5763D01*
X5682Y-61525D01*
X5608Y-61541D01*
X5542Y-61564D01*
X5488Y-61591D01*
X5445Y-61618D01*
X5414Y-61642D01*
X5395Y-61657D01*
X5387Y-61665D01*
X5336Y-61723D01*
X5298Y-61785D01*
X5271Y-61847D01*
X5255Y-61909D01*
X5243Y-61960D01*
X5240Y-62002D01*
X5236Y-62018D01*
Y-62030D01*
Y-62037D01*
Y-62041D01*
X5243Y-62127D01*
X5263Y-62204D01*
X5286Y-62270D01*
X5317Y-62328D01*
X5348Y-62375D01*
X5371Y-62410D01*
X5391Y-62433D01*
X5399Y-62441D01*
X5461Y-62495D01*
X5527Y-62534D01*
X5593Y-62561D01*
X5655Y-62581D01*
X5709Y-62592D01*
X5752Y-62596D01*
X5767Y-62600D01*
X5790D01*
X5860Y-62596D01*
X5926Y-62581D01*
X5985Y-62561D01*
X6031Y-62538D01*
X6070Y-62519D01*
X6101Y-62499D01*
X6116Y-62484D01*
X6124Y-62480D01*
X6171Y-62425D01*
X6210Y-62363D01*
X6244Y-62297D01*
X6272Y-62227D01*
X6291Y-62169D01*
X6299Y-62142D01*
X6303Y-62119D01*
X6306Y-62099D01*
X6310Y-62084D01*
X6314Y-62076D01*
Y-62072D01*
X6644Y-62115D01*
X6636Y-62177D01*
X6625Y-62235D01*
X6590Y-62344D01*
X6547Y-62437D01*
X6524Y-62476D01*
X6500Y-62515D01*
X6477Y-62550D01*
X6454Y-62577D01*
X6435Y-62604D01*
X6415Y-62623D01*
X6403Y-62639D01*
X6392Y-62650D01*
X6384Y-62658D01*
X6380Y-62662D01*
X6334Y-62697D01*
X6287Y-62732D01*
X6241Y-62759D01*
X6190Y-62782D01*
X6093Y-62821D01*
X6000Y-62844D01*
X5957Y-62852D01*
X5918Y-62860D01*
X5884Y-62864D01*
X5853Y-62868D01*
X5829Y-62872D01*
X5794D01*
X5721Y-62868D01*
X5655Y-62860D01*
X5589Y-62848D01*
X5527Y-62833D01*
X5468Y-62813D01*
X5418Y-62794D01*
X5368Y-62771D01*
X5325Y-62747D01*
X5282Y-62728D01*
X5247Y-62705D01*
X5216Y-62685D01*
X5193Y-62666D01*
X5174Y-62650D01*
X5158Y-62639D01*
X5150Y-62631D01*
X5146Y-62627D01*
X5100Y-62581D01*
X5061Y-62530D01*
X5026Y-62480D01*
X4995Y-62429D01*
X4972Y-62383D01*
X4949Y-62332D01*
X4918Y-62239D01*
X4910Y-62196D01*
X4902Y-62158D01*
X4894Y-62123D01*
X4890Y-62092D01*
X4886Y-62068D01*
Y-62049D01*
Y-62037D01*
Y-62033D01*
X4890Y-61940D01*
X4906Y-61855D01*
X4929Y-61781D01*
X4952Y-61719D01*
X4976Y-61669D01*
X4999Y-61630D01*
X5015Y-61607D01*
X5018Y-61599D01*
X5073Y-61541D01*
X5131Y-61490D01*
X5193Y-61452D01*
X5255Y-61421D01*
X5309Y-61397D01*
X5352Y-61382D01*
X5368Y-61378D01*
X5379Y-61374D01*
X5387Y-61370D01*
X5391D01*
X5325Y-61335D01*
X5271Y-61300D01*
X5224Y-61261D01*
X5185Y-61226D01*
X5154Y-61195D01*
X5131Y-61168D01*
X5119Y-61153D01*
X5115Y-61145D01*
X5084Y-61091D01*
X5061Y-61036D01*
X5042Y-60982D01*
X5030Y-60932D01*
X5022Y-60889D01*
X5018Y-60858D01*
Y-60835D01*
Y-60827D01*
X5022Y-60761D01*
X5034Y-60695D01*
X5049Y-60637D01*
X5069Y-60586D01*
X5088Y-60544D01*
X5104Y-60509D01*
X5115Y-60489D01*
X5119Y-60482D01*
X5158Y-60423D01*
X5205Y-60373D01*
X5251Y-60330D01*
X5298Y-60291D01*
X5336Y-60264D01*
X5371Y-60241D01*
X5395Y-60229D01*
X5399Y-60225D01*
X5403D01*
X5472Y-60194D01*
X5542Y-60171D01*
X5612Y-60152D01*
X5674Y-60140D01*
X5725Y-60132D01*
X5767Y-60128D01*
X5864D01*
X5918Y-60136D01*
D02*
G37*
G36*
X4502Y-61556D02*
X4192Y-61599D01*
X4165Y-61556D01*
X4130Y-61521D01*
X4099Y-61486D01*
X4068Y-61459D01*
X4037Y-61440D01*
X4013Y-61421D01*
X3998Y-61413D01*
X3994Y-61409D01*
X3944Y-61386D01*
X3893Y-61366D01*
X3847Y-61355D01*
X3800Y-61343D01*
X3761Y-61339D01*
X3730Y-61335D01*
X3656D01*
X3610Y-61343D01*
X3528Y-61362D01*
X3459Y-61389D01*
X3396Y-61417D01*
X3350Y-61448D01*
X3315Y-61475D01*
X3296Y-61494D01*
X3288Y-61498D01*
Y-61502D01*
X3234Y-61568D01*
X3195Y-61638D01*
X3168Y-61712D01*
X3148Y-61785D01*
X3137Y-61847D01*
X3133Y-61874D01*
Y-61898D01*
X3129Y-61917D01*
Y-61933D01*
Y-61940D01*
Y-61944D01*
Y-61999D01*
X3137Y-62049D01*
X3156Y-62146D01*
X3183Y-62227D01*
X3210Y-62293D01*
X3241Y-62348D01*
X3269Y-62391D01*
X3280Y-62402D01*
X3288Y-62414D01*
X3292Y-62418D01*
X3296Y-62422D01*
X3327Y-62453D01*
X3358Y-62480D01*
X3428Y-62526D01*
X3494Y-62557D01*
X3559Y-62577D01*
X3614Y-62592D01*
X3660Y-62596D01*
X3676Y-62600D01*
X3699D01*
X3773Y-62596D01*
X3839Y-62581D01*
X3897Y-62561D01*
X3944Y-62538D01*
X3986Y-62515D01*
X4017Y-62495D01*
X4033Y-62480D01*
X4041Y-62476D01*
X4087Y-62422D01*
X4126Y-62363D01*
X4157Y-62297D01*
X4180Y-62239D01*
X4196Y-62181D01*
X4207Y-62138D01*
X4211Y-62119D01*
X4215Y-62107D01*
Y-62099D01*
Y-62096D01*
X4561Y-62123D01*
X4553Y-62185D01*
X4541Y-62243D01*
X4506Y-62352D01*
X4464Y-62445D01*
X4440Y-62488D01*
X4417Y-62522D01*
X4398Y-62557D01*
X4374Y-62588D01*
X4355Y-62612D01*
X4335Y-62631D01*
X4320Y-62647D01*
X4312Y-62662D01*
X4304Y-62666D01*
X4301Y-62670D01*
X4254Y-62705D01*
X4207Y-62736D01*
X4157Y-62763D01*
X4107Y-62786D01*
X4010Y-62821D01*
X3913Y-62844D01*
X3870Y-62856D01*
X3827Y-62860D01*
X3792Y-62864D01*
X3761Y-62868D01*
X3734Y-62872D01*
X3699D01*
X3618Y-62868D01*
X3540Y-62856D01*
X3466Y-62840D01*
X3400Y-62821D01*
X3338Y-62794D01*
X3280Y-62767D01*
X3226Y-62740D01*
X3179Y-62709D01*
X3137Y-62678D01*
X3098Y-62650D01*
X3067Y-62619D01*
X3040Y-62596D01*
X3020Y-62577D01*
X3005Y-62561D01*
X2997Y-62550D01*
X2993Y-62546D01*
X2954Y-62495D01*
X2923Y-62441D01*
X2892Y-62391D01*
X2869Y-62336D01*
X2830Y-62231D01*
X2807Y-62130D01*
X2799Y-62088D01*
X2791Y-62045D01*
X2787Y-62010D01*
X2784Y-61979D01*
X2780Y-61952D01*
Y-61933D01*
Y-61921D01*
Y-61917D01*
X2784Y-61847D01*
X2791Y-61781D01*
X2803Y-61715D01*
X2818Y-61657D01*
X2838Y-61603D01*
X2857Y-61549D01*
X2881Y-61502D01*
X2900Y-61459D01*
X2923Y-61421D01*
X2946Y-61386D01*
X2966Y-61358D01*
X2985Y-61331D01*
X3001Y-61312D01*
X3012Y-61300D01*
X3020Y-61292D01*
X3024Y-61288D01*
X3071Y-61246D01*
X3117Y-61207D01*
X3168Y-61176D01*
X3218Y-61149D01*
X3269Y-61122D01*
X3319Y-61102D01*
X3412Y-61075D01*
X3455Y-61063D01*
X3494Y-61056D01*
X3528Y-61052D01*
X3559Y-61048D01*
X3583Y-61044D01*
X3668D01*
X3715Y-61052D01*
X3808Y-61071D01*
X3893Y-61098D01*
X3971Y-61129D01*
X4033Y-61160D01*
X4060Y-61176D01*
X4083Y-61188D01*
X4103Y-61199D01*
X4114Y-61207D01*
X4122Y-61211D01*
X4126Y-61215D01*
X3982Y-60489D01*
X2908D01*
Y-60175D01*
X4242D01*
X4502Y-61556D01*
D02*
G37*
G36*
X9220Y-62825D02*
X8254D01*
X8165Y-62821D01*
X8084Y-62817D01*
X8010Y-62809D01*
X7948Y-62802D01*
X7893Y-62794D01*
X7855Y-62790D01*
X7843Y-62786D01*
X7831Y-62782D01*
X7824D01*
X7754Y-62763D01*
X7692Y-62740D01*
X7637Y-62720D01*
X7591Y-62697D01*
X7552Y-62678D01*
X7525Y-62662D01*
X7509Y-62650D01*
X7502Y-62647D01*
X7451Y-62612D01*
X7408Y-62569D01*
X7366Y-62530D01*
X7331Y-62491D01*
X7300Y-62456D01*
X7277Y-62429D01*
X7261Y-62410D01*
X7257Y-62402D01*
X7218Y-62340D01*
X7180Y-62274D01*
X7148Y-62212D01*
X7125Y-62150D01*
X7102Y-62096D01*
X7086Y-62053D01*
X7083Y-62037D01*
X7079Y-62026D01*
X7075Y-62018D01*
Y-62014D01*
X7051Y-61921D01*
X7032Y-61828D01*
X7020Y-61739D01*
X7009Y-61653D01*
X7005Y-61580D01*
Y-61549D01*
X7001Y-61521D01*
Y-61502D01*
Y-61483D01*
Y-61475D01*
Y-61471D01*
X7005Y-61339D01*
X7017Y-61219D01*
X7036Y-61110D01*
X7044Y-61060D01*
X7055Y-61017D01*
X7067Y-60974D01*
X7075Y-60939D01*
X7083Y-60908D01*
X7094Y-60881D01*
X7098Y-60858D01*
X7106Y-60842D01*
X7110Y-60835D01*
Y-60831D01*
X7152Y-60730D01*
X7203Y-60641D01*
X7257Y-60563D01*
X7308Y-60497D01*
X7354Y-60443D01*
X7393Y-60404D01*
X7408Y-60392D01*
X7420Y-60381D01*
X7424Y-60377D01*
X7428Y-60373D01*
X7490Y-60322D01*
X7556Y-60284D01*
X7622Y-60249D01*
X7684Y-60221D01*
X7738Y-60202D01*
X7781Y-60190D01*
X7796Y-60183D01*
X7808D01*
X7816Y-60179D01*
X7820D01*
X7886Y-60167D01*
X7963Y-60156D01*
X8041Y-60148D01*
X8118Y-60144D01*
X8188Y-60140D01*
X9220D01*
Y-62825D01*
D02*
G37*
G36*
X126120Y-96977D02*
X126256Y-96992D01*
X126376Y-97012D01*
X126435Y-97027D01*
X126485Y-97039D01*
X126532Y-97051D01*
X126574Y-97066D01*
X126613Y-97078D01*
X126644Y-97086D01*
X126667Y-97097D01*
X126687Y-97101D01*
X126698Y-97109D01*
X126702D01*
X126819Y-97167D01*
X126923Y-97233D01*
X127013Y-97303D01*
X127048Y-97338D01*
X127083Y-97369D01*
X127114Y-97400D01*
X127141Y-97431D01*
X127164Y-97458D01*
X127180Y-97481D01*
X127195Y-97497D01*
X127207Y-97512D01*
X127211Y-97520D01*
X127214Y-97524D01*
X127245Y-97578D01*
X127273Y-97633D01*
X127315Y-97749D01*
X127346Y-97865D01*
X127366Y-97978D01*
X127374Y-98032D01*
X127381Y-98079D01*
X127385Y-98122D01*
Y-98156D01*
X127389Y-98188D01*
Y-98230D01*
X127385Y-98308D01*
X127377Y-98382D01*
X127370Y-98451D01*
X127354Y-98517D01*
X127335Y-98579D01*
X127315Y-98638D01*
X127296Y-98692D01*
X127273Y-98742D01*
X127253Y-98785D01*
X127234Y-98828D01*
X127214Y-98859D01*
X127195Y-98890D01*
X127180Y-98909D01*
X127172Y-98929D01*
X127164Y-98936D01*
X127160Y-98940D01*
X127114Y-98995D01*
X127067Y-99041D01*
X127013Y-99084D01*
X126958Y-99126D01*
X126850Y-99196D01*
X126741Y-99251D01*
X126691Y-99274D01*
X126644Y-99293D01*
X126601Y-99309D01*
X126567Y-99321D01*
X126535Y-99332D01*
X126512Y-99340D01*
X126497Y-99344D01*
X126493D01*
X126403Y-98987D01*
X126466Y-98971D01*
X126524Y-98952D01*
X126578Y-98932D01*
X126629Y-98913D01*
X126675Y-98890D01*
X126714Y-98866D01*
X126753Y-98839D01*
X126788Y-98816D01*
X126819Y-98797D01*
X126842Y-98773D01*
X126865Y-98754D01*
X126885Y-98738D01*
X126896Y-98723D01*
X126908Y-98711D01*
X126912Y-98707D01*
X126916Y-98704D01*
X126947Y-98665D01*
X126970Y-98622D01*
X127013Y-98537D01*
X127044Y-98455D01*
X127063Y-98374D01*
X127079Y-98304D01*
X127083Y-98277D01*
Y-98250D01*
X127086Y-98226D01*
Y-98199D01*
X127083Y-98110D01*
X127067Y-98025D01*
X127048Y-97947D01*
X127024Y-97877D01*
X127001Y-97823D01*
X126989Y-97799D01*
X126982Y-97780D01*
X126974Y-97765D01*
X126966Y-97753D01*
X126962Y-97745D01*
Y-97741D01*
X126908Y-97668D01*
X126850Y-97606D01*
X126784Y-97551D01*
X126722Y-97509D01*
X126667Y-97474D01*
X126621Y-97450D01*
X126601Y-97443D01*
X126590Y-97435D01*
X126582Y-97431D01*
X126578D01*
X126477Y-97400D01*
X126376Y-97377D01*
X126276Y-97357D01*
X126182Y-97346D01*
X126140Y-97342D01*
X126101Y-97338D01*
X126066D01*
X126039Y-97334D01*
X126015D01*
X125996D01*
X125985D01*
X125981D01*
X125880Y-97338D01*
X125787Y-97346D01*
X125701Y-97361D01*
X125624Y-97377D01*
X125558Y-97388D01*
X125531Y-97396D01*
X125507Y-97404D01*
X125488Y-97408D01*
X125476Y-97412D01*
X125468Y-97415D01*
X125465D01*
X125375Y-97454D01*
X125294Y-97497D01*
X125228Y-97543D01*
X125170Y-97594D01*
X125123Y-97637D01*
X125092Y-97672D01*
X125073Y-97699D01*
X125065Y-97702D01*
Y-97706D01*
X125014Y-97788D01*
X124976Y-97877D01*
X124949Y-97962D01*
X124933Y-98044D01*
X124921Y-98118D01*
X124917Y-98149D01*
Y-98176D01*
X124914Y-98195D01*
Y-98226D01*
X124917Y-98323D01*
X124933Y-98413D01*
X124956Y-98486D01*
X124980Y-98552D01*
X125007Y-98603D01*
X125026Y-98642D01*
X125042Y-98665D01*
X125049Y-98672D01*
X125108Y-98735D01*
X125174Y-98793D01*
X125243Y-98839D01*
X125313Y-98878D01*
X125375Y-98909D01*
X125406Y-98921D01*
X125430Y-98929D01*
X125449Y-98936D01*
X125465Y-98944D01*
X125472Y-98948D01*
X125476D01*
X125395Y-99297D01*
X125325Y-99274D01*
X125263Y-99251D01*
X125205Y-99220D01*
X125146Y-99192D01*
X125096Y-99161D01*
X125049Y-99126D01*
X125003Y-99095D01*
X124964Y-99064D01*
X124933Y-99033D01*
X124902Y-99006D01*
X124875Y-98979D01*
X124855Y-98960D01*
X124836Y-98940D01*
X124824Y-98925D01*
X124820Y-98917D01*
X124817Y-98913D01*
X124782Y-98859D01*
X124747Y-98804D01*
X124720Y-98750D01*
X124696Y-98692D01*
X124661Y-98576D01*
X124638Y-98471D01*
X124627Y-98420D01*
X124623Y-98378D01*
X124619Y-98335D01*
X124615Y-98300D01*
X124611Y-98273D01*
Y-98234D01*
X124619Y-98106D01*
X124638Y-97982D01*
X124661Y-97873D01*
X124677Y-97823D01*
X124692Y-97776D01*
X124708Y-97734D01*
X124723Y-97695D01*
X124735Y-97664D01*
X124747Y-97633D01*
X124758Y-97613D01*
X124766Y-97598D01*
X124770Y-97586D01*
X124774Y-97582D01*
X124840Y-97478D01*
X124917Y-97388D01*
X124995Y-97311D01*
X125073Y-97245D01*
X125143Y-97194D01*
X125174Y-97175D01*
X125201Y-97159D01*
X125220Y-97144D01*
X125236Y-97136D01*
X125247Y-97132D01*
X125251Y-97128D01*
X125371Y-97074D01*
X125496Y-97035D01*
X125620Y-97008D01*
X125732Y-96989D01*
X125783Y-96981D01*
X125833Y-96977D01*
X125872Y-96973D01*
X125911D01*
X125938Y-96969D01*
X125961D01*
X125977D01*
X125981D01*
X126120Y-96977D01*
D02*
G37*
G36*
X125011Y-100985D02*
X125123Y-100892D01*
X125243Y-100803D01*
X125360Y-100725D01*
X125472Y-100651D01*
X125523Y-100620D01*
X125569Y-100593D01*
X125612Y-100566D01*
X125647Y-100547D01*
X125678Y-100531D01*
X125697Y-100519D01*
X125713Y-100512D01*
X125717Y-100508D01*
X125872Y-100430D01*
X126027Y-100360D01*
X126175Y-100302D01*
X126241Y-100279D01*
X126306Y-100256D01*
X126365Y-100232D01*
X126419Y-100217D01*
X126466Y-100201D01*
X126504Y-100190D01*
X126539Y-100178D01*
X126563Y-100170D01*
X126578Y-100166D01*
X126582D01*
X126741Y-100127D01*
X126819Y-100112D01*
X126889Y-100100D01*
X126954Y-100089D01*
X127020Y-100077D01*
X127075Y-100069D01*
X127129Y-100062D01*
X127176Y-100058D01*
X127218Y-100054D01*
X127257Y-100050D01*
X127288D01*
X127311Y-100046D01*
X127327D01*
X127339D01*
X127342D01*
Y-100384D01*
X127195Y-100395D01*
X127059Y-100415D01*
X126935Y-100434D01*
X126877Y-100446D01*
X126823Y-100457D01*
X126776Y-100465D01*
X126733Y-100477D01*
X126695Y-100485D01*
X126663Y-100492D01*
X126640Y-100500D01*
X126621Y-100504D01*
X126609Y-100508D01*
X126605D01*
X126427Y-100566D01*
X126260Y-100628D01*
X126179Y-100659D01*
X126101Y-100690D01*
X126031Y-100725D01*
X125961Y-100756D01*
X125899Y-100783D01*
X125845Y-100810D01*
X125798Y-100834D01*
X125756Y-100853D01*
X125721Y-100873D01*
X125697Y-100884D01*
X125682Y-100892D01*
X125678Y-100896D01*
X125596Y-100942D01*
X125515Y-100989D01*
X125441Y-101035D01*
X125371Y-101082D01*
X125309Y-101125D01*
X125247Y-101167D01*
X125193Y-101210D01*
X125146Y-101245D01*
X125100Y-101280D01*
X125061Y-101311D01*
X125030Y-101342D01*
X125003Y-101365D01*
X124980Y-101381D01*
X124964Y-101396D01*
X124956Y-101404D01*
X124952Y-101408D01*
X124692D01*
Y-99670D01*
X125011D01*
Y-100985D01*
D02*
G37*
G36*
X126213Y-101722D02*
X126330Y-101730D01*
X126438Y-101742D01*
X126539Y-101761D01*
X126629Y-101780D01*
X126710Y-101800D01*
X126784Y-101823D01*
X126850Y-101850D01*
X126904Y-101874D01*
X126954Y-101897D01*
X126993Y-101916D01*
X127028Y-101939D01*
X127055Y-101955D01*
X127071Y-101967D01*
X127083Y-101974D01*
X127086Y-101978D01*
X127141Y-102029D01*
X127187Y-102083D01*
X127226Y-102137D01*
X127261Y-102192D01*
X127292Y-102250D01*
X127315Y-102304D01*
X127335Y-102358D01*
X127350Y-102413D01*
X127362Y-102459D01*
X127374Y-102506D01*
X127381Y-102545D01*
X127385Y-102580D01*
Y-102611D01*
X127389Y-102630D01*
Y-102649D01*
X127385Y-102739D01*
X127370Y-102820D01*
X127354Y-102894D01*
X127331Y-102960D01*
X127311Y-103010D01*
X127292Y-103049D01*
X127288Y-103065D01*
X127280Y-103076D01*
X127277Y-103080D01*
Y-103084D01*
X127230Y-103150D01*
X127176Y-103212D01*
X127121Y-103263D01*
X127067Y-103305D01*
X127017Y-103340D01*
X126978Y-103363D01*
X126962Y-103371D01*
X126951Y-103379D01*
X126947Y-103383D01*
X126943D01*
X126861Y-103422D01*
X126776Y-103449D01*
X126698Y-103468D01*
X126625Y-103480D01*
X126563Y-103491D01*
X126539D01*
X126516Y-103495D01*
X126497D01*
X126485D01*
X126477D01*
X126473D01*
X126403Y-103491D01*
X126338Y-103484D01*
X126272Y-103472D01*
X126213Y-103460D01*
X126159Y-103441D01*
X126105Y-103422D01*
X126058Y-103402D01*
X126015Y-103379D01*
X125977Y-103356D01*
X125942Y-103336D01*
X125915Y-103317D01*
X125888Y-103297D01*
X125868Y-103286D01*
X125856Y-103274D01*
X125849Y-103267D01*
X125845Y-103263D01*
X125802Y-103220D01*
X125763Y-103173D01*
X125732Y-103123D01*
X125705Y-103076D01*
X125678Y-103030D01*
X125659Y-102983D01*
X125631Y-102894D01*
X125620Y-102855D01*
X125612Y-102816D01*
X125608Y-102785D01*
X125604Y-102754D01*
X125600Y-102731D01*
Y-102700D01*
X125604Y-102630D01*
X125616Y-102564D01*
X125628Y-102502D01*
X125643Y-102448D01*
X125662Y-102401D01*
X125674Y-102366D01*
X125686Y-102343D01*
X125690Y-102339D01*
Y-102335D01*
X125728Y-102273D01*
X125771Y-102219D01*
X125814Y-102168D01*
X125860Y-102130D01*
X125899Y-102095D01*
X125930Y-102067D01*
X125953Y-102052D01*
X125957Y-102048D01*
X125888D01*
X125818Y-102052D01*
X125756Y-102056D01*
X125694Y-102064D01*
X125639Y-102067D01*
X125589Y-102075D01*
X125542Y-102083D01*
X125499Y-102095D01*
X125461Y-102102D01*
X125430Y-102110D01*
X125402Y-102118D01*
X125379Y-102122D01*
X125364Y-102130D01*
X125352Y-102134D01*
X125344Y-102137D01*
X125340D01*
X125263Y-102176D01*
X125193Y-102215D01*
X125139Y-102258D01*
X125092Y-102296D01*
X125053Y-102331D01*
X125026Y-102358D01*
X125011Y-102378D01*
X125007Y-102386D01*
X124976Y-102432D01*
X124956Y-102479D01*
X124941Y-102525D01*
X124929Y-102572D01*
X124921Y-102607D01*
X124917Y-102638D01*
Y-102665D01*
X124925Y-102735D01*
X124941Y-102801D01*
X124964Y-102855D01*
X124987Y-102906D01*
X125014Y-102944D01*
X125038Y-102972D01*
X125053Y-102987D01*
X125061Y-102995D01*
X125096Y-103022D01*
X125139Y-103049D01*
X125185Y-103073D01*
X125232Y-103088D01*
X125274Y-103103D01*
X125309Y-103115D01*
X125333Y-103119D01*
X125337Y-103123D01*
X125340D01*
X125313Y-103453D01*
X125205Y-103429D01*
X125108Y-103394D01*
X125022Y-103356D01*
X124952Y-103313D01*
X124898Y-103270D01*
X124875Y-103255D01*
X124855Y-103235D01*
X124844Y-103224D01*
X124832Y-103212D01*
X124828Y-103208D01*
X124824Y-103204D01*
X124793Y-103166D01*
X124766Y-103123D01*
X124720Y-103038D01*
X124689Y-102952D01*
X124669Y-102871D01*
X124654Y-102797D01*
X124650Y-102766D01*
Y-102739D01*
X124646Y-102716D01*
Y-102684D01*
X124650Y-102607D01*
X124657Y-102533D01*
X124673Y-102463D01*
X124692Y-102397D01*
X124720Y-102339D01*
X124743Y-102281D01*
X124774Y-102231D01*
X124801Y-102184D01*
X124828Y-102145D01*
X124859Y-102106D01*
X124883Y-102075D01*
X124906Y-102052D01*
X124929Y-102033D01*
X124945Y-102017D01*
X124952Y-102009D01*
X124956Y-102005D01*
X125026Y-101955D01*
X125108Y-101912D01*
X125193Y-101874D01*
X125282Y-101839D01*
X125375Y-101812D01*
X125468Y-101788D01*
X125565Y-101769D01*
X125655Y-101753D01*
X125744Y-101742D01*
X125825Y-101734D01*
X125899Y-101726D01*
X125961Y-101722D01*
X126015D01*
X126054Y-101718D01*
X126070D01*
X126082D01*
X126085D01*
X126089D01*
X126213Y-101722D01*
D02*
G37*
G36*
X141120Y-101251D02*
X141256Y-101266D01*
X141376Y-101285D01*
X141435Y-101301D01*
X141485Y-101313D01*
X141532Y-101324D01*
X141574Y-101340D01*
X141613Y-101351D01*
X141644Y-101359D01*
X141667Y-101371D01*
X141687Y-101375D01*
X141698Y-101382D01*
X141702D01*
X141819Y-101441D01*
X141923Y-101507D01*
X142013Y-101576D01*
X142048Y-101611D01*
X142083Y-101642D01*
X142114Y-101673D01*
X142141Y-101704D01*
X142164Y-101732D01*
X142180Y-101755D01*
X142195Y-101770D01*
X142207Y-101786D01*
X142210Y-101794D01*
X142214Y-101798D01*
X142245Y-101852D01*
X142273Y-101906D01*
X142315Y-102023D01*
X142346Y-102139D01*
X142366Y-102252D01*
X142374Y-102306D01*
X142381Y-102352D01*
X142385Y-102395D01*
Y-102430D01*
X142389Y-102461D01*
Y-102504D01*
X142385Y-102581D01*
X142377Y-102655D01*
X142370Y-102725D01*
X142354Y-102791D01*
X142335Y-102853D01*
X142315Y-102911D01*
X142296Y-102965D01*
X142273Y-103016D01*
X142253Y-103059D01*
X142234Y-103101D01*
X142214Y-103132D01*
X142195Y-103163D01*
X142180Y-103183D01*
X142172Y-103202D01*
X142164Y-103210D01*
X142160Y-103214D01*
X142114Y-103268D01*
X142067Y-103315D01*
X142013Y-103357D01*
X141958Y-103400D01*
X141850Y-103470D01*
X141741Y-103524D01*
X141691Y-103548D01*
X141644Y-103567D01*
X141601Y-103582D01*
X141567Y-103594D01*
X141535Y-103606D01*
X141512Y-103613D01*
X141497Y-103617D01*
X141493D01*
X141403Y-103260D01*
X141466Y-103245D01*
X141524Y-103225D01*
X141578Y-103206D01*
X141629Y-103187D01*
X141675Y-103163D01*
X141714Y-103140D01*
X141753Y-103113D01*
X141788Y-103090D01*
X141819Y-103070D01*
X141842Y-103047D01*
X141865Y-103027D01*
X141885Y-103012D01*
X141896Y-102997D01*
X141908Y-102985D01*
X141912Y-102981D01*
X141916Y-102977D01*
X141947Y-102938D01*
X141970Y-102896D01*
X142013Y-102810D01*
X142044Y-102729D01*
X142063Y-102647D01*
X142079Y-102577D01*
X142083Y-102550D01*
Y-102523D01*
X142086Y-102500D01*
Y-102473D01*
X142083Y-102383D01*
X142067Y-102298D01*
X142048Y-102220D01*
X142024Y-102151D01*
X142001Y-102096D01*
X141989Y-102073D01*
X141982Y-102054D01*
X141974Y-102038D01*
X141966Y-102026D01*
X141962Y-102019D01*
Y-102015D01*
X141908Y-101941D01*
X141850Y-101879D01*
X141784Y-101825D01*
X141722Y-101782D01*
X141667Y-101747D01*
X141621Y-101724D01*
X141601Y-101716D01*
X141590Y-101708D01*
X141582Y-101704D01*
X141578D01*
X141477Y-101673D01*
X141376Y-101650D01*
X141276Y-101631D01*
X141182Y-101619D01*
X141140Y-101615D01*
X141101Y-101611D01*
X141066D01*
X141039Y-101607D01*
X141016D01*
X140996D01*
X140984D01*
X140981D01*
X140880Y-101611D01*
X140787Y-101619D01*
X140701Y-101635D01*
X140624Y-101650D01*
X140558Y-101662D01*
X140531Y-101670D01*
X140507Y-101677D01*
X140488Y-101681D01*
X140476Y-101685D01*
X140468Y-101689D01*
X140465D01*
X140375Y-101728D01*
X140294Y-101770D01*
X140228Y-101817D01*
X140170Y-101867D01*
X140123Y-101910D01*
X140092Y-101945D01*
X140073Y-101972D01*
X140065Y-101976D01*
Y-101980D01*
X140015Y-102061D01*
X139976Y-102151D01*
X139948Y-102236D01*
X139933Y-102318D01*
X139921Y-102391D01*
X139918Y-102422D01*
Y-102449D01*
X139914Y-102469D01*
Y-102500D01*
X139918Y-102597D01*
X139933Y-102686D01*
X139956Y-102760D01*
X139980Y-102826D01*
X140007Y-102876D01*
X140026Y-102915D01*
X140042Y-102938D01*
X140049Y-102946D01*
X140108Y-103008D01*
X140174Y-103066D01*
X140243Y-103113D01*
X140313Y-103152D01*
X140375Y-103183D01*
X140406Y-103194D01*
X140430Y-103202D01*
X140449Y-103210D01*
X140465Y-103218D01*
X140472Y-103221D01*
X140476D01*
X140395Y-103571D01*
X140325Y-103548D01*
X140263Y-103524D01*
X140205Y-103493D01*
X140146Y-103466D01*
X140096Y-103435D01*
X140049Y-103400D01*
X140003Y-103369D01*
X139964Y-103338D01*
X139933Y-103307D01*
X139902Y-103280D01*
X139875Y-103253D01*
X139855Y-103233D01*
X139836Y-103214D01*
X139824Y-103198D01*
X139821Y-103191D01*
X139817Y-103187D01*
X139782Y-103132D01*
X139747Y-103078D01*
X139720Y-103024D01*
X139696Y-102965D01*
X139661Y-102849D01*
X139638Y-102744D01*
X139627Y-102694D01*
X139623Y-102651D01*
X139619Y-102609D01*
X139615Y-102574D01*
X139611Y-102546D01*
Y-102508D01*
X139619Y-102380D01*
X139638Y-102255D01*
X139661Y-102147D01*
X139677Y-102096D01*
X139692Y-102050D01*
X139708Y-102007D01*
X139724Y-101968D01*
X139735Y-101937D01*
X139747Y-101906D01*
X139758Y-101887D01*
X139766Y-101871D01*
X139770Y-101860D01*
X139774Y-101856D01*
X139840Y-101751D01*
X139918Y-101662D01*
X139995Y-101584D01*
X140073Y-101518D01*
X140143Y-101468D01*
X140174Y-101448D01*
X140201Y-101433D01*
X140220Y-101417D01*
X140236Y-101410D01*
X140247Y-101406D01*
X140251Y-101402D01*
X140371Y-101347D01*
X140496Y-101309D01*
X140620Y-101281D01*
X140732Y-101262D01*
X140783Y-101254D01*
X140833Y-101251D01*
X140872Y-101247D01*
X140911D01*
X140938Y-101243D01*
X140961D01*
X140977D01*
X140981D01*
X141120Y-101251D01*
D02*
G37*
G36*
X140011Y-105259D02*
X140123Y-105165D01*
X140243Y-105076D01*
X140360Y-104999D01*
X140472Y-104925D01*
X140523Y-104894D01*
X140569Y-104867D01*
X140612Y-104840D01*
X140647Y-104820D01*
X140678Y-104805D01*
X140697Y-104793D01*
X140713Y-104785D01*
X140717Y-104781D01*
X140872Y-104704D01*
X141027Y-104634D01*
X141175Y-104576D01*
X141241Y-104552D01*
X141306Y-104529D01*
X141365Y-104506D01*
X141419Y-104490D01*
X141466Y-104475D01*
X141504Y-104463D01*
X141539Y-104452D01*
X141563Y-104444D01*
X141578Y-104440D01*
X141582D01*
X141741Y-104401D01*
X141819Y-104385D01*
X141888Y-104374D01*
X141955Y-104362D01*
X142020Y-104351D01*
X142075Y-104343D01*
X142129Y-104335D01*
X142176Y-104331D01*
X142218Y-104327D01*
X142257Y-104323D01*
X142288D01*
X142311Y-104320D01*
X142327D01*
X142339D01*
X142342D01*
Y-104657D01*
X142195Y-104669D01*
X142059Y-104688D01*
X141935Y-104708D01*
X141877Y-104719D01*
X141823Y-104731D01*
X141776Y-104739D01*
X141733Y-104750D01*
X141694Y-104758D01*
X141664Y-104766D01*
X141640Y-104773D01*
X141621Y-104777D01*
X141609Y-104781D01*
X141605D01*
X141427Y-104840D01*
X141260Y-104902D01*
X141179Y-104933D01*
X141101Y-104964D01*
X141031Y-104999D01*
X140961Y-105030D01*
X140899Y-105057D01*
X140845Y-105084D01*
X140798Y-105107D01*
X140755Y-105127D01*
X140721Y-105146D01*
X140697Y-105158D01*
X140682Y-105165D01*
X140678Y-105169D01*
X140596Y-105216D01*
X140515Y-105262D01*
X140441Y-105309D01*
X140371Y-105356D01*
X140309Y-105398D01*
X140247Y-105441D01*
X140193Y-105484D01*
X140146Y-105518D01*
X140100Y-105553D01*
X140061Y-105584D01*
X140030Y-105615D01*
X140003Y-105639D01*
X139980Y-105654D01*
X139964Y-105670D01*
X139956Y-105678D01*
X139952Y-105681D01*
X139692D01*
Y-103943D01*
X140011D01*
Y-105259D01*
D02*
G37*
G36*
X141698Y-107063D02*
X142342D01*
Y-107393D01*
X141698D01*
Y-107757D01*
X141396D01*
Y-107393D01*
X139657D01*
Y-107125D01*
X141396Y-105895D01*
X141698D01*
Y-107063D01*
D02*
G37*
G36*
X61499Y-32227D02*
X61561Y-32231D01*
X61624Y-32243D01*
X61678Y-32258D01*
X61732Y-32274D01*
X61783Y-32289D01*
X61825Y-32309D01*
X61864Y-32328D01*
X61903Y-32351D01*
X61934Y-32371D01*
X61961Y-32386D01*
X61984Y-32402D01*
X62000Y-32418D01*
X62011Y-32429D01*
X62019Y-32433D01*
X62023Y-32437D01*
X62062Y-32476D01*
X62097Y-32522D01*
X62124Y-32565D01*
X62151Y-32612D01*
X62171Y-32658D01*
X62190Y-32705D01*
X62217Y-32794D01*
X62233Y-32871D01*
X62236Y-32906D01*
X62240Y-32934D01*
X62244Y-32957D01*
Y-32976D01*
Y-32988D01*
Y-32992D01*
X61926D01*
X61922Y-32906D01*
X61907Y-32833D01*
X61887Y-32767D01*
X61860Y-32716D01*
X61837Y-32674D01*
X61818Y-32642D01*
X61802Y-32627D01*
X61798Y-32619D01*
X61744Y-32573D01*
X61686Y-32542D01*
X61624Y-32518D01*
X61565Y-32499D01*
X61511Y-32491D01*
X61468Y-32487D01*
X61453Y-32483D01*
X61430D01*
X61360Y-32487D01*
X61298Y-32503D01*
X61247Y-32522D01*
X61201Y-32546D01*
X61166Y-32573D01*
X61138Y-32592D01*
X61123Y-32608D01*
X61119Y-32612D01*
X61080Y-32662D01*
X61049Y-32712D01*
X61030Y-32767D01*
X61014Y-32817D01*
X61007Y-32860D01*
X60999Y-32899D01*
Y-32922D01*
Y-32926D01*
Y-32930D01*
X61003Y-32984D01*
X61010Y-33034D01*
X61022Y-33081D01*
X61034Y-33124D01*
X61049Y-33159D01*
X61061Y-33186D01*
X61069Y-33201D01*
X61072Y-33209D01*
X61104Y-33263D01*
X61146Y-33321D01*
X61189Y-33380D01*
X61232Y-33438D01*
X61270Y-33485D01*
X61305Y-33527D01*
X61317Y-33543D01*
X61329Y-33550D01*
X61332Y-33558D01*
X61336Y-33562D01*
X62194Y-34517D01*
Y-34742D01*
X60568D01*
Y-34486D01*
X61814D01*
X61150Y-33764D01*
X61069Y-33671D01*
X60995Y-33582D01*
X60933Y-33496D01*
X60882Y-33415D01*
X60836Y-33337D01*
X60797Y-33267D01*
X60766Y-33197D01*
X60743Y-33139D01*
X60723Y-33081D01*
X60708Y-33034D01*
X60700Y-32992D01*
X60692Y-32957D01*
X60688Y-32930D01*
X60685Y-32906D01*
Y-32895D01*
Y-32891D01*
X60688Y-32836D01*
X60692Y-32782D01*
X60716Y-32689D01*
X60747Y-32604D01*
X60785Y-32534D01*
X60824Y-32480D01*
X60840Y-32456D01*
X60855Y-32441D01*
X60867Y-32425D01*
X60878Y-32414D01*
X60882Y-32410D01*
X60886Y-32406D01*
X60925Y-32375D01*
X60968Y-32344D01*
X61053Y-32301D01*
X61146Y-32266D01*
X61232Y-32247D01*
X61309Y-32231D01*
X61344Y-32227D01*
X61371D01*
X61395Y-32223D01*
X61430D01*
X61499Y-32227D01*
D02*
G37*
G36*
X64793Y-34742D02*
X64495D01*
X63963Y-32934D01*
X63924Y-32743D01*
X63885Y-32934D01*
X63373Y-34742D01*
X63075D01*
X62473Y-32258D01*
X62803D01*
X63187Y-33958D01*
X63241Y-34291D01*
X63311Y-33993D01*
X63788Y-32258D01*
X64064D01*
X64557Y-33993D01*
X64627Y-34288D01*
X64673Y-33962D01*
X65065Y-32258D01*
X65395D01*
X64793Y-34742D01*
D02*
G37*
G36*
X66582Y-32227D02*
X66644Y-32231D01*
X66764Y-32254D01*
X66819Y-32270D01*
X66869Y-32286D01*
X66916Y-32301D01*
X66955Y-32320D01*
X66993Y-32340D01*
X67028Y-32355D01*
X67055Y-32371D01*
X67079Y-32386D01*
X67098Y-32398D01*
X67110Y-32410D01*
X67118Y-32414D01*
X67121Y-32418D01*
X67164Y-32452D01*
X67199Y-32491D01*
X67230Y-32534D01*
X67257Y-32573D01*
X67277Y-32615D01*
X67296Y-32654D01*
X67323Y-32732D01*
X67343Y-32798D01*
X67347Y-32829D01*
X67350Y-32852D01*
X67354Y-32875D01*
Y-32891D01*
Y-32899D01*
Y-32903D01*
X67350Y-32949D01*
X67347Y-32996D01*
X67323Y-33081D01*
X67292Y-33155D01*
X67257Y-33221D01*
X67222Y-33271D01*
X67195Y-33310D01*
X67180Y-33321D01*
X67172Y-33333D01*
X67168Y-33337D01*
X67164Y-33341D01*
X67125Y-33372D01*
X67083Y-33403D01*
X66986Y-33461D01*
X66885Y-33512D01*
X66784Y-33554D01*
X66737Y-33574D01*
X66695Y-33589D01*
X66656Y-33601D01*
X66621Y-33612D01*
X66590Y-33624D01*
X66571Y-33632D01*
X66555Y-33636D01*
X66551D01*
X66489Y-33655D01*
X66435Y-33671D01*
X66384Y-33690D01*
X66338Y-33706D01*
X66295Y-33725D01*
X66256Y-33741D01*
X66221Y-33756D01*
X66190Y-33772D01*
X66167Y-33783D01*
X66144Y-33795D01*
X66109Y-33818D01*
X66093Y-33830D01*
X66085Y-33834D01*
X66043Y-33876D01*
X66012Y-33919D01*
X65988Y-33966D01*
X65973Y-34012D01*
X65965Y-34055D01*
X65957Y-34086D01*
Y-34109D01*
Y-34113D01*
Y-34117D01*
X65965Y-34183D01*
X65981Y-34237D01*
X66000Y-34288D01*
X66027Y-34330D01*
X66054Y-34361D01*
X66074Y-34385D01*
X66089Y-34400D01*
X66097Y-34404D01*
X66151Y-34439D01*
X66217Y-34466D01*
X66283Y-34482D01*
X66346Y-34497D01*
X66404Y-34505D01*
X66450Y-34509D01*
X66493D01*
X66594Y-34505D01*
X66679Y-34489D01*
X66757Y-34470D01*
X66819Y-34443D01*
X66873Y-34420D01*
X66908Y-34400D01*
X66931Y-34385D01*
X66935Y-34381D01*
X66939D01*
X66993Y-34326D01*
X67032Y-34268D01*
X67063Y-34210D01*
X67083Y-34152D01*
X67094Y-34101D01*
X67098Y-34063D01*
X67102Y-34047D01*
Y-34035D01*
Y-34028D01*
Y-34024D01*
X67432D01*
X67428Y-34101D01*
X67413Y-34175D01*
X67393Y-34241D01*
X67370Y-34299D01*
X67350Y-34346D01*
X67331Y-34381D01*
X67316Y-34404D01*
X67312Y-34408D01*
Y-34412D01*
X67261Y-34474D01*
X67207Y-34524D01*
X67153Y-34571D01*
X67094Y-34610D01*
X67048Y-34641D01*
X67005Y-34660D01*
X66989Y-34668D01*
X66978Y-34676D01*
X66974Y-34679D01*
X66970D01*
X66885Y-34711D01*
X66803Y-34734D01*
X66722Y-34753D01*
X66648Y-34765D01*
X66586Y-34773D01*
X66559D01*
X66536Y-34776D01*
X66493D01*
X66423Y-34773D01*
X66353Y-34769D01*
X66291Y-34761D01*
X66229Y-34749D01*
X66175Y-34734D01*
X66120Y-34718D01*
X66074Y-34703D01*
X66031Y-34687D01*
X65992Y-34672D01*
X65961Y-34656D01*
X65930Y-34641D01*
X65907Y-34625D01*
X65888Y-34614D01*
X65876Y-34606D01*
X65868Y-34598D01*
X65864D01*
X65822Y-34563D01*
X65787Y-34524D01*
X65756Y-34486D01*
X65728Y-34447D01*
X65705Y-34404D01*
X65686Y-34365D01*
X65659Y-34288D01*
X65639Y-34218D01*
X65635Y-34187D01*
X65632Y-34163D01*
X65628Y-34140D01*
Y-34125D01*
Y-34117D01*
Y-34113D01*
X65632Y-34043D01*
X65639Y-33981D01*
X65655Y-33927D01*
X65670Y-33876D01*
X65686Y-33838D01*
X65701Y-33806D01*
X65709Y-33791D01*
X65713Y-33783D01*
X65748Y-33733D01*
X65791Y-33686D01*
X65833Y-33644D01*
X65876Y-33609D01*
X65915Y-33578D01*
X65946Y-33558D01*
X65965Y-33543D01*
X65969Y-33539D01*
X65973D01*
X66043Y-33500D01*
X66120Y-33465D01*
X66202Y-33434D01*
X66280Y-33403D01*
X66349Y-33380D01*
X66380Y-33372D01*
X66408Y-33364D01*
X66427Y-33356D01*
X66443Y-33353D01*
X66454Y-33349D01*
X66458D01*
X66512Y-33333D01*
X66567Y-33314D01*
X66613Y-33298D01*
X66656Y-33279D01*
X66730Y-33248D01*
X66792Y-33217D01*
X66838Y-33193D01*
X66869Y-33174D01*
X66889Y-33159D01*
X66896Y-33155D01*
X66939Y-33112D01*
X66970Y-33069D01*
X66993Y-33027D01*
X67009Y-32988D01*
X67017Y-32953D01*
X67021Y-32922D01*
X67024Y-32906D01*
Y-32899D01*
X67017Y-32833D01*
X67001Y-32771D01*
X66982Y-32720D01*
X66955Y-32677D01*
X66931Y-32642D01*
X66908Y-32619D01*
X66892Y-32604D01*
X66889Y-32600D01*
X66834Y-32565D01*
X66772Y-32538D01*
X66710Y-32518D01*
X66648Y-32503D01*
X66594Y-32495D01*
X66551Y-32491D01*
X66512D01*
X66419Y-32495D01*
X66338Y-32511D01*
X66268Y-32534D01*
X66210Y-32557D01*
X66163Y-32580D01*
X66132Y-32604D01*
X66113Y-32619D01*
X66105Y-32623D01*
X66058Y-32674D01*
X66023Y-32732D01*
X65996Y-32790D01*
X65981Y-32848D01*
X65969Y-32899D01*
X65965Y-32937D01*
X65961Y-32953D01*
Y-32965D01*
Y-32972D01*
Y-32976D01*
X65635D01*
X65639Y-32903D01*
X65651Y-32829D01*
X65670Y-32767D01*
X65690Y-32708D01*
X65709Y-32662D01*
X65728Y-32627D01*
X65740Y-32604D01*
X65744Y-32596D01*
X65787Y-32534D01*
X65837Y-32480D01*
X65891Y-32433D01*
X65938Y-32394D01*
X65985Y-32363D01*
X66019Y-32344D01*
X66047Y-32328D01*
X66051Y-32324D01*
X66054D01*
X66132Y-32289D01*
X66210Y-32266D01*
X66287Y-32247D01*
X66357Y-32235D01*
X66419Y-32227D01*
X66446D01*
X66470Y-32223D01*
X66512D01*
X66582Y-32227D01*
D02*
G37*
G36*
X116470Y-1843D02*
Y-2130D01*
X115834Y-1897D01*
Y-4000D01*
X115515D01*
Y-1505D01*
X115566D01*
X116470Y-1843D01*
D02*
G37*
G36*
X120878Y-3212D02*
X120874Y-3282D01*
X120866Y-3348D01*
X120854Y-3410D01*
X120839Y-3468D01*
X120819Y-3523D01*
X120800Y-3573D01*
X120777Y-3620D01*
X120754Y-3659D01*
X120730Y-3694D01*
X120711Y-3728D01*
X120687Y-3756D01*
X120672Y-3779D01*
X120657Y-3794D01*
X120645Y-3806D01*
X120637Y-3814D01*
X120633Y-3818D01*
X120587Y-3856D01*
X120536Y-3887D01*
X120482Y-3918D01*
X120428Y-3942D01*
X120319Y-3981D01*
X120214Y-4008D01*
X120168Y-4016D01*
X120125Y-4023D01*
X120082Y-4027D01*
X120047Y-4031D01*
X120020Y-4035D01*
X119981D01*
X119896Y-4031D01*
X119826Y-4023D01*
X119764Y-4012D01*
X119702Y-3996D01*
X119644Y-3981D01*
X119593Y-3961D01*
X119543Y-3942D01*
X119496Y-3918D01*
X119458Y-3895D01*
X119423Y-3876D01*
X119392Y-3853D01*
X119364Y-3833D01*
X119341Y-3818D01*
X119326Y-3802D01*
X119314Y-3791D01*
X119306Y-3787D01*
X119302Y-3783D01*
X119264Y-3740D01*
X119229Y-3694D01*
X119202Y-3647D01*
X119174Y-3596D01*
X119151Y-3550D01*
X119135Y-3503D01*
X119108Y-3410D01*
X119101Y-3368D01*
X119093Y-3333D01*
X119089Y-3298D01*
X119085Y-3267D01*
X119081Y-3243D01*
Y-3224D01*
Y-3212D01*
Y-3209D01*
Y-1517D01*
X119407D01*
Y-3205D01*
X119415Y-3298D01*
X119430Y-3383D01*
X119454Y-3453D01*
X119481Y-3511D01*
X119508Y-3558D01*
X119531Y-3593D01*
X119547Y-3612D01*
X119555Y-3620D01*
X119617Y-3670D01*
X119683Y-3705D01*
X119752Y-3732D01*
X119822Y-3748D01*
X119884Y-3759D01*
X119912Y-3763D01*
X119935D01*
X119954Y-3767D01*
X119981D01*
X120078Y-3759D01*
X120164Y-3744D01*
X120237Y-3721D01*
X120296Y-3694D01*
X120342Y-3666D01*
X120377Y-3643D01*
X120396Y-3627D01*
X120404Y-3620D01*
X120455Y-3558D01*
X120490Y-3492D01*
X120517Y-3422D01*
X120532Y-3356D01*
X120544Y-3294D01*
X120548Y-3267D01*
Y-3243D01*
X120552Y-3228D01*
Y-3212D01*
Y-3205D01*
Y-3201D01*
Y-1517D01*
X120878D01*
Y-3212D01*
D02*
G37*
G36*
X123000Y-4000D02*
X122139D01*
X122065Y-3996D01*
X121999Y-3992D01*
X121937Y-3981D01*
X121875Y-3969D01*
X121820Y-3957D01*
X121770Y-3938D01*
X121727Y-3922D01*
X121685Y-3903D01*
X121650Y-3887D01*
X121619Y-3868D01*
X121592Y-3853D01*
X121568Y-3841D01*
X121553Y-3825D01*
X121541Y-3818D01*
X121533Y-3814D01*
X121529Y-3810D01*
X121491Y-3771D01*
X121456Y-3732D01*
X121429Y-3690D01*
X121405Y-3647D01*
X121367Y-3562D01*
X121339Y-3476D01*
X121324Y-3402D01*
X121320Y-3368D01*
X121316Y-3340D01*
X121312Y-3317D01*
Y-3302D01*
Y-3290D01*
Y-3286D01*
X121316Y-3209D01*
X121332Y-3135D01*
X121347Y-3073D01*
X121370Y-3018D01*
X121390Y-2976D01*
X121409Y-2941D01*
X121425Y-2921D01*
X121429Y-2914D01*
X121475Y-2859D01*
X121526Y-2813D01*
X121580Y-2774D01*
X121630Y-2747D01*
X121677Y-2723D01*
X121712Y-2708D01*
X121727Y-2704D01*
X121739Y-2700D01*
X121743Y-2696D01*
X121747D01*
X121685Y-2665D01*
X121634Y-2634D01*
X121588Y-2599D01*
X121549Y-2564D01*
X121518Y-2537D01*
X121498Y-2514D01*
X121483Y-2495D01*
X121479Y-2491D01*
X121444Y-2436D01*
X121421Y-2386D01*
X121401Y-2332D01*
X121390Y-2285D01*
X121382Y-2242D01*
X121378Y-2211D01*
Y-2188D01*
Y-2180D01*
X121382Y-2122D01*
X121386Y-2064D01*
X121409Y-1967D01*
X121444Y-1881D01*
X121479Y-1812D01*
X121518Y-1757D01*
X121553Y-1719D01*
X121564Y-1703D01*
X121576Y-1695D01*
X121580Y-1688D01*
X121584D01*
X121623Y-1657D01*
X121669Y-1629D01*
X121762Y-1591D01*
X121863Y-1560D01*
X121960Y-1536D01*
X122007Y-1532D01*
X122049Y-1525D01*
X122088Y-1521D01*
X122123D01*
X122150Y-1517D01*
X123000D01*
Y-4000D01*
D02*
G37*
G36*
X118682Y-1784D02*
X117343D01*
X118705Y-3756D01*
Y-4000D01*
X116897D01*
Y-3732D01*
X118317D01*
X116951Y-1757D01*
Y-1517D01*
X118682D01*
Y-1784D01*
D02*
G37*
G36*
X378756Y-43437D02*
Y-43724D01*
X378119Y-43492D01*
Y-45594D01*
X377801D01*
Y-43100D01*
X377852D01*
X378756Y-43437D01*
D02*
G37*
G36*
X382399Y-43084D02*
X382500Y-43100D01*
X382589Y-43123D01*
X382663Y-43146D01*
X382698Y-43162D01*
X382729Y-43173D01*
X382752Y-43185D01*
X382775Y-43197D01*
X382791Y-43208D01*
X382802Y-43212D01*
X382810Y-43220D01*
X382814D01*
X382892Y-43278D01*
X382962Y-43340D01*
X383024Y-43410D01*
X383074Y-43472D01*
X383113Y-43534D01*
X383128Y-43558D01*
X383140Y-43581D01*
X383152Y-43596D01*
X383155Y-43612D01*
X383163Y-43620D01*
Y-43624D01*
X383206Y-43724D01*
X383233Y-43829D01*
X383256Y-43934D01*
X383272Y-44027D01*
X383276Y-44070D01*
X383280Y-44108D01*
X383283Y-44143D01*
Y-44174D01*
X383287Y-44198D01*
Y-44217D01*
Y-44229D01*
Y-44233D01*
Y-44469D01*
X383283Y-44566D01*
X383276Y-44659D01*
X383264Y-44745D01*
X383245Y-44826D01*
X383225Y-44900D01*
X383202Y-44970D01*
X383179Y-45036D01*
X383155Y-45090D01*
X383132Y-45144D01*
X383105Y-45187D01*
X383086Y-45226D01*
X383066Y-45257D01*
X383047Y-45284D01*
X383035Y-45300D01*
X383028Y-45311D01*
X383024Y-45315D01*
X382973Y-45369D01*
X382919Y-45420D01*
X382861Y-45463D01*
X382802Y-45498D01*
X382744Y-45529D01*
X382682Y-45552D01*
X382628Y-45575D01*
X382570Y-45591D01*
X382519Y-45602D01*
X382473Y-45614D01*
X382426Y-45618D01*
X382391Y-45625D01*
X382360D01*
X382337Y-45629D01*
X382317D01*
X382244Y-45625D01*
X382174Y-45622D01*
X382108Y-45610D01*
X382046Y-45594D01*
X381988Y-45579D01*
X381933Y-45564D01*
X381887Y-45544D01*
X381840Y-45521D01*
X381801Y-45501D01*
X381767Y-45482D01*
X381739Y-45466D01*
X381712Y-45451D01*
X381693Y-45435D01*
X381681Y-45424D01*
X381673Y-45420D01*
X381669Y-45416D01*
X381627Y-45373D01*
X381584Y-45327D01*
X381549Y-45280D01*
X381518Y-45230D01*
X381468Y-45129D01*
X381429Y-45032D01*
X381417Y-44989D01*
X381406Y-44947D01*
X381394Y-44908D01*
X381390Y-44877D01*
X381382Y-44850D01*
Y-44826D01*
X381379Y-44815D01*
Y-44811D01*
X381704D01*
X381716Y-44865D01*
X381728Y-44916D01*
X381743Y-44966D01*
X381755Y-45009D01*
X381774Y-45047D01*
X381790Y-45082D01*
X381821Y-45140D01*
X381852Y-45187D01*
X381879Y-45218D01*
X381894Y-45234D01*
X381902Y-45241D01*
X381961Y-45280D01*
X382026Y-45311D01*
X382096Y-45331D01*
X382162Y-45346D01*
X382224Y-45354D01*
X382252Y-45358D01*
X382271D01*
X382290Y-45362D01*
X382317D01*
X382372Y-45358D01*
X382426Y-45350D01*
X382473Y-45338D01*
X382519Y-45323D01*
X382601Y-45288D01*
X382667Y-45241D01*
X382721Y-45199D01*
X382760Y-45160D01*
X382771Y-45148D01*
X382783Y-45137D01*
X382787Y-45129D01*
X382791Y-45125D01*
X382822Y-45078D01*
X382845Y-45028D01*
X382888Y-44923D01*
X382915Y-44815D01*
X382938Y-44714D01*
X382942Y-44663D01*
X382950Y-44621D01*
X382954Y-44582D01*
Y-44547D01*
X382958Y-44520D01*
Y-44500D01*
Y-44485D01*
Y-44481D01*
Y-44240D01*
X382954Y-44163D01*
X382950Y-44089D01*
X382942Y-44019D01*
X382930Y-43953D01*
X382919Y-43895D01*
X382903Y-43841D01*
X382888Y-43790D01*
X382868Y-43748D01*
X382853Y-43709D01*
X382837Y-43674D01*
X382822Y-43643D01*
X382810Y-43620D01*
X382799Y-43600D01*
X382791Y-43589D01*
X382783Y-43581D01*
Y-43577D01*
X382748Y-43534D01*
X382709Y-43499D01*
X382670Y-43468D01*
X382632Y-43441D01*
X382589Y-43418D01*
X382550Y-43402D01*
X382469Y-43371D01*
X382399Y-43356D01*
X382368Y-43352D01*
X382341Y-43348D01*
X382321Y-43344D01*
X382290D01*
X382201Y-43348D01*
X382119Y-43363D01*
X382050Y-43387D01*
X381995Y-43410D01*
X381949Y-43437D01*
X381918Y-43457D01*
X381898Y-43472D01*
X381891Y-43480D01*
X381863Y-43507D01*
X381840Y-43534D01*
X381801Y-43604D01*
X381770Y-43674D01*
X381743Y-43744D01*
X381724Y-43810D01*
X381720Y-43837D01*
X381712Y-43860D01*
X381708Y-43883D01*
Y-43899D01*
X381704Y-43907D01*
Y-43911D01*
X381379D01*
X381386Y-43841D01*
X381402Y-43771D01*
X381417Y-43709D01*
X381437Y-43651D01*
X381460Y-43596D01*
X381483Y-43546D01*
X381506Y-43499D01*
X381534Y-43457D01*
X381557Y-43422D01*
X381580Y-43387D01*
X381600Y-43360D01*
X381619Y-43336D01*
X381634Y-43321D01*
X381646Y-43309D01*
X381654Y-43301D01*
X381658Y-43297D01*
X381704Y-43259D01*
X381751Y-43224D01*
X381805Y-43197D01*
X381856Y-43170D01*
X381910Y-43146D01*
X381961Y-43131D01*
X382061Y-43104D01*
X382108Y-43096D01*
X382151Y-43088D01*
X382189Y-43084D01*
X382224Y-43080D01*
X382252Y-43076D01*
X382290D01*
X382399Y-43084D01*
D02*
G37*
G36*
X391063Y-45594D02*
X390733D01*
Y-44590D01*
X390151D01*
X389612Y-45594D01*
X389259D01*
Y-45575D01*
X389845Y-44520D01*
X389763Y-44485D01*
X389693Y-44446D01*
X389635Y-44403D01*
X389585Y-44365D01*
X389546Y-44326D01*
X389519Y-44295D01*
X389499Y-44275D01*
X389495Y-44267D01*
X389453Y-44202D01*
X389422Y-44132D01*
X389398Y-44062D01*
X389383Y-44000D01*
X389375Y-43942D01*
X389367Y-43899D01*
Y-43883D01*
Y-43872D01*
Y-43864D01*
Y-43860D01*
X389371Y-43794D01*
X389379Y-43732D01*
X389387Y-43674D01*
X389402Y-43620D01*
X389422Y-43569D01*
X389441Y-43523D01*
X389460Y-43484D01*
X389480Y-43445D01*
X389503Y-43414D01*
X389523Y-43383D01*
X389542Y-43360D01*
X389561Y-43340D01*
X389577Y-43325D01*
X389585Y-43313D01*
X389592Y-43309D01*
X389596Y-43305D01*
X389639Y-43270D01*
X389689Y-43239D01*
X389740Y-43216D01*
X389790Y-43193D01*
X389899Y-43158D01*
X390004Y-43135D01*
X390050Y-43127D01*
X390097Y-43123D01*
X390136Y-43115D01*
X390171D01*
X390202Y-43111D01*
X391063D01*
Y-45594D01*
D02*
G37*
G36*
X388910D02*
X388584D01*
Y-44496D01*
X387540D01*
Y-44229D01*
X388584D01*
Y-43379D01*
X387373D01*
Y-43111D01*
X388910D01*
Y-45594D01*
D02*
G37*
G36*
X385406D02*
X385080D01*
Y-44621D01*
X384494D01*
X384417Y-44617D01*
X384343Y-44613D01*
X384277Y-44601D01*
X384215Y-44590D01*
X384156Y-44574D01*
X384102Y-44559D01*
X384056Y-44543D01*
X384013Y-44524D01*
X383974Y-44504D01*
X383939Y-44489D01*
X383912Y-44473D01*
X383889Y-44458D01*
X383869Y-44446D01*
X383858Y-44434D01*
X383850Y-44431D01*
X383846Y-44427D01*
X383807Y-44388D01*
X383772Y-44345D01*
X383741Y-44302D01*
X383714Y-44260D01*
X383695Y-44213D01*
X383675Y-44167D01*
X383648Y-44077D01*
X383633Y-43996D01*
X383629Y-43961D01*
X383625Y-43930D01*
X383621Y-43907D01*
Y-43887D01*
Y-43876D01*
Y-43872D01*
X383625Y-43810D01*
X383633Y-43751D01*
X383644Y-43693D01*
X383656Y-43643D01*
X383695Y-43546D01*
X383714Y-43507D01*
X383737Y-43468D01*
X383761Y-43433D01*
X383780Y-43406D01*
X383800Y-43379D01*
X383819Y-43360D01*
X383831Y-43344D01*
X383842Y-43329D01*
X383850Y-43325D01*
X383854Y-43321D01*
X383900Y-43282D01*
X383947Y-43251D01*
X383998Y-43224D01*
X384048Y-43200D01*
X384156Y-43162D01*
X384257Y-43139D01*
X384304Y-43127D01*
X384350Y-43123D01*
X384389Y-43119D01*
X384424Y-43115D01*
X384451Y-43111D01*
X385406D01*
Y-45594D01*
D02*
G37*
G36*
X380928D02*
X380067D01*
X379993Y-45591D01*
X379927Y-45587D01*
X379865Y-45575D01*
X379803Y-45564D01*
X379749Y-45552D01*
X379698Y-45532D01*
X379656Y-45517D01*
X379613Y-45498D01*
X379578Y-45482D01*
X379547Y-45463D01*
X379520Y-45447D01*
X379497Y-45435D01*
X379481Y-45420D01*
X379469Y-45412D01*
X379462Y-45408D01*
X379458Y-45404D01*
X379419Y-45366D01*
X379384Y-45327D01*
X379357Y-45284D01*
X379334Y-45241D01*
X379295Y-45156D01*
X379268Y-45071D01*
X379252Y-44997D01*
X379248Y-44962D01*
X379244Y-44935D01*
X379241Y-44912D01*
Y-44896D01*
Y-44884D01*
Y-44881D01*
X379244Y-44803D01*
X379260Y-44729D01*
X379275Y-44667D01*
X379299Y-44613D01*
X379318Y-44570D01*
X379338Y-44535D01*
X379353Y-44516D01*
X379357Y-44508D01*
X379403Y-44454D01*
X379454Y-44407D01*
X379508Y-44368D01*
X379559Y-44341D01*
X379605Y-44318D01*
X379640Y-44302D01*
X379656Y-44299D01*
X379667Y-44295D01*
X379671Y-44291D01*
X379675D01*
X379613Y-44260D01*
X379563Y-44229D01*
X379516Y-44194D01*
X379477Y-44159D01*
X379446Y-44132D01*
X379427Y-44108D01*
X379411Y-44089D01*
X379407Y-44085D01*
X379373Y-44031D01*
X379349Y-43980D01*
X379330Y-43926D01*
X379318Y-43880D01*
X379310Y-43837D01*
X379307Y-43806D01*
Y-43782D01*
Y-43775D01*
X379310Y-43717D01*
X379314Y-43658D01*
X379338Y-43561D01*
X379373Y-43476D01*
X379407Y-43406D01*
X379446Y-43352D01*
X379481Y-43313D01*
X379493Y-43297D01*
X379504Y-43290D01*
X379508Y-43282D01*
X379512D01*
X379551Y-43251D01*
X379597Y-43224D01*
X379691Y-43185D01*
X379791Y-43154D01*
X379889Y-43131D01*
X379935Y-43127D01*
X379978Y-43119D01*
X380017Y-43115D01*
X380051D01*
X380079Y-43111D01*
X380928D01*
Y-45594D01*
D02*
G37*
G36*
X387264Y-45851D02*
X385701D01*
Y-45594D01*
X387264D01*
Y-45851D01*
D02*
G37*
%LPC*%
G36*
X458842Y-113746D02*
Y-114960D01*
X459614D01*
X458881Y-113812D01*
X458842Y-113746D01*
D02*
G37*
G36*
X47340Y-47482D02*
X46719D01*
X46669Y-47485D01*
X46619D01*
X46572Y-47489D01*
X46494Y-47501D01*
X46432Y-47509D01*
X46382Y-47520D01*
X46347Y-47532D01*
X46327Y-47536D01*
X46320Y-47540D01*
X46250Y-47575D01*
X46184Y-47617D01*
X46126Y-47668D01*
X46075Y-47718D01*
X46036Y-47765D01*
X46005Y-47804D01*
X45998Y-47819D01*
X45990Y-47831D01*
X45982Y-47839D01*
Y-47842D01*
X45959Y-47885D01*
X45936Y-47936D01*
X45901Y-48036D01*
X45877Y-48145D01*
X45858Y-48250D01*
X45854Y-48296D01*
X45850Y-48343D01*
X45846Y-48382D01*
Y-48417D01*
X45842Y-48448D01*
Y-48467D01*
Y-48482D01*
Y-48486D01*
X45846Y-48595D01*
X45854Y-48696D01*
X45866Y-48785D01*
X45877Y-48863D01*
X45885Y-48894D01*
X45893Y-48921D01*
X45901Y-48948D01*
X45905Y-48967D01*
X45908Y-48983D01*
X45912Y-48995D01*
X45916Y-49003D01*
Y-49006D01*
X45943Y-49080D01*
X45974Y-49146D01*
X46009Y-49204D01*
X46040Y-49255D01*
X46068Y-49294D01*
X46091Y-49321D01*
X46106Y-49336D01*
X46110Y-49344D01*
X46149Y-49375D01*
X46188Y-49402D01*
X46227Y-49425D01*
X46265Y-49449D01*
X46300Y-49464D01*
X46327Y-49476D01*
X46347Y-49480D01*
X46355Y-49484D01*
X46413Y-49499D01*
X46483Y-49511D01*
X46553Y-49518D01*
X46619Y-49522D01*
X46677Y-49526D01*
X46704Y-49530D01*
X47340D01*
Y-47482D01*
D02*
G37*
G36*
X22354Y-49439D02*
X21508D01*
X21403Y-49443D01*
X21314Y-49458D01*
X21236Y-49478D01*
X21178Y-49501D01*
X21128Y-49524D01*
X21097Y-49544D01*
X21077Y-49559D01*
X21069Y-49563D01*
X21023Y-49613D01*
X20988Y-49664D01*
X20965Y-49718D01*
X20945Y-49765D01*
X20937Y-49811D01*
X20934Y-49846D01*
X20930Y-49869D01*
Y-49873D01*
Y-49877D01*
X20934Y-49924D01*
X20941Y-49970D01*
X20953Y-50009D01*
X20965Y-50044D01*
X20980Y-50075D01*
X20992Y-50098D01*
X21000Y-50114D01*
X21003Y-50118D01*
X21031Y-50157D01*
X21066Y-50191D01*
X21101Y-50219D01*
X21135Y-50242D01*
X21167Y-50257D01*
X21190Y-50269D01*
X21205Y-50277D01*
X21213Y-50281D01*
X21267Y-50296D01*
X21329Y-50308D01*
X21392Y-50316D01*
X21454Y-50320D01*
X21508Y-50323D01*
X21554Y-50327D01*
X22354D01*
Y-49439D01*
D02*
G37*
G36*
X17205Y-49400D02*
X17174D01*
X17108Y-49404D01*
X17046Y-49419D01*
X16996Y-49439D01*
X16949Y-49462D01*
X16914Y-49485D01*
X16887Y-49505D01*
X16867Y-49520D01*
X16863Y-49524D01*
X16821Y-49575D01*
X16790Y-49625D01*
X16767Y-49676D01*
X16751Y-49722D01*
X16743Y-49765D01*
X16736Y-49800D01*
Y-49823D01*
Y-49827D01*
Y-49831D01*
X16739Y-49893D01*
X16755Y-49951D01*
X16774Y-50001D01*
X16798Y-50044D01*
X16821Y-50079D01*
X16840Y-50102D01*
X16856Y-50122D01*
X16860Y-50126D01*
X16906Y-50164D01*
X16961Y-50195D01*
X17011Y-50215D01*
X17061Y-50230D01*
X17108Y-50238D01*
X17143Y-50242D01*
X17166Y-50246D01*
X17174D01*
X17244Y-50242D01*
X17306Y-50226D01*
X17360Y-50207D01*
X17407Y-50184D01*
X17442Y-50164D01*
X17469Y-50145D01*
X17488Y-50129D01*
X17492Y-50126D01*
X17531Y-50079D01*
X17562Y-50025D01*
X17581Y-49974D01*
X17597Y-49924D01*
X17605Y-49881D01*
X17608Y-49846D01*
X17612Y-49823D01*
Y-49819D01*
Y-49815D01*
X17608Y-49753D01*
X17593Y-49699D01*
X17574Y-49648D01*
X17550Y-49606D01*
X17531Y-49571D01*
X17512Y-49544D01*
X17496Y-49528D01*
X17492Y-49524D01*
X17442Y-49481D01*
X17391Y-49450D01*
X17337Y-49431D01*
X17287Y-49415D01*
X17240Y-49408D01*
X17205Y-49400D01*
D02*
G37*
G36*
X17209Y-50514D02*
X17186D01*
X17100Y-50521D01*
X17023Y-50537D01*
X16953Y-50564D01*
X16895Y-50591D01*
X16848Y-50622D01*
X16813Y-50649D01*
X16794Y-50665D01*
X16786Y-50673D01*
X16732Y-50735D01*
X16693Y-50801D01*
X16666Y-50867D01*
X16646Y-50925D01*
X16635Y-50983D01*
X16631Y-51026D01*
X16627Y-51041D01*
Y-51053D01*
Y-51061D01*
Y-51064D01*
X16635Y-51146D01*
X16650Y-51224D01*
X16677Y-51290D01*
X16704Y-51344D01*
X16732Y-51387D01*
X16759Y-51421D01*
X16774Y-51441D01*
X16782Y-51449D01*
X16844Y-51499D01*
X16906Y-51538D01*
X16972Y-51561D01*
X17034Y-51581D01*
X17089Y-51592D01*
X17135Y-51596D01*
X17151Y-51600D01*
X17174D01*
X17228Y-51596D01*
X17283Y-51588D01*
X17333Y-51577D01*
X17376Y-51565D01*
X17411Y-51553D01*
X17438Y-51542D01*
X17453Y-51534D01*
X17461Y-51530D01*
X17508Y-51499D01*
X17546Y-51468D01*
X17581Y-51433D01*
X17608Y-51398D01*
X17632Y-51371D01*
X17647Y-51348D01*
X17655Y-51328D01*
X17659Y-51324D01*
X17678Y-51274D01*
X17694Y-51227D01*
X17706Y-51181D01*
X17713Y-51138D01*
X17717Y-51103D01*
X17721Y-51076D01*
Y-51061D01*
Y-51053D01*
X17713Y-50971D01*
X17698Y-50898D01*
X17674Y-50832D01*
X17643Y-50774D01*
X17616Y-50731D01*
X17593Y-50696D01*
X17578Y-50677D01*
X17570Y-50669D01*
X17512Y-50618D01*
X17446Y-50580D01*
X17383Y-50552D01*
X17321Y-50533D01*
X17267Y-50521D01*
X17224Y-50517D01*
X17209Y-50514D01*
D02*
G37*
G36*
X41851Y-8148D02*
X40962D01*
Y-8994D01*
X40966Y-9099D01*
X40982Y-9188D01*
X41001Y-9266D01*
X41024Y-9324D01*
X41047Y-9374D01*
X41067Y-9405D01*
X41082Y-9425D01*
X41086Y-9432D01*
X41137Y-9479D01*
X41187Y-9514D01*
X41241Y-9537D01*
X41288Y-9557D01*
X41335Y-9564D01*
X41370Y-9568D01*
X41393Y-9572D01*
X41397D01*
X41401D01*
X41447Y-9568D01*
X41494Y-9561D01*
X41532Y-9549D01*
X41567Y-9537D01*
X41598Y-9522D01*
X41622Y-9510D01*
X41637Y-9502D01*
X41641Y-9498D01*
X41680Y-9471D01*
X41715Y-9436D01*
X41742Y-9401D01*
X41765Y-9366D01*
X41781Y-9336D01*
X41792Y-9312D01*
X41800Y-9297D01*
X41804Y-9289D01*
X41820Y-9235D01*
X41831Y-9172D01*
X41839Y-9110D01*
X41843Y-9048D01*
X41847Y-8994D01*
X41851Y-8947D01*
Y-8148D01*
D02*
G37*
G36*
X76676Y-58374D02*
X76653D01*
X76571Y-58382D01*
X76497Y-58401D01*
X76435Y-58424D01*
X76381Y-58455D01*
X76338Y-58486D01*
X76307Y-58510D01*
X76288Y-58529D01*
X76280Y-58537D01*
X76230Y-58603D01*
X76191Y-58673D01*
X76164Y-58746D01*
X76148Y-58816D01*
X76137Y-58878D01*
X76133Y-58906D01*
Y-58929D01*
X76129Y-58948D01*
Y-58964D01*
Y-58971D01*
Y-58975D01*
X76137Y-59080D01*
X76152Y-59169D01*
X76175Y-59247D01*
X76202Y-59313D01*
X76234Y-59363D01*
X76257Y-59402D01*
X76272Y-59425D01*
X76280Y-59429D01*
Y-59433D01*
X76307Y-59464D01*
X76338Y-59487D01*
X76400Y-59530D01*
X76463Y-59557D01*
X76517Y-59581D01*
X76567Y-59592D01*
X76606Y-59596D01*
X76622Y-59600D01*
X76641D01*
X76695Y-59596D01*
X76746Y-59588D01*
X76792Y-59573D01*
X76831Y-59557D01*
X76866Y-59546D01*
X76893Y-59530D01*
X76909Y-59522D01*
X76916Y-59518D01*
X76963Y-59484D01*
X77002Y-59449D01*
X77037Y-59406D01*
X77064Y-59371D01*
X77087Y-59336D01*
X77103Y-59309D01*
X77114Y-59290D01*
X77118Y-59282D01*
X77141Y-59224D01*
X77157Y-59165D01*
X77172Y-59111D01*
X77180Y-59061D01*
X77184Y-59018D01*
X77188Y-58983D01*
Y-58964D01*
Y-58956D01*
X77180Y-58863D01*
X77165Y-58781D01*
X77138Y-58708D01*
X77110Y-58649D01*
X77083Y-58599D01*
X77056Y-58564D01*
X77041Y-58545D01*
X77033Y-58537D01*
X76971Y-58482D01*
X76909Y-58444D01*
X76843Y-58413D01*
X76784Y-58393D01*
X76730Y-58382D01*
X76691Y-58378D01*
X76676Y-58374D01*
D02*
G37*
G36*
X81852Y-57439D02*
X81006D01*
X80901Y-57443D01*
X80812Y-57458D01*
X80734Y-57478D01*
X80676Y-57501D01*
X80626Y-57524D01*
X80595Y-57544D01*
X80575Y-57559D01*
X80568Y-57563D01*
X80521Y-57613D01*
X80486Y-57664D01*
X80463Y-57718D01*
X80443Y-57765D01*
X80436Y-57811D01*
X80432Y-57846D01*
X80428Y-57869D01*
Y-57873D01*
Y-57877D01*
X80432Y-57924D01*
X80440Y-57970D01*
X80451Y-58009D01*
X80463Y-58044D01*
X80478Y-58075D01*
X80490Y-58098D01*
X80498Y-58114D01*
X80502Y-58118D01*
X80529Y-58157D01*
X80564Y-58192D01*
X80599Y-58219D01*
X80633Y-58242D01*
X80664Y-58258D01*
X80688Y-58269D01*
X80703Y-58277D01*
X80711Y-58281D01*
X80765Y-58296D01*
X80827Y-58308D01*
X80890Y-58316D01*
X80952Y-58320D01*
X81006Y-58324D01*
X81053Y-58327D01*
X81852D01*
Y-57439D01*
D02*
G37*
G36*
X62854Y-60982D02*
X62233D01*
X62182Y-60985D01*
X62132D01*
X62085Y-60989D01*
X62008Y-61001D01*
X61946Y-61009D01*
X61895Y-61020D01*
X61861Y-61032D01*
X61841Y-61036D01*
X61833Y-61040D01*
X61764Y-61075D01*
X61698Y-61117D01*
X61639Y-61168D01*
X61589Y-61218D01*
X61550Y-61265D01*
X61519Y-61304D01*
X61511Y-61319D01*
X61503Y-61331D01*
X61496Y-61339D01*
Y-61342D01*
X61472Y-61385D01*
X61449Y-61436D01*
X61414Y-61536D01*
X61391Y-61645D01*
X61372Y-61750D01*
X61368Y-61796D01*
X61364Y-61843D01*
X61360Y-61882D01*
Y-61917D01*
X61356Y-61948D01*
Y-61967D01*
Y-61983D01*
Y-61986D01*
X61360Y-62095D01*
X61368Y-62196D01*
X61379Y-62285D01*
X61391Y-62363D01*
X61399Y-62394D01*
X61406Y-62421D01*
X61414Y-62448D01*
X61418Y-62467D01*
X61422Y-62483D01*
X61426Y-62495D01*
X61430Y-62502D01*
Y-62506D01*
X61457Y-62580D01*
X61488Y-62646D01*
X61523Y-62704D01*
X61554Y-62755D01*
X61581Y-62793D01*
X61604Y-62821D01*
X61620Y-62836D01*
X61624Y-62844D01*
X61663Y-62875D01*
X61701Y-62902D01*
X61740Y-62925D01*
X61779Y-62949D01*
X61814Y-62964D01*
X61841Y-62976D01*
X61861Y-62980D01*
X61868Y-62984D01*
X61926Y-62999D01*
X61996Y-63011D01*
X62066Y-63019D01*
X62132Y-63022D01*
X62190Y-63026D01*
X62217Y-63030D01*
X62854D01*
Y-60982D01*
D02*
G37*
G36*
X82992Y-75175D02*
Y-76378D01*
X83837D01*
X82992Y-75175D01*
D02*
G37*
G36*
X88218Y-5374D02*
X88194D01*
X88113Y-5382D01*
X88039Y-5401D01*
X87977Y-5424D01*
X87923Y-5455D01*
X87880Y-5486D01*
X87849Y-5510D01*
X87830Y-5529D01*
X87822Y-5537D01*
X87771Y-5603D01*
X87733Y-5673D01*
X87705Y-5746D01*
X87690Y-5816D01*
X87678Y-5878D01*
X87674Y-5906D01*
Y-5929D01*
X87671Y-5948D01*
Y-5964D01*
Y-5971D01*
Y-5975D01*
X87678Y-6080D01*
X87694Y-6169D01*
X87717Y-6247D01*
X87744Y-6313D01*
X87775Y-6363D01*
X87799Y-6402D01*
X87814Y-6425D01*
X87822Y-6429D01*
Y-6433D01*
X87849Y-6464D01*
X87880Y-6487D01*
X87942Y-6530D01*
X88004Y-6557D01*
X88059Y-6581D01*
X88109Y-6592D01*
X88148Y-6596D01*
X88163Y-6600D01*
X88183D01*
X88237Y-6596D01*
X88288Y-6588D01*
X88334Y-6573D01*
X88373Y-6557D01*
X88408Y-6546D01*
X88435Y-6530D01*
X88450Y-6522D01*
X88458Y-6519D01*
X88505Y-6484D01*
X88544Y-6449D01*
X88578Y-6406D01*
X88606Y-6371D01*
X88629Y-6336D01*
X88644Y-6309D01*
X88656Y-6290D01*
X88660Y-6282D01*
X88683Y-6224D01*
X88699Y-6165D01*
X88714Y-6111D01*
X88722Y-6061D01*
X88726Y-6018D01*
X88730Y-5983D01*
Y-5964D01*
Y-5956D01*
X88722Y-5863D01*
X88706Y-5781D01*
X88679Y-5708D01*
X88652Y-5649D01*
X88625Y-5599D01*
X88598Y-5564D01*
X88582Y-5545D01*
X88575Y-5537D01*
X88512Y-5483D01*
X88450Y-5444D01*
X88384Y-5413D01*
X88326Y-5393D01*
X88272Y-5382D01*
X88233Y-5378D01*
X88218Y-5374D01*
D02*
G37*
G36*
X91310Y-4458D02*
X90689D01*
X90639Y-4462D01*
X90588D01*
X90542Y-4466D01*
X90464Y-4478D01*
X90402Y-4485D01*
X90352Y-4497D01*
X90317Y-4509D01*
X90297Y-4513D01*
X90290Y-4516D01*
X90220Y-4551D01*
X90154Y-4594D01*
X90096Y-4645D01*
X90045Y-4695D01*
X90006Y-4741D01*
X89975Y-4780D01*
X89968Y-4796D01*
X89960Y-4807D01*
X89952Y-4815D01*
Y-4819D01*
X89929Y-4862D01*
X89906Y-4912D01*
X89871Y-5013D01*
X89847Y-5122D01*
X89828Y-5226D01*
X89824Y-5273D01*
X89820Y-5320D01*
X89816Y-5358D01*
Y-5393D01*
X89812Y-5424D01*
Y-5444D01*
Y-5459D01*
Y-5463D01*
X89816Y-5572D01*
X89824Y-5673D01*
X89836Y-5762D01*
X89847Y-5839D01*
X89855Y-5870D01*
X89863Y-5898D01*
X89871Y-5925D01*
X89874Y-5944D01*
X89878Y-5960D01*
X89882Y-5971D01*
X89886Y-5979D01*
Y-5983D01*
X89913Y-6057D01*
X89944Y-6123D01*
X89979Y-6181D01*
X90010Y-6231D01*
X90037Y-6270D01*
X90061Y-6297D01*
X90076Y-6313D01*
X90080Y-6321D01*
X90119Y-6352D01*
X90158Y-6379D01*
X90197Y-6402D01*
X90235Y-6425D01*
X90270Y-6441D01*
X90297Y-6453D01*
X90317Y-6456D01*
X90324Y-6460D01*
X90383Y-6476D01*
X90452Y-6487D01*
X90522Y-6495D01*
X90588Y-6499D01*
X90646Y-6503D01*
X90674Y-6507D01*
X91310D01*
Y-4458D01*
D02*
G37*
G36*
X247972Y-202345D02*
Y-203548D01*
X248817D01*
X247972Y-202345D01*
D02*
G37*
G36*
X32174Y-70374D02*
X32151D01*
X32069Y-70382D01*
X31995Y-70401D01*
X31933Y-70424D01*
X31879Y-70455D01*
X31836Y-70486D01*
X31805Y-70510D01*
X31786Y-70529D01*
X31778Y-70537D01*
X31728Y-70603D01*
X31689Y-70673D01*
X31662Y-70746D01*
X31646Y-70816D01*
X31635Y-70878D01*
X31631Y-70906D01*
Y-70929D01*
X31627Y-70948D01*
Y-70964D01*
Y-70971D01*
Y-70975D01*
X31635Y-71080D01*
X31650Y-71169D01*
X31673Y-71247D01*
X31701Y-71313D01*
X31732Y-71363D01*
X31755Y-71402D01*
X31770Y-71425D01*
X31778Y-71429D01*
Y-71433D01*
X31805Y-71464D01*
X31836Y-71487D01*
X31898Y-71530D01*
X31960Y-71557D01*
X32015Y-71581D01*
X32065Y-71592D01*
X32104Y-71596D01*
X32120Y-71600D01*
X32139D01*
X32193Y-71596D01*
X32244Y-71588D01*
X32290Y-71573D01*
X32329Y-71557D01*
X32364Y-71546D01*
X32391Y-71530D01*
X32407Y-71522D01*
X32414Y-71518D01*
X32461Y-71484D01*
X32500Y-71449D01*
X32535Y-71406D01*
X32562Y-71371D01*
X32585Y-71336D01*
X32601Y-71309D01*
X32612Y-71290D01*
X32616Y-71282D01*
X32640Y-71224D01*
X32655Y-71165D01*
X32671Y-71111D01*
X32678Y-71061D01*
X32682Y-71018D01*
X32686Y-70983D01*
Y-70964D01*
Y-70956D01*
X32678Y-70863D01*
X32663Y-70781D01*
X32636Y-70708D01*
X32609Y-70649D01*
X32581Y-70599D01*
X32554Y-70564D01*
X32539Y-70545D01*
X32531Y-70537D01*
X32469Y-70482D01*
X32407Y-70444D01*
X32341Y-70413D01*
X32283Y-70393D01*
X32228Y-70382D01*
X32190Y-70378D01*
X32174Y-70374D01*
D02*
G37*
G36*
X37354Y-69458D02*
X36733D01*
X36683Y-69462D01*
X36632D01*
X36586Y-69466D01*
X36508Y-69478D01*
X36446Y-69485D01*
X36395Y-69497D01*
X36360Y-69509D01*
X36341Y-69512D01*
X36333Y-69516D01*
X36263Y-69551D01*
X36198Y-69594D01*
X36139Y-69644D01*
X36089Y-69695D01*
X36050Y-69741D01*
X36019Y-69780D01*
X36011Y-69796D01*
X36004Y-69807D01*
X35996Y-69815D01*
Y-69819D01*
X35972Y-69862D01*
X35949Y-69912D01*
X35914Y-70013D01*
X35891Y-70122D01*
X35872Y-70227D01*
X35868Y-70273D01*
X35864Y-70320D01*
X35860Y-70358D01*
Y-70393D01*
X35856Y-70424D01*
Y-70444D01*
Y-70459D01*
Y-70463D01*
X35860Y-70572D01*
X35868Y-70673D01*
X35879Y-70762D01*
X35891Y-70840D01*
X35899Y-70871D01*
X35906Y-70898D01*
X35914Y-70925D01*
X35918Y-70944D01*
X35922Y-70960D01*
X35926Y-70971D01*
X35930Y-70979D01*
Y-70983D01*
X35957Y-71057D01*
X35988Y-71123D01*
X36023Y-71181D01*
X36054Y-71231D01*
X36081Y-71270D01*
X36104Y-71297D01*
X36120Y-71313D01*
X36124Y-71321D01*
X36163Y-71352D01*
X36201Y-71379D01*
X36240Y-71402D01*
X36279Y-71425D01*
X36314Y-71441D01*
X36341Y-71452D01*
X36360Y-71456D01*
X36368Y-71460D01*
X36426Y-71476D01*
X36496Y-71487D01*
X36566Y-71495D01*
X36632Y-71499D01*
X36690Y-71503D01*
X36717Y-71507D01*
X37354D01*
Y-69458D01*
D02*
G37*
G36*
X8863Y-60458D02*
X8243D01*
X8192Y-60462D01*
X8142D01*
X8095Y-60466D01*
X8018Y-60478D01*
X7955Y-60485D01*
X7905Y-60497D01*
X7870Y-60509D01*
X7851Y-60513D01*
X7843Y-60516D01*
X7773Y-60551D01*
X7707Y-60594D01*
X7649Y-60645D01*
X7599Y-60695D01*
X7560Y-60742D01*
X7529Y-60780D01*
X7521Y-60796D01*
X7513Y-60807D01*
X7505Y-60815D01*
Y-60819D01*
X7482Y-60862D01*
X7459Y-60912D01*
X7424Y-61013D01*
X7401Y-61122D01*
X7381Y-61226D01*
X7377Y-61273D01*
X7373Y-61320D01*
X7370Y-61358D01*
Y-61393D01*
X7366Y-61424D01*
Y-61444D01*
Y-61459D01*
Y-61463D01*
X7370Y-61572D01*
X7377Y-61673D01*
X7389Y-61762D01*
X7401Y-61839D01*
X7408Y-61870D01*
X7416Y-61898D01*
X7424Y-61925D01*
X7428Y-61944D01*
X7432Y-61960D01*
X7436Y-61971D01*
X7440Y-61979D01*
Y-61983D01*
X7467Y-62057D01*
X7498Y-62123D01*
X7533Y-62181D01*
X7564Y-62231D01*
X7591Y-62270D01*
X7614Y-62297D01*
X7630Y-62313D01*
X7633Y-62321D01*
X7672Y-62352D01*
X7711Y-62379D01*
X7750Y-62402D01*
X7789Y-62425D01*
X7824Y-62441D01*
X7851Y-62453D01*
X7870Y-62456D01*
X7878Y-62460D01*
X7936Y-62476D01*
X8006Y-62488D01*
X8076Y-62495D01*
X8142Y-62499D01*
X8200Y-62503D01*
X8227Y-62507D01*
X8863D01*
Y-60458D01*
D02*
G37*
G36*
X126500Y-102099D02*
X126481D01*
X126473D01*
X126380Y-102106D01*
X126299Y-102122D01*
X126225Y-102149D01*
X126167Y-102176D01*
X126116Y-102203D01*
X126082Y-102231D01*
X126062Y-102246D01*
X126054Y-102254D01*
X126000Y-102316D01*
X125961Y-102378D01*
X125930Y-102444D01*
X125911Y-102502D01*
X125899Y-102556D01*
X125895Y-102595D01*
X125891Y-102611D01*
Y-102634D01*
X125899Y-102716D01*
X125918Y-102789D01*
X125942Y-102851D01*
X125973Y-102906D01*
X126004Y-102948D01*
X126027Y-102979D01*
X126047Y-102999D01*
X126054Y-103006D01*
X126120Y-103057D01*
X126190Y-103096D01*
X126264Y-103123D01*
X126334Y-103138D01*
X126396Y-103150D01*
X126423Y-103154D01*
X126446D01*
X126466Y-103158D01*
X126481D01*
X126489D01*
X126493D01*
X126597Y-103150D01*
X126687Y-103135D01*
X126764Y-103111D01*
X126830Y-103084D01*
X126881Y-103053D01*
X126920Y-103030D01*
X126943Y-103014D01*
X126947Y-103006D01*
X126951D01*
X126982Y-102979D01*
X127005Y-102948D01*
X127048Y-102886D01*
X127075Y-102824D01*
X127098Y-102770D01*
X127110Y-102719D01*
X127114Y-102681D01*
X127117Y-102665D01*
Y-102646D01*
X127114Y-102591D01*
X127106Y-102541D01*
X127090Y-102494D01*
X127075Y-102455D01*
X127063Y-102421D01*
X127048Y-102393D01*
X127040Y-102378D01*
X127036Y-102370D01*
X127001Y-102324D01*
X126966Y-102285D01*
X126923Y-102250D01*
X126889Y-102223D01*
X126854Y-102199D01*
X126826Y-102184D01*
X126807Y-102172D01*
X126799Y-102168D01*
X126741Y-102145D01*
X126683Y-102130D01*
X126629Y-102114D01*
X126578Y-102106D01*
X126535Y-102102D01*
X126500Y-102099D01*
D02*
G37*
G36*
X141396Y-106217D02*
X140193Y-107063D01*
X141396D01*
Y-106217D01*
D02*
G37*
G36*
X122674Y-1784D02*
X122189D01*
X122104Y-1788D01*
X122030Y-1800D01*
X121968Y-1816D01*
X121917Y-1831D01*
X121879Y-1850D01*
X121852Y-1866D01*
X121832Y-1878D01*
X121828Y-1881D01*
X121789Y-1920D01*
X121758Y-1967D01*
X121739Y-2017D01*
X121723Y-2064D01*
X121716Y-2107D01*
X121708Y-2142D01*
Y-2169D01*
Y-2173D01*
Y-2176D01*
X121712Y-2242D01*
X121727Y-2301D01*
X121747Y-2351D01*
X121770Y-2394D01*
X121797Y-2429D01*
X121817Y-2452D01*
X121832Y-2467D01*
X121836Y-2471D01*
X121886Y-2506D01*
X121945Y-2533D01*
X121999Y-2549D01*
X122053Y-2564D01*
X122104Y-2572D01*
X122143Y-2576D01*
X122674D01*
Y-1784D01*
D02*
G37*
G36*
Y-2844D02*
X122127D01*
X122042Y-2848D01*
X121968Y-2863D01*
X121902Y-2886D01*
X121848Y-2914D01*
X121801Y-2949D01*
X121758Y-2983D01*
X121727Y-3026D01*
X121704Y-3065D01*
X121681Y-3108D01*
X121669Y-3150D01*
X121658Y-3185D01*
X121650Y-3220D01*
X121646Y-3247D01*
X121642Y-3271D01*
Y-3286D01*
Y-3290D01*
X121646Y-3364D01*
X121661Y-3430D01*
X121685Y-3484D01*
X121708Y-3531D01*
X121731Y-3569D01*
X121755Y-3593D01*
X121770Y-3612D01*
X121774Y-3616D01*
X121828Y-3655D01*
X121886Y-3682D01*
X121945Y-3705D01*
X122003Y-3717D01*
X122057Y-3725D01*
X122096Y-3728D01*
X122111Y-3732D01*
X122674D01*
Y-2844D01*
D02*
G37*
G36*
X390733Y-43379D02*
X390233D01*
X390140Y-43387D01*
X390062Y-43402D01*
X389992Y-43422D01*
X389938Y-43445D01*
X389895Y-43468D01*
X389860Y-43488D01*
X389845Y-43503D01*
X389837Y-43507D01*
X389790Y-43558D01*
X389755Y-43612D01*
X389732Y-43670D01*
X389713Y-43728D01*
X389705Y-43779D01*
X389701Y-43821D01*
X389697Y-43837D01*
Y-43848D01*
Y-43856D01*
Y-43860D01*
X389705Y-43934D01*
X389721Y-44000D01*
X389744Y-44058D01*
X389767Y-44108D01*
X389794Y-44147D01*
X389818Y-44174D01*
X389833Y-44190D01*
X389841Y-44198D01*
X389899Y-44240D01*
X389961Y-44267D01*
X390027Y-44291D01*
X390089Y-44306D01*
X390143Y-44314D01*
X390190Y-44318D01*
X390206Y-44322D01*
X390733D01*
Y-43379D01*
D02*
G37*
G36*
X385080D02*
X384471D01*
X384385Y-43387D01*
X384308Y-43402D01*
X384242Y-43426D01*
X384188Y-43453D01*
X384145Y-43476D01*
X384114Y-43499D01*
X384095Y-43515D01*
X384087Y-43519D01*
X384040Y-43573D01*
X384005Y-43631D01*
X383982Y-43689D01*
X383962Y-43748D01*
X383955Y-43798D01*
X383951Y-43837D01*
X383947Y-43852D01*
Y-43864D01*
Y-43872D01*
Y-43876D01*
X383955Y-43957D01*
X383970Y-44031D01*
X383990Y-44089D01*
X384017Y-44140D01*
X384044Y-44182D01*
X384063Y-44209D01*
X384079Y-44225D01*
X384087Y-44233D01*
X384145Y-44271D01*
X384207Y-44302D01*
X384277Y-44322D01*
X384339Y-44337D01*
X384401Y-44345D01*
X384424Y-44349D01*
X384448D01*
X384463Y-44353D01*
X385080D01*
Y-43379D01*
D02*
G37*
G36*
X380603D02*
X380118D01*
X380032Y-43383D01*
X379958Y-43395D01*
X379896Y-43410D01*
X379846Y-43426D01*
X379807Y-43445D01*
X379780Y-43461D01*
X379761Y-43472D01*
X379757Y-43476D01*
X379718Y-43515D01*
X379687Y-43561D01*
X379667Y-43612D01*
X379652Y-43658D01*
X379644Y-43701D01*
X379636Y-43736D01*
Y-43763D01*
Y-43767D01*
Y-43771D01*
X379640Y-43837D01*
X379656Y-43895D01*
X379675Y-43946D01*
X379698Y-43988D01*
X379726Y-44023D01*
X379745Y-44046D01*
X379761Y-44062D01*
X379764Y-44066D01*
X379815Y-44101D01*
X379873Y-44128D01*
X379927Y-44143D01*
X379982Y-44159D01*
X380032Y-44167D01*
X380071Y-44170D01*
X380603D01*
Y-43379D01*
D02*
G37*
G36*
Y-44438D02*
X380055D01*
X379970Y-44442D01*
X379896Y-44458D01*
X379830Y-44481D01*
X379776Y-44508D01*
X379730Y-44543D01*
X379687Y-44578D01*
X379656Y-44621D01*
X379632Y-44659D01*
X379609Y-44702D01*
X379597Y-44745D01*
X379586Y-44780D01*
X379578Y-44815D01*
X379574Y-44842D01*
X379570Y-44865D01*
Y-44881D01*
Y-44884D01*
X379574Y-44958D01*
X379590Y-45024D01*
X379613Y-45078D01*
X379636Y-45125D01*
X379660Y-45164D01*
X379683Y-45187D01*
X379698Y-45206D01*
X379702Y-45210D01*
X379757Y-45249D01*
X379815Y-45276D01*
X379873Y-45300D01*
X379931Y-45311D01*
X379985Y-45319D01*
X380024Y-45323D01*
X380040Y-45327D01*
X380603D01*
Y-44438D01*
D02*
G37*
%LPD*%
D10*
X77185Y-61902D02*
G03*
X77185Y-61902I-492J0D01*
G01*
X55728Y-82496D02*
G03*
X55728Y-82496I-492J0D01*
G01*
X512835Y-158400D02*
G03*
X512835Y-158400I-492J0D01*
G01*
X26138Y-59902D02*
G03*
X26138Y-59902I-492J0D01*
G01*
X35272Y-100681D02*
G03*
X35272Y-100681I-492J0D01*
G01*
X13894Y-92354D02*
G03*
X13894Y-92354I-492J0D01*
G01*
D12*
X12118Y-50000D02*
G03*
X12118Y-50000I-1118J0D01*
G01*
X14559Y-43595D02*
G03*
X14559Y-23595I0J10000D01*
G01*
D02*
G03*
X14559Y-3594I0J10000D01*
G01*
X225189Y-239748D02*
X248811D01*
X225189Y-208252D02*
X248811D01*
Y-239748D02*
Y-208252D01*
X225189Y-239748D02*
Y-208252D01*
X27500Y-48000D02*
Y-500D01*
X-6500Y-41500D02*
Y-500D01*
X-3500D01*
X-1000D02*
X27500D01*
X-2000Y-48000D02*
X27500D01*
X-6500D02*
Y-41500D01*
Y-48000D02*
X-2000D01*
X-3500Y-500D02*
X-1000D01*
X78658Y-31874D02*
X86658D01*
Y-25374D01*
X65933Y-20598D02*
X75382D01*
Y-11149D01*
X65933D02*
X75382D01*
X65933Y-20598D02*
Y-11149D01*
X56484Y-30047D02*
X84830D01*
Y-1701D01*
X56484D02*
X84830D01*
X56484Y-30047D02*
Y-1701D01*
D14*
X13319Y-52653D02*
X15681D01*
X13319Y-59346D02*
X15681D01*
X66472Y-65228D02*
X73559D01*
X66457Y-58752D02*
X73543D01*
X60158Y-85843D02*
X79843D01*
X60158Y-66158D02*
X79843D01*
X60158Y-66354D02*
Y-66158D01*
X79843Y-66354D02*
Y-66158D01*
Y-85843D02*
Y-85646D01*
X60158Y-85843D02*
Y-85646D01*
Y-79150D02*
Y-72850D01*
X79843Y-79150D02*
Y-72850D01*
X52846Y-12181D02*
Y-9819D01*
X46154Y-12181D02*
Y-9819D01*
X509850Y-241400D02*
Y-118600D01*
X458950D02*
X509850D01*
X458950Y-241400D02*
Y-118600D01*
Y-241400D02*
X509850D01*
X71126Y-55130D02*
Y-33870D01*
X56874Y-55130D02*
Y-31606D01*
X47693Y-50886D02*
X53106D01*
Y-69114D02*
Y-68209D01*
Y-51791D02*
Y-50886D01*
X47693Y-69114D02*
X53106D01*
X43992Y-78634D02*
Y-73220D01*
X25764D02*
X26669D01*
X43087D02*
X43992D01*
X25764Y-78634D02*
Y-73220D01*
X22614Y-70307D02*
Y-64894D01*
X4386D02*
X5291D01*
X21709D02*
X22614D01*
X4386Y-70307D02*
Y-64894D01*
D15*
X315264Y-206214D02*
Y-200027D01*
Y-221962D02*
Y-215493D01*
X330225Y-237428D02*
Y-231241D01*
X315264Y-237428D02*
X330225D01*
X315264D02*
Y-231241D01*
X330225Y-221962D02*
Y-215493D01*
X315264Y-200027D02*
X330225D01*
Y-206214D02*
Y-200027D01*
M02*
