G04*
G04 #@! TF.GenerationSoftware,Altium Limited,Altium Designer,21.9.1 (22)*
G04*
G04 Layer_Color=16711935*
%FSLAX25Y25*%
%MOIN*%
G70*
G04*
G04 #@! TF.SameCoordinates,E1323236-0D64-4C8B-8FC9-1981637C6FB2*
G04*
G04*
G04 #@! TF.FilePolarity,Positive*
G04*
G01*
G75*
%ADD62C,0.00394*%
%ADD63C,0.00600*%
D62*
X294527Y-272854D02*
X296692D01*
X294527Y-268720D02*
X296692D01*
X294527Y-272854D02*
Y-268720D01*
X296692Y-272854D02*
Y-268720D01*
X253043Y-340835D02*
Y-336701D01*
X250878Y-340835D02*
Y-336701D01*
X253043D01*
X250878Y-340835D02*
X253043D01*
X250878Y-329567D02*
Y-325433D01*
X253043Y-329567D02*
Y-325433D01*
X250878Y-329567D02*
X253043D01*
X250878Y-325433D02*
X253043D01*
X303098Y-304252D02*
X308217D01*
Y-315748D02*
Y-304252D01*
X303098Y-315748D02*
X308217D01*
X303098D02*
Y-304252D01*
Y-307992D02*
X306839Y-304252D01*
X293799Y-311608D02*
Y-307474D01*
X295965Y-311608D02*
Y-307474D01*
X293799Y-311608D02*
X295965D01*
X293799Y-307474D02*
X295965D01*
X282024Y-303583D02*
X286157D01*
X282024Y-301417D02*
X286157D01*
Y-303583D02*
Y-301417D01*
X282024Y-303583D02*
Y-301417D01*
X282112Y-308807D02*
X286246D01*
X282112Y-306642D02*
X286246D01*
Y-308807D02*
Y-306642D01*
X282112Y-308807D02*
Y-306642D01*
Y-298307D02*
X286246D01*
X282112Y-296142D02*
X286246D01*
Y-298307D02*
Y-296142D01*
X282112Y-298307D02*
Y-296142D01*
X326197Y-293271D02*
X342622Y-309696D01*
X313669Y-305799D02*
X326197Y-293271D01*
X330094Y-322223D02*
X342622Y-309696D01*
X313669Y-305799D02*
X330094Y-322223D01*
X277350Y-258425D02*
X283650D01*
Y-261575D02*
Y-258425D01*
X277350Y-261575D02*
X283650D01*
X277350D02*
Y-258425D01*
Y-259476D02*
X278402Y-258425D01*
X351201Y-345083D02*
X355335D01*
X351201Y-342917D02*
X355335D01*
Y-345083D02*
Y-342917D01*
X351201Y-345083D02*
Y-342917D01*
X288933Y-258917D02*
X293067D01*
X288933Y-261083D02*
X293067D01*
X288933D02*
Y-258917D01*
X293067Y-261083D02*
Y-258917D01*
X261394Y-319917D02*
X265528D01*
X261394Y-322083D02*
X265528D01*
X261394D02*
Y-319917D01*
X265528Y-322083D02*
Y-319917D01*
X273142Y-323289D02*
X280228D01*
X273142Y-336675D02*
X280228D01*
Y-323289D01*
X273142Y-336675D02*
Y-323289D01*
D63*
X282159Y-264892D02*
X288459D01*
X282159Y-275916D02*
X288459D01*
Y-264892D01*
X282159Y-275916D02*
Y-264892D01*
M02*
