G04*
G04 #@! TF.GenerationSoftware,Altium Limited,Altium Designer,21.9.1 (22)*
G04*
G04 Layer_Color=65535*
%FSLAX25Y25*%
%MOIN*%
G70*
G04*
G04 #@! TF.SameCoordinates,E1323236-0D64-4C8B-8FC9-1981637C6FB2*
G04*
G04*
G04 #@! TF.FilePolarity,Positive*
G04*
G01*
G75*
%ADD10C,0.00984*%
%ADD11C,0.01968*%
%ADD12C,0.01000*%
%ADD13C,0.00787*%
%ADD14C,0.00800*%
G36*
X253202Y-325254D02*
Y-325584D01*
X250979Y-324559D01*
Y-325906D01*
X250719D01*
Y-324226D01*
X250898D01*
X253202Y-325254D01*
D02*
G37*
G36*
Y-327788D02*
X252977D01*
X252023Y-326930D01*
X252019Y-326926D01*
X252011Y-326922D01*
X252003Y-326911D01*
X251988Y-326899D01*
X251945Y-326864D01*
X251899Y-326825D01*
X251840Y-326783D01*
X251782Y-326740D01*
X251724Y-326697D01*
X251670Y-326666D01*
X251662Y-326662D01*
X251646Y-326655D01*
X251619Y-326643D01*
X251584Y-326627D01*
X251542Y-326616D01*
X251495Y-326604D01*
X251445Y-326596D01*
X251390Y-326593D01*
X251386D01*
X251382D01*
X251359D01*
X251320Y-326600D01*
X251278Y-326608D01*
X251227Y-326624D01*
X251173Y-326643D01*
X251123Y-326674D01*
X251072Y-326713D01*
X251068Y-326717D01*
X251053Y-326732D01*
X251033Y-326759D01*
X251006Y-326794D01*
X250983Y-326841D01*
X250963Y-326891D01*
X250948Y-326953D01*
X250944Y-327023D01*
Y-327046D01*
X250948Y-327062D01*
X250952Y-327105D01*
X250960Y-327159D01*
X250979Y-327217D01*
X251002Y-327279D01*
X251033Y-327338D01*
X251080Y-327392D01*
X251088Y-327396D01*
X251103Y-327411D01*
X251134Y-327431D01*
X251177Y-327454D01*
X251227Y-327481D01*
X251293Y-327501D01*
X251367Y-327516D01*
X251452Y-327520D01*
Y-327838D01*
X251448D01*
X251437D01*
X251417D01*
X251394Y-327834D01*
X251367Y-327830D01*
X251332Y-327826D01*
X251255Y-327811D01*
X251165Y-327784D01*
X251119Y-327764D01*
X251072Y-327745D01*
X251026Y-327718D01*
X250983Y-327691D01*
X250936Y-327656D01*
X250898Y-327617D01*
X250894Y-327613D01*
X250890Y-327605D01*
X250878Y-327594D01*
X250863Y-327578D01*
X250847Y-327555D01*
X250832Y-327528D01*
X250812Y-327497D01*
X250789Y-327458D01*
X250769Y-327419D01*
X250750Y-327376D01*
X250734Y-327326D01*
X250719Y-327272D01*
X250704Y-327217D01*
X250692Y-327155D01*
X250688Y-327093D01*
X250684Y-327023D01*
Y-326988D01*
X250688Y-326965D01*
Y-326938D01*
X250692Y-326903D01*
X250707Y-326825D01*
X250727Y-326740D01*
X250762Y-326647D01*
X250804Y-326561D01*
X250835Y-326519D01*
X250867Y-326480D01*
X250870Y-326476D01*
X250874Y-326472D01*
X250886Y-326461D01*
X250901Y-326449D01*
X250917Y-326433D01*
X250940Y-326418D01*
X250994Y-326379D01*
X251064Y-326340D01*
X251150Y-326309D01*
X251243Y-326286D01*
X251297Y-326282D01*
X251351Y-326278D01*
X251355D01*
X251367D01*
X251390Y-326282D01*
X251417Y-326286D01*
X251452Y-326294D01*
X251495Y-326302D01*
X251542Y-326317D01*
X251600Y-326337D01*
X251658Y-326360D01*
X251728Y-326391D01*
X251798Y-326430D01*
X251875Y-326476D01*
X251957Y-326527D01*
X252042Y-326589D01*
X252131Y-326662D01*
X252224Y-326744D01*
X252946Y-327407D01*
Y-326162D01*
X253202D01*
Y-327788D01*
D02*
G37*
G36*
X252434Y-328160D02*
X252457D01*
X252484Y-328168D01*
X252516Y-328172D01*
X252554Y-328183D01*
X252597Y-328195D01*
X252640Y-328207D01*
X252737Y-328245D01*
X252837Y-328296D01*
X252888Y-328327D01*
X252935Y-328362D01*
X252981Y-328404D01*
X253024Y-328447D01*
X253028Y-328451D01*
X253031Y-328459D01*
X253043Y-328470D01*
X253059Y-328490D01*
X253074Y-328517D01*
X253090Y-328544D01*
X253109Y-328579D01*
X253129Y-328618D01*
X253152Y-328664D01*
X253171Y-328711D01*
X253187Y-328765D01*
X253202Y-328824D01*
X253218Y-328886D01*
X253229Y-328952D01*
X253233Y-329022D01*
X253237Y-329095D01*
Y-329115D01*
X253233Y-329138D01*
Y-329169D01*
X253225Y-329204D01*
X253222Y-329250D01*
X253210Y-329297D01*
X253198Y-329347D01*
X253183Y-329406D01*
X253159Y-329460D01*
X253136Y-329522D01*
X253105Y-329580D01*
X253070Y-329638D01*
X253028Y-329697D01*
X252977Y-329751D01*
X252923Y-329801D01*
X252919Y-329805D01*
X252907Y-329813D01*
X252892Y-329825D01*
X252865Y-329844D01*
X252834Y-329863D01*
X252795Y-329883D01*
X252752Y-329910D01*
X252698Y-329933D01*
X252643Y-329957D01*
X252578Y-329980D01*
X252508Y-330003D01*
X252434Y-330023D01*
X252352Y-330042D01*
X252267Y-330053D01*
X252174Y-330061D01*
X252077Y-330065D01*
X251840D01*
X251836D01*
X251825D01*
X251805D01*
X251782Y-330061D01*
X251751D01*
X251716Y-330057D01*
X251677Y-330053D01*
X251635Y-330050D01*
X251542Y-330034D01*
X251437Y-330011D01*
X251332Y-329984D01*
X251231Y-329941D01*
X251227D01*
X251220Y-329933D01*
X251204Y-329929D01*
X251188Y-329918D01*
X251165Y-329906D01*
X251142Y-329891D01*
X251080Y-329852D01*
X251018Y-329801D01*
X250948Y-329739D01*
X250886Y-329669D01*
X250828Y-329592D01*
Y-329588D01*
X250820Y-329580D01*
X250816Y-329569D01*
X250804Y-329553D01*
X250793Y-329530D01*
X250781Y-329506D01*
X250769Y-329475D01*
X250754Y-329440D01*
X250731Y-329367D01*
X250707Y-329277D01*
X250692Y-329177D01*
X250684Y-329068D01*
Y-329029D01*
X250688Y-329002D01*
X250692Y-328967D01*
X250696Y-328928D01*
X250704Y-328886D01*
X250711Y-328839D01*
X250738Y-328738D01*
X250754Y-328688D01*
X250777Y-328633D01*
X250804Y-328583D01*
X250832Y-328529D01*
X250867Y-328482D01*
X250905Y-328436D01*
X250909Y-328432D01*
X250917Y-328424D01*
X250928Y-328412D01*
X250944Y-328397D01*
X250967Y-328377D01*
X250994Y-328358D01*
X251029Y-328335D01*
X251064Y-328311D01*
X251107Y-328284D01*
X251154Y-328261D01*
X251204Y-328238D01*
X251258Y-328214D01*
X251317Y-328195D01*
X251379Y-328180D01*
X251448Y-328164D01*
X251518Y-328156D01*
Y-328482D01*
X251514D01*
X251507Y-328486D01*
X251491D01*
X251468Y-328490D01*
X251445Y-328498D01*
X251417Y-328502D01*
X251351Y-328521D01*
X251282Y-328548D01*
X251212Y-328579D01*
X251142Y-328618D01*
X251115Y-328641D01*
X251088Y-328668D01*
X251080Y-328676D01*
X251064Y-328696D01*
X251045Y-328727D01*
X251018Y-328773D01*
X250994Y-328827D01*
X250971Y-328897D01*
X250956Y-328979D01*
X250952Y-329068D01*
Y-329099D01*
X250956Y-329118D01*
X250960Y-329146D01*
X250963Y-329177D01*
X250979Y-329246D01*
X251010Y-329328D01*
X251026Y-329367D01*
X251049Y-329410D01*
X251076Y-329448D01*
X251107Y-329487D01*
X251142Y-329526D01*
X251185Y-329561D01*
X251188D01*
X251196Y-329569D01*
X251208Y-329576D01*
X251227Y-329588D01*
X251251Y-329600D01*
X251282Y-329615D01*
X251317Y-329631D01*
X251355Y-329646D01*
X251398Y-329665D01*
X251448Y-329681D01*
X251503Y-329697D01*
X251561Y-329708D01*
X251627Y-329720D01*
X251697Y-329728D01*
X251770Y-329731D01*
X251848Y-329735D01*
X252089D01*
X252093D01*
X252108D01*
X252128D01*
X252155Y-329731D01*
X252190D01*
X252228Y-329728D01*
X252271Y-329720D01*
X252322Y-329716D01*
X252422Y-329693D01*
X252531Y-329665D01*
X252636Y-329623D01*
X252686Y-329600D01*
X252733Y-329569D01*
X252737Y-329565D01*
X252744Y-329561D01*
X252756Y-329549D01*
X252768Y-329538D01*
X252806Y-329499D01*
X252849Y-329444D01*
X252896Y-329378D01*
X252931Y-329297D01*
X252946Y-329250D01*
X252958Y-329204D01*
X252965Y-329150D01*
X252969Y-329095D01*
Y-329068D01*
X252965Y-329049D01*
Y-329029D01*
X252962Y-329002D01*
X252954Y-328940D01*
X252938Y-328874D01*
X252919Y-328804D01*
X252888Y-328738D01*
X252849Y-328680D01*
X252841Y-328672D01*
X252826Y-328657D01*
X252795Y-328630D01*
X252748Y-328598D01*
X252690Y-328568D01*
X252655Y-328552D01*
X252616Y-328533D01*
X252574Y-328521D01*
X252523Y-328505D01*
X252473Y-328494D01*
X252418Y-328482D01*
Y-328156D01*
X252422D01*
X252434Y-328160D01*
D02*
G37*
G36*
X287637Y-278245D02*
X287668Y-278249D01*
X287703Y-278257D01*
X287742Y-278264D01*
X287784Y-278276D01*
X287831Y-278291D01*
X287877Y-278307D01*
X287928Y-278330D01*
X287974Y-278357D01*
X288021Y-278388D01*
X288068Y-278427D01*
X288110Y-278466D01*
X288153Y-278516D01*
X288157Y-278520D01*
X288161Y-278528D01*
X288172Y-278544D01*
X288188Y-278567D01*
X288203Y-278594D01*
X288219Y-278629D01*
X288238Y-278668D01*
X288262Y-278714D01*
X288281Y-278765D01*
X288300Y-278823D01*
X288316Y-278881D01*
X288331Y-278951D01*
X288347Y-279021D01*
X288358Y-279098D01*
X288362Y-279184D01*
X288366Y-279269D01*
Y-279362D01*
Y-279366D01*
Y-279370D01*
Y-279393D01*
Y-279432D01*
X288362Y-279479D01*
X288358Y-279541D01*
X288351Y-279607D01*
X288343Y-279684D01*
X288331Y-279766D01*
X288316Y-279851D01*
X288296Y-279937D01*
X288273Y-280026D01*
X288246Y-280111D01*
X288211Y-280196D01*
X288172Y-280278D01*
X288130Y-280352D01*
X288079Y-280418D01*
X288075Y-280421D01*
X288068Y-280433D01*
X288048Y-280449D01*
X288025Y-280468D01*
X287994Y-280495D01*
X287959Y-280522D01*
X287912Y-280553D01*
X287862Y-280585D01*
X287808Y-280615D01*
X287742Y-280646D01*
X287672Y-280678D01*
X287594Y-280701D01*
X287509Y-280724D01*
X287416Y-280744D01*
X287319Y-280755D01*
X287214Y-280759D01*
X287156D01*
Y-280491D01*
X287261D01*
X287288Y-280487D01*
X287319Y-280484D01*
X287357Y-280480D01*
X287396Y-280472D01*
X287443Y-280464D01*
X287540Y-280441D01*
X287637Y-280406D01*
X287687Y-280383D01*
X287734Y-280359D01*
X287776Y-280328D01*
X287819Y-280293D01*
X287823Y-280290D01*
X287827Y-280286D01*
X287839Y-280274D01*
X287854Y-280255D01*
X287870Y-280235D01*
X287885Y-280208D01*
X287905Y-280177D01*
X287928Y-280142D01*
X287947Y-280100D01*
X287967Y-280053D01*
X287986Y-280002D01*
X288005Y-279948D01*
X288021Y-279886D01*
X288033Y-279816D01*
X288044Y-279746D01*
X288048Y-279669D01*
X288044Y-279673D01*
X288033Y-279688D01*
X288009Y-279712D01*
X287982Y-279739D01*
X287947Y-279770D01*
X287908Y-279801D01*
X287862Y-279832D01*
X287811Y-279859D01*
X287804Y-279863D01*
X287788Y-279871D01*
X287761Y-279882D01*
X287722Y-279894D01*
X287680Y-279906D01*
X287629Y-279917D01*
X287571Y-279925D01*
X287513Y-279929D01*
X287478D01*
X287435Y-279925D01*
X287385Y-279917D01*
X287326Y-279902D01*
X287261Y-279886D01*
X287198Y-279859D01*
X287136Y-279824D01*
X287129Y-279820D01*
X287109Y-279805D01*
X287082Y-279781D01*
X287047Y-279746D01*
X287004Y-279708D01*
X286966Y-279657D01*
X286923Y-279595D01*
X286888Y-279529D01*
Y-279525D01*
X286884Y-279521D01*
X286880Y-279510D01*
X286876Y-279494D01*
X286861Y-279455D01*
X286845Y-279401D01*
X286830Y-279339D01*
X286814Y-279265D01*
X286807Y-279188D01*
X286803Y-279102D01*
Y-279098D01*
Y-279091D01*
Y-279079D01*
Y-279060D01*
X286807Y-279040D01*
Y-279013D01*
X286814Y-278955D01*
X286826Y-278885D01*
X286841Y-278807D01*
X286865Y-278734D01*
X286896Y-278656D01*
Y-278652D01*
X286900Y-278648D01*
X286915Y-278621D01*
X286935Y-278586D01*
X286966Y-278544D01*
X287004Y-278493D01*
X287051Y-278443D01*
X287105Y-278392D01*
X287167Y-278350D01*
X287171D01*
X287175Y-278346D01*
X287198Y-278334D01*
X287233Y-278315D01*
X287284Y-278295D01*
X287342Y-278276D01*
X287412Y-278257D01*
X287489Y-278245D01*
X287575Y-278241D01*
X287610D01*
X287637Y-278245D01*
D02*
G37*
G36*
X285386Y-278280D02*
X285414D01*
X285449Y-278284D01*
X285487Y-278288D01*
X285526Y-278295D01*
X285615Y-278311D01*
X285712Y-278338D01*
X285809Y-278373D01*
X285906Y-278419D01*
X285910D01*
X285918Y-278427D01*
X285930Y-278435D01*
X285949Y-278447D01*
X285992Y-278478D01*
X286046Y-278524D01*
X286108Y-278582D01*
X286174Y-278652D01*
X286236Y-278738D01*
X286291Y-278831D01*
Y-278835D01*
X286298Y-278842D01*
X286302Y-278858D01*
X286314Y-278877D01*
X286321Y-278901D01*
X286333Y-278932D01*
X286345Y-278966D01*
X286360Y-279005D01*
X286372Y-279048D01*
X286384Y-279095D01*
X286407Y-279195D01*
X286422Y-279312D01*
X286430Y-279436D01*
Y-279595D01*
Y-279599D01*
Y-279611D01*
Y-279630D01*
X286426Y-279653D01*
Y-279684D01*
X286422Y-279719D01*
X286419Y-279758D01*
X286415Y-279805D01*
X286395Y-279898D01*
X286372Y-280002D01*
X286341Y-280107D01*
X286294Y-280212D01*
Y-280216D01*
X286287Y-280224D01*
X286279Y-280235D01*
X286271Y-280255D01*
X286256Y-280278D01*
X286240Y-280301D01*
X286193Y-280363D01*
X286139Y-280425D01*
X286073Y-280495D01*
X285996Y-280561D01*
X285906Y-280619D01*
X285903D01*
X285895Y-280627D01*
X285879Y-280631D01*
X285864Y-280643D01*
X285837Y-280650D01*
X285809Y-280662D01*
X285774Y-280678D01*
X285739Y-280689D01*
X285697Y-280701D01*
X285654Y-280716D01*
X285553Y-280736D01*
X285441Y-280751D01*
X285320Y-280759D01*
X284634D01*
Y-278276D01*
X285363D01*
X285386Y-278280D01*
D02*
G37*
G36*
X254132Y-319227D02*
X254167Y-319231D01*
X254205Y-319235D01*
X254248Y-319243D01*
X254295Y-319251D01*
X254396Y-319278D01*
X254446Y-319293D01*
X254500Y-319317D01*
X254551Y-319344D01*
X254605Y-319371D01*
X254652Y-319406D01*
X254698Y-319445D01*
X254702Y-319448D01*
X254710Y-319456D01*
X254721Y-319468D01*
X254737Y-319483D01*
X254756Y-319507D01*
X254776Y-319534D01*
X254799Y-319569D01*
X254822Y-319604D01*
X254850Y-319646D01*
X254873Y-319693D01*
X254896Y-319743D01*
X254919Y-319798D01*
X254939Y-319856D01*
X254954Y-319918D01*
X254970Y-319988D01*
X254978Y-320058D01*
X254652D01*
Y-320054D01*
X254648Y-320046D01*
Y-320030D01*
X254644Y-320007D01*
X254636Y-319984D01*
X254632Y-319957D01*
X254613Y-319891D01*
X254586Y-319821D01*
X254555Y-319751D01*
X254516Y-319681D01*
X254493Y-319654D01*
X254466Y-319627D01*
X254458Y-319619D01*
X254438Y-319604D01*
X254407Y-319584D01*
X254361Y-319557D01*
X254306Y-319534D01*
X254237Y-319511D01*
X254155Y-319495D01*
X254066Y-319491D01*
X254035D01*
X254015Y-319495D01*
X253988Y-319499D01*
X253957Y-319503D01*
X253887Y-319518D01*
X253806Y-319549D01*
X253767Y-319565D01*
X253724Y-319588D01*
X253686Y-319615D01*
X253647Y-319646D01*
X253608Y-319681D01*
X253573Y-319724D01*
Y-319728D01*
X253565Y-319736D01*
X253557Y-319747D01*
X253546Y-319767D01*
X253534Y-319790D01*
X253519Y-319821D01*
X253503Y-319856D01*
X253488Y-319895D01*
X253468Y-319937D01*
X253453Y-319988D01*
X253437Y-320042D01*
X253426Y-320100D01*
X253414Y-320166D01*
X253406Y-320236D01*
X253402Y-320310D01*
X253398Y-320388D01*
Y-320628D01*
Y-320632D01*
Y-320647D01*
Y-320667D01*
X253402Y-320694D01*
Y-320729D01*
X253406Y-320768D01*
X253414Y-320810D01*
X253418Y-320861D01*
X253441Y-320962D01*
X253468Y-321070D01*
X253511Y-321175D01*
X253534Y-321226D01*
X253565Y-321272D01*
X253569Y-321276D01*
X253573Y-321284D01*
X253585Y-321295D01*
X253596Y-321307D01*
X253635Y-321346D01*
X253690Y-321389D01*
X253755Y-321435D01*
X253837Y-321470D01*
X253884Y-321485D01*
X253930Y-321497D01*
X253984Y-321505D01*
X254039Y-321509D01*
X254066D01*
X254085Y-321505D01*
X254105D01*
X254132Y-321501D01*
X254194Y-321493D01*
X254260Y-321478D01*
X254330Y-321458D01*
X254396Y-321427D01*
X254454Y-321389D01*
X254462Y-321381D01*
X254477Y-321365D01*
X254504Y-321334D01*
X254535Y-321288D01*
X254566Y-321229D01*
X254582Y-321195D01*
X254601Y-321156D01*
X254613Y-321113D01*
X254628Y-321063D01*
X254640Y-321012D01*
X254652Y-320958D01*
X254978D01*
Y-320962D01*
X254974Y-320973D01*
Y-320997D01*
X254966Y-321024D01*
X254962Y-321055D01*
X254950Y-321094D01*
X254939Y-321136D01*
X254927Y-321179D01*
X254888Y-321276D01*
X254838Y-321377D01*
X254807Y-321427D01*
X254772Y-321474D01*
X254729Y-321520D01*
X254687Y-321563D01*
X254683Y-321567D01*
X254675Y-321571D01*
X254663Y-321583D01*
X254644Y-321598D01*
X254617Y-321614D01*
X254590Y-321629D01*
X254555Y-321649D01*
X254516Y-321668D01*
X254469Y-321691D01*
X254423Y-321711D01*
X254368Y-321726D01*
X254310Y-321742D01*
X254248Y-321757D01*
X254182Y-321769D01*
X254112Y-321773D01*
X254039Y-321777D01*
X254019D01*
X253996Y-321773D01*
X253965D01*
X253930Y-321765D01*
X253884Y-321761D01*
X253837Y-321749D01*
X253786Y-321738D01*
X253728Y-321722D01*
X253674Y-321699D01*
X253612Y-321676D01*
X253554Y-321645D01*
X253496Y-321610D01*
X253437Y-321567D01*
X253383Y-321517D01*
X253332Y-321462D01*
X253329Y-321458D01*
X253321Y-321447D01*
X253309Y-321431D01*
X253290Y-321404D01*
X253270Y-321373D01*
X253251Y-321334D01*
X253224Y-321291D01*
X253201Y-321237D01*
X253177Y-321183D01*
X253154Y-321117D01*
X253131Y-321047D01*
X253111Y-320973D01*
X253092Y-320892D01*
X253080Y-320807D01*
X253073Y-320713D01*
X253069Y-320616D01*
Y-320380D01*
Y-320376D01*
Y-320364D01*
Y-320345D01*
X253073Y-320321D01*
Y-320290D01*
X253076Y-320256D01*
X253080Y-320217D01*
X253084Y-320174D01*
X253100Y-320081D01*
X253123Y-319976D01*
X253150Y-319871D01*
X253193Y-319771D01*
Y-319767D01*
X253201Y-319759D01*
X253204Y-319743D01*
X253216Y-319728D01*
X253228Y-319705D01*
X253243Y-319681D01*
X253282Y-319619D01*
X253332Y-319557D01*
X253395Y-319487D01*
X253464Y-319425D01*
X253542Y-319367D01*
X253546D01*
X253554Y-319359D01*
X253565Y-319355D01*
X253581Y-319344D01*
X253604Y-319332D01*
X253627Y-319321D01*
X253658Y-319309D01*
X253693Y-319293D01*
X253767Y-319270D01*
X253856Y-319247D01*
X253957Y-319231D01*
X254066Y-319223D01*
X254105D01*
X254132Y-319227D01*
D02*
G37*
G36*
X258128D02*
X258155D01*
X258190Y-319231D01*
X258268Y-319247D01*
X258353Y-319266D01*
X258446Y-319301D01*
X258532Y-319344D01*
X258574Y-319375D01*
X258613Y-319406D01*
X258617Y-319410D01*
X258621Y-319414D01*
X258633Y-319425D01*
X258644Y-319441D01*
X258660Y-319456D01*
X258675Y-319480D01*
X258714Y-319534D01*
X258753Y-319604D01*
X258784Y-319689D01*
X258807Y-319782D01*
X258811Y-319836D01*
X258815Y-319891D01*
Y-319895D01*
Y-319906D01*
X258811Y-319930D01*
X258807Y-319957D01*
X258799Y-319992D01*
X258792Y-320034D01*
X258776Y-320081D01*
X258757Y-320139D01*
X258734Y-320197D01*
X258702Y-320267D01*
X258664Y-320337D01*
X258617Y-320415D01*
X258567Y-320496D01*
X258505Y-320582D01*
X258431Y-320671D01*
X258349Y-320764D01*
X257686Y-321485D01*
X258931D01*
Y-321742D01*
X257306D01*
Y-321517D01*
X258163Y-320562D01*
X258167Y-320558D01*
X258171Y-320550D01*
X258183Y-320543D01*
X258194Y-320527D01*
X258229Y-320484D01*
X258268Y-320438D01*
X258311Y-320380D01*
X258353Y-320321D01*
X258396Y-320263D01*
X258427Y-320209D01*
X258431Y-320201D01*
X258439Y-320186D01*
X258450Y-320159D01*
X258466Y-320124D01*
X258477Y-320081D01*
X258489Y-320034D01*
X258497Y-319984D01*
X258501Y-319930D01*
Y-319926D01*
Y-319922D01*
Y-319899D01*
X258493Y-319860D01*
X258485Y-319817D01*
X258470Y-319767D01*
X258450Y-319712D01*
X258419Y-319662D01*
X258380Y-319612D01*
X258377Y-319608D01*
X258361Y-319592D01*
X258334Y-319573D01*
X258299Y-319546D01*
X258252Y-319522D01*
X258202Y-319503D01*
X258140Y-319487D01*
X258070Y-319483D01*
X258047D01*
X258031Y-319487D01*
X257989Y-319491D01*
X257934Y-319499D01*
X257876Y-319518D01*
X257814Y-319542D01*
X257756Y-319573D01*
X257701Y-319619D01*
X257698Y-319627D01*
X257682Y-319642D01*
X257663Y-319674D01*
X257639Y-319716D01*
X257612Y-319767D01*
X257593Y-319833D01*
X257577Y-319906D01*
X257573Y-319992D01*
X257255D01*
Y-319988D01*
Y-319976D01*
Y-319957D01*
X257259Y-319934D01*
X257263Y-319906D01*
X257267Y-319871D01*
X257282Y-319794D01*
X257310Y-319705D01*
X257329Y-319658D01*
X257348Y-319612D01*
X257376Y-319565D01*
X257403Y-319522D01*
X257437Y-319476D01*
X257476Y-319437D01*
X257480Y-319433D01*
X257488Y-319429D01*
X257500Y-319418D01*
X257515Y-319402D01*
X257538Y-319386D01*
X257566Y-319371D01*
X257597Y-319352D01*
X257635Y-319328D01*
X257674Y-319309D01*
X257717Y-319289D01*
X257767Y-319274D01*
X257822Y-319258D01*
X257876Y-319243D01*
X257938Y-319231D01*
X258000Y-319227D01*
X258070Y-319223D01*
X258105D01*
X258128Y-319227D01*
D02*
G37*
G36*
X256169D02*
X256196D01*
X256231Y-319231D01*
X256309Y-319247D01*
X256394Y-319266D01*
X256487Y-319301D01*
X256572Y-319344D01*
X256615Y-319375D01*
X256654Y-319406D01*
X256658Y-319410D01*
X256662Y-319414D01*
X256673Y-319425D01*
X256685Y-319441D01*
X256700Y-319456D01*
X256716Y-319480D01*
X256755Y-319534D01*
X256793Y-319604D01*
X256824Y-319689D01*
X256848Y-319782D01*
X256852Y-319836D01*
X256856Y-319891D01*
Y-319895D01*
Y-319906D01*
X256852Y-319930D01*
X256848Y-319957D01*
X256840Y-319992D01*
X256832Y-320034D01*
X256817Y-320081D01*
X256797Y-320139D01*
X256774Y-320197D01*
X256743Y-320267D01*
X256704Y-320337D01*
X256658Y-320415D01*
X256607Y-320496D01*
X256545Y-320582D01*
X256471Y-320671D01*
X256390Y-320764D01*
X255727Y-321485D01*
X256972D01*
Y-321742D01*
X255346D01*
Y-321517D01*
X256204Y-320562D01*
X256208Y-320558D01*
X256211Y-320550D01*
X256223Y-320543D01*
X256235Y-320527D01*
X256270Y-320484D01*
X256309Y-320438D01*
X256351Y-320380D01*
X256394Y-320321D01*
X256436Y-320263D01*
X256468Y-320209D01*
X256471Y-320201D01*
X256479Y-320186D01*
X256491Y-320159D01*
X256506Y-320124D01*
X256518Y-320081D01*
X256530Y-320034D01*
X256537Y-319984D01*
X256541Y-319930D01*
Y-319926D01*
Y-319922D01*
Y-319899D01*
X256534Y-319860D01*
X256526Y-319817D01*
X256510Y-319767D01*
X256491Y-319712D01*
X256460Y-319662D01*
X256421Y-319612D01*
X256417Y-319608D01*
X256402Y-319592D01*
X256374Y-319573D01*
X256340Y-319546D01*
X256293Y-319522D01*
X256242Y-319503D01*
X256180Y-319487D01*
X256111Y-319483D01*
X256087D01*
X256072Y-319487D01*
X256029Y-319491D01*
X255975Y-319499D01*
X255917Y-319518D01*
X255855Y-319542D01*
X255796Y-319573D01*
X255742Y-319619D01*
X255738Y-319627D01*
X255723Y-319642D01*
X255703Y-319674D01*
X255680Y-319716D01*
X255653Y-319767D01*
X255633Y-319833D01*
X255618Y-319906D01*
X255614Y-319992D01*
X255296D01*
Y-319988D01*
Y-319976D01*
Y-319957D01*
X255300Y-319934D01*
X255304Y-319906D01*
X255307Y-319871D01*
X255323Y-319794D01*
X255350Y-319705D01*
X255369Y-319658D01*
X255389Y-319612D01*
X255416Y-319565D01*
X255443Y-319522D01*
X255478Y-319476D01*
X255517Y-319437D01*
X255521Y-319433D01*
X255529Y-319429D01*
X255540Y-319418D01*
X255556Y-319402D01*
X255579Y-319386D01*
X255606Y-319371D01*
X255637Y-319352D01*
X255676Y-319328D01*
X255715Y-319309D01*
X255757Y-319289D01*
X255808Y-319274D01*
X255862Y-319258D01*
X255917Y-319243D01*
X255979Y-319231D01*
X256041Y-319227D01*
X256111Y-319223D01*
X256146D01*
X256169Y-319227D01*
D02*
G37*
G36*
X296361Y-271438D02*
Y-271442D01*
Y-271454D01*
Y-271473D01*
X296357Y-271497D01*
X296354Y-271528D01*
X296350Y-271563D01*
X296342Y-271598D01*
X296334Y-271640D01*
X296307Y-271733D01*
X296291Y-271780D01*
X296268Y-271826D01*
X296241Y-271877D01*
X296214Y-271923D01*
X296179Y-271970D01*
X296140Y-272013D01*
X296136Y-272017D01*
X296128Y-272020D01*
X296117Y-272032D01*
X296101Y-272048D01*
X296078Y-272063D01*
X296051Y-272082D01*
X296020Y-272106D01*
X295985Y-272125D01*
X295946Y-272148D01*
X295900Y-272172D01*
X295849Y-272191D01*
X295799Y-272211D01*
X295740Y-272226D01*
X295678Y-272242D01*
X295616Y-272253D01*
X295546Y-272261D01*
X295461Y-272265D01*
X295422D01*
X295395Y-272261D01*
X295360Y-272257D01*
X295318Y-272253D01*
X295275Y-272246D01*
X295228Y-272238D01*
X295124Y-272211D01*
X295015Y-272172D01*
X294960Y-272148D01*
X294906Y-272117D01*
X294856Y-272086D01*
X294809Y-272048D01*
X294805Y-272044D01*
X294798Y-272036D01*
X294786Y-272024D01*
X294770Y-272009D01*
X294755Y-271986D01*
X294732Y-271958D01*
X294712Y-271923D01*
X294689Y-271888D01*
X294666Y-271850D01*
X294642Y-271803D01*
X294623Y-271753D01*
X294604Y-271698D01*
X294588Y-271640D01*
X294576Y-271578D01*
X294569Y-271512D01*
X294565Y-271442D01*
Y-269747D01*
X294891D01*
Y-271431D01*
Y-271435D01*
Y-271442D01*
Y-271458D01*
X294895Y-271473D01*
Y-271497D01*
X294899Y-271524D01*
X294910Y-271586D01*
X294926Y-271652D01*
X294953Y-271722D01*
X294988Y-271788D01*
X295038Y-271850D01*
X295046Y-271858D01*
X295065Y-271873D01*
X295100Y-271896D01*
X295147Y-271923D01*
X295205Y-271951D01*
X295279Y-271974D01*
X295364Y-271989D01*
X295461Y-271997D01*
X295488D01*
X295508Y-271993D01*
X295531D01*
X295558Y-271989D01*
X295620Y-271978D01*
X295690Y-271962D01*
X295760Y-271935D01*
X295826Y-271900D01*
X295888Y-271850D01*
X295896Y-271842D01*
X295911Y-271823D01*
X295934Y-271788D01*
X295962Y-271741D01*
X295989Y-271683D01*
X296012Y-271613D01*
X296027Y-271528D01*
X296035Y-271435D01*
Y-269747D01*
X296361D01*
Y-271438D01*
D02*
G37*
G36*
X300090Y-271396D02*
X300435D01*
Y-271652D01*
X300090D01*
Y-272230D01*
X299772D01*
Y-271652D01*
X298643D01*
Y-271469D01*
X299752Y-269747D01*
X300090D01*
Y-271396D01*
D02*
G37*
G36*
X297836Y-272230D02*
X297517D01*
Y-270127D01*
X296881Y-270360D01*
Y-270073D01*
X297785Y-269735D01*
X297836D01*
Y-272230D01*
D02*
G37*
G36*
X279066Y-299184D02*
X279093Y-299188D01*
X279128Y-299191D01*
X279202Y-299207D01*
X279287Y-299234D01*
X279376Y-299273D01*
X279419Y-299296D01*
X279462Y-299323D01*
X279504Y-299358D01*
X279543Y-299397D01*
X279547Y-299401D01*
X279551Y-299409D01*
X279563Y-299420D01*
X279574Y-299436D01*
X279590Y-299459D01*
X279605Y-299482D01*
X279621Y-299514D01*
X279640Y-299548D01*
X279660Y-299587D01*
X279675Y-299630D01*
X279706Y-299727D01*
X279729Y-299839D01*
X279733Y-299898D01*
X279737Y-299963D01*
Y-299998D01*
X279733Y-300022D01*
Y-300053D01*
X279726Y-300084D01*
X279722Y-300123D01*
X279714Y-300165D01*
X279691Y-300255D01*
X279660Y-300352D01*
X279613Y-300445D01*
X279582Y-300491D01*
X279551Y-300534D01*
X279547Y-300538D01*
X279543Y-300542D01*
X279532Y-300553D01*
X279516Y-300569D01*
X279497Y-300584D01*
X279473Y-300604D01*
X279415Y-300642D01*
X279345Y-300681D01*
X279260Y-300716D01*
X279159Y-300743D01*
X279109Y-300747D01*
X279050Y-300751D01*
Y-300433D01*
X279054D01*
X279058D01*
X279081Y-300429D01*
X279120Y-300425D01*
X279163Y-300417D01*
X279213Y-300402D01*
X279268Y-300379D01*
X279318Y-300352D01*
X279365Y-300309D01*
X279369Y-300301D01*
X279384Y-300286D01*
X279400Y-300258D01*
X279423Y-300216D01*
X279442Y-300169D01*
X279462Y-300107D01*
X279477Y-300041D01*
X279481Y-299963D01*
Y-299940D01*
X279477Y-299925D01*
X279473Y-299886D01*
X279466Y-299835D01*
X279454Y-299777D01*
X279431Y-299719D01*
X279403Y-299665D01*
X279365Y-299614D01*
X279361Y-299610D01*
X279341Y-299595D01*
X279314Y-299576D01*
X279275Y-299552D01*
X279229Y-299533D01*
X279167Y-299514D01*
X279097Y-299498D01*
X279019Y-299494D01*
X279015D01*
X279012D01*
X279000D01*
X278984D01*
X278946Y-299502D01*
X278895Y-299510D01*
X278841Y-299525D01*
X278786Y-299548D01*
X278732Y-299583D01*
X278686Y-299626D01*
X278682Y-299634D01*
X278666Y-299649D01*
X278647Y-299680D01*
X278624Y-299723D01*
X278604Y-299777D01*
X278581Y-299843D01*
X278569Y-299921D01*
X278561Y-300010D01*
Y-300247D01*
X278305D01*
Y-299971D01*
X278298Y-299933D01*
X278290Y-299882D01*
X278278Y-299828D01*
X278259Y-299769D01*
X278232Y-299711D01*
X278193Y-299661D01*
X278189Y-299657D01*
X278170Y-299641D01*
X278146Y-299622D01*
X278111Y-299595D01*
X278065Y-299572D01*
X278014Y-299552D01*
X277952Y-299537D01*
X277883Y-299533D01*
X277879D01*
X277863D01*
X277844Y-299537D01*
X277813Y-299541D01*
X277782Y-299545D01*
X277743Y-299556D01*
X277704Y-299568D01*
X277661Y-299587D01*
X277623Y-299610D01*
X277584Y-299638D01*
X277545Y-299673D01*
X277514Y-299715D01*
X277483Y-299766D01*
X277464Y-299824D01*
X277448Y-299890D01*
X277444Y-299967D01*
Y-300002D01*
X277452Y-300037D01*
X277460Y-300084D01*
X277475Y-300134D01*
X277495Y-300189D01*
X277526Y-300243D01*
X277564Y-300293D01*
X277568Y-300297D01*
X277584Y-300313D01*
X277611Y-300332D01*
X277646Y-300352D01*
X277689Y-300375D01*
X277743Y-300394D01*
X277805Y-300410D01*
X277871Y-300414D01*
Y-300728D01*
X277867D01*
X277859D01*
X277844D01*
X277820Y-300724D01*
X277797Y-300720D01*
X277766Y-300716D01*
X277700Y-300701D01*
X277623Y-300677D01*
X277541Y-300639D01*
X277498Y-300611D01*
X277460Y-300584D01*
X277421Y-300553D01*
X277382Y-300515D01*
X277378Y-300511D01*
X277374Y-300503D01*
X277363Y-300491D01*
X277351Y-300476D01*
X277335Y-300452D01*
X277320Y-300429D01*
X277301Y-300398D01*
X277281Y-300363D01*
X277246Y-300286D01*
X277215Y-300192D01*
X277192Y-300084D01*
X277188Y-300029D01*
X277184Y-299967D01*
Y-299933D01*
X277188Y-299909D01*
Y-299878D01*
X277192Y-299843D01*
X277207Y-299766D01*
X277231Y-299676D01*
X277262Y-299587D01*
X277308Y-299498D01*
X277339Y-299455D01*
X277370Y-299416D01*
X277374Y-299413D01*
X277378Y-299409D01*
X277390Y-299397D01*
X277405Y-299385D01*
X277425Y-299370D01*
X277448Y-299354D01*
X277475Y-299335D01*
X277506Y-299316D01*
X277580Y-299277D01*
X277665Y-299246D01*
X277770Y-299222D01*
X277824Y-299219D01*
X277886Y-299215D01*
X277894D01*
X277913D01*
X277945Y-299219D01*
X277987Y-299226D01*
X278034Y-299242D01*
X278088Y-299257D01*
X278142Y-299285D01*
X278201Y-299320D01*
X278208Y-299323D01*
X278224Y-299339D01*
X278251Y-299362D01*
X278286Y-299393D01*
X278325Y-299436D01*
X278360Y-299486D01*
X278398Y-299541D01*
X278430Y-299607D01*
Y-299603D01*
X278433Y-299599D01*
X278437Y-299587D01*
X278441Y-299572D01*
X278457Y-299537D01*
X278480Y-299490D01*
X278507Y-299440D01*
X278546Y-299385D01*
X278589Y-299335D01*
X278643Y-299292D01*
X278651Y-299288D01*
X278670Y-299273D01*
X278701Y-299257D01*
X278744Y-299234D01*
X278798Y-299215D01*
X278860Y-299195D01*
X278934Y-299184D01*
X279012Y-299180D01*
X279015D01*
X279027D01*
X279043D01*
X279066Y-299184D01*
D02*
G37*
G36*
X279702Y-301946D02*
X277599D01*
X277832Y-302583D01*
X277545D01*
X277207Y-301678D01*
Y-301628D01*
X279702D01*
Y-301946D01*
D02*
G37*
G36*
X278969Y-303106D02*
X279000Y-303110D01*
X279035Y-303114D01*
X279070Y-303122D01*
X279113Y-303130D01*
X279206Y-303157D01*
X279252Y-303172D01*
X279299Y-303196D01*
X279349Y-303223D01*
X279396Y-303250D01*
X279442Y-303285D01*
X279485Y-303324D01*
X279489Y-303327D01*
X279493Y-303335D01*
X279504Y-303347D01*
X279520Y-303362D01*
X279535Y-303386D01*
X279555Y-303413D01*
X279578Y-303444D01*
X279597Y-303479D01*
X279621Y-303518D01*
X279644Y-303564D01*
X279663Y-303615D01*
X279683Y-303665D01*
X279698Y-303723D01*
X279714Y-303785D01*
X279726Y-303847D01*
X279733Y-303917D01*
X279737Y-304003D01*
Y-304041D01*
X279733Y-304069D01*
X279729Y-304103D01*
X279726Y-304146D01*
X279718Y-304189D01*
X279710Y-304235D01*
X279683Y-304340D01*
X279644Y-304449D01*
X279621Y-304503D01*
X279590Y-304557D01*
X279559Y-304608D01*
X279520Y-304655D01*
X279516Y-304658D01*
X279508Y-304666D01*
X279497Y-304678D01*
X279481Y-304693D01*
X279458Y-304709D01*
X279431Y-304732D01*
X279396Y-304751D01*
X279361Y-304775D01*
X279322Y-304798D01*
X279275Y-304821D01*
X279225Y-304841D01*
X279171Y-304860D01*
X279113Y-304876D01*
X279050Y-304887D01*
X278984Y-304895D01*
X278915Y-304899D01*
X277219D01*
Y-304573D01*
X278903D01*
X278907D01*
X278915D01*
X278930D01*
X278946Y-304569D01*
X278969D01*
X278996Y-304565D01*
X279058Y-304554D01*
X279124Y-304538D01*
X279194Y-304511D01*
X279260Y-304476D01*
X279322Y-304426D01*
X279330Y-304418D01*
X279345Y-304398D01*
X279369Y-304363D01*
X279396Y-304317D01*
X279423Y-304259D01*
X279446Y-304185D01*
X279462Y-304100D01*
X279469Y-304003D01*
Y-303976D01*
X279466Y-303956D01*
Y-303933D01*
X279462Y-303906D01*
X279450Y-303844D01*
X279434Y-303774D01*
X279407Y-303704D01*
X279372Y-303638D01*
X279322Y-303576D01*
X279314Y-303568D01*
X279295Y-303553D01*
X279260Y-303529D01*
X279213Y-303502D01*
X279155Y-303475D01*
X279085Y-303452D01*
X279000Y-303436D01*
X278907Y-303428D01*
X277219D01*
Y-303102D01*
X278911D01*
X278915D01*
X278926D01*
X278946D01*
X278969Y-303106D01*
D02*
G37*
G36*
X262386Y-341950D02*
Y-341954D01*
Y-341966D01*
Y-341985D01*
X262383Y-342008D01*
X262379Y-342039D01*
X262375Y-342074D01*
X262367Y-342109D01*
X262359Y-342152D01*
X262332Y-342245D01*
X262317Y-342291D01*
X262293Y-342338D01*
X262266Y-342389D01*
X262239Y-342435D01*
X262204Y-342482D01*
X262165Y-342524D01*
X262161Y-342528D01*
X262154Y-342532D01*
X262142Y-342544D01*
X262126Y-342559D01*
X262103Y-342575D01*
X262076Y-342594D01*
X262045Y-342617D01*
X262010Y-342637D01*
X261971Y-342660D01*
X261925Y-342683D01*
X261874Y-342703D01*
X261824Y-342722D01*
X261766Y-342738D01*
X261704Y-342753D01*
X261642Y-342765D01*
X261572Y-342773D01*
X261486Y-342776D01*
X261448D01*
X261420Y-342773D01*
X261385Y-342769D01*
X261343Y-342765D01*
X261300Y-342757D01*
X261253Y-342749D01*
X261149Y-342722D01*
X261040Y-342683D01*
X260986Y-342660D01*
X260931Y-342629D01*
X260881Y-342598D01*
X260834Y-342559D01*
X260831Y-342555D01*
X260823Y-342548D01*
X260811Y-342536D01*
X260796Y-342520D01*
X260780Y-342497D01*
X260757Y-342470D01*
X260737Y-342435D01*
X260714Y-342400D01*
X260691Y-342361D01*
X260668Y-342315D01*
X260648Y-342264D01*
X260629Y-342210D01*
X260613Y-342152D01*
X260602Y-342090D01*
X260594Y-342024D01*
X260590Y-341954D01*
Y-340258D01*
X260916D01*
Y-341942D01*
Y-341946D01*
Y-341954D01*
Y-341969D01*
X260920Y-341985D01*
Y-342008D01*
X260924Y-342035D01*
X260935Y-342097D01*
X260951Y-342163D01*
X260978Y-342233D01*
X261013Y-342299D01*
X261063Y-342361D01*
X261071Y-342369D01*
X261090Y-342385D01*
X261125Y-342408D01*
X261172Y-342435D01*
X261230Y-342462D01*
X261304Y-342485D01*
X261389Y-342501D01*
X261486Y-342509D01*
X261513D01*
X261533Y-342505D01*
X261556D01*
X261583Y-342501D01*
X261645Y-342489D01*
X261715Y-342474D01*
X261785Y-342447D01*
X261851Y-342412D01*
X261913Y-342361D01*
X261921Y-342354D01*
X261936Y-342334D01*
X261960Y-342299D01*
X261987Y-342253D01*
X262014Y-342195D01*
X262037Y-342125D01*
X262053Y-342039D01*
X262060Y-341946D01*
Y-340258D01*
X262386D01*
Y-341950D01*
D02*
G37*
G36*
X265607Y-340227D02*
X265634D01*
X265669Y-340231D01*
X265746Y-340247D01*
X265832Y-340266D01*
X265925Y-340301D01*
X266010Y-340344D01*
X266053Y-340375D01*
X266092Y-340406D01*
X266096Y-340410D01*
X266100Y-340414D01*
X266111Y-340425D01*
X266123Y-340441D01*
X266138Y-340456D01*
X266154Y-340480D01*
X266193Y-340534D01*
X266231Y-340604D01*
X266263Y-340689D01*
X266286Y-340782D01*
X266290Y-340837D01*
X266294Y-340891D01*
Y-340895D01*
Y-340906D01*
X266290Y-340930D01*
X266286Y-340957D01*
X266278Y-340992D01*
X266270Y-341034D01*
X266255Y-341081D01*
X266235Y-341139D01*
X266212Y-341197D01*
X266181Y-341267D01*
X266142Y-341337D01*
X266096Y-341415D01*
X266045Y-341496D01*
X265983Y-341582D01*
X265910Y-341671D01*
X265828Y-341764D01*
X265164Y-342485D01*
X266410D01*
Y-342742D01*
X264784D01*
Y-342517D01*
X265642Y-341562D01*
X265646Y-341558D01*
X265650Y-341550D01*
X265661Y-341543D01*
X265673Y-341527D01*
X265708Y-341484D01*
X265746Y-341438D01*
X265789Y-341380D01*
X265832Y-341321D01*
X265875Y-341263D01*
X265906Y-341209D01*
X265910Y-341201D01*
X265917Y-341186D01*
X265929Y-341159D01*
X265944Y-341124D01*
X265956Y-341081D01*
X265968Y-341034D01*
X265975Y-340984D01*
X265979Y-340930D01*
Y-340926D01*
Y-340922D01*
Y-340899D01*
X265972Y-340860D01*
X265964Y-340817D01*
X265948Y-340767D01*
X265929Y-340712D01*
X265898Y-340662D01*
X265859Y-340612D01*
X265855Y-340608D01*
X265840Y-340592D01*
X265812Y-340573D01*
X265778Y-340546D01*
X265731Y-340522D01*
X265681Y-340503D01*
X265618Y-340487D01*
X265549Y-340483D01*
X265525D01*
X265510Y-340487D01*
X265467Y-340491D01*
X265413Y-340499D01*
X265355Y-340518D01*
X265293Y-340542D01*
X265234Y-340573D01*
X265180Y-340619D01*
X265176Y-340627D01*
X265161Y-340642D01*
X265141Y-340674D01*
X265118Y-340716D01*
X265091Y-340767D01*
X265071Y-340833D01*
X265056Y-340906D01*
X265052Y-340992D01*
X264734D01*
Y-340988D01*
Y-340976D01*
Y-340957D01*
X264738Y-340933D01*
X264742Y-340906D01*
X264745Y-340871D01*
X264761Y-340794D01*
X264788Y-340705D01*
X264808Y-340658D01*
X264827Y-340612D01*
X264854Y-340565D01*
X264881Y-340522D01*
X264916Y-340476D01*
X264955Y-340437D01*
X264959Y-340433D01*
X264967Y-340429D01*
X264978Y-340418D01*
X264994Y-340402D01*
X265017Y-340386D01*
X265044Y-340371D01*
X265075Y-340352D01*
X265114Y-340328D01*
X265153Y-340309D01*
X265196Y-340289D01*
X265246Y-340274D01*
X265300Y-340258D01*
X265355Y-340243D01*
X265417Y-340231D01*
X265479Y-340227D01*
X265549Y-340224D01*
X265584D01*
X265607Y-340227D01*
D02*
G37*
G36*
X263861Y-342742D02*
X263543D01*
Y-340639D01*
X262906Y-340871D01*
Y-340584D01*
X263810Y-340247D01*
X263861D01*
Y-342742D01*
D02*
G37*
G36*
X291758Y-296032D02*
X290757D01*
X290680Y-296711D01*
X290684D01*
X290688Y-296707D01*
X290699Y-296699D01*
X290711Y-296695D01*
X290750Y-296676D01*
X290800Y-296657D01*
X290862Y-296637D01*
X290932Y-296618D01*
X291010Y-296606D01*
X291095Y-296602D01*
X291126D01*
X291149Y-296606D01*
X291180Y-296610D01*
X291212Y-296614D01*
X291289Y-296630D01*
X291374Y-296657D01*
X291417Y-296676D01*
X291464Y-296695D01*
X291506Y-296723D01*
X291549Y-296754D01*
X291592Y-296789D01*
X291631Y-296827D01*
X291634Y-296831D01*
X291638Y-296839D01*
X291650Y-296851D01*
X291662Y-296870D01*
X291677Y-296889D01*
X291693Y-296920D01*
X291712Y-296952D01*
X291731Y-296986D01*
X291751Y-297029D01*
X291770Y-297076D01*
X291786Y-297126D01*
X291801Y-297180D01*
X291813Y-297239D01*
X291825Y-297301D01*
X291828Y-297367D01*
X291832Y-297436D01*
Y-297440D01*
Y-297452D01*
Y-297471D01*
X291828Y-297499D01*
X291825Y-297533D01*
X291821Y-297568D01*
X291817Y-297611D01*
X291805Y-297658D01*
X291782Y-297755D01*
X291743Y-297855D01*
X291720Y-297902D01*
X291693Y-297953D01*
X291662Y-297999D01*
X291623Y-298042D01*
X291619Y-298046D01*
X291615Y-298049D01*
X291603Y-298061D01*
X291584Y-298077D01*
X291564Y-298092D01*
X291537Y-298112D01*
X291510Y-298131D01*
X291475Y-298150D01*
X291437Y-298170D01*
X291394Y-298189D01*
X291343Y-298209D01*
X291293Y-298224D01*
X291239Y-298240D01*
X291180Y-298251D01*
X291114Y-298255D01*
X291049Y-298259D01*
X291018D01*
X290994Y-298255D01*
X290967D01*
X290932Y-298247D01*
X290858Y-298236D01*
X290773Y-298213D01*
X290684Y-298182D01*
X290595Y-298135D01*
X290548Y-298108D01*
X290509Y-298077D01*
X290505Y-298073D01*
X290501Y-298069D01*
X290490Y-298057D01*
X290478Y-298042D01*
X290459Y-298026D01*
X290443Y-298003D01*
X290424Y-297976D01*
X290404Y-297945D01*
X290362Y-297875D01*
X290323Y-297786D01*
X290292Y-297685D01*
X290280Y-297631D01*
X290272Y-297572D01*
X290571D01*
Y-297576D01*
Y-297580D01*
X290575Y-297592D01*
X290579Y-297607D01*
X290587Y-297646D01*
X290602Y-297693D01*
X290622Y-297747D01*
X290649Y-297801D01*
X290680Y-297852D01*
X290723Y-297898D01*
X290730Y-297902D01*
X290746Y-297914D01*
X290773Y-297933D01*
X290812Y-297949D01*
X290858Y-297968D01*
X290913Y-297988D01*
X290975Y-297999D01*
X291049Y-298003D01*
X291068D01*
X291083Y-297999D01*
X291122Y-297995D01*
X291173Y-297984D01*
X291227Y-297968D01*
X291285Y-297941D01*
X291339Y-297906D01*
X291390Y-297855D01*
X291394Y-297848D01*
X291409Y-297828D01*
X291429Y-297794D01*
X291456Y-297747D01*
X291479Y-297689D01*
X291499Y-297615D01*
X291514Y-297533D01*
X291518Y-297440D01*
Y-297436D01*
Y-297429D01*
Y-297417D01*
X291514Y-297398D01*
X291510Y-297351D01*
X291502Y-297297D01*
X291483Y-297231D01*
X291460Y-297165D01*
X291429Y-297099D01*
X291382Y-297037D01*
X291374Y-297029D01*
X291359Y-297014D01*
X291328Y-296990D01*
X291285Y-296959D01*
X291235Y-296932D01*
X291173Y-296909D01*
X291103Y-296893D01*
X291021Y-296885D01*
X290986D01*
X290951Y-296889D01*
X290905Y-296897D01*
X290851Y-296909D01*
X290800Y-296924D01*
X290746Y-296948D01*
X290699Y-296979D01*
X290614Y-297045D01*
X290362Y-296983D01*
X290490Y-295741D01*
X291758D01*
Y-296032D01*
D02*
G37*
G36*
X293508Y-297390D02*
X293854D01*
Y-297646D01*
X293508D01*
Y-298224D01*
X293190D01*
Y-297646D01*
X292061D01*
Y-297464D01*
X293171Y-295741D01*
X293508D01*
Y-297390D01*
D02*
G37*
G36*
X289039Y-295745D02*
X289074D01*
X289112Y-295753D01*
X289159Y-295757D01*
X289206Y-295764D01*
X289310Y-295788D01*
X289419Y-295822D01*
X289469Y-295846D01*
X289520Y-295869D01*
X289570Y-295900D01*
X289613Y-295935D01*
X289617Y-295939D01*
X289625Y-295943D01*
X289632Y-295954D01*
X289648Y-295970D01*
X289667Y-295989D01*
X289687Y-296012D01*
X289706Y-296044D01*
X289729Y-296075D01*
X289749Y-296113D01*
X289768Y-296152D01*
X289788Y-296199D01*
X289807Y-296249D01*
X289822Y-296304D01*
X289830Y-296362D01*
X289838Y-296424D01*
X289842Y-296490D01*
Y-296494D01*
Y-296501D01*
Y-296513D01*
Y-296529D01*
X289834Y-296571D01*
X289826Y-296630D01*
X289811Y-296691D01*
X289788Y-296761D01*
X289756Y-296831D01*
X289714Y-296897D01*
X289710Y-296905D01*
X289690Y-296924D01*
X289663Y-296955D01*
X289625Y-296994D01*
X289574Y-297033D01*
X289516Y-297076D01*
X289446Y-297114D01*
X289365Y-297149D01*
X289950Y-298205D01*
Y-298224D01*
X289597D01*
X289058Y-297219D01*
X288476D01*
Y-298224D01*
X288146D01*
Y-295741D01*
X289008D01*
X289039Y-295745D01*
D02*
G37*
G36*
X291605Y-302907D02*
X291951D01*
Y-303164D01*
X291605D01*
Y-303742D01*
X291287D01*
Y-303164D01*
X290158D01*
Y-302981D01*
X291268Y-301258D01*
X291605D01*
Y-302907D01*
D02*
G37*
G36*
X289095Y-301262D02*
X289130D01*
X289169Y-301270D01*
X289215Y-301274D01*
X289262Y-301282D01*
X289367Y-301305D01*
X289475Y-301340D01*
X289526Y-301363D01*
X289576Y-301386D01*
X289627Y-301417D01*
X289669Y-301452D01*
X289673Y-301456D01*
X289681Y-301460D01*
X289689Y-301472D01*
X289704Y-301487D01*
X289723Y-301507D01*
X289743Y-301530D01*
X289762Y-301561D01*
X289786Y-301592D01*
X289805Y-301631D01*
X289824Y-301670D01*
X289844Y-301716D01*
X289863Y-301767D01*
X289879Y-301821D01*
X289886Y-301879D01*
X289894Y-301941D01*
X289898Y-302007D01*
Y-302011D01*
Y-302019D01*
Y-302030D01*
Y-302046D01*
X289890Y-302089D01*
X289883Y-302147D01*
X289867Y-302209D01*
X289844Y-302279D01*
X289813Y-302349D01*
X289770Y-302415D01*
X289766Y-302422D01*
X289747Y-302442D01*
X289720Y-302473D01*
X289681Y-302512D01*
X289630Y-302550D01*
X289572Y-302593D01*
X289502Y-302632D01*
X289421Y-302667D01*
X290007Y-303722D01*
Y-303742D01*
X289654D01*
X289114Y-302737D01*
X288532D01*
Y-303742D01*
X288203D01*
Y-301258D01*
X289064D01*
X289095Y-301262D01*
D02*
G37*
G36*
X293060Y-301227D02*
X293087D01*
X293122Y-301231D01*
X293196Y-301247D01*
X293281Y-301270D01*
X293371Y-301301D01*
X293456Y-301348D01*
X293499Y-301379D01*
X293537Y-301410D01*
X293541Y-301414D01*
X293545Y-301417D01*
X293557Y-301429D01*
X293569Y-301445D01*
X293584Y-301460D01*
X293600Y-301483D01*
X293638Y-301542D01*
X293677Y-301611D01*
X293708Y-301697D01*
X293731Y-301794D01*
X293735Y-301848D01*
X293739Y-301906D01*
Y-301910D01*
Y-301914D01*
Y-301937D01*
X293735Y-301972D01*
X293728Y-302019D01*
X293716Y-302069D01*
X293697Y-302124D01*
X293673Y-302182D01*
X293638Y-302240D01*
X293635Y-302248D01*
X293619Y-302263D01*
X293600Y-302291D01*
X293569Y-302322D01*
X293530Y-302356D01*
X293487Y-302395D01*
X293433Y-302430D01*
X293375Y-302465D01*
X293378D01*
X293382Y-302469D01*
X293406Y-302481D01*
X293441Y-302500D01*
X293487Y-302527D01*
X293534Y-302562D01*
X293584Y-302605D01*
X293635Y-302651D01*
X293681Y-302710D01*
X293685Y-302717D01*
X293701Y-302737D01*
X293720Y-302772D01*
X293739Y-302814D01*
X293763Y-302869D01*
X293778Y-302931D01*
X293794Y-303000D01*
X293797Y-303074D01*
Y-303078D01*
Y-303090D01*
Y-303105D01*
X293794Y-303129D01*
X293790Y-303156D01*
X293786Y-303187D01*
X293770Y-303260D01*
X293743Y-303342D01*
X293704Y-303427D01*
X293681Y-303470D01*
X293654Y-303509D01*
X293619Y-303548D01*
X293580Y-303586D01*
X293576Y-303590D01*
X293569Y-303594D01*
X293557Y-303602D01*
X293541Y-303617D01*
X293518Y-303629D01*
X293491Y-303645D01*
X293464Y-303664D01*
X293429Y-303679D01*
X293386Y-303699D01*
X293343Y-303714D01*
X293297Y-303734D01*
X293247Y-303746D01*
X293134Y-303769D01*
X293072Y-303773D01*
X293006Y-303777D01*
X292971D01*
X292948Y-303773D01*
X292917Y-303769D01*
X292882Y-303765D01*
X292843Y-303761D01*
X292800Y-303753D01*
X292707Y-303730D01*
X292614Y-303695D01*
X292564Y-303676D01*
X292517Y-303648D01*
X292474Y-303621D01*
X292432Y-303586D01*
X292428Y-303583D01*
X292424Y-303579D01*
X292412Y-303567D01*
X292397Y-303552D01*
X292381Y-303532D01*
X292366Y-303509D01*
X292346Y-303482D01*
X292327Y-303451D01*
X292284Y-303377D01*
X292253Y-303288D01*
X292226Y-303187D01*
X292222Y-303132D01*
X292218Y-303074D01*
Y-303070D01*
Y-303066D01*
Y-303055D01*
Y-303039D01*
X292226Y-303000D01*
X292234Y-302954D01*
X292246Y-302896D01*
X292265Y-302834D01*
X292292Y-302772D01*
X292327Y-302710D01*
X292331Y-302702D01*
X292346Y-302682D01*
X292373Y-302655D01*
X292405Y-302616D01*
X292451Y-302578D01*
X292502Y-302539D01*
X292564Y-302500D01*
X292634Y-302465D01*
X292626Y-302461D01*
X292606Y-302450D01*
X292575Y-302430D01*
X292536Y-302403D01*
X292498Y-302372D01*
X292451Y-302333D01*
X292408Y-302287D01*
X292370Y-302236D01*
X292366Y-302228D01*
X292354Y-302209D01*
X292339Y-302182D01*
X292323Y-302139D01*
X292308Y-302093D01*
X292292Y-302034D01*
X292280Y-301972D01*
X292277Y-301906D01*
Y-301903D01*
Y-301891D01*
Y-301875D01*
X292280Y-301856D01*
X292284Y-301829D01*
X292288Y-301798D01*
X292300Y-301728D01*
X292323Y-301646D01*
X292362Y-301565D01*
X292381Y-301522D01*
X292408Y-301483D01*
X292440Y-301445D01*
X292474Y-301410D01*
X292478Y-301406D01*
X292482Y-301402D01*
X292494Y-301394D01*
X292509Y-301379D01*
X292533Y-301367D01*
X292556Y-301351D01*
X292583Y-301332D01*
X292618Y-301317D01*
X292692Y-301282D01*
X292785Y-301251D01*
X292890Y-301231D01*
X292944Y-301227D01*
X293006Y-301223D01*
X293037D01*
X293060Y-301227D01*
D02*
G37*
G36*
X294817Y-255437D02*
X293789Y-257742D01*
X293459D01*
X294483Y-255518D01*
X293137D01*
Y-255258D01*
X294817D01*
Y-255437D01*
D02*
G37*
G36*
X292586Y-256907D02*
X292931D01*
Y-257164D01*
X292586D01*
Y-257742D01*
X292268D01*
Y-257164D01*
X291139D01*
Y-256981D01*
X292248Y-255258D01*
X292586D01*
Y-256907D01*
D02*
G37*
G36*
X290075Y-255262D02*
X290110D01*
X290149Y-255270D01*
X290196Y-255274D01*
X290242Y-255282D01*
X290347Y-255305D01*
X290456Y-255340D01*
X290506Y-255363D01*
X290557Y-255386D01*
X290607Y-255417D01*
X290650Y-255452D01*
X290654Y-255456D01*
X290661Y-255460D01*
X290669Y-255472D01*
X290685Y-255487D01*
X290704Y-255507D01*
X290723Y-255530D01*
X290743Y-255561D01*
X290766Y-255592D01*
X290786Y-255631D01*
X290805Y-255670D01*
X290824Y-255716D01*
X290844Y-255767D01*
X290859Y-255821D01*
X290867Y-255879D01*
X290875Y-255941D01*
X290879Y-256007D01*
Y-256011D01*
Y-256019D01*
Y-256031D01*
Y-256046D01*
X290871Y-256089D01*
X290863Y-256147D01*
X290848Y-256209D01*
X290824Y-256279D01*
X290793Y-256349D01*
X290751Y-256415D01*
X290747Y-256422D01*
X290727Y-256442D01*
X290700Y-256473D01*
X290661Y-256512D01*
X290611Y-256550D01*
X290553Y-256593D01*
X290483Y-256632D01*
X290401Y-256667D01*
X290987Y-257722D01*
Y-257742D01*
X290634D01*
X290095Y-256737D01*
X289513D01*
Y-257742D01*
X289183D01*
Y-255258D01*
X290044D01*
X290075Y-255262D01*
D02*
G37*
G36*
X277681Y-313492D02*
X278259D01*
Y-313810D01*
X277681D01*
Y-314939D01*
X277499D01*
X275776Y-313829D01*
Y-313492D01*
X277425D01*
Y-313146D01*
X277681D01*
Y-313492D01*
D02*
G37*
G36*
X278259Y-316782D02*
X278034D01*
X277080Y-315924D01*
X277076Y-315920D01*
X277068Y-315917D01*
X277060Y-315905D01*
X277045Y-315893D01*
X277002Y-315858D01*
X276955Y-315820D01*
X276897Y-315777D01*
X276839Y-315734D01*
X276781Y-315691D01*
X276727Y-315661D01*
X276719Y-315657D01*
X276703Y-315649D01*
X276676Y-315637D01*
X276641Y-315622D01*
X276598Y-315610D01*
X276552Y-315598D01*
X276501Y-315591D01*
X276447Y-315587D01*
X276443D01*
X276439D01*
X276416D01*
X276377Y-315595D01*
X276335Y-315602D01*
X276284Y-315618D01*
X276230Y-315637D01*
X276179Y-315668D01*
X276129Y-315707D01*
X276125Y-315711D01*
X276110Y-315726D01*
X276090Y-315754D01*
X276063Y-315789D01*
X276040Y-315835D01*
X276020Y-315885D01*
X276005Y-315948D01*
X276001Y-316018D01*
Y-316041D01*
X276005Y-316056D01*
X276009Y-316099D01*
X276016Y-316153D01*
X276036Y-316212D01*
X276059Y-316273D01*
X276090Y-316332D01*
X276137Y-316386D01*
X276145Y-316390D01*
X276160Y-316406D01*
X276191Y-316425D01*
X276234Y-316448D01*
X276284Y-316475D01*
X276350Y-316495D01*
X276424Y-316510D01*
X276509Y-316514D01*
Y-316832D01*
X276505D01*
X276494D01*
X276474D01*
X276451Y-316828D01*
X276424Y-316825D01*
X276389Y-316821D01*
X276311Y-316805D01*
X276222Y-316778D01*
X276175Y-316758D01*
X276129Y-316739D01*
X276082Y-316712D01*
X276040Y-316685D01*
X275993Y-316650D01*
X275954Y-316611D01*
X275951Y-316607D01*
X275947Y-316599D01*
X275935Y-316588D01*
X275919Y-316572D01*
X275904Y-316549D01*
X275888Y-316522D01*
X275869Y-316491D01*
X275846Y-316452D01*
X275826Y-316413D01*
X275807Y-316371D01*
X275791Y-316320D01*
X275776Y-316266D01*
X275760Y-316212D01*
X275749Y-316149D01*
X275745Y-316087D01*
X275741Y-316018D01*
Y-315983D01*
X275745Y-315959D01*
Y-315932D01*
X275749Y-315897D01*
X275764Y-315820D01*
X275784Y-315734D01*
X275818Y-315641D01*
X275861Y-315556D01*
X275892Y-315513D01*
X275923Y-315474D01*
X275927Y-315470D01*
X275931Y-315466D01*
X275943Y-315455D01*
X275958Y-315443D01*
X275974Y-315428D01*
X275997Y-315412D01*
X276051Y-315373D01*
X276121Y-315335D01*
X276206Y-315303D01*
X276300Y-315280D01*
X276354Y-315276D01*
X276408Y-315272D01*
X276412D01*
X276424D01*
X276447Y-315276D01*
X276474Y-315280D01*
X276509Y-315288D01*
X276552Y-315296D01*
X276598Y-315311D01*
X276657Y-315331D01*
X276715Y-315354D01*
X276785Y-315385D01*
X276854Y-315424D01*
X276932Y-315470D01*
X277014Y-315521D01*
X277099Y-315583D01*
X277188Y-315657D01*
X277281Y-315738D01*
X278003Y-316402D01*
Y-315156D01*
X278259D01*
Y-316782D01*
D02*
G37*
G36*
Y-317403D02*
X277254Y-317942D01*
Y-318524D01*
X278259D01*
Y-318854D01*
X275776D01*
Y-317992D01*
X275780Y-317961D01*
Y-317926D01*
X275787Y-317888D01*
X275791Y-317841D01*
X275799Y-317794D01*
X275822Y-317690D01*
X275857Y-317581D01*
X275881Y-317531D01*
X275904Y-317480D01*
X275935Y-317430D01*
X275970Y-317387D01*
X275974Y-317383D01*
X275978Y-317375D01*
X275989Y-317368D01*
X276005Y-317352D01*
X276024Y-317333D01*
X276047Y-317313D01*
X276079Y-317294D01*
X276110Y-317271D01*
X276148Y-317251D01*
X276187Y-317232D01*
X276234Y-317213D01*
X276284Y-317193D01*
X276339Y-317178D01*
X276397Y-317170D01*
X276459Y-317162D01*
X276525Y-317158D01*
X276529D01*
X276536D01*
X276548D01*
X276564D01*
X276606Y-317166D01*
X276664Y-317174D01*
X276727Y-317189D01*
X276796Y-317213D01*
X276866Y-317244D01*
X276932Y-317286D01*
X276940Y-317290D01*
X276959Y-317309D01*
X276990Y-317337D01*
X277029Y-317375D01*
X277068Y-317426D01*
X277111Y-317484D01*
X277149Y-317554D01*
X277184Y-317635D01*
X278240Y-317050D01*
X278259D01*
Y-317403D01*
D02*
G37*
G36*
X282054Y-255247D02*
X281736D01*
Y-253145D01*
X281100Y-253377D01*
Y-253090D01*
X282004Y-252753D01*
X282054D01*
Y-255247D01*
D02*
G37*
G36*
X279563Y-252768D02*
X279590D01*
X279625Y-252772D01*
X279664Y-252776D01*
X279703Y-252784D01*
X279792Y-252799D01*
X279889Y-252826D01*
X279986Y-252861D01*
X280083Y-252908D01*
X280087D01*
X280095Y-252916D01*
X280106Y-252923D01*
X280126Y-252935D01*
X280168Y-252966D01*
X280223Y-253012D01*
X280285Y-253071D01*
X280351Y-253141D01*
X280413Y-253226D01*
X280467Y-253319D01*
Y-253323D01*
X280475Y-253331D01*
X280479Y-253346D01*
X280490Y-253366D01*
X280498Y-253389D01*
X280510Y-253420D01*
X280521Y-253455D01*
X280537Y-253494D01*
X280549Y-253536D01*
X280560Y-253583D01*
X280584Y-253684D01*
X280599Y-253800D01*
X280607Y-253924D01*
Y-254083D01*
Y-254087D01*
Y-254099D01*
Y-254118D01*
X280603Y-254142D01*
Y-254173D01*
X280599Y-254208D01*
X280595Y-254246D01*
X280591Y-254293D01*
X280572Y-254386D01*
X280549Y-254491D01*
X280518Y-254596D01*
X280471Y-254700D01*
Y-254704D01*
X280463Y-254712D01*
X280455Y-254724D01*
X280448Y-254743D01*
X280432Y-254766D01*
X280417Y-254790D01*
X280370Y-254852D01*
X280316Y-254914D01*
X280250Y-254984D01*
X280172Y-255049D01*
X280083Y-255108D01*
X280079D01*
X280071Y-255116D01*
X280056Y-255119D01*
X280040Y-255131D01*
X280013Y-255139D01*
X279986Y-255150D01*
X279951Y-255166D01*
X279916Y-255178D01*
X279873Y-255189D01*
X279831Y-255205D01*
X279730Y-255224D01*
X279617Y-255240D01*
X279497Y-255247D01*
X278810D01*
Y-252764D01*
X279540D01*
X279563Y-252768D01*
D02*
G37*
G36*
X278384Y-253032D02*
X277150D01*
Y-253831D01*
X278224D01*
Y-254099D01*
X277150D01*
Y-254980D01*
X278399D01*
Y-255247D01*
X276824D01*
Y-252764D01*
X278384D01*
Y-253032D01*
D02*
G37*
G36*
X275276Y-254980D02*
X276451D01*
Y-255247D01*
X274946D01*
Y-252764D01*
X275276D01*
Y-254980D01*
D02*
G37*
G36*
X317413Y-290247D02*
X317410D01*
X317406D01*
X317394D01*
X317379Y-290251D01*
X317340Y-290255D01*
X317293Y-290262D01*
X317239Y-290274D01*
X317185Y-290297D01*
X317130Y-290324D01*
X317080Y-290363D01*
X317076Y-290367D01*
X317060Y-290387D01*
X317045Y-290414D01*
X317022Y-290449D01*
X317002Y-290499D01*
X316983Y-290557D01*
X316967Y-290627D01*
X316964Y-290705D01*
Y-290724D01*
X316967Y-290740D01*
X316971Y-290774D01*
X316979Y-290821D01*
X316995Y-290872D01*
X317018Y-290926D01*
X317045Y-290980D01*
X317088Y-291031D01*
X317095Y-291035D01*
X317111Y-291050D01*
X317142Y-291069D01*
X317181Y-291093D01*
X317231Y-291116D01*
X317293Y-291135D01*
X317367Y-291151D01*
X317448Y-291159D01*
X319214D01*
Y-291488D01*
X317452D01*
X317448D01*
X317437D01*
X317417D01*
X317394Y-291484D01*
X317363Y-291481D01*
X317328Y-291477D01*
X317251Y-291461D01*
X317158Y-291434D01*
X317064Y-291395D01*
X317022Y-291372D01*
X316975Y-291345D01*
X316932Y-291310D01*
X316894Y-291271D01*
X316890Y-291267D01*
X316886Y-291260D01*
X316874Y-291248D01*
X316863Y-291232D01*
X316847Y-291209D01*
X316832Y-291186D01*
X316812Y-291155D01*
X316797Y-291120D01*
X316777Y-291081D01*
X316758Y-291038D01*
X316742Y-290992D01*
X316727Y-290941D01*
X316704Y-290829D01*
X316700Y-290771D01*
X316696Y-290705D01*
Y-290670D01*
X316700Y-290643D01*
Y-290612D01*
X316707Y-290577D01*
X316711Y-290538D01*
X316719Y-290491D01*
X316742Y-290398D01*
X316773Y-290305D01*
X316820Y-290212D01*
X316851Y-290165D01*
X316882Y-290126D01*
X316886Y-290123D01*
X316890Y-290119D01*
X316901Y-290107D01*
X316917Y-290095D01*
X316936Y-290080D01*
X316960Y-290061D01*
X316987Y-290041D01*
X317022Y-290026D01*
X317057Y-290006D01*
X317095Y-289987D01*
X317138Y-289967D01*
X317189Y-289952D01*
X317293Y-289929D01*
X317352Y-289925D01*
X317413Y-289921D01*
Y-290247D01*
D02*
G37*
G36*
X319226Y-292951D02*
Y-293002D01*
X316731D01*
Y-292683D01*
X318834D01*
X318601Y-292047D01*
X318888D01*
X319226Y-292951D01*
D02*
G37*
G36*
Y-294911D02*
Y-294961D01*
X316731D01*
Y-294643D01*
X318834D01*
X318601Y-294006D01*
X318888D01*
X319226Y-294911D01*
D02*
G37*
G36*
X258787Y-259520D02*
Y-259524D01*
Y-259535D01*
Y-259555D01*
X258784Y-259578D01*
X258780Y-259609D01*
X258776Y-259644D01*
X258760Y-259722D01*
X258733Y-259815D01*
X258694Y-259908D01*
X258671Y-259951D01*
X258644Y-259997D01*
X258609Y-260040D01*
X258570Y-260079D01*
X258566Y-260083D01*
X258559Y-260086D01*
X258547Y-260098D01*
X258531Y-260110D01*
X258508Y-260125D01*
X258485Y-260141D01*
X258454Y-260160D01*
X258419Y-260176D01*
X258380Y-260195D01*
X258337Y-260214D01*
X258291Y-260230D01*
X258240Y-260245D01*
X258128Y-260269D01*
X258070Y-260273D01*
X258004Y-260277D01*
X257969D01*
X257942Y-260273D01*
X257911D01*
X257876Y-260265D01*
X257837Y-260261D01*
X257790Y-260253D01*
X257697Y-260230D01*
X257604Y-260199D01*
X257511Y-260152D01*
X257464Y-260121D01*
X257426Y-260090D01*
X257422Y-260086D01*
X257418Y-260083D01*
X257406Y-260071D01*
X257395Y-260055D01*
X257379Y-260036D01*
X257360Y-260013D01*
X257340Y-259985D01*
X257325Y-259951D01*
X257305Y-259916D01*
X257286Y-259877D01*
X257266Y-259834D01*
X257251Y-259784D01*
X257228Y-259679D01*
X257224Y-259621D01*
X257220Y-259559D01*
X257546D01*
Y-259563D01*
Y-259566D01*
Y-259578D01*
X257550Y-259594D01*
X257554Y-259632D01*
X257561Y-259679D01*
X257573Y-259733D01*
X257596Y-259788D01*
X257624Y-259842D01*
X257662Y-259892D01*
X257666Y-259896D01*
X257686Y-259912D01*
X257713Y-259927D01*
X257748Y-259951D01*
X257798Y-259970D01*
X257856Y-259989D01*
X257926Y-260005D01*
X258004Y-260009D01*
X258023D01*
X258039Y-260005D01*
X258074Y-260001D01*
X258120Y-259993D01*
X258171Y-259978D01*
X258225Y-259955D01*
X258279Y-259927D01*
X258330Y-259885D01*
X258333Y-259877D01*
X258349Y-259861D01*
X258368Y-259830D01*
X258392Y-259791D01*
X258415Y-259741D01*
X258434Y-259679D01*
X258450Y-259605D01*
X258458Y-259524D01*
Y-257758D01*
X258787D01*
Y-259520D01*
D02*
G37*
G36*
X260301Y-260242D02*
X259982D01*
Y-258139D01*
X259346Y-258371D01*
Y-258084D01*
X260250Y-257747D01*
X260301D01*
Y-260242D01*
D02*
G37*
G36*
X262062Y-257727D02*
X262093Y-257731D01*
X262132Y-257739D01*
X262175Y-257747D01*
X262221Y-257754D01*
X262314Y-257786D01*
X262365Y-257809D01*
X262415Y-257832D01*
X262462Y-257863D01*
X262505Y-257898D01*
X262547Y-257937D01*
X262586Y-257983D01*
X262590Y-257987D01*
X262594Y-257995D01*
X262605Y-258011D01*
X262617Y-258030D01*
X262629Y-258057D01*
X262648Y-258092D01*
X262664Y-258131D01*
X262683Y-258177D01*
X262699Y-258232D01*
X262718Y-258290D01*
X262734Y-258356D01*
X262749Y-258426D01*
X262761Y-258503D01*
X262772Y-258589D01*
X262776Y-258678D01*
X262780Y-258775D01*
Y-259186D01*
Y-259194D01*
Y-259209D01*
Y-259241D01*
X262776Y-259276D01*
Y-259322D01*
X262768Y-259376D01*
X262765Y-259435D01*
X262757Y-259497D01*
X262734Y-259632D01*
X262699Y-259768D01*
X262679Y-259834D01*
X262652Y-259896D01*
X262625Y-259955D01*
X262590Y-260009D01*
X262586Y-260013D01*
X262582Y-260020D01*
X262571Y-260032D01*
X262555Y-260051D01*
X262536Y-260071D01*
X262508Y-260094D01*
X262477Y-260117D01*
X262446Y-260141D01*
X262407Y-260168D01*
X262361Y-260191D01*
X262314Y-260214D01*
X262260Y-260234D01*
X262202Y-260253D01*
X262140Y-260265D01*
X262074Y-260273D01*
X262000Y-260277D01*
X261961D01*
X261934Y-260273D01*
X261903Y-260269D01*
X261864Y-260261D01*
X261822Y-260253D01*
X261775Y-260245D01*
X261682Y-260214D01*
X261631Y-260191D01*
X261581Y-260168D01*
X261535Y-260137D01*
X261492Y-260102D01*
X261449Y-260063D01*
X261410Y-260017D01*
X261406Y-260013D01*
X261403Y-260005D01*
X261391Y-259989D01*
X261379Y-259966D01*
X261368Y-259939D01*
X261348Y-259904D01*
X261333Y-259865D01*
X261313Y-259819D01*
X261298Y-259768D01*
X261279Y-259710D01*
X261263Y-259644D01*
X261247Y-259574D01*
X261232Y-259497D01*
X261224Y-259411D01*
X261216Y-259322D01*
X261212Y-259229D01*
Y-258806D01*
Y-258798D01*
Y-258783D01*
Y-258756D01*
X261216Y-258717D01*
X261220Y-258670D01*
X261224Y-258620D01*
X261228Y-258562D01*
X261236Y-258500D01*
X261259Y-258368D01*
X261294Y-258232D01*
X261313Y-258166D01*
X261340Y-258104D01*
X261368Y-258046D01*
X261403Y-257991D01*
X261406Y-257987D01*
X261410Y-257980D01*
X261422Y-257968D01*
X261438Y-257948D01*
X261461Y-257929D01*
X261484Y-257906D01*
X261515Y-257883D01*
X261550Y-257855D01*
X261589Y-257832D01*
X261631Y-257809D01*
X261678Y-257786D01*
X261732Y-257766D01*
X261791Y-257747D01*
X261857Y-257735D01*
X261923Y-257727D01*
X261996Y-257723D01*
X262035D01*
X262062Y-257727D01*
D02*
G37*
G36*
X293927Y-264227D02*
X293962Y-264231D01*
X294000Y-264235D01*
X294043Y-264243D01*
X294090Y-264251D01*
X294191Y-264278D01*
X294241Y-264293D01*
X294295Y-264317D01*
X294346Y-264344D01*
X294400Y-264371D01*
X294447Y-264406D01*
X294493Y-264445D01*
X294497Y-264448D01*
X294505Y-264456D01*
X294516Y-264468D01*
X294532Y-264483D01*
X294551Y-264507D01*
X294571Y-264534D01*
X294594Y-264569D01*
X294617Y-264604D01*
X294644Y-264646D01*
X294668Y-264693D01*
X294691Y-264743D01*
X294714Y-264798D01*
X294734Y-264856D01*
X294749Y-264918D01*
X294765Y-264988D01*
X294773Y-265058D01*
X294447D01*
Y-265054D01*
X294443Y-265046D01*
Y-265031D01*
X294439Y-265007D01*
X294431Y-264984D01*
X294427Y-264957D01*
X294408Y-264891D01*
X294381Y-264821D01*
X294350Y-264751D01*
X294311Y-264681D01*
X294287Y-264654D01*
X294260Y-264627D01*
X294253Y-264619D01*
X294233Y-264604D01*
X294202Y-264584D01*
X294156Y-264557D01*
X294101Y-264534D01*
X294031Y-264511D01*
X293950Y-264495D01*
X293861Y-264491D01*
X293830D01*
X293810Y-264495D01*
X293783Y-264499D01*
X293752Y-264503D01*
X293682Y-264518D01*
X293601Y-264549D01*
X293562Y-264565D01*
X293519Y-264588D01*
X293480Y-264615D01*
X293442Y-264646D01*
X293403Y-264681D01*
X293368Y-264724D01*
Y-264728D01*
X293360Y-264736D01*
X293352Y-264747D01*
X293341Y-264767D01*
X293329Y-264790D01*
X293314Y-264821D01*
X293298Y-264856D01*
X293283Y-264895D01*
X293263Y-264937D01*
X293248Y-264988D01*
X293232Y-265042D01*
X293220Y-265100D01*
X293209Y-265166D01*
X293201Y-265236D01*
X293197Y-265310D01*
X293193Y-265388D01*
Y-265628D01*
Y-265632D01*
Y-265647D01*
Y-265667D01*
X293197Y-265694D01*
Y-265729D01*
X293201Y-265768D01*
X293209Y-265810D01*
X293213Y-265861D01*
X293236Y-265962D01*
X293263Y-266070D01*
X293306Y-266175D01*
X293329Y-266226D01*
X293360Y-266272D01*
X293364Y-266276D01*
X293368Y-266284D01*
X293380Y-266295D01*
X293391Y-266307D01*
X293430Y-266346D01*
X293484Y-266389D01*
X293550Y-266435D01*
X293632Y-266470D01*
X293678Y-266486D01*
X293725Y-266497D01*
X293779Y-266505D01*
X293833Y-266509D01*
X293861D01*
X293880Y-266505D01*
X293899D01*
X293927Y-266501D01*
X293989Y-266493D01*
X294055Y-266478D01*
X294125Y-266458D01*
X294191Y-266427D01*
X294249Y-266389D01*
X294256Y-266381D01*
X294272Y-266365D01*
X294299Y-266334D01*
X294330Y-266288D01*
X294361Y-266229D01*
X294377Y-266195D01*
X294396Y-266156D01*
X294408Y-266113D01*
X294423Y-266063D01*
X294435Y-266012D01*
X294447Y-265958D01*
X294773D01*
Y-265962D01*
X294769Y-265973D01*
Y-265997D01*
X294761Y-266024D01*
X294757Y-266055D01*
X294745Y-266094D01*
X294734Y-266136D01*
X294722Y-266179D01*
X294683Y-266276D01*
X294633Y-266377D01*
X294602Y-266427D01*
X294567Y-266474D01*
X294524Y-266520D01*
X294481Y-266563D01*
X294478Y-266567D01*
X294470Y-266571D01*
X294458Y-266582D01*
X294439Y-266598D01*
X294412Y-266614D01*
X294385Y-266629D01*
X294350Y-266649D01*
X294311Y-266668D01*
X294264Y-266691D01*
X294218Y-266711D01*
X294163Y-266726D01*
X294105Y-266742D01*
X294043Y-266757D01*
X293977Y-266769D01*
X293907Y-266773D01*
X293833Y-266776D01*
X293814D01*
X293791Y-266773D01*
X293760D01*
X293725Y-266765D01*
X293678Y-266761D01*
X293632Y-266749D01*
X293581Y-266738D01*
X293523Y-266722D01*
X293469Y-266699D01*
X293407Y-266676D01*
X293349Y-266645D01*
X293290Y-266610D01*
X293232Y-266567D01*
X293178Y-266517D01*
X293127Y-266462D01*
X293124Y-266458D01*
X293116Y-266447D01*
X293104Y-266431D01*
X293085Y-266404D01*
X293065Y-266373D01*
X293046Y-266334D01*
X293019Y-266291D01*
X292996Y-266237D01*
X292972Y-266183D01*
X292949Y-266117D01*
X292926Y-266047D01*
X292906Y-265973D01*
X292887Y-265892D01*
X292875Y-265807D01*
X292867Y-265713D01*
X292863Y-265616D01*
Y-265380D01*
Y-265376D01*
Y-265364D01*
Y-265345D01*
X292867Y-265321D01*
Y-265290D01*
X292871Y-265256D01*
X292875Y-265217D01*
X292879Y-265174D01*
X292895Y-265081D01*
X292918Y-264976D01*
X292945Y-264871D01*
X292988Y-264771D01*
Y-264767D01*
X292996Y-264759D01*
X292999Y-264743D01*
X293011Y-264728D01*
X293023Y-264705D01*
X293038Y-264681D01*
X293077Y-264619D01*
X293127Y-264557D01*
X293190Y-264487D01*
X293259Y-264425D01*
X293337Y-264367D01*
X293341D01*
X293349Y-264359D01*
X293360Y-264355D01*
X293376Y-264344D01*
X293399Y-264332D01*
X293422Y-264320D01*
X293453Y-264309D01*
X293488Y-264293D01*
X293562Y-264270D01*
X293651Y-264247D01*
X293752Y-264231D01*
X293861Y-264224D01*
X293899D01*
X293927Y-264227D01*
D02*
G37*
G36*
X298136Y-266742D02*
X297818D01*
Y-264639D01*
X297182Y-264871D01*
Y-264584D01*
X298086Y-264247D01*
X298136D01*
Y-266742D01*
D02*
G37*
G36*
X295964Y-264227D02*
X295991D01*
X296026Y-264231D01*
X296103Y-264247D01*
X296189Y-264266D01*
X296282Y-264301D01*
X296367Y-264344D01*
X296410Y-264375D01*
X296449Y-264406D01*
X296452Y-264410D01*
X296456Y-264414D01*
X296468Y-264425D01*
X296480Y-264441D01*
X296495Y-264456D01*
X296511Y-264480D01*
X296550Y-264534D01*
X296588Y-264604D01*
X296619Y-264689D01*
X296643Y-264782D01*
X296646Y-264837D01*
X296650Y-264891D01*
Y-264895D01*
Y-264906D01*
X296646Y-264930D01*
X296643Y-264957D01*
X296635Y-264992D01*
X296627Y-265034D01*
X296612Y-265081D01*
X296592Y-265139D01*
X296569Y-265197D01*
X296538Y-265267D01*
X296499Y-265337D01*
X296452Y-265415D01*
X296402Y-265496D01*
X296340Y-265581D01*
X296266Y-265671D01*
X296185Y-265764D01*
X295521Y-266486D01*
X296767D01*
Y-266742D01*
X295141D01*
Y-266517D01*
X295999Y-265562D01*
X296003Y-265558D01*
X296006Y-265550D01*
X296018Y-265543D01*
X296030Y-265527D01*
X296064Y-265484D01*
X296103Y-265438D01*
X296146Y-265380D01*
X296189Y-265321D01*
X296231Y-265263D01*
X296262Y-265209D01*
X296266Y-265201D01*
X296274Y-265186D01*
X296286Y-265159D01*
X296301Y-265124D01*
X296313Y-265081D01*
X296324Y-265034D01*
X296332Y-264984D01*
X296336Y-264930D01*
Y-264926D01*
Y-264922D01*
Y-264899D01*
X296328Y-264860D01*
X296321Y-264817D01*
X296305Y-264767D01*
X296286Y-264712D01*
X296255Y-264662D01*
X296216Y-264612D01*
X296212Y-264608D01*
X296197Y-264592D01*
X296169Y-264573D01*
X296134Y-264545D01*
X296088Y-264522D01*
X296037Y-264503D01*
X295975Y-264487D01*
X295905Y-264483D01*
X295882D01*
X295867Y-264487D01*
X295824Y-264491D01*
X295770Y-264499D01*
X295711Y-264518D01*
X295649Y-264542D01*
X295591Y-264573D01*
X295537Y-264619D01*
X295533Y-264627D01*
X295517Y-264643D01*
X295498Y-264674D01*
X295475Y-264716D01*
X295448Y-264767D01*
X295428Y-264833D01*
X295413Y-264906D01*
X295409Y-264992D01*
X295091D01*
Y-264988D01*
Y-264976D01*
Y-264957D01*
X295094Y-264933D01*
X295098Y-264906D01*
X295102Y-264871D01*
X295118Y-264794D01*
X295145Y-264705D01*
X295164Y-264658D01*
X295184Y-264612D01*
X295211Y-264565D01*
X295238Y-264522D01*
X295273Y-264476D01*
X295312Y-264437D01*
X295316Y-264433D01*
X295323Y-264429D01*
X295335Y-264418D01*
X295351Y-264402D01*
X295374Y-264386D01*
X295401Y-264371D01*
X295432Y-264352D01*
X295471Y-264328D01*
X295510Y-264309D01*
X295552Y-264289D01*
X295603Y-264274D01*
X295657Y-264258D01*
X295711Y-264243D01*
X295774Y-264231D01*
X295836Y-264227D01*
X295905Y-264224D01*
X295940D01*
X295964Y-264227D01*
D02*
G37*
G36*
X252566Y-337225D02*
X252593Y-337229D01*
X252628Y-337233D01*
X252702Y-337248D01*
X252787Y-337275D01*
X252876Y-337314D01*
X252919Y-337337D01*
X252962Y-337365D01*
X253004Y-337400D01*
X253043Y-337438D01*
X253047Y-337442D01*
X253051Y-337450D01*
X253063Y-337462D01*
X253074Y-337477D01*
X253090Y-337500D01*
X253105Y-337524D01*
X253121Y-337555D01*
X253140Y-337590D01*
X253160Y-337629D01*
X253175Y-337671D01*
X253206Y-337768D01*
X253229Y-337881D01*
X253233Y-337939D01*
X253237Y-338005D01*
Y-338040D01*
X253233Y-338063D01*
Y-338094D01*
X253226Y-338125D01*
X253222Y-338164D01*
X253214Y-338207D01*
X253191Y-338296D01*
X253160Y-338393D01*
X253113Y-338486D01*
X253082Y-338532D01*
X253051Y-338575D01*
X253047Y-338579D01*
X253043Y-338583D01*
X253032Y-338595D01*
X253016Y-338610D01*
X252997Y-338626D01*
X252973Y-338645D01*
X252915Y-338684D01*
X252845Y-338723D01*
X252760Y-338757D01*
X252659Y-338785D01*
X252609Y-338789D01*
X252550Y-338792D01*
Y-338474D01*
X252554D01*
X252558D01*
X252582Y-338470D01*
X252620Y-338467D01*
X252663Y-338459D01*
X252713Y-338443D01*
X252768Y-338420D01*
X252818Y-338393D01*
X252865Y-338350D01*
X252869Y-338342D01*
X252884Y-338327D01*
X252900Y-338300D01*
X252923Y-338257D01*
X252942Y-338210D01*
X252962Y-338148D01*
X252977Y-338082D01*
X252981Y-338005D01*
Y-337982D01*
X252977Y-337966D01*
X252973Y-337927D01*
X252966Y-337877D01*
X252954Y-337819D01*
X252931Y-337760D01*
X252904Y-337706D01*
X252865Y-337656D01*
X252861Y-337652D01*
X252841Y-337636D01*
X252814Y-337617D01*
X252776Y-337594D01*
X252729Y-337574D01*
X252667Y-337555D01*
X252597Y-337539D01*
X252519Y-337535D01*
X252516D01*
X252512D01*
X252500D01*
X252484D01*
X252446Y-337543D01*
X252395Y-337551D01*
X252341Y-337566D01*
X252287Y-337590D01*
X252232Y-337625D01*
X252186Y-337667D01*
X252182Y-337675D01*
X252166Y-337690D01*
X252147Y-337722D01*
X252124Y-337764D01*
X252104Y-337819D01*
X252081Y-337884D01*
X252069Y-337962D01*
X252062Y-338051D01*
Y-338288D01*
X251805D01*
Y-338013D01*
X251798Y-337974D01*
X251790Y-337923D01*
X251778Y-337869D01*
X251759Y-337811D01*
X251732Y-337753D01*
X251693Y-337702D01*
X251689Y-337698D01*
X251670Y-337683D01*
X251646Y-337663D01*
X251611Y-337636D01*
X251565Y-337613D01*
X251515Y-337594D01*
X251452Y-337578D01*
X251382Y-337574D01*
X251379D01*
X251363D01*
X251344Y-337578D01*
X251313Y-337582D01*
X251282Y-337586D01*
X251243Y-337597D01*
X251204Y-337609D01*
X251161Y-337629D01*
X251123Y-337652D01*
X251084Y-337679D01*
X251045Y-337714D01*
X251014Y-337756D01*
X250983Y-337807D01*
X250963Y-337865D01*
X250948Y-337931D01*
X250944Y-338009D01*
Y-338044D01*
X250952Y-338078D01*
X250960Y-338125D01*
X250975Y-338176D01*
X250994Y-338230D01*
X251026Y-338284D01*
X251064Y-338335D01*
X251068Y-338338D01*
X251084Y-338354D01*
X251111Y-338373D01*
X251146Y-338393D01*
X251188Y-338416D01*
X251243Y-338436D01*
X251305Y-338451D01*
X251371Y-338455D01*
Y-338769D01*
X251367D01*
X251359D01*
X251344D01*
X251321Y-338765D01*
X251297Y-338761D01*
X251266Y-338757D01*
X251200Y-338742D01*
X251123Y-338719D01*
X251041Y-338680D01*
X250998Y-338653D01*
X250960Y-338626D01*
X250921Y-338595D01*
X250882Y-338556D01*
X250878Y-338552D01*
X250874Y-338544D01*
X250863Y-338532D01*
X250851Y-338517D01*
X250835Y-338494D01*
X250820Y-338470D01*
X250801Y-338439D01*
X250781Y-338404D01*
X250746Y-338327D01*
X250715Y-338234D01*
X250692Y-338125D01*
X250688Y-338071D01*
X250684Y-338009D01*
Y-337974D01*
X250688Y-337950D01*
Y-337919D01*
X250692Y-337884D01*
X250707Y-337807D01*
X250731Y-337718D01*
X250762Y-337629D01*
X250808Y-337539D01*
X250839Y-337496D01*
X250870Y-337458D01*
X250874Y-337454D01*
X250878Y-337450D01*
X250890Y-337438D01*
X250905Y-337427D01*
X250925Y-337411D01*
X250948Y-337396D01*
X250975Y-337376D01*
X251006Y-337357D01*
X251080Y-337318D01*
X251165Y-337287D01*
X251270Y-337264D01*
X251324Y-337260D01*
X251386Y-337256D01*
X251394D01*
X251414D01*
X251445Y-337260D01*
X251487Y-337268D01*
X251534Y-337283D01*
X251588Y-337299D01*
X251642Y-337326D01*
X251701Y-337361D01*
X251709Y-337365D01*
X251724Y-337380D01*
X251751Y-337403D01*
X251786Y-337435D01*
X251825Y-337477D01*
X251860Y-337528D01*
X251899Y-337582D01*
X251930Y-337648D01*
Y-337644D01*
X251934Y-337640D01*
X251937Y-337629D01*
X251941Y-337613D01*
X251957Y-337578D01*
X251980Y-337531D01*
X252007Y-337481D01*
X252046Y-337427D01*
X252089Y-337376D01*
X252143Y-337334D01*
X252151Y-337330D01*
X252170Y-337314D01*
X252201Y-337299D01*
X252244Y-337275D01*
X252298Y-337256D01*
X252360Y-337237D01*
X252434Y-337225D01*
X252512Y-337221D01*
X252516D01*
X252527D01*
X252543D01*
X252566Y-337225D01*
D02*
G37*
G36*
X252434Y-339118D02*
X252457D01*
X252484Y-339126D01*
X252516Y-339130D01*
X252554Y-339142D01*
X252597Y-339153D01*
X252640Y-339165D01*
X252737Y-339204D01*
X252838Y-339254D01*
X252888Y-339285D01*
X252935Y-339320D01*
X252981Y-339363D01*
X253024Y-339405D01*
X253028Y-339409D01*
X253032Y-339417D01*
X253043Y-339429D01*
X253059Y-339448D01*
X253074Y-339475D01*
X253090Y-339503D01*
X253109Y-339537D01*
X253129Y-339576D01*
X253152Y-339623D01*
X253171Y-339669D01*
X253187Y-339724D01*
X253202Y-339782D01*
X253218Y-339844D01*
X253229Y-339910D01*
X253233Y-339980D01*
X253237Y-340054D01*
Y-340073D01*
X253233Y-340096D01*
Y-340127D01*
X253226Y-340162D01*
X253222Y-340209D01*
X253210Y-340255D01*
X253198Y-340306D01*
X253183Y-340364D01*
X253160Y-340418D01*
X253136Y-340480D01*
X253105Y-340539D01*
X253070Y-340597D01*
X253028Y-340655D01*
X252977Y-340709D01*
X252923Y-340760D01*
X252919Y-340763D01*
X252907Y-340771D01*
X252892Y-340783D01*
X252865Y-340802D01*
X252834Y-340822D01*
X252795Y-340841D01*
X252752Y-340868D01*
X252698Y-340892D01*
X252644Y-340915D01*
X252578Y-340938D01*
X252508Y-340961D01*
X252434Y-340981D01*
X252353Y-341000D01*
X252267Y-341012D01*
X252174Y-341020D01*
X252077Y-341023D01*
X251840D01*
X251836D01*
X251825D01*
X251805D01*
X251782Y-341020D01*
X251751D01*
X251716Y-341016D01*
X251677Y-341012D01*
X251635Y-341008D01*
X251542Y-340992D01*
X251437Y-340969D01*
X251332Y-340942D01*
X251231Y-340899D01*
X251227D01*
X251220Y-340892D01*
X251204Y-340888D01*
X251188Y-340876D01*
X251165Y-340864D01*
X251142Y-340849D01*
X251080Y-340810D01*
X251018Y-340760D01*
X250948Y-340698D01*
X250886Y-340628D01*
X250828Y-340550D01*
Y-340546D01*
X250820Y-340539D01*
X250816Y-340527D01*
X250804Y-340511D01*
X250793Y-340488D01*
X250781Y-340465D01*
X250769Y-340434D01*
X250754Y-340399D01*
X250731Y-340325D01*
X250707Y-340236D01*
X250692Y-340135D01*
X250684Y-340026D01*
Y-339987D01*
X250688Y-339960D01*
X250692Y-339925D01*
X250696Y-339887D01*
X250704Y-339844D01*
X250711Y-339797D01*
X250739Y-339697D01*
X250754Y-339646D01*
X250777Y-339592D01*
X250804Y-339541D01*
X250832Y-339487D01*
X250867Y-339440D01*
X250905Y-339394D01*
X250909Y-339390D01*
X250917Y-339382D01*
X250929Y-339371D01*
X250944Y-339355D01*
X250967Y-339336D01*
X250994Y-339316D01*
X251029Y-339293D01*
X251064Y-339270D01*
X251107Y-339243D01*
X251154Y-339219D01*
X251204Y-339196D01*
X251258Y-339173D01*
X251317Y-339153D01*
X251379Y-339138D01*
X251448Y-339122D01*
X251518Y-339114D01*
Y-339440D01*
X251515D01*
X251507Y-339444D01*
X251491D01*
X251468Y-339448D01*
X251445Y-339456D01*
X251417Y-339460D01*
X251351Y-339479D01*
X251282Y-339506D01*
X251212Y-339537D01*
X251142Y-339576D01*
X251115Y-339599D01*
X251088Y-339627D01*
X251080Y-339634D01*
X251064Y-339654D01*
X251045Y-339685D01*
X251018Y-339731D01*
X250994Y-339786D01*
X250971Y-339856D01*
X250956Y-339937D01*
X250952Y-340026D01*
Y-340057D01*
X250956Y-340077D01*
X250960Y-340104D01*
X250963Y-340135D01*
X250979Y-340205D01*
X251010Y-340286D01*
X251026Y-340325D01*
X251049Y-340368D01*
X251076Y-340406D01*
X251107Y-340445D01*
X251142Y-340484D01*
X251185Y-340519D01*
X251188D01*
X251196Y-340527D01*
X251208Y-340535D01*
X251227Y-340546D01*
X251251Y-340558D01*
X251282Y-340573D01*
X251317Y-340589D01*
X251355Y-340604D01*
X251398Y-340624D01*
X251448Y-340639D01*
X251503Y-340655D01*
X251561Y-340667D01*
X251627Y-340678D01*
X251697Y-340686D01*
X251771Y-340690D01*
X251848Y-340694D01*
X252089D01*
X252093D01*
X252108D01*
X252128D01*
X252155Y-340690D01*
X252190D01*
X252228Y-340686D01*
X252271Y-340678D01*
X252322Y-340674D01*
X252422Y-340651D01*
X252531Y-340624D01*
X252636Y-340581D01*
X252686Y-340558D01*
X252733Y-340527D01*
X252737Y-340523D01*
X252744Y-340519D01*
X252756Y-340507D01*
X252768Y-340496D01*
X252806Y-340457D01*
X252849Y-340403D01*
X252896Y-340337D01*
X252931Y-340255D01*
X252946Y-340209D01*
X252958Y-340162D01*
X252966Y-340108D01*
X252970Y-340054D01*
Y-340026D01*
X252966Y-340007D01*
Y-339987D01*
X252962Y-339960D01*
X252954Y-339898D01*
X252938Y-339832D01*
X252919Y-339762D01*
X252888Y-339697D01*
X252849Y-339638D01*
X252841Y-339631D01*
X252826Y-339615D01*
X252795Y-339588D01*
X252748Y-339557D01*
X252690Y-339526D01*
X252655Y-339510D01*
X252616Y-339491D01*
X252574Y-339479D01*
X252523Y-339464D01*
X252473Y-339452D01*
X252418Y-339440D01*
Y-339114D01*
X252422D01*
X252434Y-339118D01*
D02*
G37*
G36*
X341744Y-315503D02*
Y-315506D01*
Y-315518D01*
Y-315537D01*
X341740Y-315561D01*
X341736Y-315592D01*
X341732Y-315627D01*
X341717Y-315704D01*
X341690Y-315797D01*
X341651Y-315891D01*
X341628Y-315933D01*
X341600Y-315980D01*
X341565Y-316022D01*
X341527Y-316061D01*
X341523Y-316065D01*
X341515Y-316069D01*
X341503Y-316081D01*
X341488Y-316092D01*
X341465Y-316108D01*
X341441Y-316123D01*
X341410Y-316143D01*
X341375Y-316158D01*
X341336Y-316178D01*
X341294Y-316197D01*
X341247Y-316213D01*
X341197Y-316228D01*
X341084Y-316251D01*
X341026Y-316255D01*
X340960Y-316259D01*
X340925D01*
X340898Y-316255D01*
X340867D01*
X340832Y-316247D01*
X340793Y-316244D01*
X340747Y-316236D01*
X340654Y-316213D01*
X340561Y-316181D01*
X340467Y-316135D01*
X340421Y-316104D01*
X340382Y-316073D01*
X340378Y-316069D01*
X340374Y-316065D01*
X340363Y-316053D01*
X340351Y-316038D01*
X340335Y-316019D01*
X340316Y-315995D01*
X340297Y-315968D01*
X340281Y-315933D01*
X340262Y-315898D01*
X340242Y-315859D01*
X340223Y-315817D01*
X340207Y-315766D01*
X340184Y-315662D01*
X340180Y-315603D01*
X340176Y-315541D01*
X340502D01*
Y-315545D01*
Y-315549D01*
Y-315561D01*
X340506Y-315576D01*
X340510Y-315615D01*
X340518Y-315662D01*
X340529Y-315716D01*
X340553Y-315770D01*
X340580Y-315825D01*
X340619Y-315875D01*
X340623Y-315879D01*
X340642Y-315894D01*
X340669Y-315910D01*
X340704Y-315933D01*
X340755Y-315952D01*
X340813Y-315972D01*
X340883Y-315987D01*
X340960Y-315991D01*
X340980D01*
X340995Y-315987D01*
X341030Y-315984D01*
X341077Y-315976D01*
X341127Y-315960D01*
X341181Y-315937D01*
X341236Y-315910D01*
X341286Y-315867D01*
X341290Y-315859D01*
X341305Y-315844D01*
X341325Y-315813D01*
X341348Y-315774D01*
X341371Y-315724D01*
X341391Y-315662D01*
X341406Y-315588D01*
X341414Y-315506D01*
Y-313741D01*
X341744D01*
Y-315503D01*
D02*
G37*
G36*
X343824Y-313919D02*
X342795Y-316224D01*
X342466D01*
X343490Y-314001D01*
X342144D01*
Y-313741D01*
X343824D01*
Y-313919D01*
D02*
G37*
G36*
X296008Y-315890D02*
X296354D01*
Y-316146D01*
X296008D01*
Y-316724D01*
X295690D01*
Y-316146D01*
X294561D01*
Y-315964D01*
X295671Y-314241D01*
X296008D01*
Y-315890D01*
D02*
G37*
G36*
X291539Y-314245D02*
X291574D01*
X291612Y-314253D01*
X291659Y-314257D01*
X291705Y-314264D01*
X291810Y-314287D01*
X291919Y-314322D01*
X291969Y-314346D01*
X292020Y-314369D01*
X292070Y-314400D01*
X292113Y-314435D01*
X292117Y-314439D01*
X292125Y-314443D01*
X292132Y-314454D01*
X292148Y-314470D01*
X292167Y-314489D01*
X292187Y-314512D01*
X292206Y-314544D01*
X292229Y-314575D01*
X292249Y-314613D01*
X292268Y-314652D01*
X292287Y-314699D01*
X292307Y-314749D01*
X292322Y-314804D01*
X292330Y-314862D01*
X292338Y-314924D01*
X292342Y-314990D01*
Y-314994D01*
Y-315001D01*
Y-315013D01*
Y-315029D01*
X292334Y-315071D01*
X292326Y-315129D01*
X292311Y-315192D01*
X292287Y-315261D01*
X292256Y-315331D01*
X292214Y-315397D01*
X292210Y-315405D01*
X292191Y-315424D01*
X292163Y-315455D01*
X292125Y-315494D01*
X292074Y-315533D01*
X292016Y-315576D01*
X291946Y-315615D01*
X291865Y-315649D01*
X292450Y-316705D01*
Y-316724D01*
X292097D01*
X291558Y-315719D01*
X290976D01*
Y-316724D01*
X290646D01*
Y-314241D01*
X291508D01*
X291539Y-314245D01*
D02*
G37*
G36*
X293956Y-314509D02*
X293882D01*
X293863Y-314512D01*
X293836D01*
X293805Y-314516D01*
X293770Y-314524D01*
X293731Y-314528D01*
X293684Y-314540D01*
X293591Y-314567D01*
X293494Y-314606D01*
X293444Y-314629D01*
X293397Y-314660D01*
X293351Y-314691D01*
X293308Y-314730D01*
X293304Y-314734D01*
X293300Y-314741D01*
X293288Y-314753D01*
X293273Y-314769D01*
X293257Y-314792D01*
X293238Y-314819D01*
X293219Y-314850D01*
X293195Y-314885D01*
X293172Y-314924D01*
X293153Y-314967D01*
X293129Y-315017D01*
X293110Y-315071D01*
X293094Y-315126D01*
X293079Y-315188D01*
X293067Y-315254D01*
X293060Y-315323D01*
X293063Y-315320D01*
X293067Y-315312D01*
X293079Y-315304D01*
X293094Y-315288D01*
X293114Y-315273D01*
X293137Y-315254D01*
X293168Y-315230D01*
X293199Y-315211D01*
X293234Y-315192D01*
X293277Y-315168D01*
X293366Y-315133D01*
X293421Y-315118D01*
X293475Y-315106D01*
X293533Y-315102D01*
X293595Y-315098D01*
X293626D01*
X293649Y-315102D01*
X293676Y-315106D01*
X293708Y-315110D01*
X293781Y-315126D01*
X293863Y-315153D01*
X293905Y-315172D01*
X293948Y-315195D01*
X293991Y-315223D01*
X294034Y-315250D01*
X294072Y-315288D01*
X294111Y-315327D01*
X294115Y-315331D01*
X294119Y-315339D01*
X294130Y-315351D01*
X294142Y-315370D01*
X294158Y-315389D01*
X294173Y-315421D01*
X294189Y-315452D01*
X294208Y-315486D01*
X294228Y-315529D01*
X294243Y-315572D01*
X294258Y-315622D01*
X294274Y-315673D01*
X294297Y-315789D01*
X294301Y-315851D01*
X294305Y-315917D01*
Y-315921D01*
Y-315933D01*
Y-315952D01*
X294301Y-315979D01*
X294297Y-316014D01*
X294293Y-316049D01*
X294290Y-316092D01*
X294278Y-316138D01*
X294255Y-316235D01*
X294216Y-316336D01*
X294193Y-316387D01*
X294165Y-316437D01*
X294134Y-316484D01*
X294096Y-316530D01*
X294092Y-316534D01*
X294088Y-316542D01*
X294072Y-316549D01*
X294057Y-316565D01*
X294037Y-316584D01*
X294010Y-316604D01*
X293983Y-316623D01*
X293948Y-316643D01*
X293909Y-316666D01*
X293867Y-316685D01*
X293820Y-316705D01*
X293774Y-316724D01*
X293719Y-316740D01*
X293661Y-316747D01*
X293599Y-316755D01*
X293537Y-316759D01*
X293502D01*
X293479Y-316755D01*
X293448Y-316751D01*
X293413Y-316743D01*
X293374Y-316736D01*
X293331Y-316724D01*
X293285Y-316712D01*
X293238Y-316693D01*
X293192Y-316670D01*
X293141Y-316643D01*
X293094Y-316612D01*
X293048Y-316577D01*
X293001Y-316534D01*
X292959Y-316488D01*
X292955Y-316484D01*
X292951Y-316476D01*
X292939Y-316460D01*
X292924Y-316437D01*
X292908Y-316410D01*
X292889Y-316379D01*
X292869Y-316340D01*
X292850Y-316297D01*
X292827Y-316247D01*
X292807Y-316193D01*
X292788Y-316134D01*
X292773Y-316072D01*
X292757Y-316006D01*
X292745Y-315936D01*
X292741Y-315859D01*
X292738Y-315781D01*
Y-315661D01*
Y-315657D01*
Y-315653D01*
Y-315630D01*
X292741Y-315595D01*
Y-315548D01*
X292745Y-315490D01*
X292753Y-315424D01*
X292761Y-315351D01*
X292773Y-315273D01*
X292788Y-315188D01*
X292807Y-315102D01*
X292831Y-315017D01*
X292862Y-314928D01*
X292893Y-314842D01*
X292932Y-314761D01*
X292978Y-314683D01*
X293029Y-314613D01*
X293033Y-314610D01*
X293044Y-314598D01*
X293060Y-314579D01*
X293083Y-314555D01*
X293114Y-314528D01*
X293153Y-314497D01*
X293195Y-314466D01*
X293246Y-314431D01*
X293304Y-314396D01*
X293370Y-314365D01*
X293440Y-314334D01*
X293517Y-314303D01*
X293603Y-314280D01*
X293696Y-314260D01*
X293793Y-314249D01*
X293898Y-314241D01*
X293956D01*
Y-314509D01*
D02*
G37*
G36*
X314078Y-316716D02*
X313760D01*
Y-314614D01*
X313124Y-314846D01*
Y-314559D01*
X314028Y-314222D01*
X314078D01*
Y-316716D01*
D02*
G37*
G36*
X312119D02*
X311801D01*
Y-314614D01*
X311164Y-314846D01*
Y-314559D01*
X312069Y-314222D01*
X312119D01*
Y-316716D01*
D02*
G37*
G36*
X309709Y-314202D02*
X309737D01*
X309764Y-314206D01*
X309838Y-314218D01*
X309919Y-314233D01*
X310004Y-314260D01*
X310097Y-314295D01*
X310183Y-314346D01*
X310187D01*
X310194Y-314353D01*
X310206Y-314361D01*
X310222Y-314373D01*
X310260Y-314404D01*
X310315Y-314451D01*
X310369Y-314513D01*
X310427Y-314582D01*
X310485Y-314668D01*
X310536Y-314765D01*
Y-314769D01*
X310540Y-314776D01*
X310547Y-314792D01*
X310555Y-314811D01*
X310563Y-314839D01*
X310575Y-314870D01*
X310586Y-314904D01*
X310598Y-314947D01*
X310610Y-314990D01*
X310621Y-315040D01*
X310641Y-315145D01*
X310656Y-315265D01*
X310660Y-315397D01*
Y-315556D01*
Y-315560D01*
Y-315572D01*
Y-315591D01*
Y-315618D01*
X310656Y-315649D01*
X310652Y-315684D01*
Y-315723D01*
X310645Y-315770D01*
X310633Y-315867D01*
X310610Y-315971D01*
X310582Y-316076D01*
X310544Y-316177D01*
Y-316181D01*
X310540Y-316189D01*
X310532Y-316200D01*
X310524Y-316220D01*
X310513Y-316243D01*
X310497Y-316266D01*
X310462Y-316325D01*
X310416Y-316390D01*
X310361Y-316460D01*
X310299Y-316526D01*
X310226Y-316584D01*
X310668Y-316930D01*
X310443Y-317136D01*
X309919Y-316720D01*
X309915D01*
X309899Y-316724D01*
X309872Y-316728D01*
X309841Y-316736D01*
X309803Y-316740D01*
X309760Y-316747D01*
X309709Y-316751D01*
X309632D01*
X309609Y-316747D01*
X309585D01*
X309554Y-316744D01*
X309484Y-316732D01*
X309403Y-316716D01*
X309317Y-316689D01*
X309228Y-316654D01*
X309139Y-316608D01*
X309135D01*
X309127Y-316600D01*
X309116Y-316592D01*
X309100Y-316581D01*
X309062Y-316550D01*
X309011Y-316503D01*
X308953Y-316445D01*
X308895Y-316375D01*
X308836Y-316290D01*
X308786Y-316196D01*
Y-316193D01*
X308782Y-316185D01*
X308774Y-316169D01*
X308767Y-316150D01*
X308759Y-316123D01*
X308747Y-316092D01*
X308736Y-316057D01*
X308724Y-316018D01*
X308712Y-315975D01*
X308701Y-315929D01*
X308681Y-315824D01*
X308666Y-315708D01*
X308662Y-315580D01*
Y-315401D01*
Y-315397D01*
Y-315386D01*
Y-315366D01*
X308666Y-315339D01*
Y-315308D01*
X308670Y-315273D01*
X308674Y-315230D01*
X308677Y-315188D01*
X308693Y-315087D01*
X308716Y-314982D01*
X308743Y-314874D01*
X308786Y-314769D01*
Y-314765D01*
X308794Y-314757D01*
X308798Y-314741D01*
X308809Y-314722D01*
X308821Y-314699D01*
X308836Y-314672D01*
X308875Y-314614D01*
X308926Y-314544D01*
X308988Y-314474D01*
X309058Y-314408D01*
X309135Y-314346D01*
X309139D01*
X309147Y-314338D01*
X309158Y-314330D01*
X309174Y-314322D01*
X309197Y-314311D01*
X309224Y-314299D01*
X309252Y-314288D01*
X309286Y-314272D01*
X309364Y-314245D01*
X309453Y-314222D01*
X309550Y-314206D01*
X309659Y-314198D01*
X309690D01*
X309709Y-314202D01*
D02*
G37*
G36*
X284491Y-315995D02*
X284173D01*
Y-313892D01*
X283537Y-314124D01*
Y-313837D01*
X284441Y-313500D01*
X284491D01*
Y-315995D01*
D02*
G37*
G36*
X281989Y-315727D02*
X283165D01*
Y-315995D01*
X281659D01*
Y-313511D01*
X281989D01*
Y-315727D01*
D02*
G37*
G36*
X368637Y-326727D02*
X368668D01*
X368703Y-326731D01*
X368780Y-326747D01*
X368870Y-326770D01*
X368959Y-326801D01*
X369048Y-326848D01*
X369091Y-326879D01*
X369130Y-326910D01*
X369133Y-326914D01*
X369137Y-326918D01*
X369149Y-326929D01*
X369161Y-326945D01*
X369176Y-326964D01*
X369192Y-326987D01*
X369211Y-327014D01*
X369231Y-327045D01*
X369269Y-327119D01*
X369300Y-327205D01*
X369324Y-327309D01*
X369327Y-327364D01*
X369331Y-327426D01*
Y-327433D01*
Y-327453D01*
X369327Y-327484D01*
X369320Y-327527D01*
X369304Y-327573D01*
X369289Y-327627D01*
X369262Y-327682D01*
X369227Y-327740D01*
X369223Y-327748D01*
X369207Y-327763D01*
X369184Y-327790D01*
X369153Y-327825D01*
X369110Y-327864D01*
X369060Y-327899D01*
X369005Y-327938D01*
X368939Y-327969D01*
X368943D01*
X368947Y-327973D01*
X368959Y-327977D01*
X368974Y-327981D01*
X369009Y-327996D01*
X369056Y-328019D01*
X369106Y-328047D01*
X369161Y-328085D01*
X369211Y-328128D01*
X369254Y-328182D01*
X369258Y-328190D01*
X369273Y-328209D01*
X369289Y-328241D01*
X369312Y-328283D01*
X369331Y-328338D01*
X369351Y-328400D01*
X369362Y-328473D01*
X369366Y-328551D01*
Y-328555D01*
Y-328567D01*
Y-328582D01*
X369362Y-328605D01*
X369358Y-328632D01*
X369355Y-328667D01*
X369339Y-328741D01*
X369312Y-328826D01*
X369273Y-328916D01*
X369250Y-328958D01*
X369223Y-329001D01*
X369188Y-329044D01*
X369149Y-329082D01*
X369145Y-329086D01*
X369137Y-329090D01*
X369126Y-329102D01*
X369110Y-329114D01*
X369087Y-329129D01*
X369064Y-329145D01*
X369033Y-329160D01*
X368998Y-329180D01*
X368959Y-329199D01*
X368916Y-329214D01*
X368819Y-329245D01*
X368707Y-329269D01*
X368649Y-329273D01*
X368583Y-329276D01*
X368548D01*
X368524Y-329273D01*
X368493D01*
X368462Y-329265D01*
X368423Y-329261D01*
X368381Y-329253D01*
X368291Y-329230D01*
X368195Y-329199D01*
X368101Y-329152D01*
X368055Y-329121D01*
X368012Y-329090D01*
X368008Y-329086D01*
X368004Y-329082D01*
X367993Y-329071D01*
X367977Y-329055D01*
X367962Y-329036D01*
X367942Y-329013D01*
X367903Y-328955D01*
X367865Y-328885D01*
X367830Y-328799D01*
X367803Y-328698D01*
X367799Y-328648D01*
X367795Y-328590D01*
X368113D01*
Y-328594D01*
Y-328597D01*
X368117Y-328621D01*
X368121Y-328660D01*
X368129Y-328702D01*
X368144Y-328753D01*
X368167Y-328807D01*
X368195Y-328857D01*
X368237Y-328904D01*
X368245Y-328908D01*
X368261Y-328923D01*
X368288Y-328939D01*
X368330Y-328962D01*
X368377Y-328982D01*
X368439Y-329001D01*
X368505Y-329017D01*
X368583Y-329020D01*
X368606D01*
X368621Y-329017D01*
X368660Y-329013D01*
X368711Y-329005D01*
X368769Y-328993D01*
X368827Y-328970D01*
X368881Y-328943D01*
X368932Y-328904D01*
X368936Y-328900D01*
X368951Y-328881D01*
X368970Y-328854D01*
X368994Y-328815D01*
X369013Y-328768D01*
X369033Y-328706D01*
X369048Y-328636D01*
X369052Y-328559D01*
Y-328555D01*
Y-328551D01*
Y-328539D01*
Y-328524D01*
X369044Y-328485D01*
X369037Y-328435D01*
X369021Y-328380D01*
X368998Y-328326D01*
X368963Y-328272D01*
X368920Y-328225D01*
X368912Y-328221D01*
X368897Y-328206D01*
X368866Y-328186D01*
X368823Y-328163D01*
X368769Y-328144D01*
X368703Y-328120D01*
X368625Y-328109D01*
X368536Y-328101D01*
X368299D01*
Y-327845D01*
X368575D01*
X368614Y-327837D01*
X368664Y-327829D01*
X368718Y-327818D01*
X368776Y-327798D01*
X368835Y-327771D01*
X368885Y-327732D01*
X368889Y-327728D01*
X368905Y-327709D01*
X368924Y-327686D01*
X368951Y-327651D01*
X368974Y-327604D01*
X368994Y-327554D01*
X369009Y-327492D01*
X369013Y-327422D01*
Y-327418D01*
Y-327402D01*
X369009Y-327383D01*
X369005Y-327352D01*
X369002Y-327321D01*
X368990Y-327282D01*
X368978Y-327243D01*
X368959Y-327201D01*
X368936Y-327162D01*
X368908Y-327123D01*
X368874Y-327084D01*
X368831Y-327053D01*
X368780Y-327022D01*
X368722Y-327003D01*
X368656Y-326987D01*
X368579Y-326983D01*
X368544D01*
X368509Y-326991D01*
X368462Y-326999D01*
X368412Y-327014D01*
X368357Y-327034D01*
X368303Y-327065D01*
X368253Y-327104D01*
X368249Y-327108D01*
X368233Y-327123D01*
X368214Y-327150D01*
X368195Y-327185D01*
X368171Y-327228D01*
X368152Y-327282D01*
X368136Y-327344D01*
X368132Y-327410D01*
X367818D01*
Y-327406D01*
Y-327399D01*
Y-327383D01*
X367822Y-327360D01*
X367826Y-327337D01*
X367830Y-327306D01*
X367845Y-327239D01*
X367869Y-327162D01*
X367907Y-327080D01*
X367935Y-327038D01*
X367962Y-326999D01*
X367993Y-326960D01*
X368032Y-326921D01*
X368035Y-326918D01*
X368043Y-326914D01*
X368055Y-326902D01*
X368070Y-326890D01*
X368094Y-326875D01*
X368117Y-326859D01*
X368148Y-326840D01*
X368183Y-326820D01*
X368261Y-326786D01*
X368354Y-326754D01*
X368462Y-326731D01*
X368517Y-326727D01*
X368579Y-326724D01*
X368614D01*
X368637Y-326727D01*
D02*
G37*
G36*
X366386Y-326762D02*
X366414D01*
X366448Y-326766D01*
X366487Y-326770D01*
X366526Y-326778D01*
X366615Y-326793D01*
X366712Y-326820D01*
X366809Y-326855D01*
X366906Y-326902D01*
X366910D01*
X366918Y-326910D01*
X366930Y-326918D01*
X366949Y-326929D01*
X366992Y-326960D01*
X367046Y-327007D01*
X367108Y-327065D01*
X367174Y-327135D01*
X367236Y-327220D01*
X367290Y-327313D01*
Y-327317D01*
X367298Y-327325D01*
X367302Y-327340D01*
X367314Y-327360D01*
X367321Y-327383D01*
X367333Y-327414D01*
X367345Y-327449D01*
X367360Y-327488D01*
X367372Y-327531D01*
X367384Y-327577D01*
X367407Y-327678D01*
X367422Y-327794D01*
X367430Y-327919D01*
Y-328078D01*
Y-328081D01*
Y-328093D01*
Y-328113D01*
X367426Y-328136D01*
Y-328167D01*
X367422Y-328202D01*
X367419Y-328241D01*
X367415Y-328287D01*
X367395Y-328380D01*
X367372Y-328485D01*
X367341Y-328590D01*
X367294Y-328695D01*
Y-328698D01*
X367287Y-328706D01*
X367279Y-328718D01*
X367271Y-328737D01*
X367256Y-328761D01*
X367240Y-328784D01*
X367194Y-328846D01*
X367139Y-328908D01*
X367073Y-328978D01*
X366996Y-329044D01*
X366906Y-329102D01*
X366902D01*
X366895Y-329110D01*
X366879Y-329114D01*
X366864Y-329125D01*
X366837Y-329133D01*
X366809Y-329145D01*
X366774Y-329160D01*
X366740Y-329172D01*
X366697Y-329183D01*
X366654Y-329199D01*
X366553Y-329218D01*
X366441Y-329234D01*
X366320Y-329242D01*
X365634D01*
Y-326758D01*
X366363D01*
X366386Y-326762D01*
D02*
G37*
G36*
X342098Y-343727D02*
X342125D01*
X342187Y-343735D01*
X342257Y-343747D01*
X342335Y-343766D01*
X342412Y-343789D01*
X342490Y-343824D01*
X342494D01*
X342497Y-343828D01*
X342525Y-343844D01*
X342560Y-343863D01*
X342606Y-343894D01*
X342653Y-343933D01*
X342707Y-343980D01*
X342758Y-344034D01*
X342800Y-344096D01*
X342804Y-344104D01*
X342816Y-344127D01*
X342835Y-344162D01*
X342854Y-344209D01*
X342874Y-344267D01*
X342893Y-344329D01*
X342905Y-344403D01*
X342909Y-344476D01*
X342583D01*
Y-344472D01*
Y-344465D01*
Y-344453D01*
X342579Y-344437D01*
X342575Y-344399D01*
X342564Y-344348D01*
X342548Y-344290D01*
X342521Y-344232D01*
X342486Y-344174D01*
X342439Y-344123D01*
X342432Y-344119D01*
X342412Y-344104D01*
X342381Y-344080D01*
X342335Y-344057D01*
X342276Y-344034D01*
X342207Y-344011D01*
X342125Y-343995D01*
X342032Y-343991D01*
X341993D01*
X341950Y-343995D01*
X341896Y-344003D01*
X341834Y-344018D01*
X341772Y-344038D01*
X341710Y-344065D01*
X341656Y-344100D01*
X341652Y-344104D01*
X341636Y-344119D01*
X341613Y-344143D01*
X341590Y-344177D01*
X341563Y-344220D01*
X341543Y-344271D01*
X341528Y-344333D01*
X341520Y-344399D01*
Y-344406D01*
X341524Y-344422D01*
X341528Y-344453D01*
X341535Y-344488D01*
X341551Y-344527D01*
X341574Y-344569D01*
X341605Y-344612D01*
X341648Y-344655D01*
X341656Y-344659D01*
X341675Y-344674D01*
X341706Y-344693D01*
X341753Y-344717D01*
X341815Y-344748D01*
X341888Y-344779D01*
X341931Y-344798D01*
X341978Y-344814D01*
X342032Y-344833D01*
X342086Y-344849D01*
X342090D01*
X342102Y-344853D01*
X342117Y-344856D01*
X342137Y-344864D01*
X342164Y-344872D01*
X342195Y-344880D01*
X342265Y-344903D01*
X342342Y-344934D01*
X342424Y-344965D01*
X342501Y-345000D01*
X342571Y-345039D01*
X342575D01*
X342579Y-345043D01*
X342598Y-345058D01*
X342630Y-345078D01*
X342668Y-345109D01*
X342711Y-345144D01*
X342754Y-345186D01*
X342796Y-345233D01*
X342831Y-345283D01*
X342835Y-345291D01*
X342843Y-345306D01*
X342858Y-345338D01*
X342874Y-345376D01*
X342889Y-345427D01*
X342905Y-345481D01*
X342913Y-345543D01*
X342917Y-345613D01*
Y-345617D01*
Y-345625D01*
Y-345640D01*
X342913Y-345663D01*
X342909Y-345687D01*
X342905Y-345718D01*
X342885Y-345788D01*
X342858Y-345865D01*
X342839Y-345904D01*
X342816Y-345947D01*
X342789Y-345986D01*
X342758Y-346024D01*
X342723Y-346063D01*
X342680Y-346098D01*
X342676D01*
X342668Y-346106D01*
X342657Y-346114D01*
X342637Y-346125D01*
X342614Y-346141D01*
X342583Y-346156D01*
X342552Y-346172D01*
X342513Y-346187D01*
X342470Y-346203D01*
X342424Y-346218D01*
X342370Y-346234D01*
X342315Y-346249D01*
X342253Y-346261D01*
X342191Y-346269D01*
X342121Y-346273D01*
X342051Y-346276D01*
X342009D01*
X341985Y-346273D01*
X341958D01*
X341896Y-346265D01*
X341822Y-346253D01*
X341741Y-346234D01*
X341659Y-346211D01*
X341574Y-346180D01*
X341570D01*
X341566Y-346176D01*
X341555Y-346168D01*
X341539Y-346160D01*
X341496Y-346141D01*
X341450Y-346110D01*
X341392Y-346071D01*
X341337Y-346024D01*
X341283Y-345974D01*
X341233Y-345912D01*
Y-345908D01*
X341229Y-345904D01*
X341213Y-345881D01*
X341194Y-345846D01*
X341175Y-345799D01*
X341151Y-345741D01*
X341132Y-345675D01*
X341116Y-345601D01*
X341112Y-345524D01*
X341442D01*
Y-345528D01*
Y-345535D01*
Y-345547D01*
X341446Y-345563D01*
X341450Y-345601D01*
X341462Y-345652D01*
X341481Y-345710D01*
X341512Y-345768D01*
X341551Y-345826D01*
X341605Y-345881D01*
X341609D01*
X341613Y-345885D01*
X341636Y-345900D01*
X341671Y-345920D01*
X341725Y-345943D01*
X341788Y-345970D01*
X341865Y-345989D01*
X341950Y-346005D01*
X342051Y-346009D01*
X342094D01*
X342141Y-346005D01*
X342199Y-345997D01*
X342261Y-345982D01*
X342327Y-345966D01*
X342393Y-345939D01*
X342447Y-345904D01*
X342455Y-345900D01*
X342470Y-345885D01*
X342490Y-345861D01*
X342517Y-345830D01*
X342544Y-345788D01*
X342564Y-345737D01*
X342579Y-345683D01*
X342587Y-345617D01*
Y-345613D01*
Y-345609D01*
Y-345586D01*
X342579Y-345555D01*
X342571Y-345512D01*
X342556Y-345466D01*
X342532Y-345419D01*
X342501Y-345376D01*
X342459Y-345334D01*
X342451Y-345330D01*
X342436Y-345318D01*
X342401Y-345295D01*
X342377Y-345283D01*
X342354Y-345272D01*
X342323Y-345256D01*
X342288Y-345241D01*
X342249Y-345225D01*
X342207Y-345206D01*
X342160Y-345190D01*
X342109Y-345171D01*
X342055Y-345155D01*
X341993Y-345136D01*
X341989D01*
X341974Y-345132D01*
X341954Y-345124D01*
X341923Y-345112D01*
X341888Y-345101D01*
X341850Y-345089D01*
X341807Y-345074D01*
X341760Y-345054D01*
X341659Y-345012D01*
X341559Y-344961D01*
X341462Y-344903D01*
X341419Y-344872D01*
X341380Y-344841D01*
X341376Y-344837D01*
X341372Y-344833D01*
X341365Y-344822D01*
X341349Y-344810D01*
X341322Y-344771D01*
X341287Y-344721D01*
X341252Y-344655D01*
X341221Y-344581D01*
X341198Y-344496D01*
X341194Y-344449D01*
X341190Y-344403D01*
Y-344399D01*
Y-344391D01*
Y-344375D01*
X341194Y-344352D01*
X341198Y-344329D01*
X341202Y-344298D01*
X341221Y-344232D01*
X341248Y-344154D01*
X341268Y-344115D01*
X341287Y-344073D01*
X341314Y-344034D01*
X341345Y-343991D01*
X341380Y-343952D01*
X341423Y-343917D01*
X341427Y-343914D01*
X341434Y-343910D01*
X341446Y-343898D01*
X341465Y-343886D01*
X341489Y-343871D01*
X341516Y-343855D01*
X341551Y-343840D01*
X341590Y-343821D01*
X341628Y-343801D01*
X341675Y-343786D01*
X341725Y-343770D01*
X341780Y-343755D01*
X341900Y-343731D01*
X341962Y-343727D01*
X342032Y-343724D01*
X342075D01*
X342098Y-343727D01*
D02*
G37*
G36*
X340744Y-345450D02*
Y-345454D01*
Y-345466D01*
Y-345485D01*
X340740Y-345508D01*
X340736Y-345539D01*
X340732Y-345574D01*
X340724Y-345609D01*
X340717Y-345652D01*
X340689Y-345745D01*
X340674Y-345792D01*
X340651Y-345838D01*
X340623Y-345888D01*
X340596Y-345935D01*
X340561Y-345982D01*
X340523Y-346024D01*
X340519Y-346028D01*
X340511Y-346032D01*
X340499Y-346044D01*
X340484Y-346059D01*
X340460Y-346075D01*
X340433Y-346094D01*
X340402Y-346117D01*
X340367Y-346137D01*
X340329Y-346160D01*
X340282Y-346183D01*
X340232Y-346203D01*
X340181Y-346222D01*
X340123Y-346238D01*
X340061Y-346253D01*
X339999Y-346265D01*
X339929Y-346273D01*
X339844Y-346276D01*
X339805D01*
X339778Y-346273D01*
X339743Y-346269D01*
X339700Y-346265D01*
X339657Y-346257D01*
X339611Y-346249D01*
X339506Y-346222D01*
X339397Y-346183D01*
X339343Y-346160D01*
X339289Y-346129D01*
X339238Y-346098D01*
X339192Y-346059D01*
X339188Y-346055D01*
X339180Y-346048D01*
X339169Y-346036D01*
X339153Y-346020D01*
X339138Y-345997D01*
X339114Y-345970D01*
X339095Y-345935D01*
X339071Y-345900D01*
X339048Y-345861D01*
X339025Y-345815D01*
X339005Y-345764D01*
X338986Y-345710D01*
X338971Y-345652D01*
X338959Y-345590D01*
X338951Y-345524D01*
X338947Y-345454D01*
Y-343758D01*
X339273D01*
Y-345442D01*
Y-345446D01*
Y-345454D01*
Y-345469D01*
X339277Y-345485D01*
Y-345508D01*
X339281Y-345535D01*
X339293Y-345598D01*
X339308Y-345663D01*
X339335Y-345733D01*
X339370Y-345799D01*
X339421Y-345861D01*
X339428Y-345869D01*
X339448Y-345885D01*
X339483Y-345908D01*
X339529Y-345935D01*
X339587Y-345962D01*
X339661Y-345986D01*
X339747Y-346001D01*
X339844Y-346009D01*
X339871D01*
X339890Y-346005D01*
X339914D01*
X339941Y-346001D01*
X340003Y-345989D01*
X340072Y-345974D01*
X340142Y-345947D01*
X340208Y-345912D01*
X340270Y-345861D01*
X340278Y-345854D01*
X340294Y-345834D01*
X340317Y-345799D01*
X340344Y-345753D01*
X340371Y-345694D01*
X340395Y-345625D01*
X340410Y-345539D01*
X340418Y-345446D01*
Y-343758D01*
X340744D01*
Y-345450D01*
D02*
G37*
G36*
X346250Y-343727D02*
X346277D01*
X346312Y-343731D01*
X346389Y-343747D01*
X346475Y-343766D01*
X346568Y-343801D01*
X346653Y-343844D01*
X346696Y-343875D01*
X346734Y-343906D01*
X346738Y-343910D01*
X346742Y-343914D01*
X346754Y-343925D01*
X346765Y-343941D01*
X346781Y-343956D01*
X346797Y-343980D01*
X346835Y-344034D01*
X346874Y-344104D01*
X346905Y-344189D01*
X346929Y-344282D01*
X346932Y-344337D01*
X346936Y-344391D01*
Y-344395D01*
Y-344406D01*
X346932Y-344430D01*
X346929Y-344457D01*
X346921Y-344492D01*
X346913Y-344534D01*
X346898Y-344581D01*
X346878Y-344639D01*
X346855Y-344697D01*
X346824Y-344767D01*
X346785Y-344837D01*
X346738Y-344915D01*
X346688Y-344996D01*
X346626Y-345081D01*
X346552Y-345171D01*
X346471Y-345264D01*
X345807Y-345986D01*
X347053D01*
Y-346242D01*
X345427D01*
Y-346017D01*
X346284Y-345062D01*
X346288Y-345058D01*
X346292Y-345050D01*
X346304Y-345043D01*
X346316Y-345027D01*
X346350Y-344985D01*
X346389Y-344938D01*
X346432Y-344880D01*
X346475Y-344822D01*
X346517Y-344763D01*
X346548Y-344709D01*
X346552Y-344701D01*
X346560Y-344686D01*
X346571Y-344659D01*
X346587Y-344624D01*
X346599Y-344581D01*
X346610Y-344534D01*
X346618Y-344484D01*
X346622Y-344430D01*
Y-344426D01*
Y-344422D01*
Y-344399D01*
X346614Y-344360D01*
X346606Y-344317D01*
X346591Y-344267D01*
X346571Y-344212D01*
X346540Y-344162D01*
X346502Y-344111D01*
X346498Y-344108D01*
X346482Y-344092D01*
X346455Y-344073D01*
X346420Y-344045D01*
X346374Y-344022D01*
X346323Y-344003D01*
X346261Y-343987D01*
X346191Y-343983D01*
X346168D01*
X346152Y-343987D01*
X346110Y-343991D01*
X346056Y-343999D01*
X345997Y-344018D01*
X345935Y-344042D01*
X345877Y-344073D01*
X345823Y-344119D01*
X345819Y-344127D01*
X345803Y-344143D01*
X345784Y-344174D01*
X345761Y-344216D01*
X345733Y-344267D01*
X345714Y-344333D01*
X345698Y-344406D01*
X345695Y-344492D01*
X345376D01*
Y-344488D01*
Y-344476D01*
Y-344457D01*
X345380Y-344433D01*
X345384Y-344406D01*
X345388Y-344371D01*
X345404Y-344294D01*
X345431Y-344205D01*
X345450Y-344158D01*
X345470Y-344111D01*
X345497Y-344065D01*
X345524Y-344022D01*
X345559Y-343976D01*
X345598Y-343937D01*
X345602Y-343933D01*
X345609Y-343929D01*
X345621Y-343917D01*
X345637Y-343902D01*
X345660Y-343886D01*
X345687Y-343871D01*
X345718Y-343851D01*
X345757Y-343828D01*
X345795Y-343809D01*
X345838Y-343789D01*
X345889Y-343774D01*
X345943Y-343758D01*
X345997Y-343743D01*
X346059Y-343731D01*
X346122Y-343727D01*
X346191Y-343724D01*
X346226D01*
X346250Y-343727D01*
D02*
G37*
G36*
X344213Y-343762D02*
X344247D01*
X344286Y-343766D01*
X344329Y-343774D01*
X344375Y-343778D01*
X344473Y-343801D01*
X344573Y-343832D01*
X344667Y-343871D01*
X344713Y-343898D01*
X344752Y-343929D01*
X344756D01*
X344760Y-343937D01*
X344771Y-343945D01*
X344783Y-343960D01*
X344818Y-343999D01*
X344857Y-344053D01*
X344892Y-344123D01*
X344926Y-344209D01*
X344950Y-344305D01*
X344954Y-344364D01*
X344957Y-344422D01*
Y-344430D01*
Y-344453D01*
X344954Y-344484D01*
X344946Y-344527D01*
X344934Y-344573D01*
X344915Y-344627D01*
X344892Y-344678D01*
X344857Y-344732D01*
X344853Y-344736D01*
X344837Y-344756D01*
X344818Y-344779D01*
X344787Y-344806D01*
X344748Y-344841D01*
X344701Y-344876D01*
X344651Y-344907D01*
X344589Y-344938D01*
X344593D01*
X344597Y-344942D01*
X344608Y-344946D01*
X344624Y-344950D01*
X344659Y-344965D01*
X344705Y-344988D01*
X344756Y-345016D01*
X344810Y-345054D01*
X344861Y-345101D01*
X344907Y-345155D01*
X344911Y-345163D01*
X344926Y-345182D01*
X344946Y-345217D01*
X344965Y-345260D01*
X344988Y-345314D01*
X345004Y-345376D01*
X345020Y-345450D01*
X345023Y-345528D01*
Y-345532D01*
Y-345543D01*
Y-345559D01*
X345020Y-345582D01*
X345016Y-345609D01*
X345012Y-345644D01*
X344996Y-345718D01*
X344969Y-345803D01*
X344930Y-345888D01*
X344907Y-345931D01*
X344880Y-345974D01*
X344845Y-346013D01*
X344806Y-346052D01*
X344802Y-346055D01*
X344795Y-346059D01*
X344783Y-346067D01*
X344767Y-346082D01*
X344744Y-346094D01*
X344717Y-346110D01*
X344686Y-346129D01*
X344651Y-346145D01*
X344608Y-346164D01*
X344566Y-346180D01*
X344515Y-346199D01*
X344461Y-346211D01*
X344399Y-346222D01*
X344337Y-346234D01*
X344271Y-346238D01*
X344197Y-346242D01*
X343336D01*
Y-343758D01*
X344185D01*
X344213Y-343762D01*
D02*
G37*
G36*
X352340Y-339580D02*
X352375Y-339584D01*
X352414Y-339587D01*
X352456Y-339595D01*
X352503Y-339603D01*
X352604Y-339630D01*
X352654Y-339646D01*
X352708Y-339669D01*
X352759Y-339696D01*
X352813Y-339723D01*
X352860Y-339758D01*
X352906Y-339797D01*
X352910Y-339801D01*
X352918Y-339809D01*
X352930Y-339820D01*
X352945Y-339836D01*
X352964Y-339859D01*
X352984Y-339886D01*
X353007Y-339921D01*
X353030Y-339956D01*
X353058Y-339999D01*
X353081Y-340045D01*
X353104Y-340096D01*
X353128Y-340150D01*
X353147Y-340208D01*
X353162Y-340270D01*
X353178Y-340340D01*
X353186Y-340410D01*
X352860D01*
Y-340406D01*
X352856Y-340398D01*
Y-340383D01*
X352852Y-340360D01*
X352844Y-340336D01*
X352840Y-340309D01*
X352821Y-340243D01*
X352794Y-340173D01*
X352763Y-340104D01*
X352724Y-340034D01*
X352701Y-340007D01*
X352674Y-339979D01*
X352666Y-339972D01*
X352646Y-339956D01*
X352615Y-339937D01*
X352569Y-339910D01*
X352514Y-339886D01*
X352445Y-339863D01*
X352363Y-339847D01*
X352274Y-339844D01*
X352243D01*
X352223Y-339847D01*
X352196Y-339851D01*
X352165Y-339855D01*
X352095Y-339871D01*
X352014Y-339902D01*
X351975Y-339917D01*
X351932Y-339941D01*
X351894Y-339968D01*
X351855Y-339999D01*
X351816Y-340034D01*
X351781Y-340076D01*
Y-340080D01*
X351773Y-340088D01*
X351766Y-340100D01*
X351754Y-340119D01*
X351742Y-340142D01*
X351727Y-340173D01*
X351711Y-340208D01*
X351696Y-340247D01*
X351676Y-340290D01*
X351661Y-340340D01*
X351645Y-340395D01*
X351634Y-340453D01*
X351622Y-340519D01*
X351614Y-340589D01*
X351610Y-340662D01*
X351606Y-340740D01*
Y-340980D01*
Y-340984D01*
Y-341000D01*
Y-341019D01*
X351610Y-341046D01*
Y-341081D01*
X351614Y-341120D01*
X351622Y-341163D01*
X351626Y-341213D01*
X351649Y-341314D01*
X351676Y-341423D01*
X351719Y-341528D01*
X351742Y-341578D01*
X351773Y-341624D01*
X351777Y-341628D01*
X351781Y-341636D01*
X351793Y-341648D01*
X351804Y-341659D01*
X351843Y-341698D01*
X351898Y-341741D01*
X351963Y-341788D01*
X352045Y-341822D01*
X352092Y-341838D01*
X352138Y-341850D01*
X352192Y-341857D01*
X352247Y-341861D01*
X352274D01*
X352293Y-341857D01*
X352313D01*
X352340Y-341853D01*
X352402Y-341846D01*
X352468Y-341830D01*
X352538Y-341811D01*
X352604Y-341780D01*
X352662Y-341741D01*
X352670Y-341733D01*
X352685Y-341718D01*
X352712Y-341687D01*
X352743Y-341640D01*
X352774Y-341582D01*
X352790Y-341547D01*
X352809Y-341508D01*
X352821Y-341465D01*
X352836Y-341415D01*
X352848Y-341365D01*
X352860Y-341310D01*
X353186D01*
Y-341314D01*
X353182Y-341326D01*
Y-341349D01*
X353174Y-341376D01*
X353170Y-341407D01*
X353158Y-341446D01*
X353147Y-341489D01*
X353135Y-341531D01*
X353096Y-341628D01*
X353046Y-341729D01*
X353015Y-341780D01*
X352980Y-341826D01*
X352937Y-341873D01*
X352895Y-341915D01*
X352891Y-341919D01*
X352883Y-341923D01*
X352871Y-341935D01*
X352852Y-341950D01*
X352825Y-341966D01*
X352798Y-341982D01*
X352763Y-342001D01*
X352724Y-342020D01*
X352677Y-342044D01*
X352631Y-342063D01*
X352576Y-342078D01*
X352518Y-342094D01*
X352456Y-342109D01*
X352390Y-342121D01*
X352320Y-342125D01*
X352247Y-342129D01*
X352227D01*
X352204Y-342125D01*
X352173D01*
X352138Y-342117D01*
X352092Y-342113D01*
X352045Y-342102D01*
X351994Y-342090D01*
X351936Y-342075D01*
X351882Y-342051D01*
X351820Y-342028D01*
X351762Y-341997D01*
X351704Y-341962D01*
X351645Y-341919D01*
X351591Y-341869D01*
X351540Y-341815D01*
X351537Y-341811D01*
X351529Y-341799D01*
X351517Y-341784D01*
X351498Y-341756D01*
X351479Y-341725D01*
X351459Y-341687D01*
X351432Y-341644D01*
X351409Y-341590D01*
X351385Y-341535D01*
X351362Y-341469D01*
X351339Y-341400D01*
X351319Y-341326D01*
X351300Y-341244D01*
X351288Y-341159D01*
X351281Y-341066D01*
X351277Y-340969D01*
Y-340732D01*
Y-340728D01*
Y-340717D01*
Y-340697D01*
X351281Y-340674D01*
Y-340643D01*
X351285Y-340608D01*
X351288Y-340569D01*
X351292Y-340527D01*
X351308Y-340433D01*
X351331Y-340329D01*
X351358Y-340224D01*
X351401Y-340123D01*
Y-340119D01*
X351409Y-340111D01*
X351413Y-340096D01*
X351424Y-340080D01*
X351436Y-340057D01*
X351451Y-340034D01*
X351490Y-339972D01*
X351540Y-339910D01*
X351603Y-339840D01*
X351673Y-339778D01*
X351750Y-339719D01*
X351754D01*
X351762Y-339712D01*
X351773Y-339708D01*
X351789Y-339696D01*
X351812Y-339685D01*
X351835Y-339673D01*
X351867Y-339661D01*
X351901Y-339646D01*
X351975Y-339622D01*
X352064Y-339599D01*
X352165Y-339584D01*
X352274Y-339576D01*
X352313D01*
X352340Y-339580D01*
D02*
G37*
G36*
X354377D02*
X354404D01*
X354439Y-339584D01*
X354517Y-339599D01*
X354602Y-339619D01*
X354695Y-339653D01*
X354780Y-339696D01*
X354823Y-339727D01*
X354862Y-339758D01*
X354866Y-339762D01*
X354870Y-339766D01*
X354881Y-339778D01*
X354893Y-339793D01*
X354908Y-339809D01*
X354924Y-339832D01*
X354963Y-339886D01*
X355001Y-339956D01*
X355032Y-340041D01*
X355056Y-340135D01*
X355060Y-340189D01*
X355064Y-340243D01*
Y-340247D01*
Y-340259D01*
X355060Y-340282D01*
X355056Y-340309D01*
X355048Y-340344D01*
X355040Y-340387D01*
X355025Y-340433D01*
X355005Y-340492D01*
X354982Y-340550D01*
X354951Y-340620D01*
X354912Y-340689D01*
X354866Y-340767D01*
X354815Y-340848D01*
X354753Y-340934D01*
X354679Y-341023D01*
X354598Y-341116D01*
X353935Y-341838D01*
X355180D01*
Y-342094D01*
X353554D01*
Y-341869D01*
X354412Y-340915D01*
X354416Y-340911D01*
X354419Y-340903D01*
X354431Y-340895D01*
X354443Y-340880D01*
X354478Y-340837D01*
X354517Y-340790D01*
X354559Y-340732D01*
X354602Y-340674D01*
X354644Y-340616D01*
X354676Y-340561D01*
X354679Y-340554D01*
X354687Y-340538D01*
X354699Y-340511D01*
X354714Y-340476D01*
X354726Y-340433D01*
X354738Y-340387D01*
X354745Y-340336D01*
X354749Y-340282D01*
Y-340278D01*
Y-340274D01*
Y-340251D01*
X354742Y-340212D01*
X354734Y-340170D01*
X354718Y-340119D01*
X354699Y-340065D01*
X354668Y-340014D01*
X354629Y-339964D01*
X354625Y-339960D01*
X354610Y-339945D01*
X354583Y-339925D01*
X354548Y-339898D01*
X354501Y-339875D01*
X354451Y-339855D01*
X354388Y-339840D01*
X354319Y-339836D01*
X354295D01*
X354280Y-339840D01*
X354237Y-339844D01*
X354183Y-339851D01*
X354125Y-339871D01*
X354063Y-339894D01*
X354004Y-339925D01*
X353950Y-339972D01*
X353946Y-339979D01*
X353931Y-339995D01*
X353911Y-340026D01*
X353888Y-340069D01*
X353861Y-340119D01*
X353841Y-340185D01*
X353826Y-340259D01*
X353822Y-340344D01*
X353504D01*
Y-340340D01*
Y-340329D01*
Y-340309D01*
X353508Y-340286D01*
X353512Y-340259D01*
X353516Y-340224D01*
X353531Y-340146D01*
X353558Y-340057D01*
X353578Y-340010D01*
X353597Y-339964D01*
X353624Y-339917D01*
X353651Y-339875D01*
X353686Y-339828D01*
X353725Y-339789D01*
X353729Y-339785D01*
X353737Y-339781D01*
X353748Y-339770D01*
X353764Y-339754D01*
X353787Y-339739D01*
X353814Y-339723D01*
X353845Y-339704D01*
X353884Y-339681D01*
X353923Y-339661D01*
X353965Y-339642D01*
X354016Y-339626D01*
X354070Y-339611D01*
X354125Y-339595D01*
X354187Y-339584D01*
X354249Y-339580D01*
X354319Y-339576D01*
X354353D01*
X354377Y-339580D01*
D02*
G37*
G36*
X291585Y-306227D02*
X291613D01*
X291647Y-306231D01*
X291725Y-306247D01*
X291810Y-306266D01*
X291903Y-306301D01*
X291989Y-306344D01*
X292032Y-306375D01*
X292070Y-306406D01*
X292074Y-306410D01*
X292078Y-306414D01*
X292090Y-306425D01*
X292101Y-306441D01*
X292117Y-306456D01*
X292132Y-306480D01*
X292171Y-306534D01*
X292210Y-306604D01*
X292241Y-306689D01*
X292264Y-306782D01*
X292268Y-306837D01*
X292272Y-306891D01*
Y-306895D01*
Y-306906D01*
X292268Y-306930D01*
X292264Y-306957D01*
X292257Y-306992D01*
X292249Y-307034D01*
X292233Y-307081D01*
X292214Y-307139D01*
X292191Y-307197D01*
X292160Y-307267D01*
X292121Y-307337D01*
X292074Y-307415D01*
X292024Y-307496D01*
X291962Y-307581D01*
X291888Y-307671D01*
X291807Y-307764D01*
X291143Y-308486D01*
X292389D01*
Y-308742D01*
X290763D01*
Y-308517D01*
X291620Y-307562D01*
X291624Y-307558D01*
X291628Y-307550D01*
X291640Y-307543D01*
X291651Y-307527D01*
X291686Y-307485D01*
X291725Y-307438D01*
X291768Y-307380D01*
X291810Y-307322D01*
X291853Y-307263D01*
X291884Y-307209D01*
X291888Y-307201D01*
X291896Y-307186D01*
X291907Y-307159D01*
X291923Y-307124D01*
X291935Y-307081D01*
X291946Y-307034D01*
X291954Y-306984D01*
X291958Y-306930D01*
Y-306926D01*
Y-306922D01*
Y-306899D01*
X291950Y-306860D01*
X291942Y-306817D01*
X291927Y-306767D01*
X291907Y-306712D01*
X291876Y-306662D01*
X291838Y-306611D01*
X291834Y-306608D01*
X291818Y-306592D01*
X291791Y-306573D01*
X291756Y-306545D01*
X291709Y-306522D01*
X291659Y-306503D01*
X291597Y-306487D01*
X291527Y-306483D01*
X291504D01*
X291488Y-306487D01*
X291446Y-306491D01*
X291391Y-306499D01*
X291333Y-306518D01*
X291271Y-306542D01*
X291213Y-306573D01*
X291159Y-306619D01*
X291155Y-306627D01*
X291139Y-306643D01*
X291120Y-306674D01*
X291096Y-306716D01*
X291069Y-306767D01*
X291050Y-306833D01*
X291034Y-306906D01*
X291031Y-306992D01*
X290712D01*
Y-306988D01*
Y-306976D01*
Y-306957D01*
X290716Y-306933D01*
X290720Y-306906D01*
X290724Y-306871D01*
X290739Y-306794D01*
X290767Y-306705D01*
X290786Y-306658D01*
X290806Y-306611D01*
X290833Y-306565D01*
X290860Y-306522D01*
X290895Y-306476D01*
X290933Y-306437D01*
X290937Y-306433D01*
X290945Y-306429D01*
X290957Y-306417D01*
X290972Y-306402D01*
X290996Y-306386D01*
X291023Y-306371D01*
X291054Y-306351D01*
X291093Y-306328D01*
X291131Y-306309D01*
X291174Y-306289D01*
X291225Y-306274D01*
X291279Y-306258D01*
X291333Y-306243D01*
X291395Y-306231D01*
X291457Y-306227D01*
X291527Y-306224D01*
X291562D01*
X291585Y-306227D01*
D02*
G37*
G36*
X289583Y-306262D02*
X289618D01*
X289657Y-306270D01*
X289704Y-306274D01*
X289750Y-306282D01*
X289855Y-306305D01*
X289964Y-306340D01*
X290014Y-306363D01*
X290064Y-306386D01*
X290115Y-306417D01*
X290158Y-306452D01*
X290161Y-306456D01*
X290169Y-306460D01*
X290177Y-306472D01*
X290192Y-306487D01*
X290212Y-306507D01*
X290231Y-306530D01*
X290251Y-306561D01*
X290274Y-306592D01*
X290293Y-306631D01*
X290313Y-306670D01*
X290332Y-306716D01*
X290352Y-306767D01*
X290367Y-306821D01*
X290375Y-306879D01*
X290383Y-306941D01*
X290386Y-307007D01*
Y-307011D01*
Y-307019D01*
Y-307031D01*
Y-307046D01*
X290379Y-307089D01*
X290371Y-307147D01*
X290355Y-307209D01*
X290332Y-307279D01*
X290301Y-307349D01*
X290258Y-307415D01*
X290254Y-307422D01*
X290235Y-307442D01*
X290208Y-307473D01*
X290169Y-307512D01*
X290119Y-307550D01*
X290060Y-307593D01*
X289991Y-307632D01*
X289909Y-307667D01*
X290495Y-308722D01*
Y-308742D01*
X290142D01*
X289603Y-307737D01*
X289021D01*
Y-308742D01*
X288691D01*
Y-306258D01*
X289552D01*
X289583Y-306262D01*
D02*
G37*
G36*
X293960Y-306526D02*
X293886D01*
X293867Y-306530D01*
X293840D01*
X293809Y-306534D01*
X293774Y-306542D01*
X293735Y-306545D01*
X293688Y-306557D01*
X293595Y-306584D01*
X293498Y-306623D01*
X293448Y-306646D01*
X293401Y-306677D01*
X293355Y-306709D01*
X293312Y-306747D01*
X293308Y-306751D01*
X293304Y-306759D01*
X293293Y-306771D01*
X293277Y-306786D01*
X293262Y-306809D01*
X293242Y-306837D01*
X293223Y-306868D01*
X293199Y-306903D01*
X293176Y-306941D01*
X293157Y-306984D01*
X293133Y-307034D01*
X293114Y-307089D01*
X293099Y-307143D01*
X293083Y-307205D01*
X293071Y-307271D01*
X293064Y-307341D01*
X293068Y-307337D01*
X293071Y-307329D01*
X293083Y-307322D01*
X293099Y-307306D01*
X293118Y-307291D01*
X293141Y-307271D01*
X293172Y-307248D01*
X293203Y-307228D01*
X293238Y-307209D01*
X293281Y-307186D01*
X293370Y-307151D01*
X293425Y-307135D01*
X293479Y-307124D01*
X293537Y-307120D01*
X293599Y-307116D01*
X293630D01*
X293653Y-307120D01*
X293681Y-307124D01*
X293712Y-307127D01*
X293785Y-307143D01*
X293867Y-307170D01*
X293910Y-307190D01*
X293952Y-307213D01*
X293995Y-307240D01*
X294038Y-307267D01*
X294076Y-307306D01*
X294115Y-307345D01*
X294119Y-307349D01*
X294123Y-307356D01*
X294134Y-307368D01*
X294146Y-307387D01*
X294162Y-307407D01*
X294177Y-307438D01*
X294193Y-307469D01*
X294212Y-307504D01*
X294232Y-307547D01*
X294247Y-307589D01*
X294263Y-307640D01*
X294278Y-307690D01*
X294301Y-307806D01*
X294305Y-307869D01*
X294309Y-307935D01*
Y-307938D01*
Y-307950D01*
Y-307969D01*
X294305Y-307997D01*
X294301Y-308032D01*
X294298Y-308067D01*
X294294Y-308109D01*
X294282Y-308156D01*
X294259Y-308253D01*
X294220Y-308354D01*
X294197Y-308404D01*
X294169Y-308454D01*
X294138Y-308501D01*
X294100Y-308548D01*
X294096Y-308552D01*
X294092Y-308559D01*
X294076Y-308567D01*
X294061Y-308582D01*
X294041Y-308602D01*
X294014Y-308621D01*
X293987Y-308641D01*
X293952Y-308660D01*
X293913Y-308683D01*
X293871Y-308703D01*
X293824Y-308722D01*
X293778Y-308742D01*
X293723Y-308757D01*
X293665Y-308765D01*
X293603Y-308773D01*
X293541Y-308776D01*
X293506D01*
X293483Y-308773D01*
X293452Y-308769D01*
X293417Y-308761D01*
X293378Y-308753D01*
X293335Y-308742D01*
X293289Y-308730D01*
X293242Y-308711D01*
X293196Y-308687D01*
X293145Y-308660D01*
X293099Y-308629D01*
X293052Y-308594D01*
X293005Y-308552D01*
X292963Y-308505D01*
X292959Y-308501D01*
X292955Y-308493D01*
X292943Y-308478D01*
X292928Y-308454D01*
X292912Y-308427D01*
X292893Y-308396D01*
X292874Y-308358D01*
X292854Y-308315D01*
X292831Y-308264D01*
X292811Y-308210D01*
X292792Y-308152D01*
X292776Y-308090D01*
X292761Y-308024D01*
X292749Y-307954D01*
X292745Y-307876D01*
X292742Y-307799D01*
Y-307679D01*
Y-307675D01*
Y-307671D01*
Y-307647D01*
X292745Y-307612D01*
Y-307566D01*
X292749Y-307508D01*
X292757Y-307442D01*
X292765Y-307368D01*
X292776Y-307291D01*
X292792Y-307205D01*
X292811Y-307120D01*
X292835Y-307034D01*
X292866Y-306945D01*
X292897Y-306860D01*
X292936Y-306778D01*
X292982Y-306701D01*
X293033Y-306631D01*
X293037Y-306627D01*
X293048Y-306615D01*
X293064Y-306596D01*
X293087Y-306573D01*
X293118Y-306545D01*
X293157Y-306515D01*
X293199Y-306483D01*
X293250Y-306449D01*
X293308Y-306414D01*
X293374Y-306383D01*
X293444Y-306351D01*
X293521Y-306321D01*
X293607Y-306297D01*
X293700Y-306278D01*
X293797Y-306266D01*
X293902Y-306258D01*
X293960D01*
Y-306526D01*
D02*
G37*
%LPC*%
G36*
X287575Y-278509D02*
X287555D01*
X287540Y-278513D01*
X287501Y-278516D01*
X287455Y-278528D01*
X287400Y-278548D01*
X287346Y-278575D01*
X287288Y-278613D01*
X287237Y-278668D01*
X287233Y-278676D01*
X287218Y-278695D01*
X287198Y-278730D01*
X287175Y-278780D01*
X287152Y-278838D01*
X287132Y-278912D01*
X287117Y-278994D01*
X287113Y-279087D01*
Y-279091D01*
Y-279098D01*
Y-279110D01*
X287117Y-279130D01*
X287121Y-279172D01*
X287129Y-279230D01*
X287144Y-279296D01*
X287163Y-279366D01*
X287194Y-279432D01*
X287233Y-279498D01*
X287241Y-279506D01*
X287257Y-279525D01*
X287284Y-279549D01*
X287323Y-279579D01*
X287369Y-279611D01*
X287423Y-279634D01*
X287489Y-279653D01*
X287563Y-279661D01*
X287590D01*
X287621Y-279657D01*
X287660Y-279649D01*
X287703Y-279638D01*
X287753Y-279622D01*
X287804Y-279599D01*
X287854Y-279568D01*
X287862Y-279564D01*
X287877Y-279549D01*
X287901Y-279529D01*
X287932Y-279502D01*
X287963Y-279467D01*
X287994Y-279424D01*
X288025Y-279378D01*
X288052Y-279327D01*
Y-279203D01*
Y-279199D01*
Y-279188D01*
Y-279172D01*
X288048Y-279153D01*
Y-279126D01*
X288044Y-279095D01*
X288036Y-279025D01*
X288017Y-278947D01*
X287994Y-278862D01*
X287963Y-278780D01*
X287916Y-278703D01*
Y-278699D01*
X287908Y-278695D01*
X287893Y-278672D01*
X287862Y-278641D01*
X287823Y-278606D01*
X287773Y-278571D01*
X287714Y-278540D01*
X287649Y-278516D01*
X287614Y-278513D01*
X287575Y-278509D01*
D02*
G37*
G36*
X285344Y-278544D02*
X284960D01*
Y-280491D01*
X285340D01*
X285367Y-280487D01*
X285398Y-280484D01*
X285437Y-280480D01*
X285476Y-280472D01*
X285518Y-280460D01*
X285615Y-280433D01*
X285662Y-280414D01*
X285712Y-280394D01*
X285759Y-280367D01*
X285806Y-280336D01*
X285848Y-280301D01*
X285891Y-280258D01*
X285895Y-280255D01*
X285899Y-280247D01*
X285910Y-280235D01*
X285926Y-280216D01*
X285941Y-280189D01*
X285957Y-280161D01*
X285976Y-280127D01*
X285999Y-280084D01*
X286019Y-280041D01*
X286038Y-279991D01*
X286054Y-279937D01*
X286069Y-279874D01*
X286085Y-279812D01*
X286097Y-279743D01*
X286100Y-279665D01*
X286104Y-279587D01*
Y-279440D01*
Y-279436D01*
Y-279420D01*
Y-279401D01*
X286100Y-279370D01*
X286097Y-279335D01*
X286093Y-279292D01*
X286089Y-279250D01*
X286081Y-279199D01*
X286058Y-279095D01*
X286023Y-278986D01*
X285999Y-278932D01*
X285972Y-278877D01*
X285941Y-278831D01*
X285906Y-278784D01*
X285903Y-278780D01*
X285899Y-278772D01*
X285887Y-278761D01*
X285871Y-278745D01*
X285848Y-278730D01*
X285825Y-278710D01*
X285794Y-278687D01*
X285763Y-278664D01*
X285724Y-278644D01*
X285681Y-278621D01*
X285635Y-278602D01*
X285584Y-278582D01*
X285530Y-278567D01*
X285472Y-278555D01*
X285410Y-278548D01*
X285344Y-278544D01*
D02*
G37*
G36*
X299772Y-270181D02*
X299733Y-270247D01*
X299000Y-271396D01*
X299772D01*
Y-270181D01*
D02*
G37*
G36*
X293190Y-296176D02*
X293151Y-296241D01*
X292418Y-297390D01*
X293190D01*
Y-296176D01*
D02*
G37*
G36*
X288977Y-296009D02*
X288476D01*
Y-296952D01*
X289004D01*
X289019Y-296948D01*
X289066Y-296944D01*
X289120Y-296936D01*
X289182Y-296920D01*
X289248Y-296897D01*
X289310Y-296870D01*
X289369Y-296827D01*
X289376Y-296820D01*
X289392Y-296804D01*
X289415Y-296777D01*
X289442Y-296738D01*
X289465Y-296688D01*
X289489Y-296630D01*
X289504Y-296564D01*
X289512Y-296490D01*
Y-296486D01*
Y-296478D01*
Y-296466D01*
X289508Y-296451D01*
X289504Y-296408D01*
X289496Y-296358D01*
X289477Y-296300D01*
X289454Y-296241D01*
X289419Y-296187D01*
X289372Y-296137D01*
X289365Y-296133D01*
X289349Y-296117D01*
X289314Y-296098D01*
X289271Y-296075D01*
X289217Y-296051D01*
X289147Y-296032D01*
X289070Y-296016D01*
X288977Y-296009D01*
D02*
G37*
G36*
X291287Y-301693D02*
X291248Y-301759D01*
X290515Y-302907D01*
X291287D01*
Y-301693D01*
D02*
G37*
G36*
X289033Y-301526D02*
X288532D01*
Y-302469D01*
X289060D01*
X289075Y-302465D01*
X289122Y-302461D01*
X289176Y-302453D01*
X289239Y-302438D01*
X289304Y-302415D01*
X289367Y-302387D01*
X289425Y-302345D01*
X289433Y-302337D01*
X289448Y-302322D01*
X289471Y-302294D01*
X289498Y-302256D01*
X289522Y-302205D01*
X289545Y-302147D01*
X289561Y-302081D01*
X289568Y-302007D01*
Y-302003D01*
Y-301996D01*
Y-301984D01*
X289564Y-301968D01*
X289561Y-301926D01*
X289553Y-301875D01*
X289533Y-301817D01*
X289510Y-301759D01*
X289475Y-301705D01*
X289429Y-301654D01*
X289421Y-301650D01*
X289405Y-301635D01*
X289370Y-301615D01*
X289328Y-301592D01*
X289273Y-301569D01*
X289204Y-301549D01*
X289126Y-301534D01*
X289033Y-301526D01*
D02*
G37*
G36*
X293006Y-301483D02*
X292975D01*
X292940Y-301491D01*
X292897Y-301499D01*
X292851Y-301511D01*
X292800Y-301534D01*
X292750Y-301561D01*
X292703Y-301600D01*
X292699Y-301604D01*
X292688Y-301619D01*
X292668Y-301646D01*
X292649Y-301681D01*
X292626Y-301728D01*
X292610Y-301782D01*
X292595Y-301844D01*
X292591Y-301914D01*
Y-301918D01*
Y-301922D01*
Y-301945D01*
X292599Y-301980D01*
X292606Y-302023D01*
X292618Y-302069D01*
X292637Y-302120D01*
X292665Y-302170D01*
X292703Y-302217D01*
X292707Y-302221D01*
X292723Y-302236D01*
X292750Y-302252D01*
X292785Y-302275D01*
X292828Y-302294D01*
X292878Y-302314D01*
X292940Y-302329D01*
X293006Y-302333D01*
X293014D01*
X293037Y-302329D01*
X293072Y-302325D01*
X293115Y-302318D01*
X293165Y-302306D01*
X293215Y-302283D01*
X293262Y-302256D01*
X293309Y-302217D01*
X293313Y-302213D01*
X293328Y-302197D01*
X293343Y-302170D01*
X293367Y-302135D01*
X293386Y-302093D01*
X293406Y-302038D01*
X293417Y-301980D01*
X293421Y-301914D01*
Y-301910D01*
Y-301906D01*
Y-301883D01*
X293413Y-301848D01*
X293406Y-301805D01*
X293394Y-301755D01*
X293371Y-301705D01*
X293343Y-301650D01*
X293305Y-301604D01*
X293301Y-301600D01*
X293285Y-301584D01*
X293258Y-301565D01*
X293223Y-301542D01*
X293181Y-301522D01*
X293130Y-301503D01*
X293072Y-301487D01*
X293006Y-301483D01*
D02*
G37*
G36*
X293002Y-302593D02*
X292967D01*
X292928Y-302601D01*
X292878Y-302609D01*
X292824Y-302624D01*
X292769Y-302647D01*
X292711Y-302682D01*
X292661Y-302725D01*
X292657Y-302733D01*
X292641Y-302748D01*
X292622Y-302779D01*
X292599Y-302818D01*
X292571Y-302869D01*
X292552Y-302927D01*
X292536Y-302993D01*
X292533Y-303070D01*
Y-303074D01*
Y-303078D01*
Y-303090D01*
X292536Y-303105D01*
X292540Y-303144D01*
X292548Y-303191D01*
X292564Y-303241D01*
X292587Y-303299D01*
X292614Y-303350D01*
X292657Y-303400D01*
X292665Y-303404D01*
X292680Y-303420D01*
X292707Y-303439D01*
X292750Y-303458D01*
X292800Y-303482D01*
X292859Y-303501D01*
X292928Y-303517D01*
X293006Y-303520D01*
X293029D01*
X293041Y-303517D01*
X293084Y-303513D01*
X293134Y-303505D01*
X293188Y-303489D01*
X293247Y-303470D01*
X293301Y-303439D01*
X293351Y-303400D01*
X293355Y-303392D01*
X293371Y-303377D01*
X293390Y-303350D01*
X293417Y-303311D01*
X293441Y-303264D01*
X293460Y-303206D01*
X293475Y-303140D01*
X293479Y-303066D01*
Y-303063D01*
Y-303059D01*
Y-303047D01*
Y-303032D01*
X293472Y-302993D01*
X293464Y-302946D01*
X293448Y-302892D01*
X293425Y-302834D01*
X293390Y-302779D01*
X293347Y-302725D01*
X293340Y-302721D01*
X293324Y-302706D01*
X293293Y-302682D01*
X293254Y-302659D01*
X293204Y-302636D01*
X293146Y-302612D01*
X293080Y-302597D01*
X293002Y-302593D01*
D02*
G37*
G36*
X292268Y-255693D02*
X292229Y-255759D01*
X291496Y-256907D01*
X292268D01*
Y-255693D01*
D02*
G37*
G36*
X290013Y-255526D02*
X289513D01*
Y-256469D01*
X290041D01*
X290056Y-256465D01*
X290103Y-256461D01*
X290157Y-256453D01*
X290219Y-256438D01*
X290285Y-256415D01*
X290347Y-256387D01*
X290405Y-256345D01*
X290413Y-256337D01*
X290429Y-256322D01*
X290452Y-256294D01*
X290479Y-256256D01*
X290502Y-256205D01*
X290526Y-256147D01*
X290541Y-256081D01*
X290549Y-256007D01*
Y-256003D01*
Y-255996D01*
Y-255984D01*
X290545Y-255968D01*
X290541Y-255926D01*
X290533Y-255875D01*
X290514Y-255817D01*
X290491Y-255759D01*
X290456Y-255705D01*
X290409Y-255654D01*
X290401Y-255650D01*
X290386Y-255635D01*
X290351Y-255615D01*
X290308Y-255592D01*
X290254Y-255569D01*
X290184Y-255549D01*
X290107Y-255534D01*
X290013Y-255526D01*
D02*
G37*
G36*
X277425Y-313810D02*
X276210D01*
X276276Y-313848D01*
X277425Y-314582D01*
Y-313810D01*
D02*
G37*
G36*
X276525Y-317488D02*
X276521D01*
X276513D01*
X276501D01*
X276486Y-317492D01*
X276443Y-317496D01*
X276393Y-317503D01*
X276335Y-317523D01*
X276276Y-317546D01*
X276222Y-317581D01*
X276172Y-317628D01*
X276168Y-317635D01*
X276152Y-317651D01*
X276133Y-317686D01*
X276110Y-317728D01*
X276086Y-317783D01*
X276067Y-317853D01*
X276051Y-317930D01*
X276044Y-318023D01*
Y-318524D01*
X276986D01*
Y-317996D01*
X276982Y-317981D01*
X276979Y-317934D01*
X276971Y-317880D01*
X276955Y-317818D01*
X276932Y-317752D01*
X276905Y-317690D01*
X276862Y-317632D01*
X276854Y-317624D01*
X276839Y-317608D01*
X276812Y-317585D01*
X276773Y-317558D01*
X276723Y-317534D01*
X276664Y-317511D01*
X276598Y-317496D01*
X276525Y-317488D01*
D02*
G37*
G36*
X279520Y-253032D02*
X279136D01*
Y-254980D01*
X279517D01*
X279544Y-254976D01*
X279575Y-254972D01*
X279614Y-254968D01*
X279652Y-254960D01*
X279695Y-254949D01*
X279792Y-254922D01*
X279839Y-254902D01*
X279889Y-254883D01*
X279936Y-254855D01*
X279982Y-254824D01*
X280025Y-254790D01*
X280067Y-254747D01*
X280071Y-254743D01*
X280075Y-254735D01*
X280087Y-254724D01*
X280102Y-254704D01*
X280118Y-254677D01*
X280134Y-254650D01*
X280153Y-254615D01*
X280176Y-254572D01*
X280196Y-254530D01*
X280215Y-254479D01*
X280230Y-254425D01*
X280246Y-254363D01*
X280261Y-254301D01*
X280273Y-254231D01*
X280277Y-254153D01*
X280281Y-254076D01*
Y-253928D01*
Y-253924D01*
Y-253909D01*
Y-253889D01*
X280277Y-253858D01*
X280273Y-253823D01*
X280269Y-253781D01*
X280265Y-253738D01*
X280258Y-253688D01*
X280234Y-253583D01*
X280199Y-253474D01*
X280176Y-253420D01*
X280149Y-253366D01*
X280118Y-253319D01*
X280083Y-253273D01*
X280079Y-253269D01*
X280075Y-253261D01*
X280064Y-253249D01*
X280048Y-253234D01*
X280025Y-253218D01*
X280002Y-253199D01*
X279971Y-253175D01*
X279940Y-253152D01*
X279901Y-253133D01*
X279858Y-253110D01*
X279811Y-253090D01*
X279761Y-253071D01*
X279707Y-253055D01*
X279648Y-253044D01*
X279586Y-253036D01*
X279520Y-253032D01*
D02*
G37*
G36*
X261996Y-257983D02*
X261973D01*
X261958Y-257987D01*
X261915Y-257991D01*
X261860Y-258007D01*
X261802Y-258030D01*
X261744Y-258061D01*
X261686Y-258108D01*
X261663Y-258139D01*
X261639Y-258170D01*
Y-258174D01*
X261635Y-258177D01*
X261628Y-258189D01*
X261624Y-258205D01*
X261616Y-258224D01*
X261604Y-258247D01*
X261597Y-258274D01*
X261585Y-258309D01*
X261573Y-258344D01*
X261566Y-258387D01*
X261554Y-258434D01*
X261546Y-258484D01*
X261538Y-258538D01*
X261535Y-258596D01*
X261531Y-258659D01*
X261527Y-258728D01*
Y-259237D01*
Y-259241D01*
Y-259252D01*
Y-259276D01*
X261531Y-259303D01*
Y-259334D01*
X261535Y-259372D01*
X261538Y-259415D01*
X261542Y-259462D01*
X261554Y-259559D01*
X261577Y-259656D01*
X261604Y-259749D01*
X261624Y-259791D01*
X261643Y-259830D01*
Y-259834D01*
X261647Y-259838D01*
X261666Y-259861D01*
X261694Y-259889D01*
X261732Y-259923D01*
X261783Y-259958D01*
X261845Y-259989D01*
X261919Y-260013D01*
X261958Y-260017D01*
X262000Y-260020D01*
X262023D01*
X262039Y-260017D01*
X262082Y-260013D01*
X262132Y-259997D01*
X262186Y-259978D01*
X262245Y-259947D01*
X262299Y-259900D01*
X262322Y-259873D01*
X262346Y-259842D01*
Y-259838D01*
X262349Y-259834D01*
X262357Y-259823D01*
X262365Y-259807D01*
X262373Y-259788D01*
X262380Y-259764D01*
X262392Y-259733D01*
X262404Y-259702D01*
X262415Y-259664D01*
X262423Y-259621D01*
X262435Y-259574D01*
X262442Y-259524D01*
X262450Y-259470D01*
X262458Y-259407D01*
X262462Y-259341D01*
X262466Y-259272D01*
Y-258756D01*
Y-258752D01*
Y-258736D01*
Y-258717D01*
Y-258690D01*
X262462Y-258655D01*
Y-258620D01*
X262458Y-258577D01*
X262450Y-258530D01*
X262439Y-258434D01*
X262419Y-258336D01*
X262392Y-258247D01*
X262373Y-258205D01*
X262353Y-258170D01*
Y-258166D01*
X262349Y-258162D01*
X262334Y-258139D01*
X262307Y-258112D01*
X262268Y-258077D01*
X262217Y-258042D01*
X262155Y-258011D01*
X262082Y-257991D01*
X262039Y-257987D01*
X261996Y-257983D01*
D02*
G37*
G36*
X295690Y-314675D02*
X295652Y-314741D01*
X294918Y-315890D01*
X295690D01*
Y-314675D01*
D02*
G37*
G36*
X291477Y-314509D02*
X290976D01*
Y-315452D01*
X291504D01*
X291519Y-315448D01*
X291566Y-315444D01*
X291620Y-315436D01*
X291682Y-315421D01*
X291748Y-315397D01*
X291810Y-315370D01*
X291868Y-315327D01*
X291876Y-315320D01*
X291892Y-315304D01*
X291915Y-315277D01*
X291942Y-315238D01*
X291966Y-315188D01*
X291989Y-315129D01*
X292004Y-315064D01*
X292012Y-314990D01*
Y-314986D01*
Y-314978D01*
Y-314967D01*
X292008Y-314951D01*
X292004Y-314908D01*
X291997Y-314858D01*
X291977Y-314800D01*
X291954Y-314741D01*
X291919Y-314687D01*
X291872Y-314637D01*
X291865Y-314633D01*
X291849Y-314617D01*
X291814Y-314598D01*
X291772Y-314575D01*
X291717Y-314551D01*
X291647Y-314532D01*
X291570Y-314516D01*
X291477Y-314509D01*
D02*
G37*
G36*
X293541Y-315366D02*
X293514D01*
X293482Y-315370D01*
X293444Y-315378D01*
X293397Y-315389D01*
X293347Y-315409D01*
X293292Y-315432D01*
X293242Y-315463D01*
X293238Y-315467D01*
X293219Y-315479D01*
X293195Y-315502D01*
X293168Y-315529D01*
X293137Y-315564D01*
X293106Y-315607D01*
X293075Y-315653D01*
X293052Y-315704D01*
Y-315820D01*
Y-315824D01*
Y-315832D01*
Y-315847D01*
X293056Y-315870D01*
Y-315898D01*
X293060Y-315925D01*
X293067Y-315995D01*
X293087Y-316072D01*
X293110Y-316154D01*
X293141Y-316235D01*
X293188Y-316309D01*
X293195Y-316317D01*
X293215Y-316336D01*
X293242Y-316367D01*
X293285Y-316398D01*
X293335Y-316433D01*
X293393Y-316464D01*
X293463Y-316484D01*
X293498Y-316488D01*
X293537Y-316491D01*
X293556D01*
X293572Y-316488D01*
X293611Y-316484D01*
X293657Y-316472D01*
X293711Y-316453D01*
X293770Y-316429D01*
X293820Y-316390D01*
X293870Y-316340D01*
X293874Y-316332D01*
X293890Y-316313D01*
X293909Y-316278D01*
X293933Y-316231D01*
X293952Y-316173D01*
X293971Y-316103D01*
X293987Y-316022D01*
X293991Y-315933D01*
Y-315929D01*
Y-315921D01*
Y-315909D01*
Y-315890D01*
X293983Y-315843D01*
X293975Y-315785D01*
X293960Y-315723D01*
X293940Y-315653D01*
X293909Y-315587D01*
X293867Y-315525D01*
X293863Y-315517D01*
X293843Y-315502D01*
X293816Y-315475D01*
X293781Y-315444D01*
X293735Y-315417D01*
X293680Y-315389D01*
X293615Y-315374D01*
X293541Y-315366D01*
D02*
G37*
G36*
X309659Y-314482D02*
X309628D01*
X309609Y-314485D01*
X309581Y-314489D01*
X309550Y-314493D01*
X309481Y-314513D01*
X309403Y-314540D01*
X309364Y-314559D01*
X309321Y-314582D01*
X309283Y-314610D01*
X309244Y-314641D01*
X309205Y-314676D01*
X309170Y-314718D01*
Y-314722D01*
X309162Y-314730D01*
X309155Y-314741D01*
X309143Y-314761D01*
X309127Y-314784D01*
X309112Y-314815D01*
X309096Y-314850D01*
X309081Y-314889D01*
X309065Y-314932D01*
X309046Y-314982D01*
X309030Y-315036D01*
X309019Y-315095D01*
X309007Y-315157D01*
X308996Y-315227D01*
X308992Y-315296D01*
X308988Y-315374D01*
Y-315556D01*
Y-315560D01*
Y-315576D01*
Y-315599D01*
X308992Y-315626D01*
Y-315661D01*
X308996Y-315704D01*
X309003Y-315750D01*
X309011Y-315801D01*
X309030Y-315909D01*
X309062Y-316018D01*
X309108Y-316127D01*
X309135Y-316181D01*
X309166Y-316228D01*
X309170Y-316231D01*
X309174Y-316239D01*
X309186Y-316251D01*
X309197Y-316266D01*
X309217Y-316286D01*
X309240Y-316305D01*
X309294Y-316348D01*
X309364Y-316394D01*
X309450Y-316433D01*
X309496Y-316449D01*
X309546Y-316460D01*
X309601Y-316468D01*
X309659Y-316472D01*
X309690D01*
X309713Y-316468D01*
X309737Y-316464D01*
X309768Y-316460D01*
X309841Y-316445D01*
X309919Y-316418D01*
X309962Y-316398D01*
X310000Y-316375D01*
X310043Y-316348D01*
X310082Y-316317D01*
X310117Y-316282D01*
X310152Y-316243D01*
X310156Y-316239D01*
X310159Y-316231D01*
X310167Y-316220D01*
X310179Y-316200D01*
X310191Y-316177D01*
X310206Y-316146D01*
X310222Y-316111D01*
X310241Y-316072D01*
X310257Y-316030D01*
X310272Y-315979D01*
X310288Y-315925D01*
X310299Y-315867D01*
X310311Y-315801D01*
X310322Y-315731D01*
X310326Y-315657D01*
X310330Y-315580D01*
Y-315397D01*
Y-315393D01*
Y-315378D01*
Y-315355D01*
X310326Y-315323D01*
Y-315289D01*
X310322Y-315246D01*
X310315Y-315199D01*
X310307Y-315149D01*
X310288Y-315040D01*
X310257Y-314928D01*
X310214Y-314819D01*
X310187Y-314769D01*
X310156Y-314722D01*
Y-314718D01*
X310148Y-314710D01*
X310136Y-314699D01*
X310125Y-314683D01*
X310105Y-314668D01*
X310082Y-314645D01*
X310028Y-314602D01*
X309958Y-314559D01*
X309872Y-314520D01*
X309826Y-314505D01*
X309771Y-314493D01*
X309717Y-314485D01*
X309659Y-314482D01*
D02*
G37*
G36*
X366344Y-327026D02*
X365960D01*
Y-328974D01*
X366340D01*
X366367Y-328970D01*
X366398Y-328966D01*
X366437Y-328962D01*
X366476Y-328955D01*
X366518Y-328943D01*
X366615Y-328916D01*
X366662Y-328896D01*
X366712Y-328877D01*
X366759Y-328850D01*
X366806Y-328819D01*
X366848Y-328784D01*
X366891Y-328741D01*
X366895Y-328737D01*
X366899Y-328729D01*
X366910Y-328718D01*
X366926Y-328698D01*
X366941Y-328671D01*
X366957Y-328644D01*
X366976Y-328609D01*
X367000Y-328567D01*
X367019Y-328524D01*
X367038Y-328473D01*
X367054Y-328419D01*
X367069Y-328357D01*
X367085Y-328295D01*
X367096Y-328225D01*
X367100Y-328147D01*
X367104Y-328070D01*
Y-327922D01*
Y-327919D01*
Y-327903D01*
Y-327884D01*
X367100Y-327853D01*
X367096Y-327818D01*
X367093Y-327775D01*
X367089Y-327732D01*
X367081Y-327682D01*
X367058Y-327577D01*
X367023Y-327468D01*
X367000Y-327414D01*
X366972Y-327360D01*
X366941Y-327313D01*
X366906Y-327267D01*
X366902Y-327263D01*
X366899Y-327255D01*
X366887Y-327243D01*
X366871Y-327228D01*
X366848Y-327212D01*
X366825Y-327193D01*
X366794Y-327170D01*
X366763Y-327146D01*
X366724Y-327127D01*
X366681Y-327104D01*
X366635Y-327084D01*
X366584Y-327065D01*
X366530Y-327049D01*
X366472Y-327038D01*
X366410Y-327030D01*
X366344Y-327026D01*
D02*
G37*
G36*
X344146Y-344026D02*
X343661D01*
Y-344818D01*
X344193D01*
X344232Y-344814D01*
X344282Y-344806D01*
X344337Y-344791D01*
X344391Y-344775D01*
X344449Y-344748D01*
X344500Y-344713D01*
X344503Y-344709D01*
X344519Y-344693D01*
X344538Y-344670D01*
X344566Y-344635D01*
X344589Y-344593D01*
X344608Y-344542D01*
X344624Y-344484D01*
X344628Y-344418D01*
Y-344414D01*
Y-344410D01*
Y-344383D01*
X344620Y-344348D01*
X344612Y-344305D01*
X344597Y-344259D01*
X344577Y-344209D01*
X344546Y-344162D01*
X344507Y-344123D01*
X344503Y-344119D01*
X344484Y-344108D01*
X344457Y-344092D01*
X344418Y-344073D01*
X344368Y-344057D01*
X344306Y-344042D01*
X344232Y-344030D01*
X344146Y-344026D01*
D02*
G37*
G36*
X344209Y-345085D02*
X343661D01*
Y-345974D01*
X344224D01*
X344240Y-345970D01*
X344279Y-345966D01*
X344333Y-345958D01*
X344391Y-345947D01*
X344449Y-345923D01*
X344507Y-345896D01*
X344562Y-345858D01*
X344566Y-345854D01*
X344581Y-345834D01*
X344604Y-345811D01*
X344628Y-345772D01*
X344651Y-345726D01*
X344674Y-345671D01*
X344690Y-345605D01*
X344694Y-345532D01*
Y-345528D01*
Y-345512D01*
X344690Y-345489D01*
X344686Y-345462D01*
X344678Y-345427D01*
X344667Y-345392D01*
X344655Y-345349D01*
X344632Y-345306D01*
X344608Y-345268D01*
X344577Y-345225D01*
X344534Y-345190D01*
X344488Y-345155D01*
X344434Y-345128D01*
X344368Y-345105D01*
X344294Y-345089D01*
X344209Y-345085D01*
D02*
G37*
G36*
X289521Y-306526D02*
X289021D01*
Y-307469D01*
X289548D01*
X289564Y-307465D01*
X289610Y-307461D01*
X289665Y-307453D01*
X289727Y-307438D01*
X289793Y-307415D01*
X289855Y-307387D01*
X289913Y-307345D01*
X289921Y-307337D01*
X289936Y-307322D01*
X289960Y-307294D01*
X289987Y-307256D01*
X290010Y-307205D01*
X290033Y-307147D01*
X290049Y-307081D01*
X290057Y-307007D01*
Y-307003D01*
Y-306996D01*
Y-306984D01*
X290053Y-306968D01*
X290049Y-306926D01*
X290041Y-306875D01*
X290022Y-306817D01*
X289998Y-306759D01*
X289964Y-306705D01*
X289917Y-306654D01*
X289909Y-306650D01*
X289894Y-306635D01*
X289859Y-306615D01*
X289816Y-306592D01*
X289762Y-306569D01*
X289692Y-306549D01*
X289614Y-306534D01*
X289521Y-306526D01*
D02*
G37*
G36*
X293545Y-307384D02*
X293518D01*
X293487Y-307387D01*
X293448Y-307395D01*
X293401Y-307407D01*
X293351Y-307426D01*
X293296Y-307450D01*
X293246Y-307481D01*
X293242Y-307485D01*
X293223Y-307496D01*
X293199Y-307519D01*
X293172Y-307547D01*
X293141Y-307581D01*
X293110Y-307624D01*
X293079Y-307671D01*
X293056Y-307721D01*
Y-307838D01*
Y-307841D01*
Y-307849D01*
Y-307865D01*
X293060Y-307888D01*
Y-307915D01*
X293064Y-307942D01*
X293071Y-308012D01*
X293091Y-308090D01*
X293114Y-308171D01*
X293145Y-308253D01*
X293192Y-308326D01*
X293199Y-308334D01*
X293219Y-308354D01*
X293246Y-308385D01*
X293289Y-308416D01*
X293339Y-308451D01*
X293397Y-308482D01*
X293467Y-308501D01*
X293502Y-308505D01*
X293541Y-308509D01*
X293560D01*
X293576Y-308505D01*
X293615Y-308501D01*
X293661Y-308489D01*
X293716Y-308470D01*
X293774Y-308447D01*
X293824Y-308408D01*
X293875Y-308358D01*
X293878Y-308350D01*
X293894Y-308330D01*
X293913Y-308295D01*
X293937Y-308249D01*
X293956Y-308191D01*
X293975Y-308121D01*
X293991Y-308039D01*
X293995Y-307950D01*
Y-307946D01*
Y-307938D01*
Y-307927D01*
Y-307907D01*
X293987Y-307861D01*
X293979Y-307803D01*
X293964Y-307741D01*
X293944Y-307671D01*
X293913Y-307605D01*
X293871Y-307543D01*
X293867Y-307535D01*
X293847Y-307519D01*
X293820Y-307492D01*
X293785Y-307461D01*
X293739Y-307434D01*
X293684Y-307407D01*
X293618Y-307391D01*
X293545Y-307384D01*
D02*
G37*
%LPD*%
D10*
X248528Y-266870D02*
G03*
X248528Y-266870I-492J0D01*
G01*
X251937Y-318835D02*
G03*
X251937Y-318835I-492J0D01*
G01*
X299823Y-304465D02*
G03*
X299823Y-304465I-492J0D01*
G01*
X364713Y-347350D02*
G03*
X364713Y-347350I-492J0D01*
G01*
D11*
X254102Y-304051D02*
G03*
X254102Y-304051I-984J0D01*
G01*
D12*
X269460Y-339500D02*
G03*
X269460Y-339500I-500J0D01*
G01*
X277465Y-358541D02*
G03*
X277465Y-358541I-13780J0D01*
G01*
X343965Y-360541D02*
G03*
X343965Y-360541I-13780J0D01*
G01*
X259417Y-339103D02*
X266504D01*
X259417Y-334575D02*
Y-331425D01*
Y-326898D02*
X266504D01*
X282185Y-318541D02*
X296685D01*
X282185Y-366041D02*
Y-318541D01*
Y-366041D02*
X298185D01*
X296685Y-318541D02*
X311185D01*
Y-366041D02*
Y-318541D01*
X295185Y-366041D02*
X311185D01*
X348641Y-348186D02*
X349882D01*
X346496Y-348254D02*
Y-348186D01*
X346713D01*
X346496Y-365499D02*
Y-358294D01*
X382087Y-381099D02*
Y-374161D01*
X346496Y-381099D02*
X382087D01*
X346496D02*
Y-373963D01*
X382087Y-365301D02*
Y-358491D01*
X379410Y-348580D02*
X379891D01*
X351685Y-360391D02*
X357685D01*
Y-362391D02*
Y-360391D01*
X351685Y-362391D02*
X357685D01*
X351685D02*
Y-360391D01*
X369685D02*
X375685D01*
Y-362391D02*
Y-360391D01*
X369685Y-362391D02*
X375685D01*
X369685D02*
Y-360391D01*
D13*
X251343Y-262250D02*
X271657D01*
X251343Y-282750D02*
Y-262250D01*
Y-282750D02*
X271657D01*
Y-262250D01*
X250165Y-307003D02*
Y-295997D01*
X275756D01*
Y-307003D02*
Y-295997D01*
X250165Y-307003D02*
X275756D01*
X305461Y-304252D02*
X305854D01*
Y-315748D02*
Y-304252D01*
X305461Y-315748D02*
X305854D01*
X305461D02*
Y-304252D01*
X298965Y-304095D02*
X304083D01*
X294711Y-301157D02*
Y-280842D01*
Y-301157D02*
X315211D01*
Y-280842D01*
X294711D02*
X315211D01*
X313669Y-305799D02*
X330094Y-322223D01*
X342622Y-309696D01*
X313669Y-305799D02*
X326197Y-293271D01*
X342622Y-309696D01*
X274398Y-256752D02*
X283453D01*
X274398Y-263248D02*
Y-256752D01*
Y-263248D02*
X283453D01*
X361957Y-338689D02*
Y-337311D01*
X366878Y-334555D02*
X369043D01*
X373965Y-338689D02*
Y-337311D01*
X291866Y-290319D02*
Y-286874D01*
X280055Y-290319D02*
X282909D01*
X289012D02*
X291866D01*
X280055D02*
Y-286874D01*
X280031Y-331163D02*
Y-328801D01*
X273339Y-331163D02*
Y-328801D01*
D14*
X288500Y-271461D02*
Y-269347D01*
X283618Y-264804D02*
X287000D01*
X283618Y-276004D02*
X287000D01*
M02*
