G04*
G04 #@! TF.GenerationSoftware,Altium Limited,Altium Designer,21.9.1 (22)*
G04*
G04 Layer_Color=32768*
%FSLAX25Y25*%
%MOIN*%
G70*
G04*
G04 #@! TF.SameCoordinates,E1323236-0D64-4C8B-8FC9-1981637C6FB2*
G04*
G04*
G04 #@! TF.FilePolarity,Positive*
G04*
G01*
G75*
%ADD62C,0.00394*%
%ADD64C,0.01575*%
%ADD65C,0.00197*%
D62*
X295610Y-271870D02*
Y-269705D01*
X294527Y-270787D02*
X296692D01*
X250878Y-338768D02*
X253043D01*
X251961Y-339850D02*
Y-337685D01*
X250878Y-327500D02*
X253043D01*
X251961Y-328583D02*
Y-326417D01*
X293799Y-309541D02*
X295965D01*
X294882Y-310624D02*
Y-308458D01*
X284091Y-303583D02*
Y-301417D01*
X283008Y-302500D02*
X285173D01*
X284179Y-308807D02*
Y-306642D01*
X283097Y-307724D02*
X285262D01*
X284179Y-298307D02*
Y-296142D01*
X283097Y-297224D02*
X285262D01*
X326754Y-306355D02*
X329538Y-309139D01*
X326754D02*
X329538Y-306355D01*
X353268Y-345083D02*
Y-342917D01*
X352185Y-344000D02*
X354350D01*
X291000Y-261083D02*
Y-258917D01*
X289917Y-260000D02*
X292083D01*
X263461Y-322083D02*
Y-319917D01*
X262378Y-321000D02*
X264543D01*
X276685Y-331951D02*
Y-328013D01*
X274717Y-329982D02*
X278654D01*
D64*
X269248Y-337000D02*
G03*
X269248Y-337000I-787J0D01*
G01*
D65*
X293641Y-274527D02*
X297578D01*
X293641Y-267047D02*
X297578D01*
X293641Y-274527D02*
Y-267047D01*
X297578Y-274527D02*
Y-267047D01*
X253929Y-342508D02*
Y-335028D01*
X249992Y-342508D02*
Y-335028D01*
X253929D01*
X249992Y-342508D02*
X253929D01*
X249992Y-331240D02*
Y-323760D01*
X253929Y-331240D02*
Y-323760D01*
X249992Y-331240D02*
X253929D01*
X249992Y-323760D02*
X253929D01*
X297980Y-303031D02*
X313335D01*
Y-316968D02*
Y-303031D01*
X297980Y-316968D02*
X313335D01*
X297980D02*
Y-303031D01*
X292717Y-313675D02*
Y-305407D01*
X297047Y-313675D02*
Y-305407D01*
X292717Y-313675D02*
X297047D01*
X292717Y-305407D02*
X297047D01*
X279957Y-304665D02*
X288224D01*
X279957Y-300335D02*
X288224D01*
Y-304665D02*
Y-300335D01*
X279957Y-304665D02*
Y-300335D01*
X280046Y-309890D02*
X288313D01*
X280046Y-305559D02*
X288313D01*
Y-309890D02*
Y-305559D01*
X280046Y-309890D02*
Y-305559D01*
Y-299390D02*
X288313D01*
X280046Y-295059D02*
X288313D01*
Y-299390D02*
Y-295059D01*
X280046Y-299390D02*
Y-295059D01*
X326197Y-292714D02*
X343179Y-309696D01*
X313113Y-305799D02*
X326197Y-292714D01*
X330094Y-322780D02*
X343179Y-309696D01*
X313113Y-305799D02*
X330094Y-322780D01*
X274004Y-256358D02*
X286996D01*
Y-263642D02*
Y-256358D01*
X274004Y-263642D02*
X286996D01*
X274004D02*
Y-256358D01*
X349528Y-345969D02*
X357008D01*
X349528Y-342032D02*
X357008D01*
Y-345969D02*
Y-342032D01*
X349528Y-345969D02*
Y-342032D01*
X286866Y-257835D02*
X295134D01*
X286866Y-262165D02*
X295134D01*
X286866D02*
Y-257835D01*
X295134Y-262165D02*
Y-257835D01*
X259720Y-319032D02*
X267201D01*
X259720Y-322969D02*
X267201D01*
X259720D02*
Y-319032D01*
X267201Y-322969D02*
Y-319032D01*
X270976Y-319155D02*
X282394D01*
X270976Y-340809D02*
X282394D01*
Y-319155D01*
X270976Y-340809D02*
Y-319155D01*
M02*
