G04*
G04 #@! TF.GenerationSoftware,Altium Limited,Altium Designer,21.9.1 (22)*
G04*
G04 Layer_Physical_Order=1*
G04 Layer_Color=255*
%FSLAX25Y25*%
%MOIN*%
G70*
G04*
G04 #@! TF.SameCoordinates,E1323236-0D64-4C8B-8FC9-1981637C6FB2*
G04*
G04*
G04 #@! TF.FilePolarity,Positive*
G04*
G01*
G75*
%ADD12C,0.01000*%
%ADD14C,0.00800*%
%ADD15R,0.02441X0.02598*%
%ADD16R,0.01657X0.07698*%
G04:AMPARAMS|DCode=17|XSize=76.98mil|YSize=16.57mil|CornerRadius=8.28mil|HoleSize=0mil|Usage=FLASHONLY|Rotation=90.000|XOffset=0mil|YOffset=0mil|HoleType=Round|Shape=RoundedRectangle|*
%AMROUNDEDRECTD17*
21,1,0.07698,0.00000,0,0,90.0*
21,1,0.06041,0.01657,0,0,90.0*
1,1,0.01657,0.00000,0.03021*
1,1,0.01657,0.00000,-0.03021*
1,1,0.01657,0.00000,-0.03021*
1,1,0.01657,0.00000,0.03021*
%
%ADD17ROUNDEDRECTD17*%
%ADD18R,0.03937X0.02362*%
%ADD19R,0.05118X0.02362*%
%ADD20R,0.02559X0.02756*%
%ADD21R,0.02756X0.02559*%
%ADD22R,0.01181X0.05118*%
%ADD23R,0.02362X0.05118*%
%ADD24R,0.03543X0.03740*%
%ADD25R,0.02362X0.04724*%
%ADD26R,0.02598X0.02441*%
%ADD27R,0.03150X0.03543*%
%ADD28R,0.04724X0.02165*%
%ADD29R,0.07480X0.06102*%
%ADD41C,0.05984*%
%ADD42R,0.05984X0.05984*%
%ADD45R,0.05984X0.05984*%
%ADD51C,0.01200*%
%ADD52C,0.02000*%
%ADD53C,0.05000*%
%ADD54C,0.06000*%
%ADD55C,0.19685*%
%ADD56P,0.08352X4X360.0*%
%ADD57C,0.05906*%
%ADD58O,0.04724X0.08661*%
%ADD59C,0.02756*%
%ADD60O,0.04724X0.07087*%
%ADD61C,0.01968*%
G36*
X275800Y-261000D02*
X275789Y-260905D01*
X275759Y-260820D01*
X275709Y-260745D01*
X275638Y-260680D01*
X275547Y-260625D01*
X275435Y-260580D01*
X275304Y-260545D01*
X275152Y-260520D01*
X274980Y-260505D01*
X274788Y-260500D01*
Y-259500D01*
X274980Y-259495D01*
X275152Y-259480D01*
X275304Y-259455D01*
X275435Y-259420D01*
X275547Y-259375D01*
X275638Y-259320D01*
X275709Y-259255D01*
X275759Y-259180D01*
X275789Y-259095D01*
X275800Y-259000D01*
Y-261000D01*
D02*
G37*
G36*
X303508Y-253255D02*
X304767Y-258654D01*
X306376Y-263959D01*
X308329Y-269148D01*
X310617Y-274198D01*
X313230Y-279087D01*
X316158Y-283795D01*
X319388Y-288302D01*
X322905Y-292588D01*
X326694Y-296634D01*
X330741Y-300424D01*
X335027Y-303941D01*
X339533Y-307170D01*
X344241Y-310098D01*
X349131Y-312712D01*
X354181Y-315000D01*
X359369Y-316952D01*
X359786Y-317079D01*
X360324Y-317438D01*
X361104Y-317593D01*
X383143D01*
X383187Y-317585D01*
X383707Y-317688D01*
X384185Y-318007D01*
X384504Y-318485D01*
X384607Y-319004D01*
X384598Y-319048D01*
Y-348792D01*
X384125Y-348952D01*
X384091Y-348908D01*
X383388Y-348369D01*
X383071Y-348237D01*
Y-353274D01*
Y-358311D01*
X383388Y-358180D01*
X384091Y-357641D01*
X384125Y-357596D01*
X384598Y-357757D01*
Y-366036D01*
X384125Y-366196D01*
X384091Y-366152D01*
X383388Y-365613D01*
X383071Y-365481D01*
Y-369731D01*
X381693D01*
Y-371109D01*
X378327D01*
X378417Y-371790D01*
X378756Y-372608D01*
X379058Y-373002D01*
X378812Y-373502D01*
X350558D01*
X350312Y-373002D01*
X350614Y-372608D01*
X350953Y-371790D01*
X351043Y-371109D01*
X344312D01*
X344402Y-371790D01*
X344740Y-372608D01*
X345043Y-373002D01*
X344796Y-373502D01*
X262089D01*
X249960Y-361374D01*
X249960Y-342799D01*
X250583D01*
Y-340500D01*
X251961D01*
Y-339122D01*
X253152D01*
X253169Y-339126D01*
X253186Y-339122D01*
X253969D01*
Y-339122D01*
X254181D01*
Y-338853D01*
X254599Y-338620D01*
X255086Y-338708D01*
Y-338708D01*
X255868D01*
X255886Y-338711D01*
X255903Y-338708D01*
X256425D01*
X256497Y-338716D01*
X256497Y-338716D01*
X256531Y-338772D01*
X256578Y-338886D01*
X256625Y-339059D01*
X256663Y-339290D01*
X256678Y-339455D01*
Y-340000D01*
X256816Y-340697D01*
X257211Y-341289D01*
X257803Y-341684D01*
X258500Y-341822D01*
X259197Y-341684D01*
X259789Y-341289D01*
X260184Y-340697D01*
X260322Y-340000D01*
Y-339095D01*
X260347Y-338708D01*
X260598D01*
Y-337961D01*
X260600Y-337952D01*
X260598Y-337936D01*
Y-337926D01*
X260601Y-337909D01*
X260598Y-337891D01*
Y-334771D01*
X255903D01*
X255886Y-334768D01*
X255868Y-334771D01*
X255086D01*
Y-334876D01*
X254497Y-334917D01*
X252181D01*
X252181Y-334917D01*
X252022Y-334949D01*
X249960D01*
Y-331319D01*
X253152D01*
X253169Y-331322D01*
X253179Y-331320D01*
X253190Y-331322D01*
X253204Y-331319D01*
X253969D01*
Y-331114D01*
X254590Y-331068D01*
X254836D01*
X255086Y-331081D01*
Y-331228D01*
X255869D01*
X255886Y-331231D01*
X255903Y-331228D01*
X260598D01*
Y-327291D01*
X255903D01*
X255886Y-327288D01*
X255869Y-327291D01*
X255086D01*
Y-327291D01*
X254587Y-327350D01*
X254283Y-327146D01*
X253969D01*
Y-327146D01*
X253222D01*
X253214Y-327143D01*
X253199Y-327146D01*
X253186D01*
X253169Y-327142D01*
X253152Y-327146D01*
X251961D01*
Y-325768D01*
X250583D01*
Y-323468D01*
X249960D01*
Y-317457D01*
X253061D01*
X253061Y-317457D01*
X253561Y-317401D01*
X254004Y-317489D01*
X254634Y-317363D01*
X254912Y-317178D01*
X255283Y-317047D01*
X255655Y-317178D01*
X255933Y-317363D01*
X256563Y-317489D01*
X257193Y-317363D01*
X257207Y-317354D01*
X257708Y-317621D01*
Y-318473D01*
X257815Y-319014D01*
X257932Y-319189D01*
X257938Y-319296D01*
X257708Y-319752D01*
X257309Y-319831D01*
X256723Y-320223D01*
X256331Y-320809D01*
X256194Y-321500D01*
X256331Y-322191D01*
X256723Y-322777D01*
X257309Y-323169D01*
X258000Y-323306D01*
X258691Y-323169D01*
X259142Y-322868D01*
X259642Y-323008D01*
Y-323008D01*
X262894D01*
Y-323220D01*
X263815D01*
Y-323008D01*
X263815D01*
Y-321000D01*
Y-318992D01*
X263815D01*
Y-318779D01*
X262894D01*
Y-318992D01*
X262155D01*
X262138Y-318989D01*
X262121Y-318992D01*
X261727D01*
X261618Y-318917D01*
X261284Y-318634D01*
X260846Y-318196D01*
X260824Y-318108D01*
X260962Y-317605D01*
X261037Y-317577D01*
X261681Y-317705D01*
X262007Y-317641D01*
X261347Y-316887D01*
X261274Y-316772D01*
X261240Y-316687D01*
X261243Y-316631D01*
X261284Y-316606D01*
X261363Y-316610D01*
X262501Y-315606D01*
X262428Y-315692D01*
X262387Y-315793D01*
X262378Y-315910D01*
X262401Y-316041D01*
X262455Y-316187D01*
X262542Y-316349D01*
X262660Y-316526D01*
X262810Y-316718D01*
X262992Y-316925D01*
X263089Y-317025D01*
X263093Y-317018D01*
X263610Y-317363D01*
X264240Y-317489D01*
X264871Y-317363D01*
X265148Y-317178D01*
X265520Y-317047D01*
X265892Y-317178D01*
X266169Y-317363D01*
X266799Y-317489D01*
X267430Y-317363D01*
X267707Y-317178D01*
X268079Y-317047D01*
X268451Y-317178D01*
X268728Y-317363D01*
X269358Y-317489D01*
X269989Y-317363D01*
X270266Y-317178D01*
X270638Y-317047D01*
X271010Y-317178D01*
X271287Y-317363D01*
X271917Y-317489D01*
X272548Y-317363D01*
X272825Y-317178D01*
X273197Y-317047D01*
X273569Y-317178D01*
X273846Y-317363D01*
X274476Y-317489D01*
X275107Y-317363D01*
X275641Y-317006D01*
X275998Y-316472D01*
X276124Y-315841D01*
Y-314032D01*
X283401D01*
X283445Y-314035D01*
X283484Y-314039D01*
X283594Y-314061D01*
X283622Y-314068D01*
X283653Y-314079D01*
X283680Y-314089D01*
X283711Y-314104D01*
X283809Y-314169D01*
X284500Y-314306D01*
X285152Y-314177D01*
X285261Y-314263D01*
X285490Y-314570D01*
X285331Y-314809D01*
X285194Y-315500D01*
X285331Y-316191D01*
X285723Y-316777D01*
X286309Y-317169D01*
X287000Y-317306D01*
X287691Y-317169D01*
X288277Y-316777D01*
X288669Y-316191D01*
X288806Y-315500D01*
X288701Y-314970D01*
X292141Y-311531D01*
X292602Y-311722D01*
Y-313789D01*
X293504D01*
Y-311411D01*
X294882D01*
Y-310033D01*
X297162D01*
Y-309033D01*
X296949D01*
Y-307573D01*
X298177D01*
Y-308228D01*
X304870D01*
Y-304291D01*
X298177D01*
Y-304947D01*
X296195D01*
X295692Y-305047D01*
X295267Y-305332D01*
X295093Y-305506D01*
X292815D01*
Y-307326D01*
X292764Y-307336D01*
X292338Y-307621D01*
X292232Y-307727D01*
X291823Y-307527D01*
X291764Y-307487D01*
X291630Y-306809D01*
X291238Y-306223D01*
X290652Y-305831D01*
X289961Y-305694D01*
X289269Y-305831D01*
X288715Y-306202D01*
X288421Y-306137D01*
X288397Y-306121D01*
X288215Y-305969D01*
Y-305658D01*
X283741D01*
X283730Y-305593D01*
X283724Y-305518D01*
Y-304780D01*
X284583D01*
Y-302500D01*
Y-300220D01*
X283724D01*
Y-299504D01*
X284671D01*
Y-297224D01*
X286050D01*
Y-295847D01*
X288427D01*
Y-294945D01*
X285366D01*
X285222Y-294595D01*
X285215Y-294445D01*
X285398Y-294275D01*
X285566Y-294141D01*
X285683Y-294059D01*
X286078D01*
X286095Y-294062D01*
X286112Y-294059D01*
X288323D01*
Y-288941D01*
X283598D01*
Y-291545D01*
X283595Y-291563D01*
X283598Y-291580D01*
Y-291974D01*
X283523Y-292083D01*
X283240Y-292417D01*
X282087Y-293570D01*
X281780Y-294029D01*
X281673Y-294570D01*
Y-295017D01*
X281666Y-295091D01*
X281655Y-295158D01*
X280144D01*
Y-295793D01*
X280079Y-295803D01*
X280005Y-295810D01*
X274810D01*
X274328Y-295327D01*
X274413Y-295053D01*
X274542Y-294834D01*
X275107Y-294722D01*
X275641Y-294365D01*
X275998Y-293830D01*
X276124Y-293200D01*
Y-287159D01*
X275998Y-286528D01*
X275641Y-285994D01*
X275757Y-285470D01*
X276212Y-285380D01*
X276798Y-284988D01*
X276847Y-284915D01*
X277557D01*
X277585Y-284933D01*
X278126Y-285041D01*
X279715D01*
X279788Y-285047D01*
X279858Y-285059D01*
Y-286185D01*
X284583D01*
Y-281067D01*
X283147D01*
X282840Y-280603D01*
X282844Y-280567D01*
X283392Y-280200D01*
X283784Y-279614D01*
X283922Y-278923D01*
X283784Y-278232D01*
X283392Y-277646D01*
X283346Y-277615D01*
X283342Y-277605D01*
X283335Y-277585D01*
X283329Y-277559D01*
X283326Y-277538D01*
Y-276013D01*
X283339D01*
Y-275238D01*
X283343Y-275222D01*
X283339Y-275204D01*
Y-272486D01*
X283552D01*
Y-271782D01*
X280190D01*
Y-269026D01*
X283552D01*
Y-268321D01*
X283339D01*
Y-264794D01*
X277041D01*
Y-266533D01*
X277005Y-266568D01*
X276712Y-266627D01*
X276253Y-266933D01*
X271000Y-272187D01*
X270693Y-272646D01*
X270585Y-273187D01*
Y-275625D01*
X270085Y-275724D01*
X269987Y-275487D01*
X269347Y-274653D01*
X268513Y-274013D01*
X267878Y-273750D01*
Y-277500D01*
Y-281250D01*
X268513Y-280987D01*
X269347Y-280347D01*
X269987Y-279513D01*
X270085Y-279276D01*
X270585Y-279375D01*
Y-283356D01*
X268701Y-285241D01*
X268395Y-285700D01*
X267953Y-285909D01*
X267707Y-285822D01*
X267430Y-285637D01*
X266799Y-285511D01*
X266169Y-285637D01*
X265892Y-285822D01*
X265520Y-285953D01*
X265148Y-285822D01*
X264871Y-285637D01*
X264240Y-285511D01*
X263610Y-285637D01*
X263333Y-285822D01*
X262961Y-285953D01*
X262589Y-285822D01*
X262312Y-285637D01*
X261681Y-285511D01*
X261051Y-285637D01*
X260773Y-285822D01*
X260402Y-285953D01*
X260030Y-285822D01*
X259752Y-285637D01*
X259122Y-285511D01*
X258492Y-285637D01*
X258478Y-285646D01*
X257978Y-285379D01*
Y-283806D01*
X258526D01*
X259067Y-283698D01*
X259526Y-283392D01*
X262392Y-280526D01*
X262698Y-280067D01*
X262721Y-279954D01*
X263255Y-279829D01*
X263653Y-280347D01*
X264487Y-280987D01*
X265122Y-281250D01*
Y-277500D01*
Y-273750D01*
X264487Y-274013D01*
X263653Y-274653D01*
X263306Y-275105D01*
X262806Y-274935D01*
Y-271695D01*
X264088Y-270413D01*
X264594Y-270801D01*
X265513Y-271182D01*
X266500Y-271312D01*
X267487Y-271182D01*
X268406Y-270801D01*
X269196Y-270196D01*
X269801Y-269406D01*
X270182Y-268487D01*
X270312Y-267500D01*
X270182Y-266513D01*
X269801Y-265594D01*
X269196Y-264804D01*
X268406Y-264199D01*
X267487Y-263818D01*
X266500Y-263688D01*
X265513Y-263818D01*
X264594Y-264199D01*
X263804Y-264804D01*
X263199Y-265594D01*
X262818Y-266513D01*
X262688Y-267500D01*
X262731Y-267825D01*
X262561Y-267938D01*
X260780Y-269720D01*
X260279Y-269513D01*
Y-263720D01*
X254260D01*
X254069Y-263259D01*
X256015Y-261313D01*
X274988D01*
Y-262657D01*
X280106D01*
Y-257343D01*
X274988D01*
Y-258687D01*
X255471D01*
X254969Y-258787D01*
X254543Y-259072D01*
X250517Y-263098D01*
X250461Y-263182D01*
X249960Y-263031D01*
Y-251527D01*
X303223D01*
X303508Y-253255D01*
D02*
G37*
G36*
X282540Y-275214D02*
X282535Y-275222D01*
X282531Y-275246D01*
X282527Y-275286D01*
X282519Y-275502D01*
X282515Y-276014D01*
X281715D01*
X281711Y-275861D01*
X281699Y-275723D01*
X281679Y-275602D01*
X281651Y-275496D01*
X281615Y-275407D01*
X281571Y-275334D01*
X281519Y-275277D01*
X281459Y-275236D01*
X281391Y-275211D01*
X281315Y-275202D01*
X282540Y-275214D01*
D02*
G37*
G36*
X282518Y-277532D02*
X282527Y-277626D01*
X282541Y-277716D01*
X282561Y-277801D01*
X282587Y-277882D01*
X282619Y-277958D01*
X282657Y-278030D01*
X282700Y-278098D01*
X282749Y-278161D01*
X282804Y-278220D01*
X281426D01*
X281481Y-278161D01*
X281530Y-278098D01*
X281574Y-278030D01*
X281611Y-277958D01*
X281643Y-277882D01*
X281669Y-277801D01*
X281689Y-277716D01*
X281703Y-277626D01*
X281712Y-277532D01*
X281715Y-277433D01*
X282515D01*
X282518Y-277532D01*
D02*
G37*
G36*
X256782Y-280479D02*
X256669Y-280498D01*
X256567Y-280532D01*
X256477Y-280582D01*
X256400Y-280647D01*
X256334Y-280727D01*
X256280Y-280823D01*
X256238Y-280935D01*
X256208Y-281061D01*
X256191Y-281203D01*
X256185Y-281360D01*
X254985D01*
X254980Y-281126D01*
X254944Y-280707D01*
X254913Y-280522D01*
X254872Y-280353D01*
X254823Y-280201D01*
X254764Y-280065D01*
X254697Y-279946D01*
X254621Y-279843D01*
X254535Y-279757D01*
X256782Y-280479D01*
D02*
G37*
G36*
X276070Y-282890D02*
X276091Y-282892D01*
X276167Y-282895D01*
X276670Y-282900D01*
X277016Y-284100D01*
X276905Y-284101D01*
X276633Y-284121D01*
X276562Y-284133D01*
X276501Y-284148D01*
X276450Y-284165D01*
X276408Y-284185D01*
X276377Y-284208D01*
X276355Y-284233D01*
X276060Y-282887D01*
X276070Y-282890D01*
D02*
G37*
G36*
X280658Y-284826D02*
X280646Y-284712D01*
X280610Y-284610D01*
X280550Y-284520D01*
X280466Y-284442D01*
X280358Y-284376D01*
X280226Y-284322D01*
X280070Y-284280D01*
X279890Y-284250D01*
X279686Y-284232D01*
X279458Y-284226D01*
Y-283026D01*
X279686Y-283020D01*
X279890Y-283002D01*
X280070Y-282972D01*
X280226Y-282930D01*
X280358Y-282876D01*
X280466Y-282810D01*
X280550Y-282732D01*
X280610Y-282642D01*
X280646Y-282540D01*
X280658Y-282426D01*
Y-284826D01*
D02*
G37*
G36*
X257165Y-285618D02*
X257224Y-286486D01*
X257246Y-286603D01*
X257271Y-286701D01*
X257300Y-286780D01*
X257332Y-286840D01*
X255794D01*
X255826Y-286780D01*
X255855Y-286701D01*
X255880Y-286603D01*
X255902Y-286486D01*
X255936Y-286196D01*
X255956Y-285829D01*
X255963Y-285387D01*
X257163D01*
X257165Y-285618D01*
D02*
G37*
G36*
X254606D02*
X254665Y-286486D01*
X254687Y-286603D01*
X254712Y-286701D01*
X254741Y-286780D01*
X254773Y-286840D01*
X253235D01*
X253267Y-286780D01*
X253296Y-286701D01*
X253321Y-286603D01*
X253343Y-286486D01*
X253377Y-286196D01*
X253397Y-285829D01*
X253404Y-285387D01*
X254604D01*
X254606Y-285618D01*
D02*
G37*
G36*
X251948Y-285691D02*
X251988Y-286168D01*
X252012Y-286307D01*
X252042Y-286434D01*
X252077Y-286551D01*
X252117Y-286658D01*
X252163Y-286754D01*
X252214Y-286840D01*
X250676D01*
X250727Y-286754D01*
X250773Y-286658D01*
X250813Y-286551D01*
X250848Y-286434D01*
X250878Y-286307D01*
X250902Y-286168D01*
X250934Y-285861D01*
X250942Y-285691D01*
X250945Y-285511D01*
X251945D01*
X251948Y-285691D01*
D02*
G37*
G36*
X286095Y-293260D02*
X286002Y-293192D01*
X285891Y-293158D01*
X285764D01*
X285620Y-293192D01*
X285458Y-293260D01*
X285280Y-293361D01*
X285085Y-293497D01*
X284873Y-293667D01*
X284398Y-294108D01*
X283549Y-293260D01*
X283787Y-293014D01*
X284160Y-292572D01*
X284296Y-292377D01*
X284398Y-292199D01*
X284466Y-292038D01*
X284500Y-291894D01*
Y-291766D01*
X284466Y-291656D01*
X284398Y-291563D01*
X286095Y-293260D01*
D02*
G37*
G36*
X255655Y-294536D02*
X255933Y-294722D01*
X256563Y-294847D01*
X256596Y-294841D01*
X256842Y-295301D01*
X255578Y-296565D01*
X255294Y-296991D01*
X255194Y-297493D01*
Y-297766D01*
X254831Y-298309D01*
X254694Y-299000D01*
X254831Y-299691D01*
X255223Y-300277D01*
X255809Y-300669D01*
X256500Y-300806D01*
X257191Y-300669D01*
X257777Y-300277D01*
X258169Y-299691D01*
X258306Y-299000D01*
X258169Y-298309D01*
X257920Y-297936D01*
X259708Y-296148D01*
X260174Y-296329D01*
X260183Y-296398D01*
X260206Y-296747D01*
X259831Y-297309D01*
X259694Y-298000D01*
X259831Y-298691D01*
X260223Y-299277D01*
X260809Y-299669D01*
X261500Y-299806D01*
X262191Y-299669D01*
X262777Y-299277D01*
X263169Y-298691D01*
X263306Y-298000D01*
X263169Y-297309D01*
X262926Y-296945D01*
X262921Y-296930D01*
X262919Y-296926D01*
X262915Y-296913D01*
X262913Y-296898D01*
X262903Y-296789D01*
Y-295894D01*
X263403Y-295742D01*
X263438Y-295794D01*
X264869Y-297225D01*
X264874Y-297232D01*
X264891Y-297254D01*
X265014Y-297874D01*
X265406Y-298460D01*
X265992Y-298852D01*
X266683Y-298989D01*
X267374Y-298852D01*
X267960Y-298460D01*
X268352Y-297874D01*
X268489Y-297183D01*
X268352Y-296492D01*
X267960Y-295906D01*
X267374Y-295514D01*
X267160Y-295472D01*
X267011Y-295340D01*
X267002Y-295317D01*
X267327Y-294742D01*
X267430Y-294722D01*
X267707Y-294536D01*
X268079Y-294405D01*
X268451Y-294536D01*
X268728Y-294722D01*
X269358Y-294847D01*
X269989Y-294722D01*
X270087Y-294656D01*
X270140Y-294659D01*
X270590Y-294921D01*
Y-295005D01*
X270610Y-295104D01*
X270609Y-295114D01*
X270615Y-295131D01*
X270698Y-295546D01*
X271004Y-296005D01*
X273224Y-298225D01*
X273683Y-298531D01*
X274224Y-298639D01*
X280005D01*
X280079Y-298645D01*
X280144Y-298656D01*
Y-299291D01*
X280877D01*
X280888Y-299356D01*
X280895Y-299431D01*
Y-300294D01*
X280888Y-300368D01*
X280877Y-300433D01*
X280055D01*
Y-304567D01*
X280877D01*
X280888Y-304632D01*
X280895Y-304706D01*
Y-305518D01*
X280888Y-305593D01*
X280877Y-305658D01*
X280144D01*
Y-309791D01*
X288215D01*
Y-309031D01*
X288397Y-308879D01*
X288421Y-308862D01*
X288715Y-308798D01*
X289269Y-309169D01*
X289948Y-309304D01*
X289988Y-309362D01*
X290188Y-309771D01*
X286638Y-313321D01*
X286196Y-313056D01*
X286306Y-312500D01*
X286169Y-311809D01*
X285777Y-311223D01*
X285191Y-310831D01*
X284500Y-310694D01*
X283809Y-310831D01*
X283223Y-311223D01*
X282964Y-311610D01*
X276124D01*
Y-309800D01*
X275998Y-309170D01*
X275641Y-308635D01*
X275107Y-308278D01*
X274476Y-308153D01*
X273846Y-308278D01*
X273730Y-308356D01*
X273230Y-308088D01*
Y-306417D01*
X273130Y-305915D01*
X272846Y-305489D01*
X272661Y-305304D01*
X272543Y-304711D01*
X272151Y-304125D01*
X271565Y-303734D01*
X270874Y-303596D01*
X270182Y-303734D01*
X269597Y-304125D01*
X269205Y-304711D01*
X269067Y-305402D01*
X269205Y-306094D01*
X269597Y-306680D01*
X270182Y-307071D01*
X270605Y-307155D01*
Y-308088D01*
X270105Y-308356D01*
X269989Y-308278D01*
X269358Y-308153D01*
X268728Y-308278D01*
X268193Y-308635D01*
X267964D01*
X267430Y-308278D01*
X266799Y-308153D01*
X266169Y-308278D01*
X265954Y-308421D01*
X265947Y-308422D01*
X265451Y-308157D01*
Y-305998D01*
X265460Y-305989D01*
X265777Y-305777D01*
X266169Y-305191D01*
X266306Y-304500D01*
X266169Y-303809D01*
X265777Y-303223D01*
X265191Y-302831D01*
X264500Y-302694D01*
X263809Y-302831D01*
X263223Y-303223D01*
X262831Y-303809D01*
X262694Y-304500D01*
X262831Y-305191D01*
X262933Y-305344D01*
X262944Y-305378D01*
X262967Y-305422D01*
X262979Y-305446D01*
X262990Y-305475D01*
X262997Y-305497D01*
X263021Y-305600D01*
X263025Y-305630D01*
X263030Y-305683D01*
Y-307901D01*
X262529Y-308168D01*
X262394Y-308078D01*
X262281Y-308055D01*
X262283Y-308259D01*
X262342Y-309128D01*
X262364Y-309245D01*
X262389Y-309343D01*
X262418Y-309422D01*
X262450Y-309482D01*
X260912D01*
X260944Y-309422D01*
X260973Y-309343D01*
X260998Y-309245D01*
X261020Y-309128D01*
X261054Y-308837D01*
X261074Y-308471D01*
X261081Y-308055D01*
X260968Y-308078D01*
X260363Y-308482D01*
X260269Y-308623D01*
X259752Y-308278D01*
X259122Y-308153D01*
X258492Y-308278D01*
X258214Y-308464D01*
X257842Y-308595D01*
X257471Y-308464D01*
X257193Y-308278D01*
X256563Y-308153D01*
X255933Y-308278D01*
X255655Y-308464D01*
X255283Y-308595D01*
X254912Y-308464D01*
X254634Y-308278D01*
X254004Y-308153D01*
X253561Y-308241D01*
X253061Y-308185D01*
X253061Y-308185D01*
X253061Y-308185D01*
X249960D01*
X249960Y-294718D01*
X250461Y-294485D01*
X250815Y-294722D01*
X251445Y-294847D01*
X252075Y-294722D01*
X252353Y-294536D01*
X252724Y-294405D01*
X253096Y-294536D01*
X253374Y-294722D01*
X254004Y-294847D01*
X254634Y-294722D01*
X254912Y-294536D01*
X255283Y-294405D01*
X255655Y-294536D01*
D02*
G37*
G36*
X259840Y-293604D02*
X259794Y-293700D01*
X259754Y-293807D01*
X259719Y-293924D01*
X259689Y-294052D01*
X259665Y-294190D01*
X259633Y-294498D01*
X259625Y-294667D01*
X259622Y-294847D01*
X258622D01*
X258619Y-294667D01*
X258579Y-294190D01*
X258555Y-294052D01*
X258525Y-293924D01*
X258490Y-293807D01*
X258450Y-293700D01*
X258404Y-293604D01*
X258353Y-293518D01*
X259891D01*
X259840Y-293604D01*
D02*
G37*
G36*
X264982Y-293569D02*
X264957Y-293636D01*
X264936Y-293718D01*
X264917Y-293816D01*
X264889Y-294058D01*
X264872Y-294364D01*
X264866Y-294733D01*
X263866Y-294866D01*
X263862Y-294617D01*
X263834Y-294198D01*
X263810Y-294028D01*
X263779Y-293885D01*
X263740Y-293768D01*
X263695Y-293678D01*
X263643Y-293614D01*
X263583Y-293576D01*
X263517Y-293565D01*
X265009Y-293518D01*
X264982Y-293569D01*
D02*
G37*
G36*
X262382Y-293629D02*
X262321Y-293746D01*
X262267Y-293869D01*
X262220Y-293999D01*
X262180Y-294135D01*
X262148Y-294277D01*
X262123Y-294425D01*
X262094Y-294741D01*
X262090Y-294908D01*
X261090Y-294785D01*
X261089Y-294593D01*
X261046Y-293969D01*
X261026Y-293849D01*
X261003Y-293744D01*
X260976Y-293654D01*
X260946Y-293579D01*
X260912Y-293518D01*
X262450D01*
X262382Y-293629D01*
D02*
G37*
G36*
X272671Y-293553D02*
X272657Y-293610D01*
X272645Y-293689D01*
X272625Y-293910D01*
X272608Y-294404D01*
X272605Y-294840D01*
X271405Y-295005D01*
X271402Y-294791D01*
X271364Y-294237D01*
X271341Y-294082D01*
X271279Y-293813D01*
X271241Y-293701D01*
X271197Y-293602D01*
X271148Y-293518D01*
X272686D01*
X272671Y-293553D01*
D02*
G37*
G36*
X283675Y-295957D02*
X281887Y-295969D01*
X282001Y-295956D01*
X282103Y-295919D01*
X282193Y-295858D01*
X282271Y-295773D01*
X282337Y-295664D01*
X282391Y-295531D01*
X282433Y-295373D01*
X282463Y-295192D01*
X282481Y-294987D01*
X282487Y-294757D01*
X283687D01*
X283675Y-295957D01*
D02*
G37*
G36*
X266096Y-295886D02*
X266242Y-296010D01*
X266311Y-296061D01*
X266377Y-296103D01*
X266441Y-296138D01*
X266503Y-296165D01*
X266562Y-296184D01*
X266619Y-296195D01*
X266673Y-296199D01*
X265699Y-297173D01*
X265695Y-297119D01*
X265684Y-297062D01*
X265665Y-297003D01*
X265638Y-296941D01*
X265603Y-296877D01*
X265561Y-296811D01*
X265511Y-296742D01*
X265452Y-296670D01*
X265312Y-296519D01*
X266019Y-295812D01*
X266096Y-295886D01*
D02*
G37*
G36*
X262090Y-296622D02*
X262092Y-296729D01*
X262116Y-297006D01*
X262131Y-297084D01*
X262148Y-297154D01*
X262169Y-297217D01*
X262193Y-297273D01*
X262220Y-297322D01*
X262251Y-297363D01*
X260879Y-297237D01*
X260919Y-297198D01*
X260955Y-297153D01*
X260987Y-297099D01*
X261014Y-297038D01*
X261038Y-296970D01*
X261057Y-296894D01*
X261071Y-296810D01*
X261082Y-296719D01*
X261090Y-296514D01*
X262090Y-296622D01*
D02*
G37*
G36*
X257007Y-297566D02*
X257008Y-297676D01*
X257034Y-298022D01*
X257046Y-298083D01*
X257060Y-298135D01*
X257076Y-298177D01*
X257094Y-298209D01*
X257115Y-298231D01*
X255896Y-298223D01*
X255917Y-298201D01*
X255936Y-298169D01*
X255952Y-298127D01*
X255967Y-298075D01*
X255979Y-298014D01*
X255989Y-297942D01*
X256002Y-297770D01*
X256007Y-297558D01*
X257007Y-297566D01*
D02*
G37*
G36*
X280955Y-298424D02*
X280943Y-298310D01*
X280907Y-298208D01*
X280846Y-298118D01*
X280761Y-298040D01*
X280652Y-297974D01*
X280519Y-297920D01*
X280362Y-297878D01*
X280180Y-297848D01*
X279974Y-297830D01*
X279743Y-297824D01*
Y-296624D01*
X279974Y-296618D01*
X280180Y-296600D01*
X280362Y-296570D01*
X280519Y-296528D01*
X280652Y-296474D01*
X280761Y-296408D01*
X280846Y-296330D01*
X280907Y-296240D01*
X280943Y-296138D01*
X280955Y-296024D01*
Y-298424D01*
D02*
G37*
G36*
X283395Y-298492D02*
X283293Y-298529D01*
X283203Y-298589D01*
X283125Y-298674D01*
X283059Y-298783D01*
X283005Y-298916D01*
X282963Y-299074D01*
X282933Y-299256D01*
X282915Y-299462D01*
X282909Y-299692D01*
X281709D01*
X281703Y-299462D01*
X281685Y-299256D01*
X281655Y-299074D01*
X281613Y-298916D01*
X281559Y-298783D01*
X281493Y-298674D01*
X281415Y-298589D01*
X281325Y-298529D01*
X281223Y-298492D01*
X281109Y-298480D01*
X283509D01*
X283395Y-298492D01*
D02*
G37*
G36*
X282915Y-300263D02*
X282933Y-300469D01*
X282963Y-300651D01*
X283005Y-300808D01*
X283059Y-300941D01*
X283125Y-301051D01*
X283203Y-301135D01*
X283293Y-301196D01*
X283395Y-301232D01*
X283509Y-301244D01*
X281109D01*
X281223Y-301232D01*
X281325Y-301196D01*
X281415Y-301135D01*
X281493Y-301051D01*
X281559Y-300941D01*
X281613Y-300808D01*
X281655Y-300651D01*
X281685Y-300469D01*
X281703Y-300263D01*
X281709Y-300032D01*
X282909D01*
X282915Y-300263D01*
D02*
G37*
G36*
X283395Y-303768D02*
X283293Y-303804D01*
X283203Y-303865D01*
X283125Y-303949D01*
X283059Y-304059D01*
X283005Y-304192D01*
X282963Y-304349D01*
X282933Y-304531D01*
X282915Y-304737D01*
X282909Y-304967D01*
X281709D01*
X281703Y-304737D01*
X281685Y-304531D01*
X281655Y-304349D01*
X281613Y-304192D01*
X281559Y-304059D01*
X281493Y-303949D01*
X281415Y-303865D01*
X281325Y-303804D01*
X281223Y-303768D01*
X281109Y-303755D01*
X283509D01*
X283395Y-303768D01*
D02*
G37*
G36*
X264979Y-305360D02*
X264915Y-305401D01*
X264857Y-305448D01*
X264806Y-305503D01*
X264762Y-305563D01*
X264725Y-305630D01*
X264694Y-305704D01*
X264671Y-305785D01*
X264654Y-305871D01*
X264644Y-305965D01*
X264640Y-306065D01*
X263840Y-305821D01*
X263838Y-305723D01*
X263823Y-305537D01*
X263810Y-305450D01*
X263772Y-305285D01*
X263747Y-305207D01*
X263718Y-305133D01*
X263686Y-305063D01*
X263650Y-304996D01*
X264979Y-305360D01*
D02*
G37*
G36*
X282915Y-305487D02*
X282933Y-305693D01*
X282963Y-305875D01*
X283005Y-306033D01*
X283059Y-306166D01*
X283125Y-306275D01*
X283203Y-306360D01*
X283293Y-306420D01*
X283395Y-306457D01*
X283509Y-306469D01*
X281109D01*
X281223Y-306457D01*
X281325Y-306420D01*
X281415Y-306360D01*
X281493Y-306275D01*
X281559Y-306166D01*
X281613Y-306033D01*
X281655Y-305875D01*
X281685Y-305693D01*
X281703Y-305487D01*
X281709Y-305257D01*
X282909D01*
X282915Y-305487D01*
D02*
G37*
G36*
X271846Y-305585D02*
X271857Y-305608D01*
X271876Y-305637D01*
X271904Y-305673D01*
X271985Y-305768D01*
X272250Y-306043D01*
X271560Y-306767D01*
X271480Y-306688D01*
X271151Y-306395D01*
X271121Y-306376D01*
X271098Y-306366D01*
X271082Y-306364D01*
X271844Y-305571D01*
X271846Y-305585D01*
D02*
G37*
G36*
X298989Y-307260D02*
X298978Y-307165D01*
X298948Y-307080D01*
X298898Y-307005D01*
X298827Y-306940D01*
X298736Y-306885D01*
X298624Y-306840D01*
X298493Y-306805D01*
X298341Y-306780D01*
X298169Y-306765D01*
X297977Y-306760D01*
Y-305760D01*
X298169Y-305755D01*
X298341Y-305740D01*
X298493Y-305715D01*
X298624Y-305680D01*
X298736Y-305635D01*
X298827Y-305580D01*
X298898Y-305515D01*
X298948Y-305440D01*
X298978Y-305355D01*
X298989Y-305260D01*
Y-307260D01*
D02*
G37*
G36*
X289258Y-308189D02*
X289199Y-308134D01*
X289136Y-308085D01*
X289068Y-308042D01*
X288996Y-308004D01*
X288919Y-307972D01*
X288839Y-307946D01*
X288753Y-307926D01*
X288664Y-307912D01*
X288569Y-307903D01*
X288471Y-307900D01*
Y-307100D01*
X288569Y-307097D01*
X288664Y-307088D01*
X288753Y-307074D01*
X288839Y-307054D01*
X288919Y-307028D01*
X288996Y-306996D01*
X289068Y-306958D01*
X289136Y-306915D01*
X289199Y-306866D01*
X289258Y-306811D01*
Y-308189D01*
D02*
G37*
G36*
X287423Y-306776D02*
X287447Y-306844D01*
X287487Y-306904D01*
X287543Y-306956D01*
X287615Y-307000D01*
X287703Y-307036D01*
X287807Y-307064D01*
X287927Y-307084D01*
X288063Y-307096D01*
X288215Y-307100D01*
Y-307900D01*
X288063Y-307904D01*
X287927Y-307916D01*
X287807Y-307936D01*
X287703Y-307964D01*
X287615Y-308000D01*
X287543Y-308044D01*
X287487Y-308096D01*
X287447Y-308156D01*
X287423Y-308224D01*
X287415Y-308300D01*
Y-306700D01*
X287423Y-306776D01*
D02*
G37*
G36*
X272420Y-308333D02*
X272460Y-308810D01*
X272485Y-308948D01*
X272514Y-309076D01*
X272549Y-309193D01*
X272589Y-309300D01*
X272635Y-309396D01*
X272686Y-309482D01*
X271148D01*
X271199Y-309396D01*
X271245Y-309300D01*
X271286Y-309193D01*
X271321Y-309076D01*
X271350Y-308948D01*
X271374Y-308810D01*
X271407Y-308502D01*
X271415Y-308333D01*
X271417Y-308153D01*
X272417D01*
X272420Y-308333D01*
D02*
G37*
G36*
X264644Y-308414D02*
X264655Y-308540D01*
X264673Y-308664D01*
X264699Y-308786D01*
X264732Y-308907D01*
X264773Y-309025D01*
X264821Y-309142D01*
X264876Y-309257D01*
X264939Y-309370D01*
X265009Y-309482D01*
X263471D01*
X263541Y-309370D01*
X263604Y-309257D01*
X263659Y-309142D01*
X263707Y-309025D01*
X263748Y-308907D01*
X263781Y-308786D01*
X263807Y-308664D01*
X263825Y-308540D01*
X263837Y-308414D01*
X263840Y-308286D01*
X264640D01*
X264644Y-308414D01*
D02*
G37*
G36*
X284060Y-313381D02*
X283994Y-313350D01*
X283925Y-313323D01*
X283852Y-313299D01*
X283775Y-313278D01*
X283611Y-313246D01*
X283524Y-313235D01*
X283338Y-313222D01*
X283239Y-313221D01*
X282928Y-312421D01*
X283029Y-312417D01*
X283122Y-312407D01*
X283208Y-312390D01*
X283287Y-312366D01*
X283359Y-312335D01*
X283423Y-312297D01*
X283481Y-312253D01*
X283531Y-312201D01*
X283575Y-312143D01*
X283611Y-312078D01*
X284060Y-313381D01*
D02*
G37*
G36*
X275305Y-312097D02*
X275329Y-312165D01*
X275370Y-312225D01*
X275427Y-312277D01*
X275500Y-312321D01*
X275589Y-312357D01*
X275694Y-312385D01*
X275816Y-312405D01*
X275954Y-312417D01*
X276109Y-312421D01*
Y-313221D01*
X275954Y-313225D01*
X275816Y-313237D01*
X275694Y-313257D01*
X275589Y-313285D01*
X275500Y-313321D01*
X275427Y-313365D01*
X275370Y-313417D01*
X275329Y-313477D01*
X275305Y-313545D01*
X275297Y-313621D01*
Y-312021D01*
X275305Y-312097D01*
D02*
G37*
G36*
X288124Y-314398D02*
X288051Y-314475D01*
X287934Y-314619D01*
X287891Y-314685D01*
X287858Y-314748D01*
X287836Y-314807D01*
X287825Y-314863D01*
X287823Y-314914D01*
X287832Y-314963D01*
X287852Y-315007D01*
X286561Y-314619D01*
X287327Y-313780D01*
X288124Y-314398D01*
D02*
G37*
G36*
X259859Y-316220D02*
X259830Y-316299D01*
X259805Y-316397D01*
X259783Y-316514D01*
X259749Y-316804D01*
X259729Y-317171D01*
X259722Y-317613D01*
X258522D01*
X258520Y-317382D01*
X258461Y-316514D01*
X258439Y-316397D01*
X258414Y-316299D01*
X258385Y-316220D01*
X258353Y-316160D01*
X259891D01*
X259859Y-316220D01*
D02*
G37*
G36*
X260687Y-319181D02*
X261128Y-319554D01*
X261324Y-319690D01*
X261502Y-319792D01*
X261663Y-319859D01*
X261807Y-319893D01*
X261934D01*
X262045Y-319859D01*
X262138Y-319792D01*
X260441Y-321489D01*
X260509Y-321395D01*
X260543Y-321285D01*
Y-321158D01*
X260509Y-321013D01*
X260441Y-320852D01*
Y-322200D01*
X260429Y-322086D01*
X260393Y-321984D01*
X260333Y-321894D01*
X260249Y-321816D01*
X260141Y-321750D01*
X260009Y-321696D01*
X259853Y-321654D01*
X259673Y-321624D01*
X259469Y-321606D01*
X259417Y-321605D01*
X259193Y-321622D01*
X259126Y-321634D01*
X259070Y-321649D01*
X259025Y-321667D01*
X258991Y-321687D01*
X258968Y-321710D01*
X258955Y-321736D01*
X258301Y-320563D01*
X259241Y-320428D01*
Y-320400D01*
X259469Y-320394D01*
X259673Y-320376D01*
X259853Y-320346D01*
X260009Y-320304D01*
X260050Y-320287D01*
X260034Y-320267D01*
X259593Y-319792D01*
X260441Y-318943D01*
X260687Y-319181D01*
D02*
G37*
G36*
X253189Y-328002D02*
X253249Y-328053D01*
X253349Y-328099D01*
X253489Y-328138D01*
X253669Y-328171D01*
X253889Y-328198D01*
X254440Y-328233D01*
X255806Y-328146D01*
X255866Y-328120D01*
X255886Y-328090D01*
Y-330429D01*
X255866Y-330394D01*
X255806Y-330363D01*
X255706Y-330335D01*
X255566Y-330312D01*
X255386Y-330292D01*
X254679Y-330257D01*
X253489Y-330344D01*
X253349Y-330380D01*
X253249Y-330421D01*
X253189Y-330468D01*
X253169Y-330520D01*
Y-327945D01*
X253189Y-328002D01*
D02*
G37*
G36*
X255886Y-337909D02*
X255866Y-337877D01*
X255805Y-337848D01*
X255705Y-337822D01*
X255566Y-337800D01*
X255385Y-337782D01*
X254711Y-337751D01*
X254149Y-337792D01*
X253889Y-337833D01*
X253669Y-337885D01*
X253489Y-337949D01*
X253349Y-338025D01*
X253249Y-338113D01*
X253189Y-338212D01*
X253169Y-338323D01*
Y-335748D01*
X253886Y-335745D01*
Y-335739D01*
X254265Y-335738D01*
X255805Y-335631D01*
X255866Y-335602D01*
X255886Y-335570D01*
Y-337909D01*
D02*
G37*
G36*
X259742Y-337929D02*
X259691Y-337989D01*
X259646Y-338089D01*
X259608Y-338229D01*
X259575Y-338409D01*
X259548Y-338629D01*
X259512Y-339189D01*
X259500Y-339909D01*
X257500D01*
X257490Y-339529D01*
X257460Y-339189D01*
X257410Y-338889D01*
X257340Y-338629D01*
X257250Y-338409D01*
X257140Y-338229D01*
X257010Y-338089D01*
X256860Y-337989D01*
X256690Y-337929D01*
X256500Y-337909D01*
X259799D01*
X259742Y-337929D01*
D02*
G37*
%LPC*%
G36*
X286012Y-257343D02*
X280894D01*
Y-262657D01*
X286012D01*
Y-261433D01*
X286082Y-261421D01*
X286155Y-261415D01*
X286822D01*
X286894Y-261421D01*
X286965Y-261433D01*
Y-262067D01*
X295035D01*
Y-261432D01*
X295100Y-261421D01*
X295175Y-261415D01*
X295928D01*
X296309Y-261669D01*
X297000Y-261806D01*
X297691Y-261669D01*
X298277Y-261277D01*
X298669Y-260691D01*
X298806Y-260000D01*
X298669Y-259309D01*
X298277Y-258723D01*
X297691Y-258331D01*
X297000Y-258194D01*
X296309Y-258331D01*
X295932Y-258583D01*
X295892Y-258585D01*
X295175D01*
X295100Y-258579D01*
X295035Y-258568D01*
Y-257933D01*
X286965D01*
Y-258567D01*
X286894Y-258579D01*
X286822Y-258585D01*
X286155D01*
X286082Y-258579D01*
X286012Y-258567D01*
Y-257343D01*
D02*
G37*
G36*
X292190Y-264767D02*
X292053Y-264794D01*
X287279D01*
Y-268533D01*
X292765D01*
X292783Y-268537D01*
X292800Y-268533D01*
X293277D01*
X293500Y-268867D01*
X293602Y-268969D01*
Y-270220D01*
X293389D01*
Y-272274D01*
X287279D01*
Y-276013D01*
X288289D01*
Y-277076D01*
X288286Y-277097D01*
X288280Y-277123D01*
X288274Y-277142D01*
X288269Y-277152D01*
X288223Y-277183D01*
X287831Y-277769D01*
X287694Y-278461D01*
X287831Y-279152D01*
X288223Y-279738D01*
X288809Y-280130D01*
X289500Y-280267D01*
X290191Y-280130D01*
X290777Y-279738D01*
X291169Y-279152D01*
X291306Y-278461D01*
X291169Y-277769D01*
X290777Y-277183D01*
X290731Y-277152D01*
X290726Y-277142D01*
X290720Y-277123D01*
X290714Y-277097D01*
X290711Y-277076D01*
Y-276013D01*
X293577D01*
Y-274819D01*
X294232D01*
Y-272519D01*
X295610D01*
Y-271142D01*
X297618D01*
Y-271142D01*
X297830D01*
Y-270469D01*
X299242D01*
X299445Y-270605D01*
X300136Y-270742D01*
X300827Y-270605D01*
X301413Y-270213D01*
X301805Y-269627D01*
X301942Y-268936D01*
X301805Y-268245D01*
X301413Y-267659D01*
X300827Y-267267D01*
X300136Y-267130D01*
X299445Y-267267D01*
X298886Y-267640D01*
X297757D01*
X297682Y-267634D01*
X297618Y-267623D01*
Y-266968D01*
X295755D01*
X295500Y-266587D01*
X294797Y-265884D01*
X294338Y-265578D01*
X293797Y-265470D01*
X293577D01*
Y-264794D01*
X292327D01*
X292190Y-264767D01*
D02*
G37*
G36*
X297830Y-273897D02*
X296988D01*
Y-274819D01*
X297830D01*
Y-273897D01*
D02*
G37*
G36*
X292276Y-280854D02*
X291079D01*
Y-282248D01*
X292276D01*
Y-280854D01*
D02*
G37*
G36*
X288323D02*
X287126D01*
Y-282248D01*
X288323D01*
Y-280854D01*
D02*
G37*
G36*
X311339Y-282250D02*
Y-284622D01*
X313711D01*
X313448Y-283987D01*
X312808Y-283153D01*
X311974Y-282513D01*
X311339Y-282250D01*
D02*
G37*
G36*
X308583D02*
X307947Y-282513D01*
X307113Y-283153D01*
X306473Y-283987D01*
X306210Y-284622D01*
X308583D01*
Y-282250D01*
D02*
G37*
G36*
X292276Y-285004D02*
X291079D01*
Y-286398D01*
X292276D01*
Y-285004D01*
D02*
G37*
G36*
X288323D02*
X287126D01*
Y-286398D01*
X288323D01*
Y-285004D01*
D02*
G37*
G36*
X313711Y-287378D02*
X311339D01*
Y-289750D01*
X311974Y-289487D01*
X312808Y-288847D01*
X313448Y-288013D01*
X313711Y-287378D01*
D02*
G37*
G36*
X308583D02*
X306210D01*
X306473Y-288013D01*
X307113Y-288847D01*
X307947Y-289487D01*
X308583Y-289750D01*
Y-287378D01*
D02*
G37*
G36*
X299961Y-282188D02*
X298974Y-282318D01*
X298055Y-282699D01*
X297265Y-283304D01*
X296659Y-284094D01*
X296278Y-285013D01*
X296148Y-286000D01*
X296278Y-286987D01*
X296659Y-287906D01*
X297265Y-288696D01*
X298055Y-289301D01*
X298974Y-289682D01*
X299961Y-289812D01*
X300947Y-289682D01*
X301867Y-289301D01*
X302656Y-288696D01*
X303262Y-287906D01*
X303643Y-286987D01*
X303773Y-286000D01*
X303643Y-285013D01*
X303262Y-284094D01*
X302656Y-283304D01*
X301867Y-282699D01*
X300947Y-282318D01*
X299961Y-282188D01*
D02*
G37*
G36*
X288427Y-298602D02*
X287427D01*
Y-299504D01*
X288427D01*
Y-298602D01*
D02*
G37*
G36*
X303740Y-292220D02*
X296181D01*
Y-299780D01*
X303740D01*
Y-292220D01*
D02*
G37*
G36*
X309961Y-292188D02*
X308974Y-292318D01*
X308055Y-292699D01*
X307265Y-293304D01*
X306659Y-294094D01*
X306278Y-295013D01*
X306149Y-296000D01*
X306278Y-296987D01*
X306659Y-297906D01*
X307265Y-298696D01*
X308055Y-299301D01*
X308974Y-299682D01*
X309961Y-299812D01*
X310947Y-299682D01*
X311867Y-299301D01*
X312656Y-298696D01*
X313262Y-297906D01*
X313643Y-296987D01*
X313773Y-296000D01*
X313643Y-295013D01*
X313262Y-294094D01*
X312656Y-293304D01*
X311867Y-292699D01*
X310947Y-292318D01*
X309961Y-292188D01*
D02*
G37*
G36*
X288339Y-300220D02*
X287339D01*
Y-301122D01*
X288339D01*
Y-300220D01*
D02*
G37*
G36*
Y-303878D02*
X287339D01*
Y-304780D01*
X288339D01*
Y-303878D01*
D02*
G37*
G36*
X326893Y-298143D02*
X322181Y-302855D01*
X322166Y-302865D01*
X322157Y-302879D01*
X321603Y-303432D01*
X321774Y-303602D01*
X319691Y-305945D01*
X314519Y-311117D01*
X314337D01*
X313138Y-309917D01*
Y-308032D01*
X312424D01*
X312136Y-307655D01*
X311449Y-307129D01*
X310649Y-306797D01*
X309791Y-306684D01*
X308933Y-306797D01*
X308134Y-307129D01*
X307447Y-307655D01*
X307158Y-308032D01*
X306445D01*
Y-311968D01*
X306569D01*
X306589Y-312118D01*
X306920Y-312918D01*
X307447Y-313604D01*
X308273Y-314431D01*
X308082Y-314893D01*
X305083D01*
Y-311559D01*
X302902D01*
Y-313740D01*
X301524D01*
Y-315118D01*
X297965D01*
Y-315921D01*
X300847D01*
X301038Y-316383D01*
X295541Y-321880D01*
X295014Y-322567D01*
X294683Y-323367D01*
X294619Y-323852D01*
X293984Y-324340D01*
X293377Y-325131D01*
X292995Y-326052D01*
X292937Y-326492D01*
X292433D01*
X292375Y-326052D01*
X291993Y-325131D01*
X291386Y-324340D01*
X290595Y-323733D01*
X289674Y-323351D01*
X289374Y-323312D01*
X287893Y-321830D01*
X287206Y-321303D01*
X286406Y-320972D01*
X285548Y-320859D01*
X284741D01*
X282900Y-320824D01*
X281745Y-320741D01*
X281345Y-320688D01*
X281213Y-320662D01*
Y-320336D01*
X280431D01*
X280413Y-320333D01*
X280396Y-320336D01*
X280378D01*
X280364Y-320335D01*
X280357Y-320336D01*
X279768D01*
X279675Y-319864D01*
X279681Y-319838D01*
X279687Y-319819D01*
X279691Y-319809D01*
X279738Y-319777D01*
X280130Y-319191D01*
X280267Y-318500D01*
X280130Y-317809D01*
X279738Y-317223D01*
X279152Y-316831D01*
X278461Y-316694D01*
X277769Y-316831D01*
X277183Y-317223D01*
X276792Y-317809D01*
X276654Y-318500D01*
X276792Y-319191D01*
X277183Y-319777D01*
X277230Y-319809D01*
X277234Y-319819D01*
X277240Y-319838D01*
X277247Y-319864D01*
X277153Y-320336D01*
X272158D01*
Y-328013D01*
X280357D01*
X280364Y-328015D01*
X280378Y-328013D01*
X280396D01*
X280413Y-328017D01*
X280431Y-328013D01*
X281213D01*
Y-327719D01*
X284189Y-327505D01*
X285194Y-328510D01*
X285377Y-328951D01*
X285984Y-329742D01*
X286775Y-330349D01*
X287696Y-330731D01*
X288685Y-330861D01*
X289674Y-330731D01*
X290595Y-330349D01*
X291386Y-329742D01*
X291993Y-328951D01*
X292375Y-328030D01*
X292433Y-327590D01*
X292937D01*
X292995Y-328030D01*
X293377Y-328951D01*
X293984Y-329742D01*
X294775Y-330349D01*
X295696Y-330731D01*
X296685Y-330861D01*
X297674Y-330731D01*
X298595Y-330349D01*
X299386Y-329742D01*
X299993Y-328951D01*
X300375Y-328030D01*
X300484Y-327977D01*
X300602Y-327989D01*
X301083Y-328242D01*
X301377Y-328951D01*
X301984Y-329742D01*
X302775Y-330349D01*
X303696Y-330731D01*
X304685Y-330861D01*
X305674Y-330731D01*
X306595Y-330349D01*
X307386Y-329742D01*
X307993Y-328951D01*
X308375Y-328030D01*
X308505Y-327041D01*
X308375Y-326052D01*
X307993Y-325131D01*
X307386Y-324340D01*
X306595Y-323733D01*
X305674Y-323351D01*
X304685Y-323221D01*
X304225Y-323282D01*
X303992Y-322808D01*
X305275Y-321524D01*
X312116D01*
X312975Y-321411D01*
X313774Y-321080D01*
X314461Y-320553D01*
X318237Y-316777D01*
X324553Y-310461D01*
X324882Y-310138D01*
X326297Y-308851D01*
X326614Y-308596D01*
X326704Y-308532D01*
X326893Y-308722D01*
X327446Y-308169D01*
X327461Y-308159D01*
X327470Y-308144D01*
X328794Y-306821D01*
X329194Y-307114D01*
X328817Y-308024D01*
X328688Y-309000D01*
X328817Y-309976D01*
X329194Y-310886D01*
X329793Y-311667D01*
X330574Y-312267D01*
X331484Y-312644D01*
X332461Y-312772D01*
X333437Y-312644D01*
X334347Y-312267D01*
X335128Y-311667D01*
X335728Y-310886D01*
X336104Y-309976D01*
X336233Y-309000D01*
X336104Y-308024D01*
X335728Y-307114D01*
X335128Y-306332D01*
X334347Y-305733D01*
X333437Y-305356D01*
X332461Y-305228D01*
X331484Y-305356D01*
X330574Y-305733D01*
X330281Y-305333D01*
X332182Y-303432D01*
X326893Y-298143D01*
D02*
G37*
G36*
X300146Y-311559D02*
X297965D01*
Y-312362D01*
X300146D01*
Y-311559D01*
D02*
G37*
G36*
X297162Y-312789D02*
X296260D01*
Y-313789D01*
X297162D01*
Y-312789D01*
D02*
G37*
G36*
X267492Y-318779D02*
X266571D01*
Y-319622D01*
X267492D01*
Y-318779D01*
D02*
G37*
G36*
Y-322378D02*
X266571D01*
Y-323220D01*
X267492D01*
Y-322378D01*
D02*
G37*
G36*
X254181Y-323468D02*
X253339D01*
Y-324390D01*
X254181D01*
Y-323468D01*
D02*
G37*
G36*
X373669Y-330323D02*
X369732D01*
Y-336622D01*
X373669D01*
Y-330323D01*
D02*
G37*
G36*
X364500Y-327178D02*
X363803Y-327316D01*
X363211Y-327711D01*
X362932Y-327991D01*
X362537Y-328582D01*
X362398Y-329279D01*
X362398Y-329280D01*
Y-330183D01*
X362391Y-330323D01*
X362252D01*
Y-331105D01*
X362248Y-331122D01*
X362252Y-331139D01*
Y-336622D01*
X366189D01*
Y-331139D01*
X366192Y-331122D01*
X366189Y-331105D01*
Y-330323D01*
X366189D01*
X366100Y-329823D01*
X366184Y-329697D01*
X366322Y-329000D01*
X366184Y-328303D01*
X365789Y-327711D01*
X365197Y-327316D01*
X364500Y-327178D01*
D02*
G37*
G36*
X315500Y-335194D02*
X314809Y-335331D01*
X314223Y-335723D01*
X313831Y-336309D01*
X313694Y-337000D01*
X313831Y-337691D01*
X314223Y-338277D01*
X314809Y-338669D01*
X315500Y-338806D01*
X316191Y-338669D01*
X316717Y-338318D01*
X316735Y-338315D01*
X316764Y-338313D01*
X354272D01*
X354321Y-338813D01*
X354303Y-338816D01*
X353711Y-339211D01*
X353316Y-339803D01*
X353178Y-340500D01*
Y-341619D01*
X353168Y-341779D01*
X352913D01*
Y-341992D01*
X352913D01*
Y-342747D01*
X352910Y-342758D01*
X352913Y-342775D01*
X352910Y-342792D01*
X352913Y-342809D01*
Y-344000D01*
X351535D01*
Y-345209D01*
X352823D01*
X352768Y-345229D01*
X352719Y-345288D01*
X352676Y-345389D01*
X352639Y-345529D01*
X352607Y-345708D01*
X352581Y-345929D01*
X352563Y-346220D01*
X352777D01*
X352809Y-346292D01*
X352584Y-346642D01*
X352600Y-346824D01*
X352651Y-347084D01*
X352715Y-347304D01*
X352795Y-347484D01*
X352888Y-347624D01*
X352996Y-347724D01*
X353118Y-347784D01*
X353255Y-347804D01*
X350917D01*
X350845Y-347784D01*
X350780Y-347724D01*
X350722Y-347624D01*
X350673Y-347484D01*
X350631Y-347304D01*
X350616Y-347208D01*
X350535D01*
X350533Y-346829D01*
X350530Y-346792D01*
X349905D01*
Y-348212D01*
X349457Y-348433D01*
X349373Y-348369D01*
X349055Y-348237D01*
Y-350810D01*
X349314Y-350803D01*
X349652Y-350774D01*
X349687Y-350768D01*
X349593Y-349954D01*
X349634Y-350117D01*
X349717Y-350263D01*
X349843Y-350392D01*
X350011Y-350504D01*
X350221Y-350598D01*
X350296Y-350621D01*
X350429Y-350567D01*
X350608Y-350460D01*
X350748Y-350332D01*
X350848Y-350185D01*
X350908Y-350018D01*
X350929Y-349832D01*
X350925Y-350756D01*
X351105Y-350778D01*
X351484Y-350804D01*
X351905Y-350813D01*
Y-352813D01*
X351530Y-352821D01*
X351197Y-352847D01*
X350917Y-352889D01*
X350917Y-352898D01*
X350907Y-352890D01*
X350905Y-352891D01*
X350654Y-352951D01*
X350446Y-353029D01*
X350279Y-353125D01*
X350153Y-353237D01*
X350070Y-353367D01*
X350027Y-353514D01*
X350027Y-353679D01*
X349927Y-352827D01*
X349055Y-352815D01*
Y-353274D01*
Y-358311D01*
X349373Y-358180D01*
X350075Y-357641D01*
X350614Y-356939D01*
X350851Y-356365D01*
X351415Y-356309D01*
X351746Y-356804D01*
X352462Y-357283D01*
X353307Y-357451D01*
X354152Y-357283D01*
X354868Y-356804D01*
X355347Y-356088D01*
X355515Y-355243D01*
X355347Y-354398D01*
X355173Y-354138D01*
X355409Y-353698D01*
X362478D01*
Y-354291D01*
X362578Y-354793D01*
X362863Y-355219D01*
X363572Y-355928D01*
X363998Y-356213D01*
X364500Y-356313D01*
X366914D01*
X367417Y-356213D01*
X367842Y-355928D01*
X368476Y-355295D01*
X368760Y-354869D01*
X368860Y-354367D01*
Y-353698D01*
X373961D01*
X374197Y-354138D01*
X374023Y-354398D01*
X373855Y-355243D01*
X374023Y-356088D01*
X374502Y-356804D01*
X375218Y-357283D01*
X376063Y-357451D01*
X376908Y-357283D01*
X377624Y-356804D01*
X377955Y-356309D01*
X378519Y-356366D01*
X378756Y-356939D01*
X379295Y-357641D01*
X379997Y-358180D01*
X380315Y-358311D01*
Y-353274D01*
Y-352818D01*
X379439Y-352856D01*
X379343Y-353680D01*
X379343Y-353515D01*
X379300Y-353368D01*
X379217Y-353238D01*
X379091Y-353125D01*
X378924Y-353029D01*
X378715Y-352952D01*
X378489Y-352897D01*
X378452Y-352898D01*
X378452Y-352889D01*
X378173Y-352847D01*
X377839Y-352821D01*
X377464Y-352813D01*
Y-350813D01*
X377886Y-350804D01*
X378444Y-350751D01*
X378440Y-349831D01*
X378461Y-350017D01*
X378521Y-350184D01*
X378621Y-350331D01*
X378761Y-350459D01*
X378941Y-350567D01*
X379074Y-350621D01*
X379149Y-350598D01*
X379360Y-350503D01*
X379528Y-350392D01*
X379653Y-350263D01*
X379737Y-350117D01*
X379778Y-349953D01*
X379683Y-350768D01*
X379718Y-350774D01*
X380056Y-350803D01*
X380315Y-350810D01*
Y-348237D01*
X379997Y-348369D01*
X379913Y-348434D01*
X379471Y-348216D01*
X378769Y-349024D01*
X378605Y-349258D01*
X378484Y-349463D01*
X378407Y-349640D01*
X378374Y-349788D01*
X378385Y-349908D01*
X378440Y-349999D01*
X376257Y-347816D01*
X376348Y-347871D01*
X376468Y-347882D01*
X376616Y-347849D01*
X376793Y-347772D01*
X376998Y-347652D01*
X377232Y-347487D01*
X377494Y-347279D01*
X378035Y-346792D01*
X376429D01*
X376127Y-346292D01*
X376191Y-346169D01*
X376777Y-345777D01*
X377169Y-345191D01*
X377306Y-344500D01*
X377169Y-343809D01*
X376777Y-343223D01*
X376191Y-342831D01*
X375500Y-342694D01*
X374809Y-342831D01*
X374223Y-343223D01*
X374169Y-343303D01*
X373669Y-343151D01*
Y-341609D01*
X373673Y-341592D01*
X373669Y-341574D01*
Y-341291D01*
X373705Y-341240D01*
X373933Y-340970D01*
X374906Y-339998D01*
X374944D01*
X375041Y-340010D01*
X375059Y-340013D01*
X375063Y-340015D01*
X375073Y-340019D01*
X375085Y-340021D01*
X375091Y-340023D01*
X375309Y-340169D01*
X376000Y-340306D01*
X376691Y-340169D01*
X377277Y-339777D01*
X377669Y-339191D01*
X377806Y-338500D01*
X377669Y-337809D01*
X377277Y-337223D01*
X376691Y-336831D01*
X376000Y-336694D01*
X375309Y-336831D01*
X374723Y-337223D01*
X374623Y-337372D01*
X374621Y-337373D01*
X374362D01*
X373860Y-337473D01*
X373434Y-337757D01*
X372119Y-339072D01*
X371949Y-339230D01*
X371817Y-339336D01*
X371756Y-339378D01*
X371473D01*
X371456Y-339374D01*
X371439Y-339378D01*
X370142D01*
Y-339165D01*
X369339D01*
Y-342528D01*
X366583D01*
Y-339165D01*
X365779D01*
Y-339378D01*
X362252D01*
Y-340688D01*
X361752Y-340896D01*
X356928Y-336072D01*
X356502Y-335787D01*
X356000Y-335687D01*
X316752D01*
X316744Y-335686D01*
X316717Y-335682D01*
X316191Y-335331D01*
X315500Y-335194D01*
D02*
G37*
G36*
X350157Y-341779D02*
X349236D01*
Y-342622D01*
X350157D01*
Y-341779D01*
D02*
G37*
G36*
X254181Y-341878D02*
X253339D01*
Y-342799D01*
X254181D01*
Y-341878D01*
D02*
G37*
G36*
X350390Y-345378D02*
X349236D01*
Y-346220D01*
X350495D01*
X350464Y-345708D01*
X350432Y-345529D01*
X350395Y-345389D01*
X350390Y-345378D01*
D02*
G37*
G36*
X379464Y-346792D02*
X378854D01*
X379464Y-347402D01*
Y-346792D01*
D02*
G37*
G36*
X270834Y-327292D02*
X265323D01*
Y-330819D01*
X265110D01*
Y-331622D01*
X268078D01*
Y-334378D01*
X265110D01*
Y-335181D01*
X265322D01*
Y-338709D01*
X270018D01*
X270035Y-338712D01*
X270052Y-338709D01*
X270834D01*
Y-338603D01*
X271418Y-338563D01*
X271581Y-338577D01*
X271741Y-338604D01*
X272154Y-338828D01*
X272158Y-338846D01*
Y-339628D01*
X272844D01*
X272887Y-339687D01*
X272990Y-339912D01*
X273098Y-340273D01*
X273192Y-340741D01*
X273369Y-342903D01*
Y-345185D01*
X273482Y-346043D01*
X273814Y-346843D01*
X274341Y-347530D01*
X274655Y-347845D01*
X275342Y-348372D01*
X276142Y-348703D01*
X277000Y-348816D01*
X277858Y-348703D01*
X278658Y-348372D01*
X279345Y-347845D01*
X279872Y-347158D01*
X280203Y-346358D01*
X280316Y-345500D01*
X280203Y-344642D01*
X280001Y-344154D01*
Y-342892D01*
X280095Y-341356D01*
X280174Y-340760D01*
X280272Y-340273D01*
X280380Y-339912D01*
X280483Y-339687D01*
X280527Y-339628D01*
X281213D01*
Y-338846D01*
X281216Y-338828D01*
X281213Y-338811D01*
Y-336556D01*
X281241Y-336340D01*
X281213Y-336125D01*
Y-334159D01*
X281245Y-334093D01*
X281475Y-333695D01*
X281739Y-333302D01*
X282163Y-332780D01*
X282165Y-332779D01*
X282184Y-332774D01*
X282233Y-332766D01*
X282305Y-332738D01*
X282652Y-332669D01*
X283238Y-332277D01*
X283629Y-331691D01*
X283767Y-331000D01*
X283629Y-330309D01*
X283238Y-329723D01*
X282652Y-329331D01*
X281961Y-329194D01*
X281269Y-329331D01*
X280683Y-329723D01*
X280292Y-330309D01*
X280154Y-331000D01*
X280189Y-331174D01*
X279871Y-331417D01*
X279468Y-331688D01*
X279070Y-331918D01*
X279004Y-331951D01*
X275684D01*
X275444Y-331821D01*
X275141Y-331621D01*
X273950Y-330617D01*
X271486Y-328153D01*
X270894Y-327758D01*
X270834Y-327746D01*
Y-327292D01*
D02*
G37*
G36*
X346299Y-348237D02*
X345982Y-348369D01*
X345279Y-348908D01*
X344740Y-349610D01*
X344402Y-350428D01*
X344286Y-351306D01*
Y-351897D01*
X346299D01*
Y-348237D01*
D02*
G37*
G36*
X265063Y-347774D02*
Y-357163D01*
X274453D01*
X274427Y-356840D01*
X274029Y-355180D01*
X273376Y-353604D01*
X272484Y-352148D01*
X271376Y-350851D01*
X270078Y-349742D01*
X268623Y-348850D01*
X267046Y-348197D01*
X265387Y-347799D01*
X265063Y-347774D01*
D02*
G37*
G36*
X262307Y-347774D02*
X261984Y-347799D01*
X260324Y-348197D01*
X258748Y-348850D01*
X257292Y-349742D01*
X255995Y-350851D01*
X254886Y-352148D01*
X253994Y-353604D01*
X253341Y-355180D01*
X252943Y-356840D01*
X252918Y-357163D01*
X262307D01*
Y-347774D01*
D02*
G37*
G36*
X346299Y-354652D02*
X344286D01*
Y-355243D01*
X344402Y-356121D01*
X344740Y-356939D01*
X345279Y-357641D01*
X345982Y-358180D01*
X346299Y-358311D01*
Y-354652D01*
D02*
G37*
G36*
X331563Y-349774D02*
Y-359163D01*
X340953D01*
X340927Y-358840D01*
X340529Y-357180D01*
X339876Y-355604D01*
X338984Y-354148D01*
X337876Y-352851D01*
X336578Y-351742D01*
X335123Y-350851D01*
X333546Y-350197D01*
X331887Y-349799D01*
X331563Y-349774D01*
D02*
G37*
G36*
X328807Y-349774D02*
X328484Y-349799D01*
X326824Y-350197D01*
X325248Y-350851D01*
X323792Y-351742D01*
X322495Y-352851D01*
X321386Y-354148D01*
X320495Y-355604D01*
X319841Y-357180D01*
X319443Y-358840D01*
X319418Y-359163D01*
X328807D01*
Y-349774D01*
D02*
G37*
G36*
X380315Y-365481D02*
X379997Y-365613D01*
X379295Y-366152D01*
X378756Y-366854D01*
X378417Y-367672D01*
X378327Y-368353D01*
X380315D01*
Y-365481D01*
D02*
G37*
G36*
X349055D02*
Y-368353D01*
X351043D01*
X350953Y-367672D01*
X350614Y-366854D01*
X350075Y-366152D01*
X349373Y-365613D01*
X349055Y-365481D01*
D02*
G37*
G36*
X346299D02*
X345982Y-365613D01*
X345279Y-366152D01*
X344740Y-366854D01*
X344402Y-367672D01*
X344312Y-368353D01*
X346299D01*
Y-365481D01*
D02*
G37*
G36*
X274453Y-359919D02*
X265063D01*
Y-369309D01*
X265387Y-369283D01*
X267046Y-368885D01*
X268623Y-368232D01*
X270078Y-367340D01*
X271376Y-366232D01*
X272484Y-364934D01*
X273376Y-363479D01*
X274029Y-361902D01*
X274427Y-360243D01*
X274453Y-359919D01*
D02*
G37*
G36*
X262307D02*
X252918D01*
X252943Y-360243D01*
X253341Y-361902D01*
X253994Y-363479D01*
X254886Y-364934D01*
X255995Y-366232D01*
X257292Y-367340D01*
X258748Y-368232D01*
X260324Y-368885D01*
X261984Y-369283D01*
X262307Y-369309D01*
Y-359919D01*
D02*
G37*
G36*
X340953Y-361919D02*
X331563D01*
Y-371309D01*
X331887Y-371283D01*
X333546Y-370885D01*
X335123Y-370232D01*
X336578Y-369340D01*
X337876Y-368232D01*
X338984Y-366934D01*
X339876Y-365479D01*
X340529Y-363902D01*
X340927Y-362243D01*
X340953Y-361919D01*
D02*
G37*
G36*
X328807D02*
X319418D01*
X319443Y-362243D01*
X319841Y-363902D01*
X320495Y-365479D01*
X321386Y-366934D01*
X322495Y-368232D01*
X323792Y-369340D01*
X325248Y-370232D01*
X326824Y-370885D01*
X328484Y-371283D01*
X328807Y-371309D01*
Y-361919D01*
D02*
G37*
%LPD*%
G36*
X296297Y-260689D02*
X296275Y-260672D01*
X296242Y-260657D01*
X296200Y-260644D01*
X296148Y-260632D01*
X296087Y-260622D01*
X295933Y-260608D01*
X295740Y-260601D01*
X295629Y-260600D01*
Y-259400D01*
X295740Y-259399D01*
X296087Y-259378D01*
X296148Y-259368D01*
X296200Y-259356D01*
X296242Y-259343D01*
X296275Y-259328D01*
X296297Y-259311D01*
Y-260689D01*
D02*
G37*
G36*
X294236Y-258914D02*
X294272Y-259016D01*
X294333Y-259106D01*
X294418Y-259184D01*
X294527Y-259250D01*
X294660Y-259304D01*
X294818Y-259346D01*
X295000Y-259376D01*
X295206Y-259394D01*
X295436Y-259400D01*
Y-260600D01*
X295206Y-260606D01*
X295000Y-260624D01*
X294818Y-260654D01*
X294660Y-260696D01*
X294527Y-260750D01*
X294418Y-260816D01*
X294333Y-260894D01*
X294272Y-260984D01*
X294236Y-261086D01*
X294224Y-261200D01*
Y-258800D01*
X294236Y-258914D01*
D02*
G37*
G36*
X287764Y-261200D02*
X287752Y-261086D01*
X287716Y-260984D01*
X287656Y-260894D01*
X287572Y-260816D01*
X287464Y-260750D01*
X287332Y-260696D01*
X287176Y-260654D01*
X286996Y-260624D01*
X286792Y-260606D01*
X286564Y-260600D01*
Y-259400D01*
X286792Y-259394D01*
X286996Y-259376D01*
X287176Y-259346D01*
X287332Y-259304D01*
X287464Y-259250D01*
X287572Y-259184D01*
X287656Y-259106D01*
X287716Y-259016D01*
X287752Y-258914D01*
X287764Y-258800D01*
Y-261200D01*
D02*
G37*
G36*
X285224Y-258914D02*
X285260Y-259016D01*
X285320Y-259106D01*
X285404Y-259184D01*
X285512Y-259250D01*
X285644Y-259304D01*
X285800Y-259346D01*
X285980Y-259376D01*
X286184Y-259394D01*
X286412Y-259400D01*
Y-260600D01*
X286184Y-260606D01*
X285980Y-260624D01*
X285800Y-260654D01*
X285644Y-260696D01*
X285512Y-260750D01*
X285404Y-260816D01*
X285320Y-260894D01*
X285260Y-260984D01*
X285224Y-261086D01*
X285212Y-261200D01*
Y-258800D01*
X285224Y-258914D01*
D02*
G37*
G36*
X292777Y-265945D02*
X292808Y-266017D01*
X292860Y-266079D01*
X292932Y-266134D01*
X293025Y-266180D01*
X293139Y-266218D01*
X293272Y-266247D01*
X293427Y-266268D01*
X293602Y-266281D01*
X293797Y-266285D01*
Y-267485D01*
X293603Y-267487D01*
X293145Y-267525D01*
X293033Y-267547D01*
X292941Y-267575D01*
X292870Y-267607D01*
X292819Y-267644D01*
X292788Y-267687D01*
X292778Y-267734D01*
X292766Y-265866D01*
X292777Y-265945D01*
D02*
G37*
G36*
X299521Y-269705D02*
X299504Y-269695D01*
X299475Y-269687D01*
X299437Y-269679D01*
X299388Y-269673D01*
X299258Y-269663D01*
X298873Y-269655D01*
X298687Y-268455D01*
X298797Y-268454D01*
X299071Y-268436D01*
X299143Y-268425D01*
X299205Y-268412D01*
X299257Y-268397D01*
X299299Y-268379D01*
X299332Y-268359D01*
X299355Y-268337D01*
X299521Y-269705D01*
D02*
G37*
G36*
X296818Y-267969D02*
X296855Y-268071D01*
X296915Y-268161D01*
X297000Y-268239D01*
X297109Y-268305D01*
X297242Y-268359D01*
X297400Y-268401D01*
X297582Y-268431D01*
X297788Y-268449D01*
X298018Y-268455D01*
Y-269655D01*
X297788Y-269661D01*
X297582Y-269679D01*
X297400Y-269709D01*
X297242Y-269751D01*
X297109Y-269805D01*
X297000Y-269871D01*
X296915Y-269949D01*
X296855Y-270039D01*
X296818Y-270141D01*
X296806Y-270255D01*
Y-267855D01*
X296818Y-267969D01*
D02*
G37*
G36*
X290224Y-275210D02*
X290156Y-275235D01*
X290096Y-275275D01*
X290044Y-275332D01*
X290000Y-275405D01*
X289964Y-275495D01*
X289936Y-275600D01*
X289916Y-275722D01*
X289904Y-275860D01*
X289900Y-276014D01*
X289100D01*
X289096Y-275860D01*
X289084Y-275722D01*
X289064Y-275600D01*
X289036Y-275495D01*
X289000Y-275405D01*
X288956Y-275332D01*
X288904Y-275275D01*
X288844Y-275235D01*
X288776Y-275210D01*
X288700Y-275202D01*
X290300D01*
X290224Y-275210D01*
D02*
G37*
G36*
X289903Y-277069D02*
X289912Y-277164D01*
X289926Y-277253D01*
X289946Y-277339D01*
X289972Y-277419D01*
X290004Y-277496D01*
X290042Y-277568D01*
X290085Y-277636D01*
X290134Y-277699D01*
X290189Y-277758D01*
X288811D01*
X288866Y-277699D01*
X288915Y-277636D01*
X288958Y-277568D01*
X288996Y-277496D01*
X289028Y-277419D01*
X289054Y-277339D01*
X289074Y-277253D01*
X289088Y-277164D01*
X289097Y-277069D01*
X289100Y-276971D01*
X289900D01*
X289903Y-277069D01*
D02*
G37*
G36*
X326893Y-307591D02*
X326798Y-307567D01*
X326639Y-307620D01*
X326416Y-307750D01*
X326128Y-307957D01*
X325775Y-308241D01*
X324331Y-309555D01*
X323046Y-310815D01*
X319510Y-307279D01*
X320179Y-306605D01*
X322575Y-303909D01*
X322705Y-303686D01*
X322758Y-303527D01*
X322734Y-303432D01*
X326893Y-307591D01*
D02*
G37*
G36*
X279095Y-319262D02*
X279046Y-319325D01*
X279002Y-319393D01*
X278965Y-319465D01*
X278933Y-319541D01*
X278907Y-319622D01*
X278887Y-319707D01*
X278872Y-319797D01*
X278864Y-319891D01*
X278861Y-319990D01*
X278061D01*
X278058Y-319891D01*
X278049Y-319797D01*
X278035Y-319707D01*
X278014Y-319622D01*
X277988Y-319541D01*
X277957Y-319465D01*
X277919Y-319393D01*
X277876Y-319325D01*
X277827Y-319262D01*
X277772Y-319203D01*
X279150D01*
X279095Y-319262D01*
D02*
G37*
G36*
X278865Y-320490D02*
X278877Y-320628D01*
X278897Y-320750D01*
X278925Y-320855D01*
X278961Y-320945D01*
X279005Y-321018D01*
X279057Y-321075D01*
X279117Y-321115D01*
X279185Y-321140D01*
X279261Y-321148D01*
X277661D01*
X277737Y-321140D01*
X277805Y-321115D01*
X277865Y-321075D01*
X277917Y-321018D01*
X277961Y-320945D01*
X277997Y-320855D01*
X278025Y-320750D01*
X278045Y-320628D01*
X278057Y-320490D01*
X278061Y-320336D01*
X278861D01*
X278865Y-320490D01*
D02*
G37*
G36*
X277856Y-321707D02*
X278042Y-321745D01*
X278174Y-321795D01*
X278254Y-321857D01*
X278282Y-321932D01*
X278256Y-322018D01*
X278178Y-322117D01*
X278744Y-322682D01*
X278842Y-322604D01*
X278928Y-322578D01*
X279003Y-322606D01*
X279065Y-322686D01*
X279115Y-322818D01*
X279153Y-323004D01*
X279179Y-323242D01*
X279192Y-323533D01*
X279183Y-324274D01*
X276586Y-321677D01*
X276983Y-321666D01*
X277856Y-321707D01*
D02*
G37*
G36*
X280463Y-321238D02*
X280613Y-321330D01*
X280863Y-321411D01*
X281213Y-321481D01*
X281663Y-321540D01*
X282863Y-321626D01*
X285413Y-321675D01*
Y-326675D01*
X284463Y-326680D01*
X280863Y-326939D01*
X280613Y-327020D01*
X280463Y-327112D01*
X280413Y-327214D01*
Y-321136D01*
X280463Y-321238D01*
D02*
G37*
G36*
X365222Y-329630D02*
X365303Y-330956D01*
X365329Y-331048D01*
X365357Y-331104D01*
X365390Y-331122D01*
X363051D01*
X363084Y-331104D01*
X363112Y-331048D01*
X363138Y-330956D01*
X363160Y-330827D01*
X363178Y-330662D01*
X363214Y-329943D01*
X363221Y-329279D01*
X365220D01*
X365222Y-329630D01*
D02*
G37*
G36*
X316244Y-336347D02*
X316292Y-336379D01*
X316347Y-336407D01*
X316409Y-336432D01*
X316479Y-336453D01*
X316557Y-336470D01*
X316641Y-336483D01*
X316733Y-336492D01*
X316938Y-336500D01*
Y-337500D01*
X316832Y-337502D01*
X316641Y-337517D01*
X316557Y-337530D01*
X316479Y-337547D01*
X316409Y-337568D01*
X316347Y-337593D01*
X316292Y-337621D01*
X316244Y-337653D01*
X316203Y-337689D01*
Y-336311D01*
X316244Y-336347D01*
D02*
G37*
G36*
X375439Y-339309D02*
X375400Y-339285D01*
X375353Y-339264D01*
X375298Y-339246D01*
X375236Y-339230D01*
X375166Y-339216D01*
X375004Y-339196D01*
X374911Y-339190D01*
X374703Y-339185D01*
X374477Y-338185D01*
X374583Y-338183D01*
X374771Y-338165D01*
X374854Y-338149D01*
X374928Y-338128D01*
X374994Y-338103D01*
X375053Y-338073D01*
X375103Y-338038D01*
X375146Y-337999D01*
X375180Y-337956D01*
X375439Y-339309D01*
D02*
G37*
G36*
X373577Y-340177D02*
X373379Y-340382D01*
X373068Y-340750D01*
X372955Y-340913D01*
X372870Y-341061D01*
X372813Y-341196D01*
X372785Y-341316D01*
Y-341422D01*
X372813Y-341514D01*
X372870Y-341592D01*
X371456Y-340177D01*
X371533Y-340234D01*
X371625Y-340262D01*
X371731D01*
X371852Y-340234D01*
X371986Y-340177D01*
X372134Y-340092D01*
X372297Y-339979D01*
X372474Y-339838D01*
X372870Y-339470D01*
X373577Y-340177D01*
D02*
G37*
G36*
X356003Y-341172D02*
X356072Y-342291D01*
X356103Y-342472D01*
X356141Y-342612D01*
X356184Y-342711D01*
X356233Y-342772D01*
X356287Y-342792D01*
X353713D01*
X353767Y-342772D01*
X353816Y-342711D01*
X353859Y-342612D01*
X353897Y-342472D01*
X353928Y-342291D01*
X353954Y-342072D01*
X353989Y-341512D01*
X354000Y-340792D01*
X356000D01*
X356003Y-341172D01*
D02*
G37*
G36*
X363063Y-343528D02*
X363053Y-343433D01*
X363023Y-343348D01*
X362972Y-343273D01*
X362901Y-343208D01*
X362810Y-343153D01*
X362699Y-343108D01*
X362567Y-343073D01*
X362416Y-343048D01*
X362244Y-343033D01*
X362051Y-343028D01*
Y-342028D01*
X362244Y-342023D01*
X362416Y-342008D01*
X362567Y-341983D01*
X362699Y-341948D01*
X362810Y-341903D01*
X362901Y-341848D01*
X362972Y-341783D01*
X363023Y-341708D01*
X363053Y-341623D01*
X363063Y-341528D01*
Y-343528D01*
D02*
G37*
G36*
X372389Y-344866D02*
X372289Y-344834D01*
X372172Y-344833D01*
X372038Y-344862D01*
X371886Y-344923D01*
X371718Y-345015D01*
X371533Y-345138D01*
X371330Y-345291D01*
X370874Y-345692D01*
X370621Y-345938D01*
X369825Y-345321D01*
X370043Y-345095D01*
X370383Y-344699D01*
X370504Y-344530D01*
X370593Y-344379D01*
X370648Y-344247D01*
X370671Y-344133D01*
X370661Y-344039D01*
X370619Y-343963D01*
X370544Y-343906D01*
X372389Y-344866D01*
D02*
G37*
G36*
X364466D02*
X364389Y-344810D01*
X364298Y-344783D01*
X364192Y-344784D01*
X364072Y-344814D01*
X363938Y-344872D01*
X363790Y-344958D01*
X363627Y-345072D01*
X363449Y-345215D01*
X363051Y-345585D01*
X362344Y-344878D01*
X362544Y-344672D01*
X362857Y-344303D01*
X362971Y-344140D01*
X363057Y-343991D01*
X363115Y-343857D01*
X363145Y-343737D01*
X363146Y-343631D01*
X363119Y-343540D01*
X363063Y-343463D01*
X364466Y-344866D01*
D02*
G37*
G36*
X365390Y-344878D02*
X365402Y-345525D01*
X364402D01*
X364400Y-345400D01*
X364378Y-345104D01*
X364365Y-345031D01*
X364349Y-344972D01*
X364330Y-344926D01*
X364308Y-344893D01*
X364283Y-344873D01*
X364255Y-344866D01*
X365390Y-344878D01*
D02*
G37*
G36*
X375490Y-345484D02*
X375462Y-345488D01*
X375429Y-345500D01*
X375390Y-345520D01*
X375345Y-345549D01*
X375294Y-345586D01*
X375176Y-345684D01*
X375034Y-345815D01*
X374955Y-345894D01*
X374106Y-345045D01*
X374184Y-344966D01*
X374414Y-344706D01*
X374451Y-344655D01*
X374480Y-344610D01*
X374500Y-344571D01*
X374512Y-344538D01*
X374516Y-344510D01*
X375490Y-345484D01*
D02*
G37*
G36*
X374740Y-346832D02*
X374757Y-347036D01*
X374785Y-347216D01*
X374825Y-347372D01*
X374876Y-347504D01*
X374939Y-347612D01*
X375013Y-347696D01*
X375098Y-347756D01*
X375195Y-347792D01*
X375303Y-347804D01*
X372965D01*
X373073Y-347792D01*
X373170Y-347756D01*
X373255Y-347696D01*
X373329Y-347612D01*
X373392Y-347504D01*
X373443Y-347372D01*
X373483Y-347216D01*
X373511Y-347036D01*
X373528Y-346832D01*
X373534Y-346604D01*
X374734D01*
X374740Y-346832D01*
D02*
G37*
G36*
X366170Y-346994D02*
X366219Y-347764D01*
X366233Y-347794D01*
X366248Y-347804D01*
X365090D01*
X365106Y-347794D01*
X365119Y-347764D01*
X365131Y-347714D01*
X365141Y-347644D01*
X365157Y-347444D01*
X365169Y-346804D01*
X366169D01*
X366170Y-346994D01*
D02*
G37*
G36*
X362233D02*
X362282Y-347764D01*
X362296Y-347794D01*
X362311Y-347804D01*
X361154D01*
X361168Y-347794D01*
X361182Y-347764D01*
X361194Y-347714D01*
X361204Y-347644D01*
X361220Y-347444D01*
X361232Y-346804D01*
X362232D01*
X362233Y-346994D01*
D02*
G37*
G36*
X356277Y-345229D02*
X356269Y-345288D01*
X356261Y-345389D01*
X356243Y-346259D01*
X356344Y-347724D01*
X356373Y-347784D01*
X356405Y-347804D01*
X354067D01*
X354099Y-347784D01*
X354128Y-347724D01*
X354153Y-347624D01*
X354175Y-347484D01*
X354194Y-347304D01*
X354221Y-346712D01*
X354152Y-345929D01*
X354105Y-345708D01*
X354048Y-345529D01*
X353980Y-345389D01*
X353901Y-345288D01*
X353812Y-345229D01*
X353713Y-345209D01*
X356287D01*
X356277Y-345229D01*
D02*
G37*
G36*
X368217Y-347804D02*
X367183Y-347816D01*
X367192Y-347810D01*
X367199Y-347794D01*
X367206Y-347766D01*
X367212Y-347727D01*
X367221Y-347615D01*
X367228Y-347365D01*
X367228Y-347259D01*
X368228D01*
X368217Y-347804D01*
D02*
G37*
G36*
X368184Y-352908D02*
X368156Y-352938D01*
X368130Y-352988D01*
X368108Y-353058D01*
X368090Y-353148D01*
X368075Y-353258D01*
X368054Y-353538D01*
X368047Y-353898D01*
X367048D01*
X367059Y-352898D01*
X368217D01*
X368184Y-352908D01*
D02*
G37*
G36*
X364282D02*
X364284Y-352938D01*
X364291Y-353538D01*
X364291Y-353898D01*
X363291D01*
X363289Y-353708D01*
X363249Y-353148D01*
X363230Y-353058D01*
X363209Y-352988D01*
X363183Y-352938D01*
X363155Y-352908D01*
X363123Y-352898D01*
X364280D01*
X364282Y-352908D01*
D02*
G37*
G36*
X282243Y-331485D02*
X281908Y-331837D01*
X282094Y-331975D01*
X282016Y-331989D01*
X281938Y-332009D01*
X281861Y-332034D01*
X281785Y-332066D01*
X281710Y-332104D01*
X281649Y-332140D01*
X281094Y-332824D01*
X280793Y-333270D01*
X280535Y-333717D01*
X280319Y-334163D01*
X280144Y-334610D01*
X280010Y-335057D01*
X279919Y-335504D01*
X279869Y-335951D01*
X277212Y-333294D01*
X277659Y-333244D01*
X278106Y-333153D01*
X278553Y-333020D01*
X279000Y-332845D01*
X279447Y-332628D01*
X279893Y-332370D01*
X280340Y-332070D01*
X280786Y-331728D01*
X280903Y-331627D01*
X280911Y-331614D01*
X280945Y-331539D01*
X280970Y-331463D01*
X280988Y-331386D01*
X280996Y-331309D01*
X280996Y-331231D01*
X280988Y-331153D01*
X281238Y-331339D01*
X281678Y-330920D01*
X282243Y-331485D01*
D02*
G37*
G36*
X273320Y-331136D02*
X274659Y-332265D01*
X275031Y-332511D01*
X275366Y-332692D01*
X275664Y-332807D01*
X275925Y-332857D01*
X276148Y-332842D01*
X276334Y-332762D01*
X272969Y-335030D01*
X273106Y-334900D01*
X273180Y-334736D01*
X273192Y-334538D01*
X273143Y-334306D01*
X273031Y-334040D01*
X272858Y-333740D01*
X272622Y-333407D01*
X272324Y-333039D01*
X271543Y-332201D01*
X272798Y-330629D01*
X273320Y-331136D01*
D02*
G37*
G36*
X272969Y-338740D02*
X272949Y-338550D01*
X272888Y-338380D01*
X272788Y-338230D01*
X272647Y-338100D01*
X272466Y-337990D01*
X272245Y-337900D01*
X271983Y-337830D01*
X271681Y-337780D01*
X271425Y-337758D01*
X270115Y-337848D01*
X270055Y-337877D01*
X270035Y-337909D01*
Y-335571D01*
X270055Y-335603D01*
X270115Y-335632D01*
X270215Y-335657D01*
X270355Y-335679D01*
X270535Y-335698D01*
X271279Y-335732D01*
X271339Y-335730D01*
X271681Y-335700D01*
X271983Y-335650D01*
X272245Y-335580D01*
X272466Y-335490D01*
X272647Y-335380D01*
X272788Y-335250D01*
X272888Y-335100D01*
X272949Y-334930D01*
X272969Y-334740D01*
Y-338740D01*
D02*
G37*
G36*
X280180Y-338878D02*
X279971Y-339028D01*
X279787Y-339278D01*
X279627Y-339628D01*
X279492Y-340078D01*
X279382Y-340628D01*
X279296Y-341278D01*
X279197Y-342878D01*
X279185Y-343828D01*
X274185D01*
X274173Y-342878D01*
X273989Y-340628D01*
X273878Y-340078D01*
X273743Y-339628D01*
X273583Y-339278D01*
X273399Y-339028D01*
X273190Y-338878D01*
X272957Y-338828D01*
X280413D01*
X280180Y-338878D01*
D02*
G37*
%LPC*%
G36*
X261681Y-307936D02*
X261214Y-308029D01*
X262148D01*
X261681Y-307936D01*
D02*
G37*
%LPD*%
D12*
X270874Y-305402D02*
X270902D01*
X271917Y-306417D01*
Y-312821D02*
Y-306417D01*
X259122Y-294878D02*
Y-290179D01*
X256507Y-297493D02*
X259122Y-294878D01*
X256507Y-298993D02*
Y-297493D01*
X256500Y-299000D02*
X256507Y-298993D01*
X261500Y-298000D02*
X261591Y-297909D01*
Y-290270D01*
X261681Y-290179D01*
X264366Y-294866D02*
X266683Y-297183D01*
X294102Y-308549D02*
X294882Y-307769D01*
X293266Y-308549D02*
X294102D01*
X287000Y-314815D02*
X293266Y-308549D01*
X287000Y-315500D02*
Y-314815D01*
X294882Y-307769D02*
Y-307671D01*
Y-307573D01*
X296195Y-306260D02*
X301524D01*
X294882Y-307573D02*
X296195Y-306260D01*
X264366Y-294866D02*
Y-290305D01*
X264240Y-290179D02*
X264366Y-290305D01*
X375815Y-338685D02*
X376000Y-338500D01*
X374362Y-338685D02*
X375815D01*
X371701Y-341347D02*
X374362Y-338685D01*
X371701Y-342528D02*
Y-341347D01*
X315500Y-337000D02*
X356000D01*
X361528Y-342528D01*
X364220D01*
X364500Y-355000D02*
X366914D01*
X363791Y-354291D02*
X364500Y-355000D01*
X363791Y-354291D02*
Y-350441D01*
X367547Y-354367D02*
Y-350442D01*
X367638Y-350351D01*
X366914Y-355000D02*
X367547Y-354367D01*
X363701Y-350351D02*
X363791Y-350441D01*
X371020Y-343209D02*
X371701Y-342528D01*
X371020Y-344832D02*
Y-343209D01*
X369511Y-346341D02*
X371020Y-344832D01*
X368646Y-346341D02*
X369511D01*
X367728Y-347259D02*
X368646Y-346341D01*
X367728Y-350261D02*
Y-347259D01*
X367638Y-350351D02*
X367728Y-350261D01*
X361732Y-346197D02*
X364220Y-343709D01*
X361732Y-350351D02*
Y-346197D01*
X364220Y-343709D02*
Y-342528D01*
X364902Y-345525D02*
X365669Y-346292D01*
X364220Y-342528D02*
X364902Y-343209D01*
X365669Y-350351D02*
Y-346292D01*
X364902Y-345525D02*
Y-343209D01*
X255471Y-260000D02*
X277547D01*
X251445Y-290179D02*
Y-264026D01*
X255471Y-260000D01*
X276532Y-258984D02*
X277547Y-260000D01*
D14*
X264240Y-304760D02*
X264500Y-304500D01*
X264240Y-312821D02*
Y-304760D01*
X274476Y-312821D02*
X284179D01*
X284500Y-312500D01*
X282115Y-278923D02*
Y-274826D01*
X280190Y-274144D02*
X281433D01*
X282115Y-274826D01*
X289500D02*
X290182Y-274144D01*
X289500Y-278461D02*
Y-274826D01*
X290182Y-274144D02*
X290428D01*
X286274Y-307500D02*
X289961D01*
X286049Y-307724D02*
X286274Y-307500D01*
X276685Y-324175D02*
X278461Y-322399D01*
Y-318500D01*
X277374Y-335789D02*
X281961Y-331203D01*
Y-331000D01*
X276685Y-335789D02*
X277374D01*
D15*
X295610Y-272519D02*
D03*
Y-269055D02*
D03*
X251961Y-337035D02*
D03*
Y-340500D02*
D03*
Y-329232D02*
D03*
Y-325768D02*
D03*
D16*
X251445Y-312821D02*
D03*
D17*
X254004D02*
D03*
X256563D02*
D03*
X259122D02*
D03*
X261681D02*
D03*
X264240D02*
D03*
X266799D02*
D03*
X269358D02*
D03*
X271917D02*
D03*
X274476D02*
D03*
Y-290179D02*
D03*
X271917D02*
D03*
X269358D02*
D03*
X266799D02*
D03*
X264240D02*
D03*
X261681D02*
D03*
X259122D02*
D03*
X256563D02*
D03*
X254004D02*
D03*
X251445D02*
D03*
D18*
X257842Y-336739D02*
D03*
X257842Y-329259D02*
D03*
X268079Y-329260D02*
D03*
X268078Y-333000D02*
D03*
X268078Y-336740D02*
D03*
D19*
X301524Y-306260D02*
D03*
Y-313740D02*
D03*
X309791Y-310000D02*
D03*
D20*
X294882Y-311411D02*
D03*
Y-307671D02*
D03*
D21*
X285961Y-302500D02*
D03*
X282221D02*
D03*
X286049Y-307724D02*
D03*
X282309D02*
D03*
X286049Y-297224D02*
D03*
X282309D02*
D03*
X289130Y-260000D02*
D03*
X292870D02*
D03*
D22*
X371575Y-350351D02*
D03*
X369606D02*
D03*
X367638D02*
D03*
X365669D02*
D03*
X363701D02*
D03*
X361732D02*
D03*
X359764D02*
D03*
X357795D02*
D03*
D23*
X374134D02*
D03*
X377283D02*
D03*
X355236D02*
D03*
X352086D02*
D03*
D24*
X277547Y-260000D02*
D03*
X283453D02*
D03*
D25*
X364220Y-342528D02*
D03*
X367961D02*
D03*
X371701D02*
D03*
Y-333472D02*
D03*
X364220D02*
D03*
D26*
X355000Y-344000D02*
D03*
X351535D02*
D03*
X261728Y-321000D02*
D03*
X265193D02*
D03*
D27*
X289701Y-283626D02*
D03*
X282221D02*
D03*
X285961Y-291500D02*
D03*
D28*
X290428Y-266664D02*
D03*
Y-274144D02*
D03*
X280190D02*
D03*
Y-270404D02*
D03*
Y-266664D02*
D03*
D29*
X276685Y-324175D02*
D03*
Y-335789D02*
D03*
D41*
X256500Y-277500D02*
D03*
X266500D02*
D03*
Y-267500D02*
D03*
X309961Y-296000D02*
D03*
Y-286000D02*
D03*
X299961D02*
D03*
D42*
X256500Y-267500D02*
D03*
D45*
X299961Y-296000D02*
D03*
D51*
X261769Y-316558D02*
X264494Y-319284D01*
Y-320379D02*
X265114Y-321000D01*
X261681Y-312821D02*
X261769Y-312908D01*
Y-316558D02*
Y-312908D01*
X264494Y-320379D02*
Y-319284D01*
X265114Y-321000D02*
X265193D01*
X261000Y-306000D02*
X261681Y-306681D01*
Y-312821D02*
Y-306681D01*
X272005Y-295005D02*
X274224Y-297224D01*
X282309Y-302500D02*
Y-297224D01*
Y-307724D02*
Y-302500D01*
X274224Y-297224D02*
X282309D01*
X272005Y-295005D02*
Y-290267D01*
X261650Y-321000D02*
X261728D01*
X258500D02*
X261650D01*
X258000Y-321500D02*
X258500Y-321000D01*
X275521Y-283711D02*
X275732Y-283500D01*
X278000D01*
X278126Y-283626D01*
X282221D01*
X295610Y-269055D02*
X300445D01*
X300136Y-268936D02*
X300200Y-269000D01*
X300500D01*
X300445Y-269055D02*
X300500Y-269000D01*
X292870Y-260000D02*
X297000D01*
X291707Y-266664D02*
X292190Y-266181D01*
X290428Y-266664D02*
X291707D01*
X283453Y-260000D02*
X289130D01*
X265000Y-267705D02*
Y-267500D01*
X263562Y-268938D02*
X263767D01*
X261391Y-279526D02*
Y-271109D01*
X263767Y-268938D02*
X265000Y-267705D01*
X261391Y-271109D02*
X263562Y-268938D01*
X256563Y-283192D02*
X257364Y-282391D01*
X258526D01*
X261391Y-279526D01*
X255585Y-281360D02*
Y-278415D01*
X254576Y-282369D02*
X255585Y-281360D01*
X254576Y-283299D02*
Y-282369D01*
X255585Y-278415D02*
X256500Y-277500D01*
X256563Y-290179D02*
Y-283192D01*
X272000Y-273187D02*
X277253Y-267934D01*
X272000Y-283943D02*
Y-273187D01*
X269702Y-286241D02*
X272000Y-283943D01*
X269358Y-287035D02*
X269702Y-286692D01*
Y-286241D01*
X269358Y-290179D02*
Y-287035D01*
X277253Y-267934D02*
X277640D01*
X278910Y-266664D01*
X280190D01*
X290649Y-266885D02*
X293797D01*
X294500Y-267866D02*
Y-267588D01*
X295610Y-269055D02*
Y-268976D01*
X294500Y-267866D02*
X295610Y-268976D01*
X290428Y-266664D02*
X290649Y-266885D01*
X293797D02*
X294500Y-267588D01*
X374134Y-345866D02*
X375500Y-344500D01*
X374134Y-350351D02*
Y-345866D01*
X254576Y-277924D02*
X255000Y-277500D01*
X254004Y-283871D02*
X254576Y-283299D01*
X254004Y-290179D02*
Y-283871D01*
X283087Y-294570D02*
X285961Y-291697D01*
X282408Y-297224D02*
X283087Y-296545D01*
X285961Y-291697D02*
Y-291500D01*
X283087Y-296545D02*
Y-294570D01*
X282309Y-297224D02*
X282408D01*
X271917Y-290179D02*
X272005Y-290267D01*
X259122Y-318473D02*
X261650Y-321000D01*
X259122Y-318473D02*
Y-312821D01*
D52*
X348936Y-351813D02*
X351905D01*
X352086Y-351632D02*
Y-350351D01*
X347677Y-353274D02*
Y-353071D01*
X348936Y-351813D01*
X351905D02*
X352086Y-351632D01*
X377283D02*
X377464Y-351813D01*
X381693Y-353274D02*
Y-353071D01*
X377283Y-351632D02*
Y-350351D01*
X377464Y-351813D02*
X380434D01*
X381693Y-353071D01*
X379500Y-345000D02*
X379550Y-345050D01*
X377283Y-348973D02*
X379550Y-346707D01*
Y-345050D01*
X377283Y-350351D02*
Y-348973D01*
X351535Y-348423D02*
X352086Y-348973D01*
Y-350351D02*
Y-348973D01*
X351535Y-348423D02*
Y-344000D01*
X258319Y-336739D02*
X258500Y-336921D01*
Y-340000D02*
Y-336921D01*
X257842Y-336739D02*
X258319D01*
X364220Y-329279D02*
X364500Y-329000D01*
X364220Y-333472D02*
Y-329279D01*
X355236Y-350351D02*
Y-343638D01*
X355000Y-344000D02*
Y-340500D01*
X274500Y-337285D02*
X275045Y-336740D01*
X268078D02*
X275045D01*
X275996Y-335789D01*
X276685D01*
X364220Y-334653D02*
Y-333472D01*
X251974Y-329246D02*
X257829D01*
X251961Y-329232D02*
X251974Y-329246D01*
X257829D02*
X257842Y-329259D01*
X251961Y-336960D02*
X252181Y-336739D01*
X251961Y-337035D02*
Y-336960D01*
X252181Y-336739D02*
X257842D01*
X273945Y-333738D02*
X275996Y-335789D01*
X268079Y-329260D02*
X268260Y-329441D01*
X270197D01*
X273945Y-333189D01*
Y-333738D02*
Y-333189D01*
D53*
X276685Y-345185D02*
X277000Y-345500D01*
X277374Y-335789D02*
X277925Y-336340D01*
X276685Y-345185D02*
Y-335789D01*
X285548Y-324175D02*
X288415Y-327041D01*
X288685D01*
X276685Y-324175D02*
X285548D01*
X315893Y-314432D02*
X326893Y-303432D01*
X312116Y-318209D02*
X315893Y-314432D01*
X309791Y-311260D02*
X312964Y-314432D01*
X309791Y-311260D02*
Y-310000D01*
X312964Y-314432D02*
X315893D01*
X297886Y-325570D02*
Y-324225D01*
X303902Y-318209D01*
X296685Y-327041D02*
Y-326770D01*
X297886Y-325570D01*
X303902Y-318209D02*
X312116D01*
D54*
X304685Y-327041D02*
D03*
X296685D02*
D03*
X288685D02*
D03*
D55*
X263685Y-358541D02*
D03*
X330185Y-360541D02*
D03*
D56*
X326893Y-303432D02*
D03*
D57*
X332461Y-309000D02*
D03*
D58*
X347677Y-353274D02*
D03*
X381693D02*
D03*
D59*
X376063Y-355243D02*
D03*
X353307D02*
D03*
D60*
X381693Y-369731D02*
D03*
X347677D02*
D03*
D61*
X258000Y-321500D02*
D03*
X258500Y-340000D02*
D03*
X275521Y-283711D02*
D03*
X300136Y-268936D02*
D03*
X297000Y-260000D02*
D03*
X270874Y-305402D02*
D03*
X256500Y-299000D02*
D03*
X261500Y-298000D02*
D03*
X266683Y-297183D02*
D03*
X287000Y-315500D02*
D03*
X376000Y-338500D02*
D03*
X315500Y-337000D02*
D03*
X277000Y-346500D02*
D03*
X364500Y-329000D02*
D03*
X355000Y-340500D02*
D03*
X264500Y-304500D02*
D03*
X284500Y-312500D02*
D03*
X276685Y-340487D02*
D03*
X277000Y-343000D02*
D03*
X375500Y-344500D02*
D03*
X289500Y-278461D02*
D03*
X289961Y-307500D02*
D03*
X278461Y-318500D02*
D03*
X282115Y-278923D02*
D03*
X281961Y-331000D02*
D03*
M02*
