G04*
G04 #@! TF.GenerationSoftware,Altium Limited,Altium Designer,21.9.1 (22)*
G04*
G04 Layer_Color=8421504*
%FSLAX25Y25*%
%MOIN*%
G70*
G04*
G04 #@! TF.SameCoordinates,E1323236-0D64-4C8B-8FC9-1981637C6FB2*
G04*
G04*
G04 #@! TF.FilePolarity,Positive*
G04*
G01*
G75*
%ADD15R,0.02441X0.02598*%
%ADD16R,0.01657X0.07698*%
G04:AMPARAMS|DCode=17|XSize=76.98mil|YSize=16.57mil|CornerRadius=8.28mil|HoleSize=0mil|Usage=FLASHONLY|Rotation=90.000|XOffset=0mil|YOffset=0mil|HoleType=Round|Shape=RoundedRectangle|*
%AMROUNDEDRECTD17*
21,1,0.07698,0.00000,0,0,90.0*
21,1,0.06041,0.01657,0,0,90.0*
1,1,0.01657,0.00000,0.03021*
1,1,0.01657,0.00000,-0.03021*
1,1,0.01657,0.00000,-0.03021*
1,1,0.01657,0.00000,0.03021*
%
%ADD17ROUNDEDRECTD17*%
%ADD18R,0.03937X0.02362*%
%ADD19R,0.05118X0.02362*%
%ADD20R,0.02559X0.02756*%
%ADD21R,0.02756X0.02559*%
%ADD22R,0.01181X0.05118*%
%ADD23R,0.02362X0.05118*%
%ADD24R,0.03543X0.03740*%
%ADD25R,0.02362X0.04724*%
%ADD26R,0.02598X0.02441*%
%ADD27R,0.03150X0.03543*%
%ADD28R,0.04724X0.02165*%
%ADD29R,0.07480X0.06102*%
G36*
X364292Y-352910D02*
X363111D01*
Y-347792D01*
X364292D01*
Y-352910D01*
D02*
G37*
G36*
X362323D02*
X361142D01*
Y-347792D01*
X362323D01*
Y-352910D01*
D02*
G37*
G36*
X360355D02*
X359174D01*
Y-347792D01*
X360355D01*
Y-352910D01*
D02*
G37*
G36*
X358386D02*
X357205D01*
Y-347792D01*
X358386D01*
Y-352910D01*
D02*
G37*
G36*
X356417D02*
X354055D01*
Y-347792D01*
X356417D01*
Y-352910D01*
D02*
G37*
G36*
X353268D02*
X350906D01*
Y-347792D01*
X353268D01*
Y-352910D01*
D02*
G37*
G36*
X349011Y-349316D02*
X349675Y-349975D01*
X350037Y-350838D01*
X350040Y-351306D01*
X350040Y-351306D01*
X350040Y-355243D01*
X350037Y-355711D01*
X349675Y-356574D01*
X349011Y-357233D01*
X348146Y-357590D01*
X347210D01*
X346345Y-357233D01*
X345681Y-356574D01*
X345319Y-355711D01*
X345316Y-355243D01*
Y-351306D01*
X345319Y-350838D01*
X345681Y-349975D01*
X346345Y-349316D01*
X347210Y-348959D01*
X348146D01*
X349011Y-349316D01*
D02*
G37*
G36*
Y-366561D02*
X349675Y-367220D01*
X350037Y-368083D01*
X350040Y-368551D01*
X350040Y-368551D01*
X350040Y-370913D01*
X350037Y-371380D01*
X349675Y-372243D01*
X349011Y-372903D01*
X348146Y-373259D01*
X347210D01*
X346345Y-372903D01*
X345681Y-372243D01*
X345319Y-371380D01*
X345316Y-370913D01*
Y-368551D01*
X345319Y-368083D01*
X345681Y-367220D01*
X346345Y-366561D01*
X347210Y-366204D01*
X348146D01*
X349011Y-366561D01*
D02*
G37*
G36*
X378464Y-352910D02*
X376102D01*
Y-347792D01*
X378464D01*
Y-352910D01*
D02*
G37*
G36*
X375315D02*
X372953D01*
Y-347792D01*
X375315D01*
Y-352910D01*
D02*
G37*
G36*
X372166D02*
X370985D01*
Y-347792D01*
X372166D01*
Y-352910D01*
D02*
G37*
G36*
X370197D02*
X369016D01*
Y-347792D01*
X370197D01*
Y-352910D01*
D02*
G37*
G36*
X368229D02*
X367048D01*
Y-347792D01*
X368229D01*
Y-352910D01*
D02*
G37*
G36*
X366260D02*
X365079D01*
Y-347792D01*
X366260D01*
Y-352910D01*
D02*
G37*
G36*
X383032Y-349303D02*
X383696Y-349968D01*
X384056Y-350836D01*
Y-351306D01*
Y-355243D01*
Y-355713D01*
X383696Y-356581D01*
X383032Y-357246D01*
X382164Y-357605D01*
X381224D01*
X380356Y-357246D01*
X379691Y-356581D01*
X379331Y-355713D01*
Y-355243D01*
Y-351306D01*
Y-350836D01*
X379691Y-349968D01*
X380356Y-349303D01*
X381224Y-348944D01*
X382164D01*
X383032Y-349303D01*
D02*
G37*
G36*
Y-366548D02*
X383696Y-367213D01*
X384056Y-368081D01*
Y-368551D01*
Y-370913D01*
Y-371382D01*
X383696Y-372251D01*
X383032Y-372915D01*
X382164Y-373275D01*
X381224D01*
X380356Y-372915D01*
X379691Y-372251D01*
X379331Y-371382D01*
Y-370913D01*
Y-368551D01*
Y-368081D01*
X379691Y-367213D01*
X380356Y-366548D01*
X381224Y-366188D01*
X382164D01*
X383032Y-366548D01*
D02*
G37*
D15*
X295610Y-272519D02*
D03*
Y-269055D02*
D03*
X251961Y-337035D02*
D03*
Y-340500D02*
D03*
Y-329232D02*
D03*
Y-325768D02*
D03*
D16*
X251445Y-312821D02*
D03*
D17*
X254004D02*
D03*
X256563D02*
D03*
X259122D02*
D03*
X261681D02*
D03*
X264240D02*
D03*
X266799D02*
D03*
X269358D02*
D03*
X271917D02*
D03*
X274476D02*
D03*
Y-290179D02*
D03*
X271917D02*
D03*
X269358D02*
D03*
X266799D02*
D03*
X264240D02*
D03*
X261681D02*
D03*
X259122D02*
D03*
X256563D02*
D03*
X254004D02*
D03*
X251445D02*
D03*
D18*
X257842Y-336739D02*
D03*
X257842Y-329259D02*
D03*
X268079Y-329260D02*
D03*
X268078Y-333000D02*
D03*
X268078Y-336740D02*
D03*
D19*
X301524Y-306260D02*
D03*
Y-313740D02*
D03*
X309791Y-310000D02*
D03*
D20*
X294882Y-311411D02*
D03*
Y-307671D02*
D03*
D21*
X285961Y-302500D02*
D03*
X282221D02*
D03*
X286049Y-307724D02*
D03*
X282309D02*
D03*
X286049Y-297224D02*
D03*
X282309D02*
D03*
X289130Y-260000D02*
D03*
X292870D02*
D03*
D22*
X371575Y-350351D02*
D03*
X369606D02*
D03*
X367638D02*
D03*
X365669D02*
D03*
X363701D02*
D03*
X361732D02*
D03*
X359764D02*
D03*
X357795D02*
D03*
D23*
X374134D02*
D03*
X377283D02*
D03*
X355236D02*
D03*
X352086D02*
D03*
D24*
X277547Y-260000D02*
D03*
X283453D02*
D03*
D25*
X364220Y-342528D02*
D03*
X367961D02*
D03*
X371701D02*
D03*
Y-333472D02*
D03*
X364220D02*
D03*
D26*
X355000Y-344000D02*
D03*
X351535D02*
D03*
X261728Y-321000D02*
D03*
X265193D02*
D03*
D27*
X289701Y-283626D02*
D03*
X282221D02*
D03*
X285961Y-291500D02*
D03*
D28*
X290428Y-266664D02*
D03*
Y-274144D02*
D03*
X280190D02*
D03*
Y-270404D02*
D03*
Y-266664D02*
D03*
D29*
X276685Y-324175D02*
D03*
Y-335789D02*
D03*
M02*
