G04*
G04 #@! TF.GenerationSoftware,Altium Limited,Altium Designer,21.9.1 (22)*
G04*
G04 Layer_Color=255*
%FSLAX25Y25*%
%MOIN*%
G70*
G04*
G04 #@! TF.SameCoordinates,CDD0097E-41E7-41F5-A71D-9F4D08275E7E*
G04*
G04*
G04 #@! TF.FilePolarity,Positive*
G04*
G01*
G75*
%ADD34R,0.02598X0.02441*%
%ADD134R,0.05512X0.05512*%
%ADD135C,0.05512*%
%ADD145C,0.08465*%
%ADD146R,0.08465X0.08465*%
%ADD164C,0.19685*%
%ADD165C,0.06496*%
G04:AMPARAMS|DCode=166|XSize=64.96mil|YSize=64.96mil|CornerRadius=16.24mil|HoleSize=0mil|Usage=FLASHONLY|Rotation=270.000|XOffset=0mil|YOffset=0mil|HoleType=Round|Shape=RoundedRectangle|*
%AMROUNDEDRECTD166*
21,1,0.06496,0.03248,0,0,270.0*
21,1,0.03248,0.06496,0,0,270.0*
1,1,0.03248,-0.01624,-0.01624*
1,1,0.03248,-0.01624,0.01624*
1,1,0.03248,0.01624,0.01624*
1,1,0.03248,0.01624,-0.01624*
%
%ADD166ROUNDEDRECTD166*%
%ADD167R,0.05315X0.05315*%
%ADD168C,0.05315*%
%ADD169C,0.02756*%
%ADD170O,0.04724X0.07087*%
%ADD171O,0.04724X0.08661*%
G04:AMPARAMS|DCode=172|XSize=82.68mil|YSize=82.68mil|CornerRadius=20.67mil|HoleSize=0mil|Usage=FLASHONLY|Rotation=0.000|XOffset=0mil|YOffset=0mil|HoleType=Round|Shape=RoundedRectangle|*
%AMROUNDEDRECTD172*
21,1,0.08268,0.04134,0,0,0.0*
21,1,0.04134,0.08268,0,0,0.0*
1,1,0.04134,0.02067,-0.02067*
1,1,0.04134,-0.02067,-0.02067*
1,1,0.04134,-0.02067,0.02067*
1,1,0.04134,0.02067,0.02067*
%
%ADD172ROUNDEDRECTD172*%
%ADD173C,0.08268*%
D34*
X939732Y536000D02*
D03*
X936268D02*
D03*
X936768Y521500D02*
D03*
X940232D02*
D03*
D134*
X1192307Y500551D02*
D03*
D135*
Y508425D02*
D03*
Y516299D02*
D03*
Y524173D02*
D03*
Y532047D02*
D03*
Y539921D02*
D03*
Y547795D02*
D03*
Y555669D02*
D03*
Y563543D02*
D03*
Y571417D02*
D03*
X1105693D02*
D03*
Y563543D02*
D03*
Y555669D02*
D03*
Y547795D02*
D03*
Y539921D02*
D03*
Y532047D02*
D03*
Y524173D02*
D03*
Y516299D02*
D03*
Y508425D02*
D03*
Y500551D02*
D03*
D145*
X841500Y498248D02*
D03*
D146*
X821500D02*
D03*
D164*
X896000Y692000D02*
D03*
X885500Y512000D02*
D03*
X1082500Y675500D02*
D03*
D165*
X1141000Y705500D02*
D03*
Y715500D02*
D03*
X1131000Y705500D02*
D03*
Y715500D02*
D03*
X1141000Y725500D02*
D03*
X1131000D02*
D03*
X1141000Y745500D02*
D03*
X1131000Y735500D02*
D03*
X1141000D02*
D03*
D166*
X1131000Y745500D02*
D03*
D167*
X1047500Y697252D02*
D03*
D168*
Y705126D02*
D03*
Y713000D02*
D03*
Y720874D02*
D03*
Y728748D02*
D03*
Y736622D02*
D03*
D169*
X1067878Y487798D02*
D03*
X1045122D02*
D03*
D170*
X1073508Y473310D02*
D03*
X1039492D02*
D03*
D171*
X1073508Y489767D02*
D03*
X1039492D02*
D03*
D172*
X922500Y490386D02*
D03*
D173*
X937500D02*
D03*
M02*
