G04*
G04 #@! TF.GenerationSoftware,Altium Limited,Altium Designer,21.9.1 (22)*
G04*
G04 Layer_Color=8388736*
%FSLAX25Y25*%
%MOIN*%
G70*
G04*
G04 #@! TF.SameCoordinates,CDD0097E-41E7-41F5-A71D-9F4D08275E7E*
G04*
G04*
G04 #@! TF.FilePolarity,Positive*
G04*
G01*
G75*
%ADD11C,0.00394*%
%ADD13C,0.00787*%
D11*
X1146000Y700500D02*
Y750500D01*
X1126000Y700500D02*
X1146000D01*
X1126000D02*
Y750500D01*
X1146000D01*
X912658Y458890D02*
Y495110D01*
Y458890D02*
X947342D01*
Y495110D01*
X912658D02*
X947342D01*
D13*
X771941Y654654D02*
X777059D01*
X771941D02*
Y661346D01*
X777059D01*
Y654654D02*
Y661346D01*
X771350Y643575D02*
X777650D01*
Y640425D02*
Y643575D01*
X771350Y640425D02*
X777650D01*
X771350D02*
Y643575D01*
Y635075D02*
X777650D01*
Y631925D02*
Y635075D01*
X771350Y631925D02*
X777650D01*
X771350D02*
Y635075D01*
X820204Y605461D02*
X828078D01*
Y600539D02*
Y605461D01*
X820204Y600539D02*
X828078D01*
X820204D02*
Y605461D01*
X772039Y586063D02*
Y593937D01*
X776961D01*
Y586063D02*
Y593937D01*
X772039Y586063D02*
X776961D01*
X781539Y585922D02*
Y593796D01*
X786461D01*
Y585922D02*
Y593796D01*
X781539Y585922D02*
X786461D01*
X836728Y605945D02*
X863224D01*
Y581457D02*
Y605945D01*
X836728Y581457D02*
X863224D01*
X836728D02*
Y605945D01*
X959850Y525063D02*
Y532937D01*
X966150D01*
Y525063D02*
Y532937D01*
X959850Y525063D02*
X966150D01*
X956850Y541425D02*
X963150D01*
X956850D02*
Y544575D01*
X963150D01*
Y541425D02*
Y544575D01*
X956850Y549425D02*
X963150D01*
X956850D02*
Y552575D01*
X963150D01*
Y549425D02*
Y552575D01*
X956850Y557425D02*
X963150D01*
X956850D02*
Y560575D01*
X963150D01*
Y557425D02*
Y560575D01*
X929118Y573846D02*
X936992D01*
X929118D02*
Y578767D01*
X936992D01*
Y573846D02*
Y578767D01*
X929422Y564539D02*
X937296D01*
X929422D02*
Y569461D01*
X937296D01*
Y564539D02*
Y569461D01*
X939350Y550425D02*
X945650D01*
X939350D02*
Y553575D01*
X945650D01*
Y550425D02*
Y553575D01*
X939350Y542925D02*
X945650D01*
X939350D02*
Y546075D01*
X945650D01*
Y542925D02*
Y546075D01*
X946071Y520929D02*
Y537071D01*
X929929Y520929D02*
X946071D01*
X929929D02*
Y537071D01*
X946071D01*
X939350Y510925D02*
X945650D01*
X939350D02*
Y514075D01*
X945650D01*
Y510925D02*
Y514075D01*
X939350Y503425D02*
X945650D01*
X939350D02*
Y506575D01*
X945650D01*
Y503425D02*
Y506575D01*
X989461Y502142D02*
Y519858D01*
X1009539D01*
Y502142D02*
Y519858D01*
X989461Y502142D02*
X1009539D01*
X1041492Y534909D02*
Y554988D01*
X1061571D01*
Y534909D02*
Y554988D01*
X1041492Y534909D02*
X1061571D01*
X1023244Y526094D02*
Y537906D01*
X1028756D01*
Y526094D02*
Y537906D01*
X1023244Y526094D02*
X1028756D01*
X1053244Y512906D02*
X1058756D01*
Y501094D02*
Y512906D01*
X1053244Y501094D02*
X1058756D01*
X1053244D02*
Y512906D01*
X1101008Y470157D02*
X1196992D01*
X1101008D02*
Y599843D01*
X1196992D01*
Y470157D02*
Y599843D01*
X807268Y458583D02*
Y506417D01*
Y458583D02*
X855732D01*
Y506417D01*
X807268D02*
X855732D01*
X782161Y642661D02*
X814839D01*
Y675339D01*
X782161D02*
X814839D01*
X782161Y642661D02*
Y675339D01*
X880653Y657441D02*
X887346D01*
Y662559D01*
X880653D02*
X887346D01*
X880653Y657441D02*
Y662559D01*
X867661Y620661D02*
Y653339D01*
Y620661D02*
X900339D01*
Y653339D01*
X867661D02*
X900339D01*
X866425Y664150D02*
X869575D01*
X866425Y657850D02*
Y664150D01*
Y657850D02*
X869575D01*
Y664150D01*
X858425D02*
X861575D01*
X858425Y657850D02*
Y664150D01*
Y657850D02*
X861575D01*
Y664150D01*
X1023244Y549594D02*
X1028756D01*
Y561406D01*
X1023244D02*
X1028756D01*
X1023244Y549594D02*
Y561406D01*
M02*
