G04*
G04 #@! TF.GenerationSoftware,Altium Limited,Altium Designer,21.9.1 (22)*
G04*
G04 Layer_Color=32896*
%FSLAX25Y25*%
%MOIN*%
G70*
G04*
G04 #@! TF.SameCoordinates,CDD0097E-41E7-41F5-A71D-9F4D08275E7E*
G04*
G04*
G04 #@! TF.FilePolarity,Positive*
G04*
G01*
G75*
%ADD176C,0.00197*%
%ADD177C,0.00591*%
D176*
X952984Y812108D02*
X951016D01*
Y810796D01*
X952984Y808828D02*
Y810140D01*
X951016D01*
Y808828D01*
X952000Y810140D02*
Y809484D01*
X952984Y808172D02*
X951016D01*
Y807188D01*
X951344Y806860D01*
X952656D01*
X952984Y807188D01*
Y808172D01*
X952656Y806204D02*
X952984Y805876D01*
Y805220D01*
X952656Y804892D01*
X952328D01*
X952000Y805220D01*
Y805548D01*
Y805220D01*
X951672Y804892D01*
X951344D01*
X951016Y805220D01*
Y805876D01*
X951344Y806204D01*
D177*
X1138952Y725500D02*
Y727468D01*
Y726484D01*
X1134032D01*
X1133048Y727468D01*
Y728452D01*
X1134032Y729436D01*
X1133048Y723532D02*
Y721564D01*
Y722548D01*
X1138952D01*
X1137968Y723532D01*
X929016Y479952D02*
X927048D01*
X928032D01*
Y475032D01*
X927048Y474048D01*
X926064D01*
X925080Y475032D01*
X933936Y474048D02*
Y479952D01*
X930984Y477000D01*
X934920D01*
M02*
