G04*
G04 #@! TF.GenerationSoftware,Altium Limited,Altium Designer,21.9.1 (22)*
G04*
G04 Layer_Color=32768*
%FSLAX25Y25*%
%MOIN*%
G70*
G04*
G04 #@! TF.SameCoordinates,CDD0097E-41E7-41F5-A71D-9F4D08275E7E*
G04*
G04*
G04 #@! TF.FilePolarity,Positive*
G04*
G01*
G75*
%ADD11C,0.00394*%
%ADD176C,0.00197*%
D11*
X912701Y744976D02*
X956402D01*
X912701D02*
Y767024D01*
X956402D01*
Y744976D02*
Y767024D01*
X930976Y704335D02*
X953024D01*
X930976Y660634D02*
Y704335D01*
Y660634D02*
X953024D01*
Y704335D01*
X908417Y658500D02*
X910583D01*
X909500Y657417D02*
Y659583D01*
X904417Y658500D02*
X906583D01*
X905500Y657417D02*
Y659583D01*
X900417Y658500D02*
X902583D01*
X901500Y657417D02*
Y659583D01*
X896417Y658500D02*
X898583D01*
X897500Y657417D02*
Y659583D01*
X892417Y658500D02*
X894583D01*
X893500Y657417D02*
Y659583D01*
X875500Y673917D02*
Y676083D01*
X874417Y675000D02*
X876583D01*
X875500Y669417D02*
Y671583D01*
X874417Y670500D02*
X876583D01*
X837500Y649532D02*
Y653469D01*
X835532Y651500D02*
X839468D01*
X849500Y649532D02*
Y653469D01*
X847532Y651500D02*
X851468D01*
X775500Y681417D02*
Y683583D01*
X774417Y682500D02*
X776583D01*
X775500Y677417D02*
Y679583D01*
X774417Y678500D02*
X776583D01*
X775500Y673417D02*
Y675583D01*
X774417Y674500D02*
X776583D01*
X775500Y669417D02*
Y671583D01*
X774417Y670500D02*
X776583D01*
X775500Y665417D02*
Y667583D01*
X774417Y666500D02*
X776583D01*
X763917Y663000D02*
X766083D01*
X765000Y661917D02*
Y664083D01*
X763000Y652417D02*
Y654583D01*
X761917Y653500D02*
X764083D01*
X763000Y647917D02*
Y650083D01*
X761917Y649000D02*
X764083D01*
X775000Y648417D02*
Y650583D01*
X773917Y649500D02*
X776083D01*
X791000Y621531D02*
Y625468D01*
X789032Y623500D02*
X792969D01*
X804500Y621531D02*
Y625468D01*
X802532Y623500D02*
X806468D01*
X818000Y621531D02*
Y625468D01*
X816031Y623500D02*
X819969D01*
X800417Y602768D02*
X802583D01*
X801500Y601685D02*
Y603850D01*
X794000Y603917D02*
Y606083D01*
X792917Y605000D02*
X795083D01*
X794000Y599417D02*
Y601583D01*
X792917Y600500D02*
X795083D01*
X805532Y582000D02*
X809468D01*
X807500Y580031D02*
Y583968D01*
X784417Y578870D02*
X786583D01*
X785500Y577787D02*
Y579953D01*
X779917Y578732D02*
X782083D01*
X781000Y577650D02*
Y579815D01*
X785000Y569917D02*
Y572083D01*
X783917Y571000D02*
X786083D01*
X776500Y569917D02*
Y572083D01*
X775417Y571000D02*
X777583D01*
X785000Y563417D02*
Y565583D01*
X783917Y564500D02*
X786083D01*
X776370Y563417D02*
Y565583D01*
X775287Y564500D02*
X777453D01*
X795000Y560917D02*
Y563083D01*
X793917Y562000D02*
X796083D01*
X867417Y577500D02*
X869583D01*
X868500Y576417D02*
Y578583D01*
X949917Y542000D02*
X952083D01*
X951000Y540917D02*
Y543083D01*
X940500Y556917D02*
Y559083D01*
X939417Y558000D02*
X941583D01*
X931917Y544000D02*
X934083D01*
X933000Y542917D02*
Y545083D01*
X915417Y525370D02*
X917583D01*
X916500Y524287D02*
Y526453D01*
X924417Y516500D02*
X926583D01*
X925500Y515417D02*
Y517583D01*
X919917Y516500D02*
X922083D01*
X921000Y515417D02*
Y517583D01*
X915417Y516500D02*
X917583D01*
X916500Y515417D02*
Y517583D01*
X932417Y514000D02*
X934583D01*
X933500Y512917D02*
Y515083D01*
X950917Y509732D02*
X953083D01*
X952000Y508650D02*
Y510815D01*
X941500Y497917D02*
Y500083D01*
X940417Y499000D02*
X942583D01*
X960032Y491000D02*
X963968D01*
X962000Y489032D02*
Y492969D01*
X1008417Y490000D02*
X1010583D01*
X1009500Y488917D02*
Y491083D01*
X1002417Y490500D02*
X1004583D01*
X1003500Y489417D02*
Y491583D01*
X995917Y490130D02*
X998083D01*
X997000Y489047D02*
Y491213D01*
X991417Y490000D02*
X993583D01*
X992500Y488917D02*
Y491083D01*
X1000000Y538917D02*
Y541083D01*
X998917Y540000D02*
X1001083D01*
X1000000Y534417D02*
Y536583D01*
X998917Y535500D02*
X1001083D01*
X1004000Y529917D02*
Y532083D01*
X1002917Y531000D02*
X1005083D01*
X1005417Y537630D02*
X1007583D01*
X1006500Y536547D02*
Y538713D01*
X1034417Y554000D02*
X1036583D01*
X1035500Y552917D02*
Y555083D01*
X1033000Y543917D02*
Y546083D01*
X1031917Y545000D02*
X1034083D01*
X1034417Y532500D02*
X1036583D01*
X1035500Y531417D02*
Y533583D01*
X1060000Y527228D02*
Y530772D01*
X1058228Y529000D02*
X1061772D01*
X1060000Y521228D02*
Y524772D01*
X1058228Y523000D02*
X1061772D01*
X1066339Y541509D02*
X1069882D01*
X1068111Y539737D02*
Y543281D01*
X1072339Y541509D02*
X1075883D01*
X1074111Y539737D02*
Y543281D01*
X1089417Y557000D02*
X1091583D01*
X1090500Y555917D02*
Y558083D01*
X1092000Y513728D02*
Y517272D01*
X1090228Y515500D02*
X1093772D01*
X1092000Y507728D02*
Y511272D01*
X1090228Y509500D02*
X1093772D01*
X1029417Y662732D02*
X1031583D01*
X1030500Y661650D02*
Y663815D01*
X1024000Y663417D02*
Y665583D01*
X1022917Y664500D02*
X1025083D01*
X1024000Y658917D02*
Y661083D01*
X1022917Y660000D02*
X1025083D01*
X931476Y717354D02*
Y736646D01*
Y717354D02*
X953524D01*
Y736646D01*
X931476D02*
X953524D01*
X955417Y731500D02*
X957583D01*
X956500Y730417D02*
Y732583D01*
X955917Y720232D02*
X958083D01*
X957000Y719150D02*
Y721315D01*
X895500Y739417D02*
Y741583D01*
X894417Y740500D02*
X896583D01*
X881724Y745272D02*
Y749209D01*
X879756Y747240D02*
X883693D01*
X878000Y723531D02*
Y727468D01*
X876031Y725500D02*
X879968D01*
X858000Y753917D02*
Y756083D01*
X856917Y755000D02*
X859083D01*
X858000Y748917D02*
Y751083D01*
X856917Y750000D02*
X859083D01*
X857870Y743917D02*
Y746083D01*
X856787Y745000D02*
X858953D01*
X858000Y738917D02*
Y741083D01*
X856917Y740000D02*
X859083D01*
X795917Y712000D02*
X798083D01*
X797000Y710917D02*
Y713083D01*
X791417Y712130D02*
X793583D01*
X792500Y711047D02*
Y713213D01*
X786417Y712130D02*
X788583D01*
X787500Y711047D02*
Y713213D01*
X767000Y752417D02*
Y754583D01*
X765917Y753500D02*
X768083D01*
X767000Y756917D02*
Y759083D01*
X765917Y758000D02*
X768083D01*
X767000Y761417D02*
Y763583D01*
X765917Y762500D02*
X768083D01*
X794732Y804917D02*
Y807083D01*
X793650Y806000D02*
X795815D01*
X794500Y791417D02*
Y793583D01*
X793417Y792500D02*
X795583D01*
X791650Y799370D02*
X793815D01*
X792732Y798287D02*
Y800453D01*
X794732Y809417D02*
Y811583D01*
X793650Y810500D02*
X795815D01*
X792150Y816870D02*
X794315D01*
X793232Y815787D02*
Y817953D01*
X795232Y822417D02*
Y824583D01*
X794150Y823500D02*
X796315D01*
X1133303Y779516D02*
Y852744D01*
Y779516D02*
X1193146D01*
Y852744D01*
X1133303D02*
X1193146D01*
X1177476Y755335D02*
X1199524D01*
X1177476Y711634D02*
Y755335D01*
Y711634D02*
X1199524D01*
Y755335D01*
X1162917Y734232D02*
X1165083D01*
X1164000Y733150D02*
Y735315D01*
X1156000Y733917D02*
Y736083D01*
X1154917Y735000D02*
X1157083D01*
X1156000Y729417D02*
Y731583D01*
X1154917Y730500D02*
X1157083D01*
X1123917Y819000D02*
X1126083D01*
X1125000Y817917D02*
Y820083D01*
X1119917Y819000D02*
X1122083D01*
X1121000Y817917D02*
Y820083D01*
X1119917Y807500D02*
X1122083D01*
X1121000Y806417D02*
Y808583D01*
X1119917Y799500D02*
X1122083D01*
X1121000Y798417D02*
Y800583D01*
X1072476Y761335D02*
X1094524D01*
X1072476Y717634D02*
Y761335D01*
Y717634D02*
X1094524D01*
Y761335D01*
X1095370Y765917D02*
Y768083D01*
X1094287Y767000D02*
X1096453D01*
X1095000Y770917D02*
Y773083D01*
X1093917Y772000D02*
X1096083D01*
X978630Y795500D02*
X982370D01*
X980500Y793630D02*
Y797370D01*
X964130Y795500D02*
X967870D01*
X966000Y793630D02*
Y797370D01*
X950130Y795500D02*
X953870D01*
X952000Y793630D02*
Y797370D01*
X1080623Y604065D02*
Y652884D01*
Y604065D02*
X1112198D01*
Y652884D01*
X1080623D02*
X1112198D01*
X1041623Y604065D02*
Y652884D01*
Y604065D02*
X1073198D01*
Y652884D01*
X1041623D02*
X1073198D01*
X1004123Y603565D02*
Y652384D01*
Y603565D02*
X1035698D01*
Y652384D01*
X1004123D02*
X1035698D01*
X967213Y603610D02*
Y652429D01*
Y603610D02*
X998787D01*
Y652429D01*
X967213D02*
X998787D01*
X936917Y536000D02*
X939083D01*
X938000Y534917D02*
Y537083D01*
X1199024Y658634D02*
Y702335D01*
X1176976Y658634D02*
X1199024D01*
X1176976D02*
Y702335D01*
X1199024D01*
X765031Y775000D02*
X768968D01*
X767000Y773032D02*
Y776968D01*
X973500Y686417D02*
Y688583D01*
X972417Y687500D02*
X974583D01*
X978000Y686417D02*
Y688583D01*
X976917Y687500D02*
X979083D01*
X986484Y720610D02*
X990421D01*
X988453Y718642D02*
Y722579D01*
X981500Y752417D02*
Y754583D01*
X980417Y753500D02*
X982583D01*
X1020150Y733500D02*
X1022315D01*
X1021232Y732417D02*
Y734583D01*
X1001500Y686685D02*
Y688850D01*
X1000417Y687768D02*
X1002583D01*
X979516Y808500D02*
X981484D01*
X980500Y807516D02*
Y809484D01*
X965516Y808000D02*
X967484D01*
X966500Y807016D02*
Y808984D01*
X937417Y521500D02*
X939583D01*
X938500Y520417D02*
Y522583D01*
X777531Y528500D02*
X781468D01*
X779500Y526532D02*
Y530469D01*
X779000Y543417D02*
Y545583D01*
X777917Y544500D02*
X780083D01*
X818917Y563500D02*
X821083D01*
X820000Y562417D02*
Y564583D01*
X887917Y669500D02*
X890083D01*
X889000Y668417D02*
Y670583D01*
X875000Y657917D02*
Y660083D01*
X873917Y659000D02*
X876083D01*
X1011917Y535500D02*
X1014083D01*
X1013000Y534417D02*
Y536583D01*
X859500Y556032D02*
Y559969D01*
X857532Y558000D02*
X861469D01*
X834657Y516110D02*
Y549890D01*
X784657Y516110D02*
X834657D01*
X784657D02*
Y549890D01*
X834657D01*
D176*
X907532Y654760D02*
Y662240D01*
X911469Y654760D02*
Y662240D01*
X907532Y654760D02*
X911469D01*
X907532Y662240D02*
X911469D01*
X903531Y654760D02*
Y662240D01*
X907469Y654760D02*
Y662240D01*
X903531Y654760D02*
X907469D01*
X903531Y662240D02*
X907469D01*
X899531Y654760D02*
Y662240D01*
X903469Y654760D02*
Y662240D01*
X899531Y654760D02*
X903469D01*
X899531Y662240D02*
X903469D01*
X895531Y654760D02*
Y662240D01*
X899469Y654760D02*
Y662240D01*
X895531Y654760D02*
X899469D01*
X895531Y662240D02*
X899469D01*
X891531Y654760D02*
Y662240D01*
X895469Y654760D02*
Y662240D01*
X891531Y654760D02*
X895469D01*
X891531Y662240D02*
X895469D01*
X871366Y677165D02*
X879634D01*
X871366Y672835D02*
X879634D01*
X871366D02*
Y677165D01*
X879634Y672835D02*
Y677165D01*
X871366Y668335D02*
X879634D01*
X871366Y672665D02*
X879634D01*
Y668335D02*
Y672665D01*
X871366Y668335D02*
Y672665D01*
X831791Y640673D02*
X843209D01*
X831791Y662327D02*
X843209D01*
X831791Y640673D02*
Y662327D01*
X843209Y640673D02*
Y662327D01*
X843791Y662327D02*
X855209D01*
X843791Y640673D02*
X855209D01*
Y662327D01*
X843791Y640673D02*
Y662327D01*
X771760Y680532D02*
X779240D01*
X771760Y684469D02*
X779240D01*
Y680532D02*
Y684469D01*
X771760Y680532D02*
Y684469D01*
Y676532D02*
X779240D01*
X771760Y680469D02*
X779240D01*
Y676532D02*
Y680469D01*
X771760Y676532D02*
Y680469D01*
Y672532D02*
X779240D01*
X771760Y676469D02*
X779240D01*
Y672532D02*
Y676469D01*
X771760Y672532D02*
Y676469D01*
Y668532D02*
X779240D01*
X771760Y672469D02*
X779240D01*
Y668532D02*
Y672469D01*
X771760Y668532D02*
Y672469D01*
Y664532D02*
X779240D01*
X771760Y668469D02*
X779240D01*
Y664532D02*
Y668469D01*
X771760Y664532D02*
Y668469D01*
X763031Y659260D02*
Y666740D01*
X766968Y659260D02*
Y666740D01*
X763031Y659260D02*
X766968D01*
X763031Y666740D02*
X766968D01*
X758866Y655665D02*
X767134D01*
X758866Y651335D02*
X767134D01*
X758866D02*
Y655665D01*
X767134Y651335D02*
Y655665D01*
X758866Y646835D02*
X767134D01*
X758866Y651165D02*
X767134D01*
Y646835D02*
Y651165D01*
X758866Y646835D02*
Y651165D01*
X771260Y647532D02*
X778740D01*
X771260Y651469D02*
X778740D01*
Y647532D02*
Y651469D01*
X771260Y647532D02*
Y651469D01*
X785291Y612673D02*
X796709D01*
X785291Y634327D02*
X796709D01*
X785291Y612673D02*
Y634327D01*
X796709Y612673D02*
Y634327D01*
X798791Y612673D02*
X810209D01*
X798791Y634327D02*
X810209D01*
X798791Y612673D02*
Y634327D01*
X810209Y612673D02*
Y634327D01*
X812291Y634327D02*
X823709D01*
X812291Y612673D02*
X823709D01*
Y634327D01*
X812291Y612673D02*
Y634327D01*
X799532Y599028D02*
Y606508D01*
X803469Y599028D02*
Y606508D01*
X799532Y599028D02*
X803469D01*
X799532Y606508D02*
X803469D01*
X789866Y602835D02*
X798134D01*
X789866Y607165D02*
X798134D01*
Y602835D02*
Y607165D01*
X789866Y602835D02*
Y607165D01*
Y598335D02*
X798134D01*
X789866Y602665D02*
X798134D01*
Y598335D02*
Y602665D01*
X789866Y598335D02*
Y602665D01*
X790374Y567039D02*
Y596961D01*
X824626Y567039D02*
Y596961D01*
X790374D02*
X824626D01*
X790374Y567039D02*
X824626D01*
X787665Y574736D02*
Y583004D01*
X783335Y574736D02*
Y583004D01*
X787665D01*
X783335Y574736D02*
X787665D01*
X782969Y574992D02*
Y582472D01*
X779032Y574992D02*
Y582472D01*
X782969D01*
X779032Y574992D02*
X782969D01*
X780866Y568835D02*
X789134D01*
X780866Y573165D02*
X789134D01*
Y568835D02*
Y573165D01*
X780866Y568835D02*
Y573165D01*
X772366Y568835D02*
X780634D01*
X772366Y573165D02*
X780634D01*
Y568835D02*
Y573165D01*
X772366Y568835D02*
Y573165D01*
X780866Y566665D02*
X789134D01*
X780866Y562335D02*
X789134D01*
X780866D02*
Y566665D01*
X789134Y562335D02*
Y566665D01*
X772236D02*
X780504D01*
X772236Y562335D02*
X780504D01*
X772236D02*
Y566665D01*
X780504Y562335D02*
Y566665D01*
X791260Y563969D02*
X798740D01*
X791260Y560032D02*
X798740D01*
X791260D02*
Y563969D01*
X798740Y560032D02*
Y563969D01*
X873016Y559240D02*
Y601760D01*
Y559240D02*
X924984D01*
Y601760D01*
X873016D02*
X924984D01*
X866531Y573760D02*
Y581240D01*
X870469Y573760D02*
Y581240D01*
X866531Y573760D02*
X870469D01*
X866531Y581240D02*
X870469D01*
X949032Y538260D02*
Y545740D01*
X952969Y538260D02*
Y545740D01*
X949032Y538260D02*
X952969D01*
X949032Y545740D02*
X952969D01*
X936760Y559969D02*
X944240D01*
X936760Y556032D02*
X944240D01*
X936760D02*
Y559969D01*
X944240Y556032D02*
Y559969D01*
X931032Y540260D02*
Y547740D01*
X934968Y540260D02*
Y547740D01*
X931032Y540260D02*
X934968D01*
X931032Y547740D02*
X934968D01*
X918665Y521236D02*
Y529504D01*
X914335Y521236D02*
Y529504D01*
X918665D01*
X914335Y521236D02*
X918665D01*
X923335Y512366D02*
Y520634D01*
X927665Y512366D02*
Y520634D01*
X923335Y512366D02*
X927665D01*
X923335Y520634D02*
X927665D01*
X923165Y512366D02*
Y520634D01*
X918835Y512366D02*
Y520634D01*
X923165D01*
X918835Y512366D02*
X923165D01*
X918665D02*
Y520634D01*
X914335Y512366D02*
Y520634D01*
X918665D01*
X914335Y512366D02*
X918665D01*
X935665Y509866D02*
Y518134D01*
X931335Y509866D02*
Y518134D01*
X935665D01*
X931335Y509866D02*
X935665D01*
X953969Y505992D02*
Y513472D01*
X950031Y505992D02*
Y513472D01*
X953969D01*
X950031Y505992D02*
X953969D01*
X937366Y501165D02*
X945634D01*
X937366Y496835D02*
X945634D01*
X937366D02*
Y501165D01*
X945634Y496835D02*
Y501165D01*
X951173Y485291D02*
Y496709D01*
X972827Y485291D02*
Y496709D01*
X951173D02*
X972827D01*
X951173Y485291D02*
X972827D01*
X1011665Y485866D02*
Y494134D01*
X1007335Y485866D02*
Y494134D01*
X1011665D01*
X1007335Y485866D02*
X1011665D01*
X1005468Y486760D02*
Y494240D01*
X1001532Y486760D02*
Y494240D01*
X1005468D01*
X1001532Y486760D02*
X1005468D01*
X994835Y485996D02*
Y494264D01*
X999165Y485996D02*
Y494264D01*
X994835Y485996D02*
X999165D01*
X994835Y494264D02*
X999165D01*
X994665Y485866D02*
Y494134D01*
X990335Y485866D02*
Y494134D01*
X994665D01*
X990335Y485866D02*
X994665D01*
X996260Y538031D02*
X1003740D01*
X996260Y541968D02*
X1003740D01*
Y538031D02*
Y541968D01*
X996260Y538031D02*
Y541968D01*
X995866Y533335D02*
X1004134D01*
X995866Y537665D02*
X1004134D01*
Y533335D02*
Y537665D01*
X995866Y533335D02*
Y537665D01*
X1000260Y529032D02*
X1007740D01*
X1000260Y532969D02*
X1007740D01*
Y529032D02*
Y532969D01*
X1000260Y529032D02*
Y532969D01*
X1004335Y533496D02*
Y541764D01*
X1008665Y533496D02*
Y541764D01*
X1004335Y533496D02*
X1008665D01*
X1004335Y541764D02*
X1008665D01*
X1037665Y549866D02*
Y558134D01*
X1033335Y549866D02*
Y558134D01*
X1037665D01*
X1033335Y549866D02*
X1037665D01*
X1028866Y542835D02*
X1037134D01*
X1028866Y547165D02*
X1037134D01*
Y542835D02*
Y547165D01*
X1028866Y542835D02*
Y547165D01*
X1037665Y528366D02*
Y536634D01*
X1033335Y528366D02*
Y536634D01*
X1037665D01*
X1033335Y528366D02*
X1037665D01*
X1054685Y531953D02*
X1065315D01*
X1054685Y526047D02*
X1065315D01*
X1054685D02*
Y531953D01*
X1065315Y526047D02*
Y531953D01*
X1054685Y525953D02*
X1065315D01*
X1054685Y520047D02*
X1065315D01*
X1054685D02*
Y525953D01*
X1065315Y520047D02*
Y525953D01*
X1065158Y536194D02*
Y546824D01*
X1071064Y536194D02*
Y546824D01*
X1065158Y536194D02*
X1071064D01*
X1065158Y546824D02*
X1071064D01*
X1071158Y536194D02*
Y546824D01*
X1077064Y536194D02*
Y546824D01*
X1071158Y536194D02*
X1077064D01*
X1071158Y546824D02*
X1077064D01*
X1092665Y552866D02*
Y561134D01*
X1088335Y552866D02*
Y561134D01*
X1092665D01*
X1088335Y552866D02*
X1092665D01*
X1086685Y518453D02*
X1097315D01*
X1086685Y512547D02*
X1097315D01*
X1086685D02*
Y518453D01*
X1097315Y512547D02*
Y518453D01*
X1086685Y512453D02*
X1097315D01*
X1086685Y506547D02*
X1097315D01*
X1086685D02*
Y512453D01*
X1097315Y506547D02*
Y512453D01*
X1028531Y658992D02*
Y666472D01*
X1032469Y658992D02*
Y666472D01*
X1028531Y658992D02*
X1032469D01*
X1028531Y666472D02*
X1032469D01*
X1019866Y666665D02*
X1028134D01*
X1019866Y662335D02*
X1028134D01*
X1019866D02*
Y666665D01*
X1028134Y662335D02*
Y666665D01*
X1019866Y662165D02*
X1028134D01*
X1019866Y657835D02*
X1028134D01*
X1019866D02*
Y662165D01*
X1028134Y657835D02*
Y662165D01*
X958469Y727760D02*
Y735240D01*
X954531Y727760D02*
Y735240D01*
X958469D01*
X954531Y727760D02*
X958469D01*
X955031Y716492D02*
Y723972D01*
X958969Y716492D02*
Y723972D01*
X955031Y716492D02*
X958969D01*
X955031Y723972D02*
X958969D01*
X891760Y742469D02*
X899240D01*
X891760Y738531D02*
X899240D01*
X891760D02*
Y742469D01*
X899240Y738531D02*
Y742469D01*
X873850Y740350D02*
X889598D01*
X873850Y754130D02*
X889598D01*
Y740350D02*
Y754130D01*
X873850Y740350D02*
Y754130D01*
X863709Y714280D02*
X892291D01*
X863709Y736721D02*
X892291D01*
Y714280D02*
Y736721D01*
X863709Y714280D02*
Y736721D01*
X853866Y757165D02*
X862134D01*
X853866Y752835D02*
X862134D01*
X853866D02*
Y757165D01*
X862134Y752835D02*
Y757165D01*
X853866Y752165D02*
X862134D01*
X853866Y747835D02*
X862134D01*
X853866D02*
Y752165D01*
X862134Y747835D02*
Y752165D01*
X853736Y747165D02*
X862004D01*
X853736Y742835D02*
X862004D01*
X853736D02*
Y747165D01*
X862004Y742835D02*
Y747165D01*
X854260Y741968D02*
X861740D01*
X854260Y738031D02*
X861740D01*
X854260D02*
Y741968D01*
X861740Y738031D02*
Y741968D01*
X799165Y707866D02*
Y716134D01*
X794835Y707866D02*
Y716134D01*
X799165D01*
X794835Y707866D02*
X799165D01*
X790335Y707996D02*
Y716264D01*
X794665Y707996D02*
Y716264D01*
X790335Y707996D02*
X794665D01*
X790335Y716264D02*
X794665D01*
X785335Y707996D02*
Y716264D01*
X789665Y707996D02*
Y716264D01*
X785335Y707996D02*
X789665D01*
X785335Y716264D02*
X789665D01*
X763260Y755469D02*
X770740D01*
X763260Y751532D02*
X770740D01*
X763260D02*
Y755469D01*
X770740Y751532D02*
Y755469D01*
X763260Y759969D02*
X770740D01*
X763260Y756032D02*
X770740D01*
X763260D02*
Y759969D01*
X770740Y756032D02*
Y759969D01*
X763260Y764468D02*
X770740D01*
X763260Y760532D02*
X770740D01*
X763260D02*
Y764468D01*
X770740Y760532D02*
Y764468D01*
X790992Y807969D02*
X798472D01*
X790992Y804031D02*
X798472D01*
X790992D02*
Y807969D01*
X798472Y804031D02*
Y807969D01*
X790760Y794468D02*
X798240D01*
X790760Y790531D02*
X798240D01*
X790760D02*
Y794468D01*
X798240Y790531D02*
Y794468D01*
X790567Y795236D02*
Y803504D01*
X794898Y795236D02*
Y803504D01*
X790567Y795236D02*
X794898D01*
X790567Y803504D02*
X794898D01*
X790992Y812469D02*
X798472D01*
X790992Y808531D02*
X798472D01*
X790992D02*
Y812469D01*
X798472Y808531D02*
Y812469D01*
X791067Y812736D02*
Y821004D01*
X795398Y812736D02*
Y821004D01*
X791067Y812736D02*
X795398D01*
X791067Y821004D02*
X795398D01*
X791492Y825469D02*
X798972D01*
X791492Y821531D02*
X798972D01*
X791492D02*
Y825469D01*
X798972Y821531D02*
Y825469D01*
X1162031Y730492D02*
Y737972D01*
X1165969Y730492D02*
Y737972D01*
X1162031Y730492D02*
X1165969D01*
X1162031Y737972D02*
X1165969D01*
X1151866Y737165D02*
X1160134D01*
X1151866Y732835D02*
X1160134D01*
X1151866D02*
Y737165D01*
X1160134Y732835D02*
Y737165D01*
X1151866Y732665D02*
X1160134D01*
X1151866Y728335D02*
X1160134D01*
X1151866D02*
Y732665D01*
X1160134Y728335D02*
Y732665D01*
X1126968Y815260D02*
Y822740D01*
X1123032Y815260D02*
Y822740D01*
X1126968D01*
X1123032Y815260D02*
X1126968D01*
X1119032Y815260D02*
Y822740D01*
X1122968Y815260D02*
Y822740D01*
X1119032Y815260D02*
X1122968D01*
X1119032Y822740D02*
X1122968D01*
X1123165Y803366D02*
Y811634D01*
X1118835Y803366D02*
Y811634D01*
X1123165D01*
X1118835Y803366D02*
X1123165D01*
X1122968Y795760D02*
Y803240D01*
X1119032Y795760D02*
Y803240D01*
X1122968D01*
X1119032Y795760D02*
X1122968D01*
X1091236Y769165D02*
X1099504D01*
X1091236Y764835D02*
X1099504D01*
X1091236D02*
Y769165D01*
X1099504Y764835D02*
Y769165D01*
X1090866Y769835D02*
X1099134D01*
X1090866Y774165D02*
X1099134D01*
Y769835D02*
Y774165D01*
X1090866Y769835D02*
Y774165D01*
X976366Y788020D02*
Y802980D01*
X984634Y788020D02*
Y802980D01*
X976366Y788020D02*
X984634D01*
X976366Y802980D02*
X984634D01*
X961866Y788020D02*
Y802980D01*
X970134Y788020D02*
Y802980D01*
X961866Y788020D02*
X970134D01*
X961866Y802980D02*
X970134D01*
X947866Y788020D02*
Y802980D01*
X956134Y788020D02*
Y802980D01*
X947866Y788020D02*
X956134D01*
X947866Y802980D02*
X956134D01*
X941740Y534031D02*
Y537968D01*
X934260Y534031D02*
Y537968D01*
X941740D01*
X934260Y534031D02*
X941740D01*
X770543Y766378D02*
Y783622D01*
X763457Y766378D02*
X770543D01*
X763457Y783622D02*
X770543D01*
X763457Y766378D02*
Y783622D01*
X1018657Y669610D02*
Y683390D01*
X1038342D01*
Y669610D02*
Y683390D01*
X1018657Y669610D02*
X1038342D01*
X1039823Y688590D02*
Y745284D01*
X1059508D01*
Y688590D02*
Y745284D01*
X1039823Y688590D02*
X1059508D01*
X971531Y683760D02*
X975469D01*
X971531Y691240D02*
X975469D01*
X971531Y683760D02*
Y691240D01*
X975469Y683760D02*
Y691240D01*
X976031Y691240D02*
X979968D01*
X976031Y683760D02*
X979968D01*
Y691240D01*
X976031Y683760D02*
Y691240D01*
X960303Y692461D02*
Y748760D01*
X1016602Y692461D02*
Y748760D01*
X960303D02*
X1016602D01*
X960303Y692461D02*
X1016602D01*
X979335Y757634D02*
X983665D01*
X979335Y749366D02*
X983665D01*
Y757634D01*
X979335Y749366D02*
Y757634D01*
X1017492Y731531D02*
Y735468D01*
X1024972Y731531D02*
Y735468D01*
X1017492D02*
X1024972D01*
X1017492Y731531D02*
X1024972D01*
X999531Y691508D02*
X1003469D01*
X999531Y684028D02*
X1003469D01*
Y691508D01*
X999531Y684028D02*
Y691508D01*
X978531Y804071D02*
X982469D01*
X978531D02*
Y812929D01*
X982469D01*
Y804071D02*
Y812929D01*
X964532Y803571D02*
X968468D01*
Y812429D01*
X964532D02*
X968468D01*
X964532Y803571D02*
Y812429D01*
X934760Y519531D02*
Y523468D01*
X942240Y519531D02*
Y523468D01*
X934760Y519531D02*
X942240D01*
X934760Y523468D02*
X942240D01*
X783043Y519878D02*
Y537122D01*
X775957Y519878D02*
X783043D01*
X775957Y537122D02*
X783043D01*
X775957Y519878D02*
Y537122D01*
X776835Y548634D02*
X781165D01*
X776835Y540366D02*
X781165D01*
Y548634D01*
X776835Y540366D02*
Y548634D01*
X823740Y561531D02*
Y565469D01*
X816260Y561531D02*
Y565469D01*
Y561531D02*
X823740D01*
X816260Y565469D02*
X823740D01*
X892740Y667531D02*
Y671468D01*
X885260Y667531D02*
Y671468D01*
Y667531D02*
X892740D01*
X885260Y671468D02*
X892740D01*
X873032Y662740D02*
X876968D01*
X873032Y655260D02*
X876968D01*
Y662740D01*
X873032Y655260D02*
Y662740D01*
X1016740Y533532D02*
Y537468D01*
X1009260Y533532D02*
Y537468D01*
Y533532D02*
X1016740D01*
X1009260Y537468D02*
X1016740D01*
X848673Y552291D02*
X870327D01*
X848673Y563709D02*
X870327D01*
Y552291D02*
Y563709D01*
X848673Y552291D02*
Y563709D01*
X1099240Y521925D02*
Y550075D01*
X1081760Y521925D02*
X1099240D01*
X1081760D02*
Y550075D01*
X1099240D01*
X1151197Y740110D02*
Y753890D01*
X1170882D01*
Y740110D02*
Y753890D01*
X1151197Y740110D02*
X1170882D01*
M02*
