G04*
G04 #@! TF.GenerationSoftware,Altium Limited,Altium Designer,21.9.1 (22)*
G04*
G04 Layer_Color=32896*
%FSLAX25Y25*%
%MOIN*%
G70*
G04*
G04 #@! TF.SameCoordinates,CDD0097E-41E7-41F5-A71D-9F4D08275E7E*
G04*
G04*
G04 #@! TF.FilePolarity,Positive*
G04*
G01*
G75*
G36*
X937469Y528126D02*
X937539Y528119D01*
X937604Y528104D01*
X937666Y528086D01*
X937721Y528061D01*
X937775Y528039D01*
X937823Y528010D01*
X937866Y527984D01*
X937903Y527959D01*
X937939Y527930D01*
X937968Y527908D01*
X937990Y527886D01*
X938008Y527864D01*
X938023Y527849D01*
X938030Y527842D01*
X938034Y527839D01*
X938081Y527773D01*
X938121Y527697D01*
X938157Y527617D01*
X938190Y527533D01*
X938216Y527446D01*
X938237Y527358D01*
X938256Y527267D01*
X938270Y527183D01*
X938281Y527100D01*
X938288Y527023D01*
X938296Y526954D01*
X938299Y526896D01*
Y526845D01*
X938303Y526809D01*
Y526794D01*
Y526783D01*
Y526779D01*
Y526776D01*
X938299Y526659D01*
X938292Y526550D01*
X938281Y526448D01*
X938263Y526354D01*
X938245Y526270D01*
X938227Y526193D01*
X938205Y526124D01*
X938179Y526062D01*
X938157Y526011D01*
X938136Y525964D01*
X938117Y525928D01*
X938095Y525895D01*
X938081Y525869D01*
X938070Y525855D01*
X938063Y525844D01*
X938059Y525840D01*
X938012Y525789D01*
X937961Y525746D01*
X937910Y525709D01*
X937859Y525676D01*
X937804Y525647D01*
X937753Y525626D01*
X937702Y525607D01*
X937651Y525593D01*
X937608Y525582D01*
X937564Y525571D01*
X937528Y525564D01*
X937495Y525560D01*
X937466D01*
X937448Y525556D01*
X937429D01*
X937346Y525560D01*
X937269Y525574D01*
X937200Y525589D01*
X937138Y525611D01*
X937091Y525629D01*
X937054Y525647D01*
X937040Y525651D01*
X937029Y525658D01*
X937025Y525662D01*
X937022D01*
X936960Y525706D01*
X936902Y525757D01*
X936854Y525808D01*
X936814Y525858D01*
X936781Y525906D01*
X936760Y525942D01*
X936752Y525957D01*
X936745Y525968D01*
X936741Y525971D01*
Y525975D01*
X936705Y526051D01*
X936679Y526131D01*
X936661Y526204D01*
X936650Y526273D01*
X936639Y526332D01*
Y526354D01*
X936636Y526375D01*
Y526394D01*
Y526404D01*
Y526412D01*
Y526415D01*
X936639Y526481D01*
X936647Y526543D01*
X936658Y526605D01*
X936669Y526659D01*
X936687Y526710D01*
X936705Y526761D01*
X936723Y526805D01*
X936745Y526845D01*
X936767Y526881D01*
X936785Y526914D01*
X936803Y526939D01*
X936821Y526965D01*
X936832Y526983D01*
X936843Y526994D01*
X936851Y527001D01*
X936854Y527005D01*
X936894Y527045D01*
X936938Y527081D01*
X936985Y527111D01*
X937029Y527136D01*
X937073Y527162D01*
X937116Y527180D01*
X937200Y527205D01*
X937236Y527216D01*
X937273Y527223D01*
X937302Y527227D01*
X937331Y527231D01*
X937353Y527234D01*
X937382D01*
X937448Y527231D01*
X937509Y527220D01*
X937568Y527209D01*
X937619Y527194D01*
X937662Y527176D01*
X937695Y527165D01*
X937717Y527154D01*
X937721Y527151D01*
X937724D01*
X937782Y527114D01*
X937833Y527074D01*
X937881Y527034D01*
X937917Y526991D01*
X937950Y526954D01*
X937975Y526925D01*
X937990Y526903D01*
X937994Y526899D01*
Y526965D01*
X937990Y527031D01*
X937986Y527089D01*
X937979Y527147D01*
X937975Y527198D01*
X937968Y527245D01*
X937961Y527289D01*
X937950Y527329D01*
X937943Y527365D01*
X937935Y527394D01*
X937928Y527420D01*
X937924Y527442D01*
X937917Y527456D01*
X937914Y527467D01*
X937910Y527475D01*
Y527478D01*
X937873Y527551D01*
X937837Y527617D01*
X937797Y527668D01*
X937761Y527711D01*
X937728Y527748D01*
X937702Y527773D01*
X937684Y527788D01*
X937677Y527791D01*
X937633Y527820D01*
X937589Y527839D01*
X937546Y527853D01*
X937502Y527864D01*
X937469Y527871D01*
X937440Y527875D01*
X937415D01*
X937349Y527868D01*
X937287Y527853D01*
X937236Y527831D01*
X937189Y527809D01*
X937153Y527784D01*
X937127Y527762D01*
X937113Y527748D01*
X937105Y527740D01*
X937080Y527708D01*
X937054Y527668D01*
X937033Y527624D01*
X937018Y527580D01*
X937004Y527540D01*
X936993Y527507D01*
X936989Y527486D01*
X936985Y527482D01*
Y527478D01*
X936676Y527504D01*
X936698Y527606D01*
X936730Y527697D01*
X936767Y527777D01*
X936807Y527842D01*
X936847Y527893D01*
X936862Y527915D01*
X936880Y527933D01*
X936891Y527944D01*
X936902Y527955D01*
X936905Y527959D01*
X936909Y527962D01*
X936945Y527991D01*
X936985Y528017D01*
X937065Y528061D01*
X937145Y528090D01*
X937222Y528108D01*
X937291Y528123D01*
X937320Y528126D01*
X937346D01*
X937368Y528130D01*
X937397D01*
X937469Y528126D01*
D02*
G37*
G36*
X935602D02*
X935660Y528119D01*
X935719Y528108D01*
X935769Y528093D01*
X935868Y528053D01*
X935911Y528035D01*
X935948Y528013D01*
X935984Y527988D01*
X936013Y527970D01*
X936042Y527948D01*
X936064Y527930D01*
X936083Y527915D01*
X936094Y527904D01*
X936101Y527897D01*
X936104Y527893D01*
X936144Y527849D01*
X936177Y527799D01*
X936210Y527751D01*
X936235Y527700D01*
X936257Y527646D01*
X936275Y527595D01*
X936301Y527500D01*
X936312Y527453D01*
X936319Y527413D01*
X936323Y527373D01*
X936326Y527340D01*
X936330Y527314D01*
Y527296D01*
Y527282D01*
Y527278D01*
X936326Y527209D01*
X936319Y527147D01*
X936312Y527085D01*
X936297Y527027D01*
X936279Y526976D01*
X936261Y526925D01*
X936243Y526881D01*
X936221Y526841D01*
X936203Y526805D01*
X936185Y526772D01*
X936166Y526747D01*
X936148Y526721D01*
X936133Y526703D01*
X936126Y526692D01*
X936119Y526685D01*
X936115Y526681D01*
X936075Y526641D01*
X936032Y526608D01*
X935988Y526576D01*
X935941Y526550D01*
X935897Y526528D01*
X935853Y526510D01*
X935769Y526484D01*
X935733Y526474D01*
X935697Y526466D01*
X935668Y526463D01*
X935639Y526459D01*
X935617Y526455D01*
X935588D01*
X935518Y526459D01*
X935453Y526470D01*
X935395Y526484D01*
X935340Y526503D01*
X935300Y526517D01*
X935267Y526532D01*
X935245Y526543D01*
X935238Y526546D01*
X935180Y526583D01*
X935129Y526623D01*
X935085Y526663D01*
X935049Y526699D01*
X935023Y526736D01*
X935001Y526761D01*
X934987Y526779D01*
X934983Y526787D01*
Y526757D01*
Y526739D01*
Y526728D01*
Y526725D01*
X934987Y526652D01*
X934991Y526583D01*
X934998Y526521D01*
X935005Y526463D01*
X935016Y526415D01*
X935023Y526379D01*
X935027Y526364D01*
Y526354D01*
X935031Y526350D01*
Y526346D01*
X935049Y526281D01*
X935067Y526222D01*
X935085Y526171D01*
X935103Y526128D01*
X935118Y526095D01*
X935133Y526070D01*
X935140Y526051D01*
X935143Y526048D01*
X935173Y526008D01*
X935202Y525975D01*
X935231Y525946D01*
X935260Y525920D01*
X935282Y525899D01*
X935304Y525884D01*
X935318Y525877D01*
X935322Y525873D01*
X935362Y525851D01*
X935406Y525837D01*
X935446Y525826D01*
X935486Y525818D01*
X935518Y525815D01*
X935544Y525811D01*
X935569D01*
X935628Y525815D01*
X935682Y525826D01*
X935730Y525840D01*
X935769Y525858D01*
X935799Y525873D01*
X935824Y525888D01*
X935839Y525899D01*
X935842Y525902D01*
X935879Y525942D01*
X935908Y525989D01*
X935933Y526040D01*
X935952Y526091D01*
X935966Y526135D01*
X935977Y526175D01*
X935981Y526190D01*
Y526197D01*
X935984Y526204D01*
Y526208D01*
X936283Y526182D01*
X936261Y526077D01*
X936232Y525986D01*
X936195Y525906D01*
X936159Y525840D01*
X936123Y525789D01*
X936104Y525767D01*
X936090Y525749D01*
X936079Y525738D01*
X936068Y525727D01*
X936064Y525724D01*
X936061Y525720D01*
X936024Y525691D01*
X935984Y525666D01*
X935904Y525626D01*
X935824Y525596D01*
X935748Y525578D01*
X935678Y525564D01*
X935649Y525560D01*
X935624D01*
X935606Y525556D01*
X935577D01*
X935475Y525564D01*
X935384Y525578D01*
X935300Y525604D01*
X935231Y525633D01*
X935202Y525644D01*
X935173Y525658D01*
X935151Y525673D01*
X935129Y525684D01*
X935114Y525691D01*
X935103Y525698D01*
X935096Y525706D01*
X935093D01*
X935020Y525767D01*
X934954Y525837D01*
X934903Y525909D01*
X934859Y525979D01*
X934823Y526040D01*
X934809Y526070D01*
X934798Y526091D01*
X934790Y526113D01*
X934783Y526128D01*
X934779Y526135D01*
Y526139D01*
X934761Y526193D01*
X934743Y526255D01*
X934718Y526379D01*
X934699Y526510D01*
X934688Y526634D01*
X934681Y526688D01*
X934678Y526743D01*
Y526790D01*
X934674Y526830D01*
Y526863D01*
Y526889D01*
Y526907D01*
Y526910D01*
Y526994D01*
X934678Y527074D01*
X934685Y527147D01*
X934692Y527216D01*
X934699Y527278D01*
X934707Y527336D01*
X934718Y527391D01*
X934729Y527438D01*
X934739Y527478D01*
X934747Y527515D01*
X934758Y527547D01*
X934765Y527573D01*
X934772Y527591D01*
X934779Y527606D01*
X934783Y527613D01*
Y527617D01*
X934827Y527704D01*
X934874Y527780D01*
X934929Y527846D01*
X934976Y527901D01*
X935023Y527941D01*
X935060Y527970D01*
X935074Y527981D01*
X935085Y527988D01*
X935089Y527995D01*
X935093D01*
X935169Y528039D01*
X935245Y528072D01*
X935322Y528097D01*
X935391Y528112D01*
X935453Y528123D01*
X935478Y528126D01*
X935497D01*
X935515Y528130D01*
X935540D01*
X935602Y528126D01*
D02*
G37*
G36*
X939734Y528155D02*
X939850Y528137D01*
X939952Y528115D01*
X939999Y528101D01*
X940043Y528086D01*
X940083Y528072D01*
X940119Y528057D01*
X940148Y528046D01*
X940178Y528035D01*
X940196Y528024D01*
X940210Y528017D01*
X940221Y528013D01*
X940225Y528010D01*
X940323Y527948D01*
X940407Y527875D01*
X940480Y527802D01*
X940542Y527729D01*
X940589Y527664D01*
X940607Y527635D01*
X940622Y527609D01*
X940636Y527591D01*
X940644Y527576D01*
X940647Y527566D01*
X940651Y527562D01*
X940702Y527449D01*
X940738Y527333D01*
X940764Y527216D01*
X940782Y527111D01*
X940789Y527063D01*
X940793Y527016D01*
X940796Y526980D01*
Y526943D01*
X940800Y526918D01*
Y526896D01*
Y526881D01*
Y526878D01*
X940793Y526747D01*
X940778Y526619D01*
X940760Y526506D01*
X940745Y526452D01*
X940734Y526404D01*
X940724Y526361D01*
X940709Y526321D01*
X940698Y526284D01*
X940691Y526255D01*
X940680Y526233D01*
X940676Y526215D01*
X940669Y526204D01*
Y526201D01*
X940614Y526091D01*
X940553Y525993D01*
X940487Y525909D01*
X940454Y525877D01*
X940425Y525844D01*
X940396Y525815D01*
X940367Y525789D01*
X940341Y525767D01*
X940320Y525753D01*
X940305Y525738D01*
X940290Y525727D01*
X940283Y525724D01*
X940279Y525720D01*
X940228Y525691D01*
X940178Y525666D01*
X940068Y525626D01*
X939959Y525596D01*
X939854Y525578D01*
X939803Y525571D01*
X939759Y525564D01*
X939719Y525560D01*
X939686D01*
X939657Y525556D01*
X939617D01*
X939544Y525560D01*
X939475Y525567D01*
X939410Y525574D01*
X939348Y525589D01*
X939289Y525607D01*
X939235Y525626D01*
X939184Y525644D01*
X939137Y525666D01*
X939097Y525684D01*
X939056Y525702D01*
X939027Y525720D01*
X938998Y525738D01*
X938980Y525753D01*
X938962Y525760D01*
X938955Y525767D01*
X938951Y525771D01*
X938900Y525815D01*
X938856Y525858D01*
X938816Y525909D01*
X938776Y525960D01*
X938711Y526062D01*
X938660Y526164D01*
X938638Y526212D01*
X938620Y526255D01*
X938605Y526295D01*
X938594Y526328D01*
X938583Y526357D01*
X938576Y526379D01*
X938572Y526394D01*
Y526397D01*
X938907Y526481D01*
X938922Y526423D01*
X938940Y526368D01*
X938958Y526317D01*
X938976Y526270D01*
X938998Y526226D01*
X939020Y526190D01*
X939046Y526153D01*
X939067Y526121D01*
X939086Y526091D01*
X939107Y526070D01*
X939126Y526048D01*
X939140Y526029D01*
X939155Y526019D01*
X939166Y526008D01*
X939169Y526004D01*
X939173Y526000D01*
X939209Y525971D01*
X939249Y525949D01*
X939329Y525909D01*
X939406Y525880D01*
X939482Y525862D01*
X939548Y525847D01*
X939573Y525844D01*
X939599D01*
X939621Y525840D01*
X939646D01*
X939730Y525844D01*
X939810Y525858D01*
X939883Y525877D01*
X939948Y525899D01*
X939999Y525920D01*
X940021Y525931D01*
X940039Y525939D01*
X940054Y525946D01*
X940065Y525953D01*
X940072Y525957D01*
X940076D01*
X940145Y526008D01*
X940203Y526062D01*
X940254Y526124D01*
X940294Y526182D01*
X940327Y526233D01*
X940349Y526277D01*
X940356Y526295D01*
X940363Y526306D01*
X940367Y526313D01*
Y526317D01*
X940396Y526412D01*
X940418Y526506D01*
X940436Y526601D01*
X940447Y526688D01*
X940451Y526728D01*
X940454Y526765D01*
Y526798D01*
X940458Y526823D01*
Y526845D01*
Y526863D01*
Y526874D01*
Y526878D01*
X940454Y526972D01*
X940447Y527060D01*
X940432Y527140D01*
X940418Y527212D01*
X940407Y527274D01*
X940400Y527300D01*
X940392Y527322D01*
X940389Y527340D01*
X940385Y527351D01*
X940381Y527358D01*
Y527362D01*
X940345Y527446D01*
X940305Y527522D01*
X940261Y527584D01*
X940214Y527638D01*
X940174Y527682D01*
X940141Y527711D01*
X940116Y527729D01*
X940112Y527737D01*
X940108D01*
X940032Y527784D01*
X939948Y527820D01*
X939868Y527846D01*
X939792Y527860D01*
X939723Y527871D01*
X939693Y527875D01*
X939668D01*
X939650Y527879D01*
X939621D01*
X939530Y527875D01*
X939446Y527860D01*
X939377Y527839D01*
X939315Y527817D01*
X939268Y527791D01*
X939231Y527773D01*
X939209Y527759D01*
X939202Y527751D01*
X939144Y527697D01*
X939089Y527635D01*
X939046Y527569D01*
X939009Y527504D01*
X938980Y527446D01*
X938969Y527416D01*
X938962Y527394D01*
X938955Y527376D01*
X938947Y527362D01*
X938944Y527354D01*
Y527351D01*
X938616Y527427D01*
X938638Y527493D01*
X938660Y527551D01*
X938689Y527606D01*
X938714Y527660D01*
X938743Y527708D01*
X938776Y527751D01*
X938805Y527795D01*
X938834Y527831D01*
X938863Y527860D01*
X938889Y527890D01*
X938914Y527915D01*
X938933Y527933D01*
X938951Y527951D01*
X938965Y527962D01*
X938973Y527966D01*
X938976Y527970D01*
X939027Y528002D01*
X939078Y528035D01*
X939129Y528061D01*
X939184Y528083D01*
X939293Y528115D01*
X939391Y528137D01*
X939439Y528148D01*
X939479Y528152D01*
X939519Y528155D01*
X939552Y528159D01*
X939577Y528163D01*
X939613D01*
X939734Y528155D01*
D02*
G37*
G36*
X936969Y542626D02*
X937039Y542619D01*
X937104Y542604D01*
X937166Y542586D01*
X937221Y542561D01*
X937275Y542539D01*
X937323Y542510D01*
X937366Y542484D01*
X937403Y542459D01*
X937439Y542430D01*
X937468Y542408D01*
X937490Y542386D01*
X937508Y542364D01*
X937523Y542349D01*
X937530Y542342D01*
X937534Y542339D01*
X937581Y542273D01*
X937621Y542197D01*
X937657Y542117D01*
X937690Y542033D01*
X937716Y541946D01*
X937737Y541858D01*
X937756Y541767D01*
X937770Y541683D01*
X937781Y541600D01*
X937788Y541523D01*
X937796Y541454D01*
X937799Y541396D01*
Y541345D01*
X937803Y541308D01*
Y541294D01*
Y541283D01*
Y541279D01*
Y541276D01*
X937799Y541159D01*
X937792Y541050D01*
X937781Y540948D01*
X937763Y540854D01*
X937745Y540770D01*
X937726Y540693D01*
X937705Y540624D01*
X937679Y540562D01*
X937657Y540511D01*
X937636Y540464D01*
X937617Y540428D01*
X937595Y540395D01*
X937581Y540369D01*
X937570Y540355D01*
X937563Y540344D01*
X937559Y540340D01*
X937512Y540289D01*
X937461Y540246D01*
X937410Y540209D01*
X937359Y540176D01*
X937304Y540147D01*
X937253Y540126D01*
X937202Y540107D01*
X937151Y540093D01*
X937108Y540082D01*
X937064Y540071D01*
X937028Y540064D01*
X936995Y540060D01*
X936966D01*
X936948Y540056D01*
X936929D01*
X936846Y540060D01*
X936769Y540074D01*
X936700Y540089D01*
X936638Y540111D01*
X936591Y540129D01*
X936554Y540147D01*
X936540Y540151D01*
X936529Y540158D01*
X936525Y540162D01*
X936522D01*
X936460Y540206D01*
X936402Y540257D01*
X936354Y540308D01*
X936314Y540358D01*
X936281Y540406D01*
X936260Y540442D01*
X936252Y540457D01*
X936245Y540468D01*
X936241Y540471D01*
Y540475D01*
X936205Y540551D01*
X936180Y540631D01*
X936161Y540704D01*
X936150Y540773D01*
X936139Y540832D01*
Y540854D01*
X936136Y540875D01*
Y540894D01*
Y540904D01*
Y540912D01*
Y540915D01*
X936139Y540981D01*
X936147Y541043D01*
X936158Y541105D01*
X936169Y541159D01*
X936187Y541210D01*
X936205Y541261D01*
X936223Y541305D01*
X936245Y541345D01*
X936267Y541381D01*
X936285Y541414D01*
X936303Y541439D01*
X936322Y541465D01*
X936332Y541483D01*
X936343Y541494D01*
X936351Y541501D01*
X936354Y541505D01*
X936394Y541545D01*
X936438Y541581D01*
X936485Y541611D01*
X936529Y541636D01*
X936573Y541662D01*
X936616Y541680D01*
X936700Y541705D01*
X936736Y541716D01*
X936773Y541723D01*
X936802Y541727D01*
X936831Y541731D01*
X936853Y541734D01*
X936882D01*
X936948Y541731D01*
X937009Y541720D01*
X937068Y541709D01*
X937119Y541694D01*
X937162Y541676D01*
X937195Y541665D01*
X937217Y541654D01*
X937221Y541651D01*
X937224D01*
X937282Y541614D01*
X937333Y541574D01*
X937381Y541534D01*
X937417Y541491D01*
X937450Y541454D01*
X937475Y541425D01*
X937490Y541403D01*
X937494Y541399D01*
Y541465D01*
X937490Y541531D01*
X937486Y541589D01*
X937479Y541647D01*
X937475Y541698D01*
X937468Y541745D01*
X937461Y541789D01*
X937450Y541829D01*
X937443Y541865D01*
X937435Y541894D01*
X937428Y541920D01*
X937424Y541942D01*
X937417Y541956D01*
X937414Y541967D01*
X937410Y541975D01*
Y541978D01*
X937373Y542051D01*
X937337Y542117D01*
X937297Y542168D01*
X937261Y542211D01*
X937228Y542248D01*
X937202Y542273D01*
X937184Y542288D01*
X937177Y542291D01*
X937133Y542320D01*
X937090Y542339D01*
X937046Y542353D01*
X937002Y542364D01*
X936969Y542371D01*
X936940Y542375D01*
X936915D01*
X936849Y542368D01*
X936787Y542353D01*
X936736Y542331D01*
X936689Y542310D01*
X936653Y542284D01*
X936627Y542262D01*
X936613Y542248D01*
X936605Y542240D01*
X936580Y542208D01*
X936554Y542168D01*
X936533Y542124D01*
X936518Y542080D01*
X936504Y542040D01*
X936493Y542007D01*
X936489Y541986D01*
X936485Y541982D01*
Y541978D01*
X936176Y542004D01*
X936198Y542106D01*
X936230Y542197D01*
X936267Y542277D01*
X936307Y542342D01*
X936347Y542393D01*
X936362Y542415D01*
X936380Y542433D01*
X936391Y542444D01*
X936402Y542455D01*
X936405Y542459D01*
X936409Y542462D01*
X936445Y542491D01*
X936485Y542517D01*
X936565Y542561D01*
X936645Y542590D01*
X936722Y542608D01*
X936791Y542623D01*
X936820Y542626D01*
X936846D01*
X936868Y542630D01*
X936897D01*
X936969Y542626D01*
D02*
G37*
G36*
X939233Y542655D02*
X939350Y542637D01*
X939452Y542615D01*
X939499Y542601D01*
X939543Y542586D01*
X939583Y542572D01*
X939619Y542557D01*
X939648Y542546D01*
X939678Y542535D01*
X939696Y542524D01*
X939710Y542517D01*
X939721Y542513D01*
X939725Y542510D01*
X939823Y542448D01*
X939907Y542375D01*
X939980Y542302D01*
X940042Y542229D01*
X940089Y542164D01*
X940107Y542135D01*
X940122Y542109D01*
X940136Y542091D01*
X940143Y542076D01*
X940147Y542066D01*
X940151Y542062D01*
X940202Y541949D01*
X940238Y541833D01*
X940264Y541716D01*
X940282Y541611D01*
X940289Y541563D01*
X940293Y541516D01*
X940296Y541480D01*
Y541443D01*
X940300Y541418D01*
Y541396D01*
Y541381D01*
Y541378D01*
X940293Y541247D01*
X940278Y541119D01*
X940260Y541006D01*
X940245Y540952D01*
X940234Y540904D01*
X940224Y540861D01*
X940209Y540821D01*
X940198Y540784D01*
X940191Y540755D01*
X940180Y540733D01*
X940176Y540715D01*
X940169Y540704D01*
Y540701D01*
X940114Y540591D01*
X940053Y540493D01*
X939987Y540409D01*
X939954Y540377D01*
X939925Y540344D01*
X939896Y540315D01*
X939867Y540289D01*
X939841Y540267D01*
X939820Y540253D01*
X939805Y540238D01*
X939790Y540227D01*
X939783Y540224D01*
X939779Y540220D01*
X939729Y540191D01*
X939678Y540166D01*
X939568Y540126D01*
X939459Y540096D01*
X939354Y540078D01*
X939303Y540071D01*
X939259Y540064D01*
X939219Y540060D01*
X939186D01*
X939157Y540056D01*
X939117D01*
X939044Y540060D01*
X938975Y540067D01*
X938910Y540074D01*
X938848Y540089D01*
X938789Y540107D01*
X938735Y540126D01*
X938684Y540144D01*
X938636Y540166D01*
X938597Y540184D01*
X938556Y540202D01*
X938527Y540220D01*
X938498Y540238D01*
X938480Y540253D01*
X938462Y540260D01*
X938455Y540267D01*
X938451Y540271D01*
X938400Y540315D01*
X938356Y540358D01*
X938316Y540409D01*
X938276Y540460D01*
X938211Y540562D01*
X938160Y540664D01*
X938138Y540711D01*
X938120Y540755D01*
X938105Y540795D01*
X938094Y540828D01*
X938083Y540857D01*
X938076Y540879D01*
X938072Y540894D01*
Y540897D01*
X938407Y540981D01*
X938422Y540923D01*
X938440Y540868D01*
X938458Y540817D01*
X938476Y540770D01*
X938498Y540726D01*
X938520Y540690D01*
X938546Y540653D01*
X938567Y540621D01*
X938586Y540591D01*
X938607Y540570D01*
X938626Y540548D01*
X938640Y540529D01*
X938655Y540519D01*
X938666Y540508D01*
X938669Y540504D01*
X938673Y540500D01*
X938709Y540471D01*
X938749Y540449D01*
X938829Y540409D01*
X938906Y540380D01*
X938982Y540362D01*
X939048Y540347D01*
X939073Y540344D01*
X939099D01*
X939121Y540340D01*
X939146D01*
X939230Y540344D01*
X939310Y540358D01*
X939383Y540377D01*
X939448Y540399D01*
X939499Y540420D01*
X939521Y540431D01*
X939539Y540439D01*
X939554Y540446D01*
X939565Y540453D01*
X939572Y540457D01*
X939576D01*
X939645Y540508D01*
X939703Y540562D01*
X939754Y540624D01*
X939794Y540682D01*
X939827Y540733D01*
X939849Y540777D01*
X939856Y540795D01*
X939863Y540806D01*
X939867Y540813D01*
Y540817D01*
X939896Y540912D01*
X939918Y541006D01*
X939936Y541101D01*
X939947Y541188D01*
X939951Y541228D01*
X939954Y541265D01*
Y541298D01*
X939958Y541323D01*
Y541345D01*
Y541363D01*
Y541374D01*
Y541378D01*
X939954Y541472D01*
X939947Y541560D01*
X939932Y541640D01*
X939918Y541713D01*
X939907Y541774D01*
X939900Y541800D01*
X939892Y541822D01*
X939889Y541840D01*
X939885Y541851D01*
X939881Y541858D01*
Y541862D01*
X939845Y541946D01*
X939805Y542022D01*
X939761Y542084D01*
X939714Y542138D01*
X939674Y542182D01*
X939641Y542211D01*
X939616Y542229D01*
X939612Y542237D01*
X939608D01*
X939532Y542284D01*
X939448Y542320D01*
X939368Y542346D01*
X939292Y542360D01*
X939223Y542371D01*
X939193Y542375D01*
X939168D01*
X939150Y542379D01*
X939121D01*
X939030Y542375D01*
X938946Y542360D01*
X938877Y542339D01*
X938815Y542317D01*
X938768Y542291D01*
X938731Y542273D01*
X938709Y542259D01*
X938702Y542251D01*
X938644Y542197D01*
X938589Y542135D01*
X938546Y542069D01*
X938509Y542004D01*
X938480Y541946D01*
X938469Y541916D01*
X938462Y541894D01*
X938455Y541876D01*
X938447Y541862D01*
X938444Y541854D01*
Y541851D01*
X938116Y541927D01*
X938138Y541993D01*
X938160Y542051D01*
X938189Y542106D01*
X938214Y542160D01*
X938243Y542208D01*
X938276Y542251D01*
X938305Y542295D01*
X938334Y542331D01*
X938363Y542360D01*
X938389Y542390D01*
X938414Y542415D01*
X938433Y542433D01*
X938451Y542451D01*
X938465Y542462D01*
X938473Y542466D01*
X938476Y542470D01*
X938527Y542502D01*
X938578Y542535D01*
X938629Y542561D01*
X938684Y542583D01*
X938793Y542615D01*
X938891Y542637D01*
X938939Y542648D01*
X938979Y542652D01*
X939019Y542655D01*
X939052Y542659D01*
X939077Y542663D01*
X939113D01*
X939233Y542655D01*
D02*
G37*
G36*
X935936Y540988D02*
Y540704D01*
X934840D01*
Y540100D01*
X934531D01*
Y540704D01*
X934188D01*
Y540988D01*
X934531D01*
Y542619D01*
X934782D01*
X935936Y540988D01*
D02*
G37*
%LPC*%
G36*
X937466Y526961D02*
X937444D01*
X937368Y526954D01*
X937298Y526936D01*
X937240Y526914D01*
X937189Y526885D01*
X937149Y526856D01*
X937120Y526834D01*
X937102Y526816D01*
X937094Y526809D01*
X937047Y526747D01*
X937011Y526681D01*
X936985Y526612D01*
X936971Y526546D01*
X936960Y526488D01*
X936956Y526463D01*
Y526441D01*
X936952Y526423D01*
Y526408D01*
Y526401D01*
Y526397D01*
X936960Y526299D01*
X936974Y526215D01*
X936996Y526142D01*
X937022Y526081D01*
X937051Y526033D01*
X937073Y525997D01*
X937087Y525975D01*
X937094Y525971D01*
Y525968D01*
X937120Y525939D01*
X937149Y525917D01*
X937207Y525877D01*
X937266Y525851D01*
X937317Y525829D01*
X937364Y525818D01*
X937400Y525815D01*
X937415Y525811D01*
X937433D01*
X937484Y525815D01*
X937531Y525822D01*
X937575Y525837D01*
X937611Y525851D01*
X937644Y525862D01*
X937670Y525877D01*
X937684Y525884D01*
X937691Y525888D01*
X937735Y525920D01*
X937772Y525953D01*
X937804Y525993D01*
X937830Y526026D01*
X937852Y526059D01*
X937866Y526084D01*
X937877Y526102D01*
X937881Y526110D01*
X937903Y526164D01*
X937917Y526219D01*
X937932Y526270D01*
X937939Y526317D01*
X937943Y526357D01*
X937946Y526390D01*
Y526408D01*
Y526415D01*
X937939Y526503D01*
X937924Y526579D01*
X937899Y526648D01*
X937873Y526703D01*
X937848Y526750D01*
X937823Y526783D01*
X937808Y526801D01*
X937801Y526809D01*
X937742Y526859D01*
X937684Y526896D01*
X937622Y526925D01*
X937568Y526943D01*
X937517Y526954D01*
X937480Y526958D01*
X937466Y526961D01*
D02*
G37*
G36*
X935522Y527875D02*
X935464D01*
X935427Y527868D01*
X935362Y527849D01*
X935304Y527824D01*
X935253Y527799D01*
X935213Y527769D01*
X935184Y527744D01*
X935165Y527726D01*
X935158Y527722D01*
Y527718D01*
X935111Y527657D01*
X935074Y527587D01*
X935049Y527515D01*
X935034Y527446D01*
X935023Y527387D01*
X935020Y527362D01*
Y527336D01*
X935016Y527318D01*
Y527304D01*
Y527296D01*
Y527293D01*
X935023Y527198D01*
X935038Y527114D01*
X935060Y527045D01*
X935085Y526987D01*
X935114Y526939D01*
X935136Y526907D01*
X935151Y526885D01*
X935158Y526878D01*
X935213Y526827D01*
X935271Y526790D01*
X935329Y526765D01*
X935387Y526747D01*
X935435Y526736D01*
X935475Y526732D01*
X935489Y526728D01*
X935511D01*
X935588Y526736D01*
X935657Y526750D01*
X935719Y526776D01*
X935773Y526805D01*
X935813Y526830D01*
X935846Y526856D01*
X935864Y526870D01*
X935871Y526878D01*
X935919Y526936D01*
X935955Y527001D01*
X935977Y527067D01*
X935995Y527129D01*
X936006Y527183D01*
X936010Y527205D01*
Y527227D01*
X936013Y527245D01*
Y527256D01*
Y527263D01*
Y527267D01*
X936006Y527362D01*
X935992Y527449D01*
X935966Y527526D01*
X935937Y527587D01*
X935911Y527638D01*
X935886Y527675D01*
X935879Y527686D01*
X935871Y527697D01*
X935864Y527700D01*
Y527704D01*
X935835Y527733D01*
X935806Y527762D01*
X935744Y527802D01*
X935682Y527835D01*
X935624Y527853D01*
X935577Y527868D01*
X935537Y527871D01*
X935522Y527875D01*
D02*
G37*
G36*
X936966Y541461D02*
X936944D01*
X936868Y541454D01*
X936798Y541436D01*
X936740Y541414D01*
X936689Y541385D01*
X936649Y541356D01*
X936620Y541334D01*
X936602Y541316D01*
X936594Y541308D01*
X936547Y541247D01*
X936511Y541181D01*
X936485Y541112D01*
X936471Y541046D01*
X936460Y540988D01*
X936456Y540963D01*
Y540941D01*
X936452Y540923D01*
Y540908D01*
Y540901D01*
Y540897D01*
X936460Y540799D01*
X936474Y540715D01*
X936496Y540642D01*
X936522Y540581D01*
X936551Y540533D01*
X936573Y540497D01*
X936587Y540475D01*
X936594Y540471D01*
Y540468D01*
X936620Y540439D01*
X936649Y540417D01*
X936707Y540377D01*
X936766Y540351D01*
X936817Y540329D01*
X936864Y540318D01*
X936900Y540315D01*
X936915Y540311D01*
X936933D01*
X936984Y540315D01*
X937031Y540322D01*
X937075Y540337D01*
X937111Y540351D01*
X937144Y540362D01*
X937170Y540377D01*
X937184Y540384D01*
X937191Y540388D01*
X937235Y540420D01*
X937271Y540453D01*
X937304Y540493D01*
X937330Y540526D01*
X937352Y540559D01*
X937366Y540584D01*
X937377Y540602D01*
X937381Y540610D01*
X937403Y540664D01*
X937417Y540719D01*
X937432Y540770D01*
X937439Y540817D01*
X937443Y540857D01*
X937446Y540890D01*
Y540908D01*
Y540915D01*
X937439Y541003D01*
X937424Y541079D01*
X937399Y541148D01*
X937373Y541203D01*
X937348Y541250D01*
X937323Y541283D01*
X937308Y541301D01*
X937301Y541308D01*
X937242Y541359D01*
X937184Y541396D01*
X937122Y541425D01*
X937068Y541443D01*
X937017Y541454D01*
X936980Y541458D01*
X936966Y541461D01*
D02*
G37*
G36*
X934840Y542117D02*
Y540988D01*
X935633D01*
X934840Y542117D01*
D02*
G37*
%LPD*%
M02*
