G04*
G04 #@! TF.GenerationSoftware,Altium Limited,Altium Designer,21.9.1 (22)*
G04*
G04 Layer_Color=32768*
%FSLAX25Y25*%
%MOIN*%
G70*
G04*
G04 #@! TF.SameCoordinates,CDD0097E-41E7-41F5-A71D-9F4D08275E7E*
G04*
G04*
G04 #@! TF.FilePolarity,Positive*
G04*
G01*
G75*
%ADD11C,0.00394*%
%ADD178C,0.00300*%
D11*
X921240Y707500D02*
G03*
X921240Y707500I-3740J0D01*
G01*
X920453D02*
G03*
X920453Y707500I-2953J0D01*
G01*
X921240Y718500D02*
G03*
X921240Y718500I-3740J0D01*
G01*
X920453D02*
G03*
X920453Y718500I-2953J0D01*
G01*
X1013240Y768000D02*
G03*
X1013240Y768000I-3740J0D01*
G01*
X1012453D02*
G03*
X1012453Y768000I-2953J0D01*
G01*
X1013240Y778500D02*
G03*
X1013240Y778500I-3740J0D01*
G01*
X1012453D02*
G03*
X1012453Y778500I-2953J0D01*
G01*
D178*
X912873Y709957D02*
Y708957D01*
Y709457D01*
X911374D01*
Y708457D02*
X912873D01*
Y707707D01*
X912624Y707457D01*
X912124D01*
X911874Y707707D01*
Y708457D01*
X911374Y706208D02*
X912873D01*
X912124Y706958D01*
Y705958D01*
X912873Y720957D02*
Y719957D01*
Y720457D01*
X911374D01*
Y719457D02*
X912873D01*
Y718707D01*
X912624Y718458D01*
X912124D01*
X911874Y718707D01*
Y719457D01*
X912624Y717958D02*
X912873Y717708D01*
Y717208D01*
X912624Y716958D01*
X912374D01*
X912124Y717208D01*
Y717458D01*
Y717208D01*
X911874Y716958D01*
X911624D01*
X911374Y717208D01*
Y717708D01*
X911624Y717958D01*
X1004873Y770457D02*
Y769457D01*
Y769957D01*
X1003374D01*
Y768957D02*
X1004873D01*
Y768207D01*
X1004624Y767957D01*
X1004124D01*
X1003874Y768207D01*
Y768957D01*
X1003374Y766458D02*
Y767458D01*
X1004374Y766458D01*
X1004624D01*
X1004873Y766708D01*
Y767208D01*
X1004624Y767458D01*
X1011957Y783126D02*
X1010957D01*
X1011457D01*
Y784626D01*
X1010457D02*
Y783126D01*
X1009707D01*
X1009457Y783376D01*
Y783876D01*
X1009707Y784126D01*
X1010457D01*
X1008958Y784626D02*
X1008458D01*
X1008708D01*
Y783126D01*
X1008958Y783376D01*
M02*
