G04*
G04 #@! TF.GenerationSoftware,Altium Limited,Altium Designer,21.9.1 (22)*
G04*
G04 Layer_Physical_Order=3*
G04 Layer_Color=16440176*
%FSLAX25Y25*%
%MOIN*%
G70*
G04*
G04 #@! TF.SameCoordinates,CDD0097E-41E7-41F5-A71D-9F4D08275E7E*
G04*
G04*
G04 #@! TF.FilePolarity,Positive*
G04*
G01*
G75*
%ADD13C,0.00787*%
%ADD17C,0.00600*%
%ADD134R,0.05512X0.05512*%
%ADD135C,0.05512*%
%ADD150C,0.03937*%
%ADD153C,0.01968*%
%ADD156C,0.05000*%
%ADD165C,0.06496*%
G04:AMPARAMS|DCode=166|XSize=64.96mil|YSize=64.96mil|CornerRadius=16.24mil|HoleSize=0mil|Usage=FLASHONLY|Rotation=270.000|XOffset=0mil|YOffset=0mil|HoleType=Round|Shape=RoundedRectangle|*
%AMROUNDEDRECTD166*
21,1,0.06496,0.03248,0,0,270.0*
21,1,0.03248,0.06496,0,0,270.0*
1,1,0.03248,-0.01624,-0.01624*
1,1,0.03248,-0.01624,0.01624*
1,1,0.03248,0.01624,0.01624*
1,1,0.03248,0.01624,-0.01624*
%
%ADD166ROUNDEDRECTD166*%
%ADD168C,0.05315*%
G04:AMPARAMS|DCode=172|XSize=82.68mil|YSize=82.68mil|CornerRadius=20.67mil|HoleSize=0mil|Usage=FLASHONLY|Rotation=0.000|XOffset=0mil|YOffset=0mil|HoleType=Round|Shape=RoundedRectangle|*
%AMROUNDEDRECTD172*
21,1,0.08268,0.04134,0,0,0.0*
21,1,0.04134,0.08268,0,0,0.0*
1,1,0.04134,0.02067,-0.02067*
1,1,0.04134,-0.02067,-0.02067*
1,1,0.04134,-0.02067,0.02067*
1,1,0.04134,0.02067,0.02067*
%
%ADD172ROUNDEDRECTD172*%
%ADD174C,0.01968*%
G36*
X1198461Y825039D02*
Y820501D01*
X1197961Y820294D01*
X1197855Y820400D01*
X1197203Y820670D01*
X1196499D01*
X1195848Y820400D01*
X1195349Y819902D01*
X1195148Y819415D01*
X1194617D01*
X1194416Y819902D01*
X1193918Y820400D01*
X1193266Y820670D01*
X1192562D01*
X1191910Y820400D01*
X1191412Y819902D01*
X1191142Y819250D01*
Y818546D01*
X1191412Y817894D01*
X1191910Y817396D01*
X1192562Y817126D01*
X1193266D01*
X1193918Y817396D01*
X1194416Y817894D01*
X1194617Y818381D01*
X1195148D01*
X1195349Y817894D01*
X1195848Y817396D01*
X1196499Y817126D01*
X1197203D01*
X1197855Y817396D01*
X1197961Y817502D01*
X1198461Y817295D01*
Y807198D01*
X1197961Y807020D01*
X1197352Y807272D01*
X1196648D01*
X1195996Y807002D01*
X1195498Y806504D01*
X1195228Y805852D01*
Y805148D01*
X1195498Y804496D01*
X1195996Y803998D01*
X1196648Y803728D01*
X1197352D01*
X1197961Y803980D01*
X1198461Y803802D01*
Y651698D01*
X1197961Y651520D01*
X1197352Y651772D01*
X1196648D01*
X1195996Y651502D01*
X1195498Y651004D01*
X1195228Y650352D01*
Y649648D01*
X1195498Y648996D01*
X1195996Y648498D01*
X1196648Y648228D01*
X1197352D01*
X1197961Y648480D01*
X1198461Y648302D01*
Y472500D01*
X1198470Y472456D01*
X1198374Y471730D01*
X1198077Y471012D01*
X1197604Y470396D01*
X1196988Y469923D01*
X1196270Y469626D01*
X1195544Y469530D01*
X1195500Y469539D01*
X1076083D01*
X1075874Y470039D01*
X1076259Y470541D01*
X1076576Y471307D01*
X1076684Y472129D01*
Y474491D01*
X1076576Y475313D01*
X1076259Y476080D01*
X1075754Y476737D01*
X1075096Y477242D01*
X1074330Y477560D01*
X1073508Y477668D01*
X1072686Y477560D01*
X1071919Y477242D01*
X1071261Y476737D01*
X1070757Y476080D01*
X1070439Y475313D01*
X1070331Y474491D01*
Y472129D01*
X1070439Y471307D01*
X1070757Y470541D01*
X1071141Y470039D01*
X1070932Y469539D01*
X1042067D01*
X1041858Y470039D01*
X1042243Y470541D01*
X1042561Y471307D01*
X1042669Y472129D01*
Y474491D01*
X1042561Y475313D01*
X1042243Y476080D01*
X1041738Y476737D01*
X1041080Y477242D01*
X1040314Y477560D01*
X1039492Y477668D01*
X1038670Y477560D01*
X1037904Y477242D01*
X1037246Y476737D01*
X1036741Y476080D01*
X1036424Y475313D01*
X1036315Y474491D01*
Y472129D01*
X1036424Y471307D01*
X1036741Y470541D01*
X1037126Y470039D01*
X1036917Y469539D01*
X797303D01*
Y490354D01*
X797597D01*
X798248Y490624D01*
X798746Y491122D01*
X799016Y491774D01*
Y492478D01*
X798746Y493130D01*
X798248Y493628D01*
X797597Y493898D01*
X797303D01*
Y506668D01*
X801568Y510932D01*
X801742Y511193D01*
X801803Y511500D01*
Y574642D01*
X802303Y574849D01*
X802559Y574593D01*
X803211Y574323D01*
X803915D01*
X804567Y574593D01*
X805065Y575091D01*
X805266Y575577D01*
X805797D01*
X805998Y575091D01*
X806496Y574593D01*
X807148Y574323D01*
X807852D01*
X808504Y574593D01*
X809002Y575091D01*
X809203Y575577D01*
X809734D01*
X809935Y575091D01*
X810433Y574593D01*
X811085Y574323D01*
X811789D01*
X812441Y574593D01*
X812939Y575091D01*
X813209Y575742D01*
Y576447D01*
X812939Y577098D01*
X812441Y577596D01*
X811954Y577798D01*
Y578328D01*
X812441Y578530D01*
X812939Y579028D01*
X813209Y579679D01*
Y580384D01*
X812939Y581035D01*
X812441Y581533D01*
X811954Y581735D01*
Y582265D01*
X812441Y582467D01*
X812939Y582965D01*
X813209Y583616D01*
Y584321D01*
X812939Y584972D01*
X812441Y585470D01*
X811954Y585672D01*
Y586202D01*
X812441Y586404D01*
X812939Y586902D01*
X813209Y587553D01*
Y588258D01*
X812939Y588909D01*
X812441Y589407D01*
X811789Y589677D01*
X811085D01*
X810433Y589407D01*
X809935Y588909D01*
X809734Y588423D01*
X809203D01*
X809002Y588909D01*
X808504Y589407D01*
X807852Y589677D01*
X807148D01*
X806496Y589407D01*
X805998Y588909D01*
X805797Y588423D01*
X805266D01*
X805065Y588909D01*
X804567Y589407D01*
X804402Y589476D01*
X804364Y590032D01*
X818149Y598071D01*
X818188Y598105D01*
X818235Y598128D01*
X818622Y598243D01*
X818798Y598216D01*
X818891Y598178D01*
X842270Y574798D01*
Y547397D01*
X842365Y546678D01*
X842643Y546007D01*
X843085Y545432D01*
X843660Y544990D01*
X844331Y544712D01*
X845050Y544618D01*
X845770Y544712D01*
X846440Y544990D01*
X847016Y545432D01*
X847457Y546007D01*
X847735Y546678D01*
X847830Y547397D01*
Y575950D01*
X847735Y576669D01*
X847457Y577340D01*
X847016Y577915D01*
X818173Y606758D01*
X818364Y607220D01*
X912349D01*
X933535Y586034D01*
X934110Y585593D01*
X934781Y585315D01*
X935500Y585220D01*
X936219Y585315D01*
X936890Y585593D01*
X937465Y586034D01*
X937907Y586610D01*
X938185Y587281D01*
X938280Y588000D01*
X938185Y588719D01*
X937907Y589390D01*
X937465Y589965D01*
X915466Y611966D01*
X914890Y612407D01*
X914219Y612685D01*
X913500Y612780D01*
X842284D01*
X842154Y612862D01*
X841989Y613062D01*
X841896Y613230D01*
X841878Y613361D01*
X841868Y613493D01*
X841857Y613515D01*
X841854Y613540D01*
X841787Y613655D01*
X841728Y613773D01*
X841556Y613993D01*
X841518Y614026D01*
X841490Y614068D01*
X841401Y614128D01*
X841319Y614198D01*
X841272Y614214D01*
X841230Y614242D01*
X841124Y614263D01*
X841022Y614297D01*
X840972Y614293D01*
X840923Y614303D01*
X804956D01*
X804765Y614765D01*
X831723Y641723D01*
X833747Y639699D01*
X833720Y639500D01*
X833815Y638781D01*
X834093Y638110D01*
X834534Y637535D01*
X835110Y637093D01*
X835781Y636815D01*
X836500Y636720D01*
X948500D01*
X949219Y636815D01*
X949890Y637093D01*
X950465Y637535D01*
X950907Y638110D01*
X951185Y638781D01*
X951280Y639500D01*
X951185Y640219D01*
X950907Y640890D01*
X950465Y641466D01*
X949890Y641907D01*
X949219Y642185D01*
X948500Y642280D01*
X836500D01*
X836301Y642253D01*
X834277Y644277D01*
X885403Y695403D01*
X885841Y695134D01*
X885632Y694489D01*
X885370Y692837D01*
Y691163D01*
X885632Y689511D01*
X886149Y687920D01*
X886909Y686429D01*
X887892Y685075D01*
X889075Y683892D01*
X890429Y682908D01*
X891920Y682149D01*
X893511Y681632D01*
X895163Y681370D01*
X896837D01*
X898489Y681632D01*
X900080Y682149D01*
X901571Y682908D01*
X902925Y683892D01*
X904108Y685075D01*
X905091Y686429D01*
X905851Y687920D01*
X906368Y689511D01*
X906630Y691163D01*
Y692837D01*
X906368Y694489D01*
X905851Y696080D01*
X905091Y697571D01*
X904108Y698925D01*
X902925Y700108D01*
X901571Y701091D01*
X900080Y701851D01*
X898489Y702368D01*
X896837Y702630D01*
X895163D01*
X893511Y702368D01*
X892866Y702159D01*
X892597Y702597D01*
X994296Y804296D01*
X1129699D01*
X1129996Y803998D01*
X1130648Y803728D01*
X1131352D01*
X1132004Y803998D01*
X1132502Y804496D01*
X1132772Y805148D01*
Y805852D01*
X1132526Y806444D01*
X1132632Y806629D01*
X1132859Y806848D01*
X1133148Y806728D01*
X1133852D01*
X1134504Y806998D01*
X1135002Y807496D01*
X1135272Y808148D01*
Y808852D01*
X1135088Y809296D01*
X1135363Y809796D01*
X1146985D01*
X1147148Y809728D01*
X1147852D01*
X1148504Y809998D01*
X1149002Y810496D01*
X1149272Y811148D01*
Y811852D01*
X1149002Y812504D01*
X1148604Y812902D01*
X1148624Y813452D01*
X1148642Y813459D01*
X1149140Y813958D01*
X1149410Y814609D01*
Y815314D01*
X1149140Y815965D01*
X1148642Y816463D01*
X1147991Y816733D01*
X1147286D01*
X1146772Y816520D01*
X1146384Y816701D01*
X1146272Y816807D01*
Y816852D01*
X1146002Y817504D01*
X1145504Y818002D01*
X1144852Y818272D01*
X1144148D01*
X1143496Y818002D01*
X1143199Y817704D01*
X1116138D01*
X1115804Y818204D01*
X1115946Y818546D01*
Y819250D01*
X1115676Y819902D01*
X1115177Y820400D01*
X1114526Y820670D01*
X1113821D01*
X1113170Y820400D01*
X1112672Y819902D01*
X1112470Y819415D01*
X1111940D01*
X1111739Y819902D01*
X1111240Y820400D01*
X1110589Y820670D01*
X1109884D01*
X1109233Y820400D01*
X1108735Y819902D01*
X1108533Y819415D01*
X1108003D01*
X1107802Y819902D01*
X1107303Y820400D01*
X1106652Y820670D01*
X1105947D01*
X1105296Y820400D01*
X1104798Y819902D01*
X1104596Y819415D01*
X1104066D01*
X1103865Y819902D01*
X1103366Y820400D01*
X1102715Y820670D01*
X1102010D01*
X1101359Y820400D01*
X1100861Y819902D01*
X1100659Y819415D01*
X1100129D01*
X1099928Y819902D01*
X1099429Y820400D01*
X1098778Y820670D01*
X1098073D01*
X1097422Y820400D01*
X1096924Y819902D01*
X1096722Y819415D01*
X1096192D01*
X1095991Y819902D01*
X1095492Y820400D01*
X1094841Y820670D01*
X1094136D01*
X1093485Y820400D01*
X1092987Y819902D01*
X1092785Y819415D01*
X1092255D01*
X1092054Y819902D01*
X1091555Y820400D01*
X1090904Y820670D01*
X1090199D01*
X1089548Y820400D01*
X1089050Y819902D01*
X1088780Y819250D01*
Y818546D01*
X1088922Y818204D01*
X1088587Y817704D01*
X1076768D01*
X1076434Y818204D01*
X1076575Y818546D01*
Y819250D01*
X1076306Y819902D01*
X1075807Y820400D01*
X1075156Y820670D01*
X1074451D01*
X1073800Y820400D01*
X1073302Y819902D01*
X1073100Y819415D01*
X1072570D01*
X1072369Y819902D01*
X1071870Y820400D01*
X1071219Y820670D01*
X1070514D01*
X1069863Y820400D01*
X1069365Y819902D01*
X1069163Y819415D01*
X1068633D01*
X1068432Y819902D01*
X1067933Y820400D01*
X1067282Y820670D01*
X1066577D01*
X1065926Y820400D01*
X1065428Y819902D01*
X1065226Y819415D01*
X1064696D01*
X1064495Y819902D01*
X1063996Y820400D01*
X1063345Y820670D01*
X1062640D01*
X1061989Y820400D01*
X1061491Y819902D01*
X1061289Y819415D01*
X1060759D01*
X1060558Y819902D01*
X1060059Y820400D01*
X1059408Y820670D01*
X1058703D01*
X1058052Y820400D01*
X1057554Y819902D01*
X1057352Y819415D01*
X1056822D01*
X1056621Y819902D01*
X1056122Y820400D01*
X1055471Y820670D01*
X1054766D01*
X1054115Y820400D01*
X1053617Y819902D01*
X1053415Y819415D01*
X1052885D01*
X1052684Y819902D01*
X1052185Y820400D01*
X1051534Y820670D01*
X1050829D01*
X1050178Y820400D01*
X1049680Y819902D01*
X1049478Y819415D01*
X1048948D01*
X1048747Y819902D01*
X1048248Y820400D01*
X1047597Y820670D01*
X1046892D01*
X1046241Y820400D01*
X1045743Y819902D01*
X1045541Y819415D01*
X1045011D01*
X1044810Y819902D01*
X1044311Y820400D01*
X1043660Y820670D01*
X1042955D01*
X1042304Y820400D01*
X1041806Y819902D01*
X1041604Y819415D01*
X1041074D01*
X1040873Y819902D01*
X1040374Y820400D01*
X1039723Y820670D01*
X1039018D01*
X1038367Y820400D01*
X1037869Y819902D01*
X1037667Y819415D01*
X1037137D01*
X1036936Y819902D01*
X1036437Y820400D01*
X1035786Y820670D01*
X1035081D01*
X1034430Y820400D01*
X1033932Y819902D01*
X1033730Y819415D01*
X1033200D01*
X1032999Y819902D01*
X1032500Y820400D01*
X1031849Y820670D01*
X1031144D01*
X1030493Y820400D01*
X1029995Y819902D01*
X1029725Y819250D01*
Y818546D01*
X1029866Y818204D01*
X1029532Y817704D01*
X1017713D01*
X1017379Y818204D01*
X1017520Y818546D01*
Y819250D01*
X1017251Y819902D01*
X1016752Y820400D01*
X1016101Y820670D01*
X1015396D01*
X1014745Y820400D01*
X1014247Y819902D01*
X1014045Y819415D01*
X1013515D01*
X1013313Y819902D01*
X1012815Y820400D01*
X1012164Y820670D01*
X1011459D01*
X1011319Y820611D01*
X1011035Y821035D01*
X1011906Y821906D01*
X1012278Y821832D01*
X1012776Y821333D01*
X1013428Y821063D01*
X1014132D01*
X1014784Y821333D01*
X1015282Y821832D01*
X1015552Y822483D01*
Y823188D01*
X1015282Y823839D01*
X1014784Y824337D01*
X1014729Y824612D01*
X1015071Y825000D01*
X1017471D01*
X1017587Y824415D01*
X1017919Y823919D01*
X1018415Y823587D01*
X1019000Y823471D01*
X1087000D01*
X1087585Y823587D01*
X1088081Y823919D01*
X1088413Y824415D01*
X1088529Y825000D01*
X1091811D01*
X1091910Y824500D01*
X1091517Y824337D01*
X1091018Y823839D01*
X1090749Y823188D01*
Y822483D01*
X1091018Y821832D01*
X1091517Y821333D01*
X1092168Y821063D01*
X1092873D01*
X1093524Y821333D01*
X1094022Y821832D01*
X1094224Y822318D01*
X1094754D01*
X1094955Y821832D01*
X1095454Y821333D01*
X1096105Y821063D01*
X1096810D01*
X1097461Y821333D01*
X1097959Y821832D01*
X1098161Y822318D01*
X1098691D01*
X1098892Y821832D01*
X1099391Y821333D01*
X1100042Y821063D01*
X1100747D01*
X1101398Y821333D01*
X1101896Y821832D01*
X1102098Y822318D01*
X1102628D01*
X1102829Y821832D01*
X1103328Y821333D01*
X1103979Y821063D01*
X1104684D01*
X1105335Y821333D01*
X1105833Y821832D01*
X1106035Y822318D01*
X1106565D01*
X1106766Y821832D01*
X1107265Y821333D01*
X1107916Y821063D01*
X1108621D01*
X1109272Y821333D01*
X1109770Y821832D01*
X1109972Y822318D01*
X1110502D01*
X1110703Y821832D01*
X1111202Y821333D01*
X1111853Y821063D01*
X1112558D01*
X1113209Y821333D01*
X1113707Y821832D01*
X1113909Y822318D01*
X1114439D01*
X1114640Y821832D01*
X1115139Y821333D01*
X1115790Y821063D01*
X1116495D01*
X1117146Y821333D01*
X1117644Y821832D01*
X1117914Y822483D01*
Y823188D01*
X1117644Y823839D01*
X1117146Y824337D01*
X1116752Y824500D01*
X1116852Y825000D01*
X1127244D01*
X1127343Y824500D01*
X1126950Y824337D01*
X1126451Y823839D01*
X1126182Y823188D01*
Y822483D01*
X1126451Y821832D01*
X1126950Y821333D01*
X1127601Y821063D01*
X1128306D01*
X1128957Y821333D01*
X1129455Y821832D01*
X1129657Y822318D01*
X1130187D01*
X1130388Y821832D01*
X1130887Y821333D01*
X1131538Y821063D01*
X1132243D01*
X1132894Y821333D01*
X1133392Y821832D01*
X1133594Y822318D01*
X1134124D01*
X1134325Y821832D01*
X1134824Y821333D01*
X1135475Y821063D01*
X1136180D01*
X1136831Y821333D01*
X1137329Y821832D01*
X1137599Y822483D01*
Y823188D01*
X1137329Y823839D01*
X1136831Y824337D01*
X1136438Y824500D01*
X1136537Y825000D01*
X1190236D01*
X1190335Y824500D01*
X1189942Y824337D01*
X1189444Y823839D01*
X1189174Y823188D01*
Y822483D01*
X1189444Y821832D01*
X1189942Y821333D01*
X1190593Y821063D01*
X1191298D01*
X1191949Y821333D01*
X1192447Y821832D01*
X1192649Y822318D01*
X1193179D01*
X1193381Y821832D01*
X1193879Y821333D01*
X1194530Y821063D01*
X1195235D01*
X1195886Y821333D01*
X1196385Y821832D01*
X1196654Y822483D01*
Y823188D01*
X1196385Y823839D01*
X1195886Y824337D01*
X1195493Y824500D01*
X1195592Y825000D01*
X1196500D01*
X1197500Y826000D01*
X1198461Y825039D01*
D02*
G37*
G36*
X799410Y823188D02*
Y822483D01*
X799680Y821832D01*
X800178Y821333D01*
X800829Y821063D01*
X801534D01*
X802185Y821333D01*
X802684Y821832D01*
X802885Y822318D01*
X803415D01*
X803617Y821832D01*
X804115Y821333D01*
X804766Y821063D01*
X805471D01*
X806122Y821333D01*
X806621Y821832D01*
X806822Y822318D01*
X807352D01*
X807554Y821832D01*
X808052Y821333D01*
X808703Y821063D01*
X809408D01*
X810059Y821333D01*
X810557Y821832D01*
X810759Y822318D01*
X811289D01*
X811491Y821832D01*
X811989Y821333D01*
X812640Y821063D01*
X813345D01*
X813996Y821333D01*
X814495Y821832D01*
X814696Y822318D01*
X815226D01*
X815428Y821832D01*
X815926Y821333D01*
X816577Y821063D01*
X817282D01*
X817933Y821333D01*
X818431Y821832D01*
X818633Y822318D01*
X819163D01*
X819365Y821832D01*
X819863Y821333D01*
X820514Y821063D01*
X821219D01*
X821870Y821333D01*
X822369Y821832D01*
X822570Y822318D01*
X823100D01*
X823302Y821832D01*
X823800Y821333D01*
X824451Y821063D01*
X825156D01*
X825807Y821333D01*
X826305Y821832D01*
X826507Y822318D01*
X827037D01*
X827239Y821832D01*
X827737Y821333D01*
X828388Y821063D01*
X829093D01*
X829744Y821333D01*
X830243Y821832D01*
X830444Y822318D01*
X830974D01*
X831176Y821832D01*
X831674Y821333D01*
X832325Y821063D01*
X833030D01*
X833681Y821333D01*
X834179Y821832D01*
X834381Y822318D01*
X834911D01*
X835113Y821832D01*
X835611Y821333D01*
X836262Y821063D01*
X836967D01*
X837618Y821333D01*
X838116Y821832D01*
X838318Y822318D01*
X838848D01*
X839050Y821832D01*
X839548Y821333D01*
X840199Y821063D01*
X840904D01*
X841555Y821333D01*
X842054Y821832D01*
X842255Y822318D01*
X842785D01*
X842987Y821832D01*
X843485Y821333D01*
X844136Y821063D01*
X844841D01*
X845492Y821333D01*
X845991Y821832D01*
X846192Y822318D01*
X846722D01*
X846924Y821832D01*
X847422Y821333D01*
X848073Y821063D01*
X848778D01*
X849429Y821333D01*
X849928Y821832D01*
X850129Y822318D01*
X850659D01*
X850861Y821832D01*
X851359Y821333D01*
X852010Y821063D01*
X852715D01*
X853366Y821333D01*
X853865Y821832D01*
X854066Y822318D01*
X854596D01*
X854798Y821832D01*
X855296Y821333D01*
X855947Y821063D01*
X856652D01*
X857303Y821333D01*
X857802Y821832D01*
X858003Y822318D01*
X858533D01*
X858735Y821832D01*
X859233Y821333D01*
X859884Y821063D01*
X860589D01*
X861240Y821333D01*
X861739Y821832D01*
X861940Y822318D01*
X862470D01*
X862672Y821832D01*
X863170Y821333D01*
X863821Y821063D01*
X864526D01*
X865177Y821333D01*
X865676Y821832D01*
X865877Y822318D01*
X866407D01*
X866609Y821832D01*
X867107Y821333D01*
X867758Y821063D01*
X868463D01*
X869114Y821333D01*
X869613Y821832D01*
X869814Y822318D01*
X870344D01*
X870546Y821832D01*
X871044Y821333D01*
X871695Y821063D01*
X872400D01*
X873051Y821333D01*
X873550Y821832D01*
X873751Y822318D01*
X874281D01*
X874483Y821832D01*
X874981Y821333D01*
X875632Y821063D01*
X876337D01*
X876988Y821333D01*
X877487Y821832D01*
X877688Y822318D01*
X878218D01*
X878420Y821832D01*
X878918Y821333D01*
X879569Y821063D01*
X880274D01*
X880925Y821333D01*
X881424Y821832D01*
X881625Y822318D01*
X882155D01*
X882357Y821832D01*
X882855Y821333D01*
X883506Y821063D01*
X884211D01*
X884862Y821333D01*
X885361Y821832D01*
X885562Y822318D01*
X886092D01*
X886294Y821832D01*
X886792Y821333D01*
X887443Y821063D01*
X888148D01*
X888799Y821333D01*
X889298Y821832D01*
X889499Y822318D01*
X890029D01*
X890231Y821832D01*
X890729Y821333D01*
X891380Y821063D01*
X892085D01*
X892736Y821333D01*
X893235Y821832D01*
X893436Y822318D01*
X893966D01*
X894168Y821832D01*
X894666Y821333D01*
X895317Y821063D01*
X896022D01*
X896673Y821333D01*
X897172Y821832D01*
X897373Y822318D01*
X897903D01*
X898105Y821832D01*
X898603Y821333D01*
X899254Y821063D01*
X899959D01*
X900610Y821333D01*
X901109Y821832D01*
X901310Y822318D01*
X901840D01*
X902042Y821832D01*
X902540Y821333D01*
X903191Y821063D01*
X903896D01*
X904547Y821333D01*
X905046Y821832D01*
X905247Y822318D01*
X905777D01*
X905979Y821832D01*
X906477Y821333D01*
X907128Y821063D01*
X907833D01*
X908484Y821333D01*
X908983Y821832D01*
X909184Y822318D01*
X909714D01*
X909916Y821832D01*
X910414Y821333D01*
X911065Y821063D01*
X911770D01*
X912421Y821333D01*
X912920Y821832D01*
X913121Y822318D01*
X913651D01*
X913853Y821832D01*
X914351Y821333D01*
X915002Y821063D01*
X915707D01*
X916358Y821333D01*
X916857Y821832D01*
X917058Y822318D01*
X917588D01*
X917790Y821832D01*
X918288Y821333D01*
X918939Y821063D01*
X919644D01*
X920295Y821333D01*
X920794Y821832D01*
X920995Y822318D01*
X921525D01*
X921727Y821832D01*
X922225Y821333D01*
X922876Y821063D01*
X923581D01*
X924232Y821333D01*
X924731Y821832D01*
X924932Y822318D01*
X925462D01*
X925664Y821832D01*
X926162Y821333D01*
X926814Y821063D01*
X927518D01*
X928169Y821333D01*
X928668Y821832D01*
X928869Y822318D01*
X929399D01*
X929601Y821832D01*
X930099Y821333D01*
X930750Y821063D01*
X931455D01*
X932106Y821333D01*
X932605Y821832D01*
X932806Y822318D01*
X933336D01*
X933538Y821832D01*
X934036Y821333D01*
X934688Y821063D01*
X935392D01*
X936043Y821333D01*
X936542Y821832D01*
X936743Y822318D01*
X937274D01*
X937475Y821832D01*
X937973Y821333D01*
X938624Y821063D01*
X939329D01*
X939980Y821333D01*
X940479Y821832D01*
X940680Y822318D01*
X941210D01*
X941412Y821832D01*
X941910Y821333D01*
X942562Y821063D01*
X943266D01*
X943917Y821333D01*
X944416Y821832D01*
X944617Y822318D01*
X945148D01*
X945349Y821832D01*
X945847Y821333D01*
X946498Y821063D01*
X947203D01*
X947855Y821333D01*
X948353Y821832D01*
X948554Y822318D01*
X949084D01*
X949286Y821832D01*
X949784Y821333D01*
X950436Y821063D01*
X951140D01*
X951791Y821333D01*
X952290Y821832D01*
X952491Y822318D01*
X953022D01*
X953223Y821832D01*
X953721Y821333D01*
X954373Y821063D01*
X955077D01*
X955729Y821333D01*
X956227Y821832D01*
X956428Y822318D01*
X956958D01*
X957160Y821832D01*
X957658Y821333D01*
X958309Y821063D01*
X959014D01*
X959665Y821333D01*
X960164Y821832D01*
X960365Y822318D01*
X960896D01*
X961097Y821832D01*
X961595Y821333D01*
X962247Y821063D01*
X962951D01*
X963603Y821333D01*
X964101Y821832D01*
X964302Y822318D01*
X964832D01*
X965034Y821832D01*
X965532Y821333D01*
X966183Y821063D01*
X966888D01*
X967540Y821333D01*
X968038Y821832D01*
X968239Y822318D01*
X968769D01*
X968971Y821832D01*
X969469Y821333D01*
X970121Y821063D01*
X970825D01*
X971476Y821333D01*
X971975Y821832D01*
X972176Y822318D01*
X972707D01*
X972908Y821832D01*
X973406Y821333D01*
X974058Y821063D01*
X974762D01*
X975414Y821333D01*
X975912Y821832D01*
X976113Y822318D01*
X976644D01*
X976845Y821832D01*
X977343Y821333D01*
X977995Y821063D01*
X978699D01*
X979350Y821333D01*
X979849Y821832D01*
X980050Y822318D01*
X980581D01*
X980782Y821832D01*
X981280Y821333D01*
X981932Y821063D01*
X982636D01*
X983288Y821333D01*
X983786Y821832D01*
X983987Y822318D01*
X984518D01*
X984719Y821832D01*
X985217Y821333D01*
X985869Y821063D01*
X986573D01*
X987225Y821333D01*
X987723Y821832D01*
X987924Y822318D01*
X988455D01*
X988656Y821832D01*
X989154Y821333D01*
X989806Y821063D01*
X990510D01*
X991162Y821333D01*
X991660Y821832D01*
X991861Y822318D01*
X992392D01*
X992593Y821832D01*
X993091Y821333D01*
X993743Y821063D01*
X994447D01*
X995099Y821333D01*
X995597Y821832D01*
X995798Y822318D01*
X996329D01*
X996530Y821832D01*
X997029Y821333D01*
X997680Y821063D01*
X998384D01*
X999036Y821333D01*
X999534Y821832D01*
X999735Y822318D01*
X1000266D01*
X1000467Y821832D01*
X1000965Y821333D01*
X1001617Y821063D01*
X1002321D01*
X1002973Y821333D01*
X1003471Y821832D01*
X1003673Y822318D01*
X1004203D01*
X1004404Y821832D01*
X1004902Y821333D01*
X1005554Y821063D01*
X1006258D01*
X1006910Y821333D01*
X1007408Y821832D01*
X1007609Y822318D01*
X1008140D01*
X1008341Y821832D01*
X1008840Y821333D01*
X1009491Y821063D01*
X1009756D01*
X1009798Y821061D01*
X1010248Y820879D01*
X1010253Y820866D01*
X1010294Y820728D01*
X1010338Y820662D01*
X1010368Y820589D01*
X1010620Y820212D01*
X1010310Y819902D01*
X1010245Y819745D01*
X1010059Y819559D01*
X1009470Y819677D01*
X1009377Y819902D01*
X1008878Y820400D01*
X1008227Y820670D01*
X1007522D01*
X1006871Y820400D01*
X1006373Y819902D01*
X1006171Y819415D01*
X1005641D01*
X1005439Y819902D01*
X1004941Y820400D01*
X1004290Y820670D01*
X1003585D01*
X1002934Y820400D01*
X1002436Y819902D01*
X1002234Y819415D01*
X1001704D01*
X1001503Y819902D01*
X1001004Y820400D01*
X1000353Y820670D01*
X999648D01*
X998997Y820400D01*
X998499Y819902D01*
X998297Y819415D01*
X997767D01*
X997565Y819902D01*
X997067Y820400D01*
X996416Y820670D01*
X995711D01*
X995060Y820400D01*
X994562Y819902D01*
X994360Y819415D01*
X993830D01*
X993628Y819902D01*
X993130Y820400D01*
X992479Y820670D01*
X991774D01*
X991123Y820400D01*
X990625Y819902D01*
X990423Y819415D01*
X989893D01*
X989691Y819902D01*
X989193Y820400D01*
X988542Y820670D01*
X987837D01*
X987186Y820400D01*
X986688Y819902D01*
X986486Y819415D01*
X985956D01*
X985754Y819902D01*
X985256Y820400D01*
X984605Y820670D01*
X983900D01*
X983249Y820400D01*
X982751Y819902D01*
X982481Y819250D01*
Y818546D01*
X982622Y818204D01*
X982288Y817704D01*
X981195D01*
X980811Y818088D01*
X980160Y818358D01*
X979455D01*
X978804Y818088D01*
X978734Y818019D01*
X978483Y818044D01*
X978150Y818546D01*
Y819250D01*
X977880Y819902D01*
X977382Y820400D01*
X976731Y820670D01*
X976026D01*
X975375Y820400D01*
X974876Y819902D01*
X974675Y819415D01*
X974145D01*
X973943Y819902D01*
X973445Y820400D01*
X972794Y820670D01*
X972089D01*
X971438Y820400D01*
X970940Y819902D01*
X970738Y819415D01*
X970208D01*
X970006Y819902D01*
X969508Y820400D01*
X968857Y820670D01*
X968152D01*
X967501Y820400D01*
X967002Y819902D01*
X966801Y819415D01*
X966271D01*
X966069Y819902D01*
X965571Y820400D01*
X964920Y820670D01*
X964215D01*
X963564Y820400D01*
X963066Y819902D01*
X962864Y819415D01*
X962334D01*
X962132Y819902D01*
X961634Y820400D01*
X960983Y820670D01*
X960278D01*
X959627Y820400D01*
X959128Y819902D01*
X958927Y819415D01*
X958397D01*
X958195Y819902D01*
X957697Y820400D01*
X957046Y820670D01*
X956341D01*
X955690Y820400D01*
X955192Y819902D01*
X954922Y819250D01*
Y818546D01*
X955063Y818204D01*
X954729Y817704D01*
X953801D01*
X953504Y818002D01*
X952852Y818272D01*
X952148D01*
X951496Y818002D01*
X950998Y817504D01*
X950728Y816852D01*
Y816148D01*
X950998Y815496D01*
X951496Y814998D01*
X952148Y814728D01*
X952852D01*
X953504Y814998D01*
X953801Y815296D01*
X978592D01*
X978804Y815085D01*
X979455Y814815D01*
X980160D01*
X980811Y815085D01*
X981022Y815296D01*
X1003507D01*
X1003698Y814834D01*
X1002098Y813234D01*
X1001925Y812973D01*
X1001863Y812666D01*
X1001690Y812395D01*
X1001472Y812204D01*
X985301D01*
X985004Y812502D01*
X984352Y812772D01*
X983648D01*
X982996Y812502D01*
X982699Y812204D01*
X971801D01*
X971504Y812502D01*
X970852Y812772D01*
X970148D01*
X969496Y812502D01*
X968998Y812004D01*
X968728Y811352D01*
Y810648D01*
X968912Y810204D01*
X968637Y809704D01*
X869499D01*
X867772Y811431D01*
Y811852D01*
X867502Y812504D01*
X867004Y813002D01*
X866352Y813272D01*
X865648D01*
X864996Y813002D01*
X864498Y812504D01*
X864228Y811852D01*
Y811148D01*
X864498Y810496D01*
X864996Y809998D01*
X865648Y809728D01*
X866069D01*
X868149Y807648D01*
X868539Y807387D01*
X869000Y807296D01*
X996640D01*
X996907Y806796D01*
X996846Y806704D01*
X856015D01*
X855852Y806772D01*
X855148D01*
X854496Y806502D01*
X853998Y806004D01*
X853728Y805352D01*
Y804648D01*
X853998Y803996D01*
X854496Y803498D01*
X855148Y803228D01*
X855852D01*
X856504Y803498D01*
X857002Y803996D01*
X857126Y804296D01*
X992507D01*
X992698Y803834D01*
X956958Y768093D01*
X956417Y768260D01*
X956226Y768720D01*
X955728Y769218D01*
X955077Y769488D01*
X954372D01*
X953721Y769218D01*
X953222Y768720D01*
X952953Y768069D01*
Y767364D01*
X953222Y766713D01*
X953721Y766215D01*
X954181Y766024D01*
X954348Y765483D01*
X917588Y728723D01*
X917047Y728890D01*
X916856Y729350D01*
X916358Y729848D01*
X915707Y730118D01*
X915002D01*
X914351Y729848D01*
X913852Y729350D01*
X913583Y728699D01*
Y727994D01*
X913852Y727343D01*
X914351Y726845D01*
X914811Y726654D01*
X914977Y726113D01*
X892029Y703165D01*
X891994Y703112D01*
X891947Y703069D01*
X891908Y702983D01*
X891855Y702904D01*
X891843Y702842D01*
X891816Y702784D01*
X891813Y702690D01*
X891794Y702597D01*
X891807Y702535D01*
X891804Y702471D01*
X891837Y702383D01*
X891855Y702290D01*
X891801Y701995D01*
X891620Y701698D01*
X890429Y701091D01*
X889075Y700108D01*
X887892Y698925D01*
X886909Y697571D01*
X886302Y696380D01*
X886005Y696199D01*
X885710Y696145D01*
X885617Y696163D01*
X885529Y696196D01*
X885465Y696194D01*
X885403Y696206D01*
X885310Y696187D01*
X885216Y696184D01*
X885158Y696157D01*
X885096Y696145D01*
X885017Y696092D01*
X884931Y696053D01*
X884888Y696006D01*
X884835Y695971D01*
X878218Y689353D01*
X877677Y689519D01*
X877486Y689980D01*
X876988Y690478D01*
X876337Y690748D01*
X875632D01*
X874981Y690478D01*
X874482Y689980D01*
X874213Y689329D01*
Y688624D01*
X874482Y687973D01*
X874981Y687474D01*
X875441Y687284D01*
X875607Y686743D01*
X833710Y644845D01*
X832043Y646511D01*
X832072Y646656D01*
X831935Y647347D01*
X831543Y647933D01*
X830957Y648325D01*
X830266Y648462D01*
X829574Y648325D01*
X828988Y647933D01*
X828723Y647668D01*
X828331Y647081D01*
X828194Y646390D01*
Y646000D01*
X828331Y645309D01*
X828723Y644723D01*
X830801Y642644D01*
X830801Y641937D01*
X804197Y615333D01*
X804023Y615072D01*
X803962Y614765D01*
X803789Y614494D01*
X803571Y614303D01*
X756000D01*
X755539Y614695D01*
X755539Y823500D01*
X759831D01*
X760040Y823188D01*
Y822483D01*
X760310Y821832D01*
X760808Y821333D01*
X761459Y821063D01*
X762164D01*
X762815Y821333D01*
X763313Y821832D01*
X763515Y822318D01*
X764045D01*
X764247Y821832D01*
X764745Y821333D01*
X765396Y821063D01*
X766101D01*
X766752Y821333D01*
X767250Y821832D01*
X767452Y822318D01*
X767982D01*
X768184Y821832D01*
X768682Y821333D01*
X769333Y821063D01*
X770038D01*
X770689Y821333D01*
X771187Y821832D01*
X771389Y822318D01*
X771919D01*
X772121Y821832D01*
X772619Y821333D01*
X773270Y821063D01*
X773975D01*
X774626Y821333D01*
X775124Y821832D01*
X775326Y822318D01*
X775856D01*
X776057Y821832D01*
X776556Y821333D01*
X777207Y821063D01*
X777912D01*
X778563Y821333D01*
X779061Y821832D01*
X779263Y822318D01*
X779793D01*
X779994Y821832D01*
X780493Y821333D01*
X781144Y821063D01*
X781849D01*
X782500Y821333D01*
X782998Y821832D01*
X783200Y822318D01*
X783730D01*
X783932Y821832D01*
X784430Y821333D01*
X785081Y821063D01*
X785786D01*
X786437Y821333D01*
X786935Y821832D01*
X787137Y822318D01*
X787667D01*
X787869Y821832D01*
X788367Y821333D01*
X789018Y821063D01*
X789723D01*
X790374Y821333D01*
X790872Y821832D01*
X791142Y822483D01*
Y823188D01*
X791351Y823500D01*
X799201D01*
X799410Y823188D01*
D02*
G37*
G36*
X1128069Y814796D02*
X1127983Y814710D01*
X1127713Y814059D01*
Y813354D01*
X1127983Y812703D01*
X1127775Y812204D01*
X1002857D01*
X1002666Y812666D01*
X1005296Y815296D01*
X1127861D01*
X1128069Y814796D01*
D02*
G37*
G36*
X841094Y613280D02*
X840850Y612780D01*
X791500D01*
X790781Y612685D01*
X790110Y612407D01*
X789535Y611966D01*
X789093Y611390D01*
X788815Y610719D01*
X788720Y610000D01*
X788815Y609281D01*
X789093Y608610D01*
X789535Y608035D01*
X790110Y607593D01*
X790781Y607315D01*
X791500Y607220D01*
X812770D01*
X813023Y606720D01*
X812815Y606219D01*
X812720Y605500D01*
X812815Y604781D01*
X813093Y604110D01*
X813535Y603535D01*
X817809Y599260D01*
X817745Y598764D01*
X801000Y589000D01*
Y511500D01*
X796500Y507000D01*
Y493735D01*
X796241Y493628D01*
X795742Y493130D01*
X795472Y492478D01*
Y491774D01*
X795742Y491122D01*
X796241Y490624D01*
X796500Y490517D01*
Y469539D01*
X758500D01*
X758456Y469530D01*
X757730Y469626D01*
X757012Y469923D01*
X756396Y470396D01*
X756000Y470912D01*
Y613500D01*
X840923D01*
X841094Y613280D01*
D02*
G37*
%LPC*%
G36*
X1181455Y820670D02*
X1180751D01*
X1180099Y820400D01*
X1179601Y819902D01*
X1179400Y819415D01*
X1178869D01*
X1178668Y819902D01*
X1178170Y820400D01*
X1177518Y820670D01*
X1176814D01*
X1176162Y820400D01*
X1175664Y819902D01*
X1175463Y819415D01*
X1174932D01*
X1174731Y819902D01*
X1174232Y820400D01*
X1173581Y820670D01*
X1172877D01*
X1172225Y820400D01*
X1171727Y819902D01*
X1171526Y819415D01*
X1170995D01*
X1170794Y819902D01*
X1170296Y820400D01*
X1169644Y820670D01*
X1168940D01*
X1168288Y820400D01*
X1167790Y819902D01*
X1167589Y819415D01*
X1167058D01*
X1166857Y819902D01*
X1166358Y820400D01*
X1165707Y820670D01*
X1165003D01*
X1164351Y820400D01*
X1163853Y819902D01*
X1163651Y819415D01*
X1163121D01*
X1162920Y819902D01*
X1162422Y820400D01*
X1161770Y820670D01*
X1161066D01*
X1160414Y820400D01*
X1159916Y819902D01*
X1159715Y819415D01*
X1159184D01*
X1158983Y819902D01*
X1158484Y820400D01*
X1157833Y820670D01*
X1157129D01*
X1156477Y820400D01*
X1155979Y819902D01*
X1155777Y819415D01*
X1155247D01*
X1155046Y819902D01*
X1154548Y820400D01*
X1153896Y820670D01*
X1153191D01*
X1152540Y820400D01*
X1152042Y819902D01*
X1151840Y819415D01*
X1151310D01*
X1151109Y819902D01*
X1150611Y820400D01*
X1149959Y820670D01*
X1149255D01*
X1148603Y820400D01*
X1148105Y819902D01*
X1147835Y819250D01*
Y818546D01*
X1148105Y817894D01*
X1148603Y817396D01*
X1149255Y817126D01*
X1149959D01*
X1150611Y817396D01*
X1151109Y817894D01*
X1151310Y818381D01*
X1151840D01*
X1152042Y817894D01*
X1152540Y817396D01*
X1153191Y817126D01*
X1153896D01*
X1154548Y817396D01*
X1155046Y817894D01*
X1155247Y818381D01*
X1155777D01*
X1155979Y817894D01*
X1156477Y817396D01*
X1157129Y817126D01*
X1157833D01*
X1158484Y817396D01*
X1158983Y817894D01*
X1159184Y818381D01*
X1159715D01*
X1159916Y817894D01*
X1160414Y817396D01*
X1161066Y817126D01*
X1161770D01*
X1162422Y817396D01*
X1162920Y817894D01*
X1163121Y818381D01*
X1163651D01*
X1163853Y817894D01*
X1164351Y817396D01*
X1165003Y817126D01*
X1165707D01*
X1166358Y817396D01*
X1166857Y817894D01*
X1167058Y818381D01*
X1167589D01*
X1167790Y817894D01*
X1168288Y817396D01*
X1168940Y817126D01*
X1169644D01*
X1170296Y817396D01*
X1170794Y817894D01*
X1170995Y818381D01*
X1171526D01*
X1171727Y817894D01*
X1172225Y817396D01*
X1172877Y817126D01*
X1173581D01*
X1174232Y817396D01*
X1174731Y817894D01*
X1174932Y818381D01*
X1175463D01*
X1175664Y817894D01*
X1176162Y817396D01*
X1176814Y817126D01*
X1177518D01*
X1178170Y817396D01*
X1178668Y817894D01*
X1178869Y818381D01*
X1179400D01*
X1179601Y817894D01*
X1180099Y817396D01*
X1180751Y817126D01*
X1181455D01*
X1182107Y817396D01*
X1182605Y817894D01*
X1182875Y818546D01*
Y819250D01*
X1182605Y819902D01*
X1182107Y820400D01*
X1181455Y820670D01*
D02*
G37*
G36*
X1195235Y816733D02*
X1194530D01*
X1193879Y816463D01*
X1193381Y815965D01*
X1193179Y815478D01*
X1192649D01*
X1192447Y815965D01*
X1191949Y816463D01*
X1191298Y816733D01*
X1190593D01*
X1189942Y816463D01*
X1189444Y815965D01*
X1189174Y815314D01*
Y814609D01*
X1189444Y813958D01*
X1189942Y813459D01*
X1190593Y813189D01*
X1191298D01*
X1191949Y813459D01*
X1192447Y813958D01*
X1192649Y814444D01*
X1193179D01*
X1193381Y813958D01*
X1193879Y813459D01*
X1194530Y813189D01*
X1195235D01*
X1195886Y813459D01*
X1196385Y813958D01*
X1196654Y814609D01*
Y815314D01*
X1196385Y815965D01*
X1195886Y816463D01*
X1195235Y816733D01*
D02*
G37*
G36*
X1183424D02*
X1182719D01*
X1182068Y816463D01*
X1181570Y815965D01*
X1181368Y815478D01*
X1180838D01*
X1180636Y815965D01*
X1180138Y816463D01*
X1179487Y816733D01*
X1178782D01*
X1178131Y816463D01*
X1177633Y815965D01*
X1177363Y815314D01*
Y814609D01*
X1177633Y813958D01*
X1178131Y813459D01*
X1178782Y813189D01*
X1179487D01*
X1180138Y813459D01*
X1180636Y813958D01*
X1180838Y814444D01*
X1181368D01*
X1181570Y813958D01*
X1182068Y813459D01*
X1182719Y813189D01*
X1183424D01*
X1184075Y813459D01*
X1184573Y813958D01*
X1184843Y814609D01*
Y815314D01*
X1184573Y815965D01*
X1184075Y816463D01*
X1183424Y816733D01*
D02*
G37*
G36*
X1176852Y810272D02*
X1176148D01*
X1175496Y810002D01*
X1174998Y809504D01*
X1174728Y808852D01*
Y808148D01*
X1174998Y807496D01*
X1175496Y806998D01*
X1176148Y806728D01*
X1176852D01*
X1177504Y806998D01*
X1178002Y807496D01*
X1178272Y808148D01*
Y808852D01*
X1178002Y809504D01*
X1177504Y810002D01*
X1176852Y810272D01*
D02*
G37*
G36*
X1182352Y804272D02*
X1181648D01*
X1180996Y804002D01*
X1180699Y803704D01*
X1135000D01*
X1135000Y803704D01*
X1134539Y803613D01*
X1134149Y803351D01*
X1134149Y803351D01*
X1131615Y800818D01*
X1131154D01*
X1130502Y800548D01*
X1130004Y800050D01*
X1129734Y799399D01*
Y798694D01*
X1130004Y798043D01*
X1130502Y797544D01*
X1131154Y797275D01*
X1131858D01*
X1132510Y797544D01*
X1133008Y798043D01*
X1133278Y798694D01*
Y799075D01*
X1135499Y801296D01*
X1180699D01*
X1180996Y800998D01*
X1181648Y800728D01*
X1182352D01*
X1183004Y800998D01*
X1183502Y801496D01*
X1183772Y802148D01*
Y802852D01*
X1183502Y803504D01*
X1183004Y804002D01*
X1182352Y804272D01*
D02*
G37*
G36*
X1117352Y802772D02*
X1116648D01*
X1115996Y802502D01*
X1115498Y802004D01*
X1115228Y801352D01*
Y800648D01*
X1115498Y799996D01*
X1115996Y799498D01*
X1116648Y799228D01*
X1117352D01*
X1118004Y799498D01*
X1118502Y799996D01*
X1118772Y800648D01*
Y801352D01*
X1118502Y802004D01*
X1118004Y802502D01*
X1117352Y802772D01*
D02*
G37*
G36*
X1191352Y800772D02*
X1190648D01*
X1189996Y800502D01*
X1189498Y800004D01*
X1189228Y799352D01*
Y798648D01*
X1189498Y797996D01*
X1189996Y797498D01*
X1190648Y797228D01*
X1191352D01*
X1192004Y797498D01*
X1192502Y797996D01*
X1192772Y798648D01*
Y799352D01*
X1192502Y800004D01*
X1192004Y800502D01*
X1191352Y800772D01*
D02*
G37*
G36*
X1181852Y798772D02*
X1181148D01*
X1180496Y798502D01*
X1180199Y798204D01*
X1154000D01*
X1153539Y798113D01*
X1153148Y797852D01*
X1153148Y797852D01*
X1150069Y794772D01*
X1149648D01*
X1148996Y794502D01*
X1148498Y794004D01*
X1148228Y793352D01*
Y792648D01*
X1148391Y792256D01*
X1148070Y791772D01*
X1147648D01*
X1146996Y791502D01*
X1146676Y791182D01*
X1146108Y791258D01*
X1146102Y791261D01*
X1146002Y791504D01*
X1145504Y792002D01*
X1144852Y792272D01*
X1144148D01*
X1143496Y792002D01*
X1142998Y791504D01*
X1142728Y790852D01*
Y790148D01*
X1142998Y789496D01*
X1143496Y788998D01*
X1144148Y788728D01*
X1144852D01*
X1145504Y788998D01*
X1145824Y789318D01*
X1146392Y789242D01*
X1146398Y789239D01*
X1146498Y788996D01*
X1146996Y788498D01*
X1147648Y788228D01*
X1148352D01*
X1149004Y788498D01*
X1149502Y788996D01*
X1149772Y789648D01*
Y790352D01*
X1149609Y790744D01*
X1149930Y791228D01*
X1150352D01*
X1151004Y791498D01*
X1151502Y791996D01*
X1151772Y792648D01*
Y793069D01*
X1154499Y795796D01*
X1176137D01*
X1176412Y795296D01*
X1176228Y794852D01*
Y794148D01*
X1176498Y793496D01*
X1176996Y792998D01*
X1177648Y792728D01*
X1178352D01*
X1179004Y792998D01*
X1179502Y793496D01*
X1179772Y794148D01*
Y794852D01*
X1179634Y795184D01*
X1179899Y795638D01*
X1180315Y795680D01*
X1180496Y795498D01*
X1181148Y795228D01*
X1181852D01*
X1182504Y795498D01*
X1183002Y795996D01*
X1183272Y796648D01*
Y797352D01*
X1183002Y798004D01*
X1182504Y798502D01*
X1181852Y798772D01*
D02*
G37*
G36*
X1136352Y798272D02*
X1135648D01*
X1134996Y798002D01*
X1134498Y797504D01*
X1134228Y796852D01*
Y796148D01*
X1134498Y795496D01*
X1134996Y794998D01*
X1135648Y794728D01*
X1136352D01*
X1137004Y794998D01*
X1137502Y795496D01*
X1137772Y796148D01*
Y796852D01*
X1137502Y797504D01*
X1137004Y798002D01*
X1136352Y798272D01*
D02*
G37*
G36*
X1055352D02*
X1054648D01*
X1053996Y798002D01*
X1053498Y797504D01*
X1053228Y796852D01*
Y796148D01*
X1053498Y795496D01*
X1053996Y794998D01*
X1054648Y794728D01*
X1055352D01*
X1056004Y794998D01*
X1056502Y795496D01*
X1056772Y796148D01*
Y796852D01*
X1056502Y797504D01*
X1056004Y798002D01*
X1055352Y798272D01*
D02*
G37*
G36*
X1064852Y794272D02*
X1064148D01*
X1063496Y794002D01*
X1063199Y793704D01*
X1031015D01*
X1030852Y793772D01*
X1030148D01*
X1029496Y793502D01*
X1028998Y793004D01*
X1028728Y792352D01*
Y791648D01*
X1028998Y790996D01*
X1029496Y790498D01*
X1030148Y790228D01*
X1030852D01*
X1031504Y790498D01*
X1032002Y790996D01*
X1032126Y791296D01*
X1063199D01*
X1063496Y790998D01*
X1064148Y790728D01*
X1064852D01*
X1065504Y790998D01*
X1066002Y791496D01*
X1066272Y792148D01*
Y792852D01*
X1066002Y793504D01*
X1065504Y794002D01*
X1064852Y794272D01*
D02*
G37*
G36*
X1133919Y794648D02*
X1133214D01*
X1132563Y794378D01*
X1132065Y793880D01*
X1131795Y793229D01*
Y792524D01*
X1132065Y791873D01*
X1132563Y791374D01*
X1133214Y791105D01*
X1133919D01*
X1134570Y791374D01*
X1135069Y791873D01*
X1135338Y792524D01*
Y793229D01*
X1135069Y793880D01*
X1134570Y794378D01*
X1133919Y794648D01*
D02*
G37*
G36*
X1194852Y794272D02*
X1194148D01*
X1193496Y794002D01*
X1192998Y793504D01*
X1192728Y792852D01*
Y792148D01*
X1192998Y791496D01*
X1193496Y790998D01*
X1194148Y790728D01*
X1194852D01*
X1195504Y790998D01*
X1196002Y791496D01*
X1196272Y792148D01*
Y792852D01*
X1196002Y793504D01*
X1195504Y794002D01*
X1194852Y794272D01*
D02*
G37*
G36*
X1181852Y793272D02*
X1181148D01*
X1180496Y793002D01*
X1179998Y792504D01*
X1179728Y791852D01*
Y791148D01*
X1179998Y790496D01*
X1180496Y789998D01*
X1181148Y789728D01*
X1181852D01*
X1182504Y789998D01*
X1183002Y790496D01*
X1183272Y791148D01*
Y791852D01*
X1183002Y792504D01*
X1182504Y793002D01*
X1181852Y793272D01*
D02*
G37*
G36*
X1153852Y791772D02*
X1153148D01*
X1152496Y791502D01*
X1151998Y791004D01*
X1151728Y790352D01*
Y789648D01*
X1151998Y788996D01*
X1152496Y788498D01*
X1153148Y788228D01*
X1153852D01*
X1154504Y788498D01*
X1155002Y788996D01*
X1155272Y789648D01*
Y790352D01*
X1155002Y791004D01*
X1154504Y791502D01*
X1153852Y791772D01*
D02*
G37*
G36*
X1122400Y789173D02*
X1121695D01*
X1121044Y788904D01*
X1120545Y788405D01*
X1120276Y787754D01*
Y787049D01*
X1120545Y786398D01*
X1121044Y785900D01*
X1121695Y785630D01*
X1122400D01*
X1123051Y785900D01*
X1123549Y786398D01*
X1123819Y787049D01*
Y787754D01*
X1123549Y788405D01*
X1123051Y788904D01*
X1122400Y789173D01*
D02*
G37*
G36*
X1102715D02*
X1102010D01*
X1101359Y788904D01*
X1100860Y788405D01*
X1100591Y787754D01*
Y787049D01*
X1100860Y786398D01*
X1101359Y785900D01*
X1102010Y785630D01*
X1102715D01*
X1103366Y785900D01*
X1103864Y786398D01*
X1104134Y787049D01*
Y787754D01*
X1103864Y788405D01*
X1103366Y788904D01*
X1102715Y789173D01*
D02*
G37*
G36*
X1043659D02*
X1042955D01*
X1042304Y788904D01*
X1041805Y788405D01*
X1041535Y787754D01*
Y787049D01*
X1041805Y786398D01*
X1042304Y785900D01*
X1042955Y785630D01*
X1043659D01*
X1044311Y785900D01*
X1044809Y786398D01*
X1045079Y787049D01*
Y787754D01*
X1044809Y788405D01*
X1044311Y788904D01*
X1043659Y789173D01*
D02*
G37*
G36*
X1001352Y788272D02*
X1000648D01*
X999996Y788002D01*
X999498Y787504D01*
X999228Y786852D01*
Y786148D01*
X999498Y785496D01*
X999996Y784998D01*
X1000648Y784728D01*
X1001352D01*
X1002004Y784998D01*
X1002502Y785496D01*
X1002772Y786148D01*
Y786852D01*
X1002502Y787504D01*
X1002004Y788002D01*
X1001352Y788272D01*
D02*
G37*
G36*
X1175852Y782272D02*
X1175148D01*
X1174496Y782002D01*
X1174199Y781704D01*
X1157301D01*
X1157004Y782002D01*
X1156352Y782272D01*
X1155648D01*
X1154996Y782002D01*
X1154498Y781504D01*
X1154228Y780852D01*
Y780148D01*
X1154498Y779496D01*
X1154996Y778998D01*
X1155648Y778728D01*
X1155794Y778510D01*
X1155728Y778352D01*
Y777648D01*
X1155873Y777298D01*
X1155491Y776915D01*
X1155337Y776978D01*
X1154633D01*
X1153981Y776709D01*
X1153483Y776210D01*
X1153213Y775559D01*
Y774854D01*
X1153483Y774203D01*
X1153981Y773705D01*
X1154633Y773435D01*
X1155337D01*
X1155447Y773481D01*
X1155830Y773098D01*
X1155728Y772852D01*
Y772148D01*
X1155998Y771496D01*
X1156496Y770998D01*
X1157148Y770728D01*
X1157852D01*
X1158504Y770998D01*
X1159002Y771496D01*
X1159272Y772148D01*
Y772852D01*
X1159002Y773504D01*
X1158504Y774002D01*
X1157852Y774272D01*
X1157148D01*
X1157038Y774226D01*
X1156655Y774609D01*
X1156757Y774854D01*
Y775559D01*
X1156612Y775909D01*
X1156994Y776292D01*
X1157148Y776228D01*
X1157852D01*
X1158504Y776498D01*
X1159002Y776996D01*
X1159272Y777648D01*
Y778352D01*
X1159088Y778796D01*
X1159363Y779296D01*
X1174199D01*
X1174496Y778998D01*
X1175148Y778728D01*
X1175852D01*
X1176504Y778998D01*
X1177002Y779496D01*
X1177272Y780148D01*
Y780852D01*
X1177002Y781504D01*
X1176504Y782002D01*
X1175852Y782272D01*
D02*
G37*
G36*
X1182352D02*
X1181648D01*
X1180996Y782002D01*
X1180498Y781504D01*
X1180228Y780852D01*
Y780148D01*
X1180498Y779496D01*
X1180996Y778998D01*
X1181648Y778728D01*
X1182352D01*
X1183004Y778998D01*
X1183502Y779496D01*
X1183772Y780148D01*
Y780852D01*
X1183502Y781504D01*
X1183004Y782002D01*
X1182352Y782272D01*
D02*
G37*
G36*
X1165852Y778772D02*
X1165148D01*
X1164496Y778502D01*
X1163998Y778004D01*
X1163728Y777352D01*
Y776648D01*
X1163998Y775996D01*
X1164496Y775498D01*
X1165148Y775228D01*
X1165852D01*
X1166504Y775498D01*
X1167002Y775996D01*
X1167272Y776648D01*
Y777352D01*
X1167002Y778004D01*
X1166504Y778502D01*
X1165852Y778772D01*
D02*
G37*
G36*
X1175352Y775772D02*
X1174648D01*
X1173996Y775502D01*
X1173498Y775004D01*
X1173228Y774352D01*
Y773648D01*
X1173498Y772996D01*
X1173996Y772498D01*
X1174648Y772228D01*
X1175352D01*
X1176004Y772498D01*
X1176502Y772996D01*
X1176772Y773648D01*
Y774352D01*
X1176502Y775004D01*
X1176004Y775502D01*
X1175352Y775772D01*
D02*
G37*
G36*
X1132242Y769488D02*
X1131537D01*
X1130886Y769218D01*
X1130388Y768720D01*
X1130118Y768069D01*
Y767364D01*
X1130388Y766713D01*
X1130886Y766215D01*
X1131537Y765945D01*
X1132242D01*
X1132893Y766215D01*
X1133392Y766713D01*
X1133661Y767364D01*
Y768069D01*
X1133392Y768720D01*
X1132893Y769218D01*
X1132242Y769488D01*
D02*
G37*
G36*
X1112557D02*
X1111852D01*
X1111201Y769218D01*
X1110703Y768720D01*
X1110433Y768069D01*
Y767364D01*
X1110703Y766713D01*
X1111201Y766215D01*
X1111852Y765945D01*
X1112557D01*
X1113208Y766215D01*
X1113707Y766713D01*
X1113976Y767364D01*
Y768069D01*
X1113707Y768720D01*
X1113208Y769218D01*
X1112557Y769488D01*
D02*
G37*
G36*
X1073187D02*
X1072482D01*
X1071831Y769218D01*
X1071333Y768720D01*
X1071063Y768069D01*
Y767364D01*
X1071333Y766713D01*
X1071831Y766215D01*
X1072482Y765945D01*
X1073187D01*
X1073838Y766215D01*
X1074337Y766713D01*
X1074606Y767364D01*
Y768069D01*
X1074337Y768720D01*
X1073838Y769218D01*
X1073187Y769488D01*
D02*
G37*
G36*
X1033817D02*
X1033112D01*
X1032461Y769218D01*
X1031963Y768720D01*
X1031693Y768069D01*
Y767364D01*
X1031963Y766713D01*
X1032461Y766215D01*
X1033112Y765945D01*
X1033817D01*
X1034468Y766215D01*
X1034966Y766713D01*
X1035236Y767364D01*
Y768069D01*
X1034966Y768720D01*
X1034468Y769218D01*
X1033817Y769488D01*
D02*
G37*
G36*
X994447D02*
X993742D01*
X993091Y769218D01*
X992593Y768720D01*
X992323Y768069D01*
Y767364D01*
X992593Y766713D01*
X993091Y766215D01*
X993742Y765945D01*
X994447D01*
X995098Y766215D01*
X995597Y766713D01*
X995866Y767364D01*
Y768069D01*
X995597Y768720D01*
X995098Y769218D01*
X994447Y769488D01*
D02*
G37*
G36*
X974762D02*
X974057D01*
X973406Y769218D01*
X972908Y768720D01*
X972638Y768069D01*
Y767364D01*
X972908Y766713D01*
X973406Y766215D01*
X974057Y765945D01*
X974762D01*
X975413Y766215D01*
X975911Y766713D01*
X976181Y767364D01*
Y768069D01*
X975911Y768720D01*
X975413Y769218D01*
X974762Y769488D01*
D02*
G37*
G36*
X1101352Y768772D02*
X1100648D01*
X1099996Y768502D01*
X1099498Y768004D01*
X1099228Y767352D01*
Y766648D01*
X1099498Y765996D01*
X1099996Y765498D01*
X1100648Y765228D01*
X1101352D01*
X1102004Y765498D01*
X1102502Y765996D01*
X1102772Y766648D01*
Y767352D01*
X1102502Y768004D01*
X1102004Y768502D01*
X1101352Y768772D01*
D02*
G37*
G36*
X1194852Y759772D02*
X1194148D01*
X1193496Y759502D01*
X1193199Y759204D01*
X1163679D01*
X1163381Y759502D01*
X1162730Y759772D01*
X1162026D01*
X1161374Y759502D01*
X1160876Y759004D01*
X1160606Y758352D01*
Y757648D01*
X1160876Y756996D01*
X1161374Y756498D01*
X1162026Y756228D01*
X1162730D01*
X1163381Y756498D01*
X1163679Y756796D01*
X1170137D01*
X1170412Y756296D01*
X1170228Y755852D01*
Y755148D01*
X1170498Y754496D01*
X1170996Y753998D01*
X1171648Y753728D01*
X1172352D01*
X1173004Y753998D01*
X1173502Y754496D01*
X1173772Y755148D01*
Y755852D01*
X1173588Y756296D01*
X1173863Y756796D01*
X1193199D01*
X1193496Y756498D01*
X1194148Y756228D01*
X1194852D01*
X1195504Y756498D01*
X1196002Y756996D01*
X1196272Y757648D01*
Y758352D01*
X1196002Y759004D01*
X1195504Y759502D01*
X1194852Y759772D01*
D02*
G37*
G36*
X972852Y756272D02*
X972148D01*
X971496Y756002D01*
X970998Y755504D01*
X970728Y754852D01*
Y754148D01*
X970998Y753496D01*
X971496Y752998D01*
X972148Y752728D01*
X972852D01*
X973504Y752998D01*
X973801Y753296D01*
X1074874D01*
X1074998Y752996D01*
X1075496Y752498D01*
X1076148Y752228D01*
X1076852D01*
X1077504Y752498D01*
X1078002Y752996D01*
X1078272Y753648D01*
Y754352D01*
X1078002Y755004D01*
X1077504Y755502D01*
X1076852Y755772D01*
X1076148D01*
X1075985Y755704D01*
X973801D01*
X973504Y756002D01*
X972852Y756272D01*
D02*
G37*
G36*
X1186852Y754272D02*
X1186148D01*
X1185496Y754002D01*
X1184998Y753504D01*
X1184728Y752852D01*
Y752148D01*
X1184998Y751496D01*
X1185496Y750998D01*
X1186148Y750728D01*
X1186852D01*
X1187504Y750998D01*
X1188002Y751496D01*
X1188272Y752148D01*
Y752852D01*
X1188002Y753504D01*
X1187504Y754002D01*
X1186852Y754272D01*
D02*
G37*
G36*
X1122400Y749803D02*
X1121695D01*
X1121044Y749533D01*
X1120545Y749035D01*
X1120276Y748384D01*
Y747679D01*
X1120545Y747028D01*
X1121044Y746530D01*
X1121695Y746260D01*
X1122400D01*
X1123051Y746530D01*
X1123549Y747028D01*
X1123819Y747679D01*
Y748384D01*
X1123549Y749035D01*
X1123051Y749533D01*
X1122400Y749803D01*
D02*
G37*
G36*
X1083030D02*
X1082325D01*
X1081674Y749533D01*
X1081175Y749035D01*
X1080906Y748384D01*
Y747679D01*
X1081175Y747028D01*
X1081674Y746530D01*
X1082325Y746260D01*
X1083030D01*
X1083681Y746530D01*
X1084179Y747028D01*
X1084449Y747679D01*
Y748384D01*
X1084179Y749035D01*
X1083681Y749533D01*
X1083030Y749803D01*
D02*
G37*
G36*
X1043659D02*
X1042955D01*
X1042304Y749533D01*
X1041805Y749035D01*
X1041535Y748384D01*
Y747679D01*
X1041805Y747028D01*
X1042304Y746530D01*
X1042955Y746260D01*
X1043659D01*
X1044311Y746530D01*
X1044809Y747028D01*
X1045079Y747679D01*
Y748384D01*
X1044809Y749035D01*
X1044311Y749533D01*
X1043659Y749803D01*
D02*
G37*
G36*
X1023975D02*
X1023270D01*
X1022618Y749533D01*
X1022120Y749035D01*
X1021850Y748384D01*
Y747679D01*
X1022120Y747028D01*
X1022618Y746530D01*
X1023270Y746260D01*
X1023975D01*
X1024626Y746530D01*
X1025124Y747028D01*
X1025394Y747679D01*
Y748384D01*
X1025124Y749035D01*
X1024626Y749533D01*
X1023975Y749803D01*
D02*
G37*
G36*
X964919D02*
X964215D01*
X963563Y749533D01*
X963065Y749035D01*
X962795Y748384D01*
Y747679D01*
X963065Y747028D01*
X963563Y746530D01*
X964215Y746260D01*
X964919D01*
X965571Y746530D01*
X966069Y747028D01*
X966339Y747679D01*
Y748384D01*
X966069Y749035D01*
X965571Y749533D01*
X964919Y749803D01*
D02*
G37*
G36*
X945234D02*
X944530D01*
X943878Y749533D01*
X943380Y749035D01*
X943110Y748384D01*
Y747679D01*
X943380Y747028D01*
X943878Y746530D01*
X944530Y746260D01*
X945234D01*
X945885Y746530D01*
X946384Y747028D01*
X946654Y747679D01*
Y748384D01*
X946384Y749035D01*
X945885Y749533D01*
X945234Y749803D01*
D02*
G37*
G36*
X1182352Y749272D02*
X1181648D01*
X1180996Y749002D01*
X1180498Y748504D01*
X1180228Y747852D01*
Y747148D01*
X1180498Y746496D01*
X1180996Y745998D01*
X1181648Y745728D01*
X1182352D01*
X1183004Y745998D01*
X1183502Y746496D01*
X1183772Y747148D01*
Y747852D01*
X1183502Y748504D01*
X1183004Y749002D01*
X1182352Y749272D01*
D02*
G37*
G36*
X1157975Y750393D02*
X1157270D01*
X1156618Y750123D01*
X1156120Y749624D01*
X1155850Y748973D01*
Y748269D01*
X1156120Y747617D01*
X1156618Y747119D01*
X1157270Y746849D01*
X1157975D01*
X1158626Y747119D01*
X1158923Y747417D01*
X1159877D01*
X1160181Y747356D01*
X1160593D01*
X1160927Y746856D01*
X1160794Y746535D01*
Y745830D01*
X1161064Y745179D01*
X1161562Y744681D01*
X1162213Y744411D01*
X1162918D01*
X1163569Y744681D01*
X1164068Y745179D01*
X1164230Y745570D01*
X1164567Y745811D01*
X1164821Y745791D01*
X1165293Y745595D01*
X1165998D01*
X1166649Y745865D01*
X1167148Y746363D01*
X1167417Y747014D01*
Y747719D01*
X1167148Y748370D01*
X1166649Y748869D01*
X1165998Y749138D01*
X1165293D01*
X1165268Y749128D01*
X1164984Y749412D01*
X1164593Y749673D01*
X1164132Y749765D01*
X1164132Y749765D01*
X1160425D01*
X1160121Y749825D01*
X1160121Y749825D01*
X1158923D01*
X1158626Y750123D01*
X1157975Y750393D01*
D02*
G37*
G36*
X1150352Y748772D02*
X1149648D01*
X1148996Y748502D01*
X1148498Y748004D01*
X1148228Y747352D01*
Y746648D01*
X1148498Y745996D01*
X1148996Y745498D01*
X1149648Y745228D01*
X1150352D01*
X1151004Y745498D01*
X1151502Y745996D01*
X1151772Y746648D01*
Y747352D01*
X1151502Y748004D01*
X1151004Y748502D01*
X1150352Y748772D01*
D02*
G37*
G36*
X1141531Y749535D02*
X1140469D01*
X1139442Y749260D01*
X1138522Y748729D01*
X1137771Y747978D01*
X1137240Y747058D01*
X1136965Y746031D01*
Y744969D01*
X1137240Y743942D01*
X1137771Y743022D01*
X1138522Y742271D01*
X1139442Y741740D01*
X1140469Y741465D01*
X1141531D01*
X1142558Y741740D01*
X1143478Y742271D01*
X1144229Y743022D01*
X1144760Y743942D01*
X1145035Y744969D01*
Y746031D01*
X1144760Y747058D01*
X1144229Y747978D01*
X1143478Y748729D01*
X1142558Y749260D01*
X1141531Y749535D01*
D02*
G37*
G36*
X1178852Y743772D02*
X1178148D01*
X1177496Y743502D01*
X1176998Y743004D01*
X1176728Y742352D01*
Y741648D01*
X1176998Y740996D01*
X1177496Y740498D01*
X1178148Y740228D01*
X1178852D01*
X1179504Y740498D01*
X1180002Y740996D01*
X1180272Y741648D01*
Y742352D01*
X1180002Y743004D01*
X1179504Y743502D01*
X1178852Y743772D01*
D02*
G37*
G36*
X1047954Y740067D02*
X1047046D01*
X1046170Y739832D01*
X1045385Y739379D01*
X1044743Y738737D01*
X1044290Y737952D01*
X1044256Y737826D01*
X1003740D01*
X1003337Y738230D01*
X1002946Y738490D01*
X1002485Y738582D01*
X1002485Y738582D01*
X1000515D01*
X1000054Y738490D01*
X999664Y738230D01*
X999664Y738229D01*
X999260Y737826D01*
X993622D01*
X993161Y737735D01*
X992770Y737474D01*
X992770Y737473D01*
X991569Y736272D01*
X991148D01*
X990496Y736002D01*
X989998Y735504D01*
X989728Y734852D01*
Y734148D01*
X989998Y733496D01*
X990496Y732998D01*
X991148Y732728D01*
X991852D01*
X992504Y732998D01*
X993002Y733496D01*
X993272Y734148D01*
Y734569D01*
X994121Y735418D01*
X999685D01*
X999728Y735352D01*
Y734648D01*
X999998Y733996D01*
X1000496Y733498D01*
X1001148Y733228D01*
X1001852D01*
X1002504Y733498D01*
X1003002Y733996D01*
X1003272Y734648D01*
Y735352D01*
X1003315Y735418D01*
X1044256D01*
X1044290Y735292D01*
X1044743Y734507D01*
X1045385Y733865D01*
X1046170Y733412D01*
X1047046Y733177D01*
X1047954D01*
X1048830Y733412D01*
X1049615Y733865D01*
X1050257Y734507D01*
X1050710Y735292D01*
X1050945Y736168D01*
Y737076D01*
X1050710Y737952D01*
X1050257Y738737D01*
X1049615Y739379D01*
X1048830Y739832D01*
X1047954Y740067D01*
D02*
G37*
G36*
X1157815Y740822D02*
X1157111D01*
X1156460Y740552D01*
X1155961Y740054D01*
X1155692Y739403D01*
Y738698D01*
X1155961Y738047D01*
X1156460Y737548D01*
X1157111Y737279D01*
X1157815D01*
X1158467Y737548D01*
X1158965Y738047D01*
X1159235Y738698D01*
Y739403D01*
X1158965Y740054D01*
X1158467Y740552D01*
X1157815Y740822D01*
D02*
G37*
G36*
X1149852Y738772D02*
X1149148D01*
X1148496Y738502D01*
X1147998Y738004D01*
X1147728Y737352D01*
Y736648D01*
X1147998Y735996D01*
X1148496Y735498D01*
X1149148Y735228D01*
X1149852D01*
X1150504Y735498D01*
X1151002Y735996D01*
X1151272Y736648D01*
Y737352D01*
X1151002Y738004D01*
X1150504Y738502D01*
X1149852Y738772D01*
D02*
G37*
G36*
X1141531Y739535D02*
X1140469D01*
X1139442Y739260D01*
X1138522Y738729D01*
X1137771Y737978D01*
X1137240Y737058D01*
X1136965Y736031D01*
Y734969D01*
X1137240Y733942D01*
X1137771Y733022D01*
X1138522Y732271D01*
X1139442Y731740D01*
X1140469Y731465D01*
X1141531D01*
X1142558Y731740D01*
X1143478Y732271D01*
X1144229Y733022D01*
X1144760Y733942D01*
X1145035Y734969D01*
Y736031D01*
X1144760Y737058D01*
X1144229Y737978D01*
X1143478Y738729D01*
X1142558Y739260D01*
X1141531Y739535D01*
D02*
G37*
G36*
X1131531D02*
X1130469D01*
X1129442Y739260D01*
X1128522Y738729D01*
X1127771Y737978D01*
X1127240Y737058D01*
X1126965Y736031D01*
Y734969D01*
X1127240Y733942D01*
X1127771Y733022D01*
X1128522Y732271D01*
X1129442Y731740D01*
X1130469Y731465D01*
X1131531D01*
X1132558Y731740D01*
X1133478Y732271D01*
X1134229Y733022D01*
X1134760Y733942D01*
X1135035Y734969D01*
Y736031D01*
X1134760Y737058D01*
X1134229Y737978D01*
X1133478Y738729D01*
X1132558Y739260D01*
X1131531Y739535D01*
D02*
G37*
G36*
X1047954Y732193D02*
X1047046D01*
X1046170Y731958D01*
X1045385Y731505D01*
X1044743Y730863D01*
X1044293Y730082D01*
X979878D01*
X979878Y730082D01*
X979417Y729990D01*
X979026Y729730D01*
X974569Y725272D01*
X974148D01*
X973496Y725002D01*
X972998Y724504D01*
X972728Y723852D01*
Y723148D01*
X972998Y722496D01*
X973496Y721998D01*
X974148Y721728D01*
X974852D01*
X975504Y721998D01*
X976002Y722496D01*
X976272Y723148D01*
Y723569D01*
X980377Y727674D01*
X995862D01*
X996196Y727174D01*
X996063Y726852D01*
Y726148D01*
X996333Y725496D01*
X996831Y724998D01*
X997482Y724728D01*
X998187D01*
X998838Y724998D01*
X999337Y725496D01*
X999606Y726148D01*
Y726852D01*
X999473Y727174D01*
X999807Y727674D01*
X1044221D01*
X1044290Y727418D01*
X1044743Y726633D01*
X1045385Y725991D01*
X1046170Y725538D01*
X1047046Y725303D01*
X1047954D01*
X1048830Y725538D01*
X1049615Y725991D01*
X1050257Y726633D01*
X1050710Y727418D01*
X1050945Y728295D01*
Y729202D01*
X1050710Y730078D01*
X1050257Y730863D01*
X1049615Y731505D01*
X1048830Y731958D01*
X1047954Y732193D01*
D02*
G37*
G36*
X1112557Y730118D02*
X1111852D01*
X1111201Y729848D01*
X1110703Y729350D01*
X1110433Y728699D01*
Y727994D01*
X1110703Y727343D01*
X1111201Y726845D01*
X1111852Y726575D01*
X1112557D01*
X1113208Y726845D01*
X1113707Y727343D01*
X1113976Y727994D01*
Y728699D01*
X1113707Y729350D01*
X1113208Y729848D01*
X1112557Y730118D01*
D02*
G37*
G36*
X1092872D02*
X1092167D01*
X1091516Y729848D01*
X1091018Y729350D01*
X1090748Y728699D01*
Y727994D01*
X1091018Y727343D01*
X1091516Y726845D01*
X1092167Y726575D01*
X1092872D01*
X1093523Y726845D01*
X1094022Y727343D01*
X1094291Y727994D01*
Y728699D01*
X1094022Y729350D01*
X1093523Y729848D01*
X1092872Y730118D01*
D02*
G37*
G36*
X1073187D02*
X1072482D01*
X1071831Y729848D01*
X1071333Y729350D01*
X1071063Y728699D01*
Y727994D01*
X1071333Y727343D01*
X1071831Y726845D01*
X1072482Y726575D01*
X1073187D01*
X1073838Y726845D01*
X1074337Y727343D01*
X1074606Y727994D01*
Y728699D01*
X1074337Y729350D01*
X1073838Y729848D01*
X1073187Y730118D01*
D02*
G37*
G36*
X1141531Y729535D02*
X1140469D01*
X1139442Y729260D01*
X1138522Y728729D01*
X1137771Y727978D01*
X1137240Y727058D01*
X1136965Y726031D01*
Y724969D01*
X1137240Y723942D01*
X1137771Y723022D01*
X1138522Y722271D01*
X1139442Y721740D01*
X1140469Y721465D01*
X1141531D01*
X1142558Y721740D01*
X1143478Y722271D01*
X1144229Y723022D01*
X1144760Y723942D01*
X1144855Y724296D01*
X1154699D01*
X1154996Y723998D01*
X1155648Y723728D01*
X1156352D01*
X1157004Y723998D01*
X1157502Y724496D01*
X1157772Y725148D01*
Y725852D01*
X1157502Y726504D01*
X1157004Y727002D01*
X1156352Y727272D01*
X1155648D01*
X1154996Y727002D01*
X1154699Y726704D01*
X1144855D01*
X1144760Y727058D01*
X1144229Y727978D01*
X1143478Y728729D01*
X1142558Y729260D01*
X1141531Y729535D01*
D02*
G37*
G36*
X993852Y725272D02*
X993148D01*
X992496Y725002D01*
X991998Y724504D01*
X991728Y723852D01*
Y723148D01*
X991998Y722496D01*
X992496Y721998D01*
X993148Y721728D01*
X993852D01*
X994504Y721998D01*
X995002Y722496D01*
X995272Y723148D01*
Y723852D01*
X995002Y724504D01*
X994504Y725002D01*
X993852Y725272D01*
D02*
G37*
G36*
X1131531Y729535D02*
X1130469D01*
X1129442Y729260D01*
X1128522Y728729D01*
X1127771Y727978D01*
X1127240Y727058D01*
X1126965Y726031D01*
Y724969D01*
X1127240Y723942D01*
X1127771Y723022D01*
X1128522Y722271D01*
X1129442Y721740D01*
X1130469Y721465D01*
X1131531D01*
X1132558Y721740D01*
X1133478Y722271D01*
X1134229Y723022D01*
X1134760Y723942D01*
X1135035Y724969D01*
Y726031D01*
X1134760Y727058D01*
X1134229Y727978D01*
X1133478Y728729D01*
X1132558Y729260D01*
X1131531Y729535D01*
D02*
G37*
G36*
X1047954Y724319D02*
X1047046D01*
X1046170Y724084D01*
X1045385Y723631D01*
X1044743Y722989D01*
X1044290Y722204D01*
X1044055Y721327D01*
Y720421D01*
X1044290Y719544D01*
X1044743Y718759D01*
X1045385Y718117D01*
X1046170Y717664D01*
X1047046Y717429D01*
X1047954D01*
X1048830Y717664D01*
X1049615Y718117D01*
X1050257Y718759D01*
X1050710Y719544D01*
X1050945Y720421D01*
Y721327D01*
X1050710Y722204D01*
X1050257Y722989D01*
X1049615Y723631D01*
X1048830Y724084D01*
X1047954Y724319D01*
D02*
G37*
G36*
X1028852Y719272D02*
X1028148D01*
X1027496Y719002D01*
X1026998Y718504D01*
X1026728Y717852D01*
Y717148D01*
X1026998Y716496D01*
X1027496Y715998D01*
X1028148Y715728D01*
X1028852D01*
X1029504Y715998D01*
X1030002Y716496D01*
X1030272Y717148D01*
Y717852D01*
X1030002Y718504D01*
X1029504Y719002D01*
X1028852Y719272D01*
D02*
G37*
G36*
X975352Y717772D02*
X974648D01*
X973996Y717502D01*
X973498Y717004D01*
X973228Y716352D01*
Y715648D01*
X973498Y714996D01*
X973996Y714498D01*
X974648Y714228D01*
X975352D01*
X976004Y714498D01*
X976502Y714996D01*
X976772Y715648D01*
Y716352D01*
X976502Y717004D01*
X976004Y717502D01*
X975352Y717772D01*
D02*
G37*
G36*
X1034352Y717272D02*
X1033648D01*
X1032996Y717002D01*
X1032498Y716504D01*
X1032228Y715852D01*
Y715148D01*
X1032498Y714496D01*
X1032996Y713998D01*
X1033648Y713728D01*
X1034352D01*
X1035004Y713998D01*
X1035502Y714496D01*
X1035772Y715148D01*
Y715852D01*
X1035502Y716504D01*
X1035004Y717002D01*
X1034352Y717272D01*
D02*
G37*
G36*
X1141531Y719535D02*
X1140469D01*
X1139442Y719260D01*
X1138522Y718729D01*
X1137771Y717978D01*
X1137240Y717058D01*
X1136965Y716031D01*
Y714969D01*
X1137240Y713942D01*
X1137771Y713022D01*
X1138522Y712271D01*
X1139442Y711740D01*
X1140469Y711465D01*
X1141531D01*
X1142558Y711740D01*
X1143478Y712271D01*
X1144229Y713022D01*
X1144760Y713942D01*
X1144855Y714296D01*
X1178939D01*
X1179228Y714006D01*
Y713648D01*
X1179498Y712996D01*
X1179996Y712498D01*
X1180648Y712228D01*
X1181352D01*
X1182004Y712498D01*
X1182502Y712996D01*
X1182772Y713648D01*
Y714352D01*
X1182502Y715004D01*
X1182004Y715502D01*
X1181352Y715772D01*
X1180869D01*
X1180289Y716352D01*
X1179899Y716613D01*
X1179438Y716704D01*
X1179438Y716704D01*
X1144855D01*
X1144760Y717058D01*
X1144229Y717978D01*
X1143478Y718729D01*
X1142558Y719260D01*
X1141531Y719535D01*
D02*
G37*
G36*
X1131531D02*
X1130469D01*
X1129442Y719260D01*
X1128522Y718729D01*
X1127771Y717978D01*
X1127240Y717058D01*
X1126965Y716031D01*
Y714969D01*
X1127240Y713942D01*
X1127771Y713022D01*
X1128522Y712271D01*
X1129442Y711740D01*
X1130469Y711465D01*
X1131531D01*
X1132558Y711740D01*
X1133478Y712271D01*
X1134229Y713022D01*
X1134760Y713942D01*
X1135035Y714969D01*
Y716031D01*
X1134760Y717058D01*
X1134229Y717978D01*
X1133478Y718729D01*
X1132558Y719260D01*
X1131531Y719535D01*
D02*
G37*
G36*
X1026352Y714772D02*
X1025648D01*
X1024996Y714502D01*
X1024498Y714004D01*
X1024228Y713352D01*
Y712648D01*
X1024498Y711996D01*
X1024996Y711498D01*
X1025648Y711228D01*
X1026352D01*
X1027004Y711498D01*
X1027502Y711996D01*
X1027772Y712648D01*
Y713352D01*
X1027502Y714004D01*
X1027004Y714502D01*
X1026352Y714772D01*
D02*
G37*
G36*
X1001852Y715272D02*
X1001148D01*
X1000496Y715002D01*
X999998Y714504D01*
X999728Y713852D01*
Y713148D01*
X999998Y712496D01*
X1000496Y711998D01*
X1001148Y711728D01*
X1001516D01*
X1001723Y711228D01*
X1001498Y711004D01*
X1001413Y710799D01*
X1001003Y710502D01*
X1000352Y710772D01*
X999648D01*
X998996Y710502D01*
X998498Y710004D01*
X998228Y709352D01*
Y708648D01*
X998498Y707996D01*
X998790Y707704D01*
X998583Y707204D01*
X986801D01*
X986504Y707502D01*
X985852Y707772D01*
X985148D01*
X984728Y707598D01*
X984233Y707885D01*
X984228Y707891D01*
Y708288D01*
X983959Y708939D01*
X983460Y709438D01*
X982809Y709707D01*
X982104D01*
X981453Y709438D01*
X980955Y708939D01*
X980685Y708288D01*
Y707906D01*
X980191Y707569D01*
X980172Y707577D01*
X979467D01*
X978816Y707307D01*
X978317Y706809D01*
X978048Y706158D01*
Y705453D01*
X978317Y704802D01*
X978816Y704304D01*
X979467Y704034D01*
X980172D01*
X980823Y704304D01*
X981321Y704802D01*
X981591Y705453D01*
Y705836D01*
X982085Y706172D01*
X982104Y706164D01*
X982809D01*
X983228Y706338D01*
X983724Y706051D01*
X983728Y706045D01*
Y705648D01*
X983998Y704996D01*
X984496Y704498D01*
X985148Y704228D01*
X985852D01*
X986504Y704498D01*
X986801Y704796D01*
X1014270D01*
X1014477Y704296D01*
X1014320Y704139D01*
X1014050Y703488D01*
Y702783D01*
X1014320Y702132D01*
X1014818Y701633D01*
X1015470Y701364D01*
X1016174D01*
X1016826Y701633D01*
X1017324Y702132D01*
X1017594Y702783D01*
Y703488D01*
X1017324Y704139D01*
X1017167Y704296D01*
X1017374Y704796D01*
X1021199D01*
X1021496Y704498D01*
X1022148Y704228D01*
X1022852D01*
X1023504Y704498D01*
X1023801Y704796D01*
X1030544D01*
X1037568Y697772D01*
X1037361Y697272D01*
X1037148D01*
X1036496Y697002D01*
X1036199Y696704D01*
X1011801D01*
X1011504Y697002D01*
X1010852Y697272D01*
X1010148D01*
X1009496Y697002D01*
X1008998Y696504D01*
X1008728Y695852D01*
Y695148D01*
X1008998Y694496D01*
X1009496Y693998D01*
X1010148Y693728D01*
X1010852D01*
X1011504Y693998D01*
X1011801Y694296D01*
X1036199D01*
X1036496Y693998D01*
X1037148Y693728D01*
X1037852D01*
X1038504Y693998D01*
X1039002Y694496D01*
X1039272Y695148D01*
Y695361D01*
X1039772Y695568D01*
X1043691Y691648D01*
X1043691Y691648D01*
X1044082Y691387D01*
X1044543Y691296D01*
X1170291D01*
X1170447Y691098D01*
X1170289Y690492D01*
X1170256Y690478D01*
X1169758Y689980D01*
X1169488Y689329D01*
Y688624D01*
X1169758Y687973D01*
X1170256Y687474D01*
X1170907Y687205D01*
X1171612D01*
X1172263Y687474D01*
X1172762Y687973D01*
X1173032Y688624D01*
Y689329D01*
X1172762Y689980D01*
X1172475Y690266D01*
X1172610Y690835D01*
X1173004Y690998D01*
X1173502Y691496D01*
X1173772Y692148D01*
Y692852D01*
X1173502Y693504D01*
X1173004Y694002D01*
X1172352Y694272D01*
X1171648D01*
X1170996Y694002D01*
X1170699Y693704D01*
X1051402D01*
X1050945Y693807D01*
Y700697D01*
X1044055D01*
Y695344D01*
X1043593Y695153D01*
X1031894Y706851D01*
X1031504Y707113D01*
X1031043Y707204D01*
X1031043Y707204D01*
X1023949D01*
X1023729Y707449D01*
X1023951Y707949D01*
X1042974D01*
X1044355Y706568D01*
X1044290Y706456D01*
X1044055Y705580D01*
Y704672D01*
X1044290Y703796D01*
X1044743Y703011D01*
X1045385Y702369D01*
X1046170Y701916D01*
X1047046Y701681D01*
X1047954D01*
X1048830Y701916D01*
X1049615Y702369D01*
X1050257Y703011D01*
X1050710Y703796D01*
X1050945Y704672D01*
Y705580D01*
X1050710Y706456D01*
X1050257Y707241D01*
X1049615Y707883D01*
X1048830Y708336D01*
X1047954Y708571D01*
X1047046D01*
X1046170Y708336D01*
X1046058Y708271D01*
X1044325Y710005D01*
X1043934Y710265D01*
X1043473Y710357D01*
X1043473Y710357D01*
X1020304D01*
X1019970Y710857D01*
X1020103Y711178D01*
Y711883D01*
X1019833Y712534D01*
X1019335Y713033D01*
X1018684Y713303D01*
X1017979D01*
X1017328Y713033D01*
X1016829Y712534D01*
X1016696Y712213D01*
X1016106Y712096D01*
X1013851Y714352D01*
X1013460Y714613D01*
X1012999Y714704D01*
X1012999Y714704D01*
X1002801D01*
X1002504Y715002D01*
X1001852Y715272D01*
D02*
G37*
G36*
X1047954Y716445D02*
X1047046D01*
X1046170Y716210D01*
X1045385Y715757D01*
X1044743Y715115D01*
X1044290Y714330D01*
X1044055Y713453D01*
Y712546D01*
X1044290Y711670D01*
X1044743Y710885D01*
X1045385Y710243D01*
X1046170Y709790D01*
X1047046Y709555D01*
X1047954D01*
X1048830Y709790D01*
X1049615Y710243D01*
X1050257Y710885D01*
X1050710Y711670D01*
X1050945Y712546D01*
Y713453D01*
X1050710Y714330D01*
X1050257Y715115D01*
X1049615Y715757D01*
X1048830Y716210D01*
X1047954Y716445D01*
D02*
G37*
G36*
X1122400Y710433D02*
X1121695D01*
X1121044Y710163D01*
X1120545Y709665D01*
X1120276Y709014D01*
Y708309D01*
X1120545Y707658D01*
X1121044Y707160D01*
X1121695Y706890D01*
X1122400D01*
X1123051Y707160D01*
X1123549Y707658D01*
X1123819Y708309D01*
Y709014D01*
X1123549Y709665D01*
X1123051Y710163D01*
X1122400Y710433D01*
D02*
G37*
G36*
X1083030D02*
X1082325D01*
X1081674Y710163D01*
X1081175Y709665D01*
X1080906Y709014D01*
Y708309D01*
X1081175Y707658D01*
X1081674Y707160D01*
X1082325Y706890D01*
X1083030D01*
X1083681Y707160D01*
X1084179Y707658D01*
X1084449Y708309D01*
Y709014D01*
X1084179Y709665D01*
X1083681Y710163D01*
X1083030Y710433D01*
D02*
G37*
G36*
X945234D02*
X944530D01*
X943878Y710163D01*
X943380Y709665D01*
X943110Y709014D01*
Y708309D01*
X943380Y707658D01*
X943878Y707160D01*
X944530Y706890D01*
X945234D01*
X945885Y707160D01*
X946384Y707658D01*
X946654Y708309D01*
Y709014D01*
X946384Y709665D01*
X945885Y710163D01*
X945234Y710433D01*
D02*
G37*
G36*
X905864D02*
X905159D01*
X904508Y710163D01*
X904010Y709665D01*
X903740Y709014D01*
Y708309D01*
X904010Y707658D01*
X904508Y707160D01*
X905159Y706890D01*
X905864D01*
X906515Y707160D01*
X907014Y707658D01*
X907283Y708309D01*
Y709014D01*
X907014Y709665D01*
X906515Y710163D01*
X905864Y710433D01*
D02*
G37*
G36*
X975852Y708272D02*
X975148D01*
X974496Y708002D01*
X973998Y707504D01*
X973728Y706852D01*
Y706431D01*
X971501Y704204D01*
X943301D01*
X943004Y704502D01*
X942352Y704772D01*
X941648D01*
X940996Y704502D01*
X940498Y704004D01*
X940228Y703352D01*
Y702648D01*
X940498Y701996D01*
X940996Y701498D01*
X941648Y701228D01*
X942352D01*
X943004Y701498D01*
X943301Y701796D01*
X972000D01*
X972000Y701796D01*
X972461Y701887D01*
X972851Y702148D01*
X975431Y704728D01*
X975852D01*
X976504Y704998D01*
X977002Y705496D01*
X977272Y706148D01*
Y706852D01*
X977002Y707504D01*
X976504Y708002D01*
X975852Y708272D01*
D02*
G37*
G36*
X1141531Y709535D02*
X1140469D01*
X1139442Y709260D01*
X1138522Y708729D01*
X1137771Y707978D01*
X1137240Y707058D01*
X1136965Y706031D01*
Y704969D01*
X1137240Y703942D01*
X1137771Y703022D01*
X1138522Y702271D01*
X1139442Y701740D01*
X1140469Y701465D01*
X1141531D01*
X1142558Y701740D01*
X1143478Y702271D01*
X1144229Y703022D01*
X1144760Y703942D01*
X1145035Y704969D01*
Y706031D01*
X1144760Y707058D01*
X1144229Y707978D01*
X1143478Y708729D01*
X1142558Y709260D01*
X1141531Y709535D01*
D02*
G37*
G36*
X1131531D02*
X1130469D01*
X1129442Y709260D01*
X1128522Y708729D01*
X1127771Y707978D01*
X1127240Y707058D01*
X1126965Y706031D01*
Y704969D01*
X1127240Y703942D01*
X1127771Y703022D01*
X1128522Y702271D01*
X1129442Y701740D01*
X1130469Y701465D01*
X1131531D01*
X1132558Y701740D01*
X1133478Y702271D01*
X1134229Y703022D01*
X1134760Y703942D01*
X1135035Y704969D01*
Y706031D01*
X1134760Y707058D01*
X1134229Y707978D01*
X1133478Y708729D01*
X1132558Y709260D01*
X1131531Y709535D01*
D02*
G37*
G36*
X989852Y693272D02*
X989148D01*
X988496Y693002D01*
X987998Y692504D01*
X987728Y691852D01*
Y691148D01*
X987998Y690496D01*
X988496Y689998D01*
X989148Y689728D01*
X989852D01*
X990504Y689998D01*
X991002Y690496D01*
X991272Y691148D01*
Y691852D01*
X991002Y692504D01*
X990504Y693002D01*
X989852Y693272D01*
D02*
G37*
G36*
X1132242Y690748D02*
X1131537D01*
X1130886Y690478D01*
X1130388Y689980D01*
X1130118Y689329D01*
Y688624D01*
X1130388Y687973D01*
X1130886Y687474D01*
X1131537Y687205D01*
X1132242D01*
X1132893Y687474D01*
X1133392Y687973D01*
X1133661Y688624D01*
Y689329D01*
X1133392Y689980D01*
X1132893Y690478D01*
X1132242Y690748D01*
D02*
G37*
G36*
X1112557D02*
X1111852D01*
X1111201Y690478D01*
X1110703Y689980D01*
X1110433Y689329D01*
Y688624D01*
X1110703Y687973D01*
X1111201Y687474D01*
X1111852Y687205D01*
X1112557D01*
X1113208Y687474D01*
X1113707Y687973D01*
X1113976Y688624D01*
Y689329D01*
X1113707Y689980D01*
X1113208Y690478D01*
X1112557Y690748D01*
D02*
G37*
G36*
X1092872D02*
X1092167D01*
X1091516Y690478D01*
X1091018Y689980D01*
X1090748Y689329D01*
Y688624D01*
X1091018Y687973D01*
X1091516Y687474D01*
X1092167Y687205D01*
X1092872D01*
X1093523Y687474D01*
X1094022Y687973D01*
X1094291Y688624D01*
Y689329D01*
X1094022Y689980D01*
X1093523Y690478D01*
X1092872Y690748D01*
D02*
G37*
G36*
X1073187D02*
X1072482D01*
X1071831Y690478D01*
X1071333Y689980D01*
X1071063Y689329D01*
Y688624D01*
X1071333Y687973D01*
X1071831Y687474D01*
X1072482Y687205D01*
X1073187D01*
X1073838Y687474D01*
X1074337Y687973D01*
X1074606Y688624D01*
Y689329D01*
X1074337Y689980D01*
X1073838Y690478D01*
X1073187Y690748D01*
D02*
G37*
G36*
X915707D02*
X915002D01*
X914351Y690478D01*
X913852Y689980D01*
X913583Y689329D01*
Y688624D01*
X913852Y687973D01*
X914351Y687474D01*
X915002Y687205D01*
X915707D01*
X916358Y687474D01*
X916856Y687973D01*
X917126Y688624D01*
Y689329D01*
X916856Y689980D01*
X916358Y690478D01*
X915707Y690748D01*
D02*
G37*
G36*
X1028852Y690272D02*
X1028148D01*
X1027496Y690002D01*
X1026998Y689504D01*
X1026728Y688852D01*
Y688148D01*
X1026998Y687496D01*
X1027496Y686998D01*
X1028148Y686728D01*
X1028852D01*
X1029504Y686998D01*
X1030002Y687496D01*
X1030272Y688148D01*
Y688852D01*
X1030002Y689504D01*
X1029504Y690002D01*
X1028852Y690272D01*
D02*
G37*
G36*
X1034352Y690772D02*
X1033648D01*
X1032996Y690502D01*
X1032498Y690004D01*
X1032228Y689352D01*
Y688648D01*
X1032498Y687996D01*
X1032996Y687498D01*
X1033648Y687228D01*
X1033944D01*
X1034043Y686728D01*
X1033496Y686502D01*
X1033199Y686204D01*
X1025801D01*
X1025504Y686502D01*
X1024852Y686772D01*
X1024148D01*
X1023496Y686502D01*
X1023199Y686204D01*
X1007301D01*
X1007004Y686502D01*
X1006352Y686772D01*
X1005648D01*
X1004996Y686502D01*
X1004498Y686004D01*
X1004228Y685352D01*
Y684648D01*
X1004498Y683996D01*
X1004996Y683498D01*
X1005648Y683228D01*
X1006352D01*
X1007004Y683498D01*
X1007301Y683796D01*
X1023199D01*
X1023496Y683498D01*
X1024148Y683228D01*
X1024852D01*
X1025504Y683498D01*
X1025801Y683796D01*
X1033199D01*
X1033496Y683498D01*
X1034148Y683228D01*
X1034852D01*
X1035504Y683498D01*
X1036002Y683996D01*
X1036272Y684648D01*
Y685352D01*
X1036002Y686004D01*
X1035504Y686502D01*
X1034852Y686772D01*
X1034556D01*
X1034457Y687272D01*
X1035004Y687498D01*
X1035502Y687996D01*
X1035772Y688648D01*
Y689352D01*
X1035502Y690004D01*
X1035004Y690502D01*
X1034352Y690772D01*
D02*
G37*
G36*
X1018852Y682772D02*
X1018148D01*
X1017496Y682502D01*
X1016998Y682004D01*
X1016728Y681352D01*
Y680648D01*
X1016998Y679996D01*
X1017496Y679498D01*
X1018148Y679228D01*
X1018852D01*
X1019504Y679498D01*
X1020002Y679996D01*
X1020272Y680648D01*
Y681352D01*
X1020002Y682004D01*
X1019504Y682502D01*
X1018852Y682772D01*
D02*
G37*
G36*
X1013852Y680272D02*
X1013148D01*
X1012496Y680002D01*
X1011998Y679504D01*
X1011728Y678852D01*
Y678148D01*
X1011998Y677496D01*
X1012168Y677326D01*
X1011961Y676826D01*
X991075D01*
X991002Y677004D01*
X990504Y677502D01*
X989852Y677772D01*
X989148D01*
X988496Y677502D01*
X987998Y677004D01*
X987728Y676352D01*
Y675648D01*
X987998Y674996D01*
X988496Y674498D01*
X989148Y674228D01*
X989852D01*
X990310Y674418D01*
X1029365D01*
X1029365Y674418D01*
X1029825Y674509D01*
X1030216Y674770D01*
X1031028Y675582D01*
X1031449D01*
X1032100Y675852D01*
X1032598Y676350D01*
X1032868Y677001D01*
Y677706D01*
X1032598Y678357D01*
X1032100Y678856D01*
X1031449Y679125D01*
X1030744D01*
X1030093Y678856D01*
X1029594Y678357D01*
X1029325Y677706D01*
Y677285D01*
X1028866Y676826D01*
X1015039D01*
X1014832Y677326D01*
X1015002Y677496D01*
X1015272Y678148D01*
Y678852D01*
X1015002Y679504D01*
X1014504Y680002D01*
X1013852Y680272D01*
D02*
G37*
G36*
X1039852Y678272D02*
X1039148D01*
X1038496Y678002D01*
X1037998Y677504D01*
X1037728Y676852D01*
Y676148D01*
X1037998Y675496D01*
X1038496Y674998D01*
X1039148Y674728D01*
X1039852D01*
X1040504Y674998D01*
X1041002Y675496D01*
X1041272Y676148D01*
Y676852D01*
X1041002Y677504D01*
X1040504Y678002D01*
X1039852Y678272D01*
D02*
G37*
G36*
Y673272D02*
X1039148D01*
X1038496Y673002D01*
X1037998Y672504D01*
X1037926Y672330D01*
X987301D01*
X987004Y672628D01*
X986353Y672898D01*
X985648D01*
X984997Y672628D01*
X984498Y672130D01*
X984228Y671479D01*
Y670774D01*
X984498Y670122D01*
X984997Y669624D01*
X985648Y669354D01*
X986353D01*
X987004Y669624D01*
X987301Y669922D01*
X1024721D01*
X1025014Y669422D01*
X1024842Y669008D01*
Y668303D01*
X1025112Y667652D01*
X1025610Y667154D01*
X1026262Y666884D01*
X1026966D01*
X1027617Y667154D01*
X1028116Y667652D01*
X1028386Y668303D01*
Y669008D01*
X1028214Y669422D01*
X1028506Y669922D01*
X1038680D01*
X1039148Y669728D01*
X1039852D01*
X1040504Y669998D01*
X1041002Y670496D01*
X1041272Y671148D01*
Y671852D01*
X1041002Y672504D01*
X1040504Y673002D01*
X1039852Y673272D01*
D02*
G37*
G36*
X1142085Y671063D02*
X1141380D01*
X1140729Y670793D01*
X1140230Y670295D01*
X1139961Y669644D01*
Y668939D01*
X1140230Y668288D01*
X1140729Y667789D01*
X1141380Y667520D01*
X1142085D01*
X1142736Y667789D01*
X1143234Y668288D01*
X1143504Y668939D01*
Y669644D01*
X1143234Y670295D01*
X1142736Y670793D01*
X1142085Y671063D01*
D02*
G37*
G36*
X1122400D02*
X1121695D01*
X1121044Y670793D01*
X1120545Y670295D01*
X1120276Y669644D01*
Y668939D01*
X1120545Y668288D01*
X1121044Y667789D01*
X1121695Y667520D01*
X1122400D01*
X1123051Y667789D01*
X1123549Y668288D01*
X1123819Y668939D01*
Y669644D01*
X1123549Y670295D01*
X1123051Y670793D01*
X1122400Y671063D01*
D02*
G37*
G36*
X1043659D02*
X1042955D01*
X1042304Y670793D01*
X1041805Y670295D01*
X1041535Y669644D01*
Y668939D01*
X1041805Y668288D01*
X1042304Y667789D01*
X1042955Y667520D01*
X1043659D01*
X1044311Y667789D01*
X1044809Y668288D01*
X1045079Y668939D01*
Y669644D01*
X1044809Y670295D01*
X1044311Y670793D01*
X1043659Y671063D01*
D02*
G37*
G36*
X964919D02*
X964215D01*
X963563Y670793D01*
X963065Y670295D01*
X962795Y669644D01*
Y668939D01*
X963065Y668288D01*
X963563Y667789D01*
X964215Y667520D01*
X964919D01*
X965571Y667789D01*
X966069Y668288D01*
X966339Y668939D01*
Y669644D01*
X966069Y670295D01*
X965571Y670793D01*
X964919Y671063D01*
D02*
G37*
G36*
X925549D02*
X924844D01*
X924193Y670793D01*
X923695Y670295D01*
X923425Y669644D01*
Y668939D01*
X923695Y668288D01*
X924193Y667789D01*
X924844Y667520D01*
X925549D01*
X926200Y667789D01*
X926699Y668288D01*
X926968Y668939D01*
Y669644D01*
X926699Y670295D01*
X926200Y670793D01*
X925549Y671063D01*
D02*
G37*
G36*
X905864D02*
X905159D01*
X904508Y670793D01*
X904010Y670295D01*
X903740Y669644D01*
Y668939D01*
X904010Y668288D01*
X904508Y667789D01*
X905159Y667520D01*
X905864D01*
X906515Y667789D01*
X907014Y668288D01*
X907283Y668939D01*
Y669644D01*
X907014Y670295D01*
X906515Y670793D01*
X905864Y671063D01*
D02*
G37*
G36*
X866494D02*
X865789D01*
X865138Y670793D01*
X864640Y670295D01*
X864370Y669644D01*
Y668939D01*
X864640Y668288D01*
X865138Y667789D01*
X865789Y667520D01*
X866494D01*
X867145Y667789D01*
X867644Y668288D01*
X867913Y668939D01*
Y669644D01*
X867644Y670295D01*
X867145Y670793D01*
X866494Y671063D01*
D02*
G37*
G36*
X1083337Y686130D02*
X1081663D01*
X1080011Y685868D01*
X1078419Y685351D01*
X1076929Y684591D01*
X1075575Y683608D01*
X1074392Y682425D01*
X1073409Y681071D01*
X1072649Y679580D01*
X1072132Y677989D01*
X1071870Y676337D01*
Y674663D01*
X1072132Y673011D01*
X1072649Y671419D01*
X1073409Y669929D01*
X1074392Y668575D01*
X1075575Y667392D01*
X1076929Y666408D01*
X1078419Y665649D01*
X1080011Y665132D01*
X1081663Y664870D01*
X1083337D01*
X1084989Y665132D01*
X1086580Y665649D01*
X1088071Y666408D01*
X1089425Y667392D01*
X1090608Y668575D01*
X1091591Y669929D01*
X1092351Y671419D01*
X1092868Y673011D01*
X1093130Y674663D01*
Y676337D01*
X1092868Y677989D01*
X1092351Y679580D01*
X1091591Y681071D01*
X1090608Y682425D01*
X1089425Y683608D01*
X1088071Y684591D01*
X1086580Y685351D01*
X1084989Y685868D01*
X1083337Y686130D01*
D02*
G37*
G36*
X885355Y667928D02*
X884651D01*
X883999Y667658D01*
X883501Y667160D01*
X883231Y666509D01*
Y665804D01*
X883501Y665153D01*
X883999Y664654D01*
X884651Y664385D01*
X885355D01*
X886007Y664654D01*
X886505Y665153D01*
X886775Y665804D01*
Y666509D01*
X886505Y667160D01*
X886007Y667658D01*
X885355Y667928D01*
D02*
G37*
G36*
X890852Y665772D02*
X890148D01*
X889496Y665502D01*
X888998Y665004D01*
X888728Y664352D01*
Y663648D01*
X888998Y662996D01*
X889496Y662498D01*
X890148Y662228D01*
X890852D01*
X891504Y662498D01*
X892002Y662996D01*
X892272Y663648D01*
Y664352D01*
X892002Y665004D01*
X891504Y665502D01*
X890852Y665772D01*
D02*
G37*
G36*
X1063275Y661815D02*
X1062570D01*
X1061919Y661545D01*
X1061420Y661047D01*
X1061150Y660395D01*
Y659691D01*
X1061420Y659039D01*
X1061919Y658541D01*
X1062570Y658271D01*
X1063275D01*
X1063926Y658541D01*
X1064424Y659039D01*
X1064694Y659691D01*
Y660395D01*
X1064424Y661047D01*
X1063926Y661545D01*
X1063275Y661815D01*
D02*
G37*
G36*
X997852Y660772D02*
X997148D01*
X996496Y660502D01*
X995998Y660004D01*
X995728Y659352D01*
Y658648D01*
X995998Y657996D01*
X996496Y657498D01*
X997148Y657228D01*
X997852D01*
X998504Y657498D01*
X999002Y657996D01*
X999272Y658648D01*
Y659352D01*
X999002Y660004D01*
X998504Y660502D01*
X997852Y660772D01*
D02*
G37*
G36*
X1105852Y657272D02*
X1105148D01*
X1104496Y657002D01*
X1104199Y656704D01*
X1034500D01*
X1034500Y656704D01*
X1034039Y656613D01*
X1033648Y656352D01*
X1033648Y656352D01*
X1032569Y655272D01*
X1032148D01*
X1031496Y655002D01*
X1030998Y654504D01*
X1030728Y653852D01*
Y653148D01*
X1030861Y652826D01*
X1030527Y652326D01*
X1022340D01*
X1022315Y652352D01*
X1021924Y652613D01*
X1021463Y652704D01*
X1021463Y652704D01*
X1010801D01*
X1010504Y653002D01*
X1009852Y653272D01*
X1009148D01*
X1008496Y653002D01*
X1007998Y652504D01*
X1007728Y651852D01*
Y651148D01*
X1007998Y650496D01*
X1008496Y649998D01*
X1009148Y649728D01*
X1009852D01*
X1010504Y649998D01*
X1010801Y650296D01*
X1020965D01*
X1020990Y650271D01*
X1020990Y650271D01*
X1021380Y650009D01*
X1021841Y649918D01*
X1050690D01*
X1051148Y649728D01*
X1051852D01*
X1052504Y649998D01*
X1053002Y650496D01*
X1053272Y651148D01*
Y651852D01*
X1053002Y652504D01*
X1052504Y653002D01*
X1051852Y653272D01*
X1051148D01*
X1050496Y653002D01*
X1049998Y652504D01*
X1049925Y652326D01*
X1034473D01*
X1034139Y652826D01*
X1034272Y653148D01*
Y653569D01*
X1034999Y654296D01*
X1104199D01*
X1104496Y653998D01*
X1105148Y653728D01*
X1105852D01*
X1106504Y653998D01*
X1107002Y654496D01*
X1107272Y655148D01*
Y655852D01*
X1107002Y656504D01*
X1106504Y657002D01*
X1105852Y657272D01*
D02*
G37*
G36*
X990123Y659622D02*
X989418D01*
X988767Y659353D01*
X988268Y658854D01*
X987999Y658203D01*
Y657498D01*
X988268Y656847D01*
X988767Y656349D01*
X989418Y656079D01*
X990123D01*
X990774Y656349D01*
X991272Y656847D01*
X991542Y657498D01*
Y658203D01*
X991272Y658854D01*
X990774Y659353D01*
X990123Y659622D01*
D02*
G37*
G36*
X883852Y653272D02*
X883148D01*
X882496Y653002D01*
X881998Y652504D01*
X881728Y651852D01*
Y651148D01*
X881998Y650496D01*
X882496Y649998D01*
X883148Y649728D01*
X883852D01*
X884504Y649998D01*
X885002Y650496D01*
X885272Y651148D01*
Y651852D01*
X885002Y652504D01*
X884504Y653002D01*
X883852Y653272D01*
D02*
G37*
G36*
X1073187Y651378D02*
X1072482D01*
X1071831Y651108D01*
X1071333Y650610D01*
X1071063Y649959D01*
Y649254D01*
X1071333Y648603D01*
X1071831Y648104D01*
X1072482Y647835D01*
X1073187D01*
X1073838Y648104D01*
X1074337Y648603D01*
X1074606Y649254D01*
Y649959D01*
X1074337Y650610D01*
X1073838Y651108D01*
X1073187Y651378D01*
D02*
G37*
G36*
X955077D02*
X954372D01*
X953721Y651108D01*
X953222Y650610D01*
X952953Y649959D01*
Y649254D01*
X953222Y648603D01*
X953721Y648104D01*
X954372Y647835D01*
X955077D01*
X955728Y648104D01*
X956226Y648603D01*
X956496Y649254D01*
Y649959D01*
X956226Y650610D01*
X955728Y651108D01*
X955077Y651378D01*
D02*
G37*
G36*
X935392D02*
X934687D01*
X934036Y651108D01*
X933537Y650610D01*
X933268Y649959D01*
Y649254D01*
X933537Y648603D01*
X934036Y648104D01*
X934687Y647835D01*
X935392D01*
X936043Y648104D01*
X936541Y648603D01*
X936811Y649254D01*
Y649959D01*
X936541Y650610D01*
X936043Y651108D01*
X935392Y651378D01*
D02*
G37*
G36*
X915707D02*
X915002D01*
X914351Y651108D01*
X913852Y650610D01*
X913583Y649959D01*
Y649254D01*
X913852Y648603D01*
X914351Y648104D01*
X915002Y647835D01*
X915707D01*
X916358Y648104D01*
X916856Y648603D01*
X917126Y649254D01*
Y649959D01*
X916856Y650610D01*
X916358Y651108D01*
X915707Y651378D01*
D02*
G37*
G36*
X877852Y654272D02*
X877148D01*
X876496Y654002D01*
X875998Y653504D01*
X875728Y652852D01*
Y652148D01*
X875840Y651878D01*
X875632Y651378D01*
X874981Y651108D01*
X874482Y650610D01*
X874213Y649959D01*
Y649254D01*
X874482Y648603D01*
X874981Y648104D01*
X875632Y647835D01*
X876337D01*
X876988Y648104D01*
X877486Y648603D01*
X877756Y649254D01*
Y649959D01*
X877644Y650228D01*
X877852Y650728D01*
X878504Y650998D01*
X879002Y651496D01*
X879272Y652148D01*
Y652852D01*
X879002Y653504D01*
X878504Y654002D01*
X877852Y654272D01*
D02*
G37*
G36*
X856652Y651378D02*
X855947D01*
X855296Y651108D01*
X854797Y650610D01*
X854528Y649959D01*
Y649254D01*
X854797Y648603D01*
X855296Y648104D01*
X855947Y647835D01*
X856652D01*
X857303Y648104D01*
X857801Y648603D01*
X858071Y649254D01*
Y649959D01*
X857801Y650610D01*
X857303Y651108D01*
X856652Y651378D01*
D02*
G37*
G36*
X1090352Y637272D02*
X1089648D01*
X1088996Y637002D01*
X1088498Y636504D01*
X1088374Y636204D01*
X1018801D01*
X1018504Y636502D01*
X1017852Y636772D01*
X1017148D01*
X1016496Y636502D01*
X1015998Y636004D01*
X1015728Y635352D01*
Y634648D01*
X1015998Y633996D01*
X1016496Y633498D01*
X1017148Y633228D01*
X1017852D01*
X1018504Y633498D01*
X1018801Y633796D01*
X1089485D01*
X1089648Y633728D01*
X1090352D01*
X1091004Y633998D01*
X1091502Y634496D01*
X1091772Y635148D01*
Y635852D01*
X1091502Y636504D01*
X1091004Y637002D01*
X1090352Y637272D01*
D02*
G37*
G36*
X1168852Y638772D02*
X1168148D01*
X1167496Y638502D01*
X1166998Y638004D01*
X1166728Y637352D01*
Y636648D01*
X1166998Y635996D01*
X1167496Y635498D01*
X1168148Y635228D01*
X1168852D01*
X1169504Y635498D01*
X1170002Y635996D01*
X1170272Y636648D01*
Y637352D01*
X1170002Y638004D01*
X1169504Y638502D01*
X1168852Y638772D01*
D02*
G37*
G36*
X1142085Y631693D02*
X1141380D01*
X1140729Y631423D01*
X1140230Y630925D01*
X1139961Y630274D01*
Y629569D01*
X1140230Y628918D01*
X1140729Y628419D01*
X1141380Y628150D01*
X1142085D01*
X1142736Y628419D01*
X1143234Y628918D01*
X1143504Y629569D01*
Y630274D01*
X1143234Y630925D01*
X1142736Y631423D01*
X1142085Y631693D01*
D02*
G37*
G36*
X1122400D02*
X1121695D01*
X1121044Y631423D01*
X1120545Y630925D01*
X1120276Y630274D01*
Y629569D01*
X1120545Y628918D01*
X1121044Y628419D01*
X1121695Y628150D01*
X1122400D01*
X1123051Y628419D01*
X1123549Y628918D01*
X1123819Y629569D01*
Y630274D01*
X1123549Y630925D01*
X1123051Y631423D01*
X1122400Y631693D01*
D02*
G37*
G36*
X1083030D02*
X1082325D01*
X1081674Y631423D01*
X1081175Y630925D01*
X1080906Y630274D01*
Y629569D01*
X1081175Y628918D01*
X1081674Y628419D01*
X1082325Y628150D01*
X1083030D01*
X1083681Y628419D01*
X1084179Y628918D01*
X1084449Y629569D01*
Y630274D01*
X1084179Y630925D01*
X1083681Y631423D01*
X1083030Y631693D01*
D02*
G37*
G36*
X1063345D02*
X1062640D01*
X1061989Y631423D01*
X1061490Y630925D01*
X1061220Y630274D01*
Y629569D01*
X1061490Y628918D01*
X1061989Y628419D01*
X1062640Y628150D01*
X1063345D01*
X1063996Y628419D01*
X1064494Y628918D01*
X1064764Y629569D01*
Y630274D01*
X1064494Y630925D01*
X1063996Y631423D01*
X1063345Y631693D01*
D02*
G37*
G36*
X1043659D02*
X1042955D01*
X1042304Y631423D01*
X1041805Y630925D01*
X1041535Y630274D01*
Y629569D01*
X1041805Y628918D01*
X1042304Y628419D01*
X1042955Y628150D01*
X1043659D01*
X1044311Y628419D01*
X1044809Y628918D01*
X1045079Y629569D01*
Y630274D01*
X1044809Y630925D01*
X1044311Y631423D01*
X1043659Y631693D01*
D02*
G37*
G36*
X1004289D02*
X1003585D01*
X1002934Y631423D01*
X1002435Y630925D01*
X1002165Y630274D01*
Y629569D01*
X1002435Y628918D01*
X1002934Y628419D01*
X1003585Y628150D01*
X1004289D01*
X1004941Y628419D01*
X1005439Y628918D01*
X1005709Y629569D01*
Y630274D01*
X1005439Y630925D01*
X1004941Y631423D01*
X1004289Y631693D01*
D02*
G37*
G36*
X984604D02*
X983900D01*
X983248Y631423D01*
X982750Y630925D01*
X982480Y630274D01*
Y629569D01*
X982750Y628918D01*
X983248Y628419D01*
X983900Y628150D01*
X984604D01*
X985256Y628419D01*
X985754Y628918D01*
X986024Y629569D01*
Y630274D01*
X985754Y630925D01*
X985256Y631423D01*
X984604Y631693D01*
D02*
G37*
G36*
X964919D02*
X964215D01*
X963563Y631423D01*
X963065Y630925D01*
X962795Y630274D01*
Y629569D01*
X963065Y628918D01*
X963563Y628419D01*
X964215Y628150D01*
X964919D01*
X965571Y628419D01*
X966069Y628918D01*
X966339Y629569D01*
Y630274D01*
X966069Y630925D01*
X965571Y631423D01*
X964919Y631693D01*
D02*
G37*
G36*
X925549D02*
X924844D01*
X924193Y631423D01*
X923695Y630925D01*
X923425Y630274D01*
Y629569D01*
X923695Y628918D01*
X924193Y628419D01*
X924844Y628150D01*
X925549D01*
X926200Y628419D01*
X926699Y628918D01*
X926968Y629569D01*
Y630274D01*
X926699Y630925D01*
X926200Y631423D01*
X925549Y631693D01*
D02*
G37*
G36*
X905864D02*
X905159D01*
X904508Y631423D01*
X904010Y630925D01*
X903740Y630274D01*
Y629569D01*
X904010Y628918D01*
X904508Y628419D01*
X905159Y628150D01*
X905864D01*
X906515Y628419D01*
X907014Y628918D01*
X907283Y629569D01*
Y630274D01*
X907014Y630925D01*
X906515Y631423D01*
X905864Y631693D01*
D02*
G37*
G36*
X886179D02*
X885474D01*
X884823Y631423D01*
X884325Y630925D01*
X884055Y630274D01*
Y629569D01*
X884325Y628918D01*
X884823Y628419D01*
X885474Y628150D01*
X886179D01*
X886830Y628419D01*
X887329Y628918D01*
X887599Y629569D01*
Y630274D01*
X887329Y630925D01*
X886830Y631423D01*
X886179Y631693D01*
D02*
G37*
G36*
X846809D02*
X846104D01*
X845453Y631423D01*
X844955Y630925D01*
X844685Y630274D01*
Y629569D01*
X844955Y628918D01*
X845453Y628419D01*
X846104Y628150D01*
X846809D01*
X847460Y628419D01*
X847959Y628918D01*
X848228Y629569D01*
Y630274D01*
X847959Y630925D01*
X847460Y631423D01*
X846809Y631693D01*
D02*
G37*
G36*
X827124D02*
X826419D01*
X825768Y631423D01*
X825270Y630925D01*
X825000Y630274D01*
Y629569D01*
X825270Y628918D01*
X825768Y628419D01*
X826419Y628150D01*
X827124D01*
X827775Y628419D01*
X828274Y628918D01*
X828543Y629569D01*
Y630274D01*
X828274Y630925D01*
X827775Y631423D01*
X827124Y631693D01*
D02*
G37*
G36*
X1009352Y612272D02*
X1008648D01*
X1007996Y612002D01*
X1007498Y611504D01*
X1007228Y610852D01*
Y610148D01*
X1007498Y609496D01*
X1007996Y608998D01*
X1008648Y608728D01*
X1009352D01*
X1010004Y608998D01*
X1010502Y609496D01*
X1010772Y610148D01*
Y610852D01*
X1010502Y611504D01*
X1010004Y612002D01*
X1009352Y612272D01*
D02*
G37*
G36*
X1171612Y612008D02*
X1170907D01*
X1170256Y611738D01*
X1169758Y611240D01*
X1169488Y610589D01*
Y609884D01*
X1169758Y609233D01*
X1170256Y608734D01*
X1170907Y608465D01*
X1171612D01*
X1172263Y608734D01*
X1172762Y609233D01*
X1173032Y609884D01*
Y610589D01*
X1172762Y611240D01*
X1172263Y611738D01*
X1171612Y612008D01*
D02*
G37*
G36*
X1132242D02*
X1131537D01*
X1130886Y611738D01*
X1130388Y611240D01*
X1130118Y610589D01*
Y609884D01*
X1130388Y609233D01*
X1130886Y608734D01*
X1131537Y608465D01*
X1132242D01*
X1132893Y608734D01*
X1133392Y609233D01*
X1133661Y609884D01*
Y610589D01*
X1133392Y611240D01*
X1132893Y611738D01*
X1132242Y612008D01*
D02*
G37*
G36*
X1112557D02*
X1111852D01*
X1111201Y611738D01*
X1110703Y611240D01*
X1110433Y610589D01*
Y609884D01*
X1110703Y609233D01*
X1111201Y608734D01*
X1111852Y608465D01*
X1112557D01*
X1113208Y608734D01*
X1113707Y609233D01*
X1113976Y609884D01*
Y610589D01*
X1113707Y611240D01*
X1113208Y611738D01*
X1112557Y612008D01*
D02*
G37*
G36*
X1073187D02*
X1072482D01*
X1071831Y611738D01*
X1071333Y611240D01*
X1071063Y610589D01*
Y609884D01*
X1071333Y609233D01*
X1071831Y608734D01*
X1072482Y608465D01*
X1073187D01*
X1073838Y608734D01*
X1074337Y609233D01*
X1074606Y609884D01*
Y610589D01*
X1074337Y611240D01*
X1073838Y611738D01*
X1073187Y612008D01*
D02*
G37*
G36*
X1033817D02*
X1033112D01*
X1032461Y611738D01*
X1031963Y611240D01*
X1031693Y610589D01*
Y609884D01*
X1031963Y609233D01*
X1032461Y608734D01*
X1033112Y608465D01*
X1033817D01*
X1034468Y608734D01*
X1034966Y609233D01*
X1035236Y609884D01*
Y610589D01*
X1034966Y611240D01*
X1034468Y611738D01*
X1033817Y612008D01*
D02*
G37*
G36*
X994447D02*
X993742D01*
X993091Y611738D01*
X992593Y611240D01*
X992323Y610589D01*
Y609884D01*
X992593Y609233D01*
X993091Y608734D01*
X993742Y608465D01*
X994447D01*
X995098Y608734D01*
X995597Y609233D01*
X995866Y609884D01*
Y610589D01*
X995597Y611240D01*
X995098Y611738D01*
X994447Y612008D01*
D02*
G37*
G36*
X955077D02*
X954372D01*
X953721Y611738D01*
X953222Y611240D01*
X952953Y610589D01*
Y609884D01*
X953222Y609233D01*
X953721Y608734D01*
X954372Y608465D01*
X955077D01*
X955728Y608734D01*
X956226Y609233D01*
X956496Y609884D01*
Y610589D01*
X956226Y611240D01*
X955728Y611738D01*
X955077Y612008D01*
D02*
G37*
G36*
X935392D02*
X934687D01*
X934036Y611738D01*
X933537Y611240D01*
X933268Y610589D01*
Y609884D01*
X933537Y609233D01*
X934036Y608734D01*
X934687Y608465D01*
X935392D01*
X936043Y608734D01*
X936541Y609233D01*
X936811Y609884D01*
Y610589D01*
X936541Y611240D01*
X936043Y611738D01*
X935392Y612008D01*
D02*
G37*
G36*
X1038352Y611772D02*
X1037648D01*
X1036996Y611502D01*
X1036498Y611004D01*
X1036228Y610352D01*
Y609648D01*
X1036498Y608996D01*
X1036996Y608498D01*
X1037648Y608228D01*
X1038352D01*
X1039004Y608498D01*
X1039502Y608996D01*
X1039772Y609648D01*
Y610352D01*
X1039502Y611004D01*
X1039004Y611502D01*
X1038352Y611772D01*
D02*
G37*
G36*
X1191352Y607772D02*
X1190648D01*
X1189996Y607502D01*
X1189498Y607004D01*
X1189228Y606352D01*
Y606251D01*
X1189182Y606204D01*
X995301D01*
X995004Y606502D01*
X994352Y606772D01*
X993648D01*
X992996Y606502D01*
X992498Y606004D01*
X992228Y605352D01*
Y604648D01*
X992498Y603996D01*
X992996Y603498D01*
X993648Y603228D01*
X994352D01*
X995004Y603498D01*
X995301Y603796D01*
X1189680D01*
X1189680Y603796D01*
X1190141Y603887D01*
X1190532Y604148D01*
X1190622Y604239D01*
X1190648Y604228D01*
X1191352D01*
X1192004Y604498D01*
X1192502Y604996D01*
X1192772Y605648D01*
Y606352D01*
X1192502Y607004D01*
X1192004Y607502D01*
X1191352Y607772D01*
D02*
G37*
G36*
X1014852Y596772D02*
X1014148D01*
X1013496Y596502D01*
X1012998Y596004D01*
X1012728Y595352D01*
Y594648D01*
X1012998Y593996D01*
X1013496Y593498D01*
X1014148Y593228D01*
X1014852D01*
X1015504Y593498D01*
X1015801Y593796D01*
X1116501D01*
X1116728Y593569D01*
Y593148D01*
X1116998Y592496D01*
X1117496Y591998D01*
X1118148Y591728D01*
X1118852D01*
X1119504Y591998D01*
X1120002Y592496D01*
X1120272Y593148D01*
Y593852D01*
X1120002Y594504D01*
X1119504Y595002D01*
X1118852Y595272D01*
X1118431D01*
X1117852Y595852D01*
X1117461Y596113D01*
X1117000Y596204D01*
X1117000Y596204D01*
X1015801D01*
X1015504Y596502D01*
X1014852Y596772D01*
D02*
G37*
G36*
X1142085Y592323D02*
X1141380D01*
X1140729Y592053D01*
X1140230Y591555D01*
X1139961Y590904D01*
Y590199D01*
X1140230Y589548D01*
X1140729Y589049D01*
X1141380Y588780D01*
X1142085D01*
X1142736Y589049D01*
X1143234Y589548D01*
X1143504Y590199D01*
Y590904D01*
X1143234Y591555D01*
X1142736Y592053D01*
X1142085Y592323D01*
D02*
G37*
G36*
X1122400D02*
X1121695D01*
X1121044Y592053D01*
X1120545Y591555D01*
X1120276Y590904D01*
Y590199D01*
X1120545Y589548D01*
X1121044Y589049D01*
X1121695Y588780D01*
X1122400D01*
X1123051Y589049D01*
X1123549Y589548D01*
X1123819Y590199D01*
Y590904D01*
X1123549Y591555D01*
X1123051Y592053D01*
X1122400Y592323D01*
D02*
G37*
G36*
X1004289D02*
X1003585D01*
X1002934Y592053D01*
X1002435Y591555D01*
X1002165Y590904D01*
Y590199D01*
X1002435Y589548D01*
X1002934Y589049D01*
X1003585Y588780D01*
X1004289D01*
X1004941Y589049D01*
X1005439Y589548D01*
X1005709Y590199D01*
Y590904D01*
X1005439Y591555D01*
X1004941Y592053D01*
X1004289Y592323D01*
D02*
G37*
G36*
X984604D02*
X983900D01*
X983248Y592053D01*
X982750Y591555D01*
X982480Y590904D01*
Y590199D01*
X982750Y589548D01*
X983248Y589049D01*
X983900Y588780D01*
X984604D01*
X985256Y589049D01*
X985754Y589548D01*
X986024Y590199D01*
Y590904D01*
X985754Y591555D01*
X985256Y592053D01*
X984604Y592323D01*
D02*
G37*
G36*
X964919D02*
X964215D01*
X963563Y592053D01*
X963065Y591555D01*
X962795Y590904D01*
Y590199D01*
X963065Y589548D01*
X963563Y589049D01*
X964215Y588780D01*
X964919D01*
X965571Y589049D01*
X966069Y589548D01*
X966339Y590199D01*
Y590904D01*
X966069Y591555D01*
X965571Y592053D01*
X964919Y592323D01*
D02*
G37*
G36*
X925549D02*
X924844D01*
X924193Y592053D01*
X923695Y591555D01*
X923425Y590904D01*
Y590199D01*
X923695Y589548D01*
X924193Y589049D01*
X924844Y588780D01*
X925549D01*
X926200Y589049D01*
X926699Y589548D01*
X926968Y590199D01*
Y590904D01*
X926699Y591555D01*
X926200Y592053D01*
X925549Y592323D01*
D02*
G37*
G36*
X905864D02*
X905159D01*
X904508Y592053D01*
X904010Y591555D01*
X903740Y590904D01*
Y590199D01*
X904010Y589548D01*
X904508Y589049D01*
X905159Y588780D01*
X905864D01*
X906515Y589049D01*
X907014Y589548D01*
X907283Y590199D01*
Y590904D01*
X907014Y591555D01*
X906515Y592053D01*
X905864Y592323D01*
D02*
G37*
G36*
X886179D02*
X885474D01*
X884823Y592053D01*
X884325Y591555D01*
X884055Y590904D01*
Y590199D01*
X884325Y589548D01*
X884823Y589049D01*
X885474Y588780D01*
X886179D01*
X886830Y589049D01*
X887329Y589548D01*
X887599Y590199D01*
Y590904D01*
X887329Y591555D01*
X886830Y592053D01*
X886179Y592323D01*
D02*
G37*
G36*
X866494D02*
X865789D01*
X865138Y592053D01*
X864640Y591555D01*
X864370Y590904D01*
Y590199D01*
X864640Y589548D01*
X865138Y589049D01*
X865789Y588780D01*
X866494D01*
X867145Y589049D01*
X867644Y589548D01*
X867913Y590199D01*
Y590904D01*
X867644Y591555D01*
X867145Y592053D01*
X866494Y592323D01*
D02*
G37*
G36*
X1027352Y590772D02*
X1026648D01*
X1025996Y590502D01*
X1025498Y590004D01*
X1025228Y589352D01*
Y588648D01*
X1025412Y588204D01*
X1025137Y587704D01*
X996626D01*
X996502Y588004D01*
X996004Y588502D01*
X995352Y588772D01*
X994648D01*
X993996Y588502D01*
X993498Y588004D01*
X993228Y587352D01*
Y586648D01*
X993498Y585996D01*
X993996Y585498D01*
X994648Y585228D01*
X995352D01*
X995515Y585296D01*
X1174699D01*
X1174996Y584998D01*
X1175648Y584728D01*
X1176352D01*
X1177004Y584998D01*
X1177502Y585496D01*
X1177772Y586148D01*
Y586852D01*
X1177502Y587504D01*
X1177004Y588002D01*
X1176352Y588272D01*
X1175648D01*
X1174996Y588002D01*
X1174699Y587704D01*
X1028863D01*
X1028588Y588204D01*
X1028772Y588648D01*
Y589352D01*
X1028502Y590004D01*
X1028004Y590502D01*
X1027352Y590772D01*
D02*
G37*
G36*
X1090500Y584280D02*
X948000D01*
X947281Y584185D01*
X946610Y583907D01*
X946035Y583465D01*
X945593Y582890D01*
X945315Y582219D01*
X945220Y581500D01*
X945315Y580781D01*
X945593Y580110D01*
X946035Y579534D01*
X946610Y579093D01*
X947281Y578815D01*
X948000Y578720D01*
X1090500D01*
X1091219Y578815D01*
X1091890Y579093D01*
X1092465Y579534D01*
X1092907Y580110D01*
X1093185Y580781D01*
X1093280Y581500D01*
X1093185Y582219D01*
X1092907Y582890D01*
X1092465Y583465D01*
X1091890Y583907D01*
X1091219Y584185D01*
X1090500Y584280D01*
D02*
G37*
G36*
X1101352Y578772D02*
X1100648D01*
X1099996Y578502D01*
X1099699Y578204D01*
X1036000D01*
X1035539Y578113D01*
X1035149Y577851D01*
X1035149Y577851D01*
X1035069Y577772D01*
X1034648D01*
X1033996Y577502D01*
X1033498Y577004D01*
X1033228Y576352D01*
Y575648D01*
X1033498Y574996D01*
X1033996Y574498D01*
X1034648Y574228D01*
X1035352D01*
X1036004Y574498D01*
X1036502Y574996D01*
X1036772Y575648D01*
Y575796D01*
X1099699D01*
X1099996Y575498D01*
X1100648Y575228D01*
X1101352D01*
X1102004Y575498D01*
X1102502Y575996D01*
X1102772Y576648D01*
Y577352D01*
X1102502Y578004D01*
X1102004Y578502D01*
X1101352Y578772D01*
D02*
G37*
G36*
X1171612Y572638D02*
X1170907D01*
X1170256Y572368D01*
X1169758Y571870D01*
X1169488Y571219D01*
Y570514D01*
X1169758Y569863D01*
X1170256Y569364D01*
X1170907Y569095D01*
X1171612D01*
X1172263Y569364D01*
X1172762Y569863D01*
X1173032Y570514D01*
Y571219D01*
X1172762Y571870D01*
X1172263Y572368D01*
X1171612Y572638D01*
D02*
G37*
G36*
X1132242D02*
X1131537D01*
X1130886Y572368D01*
X1130388Y571870D01*
X1130118Y571219D01*
Y570514D01*
X1130388Y569863D01*
X1130886Y569364D01*
X1131537Y569095D01*
X1132242D01*
X1132893Y569364D01*
X1133392Y569863D01*
X1133661Y570514D01*
Y571219D01*
X1133392Y571870D01*
X1132893Y572368D01*
X1132242Y572638D01*
D02*
G37*
G36*
X1112557D02*
X1111852D01*
X1111201Y572368D01*
X1110703Y571870D01*
X1110433Y571219D01*
Y570514D01*
X1110703Y569863D01*
X1111201Y569364D01*
X1111852Y569095D01*
X1112557D01*
X1113208Y569364D01*
X1113707Y569863D01*
X1113976Y570514D01*
Y571219D01*
X1113707Y571870D01*
X1113208Y572368D01*
X1112557Y572638D01*
D02*
G37*
G36*
X1073187D02*
X1072482D01*
X1071831Y572368D01*
X1071333Y571870D01*
X1071063Y571219D01*
Y570514D01*
X1071333Y569863D01*
X1071831Y569364D01*
X1072482Y569095D01*
X1073187D01*
X1073838Y569364D01*
X1074337Y569863D01*
X1074606Y570514D01*
Y571219D01*
X1074337Y571870D01*
X1073838Y572368D01*
X1073187Y572638D01*
D02*
G37*
G36*
X1053502D02*
X1052797D01*
X1052146Y572368D01*
X1051648Y571870D01*
X1051378Y571219D01*
Y570514D01*
X1051648Y569863D01*
X1052146Y569364D01*
X1052797Y569095D01*
X1053502D01*
X1054153Y569364D01*
X1054652Y569863D01*
X1054921Y570514D01*
Y571219D01*
X1054652Y571870D01*
X1054153Y572368D01*
X1053502Y572638D01*
D02*
G37*
G36*
X1033817D02*
X1033112D01*
X1032461Y572368D01*
X1031963Y571870D01*
X1031693Y571219D01*
Y570514D01*
X1031963Y569863D01*
X1032461Y569364D01*
X1033112Y569095D01*
X1033817D01*
X1034468Y569364D01*
X1034966Y569863D01*
X1035236Y570514D01*
Y571219D01*
X1034966Y571870D01*
X1034468Y572368D01*
X1033817Y572638D01*
D02*
G37*
G36*
X974762D02*
X974057D01*
X973406Y572368D01*
X972908Y571870D01*
X972638Y571219D01*
Y570514D01*
X972908Y569863D01*
X973406Y569364D01*
X974057Y569095D01*
X974762D01*
X975413Y569364D01*
X975911Y569863D01*
X976181Y570514D01*
Y571219D01*
X975911Y571870D01*
X975413Y572368D01*
X974762Y572638D01*
D02*
G37*
G36*
X955077D02*
X954372D01*
X953721Y572368D01*
X953222Y571870D01*
X952953Y571219D01*
Y570514D01*
X953222Y569863D01*
X953721Y569364D01*
X954372Y569095D01*
X955077D01*
X955728Y569364D01*
X956226Y569863D01*
X956496Y570514D01*
Y571219D01*
X956226Y571870D01*
X955728Y572368D01*
X955077Y572638D01*
D02*
G37*
G36*
X896022D02*
X895317D01*
X894666Y572368D01*
X894167Y571870D01*
X893898Y571219D01*
Y570514D01*
X894167Y569863D01*
X894666Y569364D01*
X895317Y569095D01*
X896022D01*
X896673Y569364D01*
X897171Y569863D01*
X897441Y570514D01*
Y571219D01*
X897171Y571870D01*
X896673Y572368D01*
X896022Y572638D01*
D02*
G37*
G36*
X876337D02*
X875632D01*
X874981Y572368D01*
X874482Y571870D01*
X874213Y571219D01*
Y570514D01*
X874482Y569863D01*
X874981Y569364D01*
X875632Y569095D01*
X876337D01*
X876988Y569364D01*
X877486Y569863D01*
X877756Y570514D01*
Y571219D01*
X877486Y571870D01*
X876988Y572368D01*
X876337Y572638D01*
D02*
G37*
G36*
X1192774Y574961D02*
X1191841D01*
X1190939Y574719D01*
X1190131Y574253D01*
X1189472Y573593D01*
X1189005Y572785D01*
X1188764Y571884D01*
Y570951D01*
X1189005Y570050D01*
X1189472Y569242D01*
X1190131Y568582D01*
X1190939Y568116D01*
X1191841Y567874D01*
X1192774D01*
X1193675Y568116D01*
X1194483Y568582D01*
X1195142Y569242D01*
X1195609Y570050D01*
X1195850Y570951D01*
Y571884D01*
X1195609Y572785D01*
X1195142Y573593D01*
X1194483Y574253D01*
X1193675Y574719D01*
X1192774Y574961D01*
D02*
G37*
G36*
X1106159D02*
X1105226D01*
X1104325Y574719D01*
X1103517Y574253D01*
X1102858Y573593D01*
X1102391Y572785D01*
X1102150Y571884D01*
Y570951D01*
X1102391Y570050D01*
X1102858Y569242D01*
X1103517Y568582D01*
X1104325Y568116D01*
X1105226Y567874D01*
X1106159D01*
X1107061Y568116D01*
X1107868Y568582D01*
X1108528Y569242D01*
X1108995Y570050D01*
X1109236Y570951D01*
Y571884D01*
X1108995Y572785D01*
X1108528Y573593D01*
X1107868Y574253D01*
X1107061Y574719D01*
X1106159Y574961D01*
D02*
G37*
G36*
X915707Y572638D02*
X915002D01*
X914351Y572368D01*
X913852Y571870D01*
X913583Y571219D01*
Y570514D01*
X913852Y569863D01*
X914351Y569364D01*
X915002Y569095D01*
X915495D01*
X915828Y568687D01*
X915844Y568633D01*
X915728Y568352D01*
Y567648D01*
X915998Y566996D01*
X916496Y566498D01*
X917148Y566228D01*
X917852D01*
X918504Y566498D01*
X919002Y566996D01*
X919272Y567648D01*
Y568352D01*
X919002Y569004D01*
X918504Y569502D01*
X917852Y569772D01*
X917360D01*
X917026Y570179D01*
X917010Y570234D01*
X917126Y570514D01*
Y571219D01*
X916856Y571870D01*
X916358Y572368D01*
X915707Y572638D01*
D02*
G37*
G36*
X922852Y568772D02*
X922148D01*
X921496Y568502D01*
X920998Y568004D01*
X920728Y567352D01*
Y566648D01*
X920998Y565996D01*
X921496Y565498D01*
X922148Y565228D01*
X922852D01*
X923504Y565498D01*
X924002Y565996D01*
X924272Y566648D01*
Y567352D01*
X924002Y568004D01*
X923504Y568502D01*
X922852Y568772D01*
D02*
G37*
G36*
X1152352Y568272D02*
X1151648D01*
X1150996Y568002D01*
X1150498Y567504D01*
X1150228Y566852D01*
Y566148D01*
X1150498Y565496D01*
X1150996Y564998D01*
X1151648Y564728D01*
X1152352D01*
X1153004Y564998D01*
X1153502Y565496D01*
X1153772Y566148D01*
Y566852D01*
X1153502Y567504D01*
X1153004Y568002D01*
X1152352Y568272D01*
D02*
G37*
G36*
X829852Y566772D02*
X829148D01*
X828496Y566502D01*
X827998Y566004D01*
X827728Y565352D01*
Y564648D01*
X827998Y563996D01*
X828496Y563498D01*
X829148Y563228D01*
X829852D01*
X830504Y563498D01*
X831002Y563996D01*
X831272Y564648D01*
Y565352D01*
X831002Y566004D01*
X830504Y566502D01*
X829852Y566772D01*
D02*
G37*
G36*
X1192774Y567087D02*
X1191841D01*
X1190939Y566845D01*
X1190131Y566379D01*
X1189472Y565719D01*
X1189005Y564911D01*
X1188764Y564010D01*
Y563077D01*
X1189005Y562176D01*
X1189472Y561368D01*
X1190131Y560708D01*
X1190939Y560242D01*
X1191841Y560000D01*
X1192774D01*
X1193675Y560242D01*
X1194483Y560708D01*
X1195142Y561368D01*
X1195609Y562176D01*
X1195850Y563077D01*
Y564010D01*
X1195609Y564911D01*
X1195142Y565719D01*
X1194483Y566379D01*
X1193675Y566845D01*
X1192774Y567087D01*
D02*
G37*
G36*
X1106159D02*
X1105226D01*
X1104325Y566845D01*
X1103517Y566379D01*
X1102858Y565719D01*
X1102391Y564911D01*
X1102150Y564010D01*
Y563077D01*
X1102391Y562176D01*
X1102858Y561368D01*
X1103517Y560708D01*
X1104325Y560242D01*
X1105226Y560000D01*
X1106159D01*
X1107061Y560242D01*
X1107868Y560708D01*
X1108528Y561368D01*
X1108995Y562176D01*
X1109236Y563077D01*
Y564010D01*
X1108995Y564911D01*
X1108528Y565719D01*
X1107868Y566379D01*
X1107061Y566845D01*
X1106159Y567087D01*
D02*
G37*
G36*
X1035352Y562272D02*
X1034648D01*
X1033996Y562002D01*
X1033498Y561504D01*
X1033228Y560852D01*
Y560148D01*
X1033498Y559496D01*
X1033996Y558998D01*
X1034648Y558728D01*
X1035352D01*
X1036004Y558998D01*
X1036502Y559496D01*
X1036772Y560148D01*
Y560852D01*
X1036502Y561504D01*
X1036004Y562002D01*
X1035352Y562272D01*
D02*
G37*
G36*
X1031352Y557272D02*
X1030648D01*
X1029996Y557002D01*
X1029498Y556504D01*
X1029228Y555852D01*
Y555148D01*
X1029498Y554496D01*
X1029996Y553998D01*
X1030648Y553728D01*
X1031352D01*
X1032004Y553998D01*
X1032502Y554496D01*
X1032772Y555148D01*
Y555852D01*
X1032502Y556504D01*
X1032004Y557002D01*
X1031352Y557272D01*
D02*
G37*
G36*
X1017852D02*
X1017148D01*
X1016496Y557002D01*
X1015998Y556504D01*
X1015728Y555852D01*
Y555148D01*
X1015998Y554496D01*
X1016496Y553998D01*
X1017148Y553728D01*
X1017852D01*
X1018504Y553998D01*
X1019002Y554496D01*
X1019272Y555148D01*
Y555852D01*
X1019002Y556504D01*
X1018504Y557002D01*
X1017852Y557272D01*
D02*
G37*
G36*
X1192774Y559213D02*
X1191841D01*
X1190939Y558971D01*
X1190131Y558505D01*
X1189472Y557845D01*
X1189005Y557037D01*
X1188764Y556136D01*
Y555203D01*
X1189005Y554302D01*
X1189472Y553494D01*
X1190131Y552834D01*
X1190939Y552367D01*
X1191841Y552126D01*
X1192774D01*
X1193675Y552367D01*
X1194483Y552834D01*
X1195142Y553494D01*
X1195609Y554302D01*
X1195850Y555203D01*
Y556136D01*
X1195609Y557037D01*
X1195142Y557845D01*
X1194483Y558505D01*
X1193675Y558971D01*
X1192774Y559213D01*
D02*
G37*
G36*
X1106159D02*
X1105226D01*
X1104325Y558971D01*
X1103517Y558505D01*
X1102858Y557845D01*
X1102391Y557037D01*
X1102150Y556136D01*
Y555203D01*
X1102391Y554302D01*
X1102858Y553494D01*
X1102958Y553393D01*
X1102751Y553018D01*
X1102691Y552953D01*
X1102010D01*
X1101359Y552683D01*
X1100860Y552185D01*
X1100591Y551534D01*
Y550829D01*
X1100860Y550178D01*
X1101359Y549679D01*
X1102010Y549409D01*
X1102715D01*
X1103366Y549679D01*
X1103864Y550178D01*
X1104134Y550829D01*
Y551534D01*
X1103934Y552016D01*
X1104325Y552367D01*
X1105226Y552126D01*
X1106159D01*
X1107061Y552367D01*
X1107868Y552834D01*
X1108528Y553494D01*
X1108995Y554302D01*
X1109236Y555203D01*
Y556136D01*
X1108995Y557037D01*
X1108528Y557845D01*
X1107868Y558505D01*
X1107061Y558971D01*
X1106159Y559213D01*
D02*
G37*
G36*
X994352Y551772D02*
X993648D01*
X992996Y551502D01*
X992699Y551204D01*
X926301D01*
X926004Y551502D01*
X925352Y551772D01*
X924648D01*
X923996Y551502D01*
X923498Y551004D01*
X923228Y550352D01*
Y549648D01*
X923498Y548996D01*
X923996Y548498D01*
X924648Y548228D01*
X925352D01*
X926004Y548498D01*
X926301Y548796D01*
X992699D01*
X992996Y548498D01*
X993648Y548228D01*
X994352D01*
X995004Y548498D01*
X995502Y548996D01*
X995772Y549648D01*
Y550352D01*
X995502Y551004D01*
X995004Y551502D01*
X994352Y551772D01*
D02*
G37*
G36*
X1142085Y552953D02*
X1141380D01*
X1140729Y552683D01*
X1140230Y552185D01*
X1139961Y551534D01*
Y550829D01*
X1140230Y550178D01*
X1140729Y549679D01*
X1141380Y549409D01*
X1142085D01*
X1142736Y549679D01*
X1143234Y550178D01*
X1143504Y550829D01*
Y551534D01*
X1143234Y552185D01*
X1142736Y552683D01*
X1142085Y552953D01*
D02*
G37*
G36*
X1122400D02*
X1121695D01*
X1121044Y552683D01*
X1120545Y552185D01*
X1120276Y551534D01*
Y550829D01*
X1120545Y550178D01*
X1121044Y549679D01*
X1121695Y549409D01*
X1122400D01*
X1123051Y549679D01*
X1123549Y550178D01*
X1123819Y550829D01*
Y551534D01*
X1123549Y552185D01*
X1123051Y552683D01*
X1122400Y552953D01*
D02*
G37*
G36*
X1083030D02*
X1082325D01*
X1081674Y552683D01*
X1081175Y552185D01*
X1080906Y551534D01*
Y550829D01*
X1081175Y550178D01*
X1081674Y549679D01*
X1082325Y549409D01*
X1083030D01*
X1083681Y549679D01*
X1084179Y550178D01*
X1084449Y550829D01*
Y551534D01*
X1084179Y552185D01*
X1083681Y552683D01*
X1083030Y552953D01*
D02*
G37*
G36*
X1004289D02*
X1003585D01*
X1002934Y552683D01*
X1002435Y552185D01*
X1002165Y551534D01*
Y550829D01*
X1002435Y550178D01*
X1002934Y549679D01*
X1003585Y549409D01*
X1004289D01*
X1004941Y549679D01*
X1005439Y550178D01*
X1005709Y550829D01*
Y551534D01*
X1005439Y552185D01*
X1004941Y552683D01*
X1004289Y552953D01*
D02*
G37*
G36*
X827124D02*
X826419D01*
X825768Y552683D01*
X825270Y552185D01*
X825000Y551534D01*
Y550829D01*
X825270Y550178D01*
X825768Y549679D01*
X826419Y549409D01*
X827124D01*
X827775Y549679D01*
X828274Y550178D01*
X828543Y550829D01*
Y551534D01*
X828274Y552185D01*
X827775Y552683D01*
X827124Y552953D01*
D02*
G37*
G36*
X807439D02*
X806734D01*
X806083Y552683D01*
X805585Y552185D01*
X805315Y551534D01*
Y550829D01*
X805585Y550178D01*
X806083Y549679D01*
X806734Y549409D01*
X807439D01*
X808090Y549679D01*
X808589Y550178D01*
X808858Y550829D01*
Y551534D01*
X808589Y552185D01*
X808090Y552683D01*
X807439Y552953D01*
D02*
G37*
G36*
X1035300Y550253D02*
X1034595D01*
X1033944Y549984D01*
X1033445Y549485D01*
X1033176Y548834D01*
Y548129D01*
X1033445Y547478D01*
X1033944Y546980D01*
X1034595Y546710D01*
X1035300D01*
X1035951Y546980D01*
X1036449Y547478D01*
X1036719Y548129D01*
Y548834D01*
X1036449Y549485D01*
X1035951Y549984D01*
X1035300Y550253D01*
D02*
G37*
G36*
X1192774Y551339D02*
X1191841D01*
X1190939Y551097D01*
X1190131Y550631D01*
X1189472Y549971D01*
X1189005Y549163D01*
X1188764Y548262D01*
Y547329D01*
X1189005Y546428D01*
X1189472Y545620D01*
X1190131Y544960D01*
X1190939Y544493D01*
X1191841Y544252D01*
X1192774D01*
X1193675Y544493D01*
X1194483Y544960D01*
X1195142Y545620D01*
X1195609Y546428D01*
X1195850Y547329D01*
Y548262D01*
X1195609Y549163D01*
X1195142Y549971D01*
X1194483Y550631D01*
X1193675Y551097D01*
X1192774Y551339D01*
D02*
G37*
G36*
X1027852Y546772D02*
X1027148D01*
X1026496Y546502D01*
X1025998Y546004D01*
X1025728Y545352D01*
Y544648D01*
X1025998Y543996D01*
X1026496Y543498D01*
X1027148Y543228D01*
X1027852D01*
X1028504Y543498D01*
X1029002Y543996D01*
X1029272Y544648D01*
Y545352D01*
X1029002Y546004D01*
X1028504Y546502D01*
X1027852Y546772D01*
D02*
G37*
G36*
X928852Y547272D02*
X928148D01*
X927496Y547002D01*
X926998Y546504D01*
X926728Y545852D01*
Y545148D01*
X926998Y544496D01*
X927496Y543998D01*
X928148Y543728D01*
X928852D01*
X929015Y543796D01*
X987699D01*
X987996Y543498D01*
X988648Y543228D01*
X989352D01*
X990004Y543498D01*
X990502Y543996D01*
X990772Y544648D01*
Y545352D01*
X990502Y546004D01*
X990004Y546502D01*
X989352Y546772D01*
X988648D01*
X987996Y546502D01*
X987699Y546204D01*
X930126D01*
X930002Y546504D01*
X929504Y547002D01*
X928852Y547272D01*
D02*
G37*
G36*
X916772Y544048D02*
X916067D01*
X915416Y543778D01*
X914918Y543280D01*
X914648Y542628D01*
Y541924D01*
X914918Y541272D01*
X915416Y540774D01*
X916067Y540504D01*
X916772D01*
X917423Y540774D01*
X917922Y541272D01*
X918191Y541924D01*
Y542628D01*
X917922Y543280D01*
X917423Y543778D01*
X916772Y544048D01*
D02*
G37*
G36*
X1038296Y543528D02*
X1037591D01*
X1036940Y543258D01*
X1036442Y542759D01*
X1036172Y542108D01*
Y541403D01*
X1036442Y540752D01*
X1036940Y540254D01*
X1037591Y539984D01*
X1038296D01*
X1038947Y540254D01*
X1039446Y540752D01*
X1039715Y541403D01*
Y542108D01*
X1039446Y542759D01*
X1038947Y543258D01*
X1038296Y543528D01*
D02*
G37*
G36*
X938898Y542332D02*
X938194D01*
X937543Y542062D01*
X937044Y541564D01*
X936774Y540912D01*
Y540207D01*
X937044Y539556D01*
X937543Y539058D01*
X938194Y538788D01*
X938898D01*
X939550Y539058D01*
X940048Y539556D01*
X940318Y540207D01*
Y540912D01*
X940048Y541564D01*
X939550Y542062D01*
X938898Y542332D01*
D02*
G37*
G36*
X1007352Y546272D02*
X1006648D01*
X1005996Y546002D01*
X1005498Y545504D01*
X1005228Y544852D01*
Y544431D01*
X999501Y538704D01*
X978301D01*
X978004Y539002D01*
X977352Y539272D01*
X976648D01*
X975996Y539002D01*
X975498Y538504D01*
X975228Y537852D01*
Y537148D01*
X975498Y536496D01*
X975996Y535998D01*
X976648Y535728D01*
X977352D01*
X978004Y535998D01*
X978301Y536296D01*
X1000000D01*
X1000000Y536296D01*
X1000461Y536387D01*
X1000852Y536649D01*
X1006931Y542728D01*
X1007352D01*
X1008004Y542998D01*
X1008502Y543496D01*
X1008772Y544148D01*
Y544852D01*
X1008502Y545504D01*
X1008004Y546002D01*
X1007352Y546272D01*
D02*
G37*
G36*
X1030852Y541272D02*
X1030148D01*
X1029496Y541002D01*
X1028998Y540504D01*
X1028728Y539852D01*
Y539148D01*
X1028998Y538496D01*
X1029496Y537998D01*
X1030148Y537728D01*
X1030852D01*
X1031504Y537998D01*
X1032002Y538496D01*
X1032272Y539148D01*
Y539852D01*
X1032002Y540504D01*
X1031504Y541002D01*
X1030852Y541272D01*
D02*
G37*
G36*
X1192774Y543465D02*
X1191841D01*
X1190939Y543223D01*
X1190131Y542757D01*
X1189472Y542097D01*
X1189005Y541289D01*
X1188764Y540388D01*
Y539455D01*
X1189005Y538554D01*
X1189472Y537746D01*
X1190131Y537086D01*
X1190939Y536619D01*
X1191841Y536378D01*
X1192774D01*
X1193675Y536619D01*
X1194483Y537086D01*
X1195142Y537746D01*
X1195609Y538554D01*
X1195850Y539455D01*
Y540388D01*
X1195609Y541289D01*
X1195142Y542097D01*
X1194483Y542757D01*
X1193675Y543223D01*
X1192774Y543465D01*
D02*
G37*
G36*
X1106159D02*
X1105226D01*
X1104325Y543223D01*
X1103517Y542757D01*
X1102858Y542097D01*
X1102391Y541289D01*
X1102150Y540388D01*
Y539455D01*
X1102391Y538554D01*
X1102858Y537746D01*
X1103517Y537086D01*
X1104325Y536619D01*
X1105226Y536378D01*
X1106159D01*
X1107061Y536619D01*
X1107868Y537086D01*
X1108528Y537746D01*
X1108995Y538554D01*
X1109236Y539455D01*
Y540388D01*
X1108995Y541289D01*
X1108528Y542097D01*
X1107868Y542757D01*
X1107061Y543223D01*
X1106159Y543465D01*
D02*
G37*
G36*
X1035852Y539272D02*
X1035148D01*
X1034496Y539002D01*
X1033998Y538504D01*
X1033728Y537852D01*
Y537148D01*
X1033998Y536496D01*
X1034496Y535998D01*
X1035148Y535728D01*
X1035852D01*
X1036504Y535998D01*
X1037002Y536496D01*
X1037272Y537148D01*
Y537852D01*
X1037002Y538504D01*
X1036504Y539002D01*
X1035852Y539272D01*
D02*
G37*
G36*
X1022352Y536772D02*
X1021648D01*
X1020996Y536502D01*
X1020498Y536004D01*
X1020228Y535352D01*
Y534648D01*
X1020498Y533996D01*
X1020996Y533498D01*
X1021648Y533228D01*
X1022352D01*
X1023004Y533498D01*
X1023502Y533996D01*
X1023772Y534648D01*
Y535352D01*
X1023502Y536004D01*
X1023004Y536502D01*
X1022352Y536772D01*
D02*
G37*
G36*
X959500Y536303D02*
X939000D01*
X938693Y536242D01*
X938432Y536068D01*
X938432Y536068D01*
X937432Y535068D01*
X937258Y534807D01*
X937197Y534500D01*
Y534110D01*
X936902Y533987D01*
X936404Y533489D01*
X936214Y533032D01*
X936043Y532998D01*
X935392Y533268D01*
X934687D01*
X934036Y532998D01*
X933537Y532500D01*
X933268Y531848D01*
Y531144D01*
X933537Y530492D01*
X934036Y529994D01*
X934687Y529724D01*
X935392D01*
X936043Y529994D01*
X936541Y530492D01*
X936731Y530949D01*
X936902Y530983D01*
X937528Y530724D01*
Y530239D01*
X937797Y529588D01*
X938296Y529090D01*
X938947Y528820D01*
X939652D01*
X940303Y529090D01*
X940410Y529197D01*
X959500D01*
X959807Y529258D01*
X960068Y529432D01*
X960242Y529693D01*
X960303Y530000D01*
Y535500D01*
X960242Y535807D01*
X960068Y536068D01*
X959807Y536242D01*
X959500Y536303D01*
D02*
G37*
G36*
X1146352Y534272D02*
X1145648D01*
X1144996Y534002D01*
X1144498Y533504D01*
X1144228Y532852D01*
Y532148D01*
X1144498Y531496D01*
X1144996Y530998D01*
X1145648Y530728D01*
X1146352D01*
X1147004Y530998D01*
X1147502Y531496D01*
X1147772Y532148D01*
Y532852D01*
X1147502Y533504D01*
X1147004Y534002D01*
X1146352Y534272D01*
D02*
G37*
G36*
X991352Y533772D02*
X990648D01*
X989996Y533502D01*
X989498Y533004D01*
X989228Y532352D01*
Y531648D01*
X989498Y530996D01*
X989996Y530498D01*
X990648Y530228D01*
X991352D01*
X992004Y530498D01*
X992502Y530996D01*
X992772Y531648D01*
Y532352D01*
X992502Y533004D01*
X992004Y533502D01*
X991352Y533772D01*
D02*
G37*
G36*
X1132242Y533268D02*
X1131537D01*
X1130886Y532998D01*
X1130388Y532500D01*
X1130118Y531848D01*
Y531144D01*
X1130388Y530492D01*
X1130886Y529994D01*
X1131537Y529724D01*
X1132242D01*
X1132893Y529994D01*
X1133392Y530492D01*
X1133661Y531144D01*
Y531848D01*
X1133392Y532500D01*
X1132893Y532998D01*
X1132242Y533268D01*
D02*
G37*
G36*
X1112557D02*
X1111852D01*
X1111201Y532998D01*
X1110703Y532500D01*
X1110433Y531848D01*
Y531144D01*
X1110703Y530492D01*
X1111201Y529994D01*
X1111852Y529724D01*
X1112557D01*
X1113208Y529994D01*
X1113707Y530492D01*
X1113976Y531144D01*
Y531848D01*
X1113707Y532500D01*
X1113208Y532998D01*
X1112557Y533268D01*
D02*
G37*
G36*
X1073187D02*
X1072482D01*
X1071831Y532998D01*
X1071333Y532500D01*
X1071063Y531848D01*
Y531144D01*
X1071333Y530492D01*
X1071831Y529994D01*
X1072482Y529724D01*
X1073187D01*
X1073838Y529994D01*
X1074337Y530492D01*
X1074606Y531144D01*
Y531848D01*
X1074337Y532500D01*
X1073838Y532998D01*
X1073187Y533268D01*
D02*
G37*
G36*
X1014132D02*
X1013427D01*
X1012776Y532998D01*
X1012278Y532500D01*
X1012008Y531848D01*
Y531144D01*
X1012278Y530492D01*
X1012776Y529994D01*
X1013427Y529724D01*
X1014132D01*
X1014783Y529994D01*
X1015281Y530492D01*
X1015551Y531144D01*
Y531848D01*
X1015281Y532500D01*
X1014783Y532998D01*
X1014132Y533268D01*
D02*
G37*
G36*
X974762D02*
X974057D01*
X973406Y532998D01*
X972908Y532500D01*
X972638Y531848D01*
Y531144D01*
X972908Y530492D01*
X973406Y529994D01*
X974057Y529724D01*
X974762D01*
X975413Y529994D01*
X975911Y530492D01*
X976181Y531144D01*
Y531848D01*
X975911Y532500D01*
X975413Y532998D01*
X974762Y533268D01*
D02*
G37*
G36*
X896022D02*
X895317D01*
X894666Y532998D01*
X894167Y532500D01*
X893898Y531848D01*
Y531144D01*
X894167Y530492D01*
X894666Y529994D01*
X895317Y529724D01*
X896022D01*
X896673Y529994D01*
X897171Y530492D01*
X897441Y531144D01*
Y531848D01*
X897171Y532500D01*
X896673Y532998D01*
X896022Y533268D01*
D02*
G37*
G36*
X876337D02*
X875632D01*
X874981Y532998D01*
X874482Y532500D01*
X874213Y531848D01*
Y531144D01*
X874482Y530492D01*
X874981Y529994D01*
X875632Y529724D01*
X876337D01*
X876988Y529994D01*
X877486Y530492D01*
X877756Y531144D01*
Y531848D01*
X877486Y532500D01*
X876988Y532998D01*
X876337Y533268D01*
D02*
G37*
G36*
X856652D02*
X855947D01*
X855296Y532998D01*
X854797Y532500D01*
X854528Y531848D01*
Y531144D01*
X854797Y530492D01*
X855296Y529994D01*
X855947Y529724D01*
X856652D01*
X857303Y529994D01*
X857801Y530492D01*
X858071Y531144D01*
Y531848D01*
X857801Y532500D01*
X857303Y532998D01*
X856652Y533268D01*
D02*
G37*
G36*
X836967D02*
X836262D01*
X835611Y532998D01*
X835112Y532500D01*
X834842Y531848D01*
Y531144D01*
X835112Y530492D01*
X835611Y529994D01*
X836262Y529724D01*
X836967D01*
X837618Y529994D01*
X838116Y530492D01*
X838386Y531144D01*
Y531848D01*
X838116Y532500D01*
X837618Y532998D01*
X836967Y533268D01*
D02*
G37*
G36*
X1192774Y535591D02*
X1191841D01*
X1190939Y535349D01*
X1190131Y534883D01*
X1189472Y534223D01*
X1189005Y533415D01*
X1188764Y532514D01*
Y531581D01*
X1189005Y530680D01*
X1189472Y529872D01*
X1190131Y529212D01*
X1190939Y528745D01*
X1191841Y528504D01*
X1192774D01*
X1193675Y528745D01*
X1194483Y529212D01*
X1195142Y529872D01*
X1195609Y530680D01*
X1195850Y531581D01*
Y532514D01*
X1195609Y533415D01*
X1195142Y534223D01*
X1194483Y534883D01*
X1193675Y535349D01*
X1192774Y535591D01*
D02*
G37*
G36*
X1106159D02*
X1105226D01*
X1104325Y535349D01*
X1103517Y534883D01*
X1102858Y534223D01*
X1102391Y533415D01*
X1102150Y532514D01*
Y531581D01*
X1102391Y530680D01*
X1102858Y529872D01*
X1103517Y529212D01*
X1104325Y528745D01*
X1105226Y528504D01*
X1106159D01*
X1107061Y528745D01*
X1107868Y529212D01*
X1108528Y529872D01*
X1108995Y530680D01*
X1109236Y531581D01*
Y532514D01*
X1108995Y533415D01*
X1108528Y534223D01*
X1107868Y534883D01*
X1107061Y535349D01*
X1106159Y535591D01*
D02*
G37*
G36*
X995305Y529987D02*
X994600D01*
X993949Y529717D01*
X993450Y529219D01*
X993181Y528568D01*
Y527863D01*
X993450Y527212D01*
X993949Y526714D01*
X994600Y526444D01*
X995305D01*
X995956Y526714D01*
X996454Y527212D01*
X996724Y527863D01*
Y528568D01*
X996454Y529219D01*
X995956Y529717D01*
X995305Y529987D01*
D02*
G37*
G36*
X924852Y530772D02*
X924148D01*
X923496Y530502D01*
X922998Y530004D01*
X922728Y529352D01*
Y528648D01*
X922998Y527996D01*
X923496Y527498D01*
X923701Y527413D01*
X923998Y527003D01*
X923728Y526352D01*
Y525648D01*
X923998Y524996D01*
X924496Y524498D01*
X925148Y524228D01*
X925852D01*
X926504Y524498D01*
X927002Y524996D01*
X927272Y525648D01*
Y526352D01*
X927002Y527004D01*
X926504Y527502D01*
X926299Y527587D01*
X926002Y527996D01*
X926272Y528648D01*
Y529352D01*
X926002Y530004D01*
X925504Y530502D01*
X924852Y530772D01*
D02*
G37*
G36*
X1192774Y527716D02*
X1191841D01*
X1190939Y527475D01*
X1190131Y527009D01*
X1189472Y526349D01*
X1189005Y525541D01*
X1188764Y524640D01*
Y523707D01*
X1189005Y522806D01*
X1189472Y521998D01*
X1190131Y521338D01*
X1190939Y520871D01*
X1191841Y520630D01*
X1192774D01*
X1193675Y520871D01*
X1194483Y521338D01*
X1195142Y521998D01*
X1195609Y522806D01*
X1195850Y523707D01*
Y524640D01*
X1195609Y525541D01*
X1195142Y526349D01*
X1194483Y527009D01*
X1193675Y527475D01*
X1192774Y527716D01*
D02*
G37*
G36*
X1106159D02*
X1105226D01*
X1104325Y527475D01*
X1103517Y527009D01*
X1102858Y526349D01*
X1102391Y525541D01*
X1102150Y524640D01*
Y523707D01*
X1102391Y522806D01*
X1102858Y521998D01*
X1103517Y521338D01*
X1104325Y520871D01*
X1105226Y520630D01*
X1106159D01*
X1107061Y520871D01*
X1107868Y521338D01*
X1108528Y521998D01*
X1108995Y522806D01*
X1109236Y523707D01*
Y524640D01*
X1108995Y525541D01*
X1108528Y526349D01*
X1107868Y527009D01*
X1107061Y527475D01*
X1106159Y527716D01*
D02*
G37*
G36*
X1159852Y520272D02*
X1159148D01*
X1158496Y520002D01*
X1157998Y519504D01*
X1157728Y518852D01*
Y518148D01*
X1157998Y517496D01*
X1158496Y516998D01*
X1159148Y516728D01*
X1159852D01*
X1160504Y516998D01*
X1161002Y517496D01*
X1161272Y518148D01*
Y518852D01*
X1161002Y519504D01*
X1160504Y520002D01*
X1159852Y520272D01*
D02*
G37*
G36*
X999852Y518272D02*
X999148D01*
X998496Y518002D01*
X997998Y517504D01*
X997728Y516852D01*
Y516148D01*
X997998Y515496D01*
X998496Y514998D01*
X999148Y514728D01*
X999852D01*
X1000504Y514998D01*
X1001002Y515496D01*
X1001272Y516148D01*
Y516852D01*
X1001002Y517504D01*
X1000504Y518002D01*
X999852Y518272D01*
D02*
G37*
G36*
X1192774Y519842D02*
X1191841D01*
X1190939Y519601D01*
X1190131Y519135D01*
X1189472Y518475D01*
X1189005Y517667D01*
X1188764Y516766D01*
Y515833D01*
X1189005Y514931D01*
X1189472Y514124D01*
X1190131Y513464D01*
X1190939Y512997D01*
X1191841Y512756D01*
X1192774D01*
X1193675Y512997D01*
X1194483Y513464D01*
X1195142Y514124D01*
X1195609Y514931D01*
X1195850Y515833D01*
Y516766D01*
X1195609Y517667D01*
X1195142Y518475D01*
X1194483Y519135D01*
X1193675Y519601D01*
X1192774Y519842D01*
D02*
G37*
G36*
X1106159D02*
X1105226D01*
X1104325Y519601D01*
X1103517Y519135D01*
X1102858Y518475D01*
X1102391Y517667D01*
X1102150Y516766D01*
Y515833D01*
X1102391Y514931D01*
X1102858Y514124D01*
X1102958Y514023D01*
X1102751Y513648D01*
X1102691Y513583D01*
X1102010D01*
X1101359Y513313D01*
X1100860Y512815D01*
X1100591Y512163D01*
Y511459D01*
X1100860Y510808D01*
X1101359Y510309D01*
X1101966Y510057D01*
X1102019Y510024D01*
X1102323Y509539D01*
X1102150Y508892D01*
Y507959D01*
X1102391Y507058D01*
X1102858Y506250D01*
X1103517Y505590D01*
X1104325Y505123D01*
X1105226Y504882D01*
X1106159D01*
X1107061Y505123D01*
X1107868Y505590D01*
X1108528Y506250D01*
X1108995Y507058D01*
X1109236Y507959D01*
Y508892D01*
X1108995Y509793D01*
X1108528Y510601D01*
X1107868Y511261D01*
X1107061Y511727D01*
X1106159Y511969D01*
X1105226D01*
X1104634Y511810D01*
X1104135Y512162D01*
X1104132Y512168D01*
X1103934Y512646D01*
X1104325Y512997D01*
X1105226Y512756D01*
X1106159D01*
X1107061Y512997D01*
X1107868Y513464D01*
X1108528Y514124D01*
X1108995Y514931D01*
X1109236Y515833D01*
Y516766D01*
X1108995Y517667D01*
X1108528Y518475D01*
X1107868Y519135D01*
X1107061Y519601D01*
X1106159Y519842D01*
D02*
G37*
G36*
X1161770Y513583D02*
X1161065D01*
X1160414Y513313D01*
X1159915Y512815D01*
X1159646Y512163D01*
Y511459D01*
X1159915Y510808D01*
X1160414Y510309D01*
X1161065Y510039D01*
X1161770D01*
X1162421Y510309D01*
X1162919Y510808D01*
X1163189Y511459D01*
Y512163D01*
X1162919Y512815D01*
X1162421Y513313D01*
X1161770Y513583D01*
D02*
G37*
G36*
X1142085D02*
X1141380D01*
X1140729Y513313D01*
X1140230Y512815D01*
X1139961Y512163D01*
Y511459D01*
X1140230Y510808D01*
X1140729Y510309D01*
X1141380Y510039D01*
X1142085D01*
X1142736Y510309D01*
X1143234Y510808D01*
X1143504Y511459D01*
Y512163D01*
X1143234Y512815D01*
X1142736Y513313D01*
X1142085Y513583D01*
D02*
G37*
G36*
X1122400D02*
X1121695D01*
X1121044Y513313D01*
X1120545Y512815D01*
X1120276Y512163D01*
Y511459D01*
X1120545Y510808D01*
X1121044Y510309D01*
X1121695Y510039D01*
X1122400D01*
X1123051Y510309D01*
X1123549Y510808D01*
X1123819Y511459D01*
Y512163D01*
X1123549Y512815D01*
X1123051Y513313D01*
X1122400Y513583D01*
D02*
G37*
G36*
X1083030D02*
X1082325D01*
X1081674Y513313D01*
X1081175Y512815D01*
X1080906Y512163D01*
Y511459D01*
X1081175Y510808D01*
X1081674Y510309D01*
X1082325Y510039D01*
X1083030D01*
X1083681Y510309D01*
X1084179Y510808D01*
X1084449Y511459D01*
Y512163D01*
X1084179Y512815D01*
X1083681Y513313D01*
X1083030Y513583D01*
D02*
G37*
G36*
X1043659D02*
X1042955D01*
X1042304Y513313D01*
X1041805Y512815D01*
X1041535Y512163D01*
Y511459D01*
X1041805Y510808D01*
X1042304Y510309D01*
X1042955Y510039D01*
X1043659D01*
X1044311Y510309D01*
X1044809Y510808D01*
X1045079Y511459D01*
Y512163D01*
X1044809Y512815D01*
X1044311Y513313D01*
X1043659Y513583D01*
D02*
G37*
G36*
X1023975D02*
X1023270D01*
X1022618Y513313D01*
X1022120Y512815D01*
X1021850Y512163D01*
Y511459D01*
X1022120Y510808D01*
X1022618Y510309D01*
X1023270Y510039D01*
X1023975D01*
X1024626Y510309D01*
X1025124Y510808D01*
X1025394Y511459D01*
Y512163D01*
X1025124Y512815D01*
X1024626Y513313D01*
X1023975Y513583D01*
D02*
G37*
G36*
X984604D02*
X983900D01*
X983248Y513313D01*
X982750Y512815D01*
X982480Y512163D01*
Y511459D01*
X982750Y510808D01*
X983248Y510309D01*
X983900Y510039D01*
X984604D01*
X985256Y510309D01*
X985754Y510808D01*
X986024Y511459D01*
Y512163D01*
X985754Y512815D01*
X985256Y513313D01*
X984604Y513583D01*
D02*
G37*
G36*
X964919D02*
X964215D01*
X963563Y513313D01*
X963065Y512815D01*
X962795Y512163D01*
Y511459D01*
X963065Y510808D01*
X963563Y510309D01*
X964215Y510039D01*
X964919D01*
X965571Y510309D01*
X966069Y510808D01*
X966339Y511459D01*
Y512163D01*
X966069Y512815D01*
X965571Y513313D01*
X964919Y513583D01*
D02*
G37*
G36*
X905864D02*
X905159D01*
X904508Y513313D01*
X904010Y512815D01*
X903740Y512163D01*
Y511459D01*
X904010Y510808D01*
X904508Y510309D01*
X905159Y510039D01*
X905864D01*
X906515Y510309D01*
X907014Y510808D01*
X907283Y511459D01*
Y512163D01*
X907014Y512815D01*
X906515Y513313D01*
X905864Y513583D01*
D02*
G37*
G36*
X866494D02*
X865789D01*
X865138Y513313D01*
X864640Y512815D01*
X864370Y512163D01*
Y511459D01*
X864640Y510808D01*
X865138Y510309D01*
X865789Y510039D01*
X866494D01*
X867145Y510309D01*
X867644Y510808D01*
X867913Y511459D01*
Y512163D01*
X867644Y512815D01*
X867145Y513313D01*
X866494Y513583D01*
D02*
G37*
G36*
X846809D02*
X846104D01*
X845453Y513313D01*
X844955Y512815D01*
X844685Y512163D01*
Y511459D01*
X844955Y510808D01*
X845453Y510309D01*
X846104Y510039D01*
X846809D01*
X847460Y510309D01*
X847959Y510808D01*
X848228Y511459D01*
Y512163D01*
X847959Y512815D01*
X847460Y513313D01*
X846809Y513583D01*
D02*
G37*
G36*
X827124D02*
X826419D01*
X825768Y513313D01*
X825270Y512815D01*
X825000Y512163D01*
Y511459D01*
X825270Y510808D01*
X825768Y510309D01*
X826419Y510039D01*
X827124D01*
X827775Y510309D01*
X828274Y510808D01*
X828543Y511459D01*
Y512163D01*
X828274Y512815D01*
X827775Y513313D01*
X827124Y513583D01*
D02*
G37*
G36*
X807439D02*
X806734D01*
X806083Y513313D01*
X805585Y512815D01*
X805315Y512163D01*
Y511459D01*
X805585Y510808D01*
X806083Y510309D01*
X806734Y510039D01*
X807439D01*
X808090Y510309D01*
X808589Y510808D01*
X808858Y511459D01*
Y512163D01*
X808589Y512815D01*
X808090Y513313D01*
X807439Y513583D01*
D02*
G37*
G36*
X903500Y551316D02*
X902642Y551203D01*
X901842Y550872D01*
X901155Y550345D01*
X900628Y549658D01*
X900297Y548858D01*
X900184Y548000D01*
X900297Y547142D01*
X900628Y546342D01*
X901155Y545655D01*
X904684Y542127D01*
Y522500D01*
X904797Y521642D01*
X905128Y520842D01*
X905655Y520155D01*
X915155Y510655D01*
X915405Y510464D01*
X915361Y509867D01*
X914998Y509504D01*
X914728Y508852D01*
Y508148D01*
X914998Y507496D01*
X915496Y506998D01*
X916148Y506728D01*
X916852D01*
X917504Y506998D01*
X917897Y507391D01*
X921258D01*
X921635Y507014D01*
X922286Y506744D01*
X922991D01*
X923642Y507014D01*
X924141Y507512D01*
X924410Y508163D01*
Y508868D01*
X924279Y509184D01*
X924613Y509684D01*
X946500D01*
X947358Y509797D01*
X948158Y510128D01*
X948845Y510655D01*
X954595Y516405D01*
X955122Y517092D01*
X955453Y517892D01*
X955566Y518750D01*
X955453Y519608D01*
X955122Y520408D01*
X954900Y520697D01*
X955146Y521197D01*
X958500D01*
X958807Y521258D01*
X959068Y521432D01*
X959068Y521432D01*
X960068Y522432D01*
X960242Y522693D01*
X960303Y523000D01*
Y527500D01*
X960242Y527807D01*
X960068Y528068D01*
X959807Y528242D01*
X959500Y528303D01*
X937000D01*
X936693Y528242D01*
X936432Y528068D01*
X934932Y526568D01*
X934758Y526307D01*
X934748Y526253D01*
X934498Y526004D01*
X934228Y525352D01*
Y524648D01*
X934498Y523996D01*
X934697Y523797D01*
Y523000D01*
X934758Y522693D01*
X934932Y522432D01*
X934932Y522432D01*
X935932Y521432D01*
X936193Y521258D01*
X936500Y521197D01*
X949301D01*
X949508Y520697D01*
X945127Y516316D01*
X941016D01*
X940809Y516816D01*
X941125Y517132D01*
X941395Y517783D01*
Y518488D01*
X941125Y519139D01*
X940627Y519638D01*
X939976Y519907D01*
X939271D01*
X938620Y519638D01*
X938257Y519275D01*
X938096Y519145D01*
X937627Y519251D01*
X937397Y519482D01*
X936745Y519751D01*
X936041D01*
X935390Y519482D01*
X934891Y518983D01*
X934621Y518332D01*
Y517627D01*
X934891Y516976D01*
X935052Y516816D01*
X934844Y516316D01*
X918873D01*
X911316Y523873D01*
Y543500D01*
X911203Y544358D01*
X910872Y545158D01*
X910345Y545845D01*
X905845Y550345D01*
X905158Y550872D01*
X904358Y551203D01*
X903500Y551316D01*
D02*
G37*
G36*
X1181852Y510272D02*
X1181148D01*
X1180496Y510002D01*
X1179998Y509504D01*
X1179728Y508852D01*
Y508148D01*
X1179998Y507496D01*
X1180496Y506998D01*
X1181148Y506728D01*
X1181852D01*
X1182504Y506998D01*
X1183002Y507496D01*
X1183272Y508148D01*
Y508852D01*
X1183002Y509504D01*
X1182504Y510002D01*
X1181852Y510272D01*
D02*
G37*
G36*
X1192774Y511969D02*
X1191841D01*
X1190939Y511727D01*
X1190131Y511261D01*
X1189472Y510601D01*
X1189005Y509793D01*
X1188764Y508892D01*
Y507959D01*
X1189005Y507058D01*
X1189472Y506250D01*
X1190131Y505590D01*
X1190939Y505123D01*
X1191841Y504882D01*
X1192774D01*
X1193675Y505123D01*
X1194483Y505590D01*
X1195142Y506250D01*
X1195609Y507058D01*
X1195850Y507959D01*
Y508892D01*
X1195609Y509793D01*
X1195142Y510601D01*
X1194483Y511261D01*
X1193675Y511727D01*
X1192774Y511969D01*
D02*
G37*
G36*
X886337Y522630D02*
X884663D01*
X883011Y522368D01*
X881419Y521851D01*
X879929Y521092D01*
X878575Y520108D01*
X877392Y518925D01*
X876408Y517571D01*
X875649Y516081D01*
X875132Y514489D01*
X874870Y512837D01*
Y511163D01*
X875132Y509511D01*
X875649Y507920D01*
X876408Y506429D01*
X877392Y505075D01*
X878575Y503892D01*
X879929Y502909D01*
X881419Y502149D01*
X883011Y501632D01*
X884663Y501370D01*
X886337D01*
X887989Y501632D01*
X889581Y502149D01*
X891071Y502909D01*
X892425Y503892D01*
X893608Y505075D01*
X894592Y506429D01*
X895351Y507920D01*
X895868Y509511D01*
X896130Y511163D01*
Y512837D01*
X895868Y514489D01*
X895351Y516081D01*
X894592Y517571D01*
X893608Y518925D01*
X892425Y520108D01*
X891071Y521092D01*
X889581Y521851D01*
X887989Y522368D01*
X886337Y522630D01*
D02*
G37*
G36*
X936352Y501272D02*
X935648D01*
X934996Y501002D01*
X934498Y500504D01*
X934228Y499852D01*
Y499148D01*
X934498Y498496D01*
X934996Y497998D01*
X935648Y497728D01*
X936352D01*
X937004Y497998D01*
X937502Y498496D01*
X937772Y499148D01*
Y499852D01*
X937502Y500504D01*
X937004Y501002D01*
X936352Y501272D01*
D02*
G37*
G36*
X1106159Y504095D02*
X1105226D01*
X1104325Y503853D01*
X1103517Y503386D01*
X1102858Y502727D01*
X1102391Y501919D01*
X1102150Y501018D01*
Y500085D01*
X1102391Y499184D01*
X1102858Y498376D01*
X1103517Y497716D01*
X1104325Y497249D01*
X1105226Y497008D01*
X1106159D01*
X1107061Y497249D01*
X1107868Y497716D01*
X1108528Y498376D01*
X1108995Y499184D01*
X1109236Y500085D01*
Y501018D01*
X1108995Y501919D01*
X1108528Y502727D01*
X1107868Y503386D01*
X1107061Y503853D01*
X1106159Y504095D01*
D02*
G37*
G36*
X1066352Y499772D02*
X1065648D01*
X1064996Y499502D01*
X1064498Y499004D01*
X1064228Y498352D01*
Y497648D01*
X1064498Y496996D01*
X1064996Y496498D01*
X1065648Y496228D01*
X1066352D01*
X1067004Y496498D01*
X1067502Y496996D01*
X1067772Y497648D01*
Y498352D01*
X1067502Y499004D01*
X1067004Y499502D01*
X1066352Y499772D01*
D02*
G37*
G36*
X1047352D02*
X1046648D01*
X1045996Y499502D01*
X1045498Y499004D01*
X1045228Y498352D01*
Y497648D01*
X1045498Y496996D01*
X1045996Y496498D01*
X1046648Y496228D01*
X1047352D01*
X1048004Y496498D01*
X1048502Y496996D01*
X1048772Y497648D01*
Y498352D01*
X1048502Y499004D01*
X1048004Y499502D01*
X1047352Y499772D01*
D02*
G37*
G36*
X1054852Y499197D02*
X1054148D01*
X1053496Y498927D01*
X1052998Y498429D01*
X1052728Y497778D01*
Y497073D01*
X1052998Y496422D01*
X1053496Y495923D01*
X1054148Y495653D01*
X1054852D01*
X1055504Y495923D01*
X1056002Y496422D01*
X1056272Y497073D01*
Y497778D01*
X1056002Y498429D01*
X1055504Y498927D01*
X1054852Y499197D01*
D02*
G37*
G36*
X1060852Y498772D02*
X1060148D01*
X1059496Y498502D01*
X1058998Y498004D01*
X1058728Y497352D01*
Y496648D01*
X1058998Y495996D01*
X1059496Y495498D01*
X1060148Y495228D01*
X1060852D01*
X1061504Y495498D01*
X1062002Y495996D01*
X1062272Y496648D01*
Y497352D01*
X1062002Y498004D01*
X1061504Y498502D01*
X1060852Y498772D01*
D02*
G37*
G36*
X842161Y503268D02*
X840839D01*
X839563Y502926D01*
X838418Y502265D01*
X837483Y501330D01*
X836822Y500185D01*
X836480Y498909D01*
Y497587D01*
X836822Y496311D01*
X837483Y495166D01*
X838418Y494231D01*
X839563Y493570D01*
X840839Y493228D01*
X842161D01*
X843437Y493570D01*
X844582Y494231D01*
X845517Y495166D01*
X846178Y496311D01*
X846520Y497587D01*
Y498909D01*
X846178Y500185D01*
X845517Y501330D01*
X844582Y502265D01*
X843437Y502926D01*
X842161Y503268D01*
D02*
G37*
G36*
X924567Y495332D02*
X920433D01*
X919688Y495234D01*
X918994Y494946D01*
X918398Y494488D01*
X917940Y493892D01*
X917652Y493198D01*
X917584Y492679D01*
X917071Y492611D01*
X916856Y493130D01*
X916358Y493628D01*
X915707Y493898D01*
X915002D01*
X914351Y493628D01*
X913852Y493130D01*
X913583Y492478D01*
Y491774D01*
X913852Y491122D01*
X914351Y490624D01*
X915002Y490354D01*
X915707D01*
X916358Y490624D01*
X916856Y491122D01*
X917054Y491601D01*
X917554Y491501D01*
Y488319D01*
X917652Y487574D01*
X917940Y486879D01*
X918398Y486283D01*
X918994Y485826D01*
X919688Y485538D01*
X920433Y485440D01*
X924567D01*
X925312Y485538D01*
X925548Y485635D01*
X927534Y483648D01*
X927925Y483387D01*
X928386Y483296D01*
X994699D01*
X994996Y482998D01*
X995648Y482728D01*
X996352D01*
X997004Y482998D01*
X997502Y483496D01*
X997772Y484148D01*
Y484852D01*
X997502Y485504D01*
X997004Y486002D01*
X996352Y486272D01*
X995648D01*
X994996Y486002D01*
X994699Y485704D01*
X940234D01*
X940100Y486204D01*
X940522Y486448D01*
X941438Y487364D01*
X942086Y488486D01*
X942422Y489738D01*
Y491034D01*
X942086Y492285D01*
X941438Y493407D01*
X940522Y494324D01*
X939400Y494972D01*
X938148Y495307D01*
X936852D01*
X935601Y494972D01*
X934478Y494324D01*
X933562Y493407D01*
X932914Y492285D01*
X932579Y491034D01*
Y489738D01*
X932914Y488486D01*
X933562Y487364D01*
X934478Y486448D01*
X934900Y486204D01*
X934766Y485704D01*
X928885D01*
X927251Y487338D01*
X927348Y487574D01*
X927446Y488319D01*
Y492453D01*
X927348Y493198D01*
X927060Y493892D01*
X926603Y494488D01*
X926007Y494946D01*
X925312Y495234D01*
X924567Y495332D01*
D02*
G37*
G36*
X1191297Y493898D02*
X1190592D01*
X1189941Y493628D01*
X1189443Y493130D01*
X1189173Y492478D01*
Y491774D01*
X1189443Y491122D01*
X1189941Y490624D01*
X1190592Y490354D01*
X1191297D01*
X1191949Y490624D01*
X1192447Y491122D01*
X1192717Y491774D01*
Y492478D01*
X1192447Y493130D01*
X1191949Y493628D01*
X1191297Y493898D01*
D02*
G37*
G36*
X1171612D02*
X1170907D01*
X1170256Y493628D01*
X1169758Y493130D01*
X1169488Y492478D01*
Y491774D01*
X1169758Y491122D01*
X1170256Y490624D01*
X1170907Y490354D01*
X1171612D01*
X1172263Y490624D01*
X1172762Y491122D01*
X1173032Y491774D01*
Y492478D01*
X1172762Y493130D01*
X1172263Y493628D01*
X1171612Y493898D01*
D02*
G37*
G36*
X1151927D02*
X1151222D01*
X1150571Y493628D01*
X1150073Y493130D01*
X1149803Y492478D01*
Y491774D01*
X1150073Y491122D01*
X1150571Y490624D01*
X1151222Y490354D01*
X1151927D01*
X1152578Y490624D01*
X1153077Y491122D01*
X1153347Y491774D01*
Y492478D01*
X1153077Y493130D01*
X1152578Y493628D01*
X1151927Y493898D01*
D02*
G37*
G36*
X1132242D02*
X1131537D01*
X1130886Y493628D01*
X1130388Y493130D01*
X1130118Y492478D01*
Y491774D01*
X1130388Y491122D01*
X1130886Y490624D01*
X1131537Y490354D01*
X1132242D01*
X1132893Y490624D01*
X1133392Y491122D01*
X1133661Y491774D01*
Y492478D01*
X1133392Y493130D01*
X1132893Y493628D01*
X1132242Y493898D01*
D02*
G37*
G36*
X1112557D02*
X1111852D01*
X1111201Y493628D01*
X1110703Y493130D01*
X1110433Y492478D01*
Y491774D01*
X1110703Y491122D01*
X1111201Y490624D01*
X1111852Y490354D01*
X1112557D01*
X1113208Y490624D01*
X1113707Y491122D01*
X1113976Y491774D01*
Y492478D01*
X1113707Y493130D01*
X1113208Y493628D01*
X1112557Y493898D01*
D02*
G37*
G36*
X1092872D02*
X1092167D01*
X1091516Y493628D01*
X1091018Y493130D01*
X1090748Y492478D01*
Y491774D01*
X1091018Y491122D01*
X1091516Y490624D01*
X1092167Y490354D01*
X1092872D01*
X1093523Y490624D01*
X1094022Y491122D01*
X1094291Y491774D01*
Y492478D01*
X1094022Y493130D01*
X1093523Y493628D01*
X1092872Y493898D01*
D02*
G37*
G36*
X1033817D02*
X1033112D01*
X1032461Y493628D01*
X1031963Y493130D01*
X1031693Y492478D01*
Y491774D01*
X1031963Y491122D01*
X1032461Y490624D01*
X1033112Y490354D01*
X1033817D01*
X1034468Y490624D01*
X1034966Y491122D01*
X1035236Y491774D01*
Y492478D01*
X1034966Y493130D01*
X1034468Y493628D01*
X1033817Y493898D01*
D02*
G37*
G36*
X1014132D02*
X1013427D01*
X1012776Y493628D01*
X1012278Y493130D01*
X1012008Y492478D01*
Y491774D01*
X1012278Y491122D01*
X1012776Y490624D01*
X1013427Y490354D01*
X1014132D01*
X1014783Y490624D01*
X1015281Y491122D01*
X1015551Y491774D01*
Y492478D01*
X1015281Y493130D01*
X1014783Y493628D01*
X1014132Y493898D01*
D02*
G37*
G36*
X974762D02*
X974057D01*
X973406Y493628D01*
X972908Y493130D01*
X972638Y492478D01*
Y491774D01*
X972908Y491122D01*
X973406Y490624D01*
X974057Y490354D01*
X974762D01*
X975413Y490624D01*
X975911Y491122D01*
X976181Y491774D01*
Y492478D01*
X975911Y493130D01*
X975413Y493628D01*
X974762Y493898D01*
D02*
G37*
G36*
X896022D02*
X895317D01*
X894666Y493628D01*
X894167Y493130D01*
X893898Y492478D01*
Y491774D01*
X894167Y491122D01*
X894666Y490624D01*
X895317Y490354D01*
X896022D01*
X896673Y490624D01*
X897171Y491122D01*
X897441Y491774D01*
Y492478D01*
X897171Y493130D01*
X896673Y493628D01*
X896022Y493898D01*
D02*
G37*
G36*
X876337D02*
X875632D01*
X874981Y493628D01*
X874482Y493130D01*
X874213Y492478D01*
Y491774D01*
X874482Y491122D01*
X874981Y490624D01*
X875632Y490354D01*
X876337D01*
X876988Y490624D01*
X877486Y491122D01*
X877756Y491774D01*
Y492478D01*
X877486Y493130D01*
X876988Y493628D01*
X876337Y493898D01*
D02*
G37*
G36*
X856652D02*
X855947D01*
X855296Y493628D01*
X854797Y493130D01*
X854528Y492478D01*
Y491774D01*
X854797Y491122D01*
X855296Y490624D01*
X855947Y490354D01*
X856652D01*
X857303Y490624D01*
X857801Y491122D01*
X858071Y491774D01*
Y492478D01*
X857801Y493130D01*
X857303Y493628D01*
X856652Y493898D01*
D02*
G37*
G36*
X836967D02*
X836262D01*
X835611Y493628D01*
X835112Y493130D01*
X834842Y492478D01*
Y491774D01*
X835112Y491122D01*
X835611Y490624D01*
X836262Y490354D01*
X836967D01*
X837618Y490624D01*
X838116Y491122D01*
X838386Y491774D01*
Y492478D01*
X838116Y493130D01*
X837618Y493628D01*
X836967Y493898D01*
D02*
G37*
G36*
X826520Y503268D02*
X816480D01*
Y493858D01*
X815926Y493628D01*
X815427Y493130D01*
X815158Y492478D01*
Y491774D01*
X815427Y491122D01*
X815926Y490624D01*
X816577Y490354D01*
X817282D01*
X817933Y490624D01*
X818431Y491122D01*
X818701Y491774D01*
Y492478D01*
X818597Y492728D01*
X818931Y493228D01*
X826520D01*
Y503268D01*
D02*
G37*
G36*
X1073508Y494912D02*
X1072686Y494804D01*
X1071919Y494486D01*
X1071261Y493982D01*
X1070757Y493324D01*
X1070439Y492557D01*
X1070331Y491735D01*
Y488841D01*
X1069831Y488742D01*
X1069714Y489025D01*
X1069105Y489634D01*
X1068309Y489963D01*
X1067447D01*
X1066651Y489634D01*
X1066042Y489025D01*
X1065713Y488229D01*
Y487367D01*
X1066042Y486571D01*
X1066651Y485962D01*
X1067447Y485633D01*
X1068309D01*
X1069105Y485962D01*
X1069714Y486571D01*
X1069922Y487074D01*
X1070435Y487007D01*
X1070439Y486976D01*
X1070757Y486210D01*
X1071261Y485552D01*
X1071919Y485047D01*
X1072686Y484730D01*
X1073508Y484621D01*
X1074330Y484730D01*
X1075096Y485047D01*
X1075754Y485552D01*
X1076259Y486210D01*
X1076576Y486976D01*
X1076684Y487798D01*
Y491735D01*
X1076576Y492557D01*
X1076259Y493324D01*
X1075754Y493982D01*
X1075096Y494486D01*
X1074330Y494804D01*
X1073508Y494912D01*
D02*
G37*
G36*
X1039492D02*
X1038670Y494804D01*
X1037904Y494486D01*
X1037246Y493982D01*
X1036741Y493324D01*
X1036424Y492557D01*
X1036315Y491735D01*
Y487798D01*
X1036424Y486976D01*
X1036741Y486210D01*
X1037246Y485552D01*
X1037904Y485047D01*
X1038670Y484730D01*
X1039492Y484621D01*
X1040314Y484730D01*
X1041080Y485047D01*
X1041738Y485552D01*
X1042243Y486210D01*
X1042561Y486976D01*
X1042565Y487007D01*
X1043078Y487074D01*
X1043286Y486571D01*
X1043895Y485962D01*
X1044691Y485633D01*
X1045553D01*
X1046349Y485962D01*
X1046958Y486571D01*
X1047287Y487367D01*
Y488229D01*
X1046958Y489025D01*
X1046349Y489634D01*
X1045553Y489963D01*
X1044691D01*
X1043895Y489634D01*
X1043286Y489025D01*
X1043169Y488741D01*
X1042669Y488841D01*
Y491735D01*
X1042561Y492557D01*
X1042243Y493324D01*
X1041738Y493982D01*
X1041080Y494486D01*
X1040314Y494804D01*
X1039492Y494912D01*
D02*
G37*
G36*
X1009352Y485772D02*
X1008648D01*
X1007996Y485502D01*
X1007498Y485004D01*
X1007228Y484352D01*
Y483648D01*
X1007498Y482996D01*
X1007996Y482498D01*
X1008648Y482228D01*
X1009352D01*
X1010004Y482498D01*
X1010502Y482996D01*
X1010772Y483648D01*
Y484352D01*
X1010502Y485004D01*
X1010004Y485502D01*
X1009352Y485772D01*
D02*
G37*
G36*
X1181455Y474213D02*
X1180750D01*
X1180099Y473943D01*
X1179601Y473445D01*
X1179331Y472793D01*
Y472089D01*
X1179601Y471437D01*
X1180099Y470939D01*
X1180750Y470669D01*
X1181455D01*
X1182106Y470939D01*
X1182604Y471437D01*
X1182874Y472089D01*
Y472793D01*
X1182604Y473445D01*
X1182106Y473943D01*
X1181455Y474213D01*
D02*
G37*
G36*
X1161770D02*
X1161065D01*
X1160414Y473943D01*
X1159915Y473445D01*
X1159646Y472793D01*
Y472089D01*
X1159915Y471437D01*
X1160414Y470939D01*
X1161065Y470669D01*
X1161770D01*
X1162421Y470939D01*
X1162919Y471437D01*
X1163189Y472089D01*
Y472793D01*
X1162919Y473445D01*
X1162421Y473943D01*
X1161770Y474213D01*
D02*
G37*
G36*
X1142085D02*
X1141380D01*
X1140729Y473943D01*
X1140230Y473445D01*
X1139961Y472793D01*
Y472089D01*
X1140230Y471437D01*
X1140729Y470939D01*
X1141380Y470669D01*
X1142085D01*
X1142736Y470939D01*
X1143234Y471437D01*
X1143504Y472089D01*
Y472793D01*
X1143234Y473445D01*
X1142736Y473943D01*
X1142085Y474213D01*
D02*
G37*
G36*
X1122400D02*
X1121695D01*
X1121044Y473943D01*
X1120545Y473445D01*
X1120276Y472793D01*
Y472089D01*
X1120545Y471437D01*
X1121044Y470939D01*
X1121695Y470669D01*
X1122400D01*
X1123051Y470939D01*
X1123549Y471437D01*
X1123819Y472089D01*
Y472793D01*
X1123549Y473445D01*
X1123051Y473943D01*
X1122400Y474213D01*
D02*
G37*
G36*
X1102715D02*
X1102010D01*
X1101359Y473943D01*
X1100860Y473445D01*
X1100591Y472793D01*
Y472089D01*
X1100860Y471437D01*
X1101359Y470939D01*
X1102010Y470669D01*
X1102715D01*
X1103366Y470939D01*
X1103864Y471437D01*
X1104134Y472089D01*
Y472793D01*
X1103864Y473445D01*
X1103366Y473943D01*
X1102715Y474213D01*
D02*
G37*
G36*
X1083030D02*
X1082325D01*
X1081674Y473943D01*
X1081175Y473445D01*
X1080906Y472793D01*
Y472089D01*
X1081175Y471437D01*
X1081674Y470939D01*
X1082325Y470669D01*
X1083030D01*
X1083681Y470939D01*
X1084179Y471437D01*
X1084449Y472089D01*
Y472793D01*
X1084179Y473445D01*
X1083681Y473943D01*
X1083030Y474213D01*
D02*
G37*
G36*
X1063345D02*
X1062640D01*
X1061989Y473943D01*
X1061490Y473445D01*
X1061220Y472793D01*
Y472089D01*
X1061490Y471437D01*
X1061989Y470939D01*
X1062640Y470669D01*
X1063345D01*
X1063996Y470939D01*
X1064494Y471437D01*
X1064764Y472089D01*
Y472793D01*
X1064494Y473445D01*
X1063996Y473943D01*
X1063345Y474213D01*
D02*
G37*
G36*
X1023975D02*
X1023270D01*
X1022618Y473943D01*
X1022120Y473445D01*
X1021850Y472793D01*
Y472089D01*
X1022120Y471437D01*
X1022618Y470939D01*
X1023270Y470669D01*
X1023975D01*
X1024626Y470939D01*
X1025124Y471437D01*
X1025394Y472089D01*
Y472793D01*
X1025124Y473445D01*
X1024626Y473943D01*
X1023975Y474213D01*
D02*
G37*
G36*
X1004289D02*
X1003585D01*
X1002934Y473943D01*
X1002435Y473445D01*
X1002165Y472793D01*
Y472089D01*
X1002435Y471437D01*
X1002934Y470939D01*
X1003585Y470669D01*
X1004289D01*
X1004941Y470939D01*
X1005439Y471437D01*
X1005709Y472089D01*
Y472793D01*
X1005439Y473445D01*
X1004941Y473943D01*
X1004289Y474213D01*
D02*
G37*
G36*
X984604D02*
X983900D01*
X983248Y473943D01*
X982750Y473445D01*
X982480Y472793D01*
Y472089D01*
X982750Y471437D01*
X983248Y470939D01*
X983900Y470669D01*
X984604D01*
X985256Y470939D01*
X985754Y471437D01*
X986024Y472089D01*
Y472793D01*
X985754Y473445D01*
X985256Y473943D01*
X984604Y474213D01*
D02*
G37*
G36*
X964919D02*
X964215D01*
X963563Y473943D01*
X963065Y473445D01*
X962795Y472793D01*
Y472089D01*
X963065Y471437D01*
X963563Y470939D01*
X964215Y470669D01*
X964919D01*
X965571Y470939D01*
X966069Y471437D01*
X966339Y472089D01*
Y472793D01*
X966069Y473445D01*
X965571Y473943D01*
X964919Y474213D01*
D02*
G37*
G36*
X945234D02*
X944530D01*
X943878Y473943D01*
X943380Y473445D01*
X943110Y472793D01*
Y472089D01*
X943380Y471437D01*
X943878Y470939D01*
X944530Y470669D01*
X945234D01*
X945885Y470939D01*
X946384Y471437D01*
X946654Y472089D01*
Y472793D01*
X946384Y473445D01*
X945885Y473943D01*
X945234Y474213D01*
D02*
G37*
G36*
X925549D02*
X924844D01*
X924193Y473943D01*
X923695Y473445D01*
X923425Y472793D01*
Y472089D01*
X923695Y471437D01*
X924193Y470939D01*
X924844Y470669D01*
X925549D01*
X926200Y470939D01*
X926699Y471437D01*
X926968Y472089D01*
Y472793D01*
X926699Y473445D01*
X926200Y473943D01*
X925549Y474213D01*
D02*
G37*
G36*
X905864D02*
X905159D01*
X904508Y473943D01*
X904010Y473445D01*
X903740Y472793D01*
Y472089D01*
X904010Y471437D01*
X904508Y470939D01*
X905159Y470669D01*
X905864D01*
X906515Y470939D01*
X907014Y471437D01*
X907283Y472089D01*
Y472793D01*
X907014Y473445D01*
X906515Y473943D01*
X905864Y474213D01*
D02*
G37*
G36*
X886179D02*
X885474D01*
X884823Y473943D01*
X884325Y473445D01*
X884055Y472793D01*
Y472089D01*
X884325Y471437D01*
X884823Y470939D01*
X885474Y470669D01*
X886179D01*
X886830Y470939D01*
X887329Y471437D01*
X887599Y472089D01*
Y472793D01*
X887329Y473445D01*
X886830Y473943D01*
X886179Y474213D01*
D02*
G37*
G36*
X866494D02*
X865789D01*
X865138Y473943D01*
X864640Y473445D01*
X864370Y472793D01*
Y472089D01*
X864640Y471437D01*
X865138Y470939D01*
X865789Y470669D01*
X866494D01*
X867145Y470939D01*
X867644Y471437D01*
X867913Y472089D01*
Y472793D01*
X867644Y473445D01*
X867145Y473943D01*
X866494Y474213D01*
D02*
G37*
G36*
X846809D02*
X846104D01*
X845453Y473943D01*
X844955Y473445D01*
X844685Y472793D01*
Y472089D01*
X844955Y471437D01*
X845453Y470939D01*
X846104Y470669D01*
X846809D01*
X847460Y470939D01*
X847959Y471437D01*
X848228Y472089D01*
Y472793D01*
X847959Y473445D01*
X847460Y473943D01*
X846809Y474213D01*
D02*
G37*
G36*
X827124D02*
X826419D01*
X825768Y473943D01*
X825270Y473445D01*
X825000Y472793D01*
Y472089D01*
X825270Y471437D01*
X825768Y470939D01*
X826419Y470669D01*
X827124D01*
X827775Y470939D01*
X828274Y471437D01*
X828543Y472089D01*
Y472793D01*
X828274Y473445D01*
X827775Y473943D01*
X827124Y474213D01*
D02*
G37*
G36*
X807439D02*
X806734D01*
X806083Y473943D01*
X805585Y473445D01*
X805315Y472793D01*
Y472089D01*
X805585Y471437D01*
X806083Y470939D01*
X806734Y470669D01*
X807439D01*
X808090Y470939D01*
X808589Y471437D01*
X808858Y472089D01*
Y472793D01*
X808589Y473445D01*
X808090Y473943D01*
X807439Y474213D01*
D02*
G37*
%LPD*%
G36*
X959500Y530000D02*
X939500D01*
X938000Y531500D01*
Y534500D01*
X939000Y535500D01*
X959500D01*
Y530000D01*
D02*
G37*
G36*
Y523000D02*
X958500Y522000D01*
X952750D01*
X952250Y522066D01*
X951750Y522000D01*
X936500D01*
X935500Y523000D01*
Y526000D01*
X937000Y527500D01*
X959500D01*
Y523000D01*
D02*
G37*
%LPC*%
G36*
X949172Y820670D02*
X948467D01*
X947816Y820400D01*
X947318Y819902D01*
X947116Y819415D01*
X946586D01*
X946384Y819902D01*
X945886Y820400D01*
X945235Y820670D01*
X944530D01*
X943879Y820400D01*
X943381Y819902D01*
X943179Y819415D01*
X942649D01*
X942447Y819902D01*
X941949Y820400D01*
X941298Y820670D01*
X940593D01*
X939942Y820400D01*
X939443Y819902D01*
X939242Y819415D01*
X938712D01*
X938510Y819902D01*
X938012Y820400D01*
X937361Y820670D01*
X936656D01*
X936005Y820400D01*
X935507Y819902D01*
X935305Y819415D01*
X934775D01*
X934573Y819902D01*
X934075Y820400D01*
X933424Y820670D01*
X932719D01*
X932068Y820400D01*
X931569Y819902D01*
X931368Y819415D01*
X930838D01*
X930636Y819902D01*
X930138Y820400D01*
X929487Y820670D01*
X928782D01*
X928131Y820400D01*
X927632Y819902D01*
X927431Y819415D01*
X926901D01*
X926699Y819902D01*
X926201Y820400D01*
X925550Y820670D01*
X924845D01*
X924194Y820400D01*
X923695Y819902D01*
X923494Y819415D01*
X922964D01*
X922762Y819902D01*
X922264Y820400D01*
X921613Y820670D01*
X920908D01*
X920257Y820400D01*
X919758Y819902D01*
X919557Y819415D01*
X919027D01*
X918825Y819902D01*
X918327Y820400D01*
X917676Y820670D01*
X916971D01*
X916320Y820400D01*
X915821Y819902D01*
X915620Y819415D01*
X915090D01*
X914888Y819902D01*
X914390Y820400D01*
X913739Y820670D01*
X913034D01*
X912383Y820400D01*
X911884Y819902D01*
X911683Y819415D01*
X911153D01*
X910951Y819902D01*
X910453Y820400D01*
X909802Y820670D01*
X909097D01*
X908446Y820400D01*
X907947Y819902D01*
X907746Y819415D01*
X907216D01*
X907014Y819902D01*
X906516Y820400D01*
X905865Y820670D01*
X905160D01*
X904509Y820400D01*
X904010Y819902D01*
X903809Y819415D01*
X903279D01*
X903077Y819902D01*
X902579Y820400D01*
X901928Y820670D01*
X901223D01*
X900572Y820400D01*
X900073Y819902D01*
X899872Y819415D01*
X899342D01*
X899140Y819902D01*
X898642Y820400D01*
X897991Y820670D01*
X897286D01*
X896635Y820400D01*
X896136Y819902D01*
X895935Y819415D01*
X895405D01*
X895203Y819902D01*
X894705Y820400D01*
X894054Y820670D01*
X893349D01*
X892698Y820400D01*
X892199Y819902D01*
X891998Y819415D01*
X891468D01*
X891266Y819902D01*
X890768Y820400D01*
X890117Y820670D01*
X889412D01*
X888761Y820400D01*
X888262Y819902D01*
X888061Y819415D01*
X887531D01*
X887329Y819902D01*
X886831Y820400D01*
X886180Y820670D01*
X885475D01*
X884824Y820400D01*
X884325Y819902D01*
X884124Y819415D01*
X883594D01*
X883392Y819902D01*
X882894Y820400D01*
X882243Y820670D01*
X881538D01*
X880887Y820400D01*
X880388Y819902D01*
X880187Y819415D01*
X879657D01*
X879455Y819902D01*
X878957Y820400D01*
X878306Y820670D01*
X877601D01*
X876950Y820400D01*
X876451Y819902D01*
X876250Y819415D01*
X875720D01*
X875518Y819902D01*
X875020Y820400D01*
X874369Y820670D01*
X873664D01*
X873013Y820400D01*
X872514Y819902D01*
X872313Y819415D01*
X871783D01*
X871581Y819902D01*
X871083Y820400D01*
X870432Y820670D01*
X869727D01*
X869076Y820400D01*
X868577Y819902D01*
X868376Y819415D01*
X867846D01*
X867644Y819902D01*
X867146Y820400D01*
X866495Y820670D01*
X865790D01*
X865139Y820400D01*
X864640Y819902D01*
X864439Y819415D01*
X863909D01*
X863707Y819902D01*
X863209Y820400D01*
X862558Y820670D01*
X861853D01*
X861202Y820400D01*
X860703Y819902D01*
X860502Y819415D01*
X859972D01*
X859770Y819902D01*
X859272Y820400D01*
X858621Y820670D01*
X857916D01*
X857265Y820400D01*
X856766Y819902D01*
X856565Y819415D01*
X856035D01*
X855833Y819902D01*
X855335Y820400D01*
X854684Y820670D01*
X853979D01*
X853328Y820400D01*
X852829Y819902D01*
X852628Y819415D01*
X852098D01*
X851896Y819902D01*
X851398Y820400D01*
X850747Y820670D01*
X850042D01*
X849391Y820400D01*
X848892Y819902D01*
X848691Y819415D01*
X848161D01*
X847959Y819902D01*
X847461Y820400D01*
X846809Y820670D01*
X846105D01*
X845454Y820400D01*
X844955Y819902D01*
X844754Y819415D01*
X844224D01*
X844022Y819902D01*
X843524Y820400D01*
X842873Y820670D01*
X842168D01*
X841517Y820400D01*
X841018Y819902D01*
X840817Y819415D01*
X840287D01*
X840085Y819902D01*
X839587Y820400D01*
X838935Y820670D01*
X838231D01*
X837580Y820400D01*
X837081Y819902D01*
X836880Y819415D01*
X836349D01*
X836148Y819902D01*
X835650Y820400D01*
X834999Y820670D01*
X834294D01*
X833643Y820400D01*
X833144Y819902D01*
X832943Y819415D01*
X832413D01*
X832211Y819902D01*
X831713Y820400D01*
X831061Y820670D01*
X830357D01*
X829706Y820400D01*
X829207Y819902D01*
X829006Y819415D01*
X828475D01*
X828274Y819902D01*
X827776Y820400D01*
X827125Y820670D01*
X826420D01*
X825768Y820400D01*
X825270Y819902D01*
X825069Y819415D01*
X824539D01*
X824337Y819902D01*
X823839Y820400D01*
X823188Y820670D01*
X822483D01*
X821832Y820400D01*
X821333Y819902D01*
X821132Y819415D01*
X820601D01*
X820400Y819902D01*
X819902Y820400D01*
X819250Y820670D01*
X818546D01*
X817894Y820400D01*
X817396Y819902D01*
X817195Y819415D01*
X816665D01*
X816463Y819902D01*
X815965Y820400D01*
X815314Y820670D01*
X814609D01*
X813958Y820400D01*
X813459Y819902D01*
X813258Y819415D01*
X812728D01*
X812526Y819902D01*
X812028Y820400D01*
X811376Y820670D01*
X810672D01*
X810021Y820400D01*
X809522Y819902D01*
X809321Y819415D01*
X808790D01*
X808589Y819902D01*
X808091Y820400D01*
X807440Y820670D01*
X806735D01*
X806083Y820400D01*
X805585Y819902D01*
X805384Y819415D01*
X804854D01*
X804652Y819902D01*
X804154Y820400D01*
X803502Y820670D01*
X802798D01*
X802147Y820400D01*
X801648Y819902D01*
X801447Y819415D01*
X800916D01*
X800715Y819902D01*
X800217Y820400D01*
X799565Y820670D01*
X798861D01*
X798209Y820400D01*
X797711Y819902D01*
X797441Y819250D01*
Y818546D01*
X797711Y817894D01*
X798209Y817396D01*
X798861Y817126D01*
X799565D01*
X800217Y817396D01*
X800715Y817894D01*
X800916Y818381D01*
X801447D01*
X801648Y817894D01*
X802147Y817396D01*
X802798Y817126D01*
X803502D01*
X804154Y817396D01*
X804652Y817894D01*
X804854Y818381D01*
X805384D01*
X805585Y817894D01*
X806083Y817396D01*
X806735Y817126D01*
X807440D01*
X808091Y817396D01*
X808589Y817894D01*
X808790Y818381D01*
X809321D01*
X809522Y817894D01*
X810021Y817396D01*
X810672Y817126D01*
X811376D01*
X812028Y817396D01*
X812526Y817894D01*
X812728Y818381D01*
X813258D01*
X813459Y817894D01*
X813958Y817396D01*
X814609Y817126D01*
X815314D01*
X815965Y817396D01*
X816463Y817894D01*
X816665Y818381D01*
X817195D01*
X817396Y817894D01*
X817894Y817396D01*
X818546Y817126D01*
X819250D01*
X819902Y817396D01*
X820400Y817894D01*
X820601Y818381D01*
X821132D01*
X821333Y817894D01*
X821832Y817396D01*
X822483Y817126D01*
X823188D01*
X823839Y817396D01*
X824337Y817894D01*
X824539Y818381D01*
X825069D01*
X825270Y817894D01*
X825768Y817396D01*
X826420Y817126D01*
X827125D01*
X827776Y817396D01*
X828274Y817894D01*
X828475Y818381D01*
X829006D01*
X829207Y817894D01*
X829706Y817396D01*
X830357Y817126D01*
X831061D01*
X831713Y817396D01*
X832211Y817894D01*
X832413Y818381D01*
X832943D01*
X833144Y817894D01*
X833643Y817396D01*
X834294Y817126D01*
X834999D01*
X835650Y817396D01*
X836148Y817894D01*
X836349Y818381D01*
X836880D01*
X837081Y817894D01*
X837580Y817396D01*
X838231Y817126D01*
X838935D01*
X839587Y817396D01*
X840085Y817894D01*
X840287Y818381D01*
X840817D01*
X841018Y817894D01*
X841517Y817396D01*
X842168Y817126D01*
X842873D01*
X843524Y817396D01*
X844022Y817894D01*
X844224Y818381D01*
X844754D01*
X844955Y817894D01*
X845454Y817396D01*
X846105Y817126D01*
X846809D01*
X847461Y817396D01*
X847959Y817894D01*
X848161Y818381D01*
X848691D01*
X848892Y817894D01*
X849391Y817396D01*
X850042Y817126D01*
X850747D01*
X851398Y817396D01*
X851896Y817894D01*
X852098Y818381D01*
X852628D01*
X852829Y817894D01*
X853328Y817396D01*
X853979Y817126D01*
X854684D01*
X855335Y817396D01*
X855833Y817894D01*
X856035Y818381D01*
X856565D01*
X856766Y817894D01*
X857265Y817396D01*
X857916Y817126D01*
X858621D01*
X859272Y817396D01*
X859770Y817894D01*
X859972Y818381D01*
X860502D01*
X860703Y817894D01*
X861202Y817396D01*
X861853Y817126D01*
X862558D01*
X863209Y817396D01*
X863707Y817894D01*
X863909Y818381D01*
X864439D01*
X864640Y817894D01*
X865139Y817396D01*
X865790Y817126D01*
X866495D01*
X867146Y817396D01*
X867644Y817894D01*
X867846Y818381D01*
X868376D01*
X868577Y817894D01*
X869076Y817396D01*
X869727Y817126D01*
X870432D01*
X871083Y817396D01*
X871581Y817894D01*
X871783Y818381D01*
X872313D01*
X872514Y817894D01*
X873013Y817396D01*
X873664Y817126D01*
X874369D01*
X875020Y817396D01*
X875518Y817894D01*
X875720Y818381D01*
X876250D01*
X876451Y817894D01*
X876950Y817396D01*
X877601Y817126D01*
X878306D01*
X878957Y817396D01*
X879455Y817894D01*
X879657Y818381D01*
X880187D01*
X880388Y817894D01*
X880887Y817396D01*
X881538Y817126D01*
X882243D01*
X882894Y817396D01*
X883392Y817894D01*
X883594Y818381D01*
X884124D01*
X884325Y817894D01*
X884824Y817396D01*
X885475Y817126D01*
X886180D01*
X886831Y817396D01*
X887329Y817894D01*
X887531Y818381D01*
X888061D01*
X888262Y817894D01*
X888761Y817396D01*
X889412Y817126D01*
X890117D01*
X890768Y817396D01*
X891266Y817894D01*
X891468Y818381D01*
X891998D01*
X892199Y817894D01*
X892698Y817396D01*
X893349Y817126D01*
X894054D01*
X894705Y817396D01*
X895203Y817894D01*
X895405Y818381D01*
X895935D01*
X896136Y817894D01*
X896635Y817396D01*
X897286Y817126D01*
X897991D01*
X898642Y817396D01*
X899140Y817894D01*
X899342Y818381D01*
X899872D01*
X900073Y817894D01*
X900572Y817396D01*
X901223Y817126D01*
X901928D01*
X902579Y817396D01*
X903077Y817894D01*
X903279Y818381D01*
X903809D01*
X904010Y817894D01*
X904509Y817396D01*
X905160Y817126D01*
X905865D01*
X906516Y817396D01*
X907014Y817894D01*
X907216Y818381D01*
X907746D01*
X907947Y817894D01*
X908446Y817396D01*
X909097Y817126D01*
X909802D01*
X910453Y817396D01*
X910951Y817894D01*
X911153Y818381D01*
X911683D01*
X911884Y817894D01*
X912383Y817396D01*
X913034Y817126D01*
X913739D01*
X914390Y817396D01*
X914888Y817894D01*
X915090Y818381D01*
X915620D01*
X915821Y817894D01*
X916320Y817396D01*
X916971Y817126D01*
X917676D01*
X918327Y817396D01*
X918825Y817894D01*
X919027Y818381D01*
X919557D01*
X919758Y817894D01*
X920257Y817396D01*
X920908Y817126D01*
X921613D01*
X922264Y817396D01*
X922762Y817894D01*
X922964Y818381D01*
X923494D01*
X923695Y817894D01*
X924194Y817396D01*
X924845Y817126D01*
X925550D01*
X926201Y817396D01*
X926699Y817894D01*
X926901Y818381D01*
X927431D01*
X927632Y817894D01*
X928131Y817396D01*
X928782Y817126D01*
X929487D01*
X930138Y817396D01*
X930636Y817894D01*
X930838Y818381D01*
X931368D01*
X931569Y817894D01*
X932068Y817396D01*
X932719Y817126D01*
X933424D01*
X934075Y817396D01*
X934573Y817894D01*
X934775Y818381D01*
X935305D01*
X935507Y817894D01*
X936005Y817396D01*
X936656Y817126D01*
X937361D01*
X938012Y817396D01*
X938510Y817894D01*
X938712Y818381D01*
X939242D01*
X939443Y817894D01*
X939942Y817396D01*
X940593Y817126D01*
X941298D01*
X941949Y817396D01*
X942447Y817894D01*
X942649Y818381D01*
X943179D01*
X943381Y817894D01*
X943879Y817396D01*
X944530Y817126D01*
X945235D01*
X945886Y817396D01*
X946384Y817894D01*
X946586Y818381D01*
X947116D01*
X947318Y817894D01*
X947816Y817396D01*
X948467Y817126D01*
X949172D01*
X949823Y817396D01*
X950321Y817894D01*
X950591Y818546D01*
Y819250D01*
X950321Y819902D01*
X949823Y820400D01*
X949172Y820670D01*
D02*
G37*
G36*
X787754D02*
X787050D01*
X786398Y820400D01*
X785900Y819902D01*
X785699Y819415D01*
X785168D01*
X784967Y819902D01*
X784469Y820400D01*
X783817Y820670D01*
X783113D01*
X782461Y820400D01*
X781963Y819902D01*
X781762Y819415D01*
X781231D01*
X781030Y819902D01*
X780532Y820400D01*
X779880Y820670D01*
X779176D01*
X778524Y820400D01*
X778026Y819902D01*
X777825Y819415D01*
X777294D01*
X777093Y819902D01*
X776594Y820400D01*
X775943Y820670D01*
X775239D01*
X774587Y820400D01*
X774089Y819902D01*
X773888Y819415D01*
X773357D01*
X773156Y819902D01*
X772657Y820400D01*
X772006Y820670D01*
X771302D01*
X770650Y820400D01*
X770152Y819902D01*
X769950Y819415D01*
X769420D01*
X769219Y819902D01*
X768720Y820400D01*
X768069Y820670D01*
X767365D01*
X766713Y820400D01*
X766215Y819902D01*
X766013Y819415D01*
X765483D01*
X765282Y819902D01*
X764783Y820400D01*
X764132Y820670D01*
X763427D01*
X762776Y820400D01*
X762278Y819902D01*
X762077Y819415D01*
X761546D01*
X761345Y819902D01*
X760847Y820400D01*
X760195Y820670D01*
X759490D01*
X758839Y820400D01*
X758341Y819902D01*
X758071Y819250D01*
Y818546D01*
X758341Y817894D01*
X758839Y817396D01*
X759490Y817126D01*
X760195D01*
X760847Y817396D01*
X761345Y817894D01*
X761546Y818381D01*
X762077D01*
X762278Y817894D01*
X762776Y817396D01*
X763427Y817126D01*
X764132D01*
X764783Y817396D01*
X765282Y817894D01*
X765483Y818381D01*
X766013D01*
X766215Y817894D01*
X766713Y817396D01*
X767365Y817126D01*
X768069D01*
X768720Y817396D01*
X769219Y817894D01*
X769420Y818381D01*
X769950D01*
X770152Y817894D01*
X770650Y817396D01*
X771302Y817126D01*
X772006D01*
X772657Y817396D01*
X773156Y817894D01*
X773357Y818381D01*
X773888D01*
X774089Y817894D01*
X774587Y817396D01*
X775239Y817126D01*
X775943D01*
X776594Y817396D01*
X777093Y817894D01*
X777294Y818381D01*
X777825D01*
X778026Y817894D01*
X778524Y817396D01*
X779176Y817126D01*
X779880D01*
X780532Y817396D01*
X781030Y817894D01*
X781231Y818381D01*
X781762D01*
X781963Y817894D01*
X782461Y817396D01*
X783113Y817126D01*
X783817D01*
X784469Y817396D01*
X784967Y817894D01*
X785168Y818381D01*
X785699D01*
X785900Y817894D01*
X786398Y817396D01*
X787050Y817126D01*
X787754D01*
X788406Y817396D01*
X788904Y817894D01*
X789174Y818546D01*
Y819250D01*
X788904Y819902D01*
X788406Y820400D01*
X787754Y820670D01*
D02*
G37*
G36*
X836967Y808858D02*
X836262D01*
X835611Y808589D01*
X835112Y808090D01*
X834842Y807439D01*
Y806734D01*
X835112Y806083D01*
X835611Y805585D01*
X836262Y805315D01*
X836967D01*
X837618Y805585D01*
X838116Y806083D01*
X838386Y806734D01*
Y807439D01*
X838116Y808090D01*
X837618Y808589D01*
X836967Y808858D01*
D02*
G37*
G36*
X817282D02*
X816577D01*
X815926Y808589D01*
X815427Y808090D01*
X815158Y807439D01*
Y806734D01*
X815427Y806083D01*
X815926Y805585D01*
X816577Y805315D01*
X817282D01*
X817933Y805585D01*
X818431Y806083D01*
X818701Y806734D01*
Y807439D01*
X818431Y808090D01*
X817933Y808589D01*
X817282Y808858D01*
D02*
G37*
G36*
X777912D02*
X777207D01*
X776555Y808589D01*
X776057Y808090D01*
X775787Y807439D01*
Y806734D01*
X776057Y806083D01*
X776555Y805585D01*
X777207Y805315D01*
X777912D01*
X778563Y805585D01*
X779061Y806083D01*
X779331Y806734D01*
Y807439D01*
X779061Y808090D01*
X778563Y808589D01*
X777912Y808858D01*
D02*
G37*
G36*
X964919Y789173D02*
X964215D01*
X963563Y788904D01*
X963065Y788405D01*
X962795Y787754D01*
Y787049D01*
X963065Y786398D01*
X963563Y785900D01*
X964215Y785630D01*
X964919D01*
X965571Y785900D01*
X966069Y786398D01*
X966339Y787049D01*
Y787754D01*
X966069Y788405D01*
X965571Y788904D01*
X964919Y789173D01*
D02*
G37*
G36*
X945234D02*
X944530D01*
X943878Y788904D01*
X943380Y788405D01*
X943110Y787754D01*
Y787049D01*
X943380Y786398D01*
X943878Y785900D01*
X944530Y785630D01*
X945234D01*
X945885Y785900D01*
X946384Y786398D01*
X946654Y787049D01*
Y787754D01*
X946384Y788405D01*
X945885Y788904D01*
X945234Y789173D01*
D02*
G37*
G36*
X925549D02*
X924844D01*
X924193Y788904D01*
X923695Y788405D01*
X923425Y787754D01*
Y787049D01*
X923695Y786398D01*
X924193Y785900D01*
X924844Y785630D01*
X925549D01*
X926200Y785900D01*
X926699Y786398D01*
X926968Y787049D01*
Y787754D01*
X926699Y788405D01*
X926200Y788904D01*
X925549Y789173D01*
D02*
G37*
G36*
X905864D02*
X905159D01*
X904508Y788904D01*
X904010Y788405D01*
X903740Y787754D01*
Y787049D01*
X904010Y786398D01*
X904508Y785900D01*
X905159Y785630D01*
X905864D01*
X906515Y785900D01*
X907014Y786398D01*
X907283Y787049D01*
Y787754D01*
X907014Y788405D01*
X906515Y788904D01*
X905864Y789173D01*
D02*
G37*
G36*
X886179D02*
X885474D01*
X884823Y788904D01*
X884325Y788405D01*
X884055Y787754D01*
Y787049D01*
X884325Y786398D01*
X884823Y785900D01*
X885474Y785630D01*
X886179D01*
X886830Y785900D01*
X887329Y786398D01*
X887599Y787049D01*
Y787754D01*
X887329Y788405D01*
X886830Y788904D01*
X886179Y789173D01*
D02*
G37*
G36*
X846809D02*
X846104D01*
X845453Y788904D01*
X844955Y788405D01*
X844685Y787754D01*
Y787049D01*
X844955Y786398D01*
X845453Y785900D01*
X846104Y785630D01*
X846809D01*
X847460Y785900D01*
X847959Y786398D01*
X848228Y787049D01*
Y787754D01*
X847959Y788405D01*
X847460Y788904D01*
X846809Y789173D01*
D02*
G37*
G36*
X768069D02*
X767364D01*
X766713Y788904D01*
X766215Y788405D01*
X765945Y787754D01*
Y787049D01*
X766215Y786398D01*
X766713Y785900D01*
X767364Y785630D01*
X768069D01*
X768720Y785900D01*
X769218Y786398D01*
X769488Y787049D01*
Y787754D01*
X769218Y788405D01*
X768720Y788904D01*
X768069Y789173D01*
D02*
G37*
G36*
X801902Y780866D02*
X782413D01*
Y772401D01*
X801902D01*
Y780866D01*
D02*
G37*
G36*
X935392Y769488D02*
X934687D01*
X934036Y769218D01*
X933537Y768720D01*
X933268Y768069D01*
Y767364D01*
X933537Y766713D01*
X934036Y766215D01*
X934687Y765945D01*
X935392D01*
X936043Y766215D01*
X936541Y766713D01*
X936811Y767364D01*
Y768069D01*
X936541Y768720D01*
X936043Y769218D01*
X935392Y769488D01*
D02*
G37*
G36*
X915707D02*
X915002D01*
X914351Y769218D01*
X913852Y768720D01*
X913583Y768069D01*
Y767364D01*
X913852Y766713D01*
X914351Y766215D01*
X915002Y765945D01*
X915707D01*
X916358Y766215D01*
X916856Y766713D01*
X917126Y767364D01*
Y768069D01*
X916856Y768720D01*
X916358Y769218D01*
X915707Y769488D01*
D02*
G37*
G36*
X896022D02*
X895317D01*
X894666Y769218D01*
X894167Y768720D01*
X893898Y768069D01*
Y767364D01*
X894167Y766713D01*
X894666Y766215D01*
X895317Y765945D01*
X896022D01*
X896673Y766215D01*
X897171Y766713D01*
X897441Y767364D01*
Y768069D01*
X897171Y768720D01*
X896673Y769218D01*
X896022Y769488D01*
D02*
G37*
G36*
X876337D02*
X875632D01*
X874981Y769218D01*
X874482Y768720D01*
X874213Y768069D01*
Y767364D01*
X874482Y766713D01*
X874981Y766215D01*
X875632Y765945D01*
X876337D01*
X876988Y766215D01*
X877486Y766713D01*
X877756Y767364D01*
Y768069D01*
X877486Y768720D01*
X876988Y769218D01*
X876337Y769488D01*
D02*
G37*
G36*
X836967D02*
X836262D01*
X835611Y769218D01*
X835112Y768720D01*
X834842Y768069D01*
Y767364D01*
X835112Y766713D01*
X835611Y766215D01*
X836262Y765945D01*
X836967D01*
X837618Y766215D01*
X838116Y766713D01*
X838386Y767364D01*
Y768069D01*
X838116Y768720D01*
X837618Y769218D01*
X836967Y769488D01*
D02*
G37*
G36*
X817282D02*
X816577D01*
X815926Y769218D01*
X815427Y768720D01*
X815158Y768069D01*
Y767364D01*
X815427Y766713D01*
X815926Y766215D01*
X816577Y765945D01*
X817282D01*
X817933Y766215D01*
X818431Y766713D01*
X818701Y767364D01*
Y768069D01*
X818431Y768720D01*
X817933Y769218D01*
X817282Y769488D01*
D02*
G37*
G36*
X797597D02*
X796892D01*
X796241Y769218D01*
X795742Y768720D01*
X795472Y768069D01*
Y767364D01*
X795742Y766713D01*
X796241Y766215D01*
X796892Y765945D01*
X797597D01*
X798248Y766215D01*
X798746Y766713D01*
X799016Y767364D01*
Y768069D01*
X798746Y768720D01*
X798248Y769218D01*
X797597Y769488D01*
D02*
G37*
G36*
X885852Y765272D02*
X885148D01*
X884496Y765002D01*
X883998Y764504D01*
X883728Y763852D01*
Y763148D01*
X883998Y762496D01*
X884496Y761998D01*
X885148Y761728D01*
X885852D01*
X886504Y761998D01*
X887002Y762496D01*
X887272Y763148D01*
Y763852D01*
X887002Y764504D01*
X886504Y765002D01*
X885852Y765272D01*
D02*
G37*
G36*
X891352Y752772D02*
X890648D01*
X889996Y752502D01*
X889498Y752004D01*
X889228Y751352D01*
Y750648D01*
X889498Y749996D01*
X889996Y749498D01*
X890648Y749228D01*
X891352D01*
X892004Y749498D01*
X892502Y749996D01*
X892772Y750648D01*
Y751352D01*
X892502Y752004D01*
X892004Y752502D01*
X891352Y752772D01*
D02*
G37*
G36*
X895352Y751772D02*
X894648D01*
X893996Y751502D01*
X893498Y751004D01*
X893228Y750352D01*
Y749648D01*
X893498Y748996D01*
X893996Y748498D01*
X894648Y748228D01*
X895352D01*
X896004Y748498D01*
X896502Y748996D01*
X896772Y749648D01*
Y750352D01*
X896502Y751004D01*
X896004Y751502D01*
X895352Y751772D01*
D02*
G37*
G36*
X925549Y749803D02*
X924844D01*
X924193Y749533D01*
X923695Y749035D01*
X923425Y748384D01*
Y747679D01*
X923695Y747028D01*
X924193Y746530D01*
X924844Y746260D01*
X925549D01*
X926200Y746530D01*
X926699Y747028D01*
X926968Y747679D01*
Y748384D01*
X926699Y749035D01*
X926200Y749533D01*
X925549Y749803D01*
D02*
G37*
G36*
X905864D02*
X905159D01*
X904508Y749533D01*
X904010Y749035D01*
X903740Y748384D01*
Y747679D01*
X904010Y747028D01*
X904508Y746530D01*
X905159Y746260D01*
X905864D01*
X906515Y746530D01*
X907014Y747028D01*
X907283Y747679D01*
Y748384D01*
X907014Y749035D01*
X906515Y749533D01*
X905864Y749803D01*
D02*
G37*
G36*
X827124D02*
X826419D01*
X825768Y749533D01*
X825270Y749035D01*
X825000Y748384D01*
Y747679D01*
X825270Y747028D01*
X825768Y746530D01*
X826419Y746260D01*
X827124D01*
X827775Y746530D01*
X828274Y747028D01*
X828543Y747679D01*
Y748384D01*
X828274Y749035D01*
X827775Y749533D01*
X827124Y749803D01*
D02*
G37*
G36*
X807439D02*
X806734D01*
X806083Y749533D01*
X805585Y749035D01*
X805315Y748384D01*
Y747679D01*
X805585Y747028D01*
X806083Y746530D01*
X806734Y746260D01*
X807439D01*
X808090Y746530D01*
X808589Y747028D01*
X808858Y747679D01*
Y748384D01*
X808589Y749035D01*
X808090Y749533D01*
X807439Y749803D01*
D02*
G37*
G36*
X787754D02*
X787049D01*
X786398Y749533D01*
X785900Y749035D01*
X785630Y748384D01*
Y747679D01*
X785900Y747028D01*
X786398Y746530D01*
X787049Y746260D01*
X787754D01*
X788405Y746530D01*
X788904Y747028D01*
X789173Y747679D01*
Y748384D01*
X788904Y749035D01*
X788405Y749533D01*
X787754Y749803D01*
D02*
G37*
G36*
X768069D02*
X767364D01*
X766713Y749533D01*
X766215Y749035D01*
X765945Y748384D01*
Y747679D01*
X766215Y747028D01*
X766713Y746530D01*
X767364Y746260D01*
X768069D01*
X768720Y746530D01*
X769218Y747028D01*
X769488Y747679D01*
Y748384D01*
X769218Y749035D01*
X768720Y749533D01*
X768069Y749803D01*
D02*
G37*
G36*
X886352Y741772D02*
X885648D01*
X884996Y741502D01*
X884498Y741004D01*
X884228Y740352D01*
Y739648D01*
X884498Y738996D01*
X884996Y738498D01*
X885648Y738228D01*
X886352D01*
X887004Y738498D01*
X887502Y738996D01*
X887772Y739648D01*
Y740352D01*
X887502Y741004D01*
X887004Y741502D01*
X886352Y741772D01*
D02*
G37*
G36*
X894852Y731272D02*
X894148D01*
X893496Y731002D01*
X892998Y730504D01*
X892728Y729852D01*
Y729148D01*
X892998Y728496D01*
X893496Y727998D01*
X894148Y727728D01*
X894852D01*
X895504Y727998D01*
X896002Y728496D01*
X896272Y729148D01*
Y729852D01*
X896002Y730504D01*
X895504Y731002D01*
X894852Y731272D01*
D02*
G37*
G36*
X836967Y730118D02*
X836262D01*
X835611Y729848D01*
X835112Y729350D01*
X834842Y728699D01*
Y727994D01*
X835112Y727343D01*
X835611Y726845D01*
X836262Y726575D01*
X836967D01*
X837618Y726845D01*
X838116Y727343D01*
X838386Y727994D01*
Y728699D01*
X838116Y729350D01*
X837618Y729848D01*
X836967Y730118D01*
D02*
G37*
G36*
X817282D02*
X816577D01*
X815926Y729848D01*
X815427Y729350D01*
X815158Y728699D01*
Y727994D01*
X815427Y727343D01*
X815926Y726845D01*
X816577Y726575D01*
X817282D01*
X817933Y726845D01*
X818431Y727343D01*
X818701Y727994D01*
Y728699D01*
X818431Y729350D01*
X817933Y729848D01*
X817282Y730118D01*
D02*
G37*
G36*
X777912D02*
X777207D01*
X776555Y729848D01*
X776057Y729350D01*
X775787Y728699D01*
Y727994D01*
X776057Y727343D01*
X776555Y726845D01*
X777207Y726575D01*
X777912D01*
X778563Y726845D01*
X779061Y727343D01*
X779331Y727994D01*
Y728699D01*
X779061Y729350D01*
X778563Y729848D01*
X777912Y730118D01*
D02*
G37*
G36*
X894352Y724772D02*
X893648D01*
X892996Y724502D01*
X892498Y724004D01*
X892228Y723352D01*
Y722648D01*
X892498Y721996D01*
X892996Y721498D01*
X893648Y721228D01*
X894352D01*
X895004Y721498D01*
X895502Y721996D01*
X895772Y722648D01*
Y723352D01*
X895502Y724004D01*
X895004Y724502D01*
X894352Y724772D01*
D02*
G37*
G36*
X886179Y710433D02*
X885474D01*
X884823Y710163D01*
X884325Y709665D01*
X884055Y709014D01*
Y708309D01*
X884325Y707658D01*
X884823Y707160D01*
X885474Y706890D01*
X886179D01*
X886830Y707160D01*
X887329Y707658D01*
X887599Y708309D01*
Y709014D01*
X887329Y709665D01*
X886830Y710163D01*
X886179Y710433D01*
D02*
G37*
G36*
X846809D02*
X846104D01*
X845453Y710163D01*
X844955Y709665D01*
X844685Y709014D01*
Y708309D01*
X844955Y707658D01*
X845453Y707160D01*
X846104Y706890D01*
X846809D01*
X847460Y707160D01*
X847959Y707658D01*
X848228Y708309D01*
Y709014D01*
X847959Y709665D01*
X847460Y710163D01*
X846809Y710433D01*
D02*
G37*
G36*
X827124D02*
X826419D01*
X825768Y710163D01*
X825270Y709665D01*
X825000Y709014D01*
Y708309D01*
X825270Y707658D01*
X825768Y707160D01*
X826419Y706890D01*
X827124D01*
X827775Y707160D01*
X828274Y707658D01*
X828543Y708309D01*
Y709014D01*
X828274Y709665D01*
X827775Y710163D01*
X827124Y710433D01*
D02*
G37*
G36*
X807439D02*
X806734D01*
X806083Y710163D01*
X805585Y709665D01*
X805315Y709014D01*
Y708309D01*
X805585Y707658D01*
X806083Y707160D01*
X806734Y706890D01*
X807439D01*
X808090Y707160D01*
X808589Y707658D01*
X808858Y708309D01*
Y709014D01*
X808589Y709665D01*
X808090Y710163D01*
X807439Y710433D01*
D02*
G37*
G36*
X768069D02*
X767364D01*
X766713Y710163D01*
X766215Y709665D01*
X765945Y709014D01*
Y708309D01*
X766215Y707658D01*
X766713Y707160D01*
X767364Y706890D01*
X768069D01*
X768720Y707160D01*
X769218Y707658D01*
X769488Y708309D01*
Y709014D01*
X769218Y709665D01*
X768720Y710163D01*
X768069Y710433D01*
D02*
G37*
G36*
X791852Y707272D02*
X791148D01*
X790496Y707002D01*
X789998Y706504D01*
X789728Y705852D01*
Y705148D01*
X789998Y704496D01*
X790496Y703998D01*
X791148Y703728D01*
X791852D01*
X792015Y703796D01*
X853787D01*
X853848Y703704D01*
X853581Y703204D01*
X788801D01*
X788504Y703502D01*
X787852Y703772D01*
X787148D01*
X786496Y703502D01*
X785998Y703004D01*
X785728Y702352D01*
Y701648D01*
X785998Y700996D01*
X786496Y700498D01*
X787148Y700228D01*
X787852D01*
X788504Y700498D01*
X788801Y700796D01*
X865500D01*
X865500Y700796D01*
X865961Y700887D01*
X866352Y701149D01*
X866431Y701228D01*
X866852D01*
X867504Y701498D01*
X868002Y701996D01*
X868272Y702648D01*
Y703352D01*
X868002Y704004D01*
X867504Y704502D01*
X866852Y704772D01*
X866148D01*
X865496Y704502D01*
X864998Y704004D01*
X864728Y703352D01*
Y703204D01*
X856917D01*
X856710Y703704D01*
X857002Y703996D01*
X857272Y704648D01*
Y705352D01*
X857002Y706004D01*
X856504Y706502D01*
X855852Y706772D01*
X855148D01*
X854496Y706502D01*
X854199Y706204D01*
X793126D01*
X793002Y706504D01*
X792504Y707002D01*
X791852Y707272D01*
D02*
G37*
G36*
X856652Y690748D02*
X855947D01*
X855296Y690478D01*
X854797Y689980D01*
X854528Y689329D01*
Y688624D01*
X854797Y687973D01*
X855296Y687474D01*
X855947Y687205D01*
X856652D01*
X857303Y687474D01*
X857801Y687973D01*
X858071Y688624D01*
Y689329D01*
X857801Y689980D01*
X857303Y690478D01*
X856652Y690748D01*
D02*
G37*
G36*
X836967D02*
X836262D01*
X835611Y690478D01*
X835112Y689980D01*
X834842Y689329D01*
Y688624D01*
X835112Y687973D01*
X835611Y687474D01*
X836262Y687205D01*
X836967D01*
X837618Y687474D01*
X838116Y687973D01*
X838386Y688624D01*
Y689329D01*
X838116Y689980D01*
X837618Y690478D01*
X836967Y690748D01*
D02*
G37*
G36*
X817282D02*
X816577D01*
X815926Y690478D01*
X815427Y689980D01*
X815158Y689329D01*
Y688624D01*
X815427Y687973D01*
X815926Y687474D01*
X816577Y687205D01*
X817282D01*
X817933Y687474D01*
X818431Y687973D01*
X818701Y688624D01*
Y689329D01*
X818431Y689980D01*
X817933Y690478D01*
X817282Y690748D01*
D02*
G37*
G36*
X797597D02*
X796892D01*
X796241Y690478D01*
X795742Y689980D01*
X795472Y689329D01*
Y688624D01*
X795742Y687973D01*
X796241Y687474D01*
X796892Y687205D01*
X797597D01*
X798248Y687474D01*
X798746Y687973D01*
X799016Y688624D01*
Y689329D01*
X798746Y689980D01*
X798248Y690478D01*
X797597Y690748D01*
D02*
G37*
G36*
X777912D02*
X777207D01*
X776555Y690478D01*
X776057Y689980D01*
X775787Y689329D01*
Y688624D01*
X776057Y687973D01*
X776555Y687474D01*
X777207Y687205D01*
X777912D01*
X778563Y687474D01*
X779061Y687973D01*
X779331Y688624D01*
Y689329D01*
X779061Y689980D01*
X778563Y690478D01*
X777912Y690748D01*
D02*
G37*
G36*
X846809Y671063D02*
X846104D01*
X845453Y670793D01*
X844955Y670295D01*
X844685Y669644D01*
Y668939D01*
X844955Y668288D01*
X845453Y667789D01*
X846104Y667520D01*
X846809D01*
X847460Y667789D01*
X847959Y668288D01*
X848228Y668939D01*
Y669644D01*
X847959Y670295D01*
X847460Y670793D01*
X846809Y671063D01*
D02*
G37*
G36*
X827124D02*
X826419D01*
X825768Y670793D01*
X825270Y670295D01*
X825000Y669644D01*
Y668939D01*
X825270Y668288D01*
X825768Y667789D01*
X826419Y667520D01*
X827124D01*
X827775Y667789D01*
X828274Y668288D01*
X828543Y668939D01*
Y669644D01*
X828274Y670295D01*
X827775Y670793D01*
X827124Y671063D01*
D02*
G37*
G36*
X787754D02*
X787049D01*
X786398Y670793D01*
X785900Y670295D01*
X785630Y669644D01*
Y668939D01*
X785900Y668288D01*
X786398Y667789D01*
X787049Y667520D01*
X787754D01*
X788405Y667789D01*
X788904Y668288D01*
X789173Y668939D01*
Y669644D01*
X788904Y670295D01*
X788405Y670793D01*
X787754Y671063D01*
D02*
G37*
G36*
X765352Y669772D02*
X764648D01*
X763996Y669502D01*
X763498Y669004D01*
X763228Y668352D01*
Y667648D01*
X763498Y666996D01*
X763996Y666498D01*
X764648Y666228D01*
X765352D01*
X766004Y666498D01*
X766502Y666996D01*
X766772Y667648D01*
Y668352D01*
X766502Y669004D01*
X766004Y669502D01*
X765352Y669772D01*
D02*
G37*
G36*
X767852Y660272D02*
X767148D01*
X766496Y660002D01*
X765998Y659504D01*
X765728Y658852D01*
Y658148D01*
X765998Y657496D01*
X766496Y656998D01*
X767148Y656728D01*
X767852D01*
X768504Y656998D01*
X769002Y657496D01*
X769272Y658148D01*
Y658852D01*
X769002Y659504D01*
X768504Y660002D01*
X767852Y660272D01*
D02*
G37*
G36*
X781852Y659272D02*
X781148D01*
X780496Y659002D01*
X779998Y658504D01*
X779728Y657852D01*
Y657148D01*
X779998Y656496D01*
X780496Y655998D01*
X781148Y655728D01*
X781852D01*
X782504Y655998D01*
X783002Y656496D01*
X783272Y657148D01*
Y657852D01*
X783002Y658504D01*
X782504Y659002D01*
X781852Y659272D01*
D02*
G37*
G36*
X778352Y653772D02*
X777648D01*
X776996Y653502D01*
X776498Y653004D01*
X776228Y652352D01*
Y651648D01*
X776498Y650996D01*
X776996Y650498D01*
X777648Y650228D01*
X778352D01*
X779004Y650498D01*
X779502Y650996D01*
X779772Y651648D01*
Y652352D01*
X779502Y653004D01*
X779004Y653502D01*
X778352Y653772D01*
D02*
G37*
G36*
X817282Y651378D02*
X816577D01*
X815926Y651108D01*
X815427Y650610D01*
X815158Y649959D01*
Y649254D01*
X815427Y648603D01*
X815926Y648104D01*
X816577Y647835D01*
X817282D01*
X817933Y648104D01*
X818431Y648603D01*
X818701Y649254D01*
Y649959D01*
X818431Y650610D01*
X817933Y651108D01*
X817282Y651378D01*
D02*
G37*
G36*
X768069Y631693D02*
X767364D01*
X766713Y631423D01*
X766215Y630925D01*
X765945Y630274D01*
Y629569D01*
X766215Y628918D01*
X766713Y628419D01*
X767364Y628150D01*
X768069D01*
X768720Y628419D01*
X769218Y628918D01*
X769488Y629569D01*
Y630274D01*
X769218Y630925D01*
X768720Y631423D01*
X768069Y631693D01*
D02*
G37*
G36*
X777912Y612008D02*
X777207D01*
X776555Y611738D01*
X776057Y611240D01*
X775787Y610589D01*
Y609884D01*
X776057Y609233D01*
X776555Y608734D01*
X777207Y608465D01*
X777912D01*
X778563Y608734D01*
X779061Y609233D01*
X779331Y609884D01*
Y610589D01*
X779061Y611240D01*
X778563Y611738D01*
X777912Y612008D01*
D02*
G37*
G36*
X768069Y592323D02*
X767364D01*
X766713Y592053D01*
X766215Y591555D01*
X765945Y590904D01*
Y590199D01*
X766215Y589548D01*
X766713Y589049D01*
X767364Y588780D01*
X768069D01*
X768720Y589049D01*
X769218Y589548D01*
X769488Y590199D01*
Y590904D01*
X769218Y591555D01*
X768720Y592053D01*
X768069Y592323D01*
D02*
G37*
G36*
X785352Y569772D02*
X784648D01*
X783996Y569502D01*
X783498Y569004D01*
X783228Y568352D01*
Y567648D01*
X783498Y566996D01*
X783996Y566498D01*
X784648Y566228D01*
X785352D01*
X786004Y566498D01*
X786502Y566996D01*
X786772Y567648D01*
Y568352D01*
X786502Y569004D01*
X786004Y569502D01*
X785352Y569772D01*
D02*
G37*
G36*
X787754Y552953D02*
X787049D01*
X786398Y552683D01*
X785900Y552185D01*
X785630Y551534D01*
Y550829D01*
X785900Y550178D01*
X786398Y549679D01*
X787049Y549409D01*
X787754D01*
X788405Y549679D01*
X788904Y550178D01*
X789173Y550829D01*
Y551534D01*
X788904Y552185D01*
X788405Y552683D01*
X787754Y552953D01*
D02*
G37*
G36*
X797597Y533268D02*
X796892D01*
X796241Y532998D01*
X795742Y532500D01*
X795472Y531848D01*
Y531144D01*
X795742Y530492D01*
X796241Y529994D01*
X796892Y529724D01*
X797597D01*
X798248Y529994D01*
X798746Y530492D01*
X799016Y531144D01*
Y531848D01*
X798746Y532500D01*
X798248Y532998D01*
X797597Y533268D01*
D02*
G37*
G36*
X787754Y513583D02*
X787049D01*
X786398Y513313D01*
X785900Y512815D01*
X785630Y512163D01*
Y511459D01*
X785900Y510808D01*
X786398Y510309D01*
X787049Y510039D01*
X787754D01*
X788405Y510309D01*
X788904Y510808D01*
X789173Y511459D01*
Y512163D01*
X788904Y512815D01*
X788405Y513313D01*
X787754Y513583D01*
D02*
G37*
G36*
X768069D02*
X767364D01*
X766713Y513313D01*
X766215Y512815D01*
X765945Y512163D01*
Y511459D01*
X766215Y510808D01*
X766713Y510309D01*
X767364Y510039D01*
X768069D01*
X768720Y510309D01*
X769218Y510808D01*
X769488Y511459D01*
Y512163D01*
X769218Y512815D01*
X768720Y513313D01*
X768069Y513583D01*
D02*
G37*
G36*
X777912Y493898D02*
X777207D01*
X776555Y493628D01*
X776057Y493130D01*
X775787Y492478D01*
Y491774D01*
X776057Y491122D01*
X776555Y490624D01*
X777207Y490354D01*
X777912D01*
X778563Y490624D01*
X779061Y491122D01*
X779331Y491774D01*
Y492478D01*
X779061Y493130D01*
X778563Y493628D01*
X777912Y493898D01*
D02*
G37*
G36*
X787754Y474213D02*
X787049D01*
X786398Y473943D01*
X785900Y473445D01*
X785630Y472793D01*
Y472089D01*
X785900Y471437D01*
X786398Y470939D01*
X787049Y470669D01*
X787754D01*
X788405Y470939D01*
X788904Y471437D01*
X789173Y472089D01*
Y472793D01*
X788904Y473445D01*
X788405Y473943D01*
X787754Y474213D01*
D02*
G37*
G36*
X768069D02*
X767364D01*
X766713Y473943D01*
X766215Y473445D01*
X765945Y472793D01*
Y472089D01*
X766215Y471437D01*
X766713Y470939D01*
X767364Y470669D01*
X768069D01*
X768720Y470939D01*
X769218Y471437D01*
X769488Y472089D01*
Y472793D01*
X769218Y473445D01*
X768720Y473943D01*
X768069Y474213D01*
D02*
G37*
%LPD*%
D13*
X1039126Y671126D02*
X1039500Y671500D01*
X986000Y671126D02*
X1039126D01*
X1162378Y758000D02*
X1194500D01*
X928386Y484500D02*
X996000D01*
X922500Y490386D02*
X928386Y484500D01*
X977000Y537500D02*
X1000000D01*
X1007000Y544500D01*
X1147000Y811000D02*
X1147500Y811500D01*
X970500Y811000D02*
X984000D01*
X1147000D01*
X952500Y816500D02*
X1144500D01*
X942000Y703000D02*
X972000D01*
X975500Y706500D01*
X972500Y754500D02*
X1076000D01*
X1076500Y754000D01*
X1044543Y692500D02*
X1172000D01*
X1031043Y706000D02*
X1044543Y692500D01*
X1022500Y706000D02*
X1031043D01*
X1017346Y709153D02*
X1043473D01*
X1047500Y705126D01*
X1031000Y792500D02*
X1064500D01*
X1030500Y792000D02*
X1031000Y792500D01*
X1051122Y651122D02*
X1051500Y651500D01*
X1009500D02*
X1021463D01*
X1021841Y651122D01*
X1051122D01*
X1131500Y799000D02*
X1135000Y802500D01*
X1131500Y799040D02*
X1131506Y799046D01*
X1131500Y799000D02*
Y799040D01*
X1135000Y802500D02*
X1182000D01*
X866000Y811500D02*
X869000Y808500D01*
X1133500D01*
X855961Y805500D02*
X1131000D01*
X855500Y805000D02*
Y805039D01*
X855961Y805500D01*
X787500Y702000D02*
X865500D01*
X866500Y703000D01*
X792000Y705000D02*
X855500D01*
X791500Y705500D02*
X792000Y705000D01*
X995000Y587000D02*
X995500Y586500D01*
X1176000D01*
X1160181Y748560D02*
X1164132D01*
X1165326Y747367D01*
X1165646D01*
X1160121Y748621D02*
X1160181Y748560D01*
X1157622Y748621D02*
X1160121D01*
X1141000Y725500D02*
X1156000D01*
X1179438Y715500D02*
X1180938Y714000D01*
X1141000Y715500D02*
X1179438D01*
X1180938Y714000D02*
X1181000D01*
X1035000Y576000D02*
X1036000Y577000D01*
X1101000D01*
X1003241Y736622D02*
X1047500D01*
X1000515Y737378D02*
X1002485D01*
X993622Y736622D02*
X999759D01*
X1002485Y737378D02*
X1003241Y736622D01*
X999759D02*
X1000515Y737378D01*
X1001500Y713500D02*
X1012999D01*
X1017346Y709153D01*
X991500Y734500D02*
X993622Y736622D01*
X1047122Y728878D02*
X1047500Y728500D01*
X974500Y723500D02*
X979878Y728878D01*
X1047122D01*
X1047500Y728500D02*
Y728748D01*
X1010500Y695500D02*
X1037500D01*
X989878Y675622D02*
X1029365D01*
X989500Y676000D02*
X989878Y675622D01*
X1029365D02*
X1031096Y677354D01*
X1006000Y685000D02*
X1034500D01*
X1156000Y780500D02*
X1175500D01*
X1089500Y635000D02*
X1090000Y635500D01*
X1017500Y635000D02*
X1089500D01*
X1034500Y655500D02*
X1105500D01*
X1032500Y653500D02*
X1034500Y655500D01*
X1154000Y797000D02*
X1181500D01*
X1150000Y793000D02*
X1154000Y797000D01*
X1014500Y595000D02*
X1117000D01*
X1118500Y593500D01*
X994000Y605000D02*
X1189680D01*
X1190680Y606000D02*
X1191000D01*
X1189680Y605000D02*
X1190680Y606000D01*
X928500Y545500D02*
X929000Y545000D01*
X989000D01*
X925000Y550000D02*
X994000D01*
X985500Y706000D02*
X1022500D01*
D17*
X916500Y508500D02*
X922623D01*
X922639Y508516D01*
D134*
X1192307Y500551D02*
D03*
D135*
X1105693Y547795D02*
D03*
D150*
X815500Y605500D02*
X845050Y575950D01*
Y547397D02*
Y575950D01*
X913500Y610000D02*
X935500Y588000D01*
X791500Y610000D02*
X913500D01*
X836500Y639500D02*
X948500D01*
X948000Y581500D02*
X1090500D01*
D153*
X830000Y646000D02*
X836500Y639500D01*
X830000Y646390D02*
X830266Y646656D01*
X830000Y646000D02*
Y646390D01*
X947500Y581000D02*
X948000Y581500D01*
D156*
X946500Y513000D02*
X952250Y518750D01*
X917500Y513000D02*
X946500D01*
X903500Y548000D02*
X908000Y543500D01*
Y522500D02*
Y543500D01*
Y522500D02*
X917500Y513000D01*
D165*
X1141000Y715500D02*
D03*
Y725500D02*
D03*
D166*
X1131000Y745500D02*
D03*
D168*
X1047500Y705126D02*
D03*
Y728748D02*
D03*
Y736622D02*
D03*
D172*
X922500Y490386D02*
D03*
D174*
X787350Y521902D02*
D03*
X1039500Y671500D02*
D03*
X986000Y671126D02*
D03*
X1157500Y756500D02*
D03*
X1162378Y758000D02*
D03*
X958500Y711500D02*
D03*
X922639Y508516D02*
D03*
X916500Y508500D02*
D03*
X996000Y484500D02*
D03*
X977000Y537500D02*
D03*
X1007000Y544500D02*
D03*
X1097227Y775379D02*
D03*
X973250Y792252D02*
D03*
X959000D02*
D03*
X771500Y768000D02*
D03*
X765500Y765500D02*
D03*
X765169Y760470D02*
D03*
X765000Y755500D02*
D03*
X784000Y680000D02*
D03*
X793000Y679000D02*
D03*
X802000Y675500D02*
D03*
X800000Y670500D02*
D03*
X790500D02*
D03*
X1003697Y495435D02*
D03*
X1162697Y739435D02*
D03*
X1160500Y727000D02*
D03*
X1120500Y813500D02*
D03*
X1144500Y816500D02*
D03*
X1091500Y801000D02*
D03*
X1013500Y802000D02*
D03*
X1015439Y813747D02*
D03*
X1091000Y813500D02*
D03*
X1034500Y664500D02*
D03*
X970000Y743500D02*
D03*
X965291Y739010D02*
D03*
X1011000Y740000D02*
D03*
X1009000Y691000D02*
D03*
X981222Y689248D02*
D03*
X975500Y706500D02*
D03*
X942000Y703000D02*
D03*
X1076500Y754000D02*
D03*
X972500Y754500D02*
D03*
X1022500Y706000D02*
D03*
X1030500Y792000D02*
D03*
X1064500Y792500D02*
D03*
X1051500Y651500D02*
D03*
X1009500D02*
D03*
X1131506Y799046D02*
D03*
X1133500Y808500D02*
D03*
X866000Y811500D02*
D03*
X866500Y703000D02*
D03*
X787500Y702000D02*
D03*
X791500Y705500D02*
D03*
X855500Y705000D02*
D03*
Y805000D02*
D03*
X1131000Y805500D02*
D03*
X995000Y587000D02*
D03*
X1176000Y586500D02*
D03*
X1165646Y747367D02*
D03*
X1157622Y748621D02*
D03*
X1156000Y725500D02*
D03*
X1181000Y714000D02*
D03*
X1035000Y576000D02*
D03*
X1101000Y577000D02*
D03*
X1001500Y713500D02*
D03*
X991500Y734500D02*
D03*
X974500Y723500D02*
D03*
X1037500Y695500D02*
D03*
X1010500D02*
D03*
X1024500Y685000D02*
D03*
X989500Y676000D02*
D03*
X1031096Y677354D02*
D03*
X1026500Y678000D02*
D03*
X1006000Y685000D02*
D03*
X1034500D02*
D03*
X984000Y811000D02*
D03*
X1147500Y811500D02*
D03*
X970500Y811000D02*
D03*
X979807Y816586D02*
D03*
X952500Y816500D02*
D03*
X1175500Y780500D02*
D03*
X1090000Y635500D02*
D03*
X1017500Y635000D02*
D03*
X1032500Y653500D02*
D03*
X1105500Y655500D02*
D03*
X1182000Y802500D02*
D03*
X1194500Y758000D02*
D03*
X1181500Y797000D02*
D03*
X1150000Y793000D02*
D03*
X1156000Y780500D02*
D03*
X1118500Y593500D02*
D03*
X1014500Y595000D02*
D03*
X994000Y605000D02*
D03*
X1191000Y606000D02*
D03*
X928500Y545500D02*
D03*
X989000Y545000D02*
D03*
X994000Y550000D02*
D03*
X925000D02*
D03*
X953000Y519500D02*
D03*
X815500Y605500D02*
D03*
X845050Y547397D02*
D03*
X903500Y548000D02*
D03*
X952007Y524911D02*
D03*
X940096Y524544D02*
D03*
X936000Y525000D02*
D03*
X938395Y526452D02*
D03*
X939299Y530592D02*
D03*
X937906Y532485D02*
D03*
X941000Y532500D02*
D03*
X806500Y604500D02*
D03*
X791500Y610000D02*
D03*
X935500Y588000D02*
D03*
X830266Y646656D02*
D03*
X948500Y639500D02*
D03*
X947500Y581000D02*
D03*
X955007Y533088D02*
D03*
X958007D02*
D03*
X1090500Y581500D02*
D03*
X1172000Y692500D02*
D03*
X985500Y706000D02*
D03*
X1060101Y518704D02*
D03*
X958007Y524911D02*
D03*
X952007Y533088D02*
D03*
X955007Y524911D02*
D03*
X893500Y651000D02*
D03*
X874000Y678000D02*
D03*
X781000Y670500D02*
D03*
X761500Y656500D02*
D03*
X789342Y587000D02*
D03*
X794473Y596783D02*
D03*
M02*
