G04*
G04 #@! TF.GenerationSoftware,Altium Limited,Altium Designer,21.9.1 (22)*
G04*
G04 Layer_Color=16711935*
%FSLAX25Y25*%
%MOIN*%
G70*
G04*
G04 #@! TF.SameCoordinates,CDD0097E-41E7-41F5-A71D-9F4D08275E7E*
G04*
G04*
G04 #@! TF.FilePolarity,Positive*
G04*
G01*
G75*
%ADD11C,0.00394*%
%ADD176C,0.00197*%
D11*
X772532Y658000D02*
X776469D01*
X774500Y656032D02*
Y659969D01*
X772532Y642000D02*
X776469D01*
X774500Y640031D02*
Y643968D01*
X772532Y633500D02*
X776469D01*
X774500Y631531D02*
Y635468D01*
X822172Y603000D02*
X826109D01*
X824141Y601031D02*
Y604969D01*
X774500Y588031D02*
Y591968D01*
X772532Y590000D02*
X776469D01*
X784000Y587891D02*
Y591828D01*
X782031Y589859D02*
X785968D01*
X848008Y590453D02*
X851945D01*
X849976Y588484D02*
Y592421D01*
X963000Y527032D02*
Y530969D01*
X961032Y529000D02*
X964968D01*
X958031Y543000D02*
X961969D01*
X960000Y541032D02*
Y544969D01*
X958031Y551000D02*
X961969D01*
X960000Y549031D02*
Y552969D01*
X958031Y559000D02*
X961969D01*
X960000Y557031D02*
Y560968D01*
X931086Y576307D02*
X935023D01*
X933055Y574338D02*
Y578275D01*
X931391Y567000D02*
X935328D01*
X933359Y565031D02*
Y568968D01*
X940532Y552000D02*
X944468D01*
X942500Y550032D02*
Y553968D01*
X940532Y544500D02*
X944468D01*
X942500Y542531D02*
Y546468D01*
X938000Y527032D02*
Y530969D01*
X936032Y529000D02*
X939968D01*
X940532Y512500D02*
X944468D01*
X942500Y510532D02*
Y514468D01*
X940532Y505000D02*
X944468D01*
X942500Y503031D02*
Y506968D01*
X999500Y509031D02*
Y512968D01*
X997532Y511000D02*
X1001468D01*
X1051532Y542980D02*
Y546917D01*
X1049563Y544949D02*
X1053500D01*
X1024032Y532000D02*
X1027969D01*
X1026000Y530031D02*
Y533968D01*
X1054031Y507000D02*
X1057969D01*
X1056000Y505031D02*
Y508968D01*
X1147031Y535000D02*
X1150968D01*
X1149000Y533032D02*
Y536969D01*
X831500Y480532D02*
Y484469D01*
X829531Y482500D02*
X833469D01*
X796531Y659000D02*
X800469D01*
X798500Y657031D02*
Y660968D01*
X882032Y660000D02*
X885968D01*
X884000Y658032D02*
Y661969D01*
Y635032D02*
Y638969D01*
X882032Y637000D02*
X885968D01*
X866031Y661000D02*
X869969D01*
X868000Y659031D02*
Y662968D01*
X858031Y661000D02*
X861969D01*
X860000Y659031D02*
Y662968D01*
X1026000Y553532D02*
Y557469D01*
X1024032Y555500D02*
X1027969D01*
D176*
X930000Y475032D02*
Y478968D01*
X928032Y477000D02*
X931968D01*
M02*
