G04*
G04 #@! TF.GenerationSoftware,Altium Limited,Altium Designer,21.9.1 (22)*
G04*
G04 Layer_Color=32768*
%FSLAX25Y25*%
%MOIN*%
G70*
G04*
G04 #@! TF.SameCoordinates,9576BD0E-73BF-4861-8540-BB655C5FDD5B*
G04*
G04*
G04 #@! TF.FilePolarity,Positive*
G04*
G01*
G75*
%ADD45C,0.00394*%
%ADD46C,0.01575*%
%ADD47C,0.00197*%
D45*
X363056Y345179D02*
X365221D01*
X364138Y344096D02*
Y346262D01*
X352056Y345947D02*
X354221D01*
X353138Y344864D02*
Y347029D01*
X341245Y342537D02*
X345182D01*
X343213Y340569D02*
Y344506D01*
X374638Y348364D02*
Y350530D01*
X373556Y349447D02*
X375721D01*
X359638Y344234D02*
Y346400D01*
X358556Y345317D02*
X360721D01*
D46*
X371425Y332505D02*
G03*
X371425Y332505I-787J0D01*
G01*
D47*
X366107Y341439D02*
Y348919D01*
X362170Y341439D02*
Y348919D01*
X366107D01*
X362170Y341439D02*
X366107D01*
X355107Y342207D02*
Y349687D01*
X351170Y342207D02*
Y349687D01*
X355107D01*
X351170Y342207D02*
X355107D01*
X347544Y335813D02*
Y349624D01*
X338808Y335813D02*
Y349624D01*
Y335813D02*
X347544D01*
X338808Y349624D02*
X347544D01*
X370898Y347478D02*
X378379D01*
X370898Y351415D02*
X378379D01*
Y347478D02*
Y351415D01*
X370898Y347478D02*
Y351415D01*
X357473Y349451D02*
X361804D01*
X357473Y341183D02*
X361804D01*
Y349451D01*
X357473Y341183D02*
Y349451D01*
M02*
