M48
;Layer_Color=9474304
;FILE_FORMAT=2:5
INCH,LZ
;TYPE=PLATED
T1F00S00C0.00787
T2F00S00C0.01181
T3F00S00C0.01654
T5F00S00C0.02559
T6F00S00C0.03000
T8F00S00C0.03543
T9F00S00C0.03600
T10F00S00C0.03937
T11F00S00C0.04000
T12F00S00C0.04100
T13F00S00C0.04724
T14F00S00C0.05000
T15F00S00C0.05512
T16F00S00C0.07087
T17F00S00C0.09370
T18F00S00C0.12100
T19F00S00C0.12598
%
T01
X01195Y-018465
Y-017835
X012265Y-01815
X011635
X0147Y-01575
Y-0151201
X015015Y-015435
X014385
X042263Y-01925
X0427118
Y-0188012
X0432512
Y-01925
X0437
Y-0197894
X0432512
Y-0202382
X0427118
Y-0197894
X042263
T02
X0511909Y-0230335
X0517814Y-0218524
X0506003
X0494192
X0482381
X047057
X0463549Y-0218119
X0458759Y-0218524
X0446948
X0452854Y-0230335
X0464665
X0500098
X0417421
X040561
X0393799
X0381988
X0387829Y-0219681
X03965Y-0217
X0376082Y-0218524
X0364271
X0358366Y-0230335
X0346554
X0342329Y-0224181
X0336829Y-0224681
X0334743Y-0230335
X0328838Y-0218524
X0311121Y-0230335
X02755Y-0234
X02785Y-02225
X0280829Y-0219181
Y-0215181
X0269329Y-0217181
X0257972Y-0218524
X0253Y-0233
X022675Y-023075
X0223Y-02265
X0222539Y-0218524
X0214389Y-0222074
X0209877Y-0222297
X0210017Y-0235944
X0222329Y-0234681
X0197829Y-0233181
X0191Y-0228
X0190329Y-0239181
X01915Y-02165
X0198917Y-0218524
X023435
X0181329Y-0216681
X01775Y-023961
X0159829Y-0237181
X016Y-02265
X0138233Y-0227001
X0139862Y-0218524
X01435Y-0217
X011624Y-0218524
X0103829Y-0227681
X00975Y-023075
X01015Y-02385
X0074901Y-0230335
X006309
X0057184Y-0218524
X0033562
X0027657Y-0230335
X0004035
X000994Y-0218524
X0015846Y-0206713
X0004035
X000994Y-0194902
X0004035Y-0183091
X000994Y-017128
X0021751
X0004035Y-0159469
X000994Y-0147658
X0004035Y-0135847
X00325Y-0152
X0026022Y-0198829
X00265Y-0103
X0013374Y-0095698
X0008874
X0007874Y-0092198
X00115Y-0093
X0014874Y-0092198
X0023441Y-0073931
X0055279Y-0089
X0062
X00685
X00755
Y-0095
X0074Y-01015
X0066Y-01025
X0055567Y-0102433
X0058Y-0119
X0061329Y-0118681
Y-0125681
Y-0129681
X006309Y-0135847
X0068829Y-0133181
X0074901Y-0135847
X0075329Y-0129181
Y-0124681
X0080807Y-0124036
X0086712Y-0135847
X0098523
X01015Y-01365
X0102Y-0144
X0100756Y-0124819
X0104Y-01165
X0103Y-01095
X0099
X0098467Y-0105467
X0101Y-0103
X0103468Y-0104967
X0108Y-00975
X0114Y-0099
X0119Y-01015
X0123
X0129291Y-0101106
X0131Y-01025
X0129092Y-0104201
X0136Y-01025
X0137894Y-0101106
X0137908Y-0104201
X0144258Y-0103539
X0146603Y-0097218
X01485Y-00945
X0144887Y-0093661
X0143063Y-0090981
X0139329Y-0090181
X014Y-00845
X0143161Y-00855
X0147615Y-0083742
X01505Y-00815
X0157Y-0073
X0157829Y-0067181
X0162Y-0075
X0172Y-00685
X0169389Y-0064981
X017091Y-0059177
X019Y-00585
Y-0078
X0174Y-00805
X017Y-0088
X01655Y-0096
X01695Y-0101
X0153829Y-0100181
X01535Y-01045
X01645Y-0114
Y-0126
X0167Y-01335
Y-01385
X0173
X01675Y-01495
X0164329Y-0152181
X0159755Y-0155897
X0157578Y-0159469
X0169389
X01755Y-01645
Y-0167469
X0175295Y-017128
X0187106
X01645Y-0178
X0149Y-018
X0148Y-01885
X01405Y-01975
X0134329Y-0200681
X0131829Y-0191181
X0130829Y-0186181
X0131Y-0181
X0130848Y-0178014
X0139862Y-017128
X01455Y-017
X014836Y-0165838
X01545Y-01695
X015921Y-0145468
X0156Y-01365
X0158829Y-0132681
X0153329Y-0132181
X0144829
X0144732Y-0139278
X01485Y-0142
X01305Y-0139
X0124Y-01385
X01225Y-0134
X01205Y-01295
X0114508Y-0129072
X0111973Y-01215
X0129412Y-0122507
Y-0119507
Y-0116507
X0133329Y-0113681
X0137589Y-0116507
Y-0119507
Y-0122507
X0132774Y-0097467
X0135Y-0085
X0130829Y-0083181
X0131926Y-0074
X0129Y-00735
X01375Y-0074822
X0138827Y-0066564
X0141829Y-0061681
X0145767Y-0064981
X0118Y-007
X0113329Y-0063181
X0109999Y-0063847
X011Y-0074
X0108Y-00845
X0106Y-0091
X00765Y-0078
X00775Y-00735
X0057184Y-0124036
X0052078Y-0148187
X00455Y-0144
X0051279Y-0159469
X00555Y-016
X00595Y-01555
X00575Y-01695
X0052829Y-0175181
X0051279Y-0183091
X0052329Y-0192681
X0056Y-01935
X0061329Y-0199181
X00625Y-01885
X006309Y-0183091
X0074901
X0086712
X0098523
X0106897Y-0183256
X0108Y-01805
X0107Y-01755
X0102Y-0165
X01185Y-01675
X01125Y-01555
X0118Y-01485
X0127329Y-0147681
X01355Y-01555
Y-01595
X012481Y-019582
X0122Y-0198
X0120122Y-0191892
X0103329Y-0195681
X0109793Y-0212497
X01495Y-02065
X0154Y-0208
X01455Y-02025
X0164Y-01985
X01755Y-02125
X0175295Y-0124036
X0175852Y-0118661
X0172883
X01835Y-01155
X01885Y-0106
X0037Y-0108
X00465Y-02055
X00595Y-021
X02025
X02145Y-02065
X0219085Y-0195833
X02225Y-01935
X0218Y-0188
X0213585Y-0190833
X0206085Y-0185833
X0206585Y-0173833
X0198917Y-017128
X0193011Y-0159469
X01935Y-01365
X0206587Y-0134238
X0212587
X0217087
X0228444Y-0133065
X0224756Y-0127319
X0218756Y-0123319
X0212256Y-0123819
X0203756
X0204Y-012
X0193Y-0119
X01985Y-01135
X02035Y-0105
X02145
X02185Y-01065
X0216633Y-0112225
X0228444
X02285Y-01085
X02335Y-0112
X0238009Y-0114506
X023435Y-0124036
X0246161
X025Y-01195
X02585Y-01185
X0261Y-0116425
X026065Y-0110684
X0261Y-0101884
X0255Y-01035
X0248Y-0106
X0256Y-009
X026Y-00905
X0259002Y-0085914
X0256Y-00785
Y-00735
X0257002Y-0058914
X02745Y-006
Y-0085
X0277756Y-0093319
X0272Y-0114
X0281594Y-0124036
X02785Y-01275
X0275688Y-0135847
X0276635Y-0145887
Y-0151887
X0271635
X0271756Y-0157819
X0267256
X0262756
X0256256
X02565Y-01535
X0256Y-01495
X0261Y-01465
Y-0138
X0259Y-01315
Y-01245
X0251492Y-0137049
X0246161Y-0147658
X023435
X0229Y-0153
X0216633Y-0159469
X0219332Y-0167582
Y-0172582
X0225332
X02285Y-01785
X02435Y-01725
X0257972Y-017128
X0255884Y-0178
X0269783Y-017128
X0275Y-01705
X0275688Y-0159469
X0287499
X0288Y-01735
X0287499Y-0183091
X0298Y-01745
X02995Y-0165
X03035Y-01555
X0311121Y-0159469
X0317027Y-0147658
X0322933Y-0135847
X0334743
X0340649Y-0124036
X0328838
X03205Y-0116
X0322933Y-0112225
X0318256Y-0109819
X0334743Y-0112225
X0336329Y-0079181
X0331829
X0331063Y-0073374
X0335
Y-00655
X0331063
X0333032Y-0061563
X0336968
X032122
X0317284
X0319252Y-00655
X0315315
X0311121Y-0064981
X029931
X0305216Y-0076792
X0315315Y-0073374
X0319252
X0323189
X0319329Y-0077681
X0319252Y-0081248
X0315315
X0317284Y-0085185
X0318829Y-0069181
X0340649Y-0076792
X02995Y-0112
X03035Y-0116
X0293405Y-0124036
Y-0147658
X0281594
X02785Y-02025
X0275688Y-0206713
X02715Y-0206
X0271329Y-0210181
X02715Y-0196
X02545Y-01975
X02555Y-0206
X02505Y-02135
X0286Y-0213
X02975Y-0201
X0303829Y-0197181
X0317027Y-0194902
X03205Y-01935
X03225Y-02015
X0328829Y-0197181
X0341829Y-0191181
X0334743Y-0183091
X0322933
X0311121
Y-0206713
X03365Y-02135
X0342Y-0213
X0344998Y-0208401
X0334743Y-0159469
X02425Y-0086
X0228444Y-0088603
X0224Y-00935
X0216633Y-0088603
X0204822
X01985Y-00905
X0193011Y-0088603
Y-0064981
X0206829Y-0069181
X0212829
X0219829Y-0061681
X0228444Y-0064981
X023435Y-0076792
X0222539
X035246
X0364271
X0376082
X0387893
X0399704
X0411515
X0423326
X0435137
X0446948
X0458759
X047057
X0482381
X0494192
X0500098Y-0064981
X0488287
X0476476
X0464665
X0452854
X0441043
X0429232
X0417421
X040561
X0393799
X0381988
X0370177
X0358366
X0346554
X0348829Y-0091181
X0366329
X0381329Y-0094181
X0375329Y-0109681
X0370177Y-0112225
X0358366
X0346554
X035246Y-0124036
X0364271
X0376082
X0370177Y-0135847
X0358366
X0346554
Y-0159469
X0358366
X0370177
X0381988
X0393799
X0399329Y-0156681
X0414329Y-0157681
X0417421Y-0159469
X04165Y-0169
X0424329Y-0168681
X0428829
X0435137Y-017128
X0438Y-018
X0426Y-01795
X0417421Y-0183091
X04095Y-01795
X0404537Y-0191
X04045Y-01945
X0399704Y-0194902
X0403Y-02015
X0407Y-0198
X0414281Y-0193994
X0416Y-0214
X0419569Y-0213927
X0425Y-021
X0430829Y-0213681
X0439036Y-0213553
X0437741Y-0209651
X0441Y-02065
X0446709Y-0206748
X0459Y-02065
X0458759Y-0194902
X046Y-0184
X0458Y-0181
X0458329Y-0176681
X0472Y-0184
X0470528Y-0188
X0471Y-021
X0500098Y-0206713
X0494192Y-0194902
X0500098Y-0183091
Y-0159469
X0494192Y-0147658
X0482381
X047057
X0468329Y-0156681
X04635Y-01565
X0458759Y-0147658
X0446948
X0435137
X0427Y-0142
X0429232Y-0159469
X0441043
X0452854
Y-0135847
X0464665
X047057Y-0124036
X0458759
X0446948
X0435137
X0423326
X04275Y-01135
X04155Y-01155
X0399174Y-01135
X0398896Y-0122
X0395829Y-0130181
X0400829Y-0131681
X0388329Y-0133181
X0386829Y-0138681
X03875Y-0148
X0376082Y-0147658
X0383803Y-0171625
X0387829Y-0188681
X03915Y-01915
X0393799Y-0183091
X03835Y-0197
X0379329Y-0205681
X0370177Y-0206713
X0384Y-02135
X0358366Y-0183091
X0346554
X0415Y-01335
X0441043Y-0135847
Y-0112225
X0452854
X0464665
X0476476
X0488287
X0500098
X0494192Y-0100414
X0482381
X047057
X0458759
X0446948
X0435137
X0423326
X04185Y-0088
X0429232Y-0088603
X0441043
X0452854
X0464665
X0476476
X0488287
X0494192Y-0124036
X0500098Y-0135847
X04055Y-01065
X04Y-01035
X04095Y-00965
X0517814Y-0100414
X0511909Y-0112225
X0517814Y-0124036
X0506003
X0511909Y-0135847
X0517814Y-0147658
X0506003
X0511909Y-0159469
X0517814Y-017128
X0506003
X0511909Y-0183091
X0517814Y-0194902
X0506003
X0511909Y-0206713
X0517814Y-0076792
X0506003
X0511909Y-0064981
X0512165Y-0057626
X0516103
X052004
X0522008Y-0053689
X0517814Y-005317
X0514134Y-0053689
X0510197
X050626
X0508228Y-0057626
X0504291
X0500354
X0496417
X049248
X0488543
X0484606
X0480669
X0476732
X0472795
X0468858
X0464921
X0460984
X0457047
X045311
X0449173
X0445236
X0441299
X0437362
X0433425
X0429488
X0425551
X0421614
X0417677
X041374
X0409803
X0405866
X0401929
X0397992
X0394055
X0390118
X0386181
X0382244
X0378307
X037437
X0370433
X0366496
X0362559
X0358622
X0354685
X0350748
X0346811
X034878Y-0053689
X0352717
X0356654
X0360591
X0364528
X0368465
X0372402
X0376339
X0380276
X0384213
X038815
X0392087
X0396024
X0399961
X0403898
X0407835
X0411772
X0415709
X0419646
X0423583
X042752
X0431457
X0435394
X0439331
X0443268
X0447205
X0451142
X0455079
X0459016
X0462953
X046689
X0470827
X0474764
X0478701
X0482638
X0486575
X0490512
X0494449
X0498386
X0502323
X0344843
X0340905
X0336968
X0333032
X0335Y-0057626
X0331063
X0323189
X0319252
X0315315
X0313347Y-0053689
X0317284
X0320329Y-0053681
X03275Y-0051
X0338937Y-0057626
X0342874
X0309409Y-0053689
X0305472
X0301535
X0297598
X0293661
X0289724
X0285787
X028185
X0277913
X0273976
X0270039
X0266102
X0262509Y-0053345
X0264134Y-0049752
X0260197
X0257203Y-0053766
X0256Y-00435
X0260197Y-0041878
X0264134
X0262165Y-0037941
X0260197Y-0034004
X0258228Y-0030067
X0262165
X0264134Y-002613
X0260197
X025626
X0240512
X0236575
X0232638
X0228701
X0224764
X0220827
X021689
X0212953
X0209016
X0205079
X0201142
X0197205
X0193268
X0195236Y-0030067
X0199173
X020311
X0207047
X0210984
X0214921
X0218858
X0222795
X0226732
X0230669
X0234606
X0238543
X024248
X0240512Y-0034004
X0236575
X0232638
X0228701
X0224764
X0220827
X021689
X0212953
X0209016
X0205079
X0201142
X021Y-0037
X0206329Y-0048681
X0213829
X0222539Y-005317
X0220329Y-0055681
X023435Y-005317
X0228444Y-0041359
X02445Y-00395
X02455Y-0034
X0198Y-0048
X0187106Y-005317
X0175295
X0174Y-00485
X0169829Y-0055681
X01665Y-00435
X0165829Y-0040181
X0167349Y-003652
Y-003252
X0163484Y-0029548
X0161772Y-002613
X0165709
X0169646
X0173583
X0177Y-0033
X0189331Y-0034004
X01885Y-0039
X0187106Y-0029548
X0189331Y-002613
X0157834
Y-0034004
X0161772
X0153898
X0151673Y-0029548
X014996Y-0018256
X0153898
X0151929Y-0014319
X0147992
X0145767Y-0017737
X014996Y-0010382
X0153898
X0151929Y-0006445
X0147992
X0133956Y-0017737
X0132829Y-0026181
X01305Y-004
X0145767Y-0041359
X0157578
X0157829Y-0046181
X0153443Y-0045751
X0154Y-00515
X0131Y-00575
X011Y-00495
X0110334Y-0041359
X01025Y-00395
X00975
X0093
X00885
X00835
X00855Y-00345
X009
X00945
X00995
X0109Y-00295
X011624Y-0029548
X0122145Y-0017737
X0086712
X00805Y-00345
X0068995Y-0029548
X0053829Y-0042181
X0051279Y-0041359
X0039468
X0040756Y-0025319
X00765Y-0055
X0027842Y-004798
X002152Y-0047643
X0027657Y-0041359
X0021751Y-0029548
X0032756Y-0025319
X0027657Y-0017737
X0015846
X0004035
T03
X0294988Y-0231524
Y-0227783
Y-0224043
Y-02205
Y-0216956
X03005
Y-02205
Y-0224043
Y-0227783
Y-0231524
X0319988
Y-0227783
Y-0224043
Y-02205
Y-0216956
X03255
Y-02205
Y-0224043
Y-0227783
Y-0231524
Y-0213413
Y-0209673
Y-0205932
X0319988
Y-0209673
Y-0213413
X03005
Y-0209673
Y-0205932
X0294988
Y-0209673
Y-0213413
T05
X02635Y-0081
X02685
Y-0076
Y-0071
X02635
Y-0076
Y-0066
X02685
Y-0061
X02635
T06
X0283Y-00835
Y-00735
Y-00635
X0293
Y-00735
Y-00835
T08
X0083Y-0229343
Y-02195
Y-0209658
Y-0199815
T09
X0137559Y-0035394
Y-0009799
T10
X03555Y-0222
Y-0212158
Y-0204283
Y-0194441
X0080499Y-0023748
X00805Y-0015874
Y-0008
X0060815
Y-0015874
Y-0023748
T11
X0261Y-02265
X0271
T12
X04788Y-01962
Y-01854
Y-01746
Y-01638
X049Y-01584
Y-01692
Y-018
Y-01908
Y-02016
T13
X0227551Y-0224
T14
X00345Y-0014
X0011
T15
X00165Y-02335
Y-02185
T16
X001556Y-0181501
Y-0161501
Y-0141501
Y-0121501
X00345Y-0034
X0011
T17
X0366169Y-0234087
Y-0182354
T18
X04844Y-02292
Y-01308
T19
X0047059Y-0228594
X0504315Y-0093094
X0103059Y-0013595
M30
