G04*
G04 #@! TF.GenerationSoftware,Altium Limited,Altium Designer,21.9.1 (22)*
G04*
G04 Layer_Color=128*
%FSLAX25Y25*%
%MOIN*%
G70*
G04*
G04 #@! TF.SameCoordinates,B80F087D-8A9E-4AC8-8264-EFD115A8CABB*
G04*
G04*
G04 #@! TF.FilePolarity,Positive*
G04*
G01*
G75*
%ADD22R,0.02756X0.02559*%
%ADD32R,0.02441X0.02598*%
%ADD48R,0.05906X0.03543*%
%ADD60R,0.06102X0.07480*%
%ADD72R,0.07480X0.06102*%
%ADD182C,0.02000*%
%ADD184R,0.03150X0.03150*%
%ADD185R,0.08465X0.08661*%
%ADD186R,0.18307X0.16339*%
%ADD187R,0.04528X0.05709*%
%ADD188R,0.05709X0.04528*%
%ADD189R,0.16339X0.18307*%
D22*
X81740Y-62000D02*
D03*
X78000D02*
D03*
D32*
X126000Y-102232D02*
D03*
Y-98768D02*
D03*
X141000Y-106232D02*
D03*
Y-102768D02*
D03*
D48*
X60354Y-82496D02*
D03*
Y-69504D02*
D03*
X79646D02*
D03*
Y-82496D02*
D03*
D60*
X20307Y-56000D02*
D03*
X8693D02*
D03*
D72*
X49500Y-16807D02*
D03*
Y-5193D02*
D03*
D182*
X299059Y-46595D02*
D03*
X327059D02*
D03*
D184*
X67047Y-62000D02*
D03*
X72953D02*
D03*
D185*
X64000Y-53161D02*
D03*
Y-35839D02*
D03*
D186*
X37063Y-60000D02*
D03*
D187*
X51827Y-56122D02*
D03*
Y-63878D02*
D03*
D188*
X38756Y-74500D02*
D03*
X31000D02*
D03*
X17378Y-66173D02*
D03*
X9622D02*
D03*
D189*
X34878Y-89264D02*
D03*
X13500Y-80937D02*
D03*
M02*
