G04*
G04 #@! TF.GenerationSoftware,Altium Limited,Altium Designer,21.9.1 (22)*
G04*
G04 Layer_Color=8388736*
%FSLAX25Y25*%
%MOIN*%
G70*
G04*
G04 #@! TF.SameCoordinates,B80F087D-8A9E-4AC8-8264-EFD115A8CABB*
G04*
G04*
G04 #@! TF.FilePolarity,Positive*
G04*
G01*
G75*
%ADD14C,0.00787*%
D14*
X58256Y-188043D02*
Y-180957D01*
X52744Y-188043D02*
X58256D01*
X52744D02*
Y-180957D01*
X58256D01*
X423264Y-237693D02*
X443736D01*
X423264D02*
Y-224307D01*
X443736D01*
Y-237693D02*
Y-224307D01*
X150425Y-126391D02*
Y-120092D01*
X153575D01*
Y-126391D02*
Y-120092D01*
X150425Y-126391D02*
X153575D01*
X129563Y-130650D02*
Y-124350D01*
Y-130650D02*
X137437D01*
Y-124350D01*
X129563D02*
X137437D01*
X211311Y-232937D02*
X216232D01*
X211311D02*
Y-225063D01*
X216232D01*
Y-232937D02*
Y-225063D01*
X181243Y-133568D02*
Y-127268D01*
X178093Y-133568D02*
X181243D01*
X178093D02*
Y-127268D01*
X181243D01*
X173961Y-133757D02*
Y-127458D01*
X170812Y-133757D02*
X173961D01*
X170812D02*
Y-127458D01*
X173961D01*
X179829Y-167257D02*
Y-134579D01*
Y-167257D02*
X212507D01*
Y-134579D01*
X179829D02*
X212507D01*
X191290Y-130390D02*
X197983D01*
Y-125272D01*
X191290D02*
X197983D01*
X191290Y-130390D02*
Y-125272D01*
X69614Y-238988D02*
X92252D01*
Y-190169D01*
X69614D02*
X92252D01*
X69614Y-238988D02*
Y-190169D01*
X156665Y-238843D02*
Y-219158D01*
Y-238843D02*
X172335D01*
Y-219158D01*
X156665D02*
X172335D01*
X143925Y-126391D02*
X147075D01*
Y-120092D01*
X143925D02*
X147075D01*
X143925Y-126391D02*
Y-120092D01*
X156925Y-126391D02*
X160075D01*
Y-120092D01*
X156925D02*
X160075D01*
X156925Y-126391D02*
Y-120092D01*
X112657Y-115739D02*
Y-109440D01*
X115807D01*
Y-115739D02*
Y-109440D01*
X112657Y-115739D02*
X115807D01*
X155425Y-113650D02*
Y-107350D01*
X158575D01*
Y-113650D02*
Y-107350D01*
X155425Y-113650D02*
X158575D01*
X148925D02*
Y-107350D01*
X152075D01*
Y-113650D02*
Y-107350D01*
X148925Y-113650D02*
X152075D01*
X119216Y-115833D02*
Y-109534D01*
X122366D01*
Y-115833D02*
Y-109534D01*
X119216Y-115833D02*
X122366D01*
X128642Y-80696D02*
Y-73610D01*
X123130Y-80696D02*
X128642D01*
X123130D02*
Y-73610D01*
X128642D01*
X64752Y-157839D02*
X91248D01*
X64752D02*
Y-133350D01*
X91248D01*
Y-157839D02*
Y-133350D01*
X127642Y-64039D02*
Y-43961D01*
Y-64039D02*
X145358D01*
Y-43961D01*
X127642D02*
X145358D01*
X141571Y-110571D02*
Y-94429D01*
X125429D02*
X141571D01*
X125429Y-110571D02*
Y-94429D01*
Y-110571D02*
X141571D01*
X264850Y-148075D02*
Y-144925D01*
Y-148075D02*
X271150D01*
Y-144925D01*
X264850D02*
X271150D01*
X264850Y-139575D02*
Y-136425D01*
Y-139575D02*
X271150D01*
Y-136425D01*
X264850D02*
X271150D01*
X230425Y-161350D02*
X233575D01*
X230425Y-167650D02*
Y-161350D01*
Y-167650D02*
X233575D01*
Y-161350D01*
X223144Y-161540D02*
X226293D01*
X223144Y-167839D02*
Y-161540D01*
Y-167839D02*
X226293D01*
Y-161540D01*
X232161Y-168661D02*
X264839D01*
Y-201339D02*
Y-168661D01*
X232161Y-201339D02*
X264839D01*
X232161D02*
Y-168661D01*
X271661Y-134339D02*
Y-101661D01*
X304339D01*
Y-134339D02*
Y-101661D01*
X271661Y-134339D02*
X304339D01*
X243622Y-164472D02*
Y-159354D01*
X250315D01*
Y-164472D02*
Y-159354D01*
X243622Y-164472D02*
X250315D01*
X263173Y-127621D02*
X268291D01*
X263173D02*
Y-120928D01*
X268291D01*
Y-127621D02*
Y-120928D01*
M02*
