M48
;Layer_Color=9474304
;FILE_FORMAT=2:5
INCH,LZ
;TYPE=PLATED
T1F00S00C0.00787
T2F00S00C0.01181
T3F00S00C0.01969
T4F00S00C0.03504
T5F00S00C0.03600
T6F00S00C0.03937
T7F00S00C0.04016
T8F00S00C0.05512
T9F00S00C0.06417
T10F00S00C0.12598
;TYPE=NON_PLATED
T11F00S00C0.12795
%
T01
X1096406Y0571063
Y0575
Y0578937
X1092468
Y0575
Y0571063
X1088531
X1084595
Y0575
Y0578937
X1088531
Y0575
X0820498Y0758802
X0816168
Y0763133
X0820498
Y0767464
X0816168
X0811837
Y0763133
Y0758802
X0807506
Y0763133
Y0767464
Y0771794
X0811837
X0816168
X0820498
T02
X1102362Y0472441
X1122047
X1141732
X1161417
X1181102
X1200787
X121063Y0492126
X1190945
X117126
X1151575
X113189
X1112205
X10975Y0501
X1097416Y0506029
X1102362Y0511811
X1095416Y0515029
X1122047Y0511811
X1161417
X1181102
X1200787
X121063Y0531496
X1190945
X117126
X1181102Y0551181
X1161417
X1141732
X1122047
X1112416Y0551529
X1107916Y0547529
X1108Y0568
X1112416Y0568529
X113189Y0570866
X1141732Y0590551
X1181102
X1200787
X121063Y0610236
X1190945
X117126
Y0570866
X1190945
X121063
X1096854Y0557776
X10805Y0557
X10755Y05575
X1072835Y0570866
X1084069Y0567323
X1082916Y0600029
X1078416
X1073916Y0604529
Y0608029
X10635Y0595
X1050425Y0585
X1043307Y0590551
X10395Y05905
X10325Y0594
X10305Y061
X1029Y062
X1013669Y0608563
X0995518Y0618636
X0987018Y0605136
X0977518
X0975235Y0591043
X0975018Y0584136
X09835Y0585
X09865Y05885
X0991Y0592
X0988017Y0578136
X0978891Y0574866
X0977961Y0560113
X09795Y0557
X09745Y0556
X097Y0557
X0984608Y0555191
X09885Y05555
X09915Y0558
X0995Y0559
X0986075Y0559422
X0999167Y0545
X1004Y0542
X101378Y0531496
X1033465
X105315
X1072835
X1071416Y0541029
X1080677Y0536383
X109252Y0531496
X1082677Y0511811
X1083Y04965
X109252Y0492126
X1072835
X107Y0499
X10495Y0501
X105315Y0492126
X10535Y05105
X10495Y05145
X1043307Y0511811
X1039916Y0505529
X1033465Y0492126
X1027Y04875
X1023622Y0472441
X1043307
X1062992
X1082677
X1062992Y0551181
X1043307
X1025Y0559
X102525Y0568974
X1023622Y0511811
X1003937
X0984252
X0994094Y0531496
Y0492126
X0974409
X0984252Y0472441
X0944882
X094Y04875
X0944882Y0511811
Y0551181
X0941Y0574
X0954Y05715
X096Y0579
Y0586
Y05945
X09625Y06005
X09665Y0610953
X0973518Y0620136
X0952Y062
X0944882Y0590551
X0925197
X0935039Y0610236
X0915354
Y0570866
X0935039
X0925197Y0551181
X0935039Y0531496
X0915354
X0925197Y0511811
X0935039Y0492126
X0915354
X0925197Y0472441
X0777559Y0728346
X0757874
X0738189
X0748032Y0748032
X0767717
X0773416Y0755529
X0757874Y0767717
X0728346Y0748032
X0787402
X0798Y075
X0797Y0738
X0793916Y0741029
X07885Y0733
X0812Y0732
Y07275
Y07235
Y07195
Y0713
X0795988Y0707
X0830016Y07075
X0836614Y0728346
X0842Y0728
X08435Y07225
X0833916Y0733029
X083Y0737
X08335Y07495
X0828Y0752
X08295Y07575
X0829664Y0760327
X0840916Y0760529
X0838916Y0766029
X0836614Y0767717
X0856299
X0858609Y075124
X0867894Y0749177
X0870018Y0741636
X08765Y07385
X08985Y0745
X0905512Y0748032
X0925197
X0915354Y0767717
X0919Y0781
X08985Y07705
X0895669Y0767717
X0875984
X0844737Y0747146
X08195Y0746
X08145Y07465
X0812Y0744
Y07395
X0816623Y0780575
X0796Y07775
X0794597Y077334
X0782416Y0772529
X0783Y0777
X0905512Y0708661
X0925197
X0933916Y0707029
X0935039Y0688976
X0915354
X0925197Y0669291
X0935039Y0649606
X0915354
X0925197Y0629921
X0944882
X0954724Y0649606
X0974409
X0994094
X101378
X1033465
X1024878Y0630445
X1003937Y0629921
X0984252
Y0669291
X1003937
X101378Y0688976
X0994094
X09975Y07045
X1003Y0711
X0994484Y0729984
X09865Y07225
X0974409Y0728346
X0954724
X0948Y0711
X0939262Y070448
X0954724Y0688976
X0974409
X0944882Y0669291
Y0748032
X0948416Y0759529
X09425Y0769
X0962416Y0781029
X0968916Y0780029
X0975916Y0779529
X09865Y0767
X0979516Y0748032
X0965416Y0749029
X09665Y0745
X10165
X1014126Y0729792
X10225Y07715
X1034
X1038Y0776
X1029Y07655
X10665
X1072835Y0767717
X10675Y0779
X1062992Y0748032
X10865Y0737
X1088Y0728
X1084Y0703
X1072835Y0688976
X10565Y0691
X1051Y0684
X10345Y0691
X1062992Y0669291
X1071Y0671
X1072Y06665
X1072835Y0649606
X109252
X1082677Y0629921
X1091Y0767
X1003Y07795
X1099916Y0754529
Y0750529
Y0746029
X1102362Y0748032
X1099916Y0741529
X11035Y0739
X1104Y07295
X1099916Y0723029
X1105Y07175
X1105416Y0713529
X1104416Y0708029
X1122047Y0708661
X1141732
X1161417
X117126Y0728346
X1190945
X121063
X1200787Y0748032
X121063Y0767717
X1200787Y0708661
X121063Y0688976
X1190945
X117126
X11465Y06845
X113189Y0688976
X1112205
X1104416Y0687029
X1122673Y0669917
X1141732Y0669291
X1161417
X1200787
X121063Y0649606
X1190945
X1200787Y0629921
X1161417
X1141732
X1131847Y0649563
X113189Y0728346
X1121663Y0747647
X11335Y0768
X1161417Y0748032
Y0787402
X1158Y0796
X11565Y08085
X11465Y0804
X1141732Y0787402
X1122047
X1102362
X10985Y07995
X1095121Y0813675
X10965Y0818
X1100517Y0818136
X1105Y08185
X113189Y0846457
X1151575
X117126
X1190945
X121063
X1200787Y0826772
X1181102
X11715Y08265
X11645Y0816
X1190945Y0807087
X121063
X1200787Y0787402
X1086Y08005
X10865Y08135
X1091Y081
X1076517Y0813136
X1074518Y0819136
X1082308Y0823523
X10845Y0831
X1082855Y0837341
X10865Y08465
X1091Y0851
X1086416Y0855529
X1073916
X105315Y0846457
X1033465
X1035388Y0833224
X1031776Y0829612
Y0822388
X1039
X1042612Y0825961
X1046224Y0822388
Y0829573
X1039Y0829612
X1035388Y0826
X1035388Y0818776
X1042612
X1042612Y0833224
X1023622Y0826772
X10205Y0837
X10135Y08405
X101378Y0846457
X1009916Y0855529
X0994095Y0854331
X0990158
X0986221
X0985Y08455
X0985017Y0840136
X0978347Y0838583
X0976379Y0834646
X0978347Y0830709
X0984696Y0825987
X0986221Y0822835
X0980315Y0818898
X0977Y08165
X09815Y0813
X0974409Y0807087
X09685Y0817
X0964567Y0818898
X096063
X0956693
X0952756
X0948819
X0944882
X0940945
X0942914Y0822835
X0946851
X0950788
X0954725
X0958662
X0962599
X0966536
X0970473
X09885Y08345
X0994018Y0837636
X09935Y07995
X09885Y0787
X099Y0784
X0997Y0783
X0984252Y0787402
X09655Y0796
X09585Y08005
X0954724Y0807087
X0938416Y0807634
X0939Y0802622
X0941916Y0798029
X0946916Y0793029
X0938977Y0822835
X101378Y0807087
X10105Y08005
X10225Y0805
X1055Y08095
X106Y0814
X1057Y08005
X10595Y07955
X10515Y0794
X1062992Y0787402
X1075018Y0797636
X0927321Y0798122
X0933416Y0808029
X0927916Y0813529
X0929134Y0818898
X0933071
X0937008
X093504Y0822835
X0931103
X0927166
X0923229
X0923416Y0819029
X0919416Y0822529
X09125Y08255
X0907481Y0822835
X0907416Y0820029
X09065Y0816
X0901575Y0818898
X0897638
X0893701
X0889764
X0885827
X088189
X0877953
X0874016
X0870079
X0866142
X0862205
X0858268
X0854331
X0850394
X0846457
X084252
X0838583
X0834646
X0830709
X0826772
X0822835
X0818898
X0814961
X0811024
X0807087
X080315
X0799213
X0795276
X0791339
X0787402
X0783465
X0785433Y0822835
X078937
X0793307
X0797245
X0801182
X0805118
X0809056
X0812993
X081693
X0820867
X0824804
X0828741
X0832678
X0836615
X0840552
X0844489
X0848426
X0852363
X08563
X0860237
X0864174
X0868111
X0872048
X0875985
X0879922
X0883859
X0887796
X0891733
X089567
X0899607
X0903544
X0901Y0811
X0895669Y0807087
X09025Y08
X09075Y0796
X0916416Y0807529
X0915916Y0813529
X0875984Y0807087
X0856299
X0836614
X083Y0796
X0817Y0811
X0797244Y0807087
X0804416Y0788029
X0787402Y0787402
X0782416Y0782529
X0781496Y0822835
X08875Y0782
X0767717Y0787402
X0748032
X0728346
X0738189Y0807087
X0736221Y0818898
X0740158
X0744095
X0748032
X0751969
X0755906
X0759843
X076378
X0767717
X0771654
X0775591
X0779528
X077756Y0822835
X0773623
X0769686
X0765748
X0761811
X0757874
X0753937
X075
X0746063
X0742126
X0738189
X0734252
X0757874Y0807087
X0777559
T03
X0808244Y0475969
Y0483969
X0816244Y0487969
Y0479969
X0808Y0692
X0810744Y0695969
X0817744Y0699969
T04
X0971953Y0517705
X0981953
X0991953
X1001953
X0996953Y0527705
X0986953
X0976953
X0966953
T05
X11664Y07485
X1191995
T06
X1176201Y0550117
Y0560117
Y0581613
Y0591613
Y061311
Y062311
Y0644606
Y0654606
X11145Y08335
Y08435
Y08535
X11045
Y08435
Y08335
T07
X095837Y0473413
X096837
X1000535
X1010535
T08
X11235Y0488189
X11435
X1076Y0480724
X1061
T09
X0953961Y0504713
X1014945
T10
X12105Y0548359
X1210487Y082
X0722298
T11
X0961953Y0492705
X1006953
M30
