G04*
G04 #@! TF.GenerationSoftware,Altium Limited,Altium Designer,21.9.1 (22)*
G04*
G04 Layer_Color=16711935*
%FSLAX25Y25*%
%MOIN*%
G70*
G04*
G04 #@! TF.SameCoordinates,3683F5DD-B2EF-4FE9-AD71-088996B23F6A*
G04*
G04*
G04 #@! TF.FilePolarity,Positive*
G04*
G01*
G75*
%ADD36C,0.00787*%
%ADD140C,0.00197*%
D36*
X949850Y599717D02*
Y614284D01*
Y599717D02*
X956150D01*
Y614284D01*
X949850D02*
X956150D01*
X1094492Y549654D02*
X1104957D01*
Y555954D01*
X1094492D02*
X1104957D01*
X1094492Y549654D02*
Y555954D01*
Y540154D02*
X1104957D01*
Y546454D01*
X1094492D02*
X1104957D01*
X1094492Y540154D02*
Y546454D01*
X1108874Y496752D02*
X1158126D01*
X1108874Y448130D02*
Y496752D01*
Y448130D02*
X1158126D01*
Y496752D01*
X1114150Y581267D02*
Y591733D01*
X1107850D02*
X1114150D01*
X1107850Y581267D02*
Y591733D01*
Y581267D02*
X1114150D01*
X1090961Y724701D02*
X1100213D01*
Y733362D01*
X1090961D02*
X1100213D01*
X1090961Y724701D02*
Y733362D01*
X1090908Y682850D02*
X1101373D01*
Y689150D01*
X1090908D02*
X1101373D01*
X1090908Y682850D02*
Y689150D01*
Y692350D02*
X1101373D01*
Y698650D01*
X1090908D02*
X1101373D01*
X1090908Y692350D02*
Y698650D01*
X1090324Y707965D02*
X1102160D01*
X1090324Y702035D02*
Y707965D01*
Y702035D02*
X1102160D01*
Y707965D01*
X1090082Y716465D02*
X1101918D01*
X1090082Y710535D02*
Y716465D01*
Y710535D02*
X1101918D01*
Y716465D01*
X1055768Y712374D02*
X1089232D01*
X1055768D02*
Y746626D01*
X1089232D01*
Y712374D02*
Y746626D01*
X804256Y736524D02*
Y739476D01*
X798744Y736524D02*
X804256D01*
X798744D02*
Y739476D01*
X804256D01*
X823244Y735524D02*
Y738476D01*
X828756D01*
Y735524D02*
Y738476D01*
X823244Y735524D02*
X828756D01*
X1088165Y593339D02*
X1133835D01*
X1088165D02*
Y620661D01*
X1133835D01*
Y593339D02*
Y620661D01*
D140*
X1050370Y486236D02*
X1086630D01*
X1050370Y448441D02*
Y486236D01*
Y448441D02*
X1086630D01*
Y486236D01*
M02*
