G04*
G04 #@! TF.GenerationSoftware,Altium Limited,Altium Designer,21.9.1 (22)*
G04*
G04 Layer_Color=255*
%FSLAX25Y25*%
%MOIN*%
G70*
G04*
G04 #@! TF.SameCoordinates,3683F5DD-B2EF-4FE9-AD71-088996B23F6A*
G04*
G04*
G04 #@! TF.FilePolarity,Positive*
G04*
G01*
G75*
%ADD13C,0.02000*%
%ADD14R,0.02756X0.02559*%
%ADD25R,0.08465X0.08465*%
%ADD26C,0.08465*%
%ADD47C,0.05400*%
%ADD48C,0.05906*%
%ADD49C,0.13780*%
%ADD50C,0.19685*%
%ADD51C,0.06398*%
%ADD52C,0.09626*%
%ADD53C,0.06024*%
%ADD54C,0.05693*%
%ADD55C,0.08268*%
G04:AMPARAMS|DCode=56|XSize=82.68mil|YSize=82.68mil|CornerRadius=20.67mil|HoleSize=0mil|Usage=FLASHONLY|Rotation=180.000|XOffset=0mil|YOffset=0mil|HoleType=Round|Shape=RoundedRectangle|*
%AMROUNDEDRECTD56*
21,1,0.08268,0.04134,0,0,180.0*
21,1,0.04134,0.08268,0,0,180.0*
1,1,0.04134,-0.02067,0.02067*
1,1,0.04134,0.02067,0.02067*
1,1,0.04134,0.02067,-0.02067*
1,1,0.04134,-0.02067,-0.02067*
%
%ADD56ROUNDEDRECTD56*%
%ADD57C,0.05512*%
%ADD58R,0.05512X0.05512*%
D13*
X940500Y830000D02*
D03*
X912500D02*
D03*
D14*
X802870Y692000D02*
D03*
X799130D02*
D03*
X819370D02*
D03*
X815630D02*
D03*
D25*
X1143500Y488189D02*
D03*
D26*
X1123500D02*
D03*
D47*
X1166400Y748500D02*
D03*
X1191995D02*
D03*
D48*
X1176201Y644606D02*
D03*
Y654606D02*
D03*
Y613110D02*
D03*
Y623110D02*
D03*
Y581613D02*
D03*
Y591613D02*
D03*
Y550117D02*
D03*
Y560117D02*
D03*
D49*
X722298Y820000D02*
D03*
D50*
X1210487D02*
D03*
X1210500Y548359D02*
D03*
D51*
X961953Y492705D02*
D03*
X1006953D02*
D03*
D52*
X953961Y504713D02*
D03*
X1014945D02*
D03*
D53*
X958370Y473413D02*
D03*
X968370D02*
D03*
X1000535D02*
D03*
X1010535D02*
D03*
D54*
X966953Y527705D02*
D03*
X971953Y517705D02*
D03*
X976953Y527705D02*
D03*
X981953Y517705D02*
D03*
X986953Y527705D02*
D03*
X991953Y517705D02*
D03*
X996953Y527705D02*
D03*
X1001953Y517705D02*
D03*
D55*
X1061000Y480724D02*
D03*
D56*
X1076000D02*
D03*
D57*
X1104500Y853500D02*
D03*
X1114500Y843500D02*
D03*
X1104500D02*
D03*
X1114500Y833500D02*
D03*
X1104500D02*
D03*
D58*
X1114500Y853500D02*
D03*
M02*
