G04*
G04 #@! TF.GenerationSoftware,Altium Limited,Altium Designer,21.9.1 (22)*
G04*
G04 Layer_Color=65535*
%FSLAX25Y25*%
%MOIN*%
G70*
G04*
G04 #@! TF.SameCoordinates,3683F5DD-B2EF-4FE9-AD71-088996B23F6A*
G04*
G04*
G04 #@! TF.FilePolarity,Positive*
G04*
G01*
G75*
%ADD10C,0.00591*%
%ADD11C,0.01000*%
%ADD12C,0.00394*%
G36*
X1160620Y651353D02*
X1159612D01*
X1159477Y650672D01*
X1159481Y650676D01*
X1159488Y650679D01*
X1159499Y650687D01*
X1159517Y650698D01*
X1159539Y650708D01*
X1159565Y650723D01*
X1159623Y650752D01*
X1159696Y650781D01*
X1159776Y650807D01*
X1159863Y650825D01*
X1159907Y650832D01*
X1159987D01*
X1160009Y650829D01*
X1160038Y650825D01*
X1160071Y650821D01*
X1160107Y650814D01*
X1160147Y650803D01*
X1160235Y650778D01*
X1160282Y650759D01*
X1160329Y650734D01*
X1160376Y650708D01*
X1160424Y650679D01*
X1160467Y650643D01*
X1160511Y650603D01*
X1160515Y650599D01*
X1160522Y650592D01*
X1160533Y650581D01*
X1160548Y650563D01*
X1160566Y650537D01*
X1160584Y650512D01*
X1160606Y650479D01*
X1160628Y650443D01*
X1160646Y650403D01*
X1160668Y650359D01*
X1160686Y650308D01*
X1160704Y650257D01*
X1160719Y650203D01*
X1160730Y650141D01*
X1160737Y650079D01*
X1160740Y650013D01*
Y650010D01*
Y649999D01*
Y649980D01*
X1160737Y649955D01*
X1160733Y649926D01*
X1160730Y649893D01*
X1160722Y649853D01*
X1160715Y649813D01*
X1160693Y649718D01*
X1160657Y649620D01*
X1160635Y649569D01*
X1160606Y649522D01*
X1160577Y649471D01*
X1160540Y649424D01*
X1160537Y649420D01*
X1160529Y649409D01*
X1160515Y649394D01*
X1160497Y649376D01*
X1160471Y649354D01*
X1160442Y649325D01*
X1160406Y649300D01*
X1160365Y649271D01*
X1160322Y649241D01*
X1160271Y649216D01*
X1160216Y649191D01*
X1160158Y649165D01*
X1160096Y649147D01*
X1160027Y649132D01*
X1159954Y649121D01*
X1159878Y649118D01*
X1159845D01*
X1159820Y649121D01*
X1159790Y649125D01*
X1159758Y649129D01*
X1159718Y649132D01*
X1159678Y649143D01*
X1159587Y649165D01*
X1159496Y649198D01*
X1159448Y649220D01*
X1159401Y649245D01*
X1159357Y649274D01*
X1159313Y649307D01*
X1159310Y649311D01*
X1159303Y649314D01*
X1159295Y649329D01*
X1159281Y649343D01*
X1159263Y649362D01*
X1159244Y649383D01*
X1159223Y649413D01*
X1159204Y649445D01*
X1159182Y649478D01*
X1159161Y649518D01*
X1159121Y649606D01*
X1159088Y649707D01*
X1159077Y649762D01*
X1159070Y649820D01*
X1159394Y649846D01*
Y649842D01*
Y649835D01*
X1159397Y649824D01*
X1159401Y649806D01*
X1159412Y649766D01*
X1159426Y649711D01*
X1159448Y649656D01*
X1159477Y649595D01*
X1159514Y649540D01*
X1159557Y649489D01*
X1159565Y649485D01*
X1159579Y649471D01*
X1159608Y649453D01*
X1159648Y649431D01*
X1159692Y649409D01*
X1159747Y649391D01*
X1159809Y649376D01*
X1159878Y649372D01*
X1159900D01*
X1159914Y649376D01*
X1159958Y649380D01*
X1160009Y649394D01*
X1160071Y649413D01*
X1160133Y649442D01*
X1160198Y649485D01*
X1160227Y649511D01*
X1160256Y649540D01*
X1160260Y649544D01*
X1160264Y649547D01*
X1160271Y649558D01*
X1160282Y649569D01*
X1160307Y649609D01*
X1160336Y649660D01*
X1160362Y649722D01*
X1160387Y649798D01*
X1160406Y649889D01*
X1160413Y649937D01*
Y649988D01*
Y649991D01*
Y649999D01*
Y650013D01*
X1160409Y650031D01*
Y650053D01*
X1160406Y650079D01*
X1160395Y650137D01*
X1160376Y650206D01*
X1160351Y650275D01*
X1160314Y650341D01*
X1160264Y650403D01*
Y650406D01*
X1160256Y650410D01*
X1160238Y650428D01*
X1160205Y650454D01*
X1160162Y650483D01*
X1160103Y650508D01*
X1160038Y650534D01*
X1159962Y650552D01*
X1159918Y650559D01*
X1159849D01*
X1159820Y650556D01*
X1159783Y650552D01*
X1159739Y650541D01*
X1159696Y650530D01*
X1159648Y650512D01*
X1159601Y650490D01*
X1159597Y650486D01*
X1159583Y650479D01*
X1159561Y650461D01*
X1159532Y650443D01*
X1159503Y650417D01*
X1159474Y650385D01*
X1159441Y650352D01*
X1159416Y650312D01*
X1159124Y650352D01*
X1159368Y651648D01*
X1160620D01*
Y651353D01*
D02*
G37*
G36*
X1157690Y651677D02*
X1157763Y651673D01*
X1157836Y651666D01*
X1157909Y651655D01*
X1157970Y651644D01*
X1157974D01*
X1157981Y651640D01*
X1157992D01*
X1158007Y651633D01*
X1158047Y651622D01*
X1158098Y651604D01*
X1158156Y651578D01*
X1158218Y651546D01*
X1158280Y651509D01*
X1158338Y651462D01*
X1158342Y651458D01*
X1158345Y651455D01*
X1158356Y651444D01*
X1158371Y651433D01*
X1158407Y651396D01*
X1158451Y651345D01*
X1158498Y651284D01*
X1158549Y651211D01*
X1158597Y651127D01*
X1158636Y651032D01*
Y651029D01*
X1158640Y651021D01*
X1158647Y651007D01*
X1158651Y650985D01*
X1158662Y650960D01*
X1158669Y650931D01*
X1158677Y650898D01*
X1158687Y650858D01*
X1158698Y650818D01*
X1158706Y650770D01*
X1158724Y650668D01*
X1158735Y650556D01*
X1158738Y650432D01*
Y650428D01*
Y650421D01*
Y650403D01*
Y650385D01*
X1158735Y650359D01*
Y650330D01*
X1158731Y650261D01*
X1158720Y650181D01*
X1158709Y650097D01*
X1158691Y650010D01*
X1158669Y649922D01*
Y649919D01*
X1158666Y649911D01*
X1158662Y649900D01*
X1158658Y649886D01*
X1158644Y649846D01*
X1158622Y649795D01*
X1158600Y649736D01*
X1158571Y649678D01*
X1158535Y649616D01*
X1158498Y649558D01*
X1158494Y649551D01*
X1158480Y649533D01*
X1158458Y649507D01*
X1158429Y649474D01*
X1158396Y649438D01*
X1158356Y649402D01*
X1158316Y649362D01*
X1158269Y649329D01*
X1158262Y649325D01*
X1158247Y649314D01*
X1158222Y649300D01*
X1158185Y649282D01*
X1158142Y649260D01*
X1158090Y649241D01*
X1158032Y649220D01*
X1157967Y649201D01*
X1157959D01*
X1157948Y649198D01*
X1157938Y649194D01*
X1157901Y649191D01*
X1157850Y649183D01*
X1157792Y649176D01*
X1157723Y649169D01*
X1157646Y649165D01*
X1157563Y649161D01*
X1156656D01*
Y651680D01*
X1157625D01*
X1157690Y651677D01*
D02*
G37*
G36*
X1160021Y620182D02*
X1160047D01*
X1160076Y620179D01*
X1160145Y620164D01*
X1160222Y620146D01*
X1160302Y620117D01*
X1160382Y620073D01*
X1160422Y620048D01*
X1160458Y620018D01*
X1160462Y620015D01*
X1160466Y620011D01*
X1160476Y620000D01*
X1160487Y619989D01*
X1160506Y619971D01*
X1160520Y619949D01*
X1160560Y619898D01*
X1160600Y619833D01*
X1160637Y619753D01*
X1160669Y619662D01*
X1160691Y619560D01*
X1160382Y619534D01*
Y619538D01*
X1160378Y619542D01*
X1160375Y619563D01*
X1160364Y619596D01*
X1160349Y619636D01*
X1160335Y619680D01*
X1160313Y619724D01*
X1160287Y619764D01*
X1160262Y619796D01*
X1160254Y619804D01*
X1160240Y619818D01*
X1160214Y619840D01*
X1160178Y619865D01*
X1160131Y619887D01*
X1160080Y619909D01*
X1160018Y619924D01*
X1159952Y619931D01*
X1159927D01*
X1159898Y619927D01*
X1159865Y619920D01*
X1159821Y619909D01*
X1159778Y619895D01*
X1159734Y619876D01*
X1159690Y619847D01*
X1159683Y619844D01*
X1159665Y619829D01*
X1159639Y619804D01*
X1159607Y619767D01*
X1159570Y619724D01*
X1159530Y619672D01*
X1159494Y619607D01*
X1159457Y619534D01*
Y619531D01*
X1159454Y619523D01*
X1159450Y619512D01*
X1159443Y619498D01*
X1159439Y619476D01*
X1159432Y619451D01*
X1159425Y619421D01*
X1159417Y619385D01*
X1159406Y619345D01*
X1159399Y619301D01*
X1159392Y619254D01*
X1159388Y619203D01*
X1159381Y619145D01*
X1159377Y619087D01*
X1159374Y619021D01*
Y618956D01*
X1159377Y618959D01*
X1159392Y618981D01*
X1159417Y619010D01*
X1159450Y619046D01*
X1159486Y619090D01*
X1159534Y619130D01*
X1159585Y619170D01*
X1159643Y619207D01*
X1159647D01*
X1159650Y619210D01*
X1159672Y619221D01*
X1159705Y619232D01*
X1159748Y619250D01*
X1159799Y619265D01*
X1159858Y619276D01*
X1159920Y619287D01*
X1159985Y619290D01*
X1160014D01*
X1160036Y619287D01*
X1160065Y619283D01*
X1160094Y619279D01*
X1160131Y619272D01*
X1160167Y619261D01*
X1160251Y619236D01*
X1160295Y619217D01*
X1160338Y619192D01*
X1160382Y619167D01*
X1160429Y619137D01*
X1160473Y619101D01*
X1160513Y619061D01*
X1160517Y619057D01*
X1160524Y619050D01*
X1160535Y619039D01*
X1160546Y619021D01*
X1160564Y618996D01*
X1160582Y618970D01*
X1160600Y618937D01*
X1160622Y618901D01*
X1160644Y618861D01*
X1160662Y618817D01*
X1160680Y618766D01*
X1160699Y618715D01*
X1160709Y618661D01*
X1160720Y618599D01*
X1160728Y618537D01*
X1160731Y618471D01*
Y618468D01*
Y618460D01*
Y618449D01*
Y618431D01*
X1160728Y618409D01*
Y618388D01*
X1160717Y618329D01*
X1160706Y618260D01*
X1160688Y618187D01*
X1160662Y618107D01*
X1160626Y618031D01*
Y618027D01*
X1160622Y618024D01*
X1160615Y618013D01*
X1160608Y617998D01*
X1160586Y617962D01*
X1160553Y617914D01*
X1160513Y617864D01*
X1160466Y617812D01*
X1160407Y617762D01*
X1160345Y617718D01*
X1160342D01*
X1160338Y617714D01*
X1160327Y617707D01*
X1160313Y617703D01*
X1160276Y617685D01*
X1160229Y617667D01*
X1160167Y617645D01*
X1160098Y617630D01*
X1160021Y617616D01*
X1159938Y617612D01*
X1159920D01*
X1159901Y617616D01*
X1159872D01*
X1159840Y617620D01*
X1159803Y617627D01*
X1159759Y617638D01*
X1159716Y617649D01*
X1159665Y617663D01*
X1159614Y617682D01*
X1159563Y617703D01*
X1159508Y617732D01*
X1159457Y617765D01*
X1159406Y617802D01*
X1159355Y617845D01*
X1159308Y617896D01*
X1159304Y617900D01*
X1159297Y617911D01*
X1159286Y617925D01*
X1159272Y617951D01*
X1159250Y617984D01*
X1159232Y618020D01*
X1159210Y618067D01*
X1159188Y618118D01*
X1159163Y618180D01*
X1159141Y618249D01*
X1159122Y618326D01*
X1159104Y618409D01*
X1159086Y618504D01*
X1159075Y618606D01*
X1159068Y618715D01*
X1159064Y618832D01*
Y618835D01*
Y618839D01*
Y618850D01*
Y618864D01*
X1159068Y618901D01*
Y618952D01*
X1159072Y619010D01*
X1159079Y619079D01*
X1159086Y619156D01*
X1159097Y619239D01*
X1159111Y619323D01*
X1159130Y619414D01*
X1159152Y619501D01*
X1159177Y619589D01*
X1159210Y619672D01*
X1159246Y619753D01*
X1159286Y619829D01*
X1159334Y619895D01*
X1159337Y619898D01*
X1159344Y619906D01*
X1159359Y619920D01*
X1159377Y619942D01*
X1159399Y619964D01*
X1159428Y619986D01*
X1159465Y620015D01*
X1159501Y620040D01*
X1159545Y620066D01*
X1159592Y620095D01*
X1159647Y620117D01*
X1159701Y620142D01*
X1159763Y620160D01*
X1159829Y620175D01*
X1159898Y620182D01*
X1159971Y620186D01*
X1160000D01*
X1160021Y620182D01*
D02*
G37*
G36*
X1157699Y620171D02*
X1157772Y620168D01*
X1157845Y620160D01*
X1157918Y620149D01*
X1157979Y620139D01*
X1157983D01*
X1157990Y620135D01*
X1158001D01*
X1158016Y620127D01*
X1158056Y620117D01*
X1158107Y620098D01*
X1158165Y620073D01*
X1158227Y620040D01*
X1158289Y620004D01*
X1158347Y619956D01*
X1158351Y619953D01*
X1158354Y619949D01*
X1158365Y619938D01*
X1158380Y619927D01*
X1158416Y619891D01*
X1158460Y619840D01*
X1158507Y619778D01*
X1158558Y619705D01*
X1158606Y619622D01*
X1158646Y619527D01*
Y619523D01*
X1158649Y619516D01*
X1158657Y619501D01*
X1158660Y619480D01*
X1158671Y619454D01*
X1158678Y619425D01*
X1158686Y619392D01*
X1158697Y619352D01*
X1158708Y619312D01*
X1158715Y619265D01*
X1158733Y619163D01*
X1158744Y619050D01*
X1158747Y618926D01*
Y618923D01*
Y618915D01*
Y618897D01*
Y618879D01*
X1158744Y618854D01*
Y618824D01*
X1158740Y618755D01*
X1158729Y618675D01*
X1158718Y618591D01*
X1158700Y618504D01*
X1158678Y618417D01*
Y618413D01*
X1158675Y618406D01*
X1158671Y618395D01*
X1158667Y618380D01*
X1158653Y618340D01*
X1158631Y618289D01*
X1158609Y618231D01*
X1158580Y618173D01*
X1158544Y618111D01*
X1158507Y618053D01*
X1158504Y618045D01*
X1158489Y618027D01*
X1158467Y618002D01*
X1158438Y617969D01*
X1158405Y617933D01*
X1158365Y617896D01*
X1158325Y617856D01*
X1158278Y617823D01*
X1158271Y617820D01*
X1158256Y617809D01*
X1158231Y617794D01*
X1158194Y617776D01*
X1158151Y617754D01*
X1158100Y617736D01*
X1158041Y617714D01*
X1157976Y617696D01*
X1157969D01*
X1157958Y617692D01*
X1157947Y617689D01*
X1157910Y617685D01*
X1157859Y617678D01*
X1157801Y617670D01*
X1157732Y617663D01*
X1157656Y617660D01*
X1157572Y617656D01*
X1156665D01*
Y620175D01*
X1157634D01*
X1157699Y620171D01*
D02*
G37*
G36*
X1160731Y588482D02*
X1160728Y588478D01*
X1160720Y588471D01*
X1160706Y588456D01*
X1160691Y588435D01*
X1160669Y588409D01*
X1160640Y588380D01*
X1160611Y588343D01*
X1160578Y588300D01*
X1160546Y588256D01*
X1160506Y588205D01*
X1160466Y588147D01*
X1160426Y588089D01*
X1160382Y588023D01*
X1160338Y587954D01*
X1160295Y587878D01*
X1160251Y587801D01*
X1160247Y587797D01*
X1160240Y587783D01*
X1160229Y587761D01*
X1160211Y587728D01*
X1160193Y587688D01*
X1160171Y587645D01*
X1160145Y587594D01*
X1160120Y587535D01*
X1160091Y587470D01*
X1160058Y587404D01*
X1160029Y587332D01*
X1160000Y587255D01*
X1159941Y587099D01*
X1159887Y586931D01*
Y586928D01*
X1159883Y586917D01*
X1159880Y586898D01*
X1159872Y586877D01*
X1159865Y586847D01*
X1159858Y586811D01*
X1159847Y586771D01*
X1159840Y586727D01*
X1159829Y586676D01*
X1159818Y586622D01*
X1159799Y586505D01*
X1159781Y586378D01*
X1159770Y586240D01*
X1159454D01*
Y586243D01*
Y586254D01*
Y586269D01*
X1159457Y586291D01*
Y586320D01*
X1159461Y586356D01*
X1159465Y586396D01*
X1159468Y586440D01*
X1159476Y586491D01*
X1159483Y586542D01*
X1159494Y586604D01*
X1159505Y586665D01*
X1159516Y586731D01*
X1159530Y586804D01*
X1159566Y586953D01*
Y586957D01*
X1159570Y586971D01*
X1159577Y586993D01*
X1159588Y587026D01*
X1159599Y587062D01*
X1159614Y587106D01*
X1159628Y587157D01*
X1159650Y587212D01*
X1159672Y587273D01*
X1159694Y587335D01*
X1159748Y587473D01*
X1159814Y587619D01*
X1159887Y587765D01*
X1159890Y587768D01*
X1159898Y587783D01*
X1159909Y587801D01*
X1159923Y587830D01*
X1159941Y587863D01*
X1159967Y587903D01*
X1159992Y587947D01*
X1160021Y587994D01*
X1160091Y588100D01*
X1160163Y588209D01*
X1160247Y588322D01*
X1160335Y588427D01*
X1159101D01*
Y588726D01*
X1160731D01*
Y588482D01*
D02*
G37*
G36*
X1157699Y588755D02*
X1157772Y588751D01*
X1157845Y588744D01*
X1157918Y588733D01*
X1157979Y588722D01*
X1157983D01*
X1157990Y588718D01*
X1158001D01*
X1158016Y588711D01*
X1158056Y588700D01*
X1158107Y588682D01*
X1158165Y588657D01*
X1158227Y588624D01*
X1158289Y588587D01*
X1158347Y588540D01*
X1158351Y588536D01*
X1158354Y588533D01*
X1158365Y588522D01*
X1158380Y588511D01*
X1158416Y588475D01*
X1158460Y588424D01*
X1158507Y588362D01*
X1158558Y588289D01*
X1158606Y588205D01*
X1158646Y588110D01*
Y588107D01*
X1158649Y588100D01*
X1158657Y588085D01*
X1158660Y588063D01*
X1158671Y588038D01*
X1158678Y588009D01*
X1158686Y587976D01*
X1158697Y587936D01*
X1158708Y587896D01*
X1158715Y587849D01*
X1158733Y587747D01*
X1158744Y587634D01*
X1158747Y587510D01*
Y587506D01*
Y587499D01*
Y587481D01*
Y587463D01*
X1158744Y587437D01*
Y587408D01*
X1158740Y587339D01*
X1158729Y587259D01*
X1158718Y587175D01*
X1158700Y587088D01*
X1158678Y587000D01*
Y586997D01*
X1158675Y586989D01*
X1158671Y586978D01*
X1158667Y586964D01*
X1158653Y586924D01*
X1158631Y586873D01*
X1158609Y586815D01*
X1158580Y586757D01*
X1158544Y586695D01*
X1158507Y586636D01*
X1158504Y586629D01*
X1158489Y586611D01*
X1158467Y586585D01*
X1158438Y586553D01*
X1158405Y586516D01*
X1158365Y586480D01*
X1158325Y586440D01*
X1158278Y586407D01*
X1158271Y586403D01*
X1158256Y586392D01*
X1158231Y586378D01*
X1158194Y586360D01*
X1158151Y586338D01*
X1158100Y586320D01*
X1158041Y586298D01*
X1157976Y586280D01*
X1157969D01*
X1157958Y586276D01*
X1157947Y586272D01*
X1157910Y586269D01*
X1157859Y586261D01*
X1157801Y586254D01*
X1157732Y586247D01*
X1157656Y586243D01*
X1157572Y586240D01*
X1156665D01*
Y588759D01*
X1157634D01*
X1157699Y588755D01*
D02*
G37*
G36*
X1157697Y557271D02*
X1157770Y557268D01*
X1157843Y557260D01*
X1157916Y557249D01*
X1157978Y557238D01*
X1157981D01*
X1157989Y557235D01*
X1158000D01*
X1158014Y557228D01*
X1158054Y557217D01*
X1158105Y557198D01*
X1158163Y557173D01*
X1158225Y557140D01*
X1158287Y557104D01*
X1158345Y557057D01*
X1158349Y557053D01*
X1158353Y557049D01*
X1158364Y557038D01*
X1158378Y557027D01*
X1158414Y556991D01*
X1158458Y556940D01*
X1158506Y556878D01*
X1158556Y556805D01*
X1158604Y556722D01*
X1158644Y556627D01*
Y556623D01*
X1158647Y556616D01*
X1158655Y556601D01*
X1158658Y556580D01*
X1158669Y556554D01*
X1158677Y556525D01*
X1158684Y556492D01*
X1158695Y556452D01*
X1158706Y556412D01*
X1158713Y556365D01*
X1158731Y556263D01*
X1158742Y556150D01*
X1158746Y556026D01*
Y556023D01*
Y556015D01*
Y555997D01*
Y555979D01*
X1158742Y555954D01*
Y555924D01*
X1158738Y555855D01*
X1158727Y555775D01*
X1158717Y555691D01*
X1158698Y555604D01*
X1158677Y555517D01*
Y555513D01*
X1158673Y555506D01*
X1158669Y555495D01*
X1158666Y555480D01*
X1158651Y555440D01*
X1158629Y555389D01*
X1158607Y555331D01*
X1158578Y555273D01*
X1158542Y555211D01*
X1158506Y555153D01*
X1158502Y555145D01*
X1158487Y555127D01*
X1158465Y555102D01*
X1158436Y555069D01*
X1158403Y555033D01*
X1158364Y554996D01*
X1158323Y554956D01*
X1158276Y554923D01*
X1158269Y554920D01*
X1158254Y554909D01*
X1158229Y554894D01*
X1158192Y554876D01*
X1158149Y554854D01*
X1158098Y554836D01*
X1158039Y554814D01*
X1157974Y554796D01*
X1157967D01*
X1157956Y554792D01*
X1157945Y554789D01*
X1157909Y554785D01*
X1157858Y554778D01*
X1157799Y554771D01*
X1157730Y554763D01*
X1157654Y554760D01*
X1157570Y554756D01*
X1156664D01*
Y557275D01*
X1157632D01*
X1157697Y557271D01*
D02*
G37*
G36*
X1159951Y557282D02*
X1159980Y557278D01*
X1160012Y557275D01*
X1160049Y557271D01*
X1160085Y557260D01*
X1160173Y557238D01*
X1160260Y557206D01*
X1160304Y557184D01*
X1160347Y557158D01*
X1160387Y557126D01*
X1160427Y557093D01*
X1160431Y557089D01*
X1160435Y557086D01*
X1160446Y557075D01*
X1160460Y557060D01*
X1160475Y557038D01*
X1160493Y557016D01*
X1160529Y556962D01*
X1160566Y556893D01*
X1160598Y556813D01*
X1160624Y556722D01*
X1160628Y556674D01*
X1160631Y556623D01*
Y556620D01*
Y556616D01*
Y556594D01*
X1160628Y556561D01*
X1160620Y556521D01*
X1160609Y556470D01*
X1160591Y556419D01*
X1160569Y556368D01*
X1160537Y556318D01*
X1160533Y556310D01*
X1160518Y556296D01*
X1160497Y556274D01*
X1160467Y556245D01*
X1160427Y556212D01*
X1160380Y556179D01*
X1160326Y556146D01*
X1160260Y556117D01*
X1160264D01*
X1160271Y556114D01*
X1160282Y556110D01*
X1160296Y556103D01*
X1160340Y556085D01*
X1160391Y556059D01*
X1160446Y556023D01*
X1160504Y555983D01*
X1160558Y555932D01*
X1160609Y555873D01*
Y555870D01*
X1160613Y555866D01*
X1160628Y555844D01*
X1160649Y555808D01*
X1160671Y555761D01*
X1160693Y555702D01*
X1160715Y555633D01*
X1160730Y555557D01*
X1160733Y555473D01*
Y555469D01*
Y555458D01*
Y555440D01*
X1160730Y555418D01*
X1160726Y555393D01*
X1160722Y555360D01*
X1160715Y555324D01*
X1160704Y555284D01*
X1160678Y555200D01*
X1160660Y555153D01*
X1160635Y555109D01*
X1160609Y555062D01*
X1160580Y555018D01*
X1160544Y554974D01*
X1160504Y554931D01*
X1160500Y554927D01*
X1160493Y554920D01*
X1160482Y554909D01*
X1160464Y554898D01*
X1160438Y554880D01*
X1160413Y554861D01*
X1160380Y554843D01*
X1160344Y554821D01*
X1160304Y554800D01*
X1160256Y554781D01*
X1160205Y554763D01*
X1160154Y554745D01*
X1160096Y554734D01*
X1160034Y554723D01*
X1159972Y554716D01*
X1159903Y554712D01*
X1159867D01*
X1159841Y554716D01*
X1159809Y554720D01*
X1159772Y554723D01*
X1159732Y554731D01*
X1159688Y554741D01*
X1159590Y554767D01*
X1159539Y554785D01*
X1159492Y554803D01*
X1159441Y554829D01*
X1159390Y554858D01*
X1159343Y554891D01*
X1159299Y554931D01*
X1159295Y554934D01*
X1159288Y554942D01*
X1159277Y554952D01*
X1159263Y554971D01*
X1159248Y554993D01*
X1159226Y555018D01*
X1159208Y555047D01*
X1159186Y555084D01*
X1159164Y555120D01*
X1159146Y555164D01*
X1159110Y555255D01*
X1159095Y555309D01*
X1159084Y555364D01*
X1159077Y555422D01*
X1159073Y555480D01*
Y555484D01*
Y555491D01*
Y555506D01*
X1159077Y555520D01*
Y555542D01*
X1159081Y555568D01*
X1159088Y555626D01*
X1159102Y555691D01*
X1159124Y555757D01*
X1159157Y555826D01*
X1159197Y555892D01*
Y555895D01*
X1159204Y555899D01*
X1159219Y555917D01*
X1159248Y555946D01*
X1159288Y555983D01*
X1159339Y556019D01*
X1159401Y556059D01*
X1159470Y556092D01*
X1159554Y556117D01*
X1159550D01*
X1159546Y556121D01*
X1159536Y556125D01*
X1159521Y556132D01*
X1159488Y556146D01*
X1159445Y556168D01*
X1159397Y556197D01*
X1159350Y556234D01*
X1159306Y556274D01*
X1159266Y556318D01*
X1159263Y556325D01*
X1159252Y556339D01*
X1159237Y556368D01*
X1159223Y556405D01*
X1159204Y556452D01*
X1159190Y556507D01*
X1159179Y556569D01*
X1159175Y556634D01*
Y556638D01*
Y556645D01*
Y556660D01*
X1159179Y556681D01*
X1159182Y556703D01*
X1159186Y556733D01*
X1159201Y556794D01*
X1159223Y556867D01*
X1159259Y556944D01*
X1159281Y556984D01*
X1159306Y557024D01*
X1159339Y557060D01*
X1159372Y557096D01*
X1159375Y557100D01*
X1159383Y557104D01*
X1159394Y557115D01*
X1159408Y557126D01*
X1159426Y557140D01*
X1159452Y557155D01*
X1159481Y557173D01*
X1159510Y557191D01*
X1159546Y557209D01*
X1159587Y557228D01*
X1159630Y557242D01*
X1159678Y557257D01*
X1159779Y557278D01*
X1159838Y557282D01*
X1159896Y557286D01*
X1159929D01*
X1159951Y557282D01*
D02*
G37*
G36*
X826343Y694578D02*
X826340Y694549D01*
Y694516D01*
X826336Y694440D01*
X826325Y694360D01*
X826314Y694273D01*
X826296Y694192D01*
X826285Y694152D01*
X826274Y694120D01*
Y694116D01*
X826270Y694112D01*
X826260Y694091D01*
X826245Y694058D01*
X826219Y694018D01*
X826187Y693974D01*
X826143Y693927D01*
X826092Y693883D01*
X826034Y693839D01*
X826030D01*
X826027Y693836D01*
X826005Y693821D01*
X825968Y693807D01*
X825921Y693785D01*
X825866Y693767D01*
X825801Y693748D01*
X825732Y693737D01*
X825655Y693734D01*
X825652D01*
X825644D01*
X825630D01*
X825612Y693737D01*
X825586D01*
X825561Y693741D01*
X825499Y693756D01*
X825426Y693778D01*
X825350Y693807D01*
X825273Y693850D01*
X825237Y693879D01*
X825200Y693909D01*
X825197Y693912D01*
X825193Y693916D01*
X825182Y693927D01*
X825171Y693941D01*
X825157Y693960D01*
X825142Y693981D01*
X825124Y694010D01*
X825102Y694040D01*
X825084Y694076D01*
X825066Y694116D01*
X825044Y694160D01*
X825025Y694207D01*
X825011Y694262D01*
X824993Y694316D01*
X824982Y694378D01*
X824971Y694444D01*
X824967Y694436D01*
X824960Y694422D01*
X824945Y694400D01*
X824931Y694371D01*
X824891Y694305D01*
X824865Y694273D01*
X824844Y694243D01*
X824836Y694236D01*
X824818Y694218D01*
X824789Y694189D01*
X824753Y694152D01*
X824702Y694112D01*
X824647Y694065D01*
X824581Y694018D01*
X824509Y693967D01*
X823824Y693534D01*
Y693949D01*
X824349Y694280D01*
X824352D01*
X824359Y694287D01*
X824370Y694294D01*
X824385Y694305D01*
X824425Y694331D01*
X824476Y694363D01*
X824531Y694404D01*
X824589Y694444D01*
X824643Y694484D01*
X824694Y694520D01*
X824698Y694524D01*
X824712Y694535D01*
X824734Y694553D01*
X824760Y694578D01*
X824814Y694633D01*
X824840Y694662D01*
X824862Y694691D01*
X824865Y694695D01*
X824869Y694702D01*
X824876Y694717D01*
X824887Y694738D01*
X824898Y694760D01*
X824909Y694786D01*
X824927Y694844D01*
Y694848D01*
X824931Y694855D01*
Y694870D01*
X824934Y694888D01*
X824938Y694913D01*
Y694942D01*
X824942Y694982D01*
Y695412D01*
X823824D01*
Y695747D01*
X826343D01*
Y694578D01*
D02*
G37*
G36*
X825069Y693348D02*
X825120D01*
X825178Y693344D01*
X825248Y693337D01*
X825324Y693330D01*
X825408Y693319D01*
X825491Y693304D01*
X825582Y693286D01*
X825670Y693264D01*
X825757Y693239D01*
X825841Y693206D01*
X825921Y693170D01*
X825997Y693130D01*
X826063Y693082D01*
X826067Y693079D01*
X826074Y693071D01*
X826088Y693057D01*
X826110Y693039D01*
X826132Y693017D01*
X826154Y692988D01*
X826183Y692951D01*
X826208Y692915D01*
X826234Y692871D01*
X826263Y692824D01*
X826285Y692769D01*
X826310Y692715D01*
X826329Y692653D01*
X826343Y692587D01*
X826350Y692518D01*
X826354Y692445D01*
Y692416D01*
X826350Y692394D01*
Y692369D01*
X826347Y692340D01*
X826332Y692271D01*
X826314Y692194D01*
X826285Y692114D01*
X826241Y692034D01*
X826216Y691994D01*
X826187Y691958D01*
X826183Y691954D01*
X826179Y691950D01*
X826169Y691939D01*
X826158Y691928D01*
X826139Y691910D01*
X826118Y691896D01*
X826067Y691856D01*
X826001Y691816D01*
X825921Y691779D01*
X825830Y691746D01*
X825728Y691724D01*
X825703Y692034D01*
X825706D01*
X825710Y692038D01*
X825732Y692041D01*
X825764Y692052D01*
X825805Y692067D01*
X825848Y692081D01*
X825892Y692103D01*
X825932Y692129D01*
X825965Y692154D01*
X825972Y692161D01*
X825986Y692176D01*
X826008Y692201D01*
X826034Y692238D01*
X826056Y692285D01*
X826077Y692336D01*
X826092Y692398D01*
X826099Y692463D01*
Y692489D01*
X826096Y692518D01*
X826088Y692551D01*
X826077Y692594D01*
X826063Y692638D01*
X826045Y692682D01*
X826016Y692726D01*
X826012Y692733D01*
X825997Y692751D01*
X825972Y692776D01*
X825935Y692809D01*
X825892Y692846D01*
X825841Y692886D01*
X825775Y692922D01*
X825703Y692958D01*
X825699D01*
X825692Y692962D01*
X825681Y692966D01*
X825666Y692973D01*
X825644Y692977D01*
X825619Y692984D01*
X825590Y692991D01*
X825553Y692999D01*
X825513Y693009D01*
X825470Y693017D01*
X825422Y693024D01*
X825371Y693028D01*
X825313Y693035D01*
X825255Y693039D01*
X825189Y693042D01*
X825124D01*
X825127Y693039D01*
X825149Y693024D01*
X825178Y692999D01*
X825215Y692966D01*
X825259Y692929D01*
X825299Y692882D01*
X825339Y692831D01*
X825375Y692773D01*
Y692769D01*
X825379Y692766D01*
X825389Y692744D01*
X825400Y692711D01*
X825419Y692667D01*
X825433Y692616D01*
X825444Y692558D01*
X825455Y692496D01*
X825459Y692431D01*
Y692402D01*
X825455Y692380D01*
X825451Y692351D01*
X825448Y692321D01*
X825441Y692285D01*
X825430Y692249D01*
X825404Y692165D01*
X825386Y692121D01*
X825360Y692078D01*
X825335Y692034D01*
X825306Y691987D01*
X825269Y691943D01*
X825229Y691903D01*
X825226Y691899D01*
X825218Y691892D01*
X825208Y691881D01*
X825189Y691870D01*
X825164Y691852D01*
X825138Y691834D01*
X825106Y691816D01*
X825069Y691794D01*
X825029Y691772D01*
X824986Y691754D01*
X824934Y691735D01*
X824884Y691717D01*
X824829Y691706D01*
X824767Y691695D01*
X824705Y691688D01*
X824640Y691684D01*
X824636D01*
X824629D01*
X824618D01*
X824600D01*
X824578Y691688D01*
X824556D01*
X824498Y691699D01*
X824429Y691710D01*
X824356Y691728D01*
X824276Y691754D01*
X824199Y691790D01*
X824196D01*
X824192Y691794D01*
X824181Y691801D01*
X824166Y691808D01*
X824130Y691830D01*
X824083Y691863D01*
X824032Y691903D01*
X823981Y691950D01*
X823930Y692008D01*
X823886Y692070D01*
Y692074D01*
X823883Y692078D01*
X823875Y692089D01*
X823872Y692103D01*
X823853Y692139D01*
X823835Y692187D01*
X823813Y692249D01*
X823799Y692318D01*
X823784Y692394D01*
X823781Y692478D01*
Y692496D01*
X823784Y692514D01*
Y692544D01*
X823788Y692576D01*
X823795Y692613D01*
X823806Y692656D01*
X823817Y692700D01*
X823832Y692751D01*
X823850Y692802D01*
X823872Y692853D01*
X823901Y692907D01*
X823934Y692958D01*
X823970Y693009D01*
X824014Y693060D01*
X824065Y693108D01*
X824068Y693111D01*
X824079Y693119D01*
X824094Y693130D01*
X824119Y693144D01*
X824152Y693166D01*
X824188Y693184D01*
X824236Y693206D01*
X824287Y693228D01*
X824349Y693253D01*
X824418Y693275D01*
X824494Y693293D01*
X824578Y693312D01*
X824672Y693330D01*
X824774Y693341D01*
X824884Y693348D01*
X825000Y693352D01*
X825004D01*
X825007D01*
X825018D01*
X825033D01*
X825069Y693348D01*
D02*
G37*
G36*
X826343Y690330D02*
Y690079D01*
X824712D01*
Y689737D01*
X824429D01*
Y690079D01*
X823824D01*
Y690389D01*
X824429D01*
Y691484D01*
X824712D01*
X826343Y690330D01*
D02*
G37*
G36*
X809819Y694632D02*
X809815Y694602D01*
Y694570D01*
X809812Y694493D01*
X809801Y694413D01*
X809790Y694326D01*
X809772Y694246D01*
X809761Y694206D01*
X809750Y694173D01*
Y694169D01*
X809746Y694166D01*
X809735Y694144D01*
X809721Y694111D01*
X809695Y694071D01*
X809662Y694027D01*
X809619Y693980D01*
X809568Y693936D01*
X809509Y693893D01*
X809506D01*
X809502Y693889D01*
X809480Y693874D01*
X809444Y693860D01*
X809397Y693838D01*
X809342Y693820D01*
X809276Y693802D01*
X809207Y693791D01*
X809131Y693787D01*
X809127D01*
X809120D01*
X809105D01*
X809087Y693791D01*
X809062D01*
X809036Y693794D01*
X808974Y693809D01*
X808902Y693831D01*
X808825Y693860D01*
X808749Y693904D01*
X808712Y693933D01*
X808676Y693962D01*
X808672Y693965D01*
X808669Y693969D01*
X808658Y693980D01*
X808647Y693995D01*
X808632Y694013D01*
X808618Y694035D01*
X808599Y694064D01*
X808578Y694093D01*
X808559Y694129D01*
X808541Y694169D01*
X808519Y694213D01*
X808501Y694260D01*
X808487Y694315D01*
X808468Y694370D01*
X808457Y694431D01*
X808447Y694497D01*
X808443Y694490D01*
X808436Y694475D01*
X808421Y694453D01*
X808407Y694424D01*
X808366Y694359D01*
X808341Y694326D01*
X808319Y694297D01*
X808312Y694289D01*
X808294Y694271D01*
X808265Y694242D01*
X808228Y694206D01*
X808177Y694166D01*
X808123Y694118D01*
X808057Y694071D01*
X807984Y694020D01*
X807300Y693587D01*
Y694002D01*
X807824Y694333D01*
X807828D01*
X807835Y694340D01*
X807846Y694348D01*
X807861Y694359D01*
X807901Y694384D01*
X807952Y694417D01*
X808006Y694457D01*
X808064Y694497D01*
X808119Y694537D01*
X808170Y694573D01*
X808174Y694577D01*
X808188Y694588D01*
X808210Y694606D01*
X808235Y694632D01*
X808290Y694686D01*
X808316Y694715D01*
X808337Y694744D01*
X808341Y694748D01*
X808345Y694755D01*
X808352Y694770D01*
X808363Y694792D01*
X808374Y694814D01*
X808385Y694839D01*
X808403Y694897D01*
Y694901D01*
X808407Y694908D01*
Y694923D01*
X808410Y694941D01*
X808414Y694966D01*
Y694996D01*
X808418Y695036D01*
Y695465D01*
X807300D01*
Y695800D01*
X809819D01*
Y694632D01*
D02*
G37*
G36*
X808545Y693401D02*
X808596D01*
X808654Y693398D01*
X808723Y693390D01*
X808800Y693383D01*
X808883Y693372D01*
X808967Y693358D01*
X809058Y693339D01*
X809146Y693318D01*
X809233Y693292D01*
X809317Y693259D01*
X809397Y693223D01*
X809473Y693183D01*
X809539Y693135D01*
X809542Y693132D01*
X809550Y693125D01*
X809564Y693110D01*
X809586Y693092D01*
X809608Y693070D01*
X809630Y693041D01*
X809659Y693005D01*
X809684Y692968D01*
X809710Y692924D01*
X809739Y692877D01*
X809761Y692823D01*
X809786Y692768D01*
X809804Y692706D01*
X809819Y692640D01*
X809826Y692571D01*
X809830Y692498D01*
Y692469D01*
X809826Y692448D01*
Y692422D01*
X809822Y692393D01*
X809808Y692324D01*
X809790Y692247D01*
X809761Y692167D01*
X809717Y692087D01*
X809692Y692047D01*
X809662Y692011D01*
X809659Y692007D01*
X809655Y692003D01*
X809644Y691993D01*
X809633Y691982D01*
X809615Y691963D01*
X809593Y691949D01*
X809542Y691909D01*
X809477Y691869D01*
X809397Y691832D01*
X809306Y691800D01*
X809204Y691778D01*
X809178Y692087D01*
X809182D01*
X809186Y692091D01*
X809207Y692095D01*
X809240Y692105D01*
X809280Y692120D01*
X809324Y692135D01*
X809367Y692156D01*
X809408Y692182D01*
X809440Y692207D01*
X809448Y692215D01*
X809462Y692229D01*
X809484Y692255D01*
X809509Y692291D01*
X809531Y692338D01*
X809553Y692389D01*
X809568Y692451D01*
X809575Y692517D01*
Y692542D01*
X809571Y692571D01*
X809564Y692604D01*
X809553Y692648D01*
X809539Y692691D01*
X809520Y692735D01*
X809491Y692779D01*
X809488Y692786D01*
X809473Y692804D01*
X809448Y692830D01*
X809411Y692863D01*
X809367Y692899D01*
X809317Y692939D01*
X809251Y692975D01*
X809178Y693012D01*
X809175D01*
X809167Y693015D01*
X809156Y693019D01*
X809142Y693026D01*
X809120Y693030D01*
X809095Y693037D01*
X809065Y693045D01*
X809029Y693052D01*
X808989Y693063D01*
X808945Y693070D01*
X808898Y693077D01*
X808847Y693081D01*
X808789Y693088D01*
X808731Y693092D01*
X808665Y693095D01*
X808599D01*
X808603Y693092D01*
X808625Y693077D01*
X808654Y693052D01*
X808690Y693019D01*
X808734Y692983D01*
X808774Y692935D01*
X808814Y692884D01*
X808851Y692826D01*
Y692823D01*
X808854Y692819D01*
X808865Y692797D01*
X808876Y692764D01*
X808894Y692721D01*
X808909Y692670D01*
X808920Y692611D01*
X808931Y692550D01*
X808934Y692484D01*
Y692455D01*
X808931Y692433D01*
X808927Y692404D01*
X808923Y692375D01*
X808916Y692338D01*
X808905Y692302D01*
X808880Y692218D01*
X808862Y692175D01*
X808836Y692131D01*
X808811Y692087D01*
X808782Y692040D01*
X808745Y691996D01*
X808705Y691956D01*
X808701Y691953D01*
X808694Y691945D01*
X808683Y691934D01*
X808665Y691923D01*
X808640Y691905D01*
X808614Y691887D01*
X808581Y691869D01*
X808545Y691847D01*
X808505Y691825D01*
X808461Y691807D01*
X808410Y691789D01*
X808359Y691771D01*
X808305Y691760D01*
X808243Y691749D01*
X808181Y691741D01*
X808115Y691738D01*
X808112D01*
X808104D01*
X808093D01*
X808075D01*
X808053Y691741D01*
X808032D01*
X807973Y691752D01*
X807904Y691763D01*
X807831Y691781D01*
X807751Y691807D01*
X807675Y691843D01*
X807671D01*
X807668Y691847D01*
X807657Y691854D01*
X807642Y691861D01*
X807606Y691883D01*
X807558Y691916D01*
X807508Y691956D01*
X807456Y692003D01*
X807406Y692062D01*
X807362Y692124D01*
Y692127D01*
X807358Y692131D01*
X807351Y692142D01*
X807347Y692156D01*
X807329Y692193D01*
X807311Y692240D01*
X807289Y692302D01*
X807275Y692371D01*
X807260Y692448D01*
X807256Y692531D01*
Y692550D01*
X807260Y692568D01*
Y692597D01*
X807264Y692630D01*
X807271Y692666D01*
X807282Y692710D01*
X807293Y692753D01*
X807307Y692804D01*
X807325Y692855D01*
X807347Y692906D01*
X807376Y692961D01*
X807409Y693012D01*
X807446Y693063D01*
X807489Y693114D01*
X807540Y693161D01*
X807544Y693165D01*
X807555Y693172D01*
X807569Y693183D01*
X807595Y693197D01*
X807628Y693219D01*
X807664Y693237D01*
X807711Y693259D01*
X807762Y693281D01*
X807824Y693307D01*
X807893Y693328D01*
X807970Y693347D01*
X808053Y693365D01*
X808148Y693383D01*
X808250Y693394D01*
X808359Y693401D01*
X808476Y693405D01*
X808479D01*
X808483D01*
X808494D01*
X808508D01*
X808545Y693401D01*
D02*
G37*
G36*
X808006Y691119D02*
X808002D01*
X807995Y691115D01*
X807981Y691112D01*
X807963Y691108D01*
X807941Y691104D01*
X807915Y691097D01*
X807861Y691079D01*
X807795Y691053D01*
X807733Y691021D01*
X807675Y690984D01*
X807624Y690941D01*
X807620Y690933D01*
X807606Y690919D01*
X807588Y690890D01*
X807569Y690853D01*
X807547Y690810D01*
X807529Y690755D01*
X807515Y690693D01*
X807511Y690628D01*
Y690606D01*
X807515Y690591D01*
X807518Y690551D01*
X807529Y690500D01*
X807547Y690442D01*
X807573Y690380D01*
X807609Y690318D01*
X807660Y690260D01*
X807668Y690253D01*
X807689Y690234D01*
X807722Y690213D01*
X807766Y690183D01*
X807821Y690154D01*
X807882Y690133D01*
X807955Y690114D01*
X808035Y690107D01*
X808039D01*
X808046D01*
X808057D01*
X808072Y690111D01*
X808112Y690114D01*
X808159Y690125D01*
X808217Y690140D01*
X808276Y690165D01*
X808334Y690202D01*
X808388Y690249D01*
X808396Y690256D01*
X808410Y690274D01*
X808432Y690304D01*
X808457Y690344D01*
X808483Y690395D01*
X808505Y690456D01*
X808519Y690526D01*
X808527Y690602D01*
Y690635D01*
X808523Y690660D01*
X808519Y690693D01*
X808512Y690730D01*
X808505Y690773D01*
X808494Y690821D01*
X808767Y690784D01*
Y690766D01*
X808763Y690751D01*
Y690704D01*
X808771Y690664D01*
X808778Y690617D01*
X808789Y690562D01*
X808807Y690500D01*
X808832Y690442D01*
X808865Y690380D01*
Y690376D01*
X808869Y690373D01*
X808883Y690355D01*
X808909Y690329D01*
X808942Y690300D01*
X808989Y690271D01*
X809044Y690245D01*
X809105Y690227D01*
X809142Y690220D01*
X809182D01*
X809186D01*
X809189D01*
X809211D01*
X809240Y690227D01*
X809280Y690234D01*
X809324Y690249D01*
X809371Y690267D01*
X809418Y690296D01*
X809462Y690336D01*
X809466Y690340D01*
X809480Y690358D01*
X809499Y690384D01*
X809520Y690416D01*
X809539Y690460D01*
X809557Y690511D01*
X809571Y690569D01*
X809575Y690635D01*
Y690664D01*
X809568Y690697D01*
X809560Y690740D01*
X809546Y690788D01*
X809528Y690835D01*
X809499Y690886D01*
X809462Y690933D01*
X809459Y690937D01*
X809440Y690951D01*
X809415Y690973D01*
X809378Y690999D01*
X809331Y691024D01*
X809273Y691050D01*
X809204Y691072D01*
X809124Y691086D01*
X809178Y691396D01*
X809182D01*
X809193Y691392D01*
X809207Y691388D01*
X809229Y691385D01*
X809255Y691377D01*
X809284Y691366D01*
X809353Y691345D01*
X809433Y691308D01*
X809513Y691265D01*
X809590Y691210D01*
X809659Y691141D01*
X809662Y691137D01*
X809666Y691130D01*
X809673Y691119D01*
X809684Y691104D01*
X809699Y691086D01*
X809713Y691061D01*
X809728Y691035D01*
X809746Y691003D01*
X809775Y690930D01*
X809804Y690846D01*
X809822Y690748D01*
X809830Y690697D01*
Y690606D01*
X809826Y690566D01*
X809819Y690518D01*
X809808Y690460D01*
X809790Y690395D01*
X809768Y690329D01*
X809739Y690264D01*
Y690260D01*
X809735Y690256D01*
X809724Y690234D01*
X809702Y690202D01*
X809677Y690165D01*
X809641Y690122D01*
X809601Y690078D01*
X809553Y690034D01*
X809499Y689998D01*
X809491Y689994D01*
X809473Y689983D01*
X809440Y689969D01*
X809400Y689951D01*
X809353Y689932D01*
X809298Y689918D01*
X809237Y689907D01*
X809175Y689903D01*
X809167D01*
X809146D01*
X809116Y689907D01*
X809076Y689914D01*
X809029Y689925D01*
X808978Y689943D01*
X808927Y689965D01*
X808876Y689994D01*
X808869Y689998D01*
X808854Y690009D01*
X808829Y690031D01*
X808800Y690060D01*
X808767Y690096D01*
X808731Y690140D01*
X808698Y690191D01*
X808665Y690253D01*
Y690249D01*
X808661Y690242D01*
X808658Y690231D01*
X808654Y690216D01*
X808640Y690176D01*
X808618Y690125D01*
X808589Y690067D01*
X808552Y690009D01*
X808505Y689954D01*
X808450Y689903D01*
X808443Y689900D01*
X808421Y689885D01*
X808385Y689863D01*
X808337Y689841D01*
X808279Y689819D01*
X808210Y689798D01*
X808130Y689783D01*
X808043Y689779D01*
X808039D01*
X808028D01*
X808010D01*
X807988Y689783D01*
X807959Y689787D01*
X807926Y689794D01*
X807890Y689801D01*
X807850Y689809D01*
X807762Y689838D01*
X807715Y689859D01*
X807671Y689881D01*
X807624Y689911D01*
X807577Y689943D01*
X807529Y689980D01*
X807486Y690023D01*
X807482Y690027D01*
X807475Y690034D01*
X807464Y690049D01*
X807449Y690067D01*
X807431Y690089D01*
X807413Y690118D01*
X807391Y690151D01*
X807373Y690191D01*
X807351Y690231D01*
X807329Y690278D01*
X807311Y690325D01*
X807293Y690380D01*
X807278Y690438D01*
X807267Y690500D01*
X807260Y690562D01*
X807256Y690631D01*
Y690664D01*
X807260Y690686D01*
X807264Y690715D01*
X807267Y690748D01*
X807275Y690784D01*
X807282Y690824D01*
X807304Y690911D01*
X807340Y691003D01*
X807362Y691050D01*
X807387Y691093D01*
X807420Y691137D01*
X807453Y691181D01*
X807456Y691185D01*
X807464Y691192D01*
X807475Y691203D01*
X807489Y691214D01*
X807508Y691232D01*
X807533Y691250D01*
X807558Y691272D01*
X807591Y691294D01*
X807628Y691316D01*
X807664Y691337D01*
X807751Y691377D01*
X807853Y691410D01*
X807908Y691421D01*
X807966Y691428D01*
X808006Y691119D01*
D02*
G37*
G36*
X765184Y852127D02*
X765217Y852123D01*
X765257Y852120D01*
X765297Y852116D01*
X765345Y852105D01*
X765443Y852083D01*
X765552Y852051D01*
X765607Y852029D01*
X765658Y852003D01*
X765709Y851971D01*
X765760Y851938D01*
X765763Y851934D01*
X765770Y851931D01*
X765785Y851920D01*
X765803Y851901D01*
X765822Y851883D01*
X765847Y851858D01*
X765872Y851829D01*
X765902Y851799D01*
X765931Y851763D01*
X765960Y851719D01*
X765993Y851676D01*
X766022Y851628D01*
X766047Y851574D01*
X766076Y851519D01*
X766098Y851461D01*
X766120Y851395D01*
X765792Y851319D01*
Y851323D01*
X765789Y851330D01*
X765781Y851344D01*
X765774Y851363D01*
X765767Y851385D01*
X765756Y851414D01*
X765727Y851472D01*
X765691Y851537D01*
X765647Y851603D01*
X765592Y851665D01*
X765534Y851719D01*
X765527Y851727D01*
X765505Y851741D01*
X765468Y851759D01*
X765421Y851785D01*
X765359Y851807D01*
X765290Y851829D01*
X765206Y851843D01*
X765115Y851847D01*
X765086D01*
X765068Y851843D01*
X765042D01*
X765013Y851840D01*
X764944Y851829D01*
X764868Y851814D01*
X764788Y851789D01*
X764704Y851752D01*
X764628Y851705D01*
X764624D01*
X764620Y851698D01*
X764595Y851679D01*
X764562Y851650D01*
X764522Y851607D01*
X764475Y851552D01*
X764431Y851490D01*
X764391Y851414D01*
X764355Y851330D01*
Y851326D01*
X764351Y851319D01*
X764347Y851308D01*
X764344Y851290D01*
X764336Y851268D01*
X764329Y851243D01*
X764318Y851181D01*
X764304Y851108D01*
X764289Y851028D01*
X764282Y850940D01*
X764278Y850846D01*
Y850842D01*
Y850831D01*
Y850813D01*
Y850791D01*
X764282Y850766D01*
Y850733D01*
X764285Y850697D01*
X764289Y850657D01*
X764300Y850569D01*
X764318Y850474D01*
X764340Y850380D01*
X764369Y850285D01*
Y850282D01*
X764373Y850274D01*
X764380Y850263D01*
X764387Y850245D01*
X764409Y850202D01*
X764442Y850151D01*
X764482Y850092D01*
X764533Y850030D01*
X764591Y849976D01*
X764660Y849925D01*
X764664D01*
X764671Y849921D01*
X764682Y849914D01*
X764697Y849907D01*
X764715Y849899D01*
X764737Y849889D01*
X764788Y849867D01*
X764853Y849845D01*
X764926Y849827D01*
X765006Y849812D01*
X765090Y849808D01*
X765115D01*
X765137Y849812D01*
X765163D01*
X765188Y849816D01*
X765254Y849830D01*
X765330Y849848D01*
X765407Y849878D01*
X765487Y849918D01*
X765527Y849939D01*
X765563Y849969D01*
X765567Y849972D01*
X765570Y849976D01*
X765581Y849987D01*
X765596Y849998D01*
X765610Y850016D01*
X765629Y850038D01*
X765650Y850060D01*
X765669Y850089D01*
X765691Y850121D01*
X765716Y850158D01*
X765738Y850194D01*
X765760Y850238D01*
X765778Y850285D01*
X765796Y850336D01*
X765814Y850391D01*
X765829Y850449D01*
X766164Y850365D01*
Y850362D01*
X766160Y850347D01*
X766153Y850325D01*
X766142Y850296D01*
X766131Y850263D01*
X766116Y850223D01*
X766098Y850180D01*
X766076Y850132D01*
X766025Y850030D01*
X765960Y849928D01*
X765920Y849878D01*
X765880Y849827D01*
X765836Y849783D01*
X765785Y849739D01*
X765781Y849736D01*
X765774Y849728D01*
X765756Y849721D01*
X765738Y849706D01*
X765709Y849688D01*
X765680Y849670D01*
X765639Y849652D01*
X765599Y849634D01*
X765552Y849612D01*
X765501Y849594D01*
X765447Y849575D01*
X765388Y849557D01*
X765326Y849543D01*
X765261Y849535D01*
X765192Y849528D01*
X765119Y849524D01*
X765079D01*
X765050Y849528D01*
X765017D01*
X764977Y849532D01*
X764933Y849539D01*
X764882Y849546D01*
X764777Y849564D01*
X764668Y849594D01*
X764558Y849634D01*
X764507Y849659D01*
X764457Y849688D01*
X764453Y849692D01*
X764446Y849696D01*
X764431Y849706D01*
X764417Y849721D01*
X764395Y849736D01*
X764369Y849757D01*
X764340Y849783D01*
X764311Y849812D01*
X764282Y849845D01*
X764249Y849878D01*
X764184Y849961D01*
X764122Y850060D01*
X764067Y850169D01*
Y850172D01*
X764060Y850183D01*
X764056Y850202D01*
X764045Y850223D01*
X764038Y850253D01*
X764027Y850289D01*
X764012Y850329D01*
X764002Y850373D01*
X763991Y850420D01*
X763976Y850474D01*
X763958Y850587D01*
X763943Y850715D01*
X763936Y850846D01*
Y850849D01*
Y850864D01*
Y850886D01*
X763940Y850911D01*
Y850948D01*
X763943Y850984D01*
X763947Y851031D01*
X763954Y851079D01*
X763972Y851184D01*
X763998Y851301D01*
X764034Y851417D01*
X764085Y851530D01*
X764089Y851534D01*
X764092Y851545D01*
X764100Y851559D01*
X764114Y851577D01*
X764129Y851603D01*
X764147Y851632D01*
X764194Y851698D01*
X764256Y851770D01*
X764329Y851843D01*
X764413Y851916D01*
X764511Y851978D01*
X764515Y851982D01*
X764526Y851985D01*
X764540Y851992D01*
X764558Y852003D01*
X764587Y852014D01*
X764617Y852025D01*
X764653Y852040D01*
X764693Y852054D01*
X764737Y852069D01*
X764784Y852083D01*
X764886Y852105D01*
X765002Y852123D01*
X765123Y852131D01*
X765159D01*
X765184Y852127D01*
D02*
G37*
G36*
X769960Y849568D02*
X769651D01*
Y851537D01*
X769647Y851534D01*
X769629Y851519D01*
X769607Y851497D01*
X769571Y851472D01*
X769531Y851439D01*
X769480Y851403D01*
X769421Y851363D01*
X769356Y851323D01*
X769352D01*
X769349Y851319D01*
X769327Y851304D01*
X769290Y851286D01*
X769247Y851264D01*
X769196Y851239D01*
X769141Y851213D01*
X769087Y851188D01*
X769032Y851166D01*
Y851465D01*
X769036D01*
X769043Y851472D01*
X769058Y851476D01*
X769076Y851486D01*
X769098Y851497D01*
X769123Y851512D01*
X769185Y851548D01*
X769258Y851588D01*
X769331Y851639D01*
X769407Y851698D01*
X769483Y851759D01*
X769487Y851763D01*
X769491Y851767D01*
X769501Y851778D01*
X769516Y851789D01*
X769549Y851825D01*
X769593Y851869D01*
X769636Y851920D01*
X769684Y851978D01*
X769724Y852036D01*
X769760Y852098D01*
X769960D01*
Y849568D01*
D02*
G37*
G36*
X767576Y852083D02*
X767605D01*
X767671Y852076D01*
X767743Y852069D01*
X767820Y852054D01*
X767896Y852036D01*
X767966Y852011D01*
X767969D01*
X767973Y852007D01*
X767995Y851996D01*
X768027Y851978D01*
X768064Y851952D01*
X768107Y851920D01*
X768155Y851880D01*
X768198Y851829D01*
X768238Y851774D01*
X768242Y851767D01*
X768253Y851745D01*
X768271Y851716D01*
X768289Y851672D01*
X768308Y851621D01*
X768326Y851567D01*
X768337Y851505D01*
X768340Y851443D01*
Y851435D01*
Y851417D01*
X768337Y851385D01*
X768329Y851344D01*
X768319Y851297D01*
X768300Y851246D01*
X768279Y851195D01*
X768249Y851141D01*
X768246Y851133D01*
X768235Y851119D01*
X768213Y851090D01*
X768184Y851061D01*
X768148Y851024D01*
X768104Y850984D01*
X768049Y850948D01*
X767987Y850911D01*
X767991D01*
X767998Y850908D01*
X768009Y850904D01*
X768024Y850897D01*
X768067Y850882D01*
X768118Y850857D01*
X768173Y850824D01*
X768235Y850784D01*
X768289Y850737D01*
X768340Y850678D01*
X768344Y850671D01*
X768359Y850649D01*
X768380Y850616D01*
X768402Y850573D01*
X768424Y850515D01*
X768446Y850453D01*
X768461Y850380D01*
X768464Y850300D01*
Y850296D01*
Y850292D01*
Y850271D01*
X768461Y850234D01*
X768453Y850191D01*
X768446Y850140D01*
X768431Y850085D01*
X768413Y850027D01*
X768388Y849969D01*
X768384Y849961D01*
X768373Y849943D01*
X768359Y849918D01*
X768337Y849881D01*
X768308Y849845D01*
X768279Y849805D01*
X768242Y849765D01*
X768202Y849732D01*
X768198Y849728D01*
X768184Y849717D01*
X768158Y849703D01*
X768126Y849688D01*
X768086Y849666D01*
X768038Y849645D01*
X767987Y849626D01*
X767925Y849608D01*
X767918D01*
X767896Y849601D01*
X767860Y849597D01*
X767813Y849590D01*
X767754Y849583D01*
X767685Y849575D01*
X767609Y849572D01*
X767521Y849568D01*
X766560D01*
Y852087D01*
X767551D01*
X767576Y852083D01*
D02*
G37*
G36*
X762775D02*
X762837Y852080D01*
X762902Y852076D01*
X762964Y852069D01*
X763019Y852062D01*
X763026D01*
X763052Y852054D01*
X763084Y852047D01*
X763128Y852036D01*
X763175Y852018D01*
X763226Y851996D01*
X763281Y851971D01*
X763328Y851941D01*
X763335Y851938D01*
X763350Y851927D01*
X763372Y851905D01*
X763401Y851880D01*
X763434Y851847D01*
X763466Y851803D01*
X763503Y851756D01*
X763532Y851701D01*
X763536Y851694D01*
X763543Y851676D01*
X763557Y851643D01*
X763572Y851599D01*
X763583Y851548D01*
X763597Y851490D01*
X763605Y851425D01*
X763608Y851355D01*
Y851352D01*
Y851341D01*
Y851326D01*
X763605Y851301D01*
X763601Y851275D01*
X763597Y851243D01*
X763590Y851206D01*
X763583Y851166D01*
X763557Y851082D01*
X763543Y851039D01*
X763521Y850991D01*
X763495Y850944D01*
X763470Y850900D01*
X763437Y850857D01*
X763401Y850813D01*
X763397Y850809D01*
X763390Y850802D01*
X763379Y850791D01*
X763361Y850780D01*
X763339Y850762D01*
X763310Y850744D01*
X763273Y850722D01*
X763234Y850704D01*
X763186Y850682D01*
X763132Y850660D01*
X763073Y850642D01*
X763004Y850627D01*
X762931Y850613D01*
X762851Y850602D01*
X762760Y850595D01*
X762666Y850591D01*
X762021D01*
Y849568D01*
X761687D01*
Y852087D01*
X762720D01*
X762775Y852083D01*
D02*
G37*
G36*
X759295Y851789D02*
X757926D01*
Y851010D01*
X759109D01*
Y850711D01*
X757926D01*
Y849568D01*
X757591D01*
Y852087D01*
X759295D01*
Y851789D01*
D02*
G37*
G36*
X756237Y852083D02*
X756270D01*
X756347Y852080D01*
X756427Y852069D01*
X756514Y852058D01*
X756594Y852040D01*
X756634Y852029D01*
X756667Y852018D01*
X756671D01*
X756674Y852014D01*
X756696Y852003D01*
X756729Y851989D01*
X756769Y851963D01*
X756812Y851931D01*
X756860Y851887D01*
X756904Y851836D01*
X756947Y851778D01*
Y851774D01*
X756951Y851770D01*
X756965Y851748D01*
X756980Y851712D01*
X757002Y851665D01*
X757020Y851610D01*
X757038Y851545D01*
X757049Y851476D01*
X757053Y851399D01*
Y851395D01*
Y851388D01*
Y851374D01*
X757049Y851355D01*
Y851330D01*
X757046Y851304D01*
X757031Y851243D01*
X757009Y851170D01*
X756980Y851093D01*
X756936Y851017D01*
X756907Y850980D01*
X756878Y850944D01*
X756874Y850940D01*
X756871Y850937D01*
X756860Y850926D01*
X756845Y850915D01*
X756827Y850900D01*
X756805Y850886D01*
X756776Y850868D01*
X756747Y850846D01*
X756711Y850828D01*
X756671Y850809D01*
X756627Y850788D01*
X756579Y850769D01*
X756525Y850755D01*
X756470Y850737D01*
X756409Y850726D01*
X756343Y850715D01*
X756350Y850711D01*
X756365Y850704D01*
X756387Y850689D01*
X756416Y850675D01*
X756481Y850635D01*
X756514Y850609D01*
X756543Y850587D01*
X756550Y850580D01*
X756569Y850562D01*
X756598Y850533D01*
X756634Y850496D01*
X756674Y850445D01*
X756721Y850391D01*
X756769Y850325D01*
X756820Y850253D01*
X757253Y849568D01*
X756838D01*
X756507Y850092D01*
Y850096D01*
X756499Y850103D01*
X756492Y850114D01*
X756481Y850129D01*
X756456Y850169D01*
X756423Y850220D01*
X756383Y850274D01*
X756343Y850333D01*
X756303Y850387D01*
X756266Y850438D01*
X756263Y850442D01*
X756252Y850456D01*
X756234Y850478D01*
X756208Y850504D01*
X756154Y850558D01*
X756124Y850584D01*
X756095Y850606D01*
X756092Y850609D01*
X756084Y850613D01*
X756070Y850620D01*
X756048Y850631D01*
X756026Y850642D01*
X756001Y850653D01*
X755942Y850671D01*
X755939D01*
X755932Y850675D01*
X755917D01*
X755899Y850678D01*
X755873Y850682D01*
X755844D01*
X755804Y850686D01*
X755375D01*
Y849568D01*
X755040D01*
Y852087D01*
X756208D01*
X756237Y852083D01*
D02*
G37*
G36*
X761450Y848869D02*
X759401D01*
Y849091D01*
X761450D01*
Y848869D01*
D02*
G37*
%LPC*%
G36*
X1157574Y651382D02*
X1156991D01*
Y649460D01*
X1157588D01*
X1157614Y649464D01*
X1157668Y649467D01*
X1157730Y649471D01*
X1157796Y649478D01*
X1157861Y649489D01*
X1157916Y649504D01*
X1157923Y649507D01*
X1157941Y649511D01*
X1157967Y649522D01*
X1158000Y649536D01*
X1158036Y649558D01*
X1158072Y649580D01*
X1158109Y649606D01*
X1158145Y649635D01*
X1158149Y649642D01*
X1158163Y649656D01*
X1158185Y649682D01*
X1158211Y649718D01*
X1158240Y649766D01*
X1158272Y649820D01*
X1158302Y649882D01*
X1158327Y649951D01*
Y649955D01*
X1158331Y649962D01*
X1158334Y649973D01*
X1158338Y649988D01*
X1158342Y650006D01*
X1158349Y650031D01*
X1158356Y650057D01*
X1158364Y650086D01*
X1158374Y650159D01*
X1158385Y650243D01*
X1158393Y650337D01*
X1158396Y650439D01*
Y650443D01*
Y650457D01*
Y650476D01*
X1158393Y650505D01*
Y650537D01*
X1158389Y650574D01*
X1158385Y650617D01*
X1158382Y650661D01*
X1158364Y650759D01*
X1158342Y650861D01*
X1158309Y650956D01*
X1158287Y651003D01*
X1158265Y651043D01*
Y651047D01*
X1158258Y651054D01*
X1158251Y651065D01*
X1158243Y651080D01*
X1158214Y651116D01*
X1158178Y651160D01*
X1158130Y651207D01*
X1158076Y651254D01*
X1158014Y651295D01*
X1157948Y651327D01*
X1157941Y651331D01*
X1157923Y651334D01*
X1157890Y651345D01*
X1157843Y651356D01*
X1157785Y651364D01*
X1157712Y651374D01*
X1157668Y651378D01*
X1157621D01*
X1157574Y651382D01*
D02*
G37*
G36*
X1159923Y619017D02*
X1159901D01*
X1159887Y619014D01*
X1159850Y619010D01*
X1159799Y618999D01*
X1159745Y618981D01*
X1159683Y618952D01*
X1159625Y618915D01*
X1159566Y618864D01*
X1159559Y618857D01*
X1159545Y618839D01*
X1159519Y618806D01*
X1159494Y618759D01*
X1159468Y618704D01*
X1159443Y618635D01*
X1159428Y618559D01*
X1159421Y618471D01*
Y618464D01*
Y618446D01*
X1159425Y618413D01*
X1159428Y618373D01*
X1159435Y618326D01*
X1159450Y618275D01*
X1159465Y618220D01*
X1159486Y618166D01*
X1159490Y618158D01*
X1159501Y618140D01*
X1159516Y618115D01*
X1159537Y618082D01*
X1159563Y618049D01*
X1159596Y618009D01*
X1159632Y617976D01*
X1159676Y617943D01*
X1159683Y617940D01*
X1159698Y617933D01*
X1159723Y617918D01*
X1159756Y617907D01*
X1159792Y617893D01*
X1159836Y617878D01*
X1159883Y617871D01*
X1159934Y617867D01*
X1159952D01*
X1159967Y617871D01*
X1160003Y617874D01*
X1160051Y617885D01*
X1160102Y617907D01*
X1160160Y617933D01*
X1160218Y617973D01*
X1160247Y617994D01*
X1160273Y618024D01*
Y618027D01*
X1160280Y618031D01*
X1160295Y618053D01*
X1160316Y618089D01*
X1160345Y618136D01*
X1160371Y618198D01*
X1160393Y618271D01*
X1160407Y618355D01*
X1160415Y618453D01*
Y618457D01*
Y618464D01*
Y618479D01*
X1160411Y618497D01*
Y618519D01*
X1160407Y618544D01*
X1160396Y618602D01*
X1160382Y618668D01*
X1160356Y618737D01*
X1160320Y618803D01*
X1160273Y618864D01*
X1160265Y618872D01*
X1160247Y618890D01*
X1160218Y618912D01*
X1160178Y618941D01*
X1160127Y618970D01*
X1160069Y618992D01*
X1160000Y619010D01*
X1159923Y619017D01*
D02*
G37*
G36*
X1157583Y619876D02*
X1157000D01*
Y617954D01*
X1157597D01*
X1157623Y617958D01*
X1157677Y617962D01*
X1157739Y617965D01*
X1157805Y617973D01*
X1157870Y617984D01*
X1157925Y617998D01*
X1157932Y618002D01*
X1157950Y618005D01*
X1157976Y618016D01*
X1158009Y618031D01*
X1158045Y618053D01*
X1158081Y618075D01*
X1158118Y618100D01*
X1158154Y618129D01*
X1158158Y618136D01*
X1158172Y618151D01*
X1158194Y618177D01*
X1158220Y618213D01*
X1158249Y618260D01*
X1158282Y618315D01*
X1158311Y618377D01*
X1158336Y618446D01*
Y618449D01*
X1158340Y618457D01*
X1158344Y618468D01*
X1158347Y618482D01*
X1158351Y618501D01*
X1158358Y618526D01*
X1158365Y618551D01*
X1158373Y618580D01*
X1158383Y618653D01*
X1158394Y618737D01*
X1158402Y618832D01*
X1158405Y618934D01*
Y618937D01*
Y618952D01*
Y618970D01*
X1158402Y618999D01*
Y619032D01*
X1158398Y619068D01*
X1158394Y619112D01*
X1158391Y619156D01*
X1158373Y619254D01*
X1158351Y619356D01*
X1158318Y619451D01*
X1158296Y619498D01*
X1158274Y619538D01*
Y619542D01*
X1158267Y619549D01*
X1158260Y619560D01*
X1158253Y619574D01*
X1158223Y619611D01*
X1158187Y619654D01*
X1158140Y619702D01*
X1158085Y619749D01*
X1158023Y619789D01*
X1157958Y619822D01*
X1157950Y619825D01*
X1157932Y619829D01*
X1157899Y619840D01*
X1157852Y619851D01*
X1157794Y619858D01*
X1157721Y619869D01*
X1157677Y619873D01*
X1157630D01*
X1157583Y619876D01*
D02*
G37*
G36*
Y588460D02*
X1157000D01*
Y586538D01*
X1157597D01*
X1157623Y586542D01*
X1157677Y586545D01*
X1157739Y586549D01*
X1157805Y586556D01*
X1157870Y586567D01*
X1157925Y586582D01*
X1157932Y586585D01*
X1157950Y586589D01*
X1157976Y586600D01*
X1158009Y586615D01*
X1158045Y586636D01*
X1158081Y586658D01*
X1158118Y586684D01*
X1158154Y586713D01*
X1158158Y586720D01*
X1158172Y586735D01*
X1158194Y586760D01*
X1158220Y586797D01*
X1158249Y586844D01*
X1158282Y586898D01*
X1158311Y586960D01*
X1158336Y587030D01*
Y587033D01*
X1158340Y587040D01*
X1158344Y587051D01*
X1158347Y587066D01*
X1158351Y587084D01*
X1158358Y587110D01*
X1158365Y587135D01*
X1158373Y587164D01*
X1158383Y587237D01*
X1158394Y587321D01*
X1158402Y587415D01*
X1158405Y587517D01*
Y587521D01*
Y587535D01*
Y587554D01*
X1158402Y587583D01*
Y587615D01*
X1158398Y587652D01*
X1158394Y587696D01*
X1158391Y587739D01*
X1158373Y587838D01*
X1158351Y587940D01*
X1158318Y588034D01*
X1158296Y588081D01*
X1158274Y588122D01*
Y588125D01*
X1158267Y588132D01*
X1158260Y588143D01*
X1158253Y588158D01*
X1158223Y588194D01*
X1158187Y588238D01*
X1158140Y588285D01*
X1158085Y588333D01*
X1158023Y588373D01*
X1157958Y588405D01*
X1157950Y588409D01*
X1157932Y588413D01*
X1157899Y588424D01*
X1157852Y588435D01*
X1157794Y588442D01*
X1157721Y588453D01*
X1157677Y588456D01*
X1157630D01*
X1157583Y588460D01*
D02*
G37*
G36*
X1157581Y556976D02*
X1156999D01*
Y555054D01*
X1157596D01*
X1157621Y555058D01*
X1157675Y555062D01*
X1157737Y555065D01*
X1157803Y555073D01*
X1157868Y555084D01*
X1157923Y555098D01*
X1157930Y555102D01*
X1157948Y555105D01*
X1157974Y555116D01*
X1158007Y555131D01*
X1158043Y555153D01*
X1158080Y555175D01*
X1158116Y555200D01*
X1158152Y555229D01*
X1158156Y555236D01*
X1158171Y555251D01*
X1158192Y555276D01*
X1158218Y555313D01*
X1158247Y555360D01*
X1158280Y555415D01*
X1158309Y555477D01*
X1158334Y555546D01*
Y555549D01*
X1158338Y555557D01*
X1158342Y555568D01*
X1158345Y555582D01*
X1158349Y555601D01*
X1158356Y555626D01*
X1158364Y555651D01*
X1158371Y555681D01*
X1158382Y555753D01*
X1158393Y555837D01*
X1158400Y555932D01*
X1158403Y556034D01*
Y556037D01*
Y556052D01*
Y556070D01*
X1158400Y556099D01*
Y556132D01*
X1158396Y556168D01*
X1158393Y556212D01*
X1158389Y556256D01*
X1158371Y556354D01*
X1158349Y556456D01*
X1158316Y556551D01*
X1158294Y556598D01*
X1158272Y556638D01*
Y556641D01*
X1158265Y556649D01*
X1158258Y556660D01*
X1158251Y556674D01*
X1158222Y556711D01*
X1158185Y556754D01*
X1158138Y556802D01*
X1158083Y556849D01*
X1158021Y556889D01*
X1157956Y556922D01*
X1157948Y556925D01*
X1157930Y556929D01*
X1157898Y556940D01*
X1157850Y556951D01*
X1157792Y556958D01*
X1157719Y556969D01*
X1157675Y556973D01*
X1157628D01*
X1157581Y556976D01*
D02*
G37*
G36*
X1159903Y557031D02*
X1159874D01*
X1159841Y557024D01*
X1159798Y557016D01*
X1159750Y557002D01*
X1159699Y556984D01*
X1159652Y556954D01*
X1159605Y556915D01*
X1159601Y556911D01*
X1159587Y556896D01*
X1159568Y556871D01*
X1159550Y556838D01*
X1159528Y556798D01*
X1159510Y556751D01*
X1159496Y556700D01*
X1159492Y556641D01*
Y556638D01*
Y556634D01*
X1159496Y556612D01*
X1159499Y556580D01*
X1159507Y556540D01*
X1159521Y556492D01*
X1159539Y556445D01*
X1159568Y556394D01*
X1159605Y556350D01*
X1159608Y556347D01*
X1159627Y556332D01*
X1159652Y556314D01*
X1159685Y556296D01*
X1159729Y556274D01*
X1159779Y556256D01*
X1159838Y556241D01*
X1159903Y556237D01*
X1159910D01*
X1159932Y556241D01*
X1159965Y556245D01*
X1160009Y556252D01*
X1160056Y556267D01*
X1160103Y556285D01*
X1160154Y556314D01*
X1160198Y556350D01*
X1160202Y556354D01*
X1160216Y556372D01*
X1160235Y556394D01*
X1160256Y556427D01*
X1160278Y556467D01*
X1160296Y556514D01*
X1160311Y556569D01*
X1160314Y556627D01*
Y556631D01*
Y556634D01*
Y556656D01*
X1160307Y556689D01*
X1160300Y556729D01*
X1160285Y556773D01*
X1160264Y556820D01*
X1160235Y556867D01*
X1160194Y556915D01*
X1160191Y556918D01*
X1160173Y556933D01*
X1160147Y556951D01*
X1160114Y556973D01*
X1160071Y556995D01*
X1160023Y557013D01*
X1159965Y557027D01*
X1159903Y557031D01*
D02*
G37*
G36*
X1159892Y555986D02*
X1159871D01*
X1159856Y555983D01*
X1159816Y555979D01*
X1159765Y555968D01*
X1159707Y555950D01*
X1159648Y555924D01*
X1159587Y555888D01*
X1159532Y555841D01*
X1159525Y555833D01*
X1159510Y555815D01*
X1159488Y555782D01*
X1159463Y555742D01*
X1159434Y555688D01*
X1159412Y555626D01*
X1159397Y555557D01*
X1159390Y555480D01*
Y555473D01*
Y555458D01*
X1159394Y555433D01*
X1159397Y555400D01*
X1159404Y555360D01*
X1159416Y555316D01*
X1159430Y555273D01*
X1159448Y555226D01*
X1159452Y555222D01*
X1159459Y555204D01*
X1159474Y555182D01*
X1159496Y555156D01*
X1159521Y555124D01*
X1159554Y555091D01*
X1159590Y555062D01*
X1159634Y555033D01*
X1159641Y555029D01*
X1159656Y555022D01*
X1159681Y555011D01*
X1159714Y555000D01*
X1159754Y554989D01*
X1159801Y554978D01*
X1159852Y554971D01*
X1159903Y554967D01*
X1159925D01*
X1159940Y554971D01*
X1159983Y554974D01*
X1160034Y554985D01*
X1160093Y555003D01*
X1160154Y555025D01*
X1160213Y555062D01*
X1160271Y555109D01*
X1160278Y555116D01*
X1160293Y555134D01*
X1160318Y555167D01*
X1160344Y555207D01*
X1160369Y555258D01*
X1160395Y555320D01*
X1160409Y555393D01*
X1160417Y555469D01*
Y555473D01*
Y555480D01*
Y555491D01*
X1160413Y555506D01*
X1160409Y555546D01*
X1160398Y555601D01*
X1160380Y555655D01*
X1160355Y555717D01*
X1160318Y555779D01*
X1160267Y555837D01*
X1160260Y555844D01*
X1160242Y555859D01*
X1160209Y555884D01*
X1160165Y555913D01*
X1160111Y555939D01*
X1160045Y555965D01*
X1159972Y555979D01*
X1159892Y555986D01*
D02*
G37*
G36*
X826063Y695412D02*
X825229D01*
Y694662D01*
X825233Y694618D01*
X825237Y694567D01*
X825240Y694509D01*
X825248Y694451D01*
X825259Y694393D01*
X825273Y694342D01*
X825277Y694334D01*
X825284Y694320D01*
X825295Y694298D01*
X825309Y694269D01*
X825331Y694236D01*
X825357Y694203D01*
X825389Y694171D01*
X825426Y694145D01*
X825430Y694141D01*
X825444Y694134D01*
X825466Y694123D01*
X825495Y694109D01*
X825528Y694098D01*
X825564Y694087D01*
X825608Y694080D01*
X825652Y694076D01*
X825655D01*
X825659D01*
X825681Y694080D01*
X825714Y694083D01*
X825757Y694091D01*
X825801Y694109D01*
X825852Y694131D01*
X825899Y694163D01*
X825946Y694207D01*
X825950Y694214D01*
X825965Y694233D01*
X825983Y694262D01*
X826005Y694309D01*
X826027Y694363D01*
X826045Y694436D01*
X826059Y694520D01*
X826063Y694618D01*
Y695412D01*
D02*
G37*
G36*
X824640Y692995D02*
X824632D01*
X824614D01*
X824581Y692991D01*
X824541Y692988D01*
X824494Y692980D01*
X824443Y692966D01*
X824389Y692951D01*
X824334Y692929D01*
X824327Y692926D01*
X824308Y692915D01*
X824283Y692900D01*
X824250Y692878D01*
X824217Y692853D01*
X824177Y692820D01*
X824145Y692784D01*
X824112Y692740D01*
X824108Y692733D01*
X824101Y692718D01*
X824086Y692693D01*
X824076Y692660D01*
X824061Y692624D01*
X824046Y692580D01*
X824039Y692533D01*
X824035Y692482D01*
Y692463D01*
X824039Y692449D01*
X824043Y692413D01*
X824054Y692365D01*
X824076Y692314D01*
X824101Y692256D01*
X824141Y692198D01*
X824163Y692169D01*
X824192Y692143D01*
X824196D01*
X824199Y692136D01*
X824221Y692121D01*
X824257Y692099D01*
X824305Y692070D01*
X824367Y692045D01*
X824440Y692023D01*
X824523Y692008D01*
X824621Y692001D01*
X824625D01*
X824632D01*
X824647D01*
X824665Y692005D01*
X824687D01*
X824712Y692008D01*
X824771Y692019D01*
X824836Y692034D01*
X824905Y692059D01*
X824971Y692096D01*
X825033Y692143D01*
X825040Y692150D01*
X825058Y692169D01*
X825080Y692198D01*
X825109Y692238D01*
X825138Y692289D01*
X825160Y692347D01*
X825178Y692416D01*
X825186Y692493D01*
Y692514D01*
X825182Y692529D01*
X825178Y692565D01*
X825167Y692616D01*
X825149Y692671D01*
X825120Y692733D01*
X825084Y692791D01*
X825033Y692849D01*
X825025Y692857D01*
X825007Y692871D01*
X824975Y692897D01*
X824927Y692922D01*
X824873Y692948D01*
X824804Y692973D01*
X824727Y692988D01*
X824640Y692995D01*
D02*
G37*
G36*
X824712Y691182D02*
Y690389D01*
X825841D01*
X824712Y691182D01*
D02*
G37*
G36*
X809539Y695465D02*
X808705D01*
Y694715D01*
X808709Y694672D01*
X808712Y694621D01*
X808716Y694562D01*
X808723Y694504D01*
X808734Y694446D01*
X808749Y694395D01*
X808752Y694388D01*
X808760Y694373D01*
X808771Y694351D01*
X808785Y694322D01*
X808807Y694289D01*
X808832Y694257D01*
X808865Y694224D01*
X808902Y694198D01*
X808905Y694195D01*
X808920Y694187D01*
X808942Y694177D01*
X808971Y694162D01*
X809004Y694151D01*
X809040Y694140D01*
X809084Y694133D01*
X809127Y694129D01*
X809131D01*
X809135D01*
X809156Y694133D01*
X809189Y694136D01*
X809233Y694144D01*
X809276Y694162D01*
X809328Y694184D01*
X809375Y694217D01*
X809422Y694260D01*
X809426Y694268D01*
X809440Y694286D01*
X809459Y694315D01*
X809480Y694362D01*
X809502Y694417D01*
X809520Y694490D01*
X809535Y694573D01*
X809539Y694672D01*
Y695465D01*
D02*
G37*
G36*
X808115Y693048D02*
X808108D01*
X808090D01*
X808057Y693045D01*
X808017Y693041D01*
X807970Y693034D01*
X807919Y693019D01*
X807864Y693005D01*
X807810Y692983D01*
X807802Y692979D01*
X807784Y692968D01*
X807759Y692953D01*
X807726Y692932D01*
X807693Y692906D01*
X807653Y692873D01*
X807620Y692837D01*
X807588Y692793D01*
X807584Y692786D01*
X807577Y692771D01*
X807562Y692746D01*
X807551Y692713D01*
X807537Y692677D01*
X807522Y692633D01*
X807515Y692586D01*
X807511Y692535D01*
Y692517D01*
X807515Y692502D01*
X807518Y692466D01*
X807529Y692418D01*
X807551Y692368D01*
X807577Y692309D01*
X807617Y692251D01*
X807638Y692222D01*
X807668Y692196D01*
X807671D01*
X807675Y692189D01*
X807697Y692175D01*
X807733Y692153D01*
X807780Y692124D01*
X807842Y692098D01*
X807915Y692076D01*
X807999Y692062D01*
X808097Y692054D01*
X808101D01*
X808108D01*
X808123D01*
X808141Y692058D01*
X808163D01*
X808188Y692062D01*
X808246Y692073D01*
X808312Y692087D01*
X808381Y692113D01*
X808447Y692149D01*
X808508Y692196D01*
X808516Y692204D01*
X808534Y692222D01*
X808556Y692251D01*
X808585Y692291D01*
X808614Y692342D01*
X808636Y692400D01*
X808654Y692469D01*
X808661Y692546D01*
Y692568D01*
X808658Y692582D01*
X808654Y692619D01*
X808643Y692670D01*
X808625Y692724D01*
X808596Y692786D01*
X808559Y692844D01*
X808508Y692903D01*
X808501Y692910D01*
X808483Y692924D01*
X808450Y692950D01*
X808403Y692975D01*
X808348Y693001D01*
X808279Y693026D01*
X808203Y693041D01*
X808115Y693048D01*
D02*
G37*
G36*
X767492Y851789D02*
X766895D01*
Y851031D01*
X767514D01*
X767561Y851035D01*
X767612Y851039D01*
X767663Y851042D01*
X767714Y851050D01*
X767754Y851057D01*
X767762Y851061D01*
X767776Y851064D01*
X767798Y851075D01*
X767827Y851090D01*
X767856Y851104D01*
X767889Y851126D01*
X767922Y851155D01*
X767947Y851184D01*
X767951Y851188D01*
X767958Y851199D01*
X767969Y851221D01*
X767980Y851246D01*
X767991Y851275D01*
X768002Y851312D01*
X768009Y851355D01*
X768013Y851403D01*
Y851410D01*
Y851425D01*
X768009Y851446D01*
X768006Y851476D01*
X767998Y851512D01*
X767987Y851548D01*
X767973Y851585D01*
X767951Y851621D01*
X767947Y851625D01*
X767940Y851636D01*
X767925Y851654D01*
X767907Y851672D01*
X767882Y851694D01*
X767853Y851716D01*
X767816Y851738D01*
X767776Y851752D01*
X767772D01*
X767754Y851759D01*
X767729Y851763D01*
X767689Y851770D01*
X767634Y851778D01*
X767572Y851781D01*
X767492Y851789D01*
D02*
G37*
G36*
X767558Y850733D02*
X766895D01*
Y849867D01*
X767612D01*
X767689Y849870D01*
X767722Y849874D01*
X767751Y849878D01*
X767754D01*
X767769Y849881D01*
X767791Y849885D01*
X767816Y849892D01*
X767878Y849914D01*
X767940Y849943D01*
X767944Y849947D01*
X767954Y849954D01*
X767969Y849965D01*
X767987Y849979D01*
X768006Y850001D01*
X768031Y850023D01*
X768049Y850052D01*
X768071Y850085D01*
X768075Y850089D01*
X768078Y850100D01*
X768086Y850121D01*
X768096Y850147D01*
X768107Y850176D01*
X768115Y850212D01*
X768118Y850256D01*
X768122Y850300D01*
Y850307D01*
Y850322D01*
X768118Y850351D01*
X768111Y850383D01*
X768104Y850420D01*
X768089Y850460D01*
X768071Y850500D01*
X768046Y850540D01*
X768042Y850544D01*
X768031Y850558D01*
X768016Y850576D01*
X767995Y850598D01*
X767966Y850624D01*
X767929Y850649D01*
X767889Y850671D01*
X767842Y850689D01*
X767834Y850693D01*
X767820Y850697D01*
X767787Y850704D01*
X767747Y850711D01*
X767696Y850718D01*
X767634Y850726D01*
X767558Y850733D01*
D02*
G37*
G36*
X762742Y851789D02*
X762021D01*
Y850889D01*
X762698D01*
X762724Y850893D01*
X762749D01*
X762779Y850897D01*
X762848Y850904D01*
X762924Y850919D01*
X763000Y850940D01*
X763070Y850970D01*
X763102Y850988D01*
X763128Y851010D01*
X763135Y851017D01*
X763150Y851031D01*
X763172Y851061D01*
X763197Y851097D01*
X763223Y851144D01*
X763244Y851202D01*
X763259Y851268D01*
X763266Y851344D01*
Y851348D01*
Y851352D01*
Y851370D01*
X763263Y851403D01*
X763255Y851439D01*
X763248Y851479D01*
X763234Y851527D01*
X763212Y851570D01*
X763186Y851614D01*
X763182Y851618D01*
X763172Y851632D01*
X763153Y851650D01*
X763132Y851676D01*
X763099Y851701D01*
X763062Y851723D01*
X763022Y851745D01*
X762975Y851763D01*
X762971D01*
X762957Y851767D01*
X762935Y851770D01*
X762906Y851778D01*
X762862Y851781D01*
X762808Y851785D01*
X762742Y851789D01*
D02*
G37*
G36*
X756168Y851807D02*
X755375D01*
Y850973D01*
X756124D01*
X756168Y850977D01*
X756219Y850980D01*
X756277Y850984D01*
X756336Y850991D01*
X756394Y851002D01*
X756445Y851017D01*
X756452Y851021D01*
X756467Y851028D01*
X756489Y851039D01*
X756518Y851053D01*
X756550Y851075D01*
X756583Y851101D01*
X756616Y851133D01*
X756641Y851170D01*
X756645Y851173D01*
X756652Y851188D01*
X756663Y851210D01*
X756678Y851239D01*
X756689Y851272D01*
X756700Y851308D01*
X756707Y851352D01*
X756711Y851395D01*
Y851399D01*
Y851403D01*
X756707Y851425D01*
X756703Y851457D01*
X756696Y851501D01*
X756678Y851545D01*
X756656Y851596D01*
X756623Y851643D01*
X756579Y851690D01*
X756572Y851694D01*
X756554Y851709D01*
X756525Y851727D01*
X756478Y851748D01*
X756423Y851770D01*
X756350Y851789D01*
X756266Y851803D01*
X756168Y851807D01*
D02*
G37*
%LPD*%
D10*
X1182817Y639467D02*
G03*
X1169582Y639469I-6617J10138D01*
G01*
X1182817Y607971D02*
G03*
X1169582Y607973I-6617J10138D01*
G01*
X1182817Y576475D02*
G03*
X1169582Y576477I-6617J10138D01*
G01*
X1182817Y544979D02*
G03*
X1169582Y544981I-6617J10138D01*
G01*
X1169582Y639468D02*
X1182817D01*
X1169582Y607972D02*
X1182817D01*
X1169582Y576476D02*
X1182817D01*
X1169582Y544980D02*
X1182817D01*
D11*
X736091Y820000D02*
G03*
X736091Y820000I-13780J0D01*
G01*
X1224267D02*
G03*
X1224267Y820000I-13780J0D01*
G01*
X1224279Y548359D02*
G03*
X1224279Y548359I-13780J0D01*
G01*
D12*
X1177600Y664202D02*
X1174901D01*
X1176250Y665551D02*
Y662852D01*
X1177600Y632706D02*
X1174901D01*
X1176250Y634055D02*
Y631356D01*
X1177600Y601209D02*
X1174901D01*
X1176250Y602559D02*
Y599860D01*
X1177600Y569713D02*
X1174901D01*
X1176250Y571063D02*
Y568364D01*
M02*
