G04*
G04 #@! TF.GenerationSoftware,Altium Limited,Altium Designer,21.9.1 (22)*
G04*
G04 Layer_Color=32768*
%FSLAX25Y25*%
%MOIN*%
G70*
G04*
G04 #@! TF.SameCoordinates,3683F5DD-B2EF-4FE9-AD71-088996B23F6A*
G04*
G04*
G04 #@! TF.FilePolarity,Positive*
G04*
G01*
G75*
%ADD12C,0.00394*%
%ADD36C,0.00787*%
D12*
X1085843Y449228D02*
Y485449D01*
X1051157Y449228D02*
X1085843D01*
X1051157D02*
Y485449D01*
X1085843D01*
D36*
X950244Y602768D02*
Y611232D01*
Y602768D02*
X955756D01*
Y611232D01*
X950244D02*
X955756D01*
X1095788Y550343D02*
X1103662D01*
Y555265D01*
X1095788D02*
X1103662D01*
X1095788Y550343D02*
Y555265D01*
Y540843D02*
X1103662D01*
Y545765D01*
X1095788D02*
X1103662D01*
X1095788Y540843D02*
Y545765D01*
X1109268Y496358D02*
X1157732D01*
X1109268Y448524D02*
Y496358D01*
Y448524D02*
X1157732D01*
Y496358D01*
X1113461Y582563D02*
Y590437D01*
X1108539D02*
X1113461D01*
X1108539Y582563D02*
Y590437D01*
Y582563D02*
X1113461D01*
X1093027Y725685D02*
X1098146D01*
Y732378D01*
X1093027D02*
X1098146D01*
X1093027Y725685D02*
Y732378D01*
X1092204Y683539D02*
X1100078D01*
Y688461D01*
X1092204D02*
X1100078D01*
X1092204Y683539D02*
Y688461D01*
Y693039D02*
X1100078D01*
Y697961D01*
X1092204D02*
X1100078D01*
X1092204Y693039D02*
Y697961D01*
X1093092Y706575D02*
X1099391D01*
X1093092Y703425D02*
Y706575D01*
Y703425D02*
X1099391D01*
Y706575D01*
X1092850Y715075D02*
X1099150D01*
X1092850Y711925D02*
Y715075D01*
Y711925D02*
X1099150D01*
Y715075D01*
X1056161Y713161D02*
X1088839D01*
X1056161D02*
Y745839D01*
X1088839D01*
Y713161D02*
Y745839D01*
X803567Y736917D02*
Y739083D01*
X799433Y736917D02*
X803567D01*
X799433D02*
Y739083D01*
X803567D01*
X823933Y735917D02*
Y738083D01*
X828067D01*
Y735917D02*
Y738083D01*
X823933Y735917D02*
X828067D01*
X1102004Y593752D02*
X1126492D01*
X1102004D02*
Y620248D01*
X1126492D01*
Y593752D02*
Y620248D01*
M02*
