G04*
G04 #@! TF.GenerationSoftware,Altium Limited,Altium Designer,21.9.1 (22)*
G04*
G04 Layer_Color=8388736*
%FSLAX25Y25*%
%MOIN*%
G70*
G04*
G04 #@! TF.SameCoordinates,3683F5DD-B2EF-4FE9-AD71-088996B23F6A*
G04*
G04*
G04 #@! TF.FilePolarity,Negative*
G04*
G01*
G75*
%ADD15C,0.02800*%
%ADD16R,0.03556X0.03359*%
%ADD17C,0.06200*%
%ADD18C,0.06706*%
%ADD19C,0.14580*%
%ADD20C,0.20485*%
%ADD21C,0.07198*%
%ADD22C,0.10426*%
%ADD23C,0.06824*%
%ADD24C,0.06493*%
%ADD25R,0.08465X0.08465*%
%ADD26C,0.08465*%
%ADD27C,0.09068*%
G04:AMPARAMS|DCode=28|XSize=90.68mil|YSize=90.68mil|CornerRadius=24.67mil|HoleSize=0mil|Usage=FLASHONLY|Rotation=180.000|XOffset=0mil|YOffset=0mil|HoleType=Round|Shape=RoundedRectangle|*
%AMROUNDEDRECTD28*
21,1,0.09068,0.04134,0,0,180.0*
21,1,0.04134,0.09068,0,0,180.0*
1,1,0.04934,-0.02067,0.02067*
1,1,0.04934,0.02067,0.02067*
1,1,0.04934,0.02067,-0.02067*
1,1,0.04934,-0.02067,-0.02067*
%
%ADD28ROUNDEDRECTD28*%
%ADD29C,0.06312*%
%ADD30R,0.06312X0.06312*%
%ADD31C,0.02769*%
%ADD32C,0.03300*%
D15*
X940500Y830000D02*
D03*
X912500D02*
D03*
D16*
X802870Y692000D02*
D03*
X799130D02*
D03*
X819370D02*
D03*
X815630D02*
D03*
D17*
X1166400Y748500D02*
D03*
X1191995D02*
D03*
D18*
X1176201Y644606D02*
D03*
Y654606D02*
D03*
Y613110D02*
D03*
Y623110D02*
D03*
Y581613D02*
D03*
Y591613D02*
D03*
Y550117D02*
D03*
Y560117D02*
D03*
D19*
X722298Y820000D02*
D03*
D20*
X1210487D02*
D03*
X1210500Y548359D02*
D03*
D21*
X961953Y492705D02*
D03*
X1006953D02*
D03*
D22*
X953961Y504713D02*
D03*
X1014945D02*
D03*
D23*
X958370Y473413D02*
D03*
X968370D02*
D03*
X1000535D02*
D03*
X1010535D02*
D03*
D24*
X966953Y527705D02*
D03*
X971953Y517705D02*
D03*
X976953Y527705D02*
D03*
X981953Y517705D02*
D03*
X986953Y527705D02*
D03*
X991953Y517705D02*
D03*
X996953Y527705D02*
D03*
X1001953Y517705D02*
D03*
D25*
X1143500Y488189D02*
D03*
D26*
X1123500D02*
D03*
D27*
X1061000Y480724D02*
D03*
D28*
X1076000D02*
D03*
D29*
X1104500Y853500D02*
D03*
X1114500Y843500D02*
D03*
X1104500D02*
D03*
X1114500Y833500D02*
D03*
X1104500D02*
D03*
D30*
X1114500Y853500D02*
D03*
D31*
X986500Y722500D02*
D03*
X1096406Y575000D02*
D03*
Y578937D02*
D03*
Y571063D02*
D03*
X1092468D02*
D03*
X1088531D02*
D03*
X1084595D02*
D03*
Y578937D02*
D03*
Y575000D02*
D03*
X1088531Y578937D02*
D03*
Y575000D02*
D03*
X1092468Y578937D02*
D03*
Y575000D02*
D03*
X807506Y758802D02*
D03*
X811837D02*
D03*
X816168D02*
D03*
X820498D02*
D03*
X807506Y763133D02*
D03*
X811837D02*
D03*
X816168D02*
D03*
X807506Y767464D02*
D03*
X811837D02*
D03*
X816168D02*
D03*
X820498D02*
D03*
X807506Y771794D02*
D03*
X811837D02*
D03*
X816168D02*
D03*
X820498D02*
D03*
Y763133D02*
D03*
D32*
X1031776Y829612D02*
D03*
X1046224Y829573D02*
D03*
Y822388D02*
D03*
X1039000D02*
D03*
X1031776D02*
D03*
X1035388Y818776D02*
D03*
X1042612D02*
D03*
X1035388Y826000D02*
D03*
X1042612Y825961D02*
D03*
X1035388Y833224D02*
D03*
X1039000Y829612D02*
D03*
X1042612Y833224D02*
D03*
M02*
