G04*
G04 #@! TF.GenerationSoftware,Altium Limited,Altium Designer,21.9.1 (22)*
G04*
G04 Layer_Color=16711935*
%FSLAX25Y25*%
%MOIN*%
G70*
G04*
G04 #@! TF.SameCoordinates,3683F5DD-B2EF-4FE9-AD71-088996B23F6A*
G04*
G04*
G04 #@! TF.FilePolarity,Positive*
G04*
G01*
G75*
%ADD12C,0.00394*%
%ADD36C,0.00787*%
D12*
X1101917Y569685D02*
G03*
X1101917Y569685I-1969J0D01*
G01*
X824436Y756834D02*
G03*
X824436Y756834I-1969J0D01*
G01*
X869032Y731595D02*
G03*
X869032Y731595I-1969J0D01*
G01*
X1176433Y774917D02*
Y777083D01*
X1180567Y774917D02*
Y777083D01*
X1176433Y774917D02*
X1180567D01*
X1176433Y777083D02*
X1180567D01*
X1183831Y783343D02*
Y788658D01*
X1175169Y783343D02*
Y788658D01*
Y783343D02*
X1183831D01*
X1175169Y788658D02*
X1183831D01*
X1176933Y795417D02*
Y797583D01*
X1181067Y795417D02*
Y797583D01*
X1176933Y795417D02*
X1181067D01*
X1176933Y797583D02*
X1181067D01*
X1157917Y560437D02*
X1160083D01*
X1157917Y556303D02*
X1160083D01*
X1157917D02*
Y560437D01*
X1160083Y556303D02*
Y560437D01*
X1157417Y584433D02*
X1159583D01*
X1157417Y588567D02*
X1159583D01*
Y584433D02*
Y588567D01*
X1157417Y584433D02*
Y588567D01*
X1156917Y615433D02*
X1159083D01*
X1156917Y619567D02*
X1159083D01*
Y615433D02*
Y619567D01*
X1156917Y615433D02*
Y619567D01*
Y647933D02*
X1159083D01*
X1156917Y652067D02*
X1159083D01*
Y647933D02*
Y652067D01*
X1156917Y647933D02*
Y652067D01*
X1010917Y772933D02*
Y777067D01*
X1013083Y772933D02*
Y777067D01*
X1010917D02*
X1013083D01*
X1010917Y772933D02*
X1013083D01*
X988803Y789417D02*
X992937D01*
X988803Y791583D02*
X992937D01*
X988803Y789417D02*
Y791583D01*
X992937Y789417D02*
Y791583D01*
X989303Y844417D02*
X993437D01*
X989303Y846583D02*
X993437D01*
X989303Y844417D02*
Y846583D01*
X993437Y844417D02*
Y846583D01*
X988433Y827083D02*
X992567D01*
X988433Y824917D02*
X992567D01*
Y827083D01*
X988433Y824917D02*
Y827083D01*
Y829917D02*
X992567D01*
X988433Y832083D02*
X992567D01*
X988433Y829917D02*
Y832083D01*
X992567Y829917D02*
Y832083D01*
X960933Y554583D02*
X965067D01*
X960933Y552417D02*
X965067D01*
Y554583D01*
X960933Y552417D02*
Y554583D01*
X961433Y547917D02*
X965567D01*
X961433Y550083D02*
X965567D01*
X961433Y547917D02*
Y550083D01*
X965567Y547917D02*
Y550083D01*
X969084Y548933D02*
Y553067D01*
X971249Y548933D02*
Y553067D01*
X969084D02*
X971249D01*
X969084Y548933D02*
X971249D01*
X976083D02*
Y553067D01*
X973917Y548933D02*
Y553067D01*
Y548933D02*
X976083D01*
X973917Y553067D02*
X976083D01*
X980857Y548716D02*
Y552850D01*
X978692Y548716D02*
Y552850D01*
Y548716D02*
X980857D01*
X978692Y552850D02*
X980857D01*
X985690Y548716D02*
Y552850D01*
X983525Y548716D02*
Y552850D01*
Y548716D02*
X985690D01*
X983525Y552850D02*
X985690D01*
X988358Y548716D02*
Y552850D01*
X990524Y548716D02*
Y552850D01*
X988358D02*
X990524D01*
X988358Y548716D02*
X990524D01*
X995416Y548933D02*
Y553067D01*
X993251Y548933D02*
Y553067D01*
Y548933D02*
X995416D01*
X993251Y553067D02*
X995416D01*
X1000249Y548933D02*
Y553067D01*
X998084Y548933D02*
Y553067D01*
Y548933D02*
X1000249D01*
X998084Y553067D02*
X1000249D01*
X1005083Y548933D02*
Y553067D01*
X1002917Y548933D02*
Y553067D01*
Y548933D02*
X1005083D01*
X1002917Y553067D02*
X1005083D01*
X972201Y608417D02*
X976335D01*
X972201Y610583D02*
X976335D01*
X972201Y608417D02*
Y610583D01*
X976335Y608417D02*
Y610583D01*
X988933Y610583D02*
X993067D01*
X988933Y608417D02*
X993067D01*
Y610583D01*
X988933Y608417D02*
Y610583D01*
X978563Y614350D02*
X986437D01*
X978563Y620650D02*
X986437D01*
X978563Y614350D02*
Y620650D01*
X986437Y614350D02*
Y620650D01*
X950020Y594417D02*
X954154D01*
X950020Y596583D02*
X954154D01*
X950020Y594417D02*
Y596583D01*
X954154Y594417D02*
Y596583D01*
X949803Y592142D02*
X953937D01*
X949803Y589976D02*
X953937D01*
Y592142D01*
X949803Y589976D02*
Y592142D01*
X950020Y587583D02*
X954154D01*
X950020Y585417D02*
X954154D01*
Y587583D01*
X950020Y585417D02*
Y587583D01*
Y583083D02*
X954154D01*
X950020Y580917D02*
X954154D01*
Y583083D01*
X950020Y580917D02*
Y583083D01*
Y578583D02*
X954154D01*
X950020Y576417D02*
X954154D01*
Y578583D01*
X950020Y576417D02*
Y578583D01*
X1016933Y555083D02*
X1021067D01*
X1016933Y552917D02*
X1021067D01*
Y555083D01*
X1016933Y552917D02*
Y555083D01*
Y557917D02*
X1021067D01*
X1016933Y560083D02*
X1021067D01*
X1016933Y557917D02*
Y560083D01*
X1021067Y557917D02*
Y560083D01*
X1016933Y565083D02*
X1021067D01*
X1016933Y562917D02*
X1021067D01*
Y565083D01*
X1016933Y562917D02*
Y565083D01*
Y567917D02*
X1021067D01*
X1016933Y570083D02*
X1021067D01*
X1016933Y567917D02*
Y570083D01*
X1021067Y567917D02*
Y570083D01*
X1016933Y575083D02*
X1021067D01*
X1016933Y572917D02*
X1021067D01*
Y575083D01*
X1016933Y572917D02*
Y575083D01*
Y577917D02*
X1021067D01*
X1016933Y580083D02*
X1021067D01*
X1016933Y577917D02*
Y580083D01*
X1021067Y577917D02*
Y580083D01*
X1016933Y582917D02*
X1021067D01*
X1016933Y585083D02*
X1021067D01*
X1016933Y582917D02*
Y585083D01*
X1021067Y582917D02*
Y585083D01*
X1016933Y587917D02*
X1021067D01*
X1016933Y590083D02*
X1021067D01*
X1016933Y587917D02*
Y590083D01*
X1021067Y587917D02*
Y590083D01*
X1016933Y592917D02*
X1021067D01*
X1016933Y595083D02*
X1021067D01*
X1016933Y592917D02*
Y595083D01*
X1021067Y592917D02*
Y595083D01*
X1016933Y597917D02*
X1021067D01*
X1016933Y600083D02*
X1021067D01*
X1016933Y597917D02*
Y600083D01*
X1021067Y597917D02*
Y600083D01*
X1016933Y602917D02*
X1021067D01*
X1016933Y605083D02*
X1021067D01*
X1016933Y602917D02*
Y605083D01*
X1021067Y602917D02*
Y605083D01*
X1016933Y607917D02*
X1021067D01*
X1016933Y610083D02*
X1021067D01*
X1016933Y607917D02*
Y610083D01*
X1021067Y607917D02*
Y610083D01*
X1106917Y560433D02*
Y564567D01*
X1109083Y560433D02*
Y564567D01*
X1106917D02*
X1109083D01*
X1106917Y560433D02*
X1109083D01*
X1111417D02*
Y564567D01*
X1113583Y560433D02*
Y564567D01*
X1111417D02*
X1113583D01*
X1111417Y560433D02*
X1113583D01*
X1106917Y551433D02*
Y555567D01*
X1109083Y551433D02*
Y555567D01*
X1106917D02*
X1109083D01*
X1106917Y551433D02*
X1109083D01*
X1125295Y512547D02*
X1149311D01*
X1125295D02*
Y538453D01*
X1149311D01*
Y512547D02*
Y538453D01*
X1085933Y550083D02*
X1090067D01*
X1085933Y547917D02*
X1090067D01*
Y550083D01*
X1085933Y547917D02*
Y550083D01*
X1086303Y554583D02*
X1090437D01*
X1086303Y552417D02*
X1090437D01*
Y554583D01*
X1086303Y552417D02*
Y554583D01*
X1079417Y549933D02*
Y554067D01*
X1081583Y549933D02*
Y554067D01*
X1079417D02*
X1081583D01*
X1079417Y549933D02*
X1081583D01*
X1076583D02*
Y554067D01*
X1074417Y549933D02*
Y554067D01*
Y549933D02*
X1076583D01*
X1074417Y554067D02*
X1076583D01*
Y541063D02*
Y545197D01*
X1074417Y541063D02*
Y545197D01*
Y541063D02*
X1076583D01*
X1074417Y545197D02*
X1076583D01*
X1079417Y540933D02*
Y545067D01*
X1081583Y540933D02*
Y545067D01*
X1079417D02*
X1081583D01*
X1079417Y540933D02*
X1081583D01*
X1044433Y504917D02*
X1048567D01*
X1044433Y507083D02*
X1048567D01*
X1044433Y504917D02*
Y507083D01*
X1048567Y504917D02*
Y507083D01*
X1055102Y499169D02*
X1060417D01*
X1055102Y507831D02*
X1060417D01*
X1055102Y499169D02*
Y507831D01*
X1060417Y499169D02*
Y507831D01*
X1066563Y504583D02*
X1070697D01*
X1066563Y502417D02*
X1070697D01*
Y504583D01*
X1066563Y502417D02*
Y504583D01*
X1076842Y507831D02*
X1082158D01*
X1076842Y499169D02*
X1082158D01*
Y507831D01*
X1076842Y499169D02*
Y507831D01*
X1089433Y507083D02*
X1093567D01*
X1089433Y504917D02*
X1093567D01*
Y507083D01*
X1089433Y504917D02*
Y507083D01*
X1089303Y499917D02*
X1093437D01*
X1089303Y502083D02*
X1093437D01*
X1089303Y499917D02*
Y502083D01*
X1093437Y499917D02*
Y502083D01*
X1099563Y516083D02*
X1103697D01*
X1099563Y513917D02*
X1103697D01*
Y516083D01*
X1099563Y513917D02*
Y516083D01*
X1077508Y566142D02*
X1103492D01*
X1077508Y583858D02*
X1103492D01*
Y566142D02*
Y583858D01*
X1077508Y566142D02*
Y583858D01*
X1090433Y622417D02*
X1094567D01*
X1090433Y624583D02*
X1094567D01*
X1090433Y622417D02*
Y624583D01*
X1094567Y622417D02*
Y624583D01*
X1077457Y605807D02*
X1084543D01*
X1077457Y619193D02*
X1084543D01*
Y605807D02*
Y619193D01*
X1077457Y605807D02*
Y619193D01*
X1092165Y753917D02*
X1096299D01*
X1092165Y756083D02*
X1096299D01*
X1092165Y753917D02*
Y756083D01*
X1096299Y753917D02*
Y756083D01*
X1092165Y749417D02*
X1096299D01*
X1092165Y751583D02*
X1096299D01*
X1092165Y749417D02*
Y751583D01*
X1096299Y749417D02*
Y751583D01*
X1092165Y744917D02*
X1096299D01*
X1092165Y747083D02*
X1096299D01*
X1092165Y744917D02*
Y747083D01*
X1096299Y744917D02*
Y747083D01*
X1092165Y740417D02*
X1096299D01*
X1092165Y742583D02*
X1096299D01*
X1092165Y740417D02*
Y742583D01*
X1096299Y740417D02*
Y742583D01*
X1092165Y735917D02*
X1096299D01*
X1092165Y738083D02*
X1096299D01*
X1092165Y735917D02*
Y738083D01*
X1096299Y735917D02*
Y738083D01*
X1104583Y732665D02*
Y736799D01*
X1102417Y732665D02*
Y736799D01*
Y732665D02*
X1104583D01*
X1102417Y736799D02*
X1104583D01*
X1105583Y721303D02*
Y725437D01*
X1103417Y721303D02*
Y725437D01*
Y721303D02*
X1105583D01*
X1103417Y725437D02*
X1105583D01*
X1108917Y721433D02*
Y725567D01*
X1111083Y721433D02*
Y725567D01*
X1108917D02*
X1111083D01*
X1108917Y721433D02*
X1111083D01*
X1093433Y718417D02*
X1097567D01*
X1093433Y720583D02*
X1097567D01*
X1093433Y718417D02*
Y720583D01*
X1097567Y718417D02*
Y720583D01*
X932917Y710933D02*
Y715067D01*
X935083Y710933D02*
Y715067D01*
X932917D02*
X935083D01*
X932917Y710933D02*
X935083D01*
X940083D02*
Y715067D01*
X937917Y710933D02*
Y715067D01*
Y710933D02*
X940083D01*
X937917Y715067D02*
X940083D01*
X945083Y710933D02*
Y715067D01*
X942917Y710933D02*
Y715067D01*
Y710933D02*
X945083D01*
X942917Y715067D02*
X945083D01*
X962350Y755205D02*
Y765795D01*
X968650Y755205D02*
Y765795D01*
X962350Y755205D02*
X968650D01*
X962350Y765795D02*
X968650D01*
X855713Y741614D02*
X862287D01*
X855713Y753386D02*
X862287D01*
X855713Y741614D02*
Y753386D01*
X862287Y741614D02*
Y753386D01*
X871433Y758083D02*
X875567D01*
X871433Y755917D02*
X875567D01*
Y758083D01*
X871433Y755917D02*
Y758083D01*
X871563Y753583D02*
X875697D01*
X871563Y751417D02*
X875697D01*
Y753583D01*
X871563Y751417D02*
Y753583D01*
X871433Y749083D02*
X875567D01*
X871433Y746917D02*
X875567D01*
Y749083D01*
X871433Y746917D02*
Y749083D01*
Y744583D02*
X875567D01*
X871433Y742417D02*
X875567D01*
Y744583D01*
X871433Y742417D02*
Y744583D01*
X838201Y734083D02*
X842335D01*
X838201Y731917D02*
X842335D01*
Y734083D01*
X838201Y731917D02*
Y734083D01*
X787917Y723933D02*
Y728067D01*
X790083Y723933D02*
Y728067D01*
X787917D02*
X790083D01*
X787917Y723933D02*
X790083D01*
X785583D02*
Y728067D01*
X783417Y723933D02*
Y728067D01*
Y723933D02*
X785583D01*
X783417Y728067D02*
X785583D01*
X793933Y727417D02*
X798067D01*
X793933Y729583D02*
X798067D01*
X793933Y727417D02*
Y729583D01*
X798067Y727417D02*
Y729583D01*
X793933Y722417D02*
X798067D01*
X793933Y724583D02*
X798067D01*
X793933Y722417D02*
Y724583D01*
X798067Y722417D02*
Y724583D01*
X803701Y729583D02*
X807835D01*
X803701Y727417D02*
X807835D01*
Y729583D01*
X803701Y727417D02*
Y729583D01*
X803701Y723417D02*
X807835D01*
X803701Y725583D02*
X807835D01*
X803701Y723417D02*
Y725583D01*
X807835Y723417D02*
Y725583D01*
X803701Y719417D02*
X807835D01*
X803701Y721583D02*
X807835D01*
X803701Y719417D02*
Y721583D01*
X807835Y719417D02*
Y721583D01*
X803701Y715417D02*
X807835D01*
X803701Y717583D02*
X807835D01*
X803701Y715417D02*
Y717583D01*
X807835Y715417D02*
Y717583D01*
X803701Y711417D02*
X807835D01*
X803701Y713583D02*
X807835D01*
X803701Y711417D02*
Y713583D01*
X807835Y711417D02*
Y713583D01*
X800433Y709083D02*
X804567D01*
X800433Y706917D02*
X804567D01*
Y709083D01*
X800433Y706917D02*
Y709083D01*
X820433D02*
X824567D01*
X820433Y706917D02*
X824567D01*
Y709083D01*
X820433Y706917D02*
Y709083D01*
X816933Y711417D02*
X821067D01*
X816933Y713583D02*
X821067D01*
X816933Y711417D02*
Y713583D01*
X821067Y711417D02*
Y713583D01*
X816933Y715417D02*
X821067D01*
X816933Y717583D02*
X821067D01*
X816933Y715417D02*
Y717583D01*
X821067Y715417D02*
Y717583D01*
X816933Y719417D02*
X821067D01*
X816933Y721583D02*
X821067D01*
X816933Y719417D02*
Y721583D01*
X821067Y719417D02*
Y721583D01*
X816933Y723417D02*
X821067D01*
X816933Y725583D02*
X821067D01*
X816933Y723417D02*
Y725583D01*
X821067Y723417D02*
Y725583D01*
X816933Y729583D02*
X821067D01*
X816933Y727417D02*
X821067D01*
Y729583D01*
X816933Y727417D02*
Y729583D01*
X815417Y735433D02*
Y739567D01*
X817583Y735433D02*
Y739567D01*
X815417D02*
X817583D01*
X815417Y735433D02*
X817583D01*
X806917D02*
Y739567D01*
X809083Y735433D02*
Y739567D01*
X806917D02*
X809083D01*
X806917Y735433D02*
X809083D01*
X799083Y742933D02*
Y747067D01*
X796917Y742933D02*
Y747067D01*
Y742933D02*
X799083D01*
X796917Y747067D02*
X799083D01*
X804083Y742933D02*
Y747067D01*
X801917Y742933D02*
Y747067D01*
Y742933D02*
X804083D01*
X801917Y747067D02*
X804083D01*
X777417Y763665D02*
Y767799D01*
X779583Y763665D02*
Y767799D01*
X777417D02*
X779583D01*
X777417Y763665D02*
X779583D01*
X779583Y755433D02*
Y759567D01*
X777417Y755433D02*
Y759567D01*
Y755433D02*
X779583D01*
X777417Y759567D02*
X779583D01*
X791650Y757063D02*
Y764937D01*
X785350Y757063D02*
Y764937D01*
Y757063D02*
X791650D01*
X785350Y764937D02*
X791650D01*
X786933Y783083D02*
X791067D01*
X786933Y780917D02*
X791067D01*
Y783083D01*
X786933Y780917D02*
Y783083D01*
Y776417D02*
X791067D01*
X786933Y778583D02*
X791067D01*
X786933Y776417D02*
Y778583D01*
X791067Y776417D02*
Y778583D01*
X786933Y774083D02*
X791067D01*
X786933Y771917D02*
X791067D01*
Y774083D01*
X786933Y771917D02*
Y774083D01*
X964083Y771933D02*
Y776067D01*
X961917Y771933D02*
Y776067D01*
Y771933D02*
X964083D01*
X961917Y776067D02*
X964083D01*
X968583Y772165D02*
Y776299D01*
X966417Y772165D02*
Y776299D01*
Y772165D02*
X968583D01*
X966417Y776299D02*
X968583D01*
X973583Y771933D02*
Y776067D01*
X971417Y771933D02*
Y776067D01*
Y771933D02*
X973583D01*
X971417Y776067D02*
X973583D01*
X1076917Y842933D02*
Y847067D01*
X1079083Y842933D02*
Y847067D01*
X1076917D02*
X1079083D01*
X1076917Y842933D02*
X1079083D01*
X1084083Y842701D02*
Y846835D01*
X1081917Y842701D02*
Y846835D01*
Y842701D02*
X1084083D01*
X1081917Y846835D02*
X1084083D01*
X1079083Y851433D02*
Y855567D01*
X1076917Y851433D02*
Y855567D01*
Y851433D02*
X1079083D01*
X1076917Y855567D02*
X1079083D01*
X1083583Y851433D02*
Y855567D01*
X1081417Y851433D02*
Y855567D01*
Y851433D02*
X1083583D01*
X1081417Y855567D02*
X1083583D01*
X798933Y690917D02*
X803067D01*
X798933Y693083D02*
X803067D01*
Y690917D02*
Y693083D01*
X798933Y690917D02*
Y693083D01*
X815433Y690917D02*
X819567D01*
X815433Y693083D02*
X819567D01*
Y690917D02*
Y693083D01*
X815433Y690917D02*
Y693083D01*
X821417Y746067D02*
X823583D01*
X821417Y741933D02*
X823583D01*
X821417D02*
Y746067D01*
X823583Y741933D02*
Y746067D01*
X1077933Y804417D02*
Y806583D01*
X1082067Y804417D02*
Y806583D01*
X1077933Y804417D02*
X1082067D01*
X1077933Y806583D02*
X1082067D01*
X826417Y746067D02*
X828583D01*
X826417Y741933D02*
X828583D01*
X826417D02*
Y746067D01*
X828583Y741933D02*
Y746067D01*
X1105779Y522642D02*
Y533232D01*
X1099480D02*
X1105779D01*
X1099480Y522642D02*
X1105779D01*
X1099480D02*
Y533232D01*
X929773Y803696D02*
X931304Y805227D01*
X932696Y800773D02*
X934227Y802304D01*
X929773Y803696D02*
X932696Y800773D01*
X931304Y805227D02*
X934227Y802304D01*
X1071917Y565067D02*
X1074083D01*
X1071917Y560933D02*
X1074083D01*
X1071917D02*
Y565067D01*
X1074083Y560933D02*
Y565067D01*
X1071417Y585567D02*
X1073583D01*
X1071417Y581433D02*
X1073583D01*
X1071417D02*
Y585567D01*
X1073583Y581433D02*
Y585567D01*
X917273Y816696D02*
X918804Y818227D01*
X920196Y813773D02*
X921727Y815304D01*
X917273Y816696D02*
X920196Y813773D01*
X918804Y818227D02*
X921727Y815304D01*
X911273Y818804D02*
X912804Y817273D01*
X914196Y821727D02*
X915727Y820196D01*
X912804Y817273D02*
X915727Y820196D01*
X911273Y818804D02*
X914196Y821727D01*
X920773Y809304D02*
X922304Y807773D01*
X923696Y812227D02*
X925227Y810696D01*
X922304Y807773D02*
X925227Y810696D01*
X920773Y809304D02*
X923696Y812227D01*
X923773Y805804D02*
X925304Y804273D01*
X926696Y808727D02*
X928227Y807196D01*
X925304Y804273D02*
X928227Y807196D01*
X923773Y805804D02*
X926696Y808727D01*
X933273Y795804D02*
X934804Y794273D01*
X936196Y798727D02*
X937727Y797196D01*
X934804Y794273D02*
X937727Y797196D01*
X933273Y795804D02*
X936196Y798727D01*
X1078063Y793917D02*
Y796083D01*
X1082197Y793917D02*
Y796083D01*
X1078063Y793917D02*
X1082197D01*
X1078063Y796083D02*
X1082197D01*
X832933Y752917D02*
Y755083D01*
X837067Y752917D02*
Y755083D01*
X832933Y752917D02*
X837067D01*
X832933Y755083D02*
X837067D01*
X832665Y756917D02*
Y759083D01*
X836799Y756917D02*
Y759083D01*
X832665Y756917D02*
X836799D01*
X832665Y759083D02*
X836799D01*
X807917Y783933D02*
X810083D01*
X807917Y788067D02*
X810083D01*
Y783933D02*
Y788067D01*
X807917Y783933D02*
Y788067D01*
X832933Y760917D02*
Y763083D01*
X837067Y760917D02*
Y763083D01*
X832933Y760917D02*
X837067D01*
X832933Y763083D02*
X837067D01*
X1025917Y484437D02*
X1028083D01*
X1025917Y480303D02*
X1028083D01*
X1025917D02*
Y484437D01*
X1028083Y480303D02*
Y484437D01*
X940417Y484067D02*
X942583D01*
X940417Y479933D02*
X942583D01*
X940417D02*
Y484067D01*
X942583Y479933D02*
Y484067D01*
X984697Y608417D02*
Y610583D01*
X980563Y608417D02*
Y610583D01*
X984697D01*
X980563Y608417D02*
X984697D01*
X996295Y567406D02*
Y594965D01*
X968736D02*
X996295D01*
X968736Y567406D02*
Y594965D01*
Y567406D02*
X996295D01*
X994327D02*
X996295Y569374D01*
X801995Y753291D02*
Y777306D01*
X826010Y753291D02*
Y777306D01*
X801995D02*
X826010D01*
X801995Y753291D02*
X826010D01*
X1115685Y629362D02*
Y674638D01*
X1076315D02*
X1115685D01*
X1076315Y629362D02*
Y674638D01*
Y629362D02*
X1115685D01*
X870606Y714862D02*
Y735138D01*
X846394Y714862D02*
Y735138D01*
X870606D01*
X846394Y714862D02*
X870606D01*
X1099499Y828008D02*
Y858992D01*
X1099500D02*
X1119500D01*
X1119499Y828008D02*
Y858992D01*
X1099500Y828008D02*
X1119500D01*
D36*
X952878Y450776D02*
Y534634D01*
Y450776D02*
X1016028D01*
Y534634D01*
X952878D02*
X1016028D01*
M02*
