G04*
G04 #@! TF.GenerationSoftware,Altium Limited,Altium Designer,21.9.1 (22)*
G04*
G04 Layer_Color=32768*
%FSLAX25Y25*%
%MOIN*%
G70*
G04*
G04 #@! TF.SameCoordinates,3683F5DD-B2EF-4FE9-AD71-088996B23F6A*
G04*
G04*
G04 #@! TF.FilePolarity,Positive*
G04*
G01*
G75*
%ADD12C,0.00394*%
%ADD140C,0.00197*%
%ADD141C,0.00400*%
D12*
X1177417Y776000D02*
X1179583D01*
X1178500Y774917D02*
Y777083D01*
X1177532Y786000D02*
X1181468D01*
X1179500Y784031D02*
Y787968D01*
X1177917Y796500D02*
X1180083D01*
X1179000Y795417D02*
Y797583D01*
X1159000Y557287D02*
Y559453D01*
X1157917Y558370D02*
X1160083D01*
X1158500Y585417D02*
Y587583D01*
X1157417Y586500D02*
X1159583D01*
X1158000Y616417D02*
Y618583D01*
X1156917Y617500D02*
X1159083D01*
X1158000Y648917D02*
Y651083D01*
X1156917Y650000D02*
X1159083D01*
X945193Y446839D02*
Y538571D01*
X1023677D01*
Y446839D02*
Y538571D01*
X945193Y446839D02*
X1023677D01*
X1010917Y775000D02*
X1013083D01*
X1012000Y773917D02*
Y776083D01*
X990870Y789417D02*
Y791583D01*
X989787Y790500D02*
X991953D01*
X991370Y844417D02*
Y846583D01*
X990287Y845500D02*
X992453D01*
X990500Y824917D02*
Y827083D01*
X989417Y826000D02*
X991583D01*
X990500Y829917D02*
Y832083D01*
X989417Y831000D02*
X991583D01*
X963000Y552417D02*
Y554583D01*
X961917Y553500D02*
X964083D01*
X963500Y547917D02*
Y550083D01*
X962417Y549000D02*
X964583D01*
X969084Y551000D02*
X971249D01*
X970167Y549917D02*
Y552083D01*
X973917Y551000D02*
X976083D01*
X975000Y549917D02*
Y552083D01*
X978692Y550783D02*
X980857D01*
X979774Y549701D02*
Y551866D01*
X983525Y550783D02*
X985690D01*
X984608Y549701D02*
Y551866D01*
X988358Y550783D02*
X990524D01*
X989441Y549701D02*
Y551866D01*
X993251Y551000D02*
X995416D01*
X994333Y549917D02*
Y552083D01*
X998084Y551000D02*
X1000249D01*
X999167Y549917D02*
Y552083D01*
X1002917Y551000D02*
X1005083D01*
X1004000Y549917D02*
Y552083D01*
X974268Y608417D02*
Y610583D01*
X973185Y609500D02*
X975350D01*
X991000Y608417D02*
Y610583D01*
X989917Y609500D02*
X992083D01*
X974429Y624784D02*
X990571D01*
X974429Y610217D02*
X990571D01*
X974429D02*
Y624784D01*
X990571Y610217D02*
Y624784D01*
X952087Y594417D02*
Y596583D01*
X951004Y595500D02*
X953169D01*
X951870Y589976D02*
Y592142D01*
X950787Y591059D02*
X952953D01*
X952087Y585417D02*
Y587583D01*
X951004Y586500D02*
X953169D01*
X952087Y580917D02*
Y583083D01*
X951004Y582000D02*
X953169D01*
X952087Y576417D02*
Y578583D01*
X951004Y577500D02*
X953169D01*
X1019000Y552917D02*
Y555083D01*
X1017917Y554000D02*
X1020083D01*
X1019000Y557917D02*
Y560083D01*
X1017917Y559000D02*
X1020083D01*
X1019000Y562917D02*
Y565083D01*
X1017917Y564000D02*
X1020083D01*
X1019000Y567917D02*
Y570083D01*
X1017917Y569000D02*
X1020083D01*
X1019000Y572917D02*
Y575083D01*
X1017917Y574000D02*
X1020083D01*
X1019000Y577917D02*
Y580083D01*
X1017917Y579000D02*
X1020083D01*
X1019000Y582917D02*
Y585083D01*
X1017917Y584000D02*
X1020083D01*
X1019000Y587917D02*
Y590083D01*
X1017917Y589000D02*
X1020083D01*
X1019000Y592917D02*
Y595083D01*
X1017917Y594000D02*
X1020083D01*
X1019000Y597917D02*
Y600083D01*
X1017917Y599000D02*
X1020083D01*
X1019000Y602917D02*
Y605083D01*
X1017917Y604000D02*
X1020083D01*
X1019000Y607917D02*
Y610083D01*
X1017917Y609000D02*
X1020083D01*
X1106917Y562500D02*
X1109083D01*
X1108000Y561417D02*
Y563583D01*
X1111417Y562500D02*
X1113583D01*
X1112500Y561417D02*
Y563583D01*
X1106917Y553500D02*
X1109083D01*
X1108000Y552417D02*
Y554583D01*
X1107500Y508610D02*
X1157500D01*
X1107500D02*
Y542390D01*
X1157500D01*
Y508610D02*
Y542390D01*
X1088000Y547917D02*
Y550083D01*
X1086917Y549000D02*
X1089083D01*
X1088370Y552417D02*
Y554583D01*
X1087287Y553500D02*
X1089453D01*
X1079417Y552000D02*
X1081583D01*
X1080500Y550917D02*
Y553083D01*
X1074417Y552000D02*
X1076583D01*
X1075500Y550917D02*
Y553083D01*
X1074417Y543130D02*
X1076583D01*
X1075500Y542047D02*
Y544213D01*
X1079417Y543000D02*
X1081583D01*
X1080500Y541917D02*
Y544083D01*
X1046500Y504917D02*
Y507083D01*
X1045417Y506000D02*
X1047583D01*
X1057760Y501532D02*
Y505469D01*
X1055791Y503500D02*
X1059728D01*
X1068630Y502417D02*
Y504583D01*
X1067547Y503500D02*
X1069713D01*
X1079500Y501532D02*
Y505469D01*
X1077532Y503500D02*
X1081468D01*
X1091500Y504917D02*
Y507083D01*
X1090417Y506000D02*
X1092583D01*
X1091370Y499917D02*
Y502083D01*
X1090287Y501000D02*
X1092453D01*
X1101630Y513917D02*
Y516083D01*
X1100547Y515000D02*
X1102713D01*
X1090500Y573032D02*
Y576968D01*
X1088531Y575000D02*
X1092468D01*
X1092500Y622417D02*
Y624583D01*
X1091417Y623500D02*
X1093583D01*
X1081000Y610532D02*
Y614468D01*
X1079031Y612500D02*
X1082969D01*
X1094232Y753917D02*
Y756083D01*
X1093150Y755000D02*
X1095315D01*
X1094232Y749417D02*
Y751583D01*
X1093150Y750500D02*
X1095315D01*
X1094232Y744917D02*
Y747083D01*
X1093150Y746000D02*
X1095315D01*
X1094232Y740417D02*
Y742583D01*
X1093150Y741500D02*
X1095315D01*
X1094232Y735917D02*
Y738083D01*
X1093150Y737000D02*
X1095315D01*
X1102417Y734732D02*
X1104583D01*
X1103500Y733650D02*
Y735815D01*
X1103417Y723370D02*
X1105583D01*
X1104500Y722287D02*
Y724453D01*
X1108917Y723500D02*
X1111083D01*
X1110000Y722417D02*
Y724583D01*
X1095500Y718417D02*
Y720583D01*
X1094417Y719500D02*
X1096583D01*
X932917Y713000D02*
X935083D01*
X934000Y711917D02*
Y714083D01*
X937917Y713000D02*
X940083D01*
X939000Y711917D02*
Y714083D01*
X942917Y713000D02*
X945083D01*
X944000Y711917D02*
Y714083D01*
X965500Y758532D02*
Y762468D01*
X963531Y760500D02*
X967468D01*
X859000Y745532D02*
Y749469D01*
X857032Y747500D02*
X860968D01*
X873500Y755917D02*
Y758083D01*
X872417Y757000D02*
X874583D01*
X873630Y751417D02*
Y753583D01*
X872547Y752500D02*
X874713D01*
X873500Y746917D02*
Y749083D01*
X872417Y748000D02*
X874583D01*
X873500Y742417D02*
Y744583D01*
X872417Y743500D02*
X874583D01*
X840268Y731917D02*
Y734083D01*
X839185Y733000D02*
X841350D01*
X787917Y726000D02*
X790083D01*
X789000Y724917D02*
Y727083D01*
X783417Y726000D02*
X785583D01*
X784500Y724917D02*
Y727083D01*
X796000Y727417D02*
Y729583D01*
X794917Y728500D02*
X797083D01*
X796000Y722417D02*
Y724583D01*
X794917Y723500D02*
X797083D01*
X805768Y727417D02*
Y729583D01*
X804685Y728500D02*
X806850D01*
X805768Y723417D02*
Y725583D01*
X804685Y724500D02*
X806850D01*
X805768Y719417D02*
Y721583D01*
X804685Y720500D02*
X806850D01*
X805768Y715417D02*
Y717583D01*
X804685Y716500D02*
X806850D01*
X805768Y711417D02*
Y713583D01*
X804685Y712500D02*
X806850D01*
X802500Y706917D02*
Y709083D01*
X801417Y708000D02*
X803583D01*
X822500Y706917D02*
Y709083D01*
X821417Y708000D02*
X823583D01*
X819000Y711417D02*
Y713583D01*
X817917Y712500D02*
X820083D01*
X819000Y715417D02*
Y717583D01*
X817917Y716500D02*
X820083D01*
X819000Y719417D02*
Y721583D01*
X817917Y720500D02*
X820083D01*
X819000Y723417D02*
Y725583D01*
X817917Y724500D02*
X820083D01*
X819000Y727417D02*
Y729583D01*
X817917Y728500D02*
X820083D01*
X815417Y737500D02*
X817583D01*
X816500Y736417D02*
Y738583D01*
X806917Y737500D02*
X809083D01*
X808000Y736417D02*
Y738583D01*
X796917Y745000D02*
X799083D01*
X798000Y743917D02*
Y746083D01*
X801917Y745000D02*
X804083D01*
X803000Y743917D02*
Y746083D01*
X777417Y765732D02*
X779583D01*
X778500Y764650D02*
Y766815D01*
X777417Y757500D02*
X779583D01*
X778500Y756417D02*
Y758583D01*
X781216Y752929D02*
Y769071D01*
X795784Y752929D02*
Y769071D01*
X781216Y752929D02*
X795784D01*
X781216Y769071D02*
X795784D01*
X789000Y780917D02*
Y783083D01*
X787917Y782000D02*
X790083D01*
X789000Y776417D02*
Y778583D01*
X787917Y777500D02*
X790083D01*
X789000Y771917D02*
Y774083D01*
X787917Y773000D02*
X790083D01*
X961917Y774000D02*
X964083D01*
X963000Y772917D02*
Y775083D01*
X966417Y774232D02*
X968583D01*
X967500Y773150D02*
Y775315D01*
X971417Y774000D02*
X973583D01*
X972500Y772917D02*
Y775083D01*
X1076917Y845000D02*
X1079083D01*
X1078000Y843917D02*
Y846083D01*
X1081917Y844768D02*
X1084083D01*
X1083000Y843685D02*
Y845850D01*
X1076917Y853500D02*
X1079083D01*
X1078000Y852417D02*
Y854583D01*
X1081417Y853500D02*
X1083583D01*
X1082500Y852417D02*
Y854583D01*
X801000Y690917D02*
Y693083D01*
X799917Y692000D02*
X802083D01*
X817500Y690917D02*
Y693083D01*
X816417Y692000D02*
X818583D01*
X822500Y742917D02*
Y745083D01*
X821417Y744000D02*
X823583D01*
X1078917Y805500D02*
X1081083D01*
X1080000Y804417D02*
Y806583D01*
X827500Y742917D02*
Y745083D01*
X826417Y744000D02*
X828583D01*
X1100661Y527937D02*
X1104598D01*
X1102630Y525969D02*
Y529906D01*
X931234Y803766D02*
X932766Y802234D01*
X931234D02*
X932766Y803766D01*
X1073000Y561917D02*
Y564083D01*
X1071917Y563000D02*
X1074083D01*
X1072500Y582417D02*
Y584583D01*
X1071417Y583500D02*
X1073583D01*
X918734Y816766D02*
X920266Y815234D01*
X918734D02*
X920266Y816766D01*
X912734Y818734D02*
X914266Y820266D01*
X912734D02*
X914266Y818734D01*
X922234Y809234D02*
X923766Y810766D01*
X922234D02*
X923766Y809234D01*
X925234Y805734D02*
X926766Y807266D01*
X925234D02*
X926766Y805734D01*
X934734Y795734D02*
X936266Y797266D01*
X934734D02*
X936266Y795734D01*
X1079047Y795000D02*
X1081213D01*
X1080130Y793917D02*
Y796083D01*
X833917Y754000D02*
X836083D01*
X835000Y752917D02*
Y755083D01*
X833650Y758000D02*
X835815D01*
X834732Y756917D02*
Y759083D01*
X809000Y784917D02*
Y787083D01*
X807917Y786000D02*
X810083D01*
X833917Y762000D02*
X836083D01*
X835000Y760917D02*
Y763083D01*
X1027000Y481287D02*
Y483453D01*
X1025917Y482370D02*
X1028083D01*
X941500Y480917D02*
Y483083D01*
X940417Y482000D02*
X942583D01*
X981547Y609500D02*
X983713D01*
X982630Y608417D02*
Y610583D01*
X812034Y765298D02*
X815971D01*
X814002Y763330D02*
Y767267D01*
X856532Y725000D02*
X860468D01*
X858500Y723032D02*
Y726968D01*
X1033095Y834819D02*
X1037031D01*
X1035063Y832850D02*
Y836787D01*
D140*
X1174366Y773835D02*
Y778165D01*
X1182634Y773835D02*
Y778165D01*
X1174366Y773835D02*
X1182634D01*
X1174366Y778165D02*
X1182634D01*
X1184224Y780094D02*
Y791905D01*
X1174776Y780094D02*
Y791905D01*
Y780094D02*
X1184224D01*
X1174776Y791905D02*
X1184224D01*
X1174866Y794335D02*
Y798665D01*
X1183134Y794335D02*
Y798665D01*
X1174866Y794335D02*
X1183134D01*
X1174866Y798665D02*
X1183134D01*
X1156835Y562504D02*
X1161165D01*
X1156835Y554236D02*
X1161165D01*
X1156835D02*
Y562504D01*
X1161165Y554236D02*
Y562504D01*
X1156335Y582366D02*
X1160665D01*
X1156335Y590634D02*
X1160665D01*
Y582366D02*
Y590634D01*
X1156335Y582366D02*
Y590634D01*
X1155835Y613366D02*
X1160165D01*
X1155835Y621634D02*
X1160165D01*
Y613366D02*
Y621634D01*
X1155835Y613366D02*
Y621634D01*
Y645866D02*
X1160165D01*
X1155835Y654134D02*
X1160165D01*
Y645866D02*
Y654134D01*
X1155835Y645866D02*
Y654134D01*
X1009835Y770866D02*
Y779134D01*
X1014165Y770866D02*
Y779134D01*
X1009835D02*
X1014165D01*
X1009835Y770866D02*
X1014165D01*
X986736Y788335D02*
X995004D01*
X986736Y792665D02*
X995004D01*
X986736Y788335D02*
Y792665D01*
X995004Y788335D02*
Y792665D01*
X987236Y843335D02*
X995504D01*
X987236Y847665D02*
X995504D01*
X987236Y843335D02*
Y847665D01*
X995504Y843335D02*
Y847665D01*
X986366Y828165D02*
X994634D01*
X986366Y823835D02*
X994634D01*
Y828165D01*
X986366Y823835D02*
Y828165D01*
Y828835D02*
X994634D01*
X986366Y833165D02*
X994634D01*
X986366Y828835D02*
Y833165D01*
X994634Y828835D02*
Y833165D01*
X958866Y555665D02*
X967134D01*
X958866Y551335D02*
X967134D01*
Y555665D01*
X958866Y551335D02*
Y555665D01*
X959760Y547031D02*
X967240D01*
X959760Y550969D02*
X967240D01*
X959760Y547031D02*
Y550969D01*
X967240Y547031D02*
Y550969D01*
X968001Y546866D02*
Y555134D01*
X972332Y546866D02*
Y555134D01*
X968001D02*
X972332D01*
X968001Y546866D02*
X972332D01*
X977165D02*
Y555134D01*
X972835Y546866D02*
Y555134D01*
Y546866D02*
X977165D01*
X972835Y555134D02*
X977165D01*
X981743Y547043D02*
Y554524D01*
X977806Y547043D02*
Y554524D01*
Y547043D02*
X981743D01*
X977806Y554524D02*
X981743D01*
X986576Y547043D02*
Y554524D01*
X982639Y547043D02*
Y554524D01*
Y547043D02*
X986576D01*
X982639Y554524D02*
X986576D01*
X987472Y547043D02*
Y554524D01*
X991409Y547043D02*
Y554524D01*
X987472D02*
X991409D01*
X987472Y547043D02*
X991409D01*
X996499Y546866D02*
Y555134D01*
X992168Y546866D02*
Y555134D01*
Y546866D02*
X996499D01*
X992168Y555134D02*
X996499D01*
X1001332Y546866D02*
Y555134D01*
X997001Y546866D02*
Y555134D01*
Y546866D02*
X1001332D01*
X997001Y555134D02*
X1001332D01*
X1006165Y546866D02*
Y555134D01*
X1001835Y546866D02*
Y555134D01*
Y546866D02*
X1006165D01*
X1001835Y555134D02*
X1006165D01*
X970528Y607531D02*
X978008D01*
X970528Y611469D02*
X978008D01*
X970528Y607531D02*
Y611469D01*
X978008Y607531D02*
Y611469D01*
X987260Y611469D02*
X994740D01*
X987260Y607531D02*
X994740D01*
Y611469D01*
X987260Y607531D02*
Y611469D01*
X948347Y593532D02*
X955827D01*
X948347Y597469D02*
X955827D01*
X948347Y593532D02*
Y597469D01*
X955827Y593532D02*
Y597469D01*
X947736Y593224D02*
X956004D01*
X947736Y588894D02*
X956004D01*
Y593224D01*
X947736Y588894D02*
Y593224D01*
X948347Y588469D02*
X955827D01*
X948347Y584531D02*
X955827D01*
Y588469D01*
X948347Y584531D02*
Y588469D01*
Y583968D02*
X955827D01*
X948347Y580031D02*
X955827D01*
Y583968D01*
X948347Y580031D02*
Y583968D01*
Y579468D02*
X955827D01*
X948347Y575531D02*
X955827D01*
Y579468D01*
X948347Y575531D02*
Y579468D01*
X1014866Y556165D02*
X1023134D01*
X1014866Y551835D02*
X1023134D01*
Y556165D01*
X1014866Y551835D02*
Y556165D01*
Y556835D02*
X1023134D01*
X1014866Y561165D02*
X1023134D01*
X1014866Y556835D02*
Y561165D01*
X1023134Y556835D02*
Y561165D01*
X1014866Y566165D02*
X1023134D01*
X1014866Y561835D02*
X1023134D01*
Y566165D01*
X1014866Y561835D02*
Y566165D01*
Y566835D02*
X1023134D01*
X1014866Y571165D02*
X1023134D01*
X1014866Y566835D02*
Y571165D01*
X1023134Y566835D02*
Y571165D01*
X1014866Y576165D02*
X1023134D01*
X1014866Y571835D02*
X1023134D01*
Y576165D01*
X1014866Y571835D02*
Y576165D01*
Y576835D02*
X1023134D01*
X1014866Y581165D02*
X1023134D01*
X1014866Y576835D02*
Y581165D01*
X1023134Y576835D02*
Y581165D01*
X1014866Y581835D02*
X1023134D01*
X1014866Y586165D02*
X1023134D01*
X1014866Y581835D02*
Y586165D01*
X1023134Y581835D02*
Y586165D01*
X1014866Y586835D02*
X1023134D01*
X1014866Y591165D02*
X1023134D01*
X1014866Y586835D02*
Y591165D01*
X1023134Y586835D02*
Y591165D01*
X1014866Y591835D02*
X1023134D01*
X1014866Y596165D02*
X1023134D01*
X1014866Y591835D02*
Y596165D01*
X1023134Y591835D02*
Y596165D01*
X1014866Y596835D02*
X1023134D01*
X1014866Y601165D02*
X1023134D01*
X1014866Y596835D02*
Y601165D01*
X1023134Y596835D02*
Y601165D01*
X1014866Y601835D02*
X1023134D01*
X1014866Y606165D02*
X1023134D01*
X1014866Y601835D02*
Y606165D01*
X1023134Y601835D02*
Y606165D01*
X1014866Y606835D02*
X1023134D01*
X1014866Y611165D02*
X1023134D01*
X1014866Y606835D02*
Y611165D01*
X1023134Y606835D02*
Y611165D01*
X1105835Y558366D02*
Y566634D01*
X1110165Y558366D02*
Y566634D01*
X1105835D02*
X1110165D01*
X1105835Y558366D02*
X1110165D01*
X1110335D02*
Y566634D01*
X1114665Y558366D02*
Y566634D01*
X1110335D02*
X1114665D01*
X1110335Y558366D02*
X1114665D01*
X1106032Y549760D02*
Y557240D01*
X1109968Y549760D02*
Y557240D01*
X1106032D02*
X1109968D01*
X1106032Y549760D02*
X1109968D01*
X1084260Y550969D02*
X1091740D01*
X1084260Y547031D02*
X1091740D01*
Y550969D01*
X1084260Y547031D02*
Y550969D01*
X1084236Y555665D02*
X1092504D01*
X1084236Y551335D02*
X1092504D01*
Y555665D01*
X1084236Y551335D02*
Y555665D01*
X1078335Y547866D02*
Y556134D01*
X1082665Y547866D02*
Y556134D01*
X1078335D02*
X1082665D01*
X1078335Y547866D02*
X1082665D01*
X1077665D02*
Y556134D01*
X1073335Y547866D02*
Y556134D01*
Y547866D02*
X1077665D01*
X1073335Y556134D02*
X1077665D01*
Y538996D02*
Y547264D01*
X1073335Y538996D02*
Y547264D01*
Y538996D02*
X1077665D01*
X1073335Y547264D02*
X1077665D01*
X1078335Y538866D02*
Y547134D01*
X1082665Y538866D02*
Y547134D01*
X1078335D02*
X1082665D01*
X1078335Y538866D02*
X1082665D01*
X1042366Y503835D02*
X1050634D01*
X1042366Y508165D02*
X1050634D01*
X1042366Y503835D02*
Y508165D01*
X1050634Y503835D02*
Y508165D01*
X1051854Y498776D02*
X1063665D01*
X1051854Y508224D02*
X1063665D01*
X1051854Y498776D02*
Y508224D01*
X1063665Y498776D02*
Y508224D01*
X1064496Y505665D02*
X1072764D01*
X1064496Y501335D02*
X1072764D01*
Y505665D01*
X1064496Y501335D02*
Y505665D01*
X1073594Y508224D02*
X1085406D01*
X1073594Y498776D02*
X1085406D01*
Y508224D01*
X1073594Y498776D02*
Y508224D01*
X1087366Y508165D02*
X1095634D01*
X1087366Y503835D02*
X1095634D01*
Y508165D01*
X1087366Y503835D02*
Y508165D01*
X1087236Y498835D02*
X1095504D01*
X1087236Y503165D02*
X1095504D01*
X1087236Y498835D02*
Y503165D01*
X1095504Y498835D02*
Y503165D01*
X1097496Y517165D02*
X1105764D01*
X1097496Y512835D02*
X1105764D01*
Y517165D01*
X1097496Y512835D02*
Y517165D01*
X1075539Y557874D02*
X1105461D01*
X1075539Y592126D02*
X1105461D01*
Y557874D02*
Y592126D01*
X1075539Y557874D02*
Y592126D01*
X1088760Y621531D02*
X1096240D01*
X1088760Y625468D02*
X1096240D01*
X1088760Y621531D02*
Y625468D01*
X1096240Y621531D02*
Y625468D01*
X1075291Y601673D02*
X1086709D01*
X1075291Y623327D02*
X1086709D01*
Y601673D02*
Y623327D01*
X1075291Y601673D02*
Y623327D01*
X1090492Y753031D02*
X1097972D01*
X1090492Y756968D02*
X1097972D01*
X1090492Y753031D02*
Y756968D01*
X1097972Y753031D02*
Y756968D01*
X1090492Y748531D02*
X1097972D01*
X1090492Y752468D02*
X1097972D01*
X1090492Y748531D02*
Y752468D01*
X1097972Y748531D02*
Y752468D01*
X1090492Y744031D02*
X1097972D01*
X1090492Y747968D02*
X1097972D01*
X1090492Y744031D02*
Y747968D01*
X1097972Y744031D02*
Y747968D01*
X1090492Y739532D02*
X1097972D01*
X1090492Y743469D02*
X1097972D01*
X1090492Y739532D02*
Y743469D01*
X1097972Y739532D02*
Y743469D01*
X1090492Y735032D02*
X1097972D01*
X1090492Y738969D02*
X1097972D01*
X1090492Y735032D02*
Y738969D01*
X1097972Y735032D02*
Y738969D01*
X1105468Y730992D02*
Y738472D01*
X1101532Y730992D02*
Y738472D01*
Y730992D02*
X1105468D01*
X1101532Y738472D02*
X1105468D01*
X1106665Y719236D02*
Y727504D01*
X1102335Y719236D02*
Y727504D01*
Y719236D02*
X1106665D01*
X1102335Y727504D02*
X1106665D01*
X1107835Y719366D02*
Y727634D01*
X1112165Y719366D02*
Y727634D01*
X1107835D02*
X1112165D01*
X1107835Y719366D02*
X1112165D01*
X1091760Y717531D02*
X1099240D01*
X1091760Y721468D02*
X1099240D01*
X1091760Y717531D02*
Y721468D01*
X1099240Y717531D02*
Y721468D01*
X931835Y708866D02*
Y717134D01*
X936165Y708866D02*
Y717134D01*
X931835D02*
X936165D01*
X931835Y708866D02*
X936165D01*
X941165D02*
Y717134D01*
X936835Y708866D02*
Y717134D01*
Y708866D02*
X941165D01*
X936835Y717134D02*
X941165D01*
X946165Y708866D02*
Y717134D01*
X941835Y708866D02*
Y717134D01*
Y708866D02*
X946165D01*
X941835Y717134D02*
X946165D01*
X961957Y751878D02*
Y769122D01*
X969043Y751878D02*
Y769122D01*
X961957Y751878D02*
X969043D01*
X961957Y769122D02*
X969043D01*
X851126Y740610D02*
X866874D01*
X851126Y754390D02*
X866874D01*
X851126Y740610D02*
Y754390D01*
X866874Y740610D02*
Y754390D01*
X869366Y759165D02*
X877634D01*
X869366Y754835D02*
X877634D01*
Y759165D01*
X869366Y754835D02*
Y759165D01*
X869496Y754665D02*
X877764D01*
X869496Y750335D02*
X877764D01*
Y754665D01*
X869496Y750335D02*
Y754665D01*
X869366Y750165D02*
X877634D01*
X869366Y745835D02*
X877634D01*
Y750165D01*
X869366Y745835D02*
Y750165D01*
X869760Y745469D02*
X877240D01*
X869760Y741532D02*
X877240D01*
Y745469D01*
X869760Y741532D02*
Y745469D01*
X836528Y734969D02*
X844008D01*
X836528Y731032D02*
X844008D01*
Y734969D01*
X836528Y731032D02*
Y734969D01*
X786835Y721866D02*
Y730134D01*
X791165Y721866D02*
Y730134D01*
X786835D02*
X791165D01*
X786835Y721866D02*
X791165D01*
X786469Y722260D02*
Y729740D01*
X782531Y722260D02*
Y729740D01*
Y722260D02*
X786469D01*
X782531Y729740D02*
X786469D01*
X791866Y726335D02*
X800134D01*
X791866Y730665D02*
X800134D01*
X791866Y726335D02*
Y730665D01*
X800134Y726335D02*
Y730665D01*
X792260Y721531D02*
X799740D01*
X792260Y725468D02*
X799740D01*
X792260Y721531D02*
Y725468D01*
X799740Y721531D02*
Y725468D01*
X802028Y730469D02*
X809508D01*
X802028Y726532D02*
X809508D01*
Y730469D01*
X802028Y726532D02*
Y730469D01*
Y722532D02*
X809508D01*
X802028Y726469D02*
X809508D01*
X802028Y722532D02*
Y726469D01*
X809508Y722532D02*
Y726469D01*
X802028Y718532D02*
X809508D01*
X802028Y722469D02*
X809508D01*
X802028Y718532D02*
Y722469D01*
X809508Y718532D02*
Y722469D01*
X802028Y714532D02*
X809508D01*
X802028Y718469D02*
X809508D01*
X802028Y714532D02*
Y718469D01*
X809508Y714532D02*
Y718469D01*
X802028Y710532D02*
X809508D01*
X802028Y714468D02*
X809508D01*
X802028Y710532D02*
Y714468D01*
X809508Y710532D02*
Y714468D01*
X798366Y710165D02*
X806634D01*
X798366Y705835D02*
X806634D01*
Y710165D01*
X798366Y705835D02*
Y710165D01*
X818366D02*
X826634D01*
X818366Y705835D02*
X826634D01*
Y710165D01*
X818366Y705835D02*
Y710165D01*
X815260Y710532D02*
X822740D01*
X815260Y714468D02*
X822740D01*
X815260Y710532D02*
Y714468D01*
X822740Y710532D02*
Y714468D01*
X815260Y714532D02*
X822740D01*
X815260Y718469D02*
X822740D01*
X815260Y714532D02*
Y718469D01*
X822740Y714532D02*
Y718469D01*
X815260Y718532D02*
X822740D01*
X815260Y722469D02*
X822740D01*
X815260Y718532D02*
Y722469D01*
X822740Y718532D02*
Y722469D01*
X815260Y722532D02*
X822740D01*
X815260Y726469D02*
X822740D01*
X815260Y722532D02*
Y726469D01*
X822740Y722532D02*
Y726469D01*
X815260Y730469D02*
X822740D01*
X815260Y726532D02*
X822740D01*
Y730469D01*
X815260Y726532D02*
Y730469D01*
X814335Y733366D02*
Y741634D01*
X818665Y733366D02*
Y741634D01*
X814335D02*
X818665D01*
X814335Y733366D02*
X818665D01*
X805835D02*
Y741634D01*
X810165Y733366D02*
Y741634D01*
X805835D02*
X810165D01*
X805835Y733366D02*
X810165D01*
X799968Y741260D02*
Y748740D01*
X796032Y741260D02*
Y748740D01*
Y741260D02*
X799968D01*
X796032Y748740D02*
X799968D01*
X804968Y741260D02*
Y748740D01*
X801031Y741260D02*
Y748740D01*
Y741260D02*
X804968D01*
X801031Y748740D02*
X804968D01*
X776532Y761992D02*
Y769472D01*
X780469Y761992D02*
Y769472D01*
X776532D02*
X780469D01*
X776532Y761992D02*
X780469D01*
X780469Y753760D02*
Y761240D01*
X776532Y753760D02*
Y761240D01*
Y753760D02*
X780469D01*
X776532Y761240D02*
X780469D01*
X784866Y784165D02*
X793134D01*
X784866Y779835D02*
X793134D01*
Y784165D01*
X784866Y779835D02*
Y784165D01*
Y775335D02*
X793134D01*
X784866Y779665D02*
X793134D01*
X784866Y775335D02*
Y779665D01*
X793134Y775335D02*
Y779665D01*
X784866Y775165D02*
X793134D01*
X784866Y770835D02*
X793134D01*
Y775165D01*
X784866Y770835D02*
Y775165D01*
X964968Y770260D02*
Y777740D01*
X961032Y770260D02*
Y777740D01*
Y770260D02*
X964968D01*
X961032Y777740D02*
X964968D01*
X969468Y770492D02*
Y777972D01*
X965532Y770492D02*
Y777972D01*
Y770492D02*
X969468D01*
X965532Y777972D02*
X969468D01*
X974469Y770260D02*
Y777740D01*
X970531Y770260D02*
Y777740D01*
Y770260D02*
X974469D01*
X970531Y777740D02*
X974469D01*
X1075835Y840866D02*
Y849134D01*
X1080165Y840866D02*
Y849134D01*
X1075835D02*
X1080165D01*
X1075835Y840866D02*
X1080165D01*
X1084968Y841028D02*
Y848508D01*
X1081032Y841028D02*
Y848508D01*
Y841028D02*
X1084968D01*
X1081032Y848508D02*
X1084968D01*
X1079968Y849760D02*
Y857240D01*
X1076031Y849760D02*
Y857240D01*
Y849760D02*
X1079968D01*
X1076031Y857240D02*
X1079968D01*
X1084468Y849760D02*
Y857240D01*
X1080532Y849760D02*
Y857240D01*
Y849760D02*
X1084468D01*
X1080532Y857240D02*
X1084468D01*
X796866Y689835D02*
X805134D01*
X796866Y694165D02*
X805134D01*
Y689835D02*
Y694165D01*
X796866Y689835D02*
Y694165D01*
X813366Y689835D02*
X821634D01*
X813366Y694165D02*
X821634D01*
Y689835D02*
Y694165D01*
X813366Y689835D02*
Y694165D01*
X820531Y747740D02*
X824469D01*
X820531Y740260D02*
X824469D01*
X820531D02*
Y747740D01*
X824469Y740260D02*
Y747740D01*
X1075866Y803335D02*
Y807665D01*
X1084134Y803335D02*
Y807665D01*
X1075866Y803335D02*
X1084134D01*
X1075866Y807665D02*
X1084134D01*
X825531Y747740D02*
X829469D01*
X825531Y740260D02*
X829469D01*
X825531D02*
Y747740D01*
X829469Y740260D02*
Y747740D01*
X1106173Y519315D02*
Y536559D01*
X1099087D02*
X1106173D01*
X1099087Y519315D02*
X1106173D01*
X1099087D02*
Y536559D01*
X927546Y804392D02*
X930608Y807454D01*
X933392Y798546D02*
X936454Y801608D01*
X927546Y804392D02*
X933392Y798546D01*
X930608Y807454D02*
X936454Y801608D01*
X1071031Y566740D02*
X1074969D01*
X1071031Y559260D02*
X1074969D01*
X1071031D02*
Y566740D01*
X1074969Y559260D02*
Y566740D01*
X1070531Y587240D02*
X1074469D01*
X1070531Y579760D02*
X1074469D01*
X1070531D02*
Y587240D01*
X1074469Y579760D02*
Y587240D01*
X915046Y817392D02*
X918108Y820454D01*
X920892Y811546D02*
X923954Y814608D01*
X915046Y817392D02*
X920892Y811546D01*
X918108Y820454D02*
X923954Y814608D01*
X909463Y818247D02*
X912247Y815463D01*
X914753Y823537D02*
X917537Y820753D01*
X912247Y815463D02*
X917537Y820753D01*
X909463Y818247D02*
X914753Y823537D01*
X918963Y808747D02*
X921747Y805963D01*
X924253Y814037D02*
X927037Y811253D01*
X921747Y805963D02*
X927037Y811253D01*
X918963Y808747D02*
X924253Y814037D01*
X921963Y805247D02*
X924747Y802463D01*
X927253Y810537D02*
X930037Y807753D01*
X924747Y802463D02*
X930037Y807753D01*
X921963Y805247D02*
X927253Y810537D01*
X931463Y795247D02*
X934247Y792463D01*
X936753Y800537D02*
X939537Y797753D01*
X934247Y792463D02*
X939537Y797753D01*
X931463Y795247D02*
X936753Y800537D01*
X1075996Y792835D02*
Y797165D01*
X1084264Y792835D02*
Y797165D01*
X1075996Y792835D02*
X1084264D01*
X1075996Y797165D02*
X1084264D01*
X831260Y752032D02*
Y755969D01*
X838740Y752032D02*
Y755969D01*
X831260Y752032D02*
X838740D01*
X831260Y755969D02*
X838740D01*
X830992Y756032D02*
Y759969D01*
X838472Y756032D02*
Y759969D01*
X830992Y756032D02*
X838472D01*
X830992Y759969D02*
X838472D01*
X807032Y782260D02*
X810968D01*
X807032Y789740D02*
X810968D01*
Y782260D02*
Y789740D01*
X807032Y782260D02*
Y789740D01*
X831260Y760032D02*
Y763969D01*
X838740Y760032D02*
Y763969D01*
X831260Y760032D02*
X838740D01*
X831260Y763969D02*
X838740D01*
X1024835Y486504D02*
X1029165D01*
X1024835Y478236D02*
X1029165D01*
X1024835D02*
Y486504D01*
X1029165Y478236D02*
Y486504D01*
X939335Y486134D02*
X943665D01*
X939335Y477866D02*
X943665D01*
X939335D02*
Y486134D01*
X943665Y477866D02*
Y486134D01*
X986764Y607335D02*
Y611665D01*
X978496Y607335D02*
Y611665D01*
X986764D01*
X978496Y607335D02*
X986764D01*
X1003087Y560614D02*
Y601756D01*
X961945D02*
X1003087D01*
X961945Y560614D02*
Y601756D01*
Y560614D02*
X1003087D01*
X798254Y749550D02*
Y781046D01*
X829750Y749550D02*
Y781046D01*
X798254D02*
X829750D01*
X798254Y749550D02*
X829750D01*
X1117260Y626016D02*
Y677984D01*
X1074740D02*
X1117260D01*
X1074740Y626016D02*
Y677984D01*
Y626016D02*
X1117260D01*
X872791Y713779D02*
Y736221D01*
X844209Y713779D02*
Y736221D01*
X872791D01*
X844209Y713779D02*
X872791D01*
X1098614Y827122D02*
Y859878D01*
Y827122D02*
X1120386D01*
Y859878D01*
X1098614D02*
X1120386D01*
D141*
X999630Y885016D02*
X1070496D01*
Y784622D02*
Y885016D01*
X999630Y784622D02*
X1070496D01*
X999630D02*
Y885016D01*
M02*
