G04*
G04 #@! TF.GenerationSoftware,Altium Limited,Altium Designer,21.9.1 (22)*
G04*
G04 Layer_Color=32896*
%FSLAX25Y25*%
%MOIN*%
G70*
G04*
G04 #@! TF.SameCoordinates,3683F5DD-B2EF-4FE9-AD71-088996B23F6A*
G04*
G04*
G04 #@! TF.FilePolarity,Positive*
G04*
G01*
G75*
%ADD12C,0.00394*%
%ADD140C,0.00197*%
D12*
X953000Y605031D02*
Y608968D01*
X951031Y607000D02*
X954968D01*
X1097756Y552804D02*
X1101693D01*
X1099725Y550836D02*
Y554773D01*
X1097756Y543304D02*
X1101693D01*
X1099725Y541335D02*
Y545272D01*
X1131532Y472441D02*
X1135468D01*
X1133500Y470472D02*
Y474409D01*
X1111000Y584531D02*
Y588469D01*
X1109031Y586500D02*
X1112969D01*
X1093618Y729032D02*
X1097555D01*
X1095587Y727063D02*
Y731000D01*
X1094172Y686000D02*
X1098109D01*
X1096141Y684031D02*
Y687968D01*
X1094172Y695500D02*
X1098109D01*
X1096141Y693532D02*
Y697469D01*
X1094273Y705000D02*
X1098210D01*
X1096242Y703031D02*
Y706968D01*
X1094032Y713500D02*
X1097968D01*
X1096000Y711531D02*
Y715469D01*
X1070531Y729500D02*
X1074469D01*
X1072500Y727531D02*
Y731468D01*
X801500Y736031D02*
Y739968D01*
X799532Y738000D02*
X803469D01*
X826000Y735032D02*
Y738969D01*
X824032Y737000D02*
X827969D01*
X1109031Y607000D02*
X1112969D01*
X1111000Y605031D02*
Y608968D01*
D140*
X1068500Y465370D02*
Y469307D01*
X1066531Y467339D02*
X1070469D01*
M02*
