G04*
G04 #@! TF.GenerationSoftware,Altium Limited,Altium Designer,21.9.1 (22)*
G04*
G04 Layer_Color=255*
%FSLAX25Y25*%
%MOIN*%
G70*
G04*
G04 #@! TF.SameCoordinates,3683F5DD-B2EF-4FE9-AD71-088996B23F6A*
G04*
G04*
G04 #@! TF.FilePolarity,Positive*
G04*
G01*
G75*
%ADD14R,0.02756X0.02559*%
%ADD25R,0.08465X0.08465*%
%ADD26C,0.08465*%
%ADD47C,0.05400*%
%ADD48C,0.05906*%
%ADD49C,0.13780*%
%ADD50C,0.19685*%
%ADD51C,0.06398*%
%ADD52C,0.09626*%
%ADD53C,0.06024*%
%ADD54C,0.05693*%
%ADD55C,0.08268*%
G04:AMPARAMS|DCode=56|XSize=82.68mil|YSize=82.68mil|CornerRadius=20.67mil|HoleSize=0mil|Usage=FLASHONLY|Rotation=180.000|XOffset=0mil|YOffset=0mil|HoleType=Round|Shape=RoundedRectangle|*
%AMROUNDEDRECTD56*
21,1,0.08268,0.04134,0,0,180.0*
21,1,0.04134,0.08268,0,0,180.0*
1,1,0.04134,-0.02067,0.02067*
1,1,0.04134,0.02067,0.02067*
1,1,0.04134,0.02067,-0.02067*
1,1,0.04134,-0.02067,-0.02067*
%
%ADD56ROUNDEDRECTD56*%
%ADD57C,0.05512*%
%ADD58R,0.05512X0.05512*%
%ADD63R,0.02756X0.03543*%
%ADD64R,0.02559X0.02756*%
%ADD65R,0.02598X0.02441*%
%ADD66R,0.02441X0.02598*%
%ADD67R,0.02953X0.02756*%
%ADD68R,0.03937X0.04528*%
%ADD69R,0.03960X0.05151*%
%ADD70R,0.10236X0.04173*%
%ADD71R,0.22441X0.22173*%
%ADD72R,0.03543X0.02756*%
G04:AMPARAMS|DCode=73|XSize=118.11mil|YSize=165.35mil|CornerRadius=1.77mil|HoleSize=0mil|Usage=FLASHONLY|Rotation=90.000|XOffset=0mil|YOffset=0mil|HoleType=Round|Shape=RoundedRectangle|*
%AMROUNDEDRECTD73*
21,1,0.11811,0.16181,0,0,90.0*
21,1,0.11457,0.16535,0,0,90.0*
1,1,0.00354,0.08091,0.05728*
1,1,0.00354,0.08091,-0.05728*
1,1,0.00354,-0.08091,-0.05728*
1,1,0.00354,-0.08091,0.05728*
%
%ADD73ROUNDEDRECTD73*%
G04:AMPARAMS|DCode=74|XSize=17.72mil|YSize=62.99mil|CornerRadius=1.95mil|HoleSize=0mil|Usage=FLASHONLY|Rotation=0.000|XOffset=0mil|YOffset=0mil|HoleType=Round|Shape=RoundedRectangle|*
%AMROUNDEDRECTD74*
21,1,0.01772,0.05909,0,0,0.0*
21,1,0.01382,0.06299,0,0,0.0*
1,1,0.00390,0.00691,-0.02955*
1,1,0.00390,-0.00691,-0.02955*
1,1,0.00390,-0.00691,0.02955*
1,1,0.00390,0.00691,0.02955*
%
%ADD74ROUNDEDRECTD74*%
%ADD75R,0.05151X0.03960*%
%ADD76R,0.07480X0.06102*%
G04:AMPARAMS|DCode=77|XSize=26.38mil|YSize=11.81mil|CornerRadius=1.95mil|HoleSize=0mil|Usage=FLASHONLY|Rotation=0.000|XOffset=0mil|YOffset=0mil|HoleType=Round|Shape=RoundedRectangle|*
%AMROUNDEDRECTD77*
21,1,0.02638,0.00791,0,0,0.0*
21,1,0.02248,0.01181,0,0,0.0*
1,1,0.00390,0.01124,-0.00396*
1,1,0.00390,-0.01124,-0.00396*
1,1,0.00390,-0.01124,0.00396*
1,1,0.00390,0.01124,0.00396*
%
%ADD77ROUNDEDRECTD77*%
%ADD78R,0.04351X0.03961*%
%ADD79R,0.04803X0.03583*%
%ADD80R,0.04331X0.02559*%
%ADD81R,0.02756X0.02953*%
%ADD82R,0.07874X0.03543*%
G04:AMPARAMS|DCode=83|XSize=25.59mil|YSize=27.56mil|CornerRadius=0mil|HoleSize=0mil|Usage=FLASHONLY|Rotation=225.000|XOffset=0mil|YOffset=0mil|HoleType=Round|Shape=Rectangle|*
%AMROTATEDRECTD83*
4,1,4,-0.00070,0.01879,0.01879,-0.00070,0.00070,-0.01879,-0.01879,0.00070,-0.00070,0.01879,0.0*
%
%ADD83ROTATEDRECTD83*%

%ADD84R,0.11811X0.06890*%
%ADD85R,0.01575X0.01968*%
G04:AMPARAMS|DCode=86|XSize=24.41mil|YSize=25.98mil|CornerRadius=0mil|HoleSize=0mil|Usage=FLASHONLY|Rotation=315.000|XOffset=0mil|YOffset=0mil|HoleType=Round|Shape=Rectangle|*
%AMROTATEDRECTD86*
4,1,4,-0.01782,-0.00056,0.00056,0.01782,0.01782,0.00056,-0.00056,-0.01782,-0.01782,-0.00056,0.0*
%
%ADD86ROTATEDRECTD86*%

%ADD87O,0.03347X0.00787*%
%ADD88R,0.01181X0.05807*%
%ADD89R,0.05807X0.01181*%
%ADD90O,0.00787X0.03347*%
%ADD91R,0.03543X0.07874*%
%ADD92O,0.02362X0.07087*%
%ADD93R,0.08976X0.06000*%
%ADD94R,0.16142X0.16142*%
%ADD95O,0.07087X0.02362*%
%ADD96R,0.24528X0.26535*%
%ADD97R,0.12205X0.12205*%
%ADD98R,0.03780X0.01968*%
%ADD99R,0.10906X0.15354*%
%ADD100R,0.05236X0.05236*%
D14*
X1176630Y776000D02*
D03*
X1180370D02*
D03*
X1177130Y796500D02*
D03*
X1180870D02*
D03*
X989000Y790500D02*
D03*
X992740D02*
D03*
X989500Y845500D02*
D03*
X993240D02*
D03*
X992370Y826000D02*
D03*
X988630D02*
D03*
Y831000D02*
D03*
X992370D02*
D03*
X964870Y553500D02*
D03*
X961130D02*
D03*
X953740Y591059D02*
D03*
X950000D02*
D03*
X1020870Y554000D02*
D03*
X1017130D02*
D03*
Y559000D02*
D03*
X1020870D02*
D03*
Y564000D02*
D03*
X1017130D02*
D03*
Y569000D02*
D03*
X1020870D02*
D03*
Y574000D02*
D03*
X1017130D02*
D03*
Y579000D02*
D03*
X1020870D02*
D03*
X1017130Y584000D02*
D03*
X1020870D02*
D03*
X1017130Y589000D02*
D03*
X1020870D02*
D03*
X1017130Y594000D02*
D03*
X1020870D02*
D03*
X1017130Y599000D02*
D03*
X1020870D02*
D03*
X1017130Y604000D02*
D03*
X1020870D02*
D03*
X1017130Y609000D02*
D03*
X1020870D02*
D03*
X1090240Y553500D02*
D03*
X1086500D02*
D03*
X1044630Y506000D02*
D03*
X1048370D02*
D03*
X1070500Y503500D02*
D03*
X1066760D02*
D03*
X1093370Y506000D02*
D03*
X1089630D02*
D03*
X1089500Y501000D02*
D03*
X1093240D02*
D03*
X1103500Y515000D02*
D03*
X1099760D02*
D03*
X875370Y757000D02*
D03*
X871630D02*
D03*
X875500Y752500D02*
D03*
X871760D02*
D03*
X875370Y748000D02*
D03*
X871630D02*
D03*
X794130Y728500D02*
D03*
X797870D02*
D03*
X804370Y708000D02*
D03*
X800630D02*
D03*
X824370D02*
D03*
X820630D02*
D03*
X790870Y782000D02*
D03*
X787130D02*
D03*
Y777500D02*
D03*
X790870D02*
D03*
Y773000D02*
D03*
X787130D02*
D03*
X1078130Y805500D02*
D03*
X1081870D02*
D03*
X1078260Y795000D02*
D03*
X1082000D02*
D03*
X984500Y609500D02*
D03*
X980760D02*
D03*
D25*
X1143500Y488189D02*
D03*
D26*
X1123500D02*
D03*
D47*
X1166400Y748500D02*
D03*
X1191995D02*
D03*
D48*
X1176201Y644606D02*
D03*
Y654606D02*
D03*
Y613110D02*
D03*
Y623110D02*
D03*
Y581613D02*
D03*
Y591613D02*
D03*
Y550117D02*
D03*
Y560117D02*
D03*
D49*
X722298Y820000D02*
D03*
D50*
X1210487D02*
D03*
X1210500Y548359D02*
D03*
D51*
X961953Y492705D02*
D03*
X1006953D02*
D03*
D52*
X953961Y504713D02*
D03*
X1014945D02*
D03*
D53*
X958370Y473413D02*
D03*
X968370D02*
D03*
X1000535D02*
D03*
X1010535D02*
D03*
D54*
X966953Y527705D02*
D03*
X971953Y517705D02*
D03*
X976953Y527705D02*
D03*
X981953Y517705D02*
D03*
X986953Y527705D02*
D03*
X991953Y517705D02*
D03*
X996953Y527705D02*
D03*
X1001953Y517705D02*
D03*
D55*
X1061000Y480724D02*
D03*
D56*
X1076000D02*
D03*
D57*
X1104500Y853500D02*
D03*
X1114500Y843500D02*
D03*
X1104500D02*
D03*
X1114500Y833500D02*
D03*
X1104500D02*
D03*
D58*
X1114500Y853500D02*
D03*
D63*
X1179500Y782260D02*
D03*
X1182059Y789740D02*
D03*
X1176941D02*
D03*
D64*
X1159000Y560240D02*
D03*
Y556500D02*
D03*
X1158500Y584630D02*
D03*
Y588370D02*
D03*
X1158000Y615630D02*
D03*
Y619370D02*
D03*
Y648130D02*
D03*
Y651870D02*
D03*
X1012000Y776870D02*
D03*
Y773130D02*
D03*
X970167Y552870D02*
D03*
Y549130D02*
D03*
X975000D02*
D03*
Y552870D02*
D03*
X994333Y549130D02*
D03*
Y552870D02*
D03*
X999167Y549130D02*
D03*
Y552870D02*
D03*
X1004000Y549130D02*
D03*
Y552870D02*
D03*
X1108000Y564370D02*
D03*
Y560630D02*
D03*
X1112500Y564370D02*
D03*
Y560630D02*
D03*
X1080500Y553870D02*
D03*
Y550130D02*
D03*
X1075500D02*
D03*
Y553870D02*
D03*
Y541260D02*
D03*
Y545000D02*
D03*
X1080500Y544870D02*
D03*
Y541130D02*
D03*
X1104500Y721500D02*
D03*
Y725240D02*
D03*
X1110000Y725370D02*
D03*
Y721630D02*
D03*
X934000Y714870D02*
D03*
Y711130D02*
D03*
X939000D02*
D03*
Y714870D02*
D03*
X944000Y711130D02*
D03*
Y714870D02*
D03*
X789000Y727870D02*
D03*
Y724130D02*
D03*
X816500Y739370D02*
D03*
Y735630D02*
D03*
X808000Y739370D02*
D03*
Y735630D02*
D03*
X1078000Y846870D02*
D03*
Y843130D02*
D03*
X1027000Y484240D02*
D03*
Y480500D02*
D03*
X941500Y483870D02*
D03*
Y480130D02*
D03*
D65*
X961768Y549000D02*
D03*
X965232D02*
D03*
X972535Y609500D02*
D03*
X976000D02*
D03*
X992732D02*
D03*
X989268D02*
D03*
X950354Y595500D02*
D03*
X953819D02*
D03*
Y586500D02*
D03*
X950354D02*
D03*
X953819Y582000D02*
D03*
X950354D02*
D03*
X953819Y577500D02*
D03*
X950354D02*
D03*
X1089732Y549000D02*
D03*
X1086268D02*
D03*
X1094232Y623500D02*
D03*
X1090768D02*
D03*
X1092500Y755000D02*
D03*
X1095965D02*
D03*
X1092500Y750500D02*
D03*
X1095965D02*
D03*
X1092500Y746000D02*
D03*
X1095965D02*
D03*
X1092500Y741500D02*
D03*
X1095965D02*
D03*
X1092500Y737000D02*
D03*
X1095965D02*
D03*
X1093768Y719500D02*
D03*
X1097232D02*
D03*
X875232Y743500D02*
D03*
X871768D02*
D03*
X842000Y733000D02*
D03*
X838535D02*
D03*
X794268Y723500D02*
D03*
X797732D02*
D03*
X807500Y728500D02*
D03*
X804035D02*
D03*
Y724500D02*
D03*
X807500D02*
D03*
X804035Y720500D02*
D03*
X807500D02*
D03*
X804035Y716500D02*
D03*
X807500D02*
D03*
X804035Y712500D02*
D03*
X807500D02*
D03*
X817268D02*
D03*
X820732D02*
D03*
X817268Y716500D02*
D03*
X820732D02*
D03*
X817268Y720500D02*
D03*
X820732D02*
D03*
X817268Y724500D02*
D03*
X820732D02*
D03*
Y728500D02*
D03*
X817268D02*
D03*
X833268Y754000D02*
D03*
X836732D02*
D03*
X833000Y758000D02*
D03*
X836465D02*
D03*
X833268Y762000D02*
D03*
X836732D02*
D03*
D66*
X979774Y549051D02*
D03*
Y552516D02*
D03*
X984608Y549051D02*
D03*
Y552516D02*
D03*
X989441D02*
D03*
Y549051D02*
D03*
X1108000Y555232D02*
D03*
Y551768D02*
D03*
X1103500Y733000D02*
D03*
Y736465D02*
D03*
X784500Y724268D02*
D03*
Y727732D02*
D03*
X798000Y743268D02*
D03*
Y746732D02*
D03*
X803000Y743268D02*
D03*
Y746732D02*
D03*
X778500Y767465D02*
D03*
Y764000D02*
D03*
Y755768D02*
D03*
Y759232D02*
D03*
X963000Y772268D02*
D03*
Y775732D02*
D03*
X967500Y772500D02*
D03*
Y775965D02*
D03*
X972500Y772268D02*
D03*
Y775732D02*
D03*
X1083000Y843035D02*
D03*
Y846500D02*
D03*
X1078000Y851768D02*
D03*
Y855232D02*
D03*
X1082500Y851768D02*
D03*
Y855232D02*
D03*
X822500Y745732D02*
D03*
Y742268D02*
D03*
X827500Y745732D02*
D03*
Y742268D02*
D03*
X1073000Y564732D02*
D03*
Y561268D02*
D03*
X1072500Y585232D02*
D03*
Y581768D02*
D03*
X809000Y784268D02*
D03*
Y787732D02*
D03*
D67*
X979842Y615531D02*
D03*
X985157D02*
D03*
Y619468D02*
D03*
X979842D02*
D03*
D68*
X953000Y611626D02*
D03*
Y602374D02*
D03*
D69*
X1096866Y552804D02*
D03*
X1102584D02*
D03*
X1096866Y543304D02*
D03*
X1102584D02*
D03*
X1093282Y686000D02*
D03*
X1099000D02*
D03*
X1093282Y695500D02*
D03*
X1099000D02*
D03*
D70*
X1116555Y534500D02*
D03*
Y516500D02*
D03*
D71*
X1142342Y525500D02*
D03*
D72*
X1054020Y500941D02*
D03*
Y506059D02*
D03*
X1061500Y503500D02*
D03*
X1083240Y506059D02*
D03*
Y500941D02*
D03*
X1075760Y503500D02*
D03*
D73*
X1090500Y575000D02*
D03*
D74*
X1099457Y562992D02*
D03*
X1096898D02*
D03*
X1094339D02*
D03*
X1091780D02*
D03*
X1086661D02*
D03*
X1078984D02*
D03*
X1099457Y587008D02*
D03*
X1096898D02*
D03*
X1094339D02*
D03*
X1086661D02*
D03*
X1084102D02*
D03*
X1081543D02*
D03*
X1102016Y562992D02*
D03*
X1089221Y587008D02*
D03*
X1091780D02*
D03*
X1102016D02*
D03*
X1081543Y562992D02*
D03*
X1078984Y587008D02*
D03*
X1084102Y562992D02*
D03*
X1089221D02*
D03*
D75*
X1111000Y583641D02*
D03*
Y589359D02*
D03*
D76*
X1081000Y606693D02*
D03*
Y618307D02*
D03*
D77*
X1092673Y727063D02*
D03*
Y729032D02*
D03*
Y731000D02*
D03*
X1098500D02*
D03*
Y729032D02*
D03*
Y727063D02*
D03*
D78*
X1099000Y705000D02*
D03*
X1093484D02*
D03*
X1098758Y713500D02*
D03*
X1093242D02*
D03*
D79*
X965500Y766937D02*
D03*
Y754063D02*
D03*
X1102630Y521500D02*
D03*
Y534374D02*
D03*
D80*
X854276Y751240D02*
D03*
Y747500D02*
D03*
Y743760D02*
D03*
X863724D02*
D03*
Y747500D02*
D03*
Y751240D02*
D03*
D81*
X790469Y758343D02*
D03*
Y763658D02*
D03*
X786531D02*
D03*
Y758343D02*
D03*
D82*
X1068528Y790528D02*
D03*
Y805528D02*
D03*
X1001598Y815528D02*
D03*
Y850528D02*
D03*
Y820528D02*
D03*
Y795528D02*
D03*
X1068528Y810528D02*
D03*
X1001598Y845528D02*
D03*
Y830528D02*
D03*
X1068528Y795528D02*
D03*
Y820528D02*
D03*
Y850528D02*
D03*
X1001598Y810528D02*
D03*
X1068528Y800528D02*
D03*
X1001598Y805528D02*
D03*
Y800528D02*
D03*
X1068528Y840528D02*
D03*
Y835528D02*
D03*
Y815528D02*
D03*
Y825528D02*
D03*
Y830528D02*
D03*
Y845528D02*
D03*
Y855528D02*
D03*
X1001598D02*
D03*
Y840528D02*
D03*
Y835528D02*
D03*
Y825528D02*
D03*
Y790528D02*
D03*
D83*
X930678Y804322D02*
D03*
X933322Y801678D02*
D03*
X918178Y817322D02*
D03*
X920822Y814678D02*
D03*
D84*
X1072500Y742787D02*
D03*
Y716213D02*
D03*
D85*
X799925Y738000D02*
D03*
X803075D02*
D03*
X827575Y737000D02*
D03*
X824425D02*
D03*
D86*
X912275Y818275D02*
D03*
X914725Y820725D02*
D03*
X921775Y808775D02*
D03*
X924225Y811225D02*
D03*
X924775Y805275D02*
D03*
X927225Y807725D02*
D03*
X934275Y795275D02*
D03*
X936725Y797725D02*
D03*
D87*
X801896Y764314D02*
D03*
Y762346D02*
D03*
X826109Y758409D02*
D03*
Y766283D02*
D03*
Y764314D02*
D03*
Y760377D02*
D03*
X801896Y770220D02*
D03*
Y768251D02*
D03*
Y766283D02*
D03*
X826109Y762346D02*
D03*
Y756440D02*
D03*
X801896D02*
D03*
X826109Y768251D02*
D03*
Y770220D02*
D03*
Y772188D02*
D03*
Y774157D02*
D03*
X801896D02*
D03*
Y772188D02*
D03*
Y760377D02*
D03*
Y758409D02*
D03*
D88*
X983500Y597870D02*
D03*
X981532D02*
D03*
X973658Y564500D02*
D03*
X979563D02*
D03*
X987437D02*
D03*
X991374D02*
D03*
X993342D02*
D03*
X987437Y597870D02*
D03*
X991374D02*
D03*
X989406D02*
D03*
X983500Y564500D02*
D03*
X985468D02*
D03*
X975626D02*
D03*
X971689Y597870D02*
D03*
X979563D02*
D03*
X977594Y564500D02*
D03*
X989406D02*
D03*
X975626Y597870D02*
D03*
X977594D02*
D03*
X985468D02*
D03*
X993342D02*
D03*
X981532Y564500D02*
D03*
X971689D02*
D03*
X973658Y597870D02*
D03*
D89*
X965831Y586106D02*
D03*
Y578232D02*
D03*
Y574295D02*
D03*
Y588075D02*
D03*
X999201Y580201D02*
D03*
Y578232D02*
D03*
Y576264D02*
D03*
Y582169D02*
D03*
Y584138D02*
D03*
Y586106D02*
D03*
Y588075D02*
D03*
Y590043D02*
D03*
X965831D02*
D03*
Y584138D02*
D03*
X999201Y570358D02*
D03*
X965831Y582169D02*
D03*
Y576264D02*
D03*
Y572327D02*
D03*
X999201Y592012D02*
D03*
X965831Y570358D02*
D03*
Y580201D02*
D03*
Y592012D02*
D03*
X999201Y574295D02*
D03*
Y572327D02*
D03*
D90*
X822861Y777405D02*
D03*
X820892D02*
D03*
X814987D02*
D03*
X813018D02*
D03*
Y753192D02*
D03*
X816955D02*
D03*
X814987D02*
D03*
X809081Y777405D02*
D03*
Y753192D02*
D03*
X818924Y777405D02*
D03*
X816955D02*
D03*
X811050Y753192D02*
D03*
X818924D02*
D03*
X822861D02*
D03*
X811050Y777405D02*
D03*
X807113D02*
D03*
X805144D02*
D03*
Y753192D02*
D03*
X807113D02*
D03*
X820892D02*
D03*
D91*
X1052228Y786590D02*
D03*
X1017228D02*
D03*
X1012228D02*
D03*
X1042228D02*
D03*
X1037228D02*
D03*
X1032228D02*
D03*
X1027228D02*
D03*
X1022228D02*
D03*
X1047268D02*
D03*
X1057228D02*
D03*
D92*
X939484Y726189D02*
D03*
X943815D02*
D03*
X939484Y788000D02*
D03*
X943815D02*
D03*
X935153D02*
D03*
X930823D02*
D03*
X926492D02*
D03*
X922161D02*
D03*
X917831D02*
D03*
X913500D02*
D03*
X909169D02*
D03*
X904839D02*
D03*
X900508D02*
D03*
X896177D02*
D03*
Y726189D02*
D03*
X900508D02*
D03*
X904839D02*
D03*
X909169D02*
D03*
X913500D02*
D03*
X917831D02*
D03*
X922161D02*
D03*
X926492D02*
D03*
X930823D02*
D03*
X935153D02*
D03*
D93*
X1093047Y598024D02*
D03*
Y615976D02*
D03*
D94*
X814002Y765298D02*
D03*
D95*
X954642Y744102D02*
D03*
Y748433D02*
D03*
Y752764D02*
D03*
Y757094D02*
D03*
Y761425D02*
D03*
Y765756D02*
D03*
Y770087D02*
D03*
Y774417D02*
D03*
X885350D02*
D03*
Y770087D02*
D03*
Y765756D02*
D03*
Y761425D02*
D03*
Y757094D02*
D03*
Y752764D02*
D03*
Y748433D02*
D03*
Y744102D02*
D03*
Y739772D02*
D03*
X954642D02*
D03*
D96*
X1121177Y607000D02*
D03*
D97*
X1096000Y633102D02*
D03*
Y670898D02*
D03*
D98*
X869032Y732500D02*
D03*
Y727500D02*
D03*
Y722500D02*
D03*
Y717500D02*
D03*
X847968Y732500D02*
D03*
Y727500D02*
D03*
Y722500D02*
D03*
Y717500D02*
D03*
D99*
X858500Y725000D02*
D03*
D100*
X1039000Y826000D02*
D03*
Y833224D02*
D03*
X1046224D02*
D03*
X1031776Y826000D02*
D03*
Y833224D02*
D03*
X1046224Y825961D02*
D03*
Y818776D02*
D03*
X1039000D02*
D03*
X1031776D02*
D03*
M02*
