G04*
G04 #@! TF.GenerationSoftware,Altium Limited,Altium Designer,21.9.1 (22)*
G04*
G04 Layer_Color=65535*
%FSLAX25Y25*%
%MOIN*%
G70*
G04*
G04 #@! TF.SameCoordinates,B80F087D-8A9E-4AC8-8264-EFD115A8CABB*
G04*
G04*
G04 #@! TF.FilePolarity,Positive*
G04*
G01*
G75*
%ADD14C,0.00787*%
%ADD197C,0.00197*%
D14*
X58650Y-190209D02*
Y-178791D01*
X52350Y-190209D02*
X58650D01*
X52350D02*
Y-178791D01*
X58650D01*
X421295Y-238087D02*
X445705D01*
X421295D02*
Y-223913D01*
X445705D01*
Y-238087D02*
Y-223913D01*
X149035Y-129160D02*
Y-117324D01*
X154965D01*
Y-129160D02*
Y-117324D01*
X149035Y-129160D02*
X154965D01*
X125023Y-133221D02*
Y-121779D01*
Y-133221D02*
X141977D01*
Y-121779D01*
X125023D02*
X141977D01*
X206677Y-233921D02*
X220866D01*
X206677D02*
Y-224079D01*
X220866D01*
Y-233921D02*
Y-224079D01*
X182633Y-136336D02*
Y-124500D01*
X176703Y-136336D02*
X182633D01*
X176703D02*
Y-124500D01*
X182633D01*
X175352Y-136525D02*
Y-124690D01*
X169422Y-136525D02*
X175352D01*
X169422D02*
Y-124690D01*
X175352D01*
X179042Y-167650D02*
Y-134186D01*
Y-167650D02*
X213294D01*
Y-134186D01*
X179042D02*
X213294D01*
X190306Y-132457D02*
X198967D01*
Y-123205D01*
X190306D02*
X198967D01*
X190306Y-132457D02*
Y-123205D01*
X69221Y-239382D02*
X92646D01*
Y-189776D01*
X69221D02*
X92646D01*
X69221Y-239382D02*
Y-189776D01*
X150425Y-239827D02*
Y-218173D01*
Y-239827D02*
X178575D01*
Y-218173D01*
X150425D02*
X178575D01*
X142535Y-129160D02*
X148465D01*
Y-117324D01*
X142535D02*
X148465D01*
X142535Y-129160D02*
Y-117324D01*
X155535Y-129160D02*
X161465D01*
Y-117324D01*
X155535D02*
X161465D01*
X155535Y-129160D02*
Y-117324D01*
X111267Y-118507D02*
Y-106672D01*
X117197D01*
Y-118507D02*
Y-106672D01*
X111267Y-118507D02*
X117197D01*
X154035Y-116418D02*
Y-104582D01*
X159965D01*
Y-116418D02*
Y-104582D01*
X154035Y-116418D02*
X159965D01*
X147535D02*
Y-104582D01*
X153465D01*
Y-116418D02*
Y-104582D01*
X147535Y-116418D02*
X153465D01*
X117826Y-118601D02*
Y-106766D01*
X123756D01*
Y-118601D02*
Y-106766D01*
X117826Y-118601D02*
X123756D01*
X129035Y-82862D02*
Y-71445D01*
X122736Y-82862D02*
X129035D01*
X122736D02*
Y-71445D01*
X129035D01*
X63827Y-165673D02*
X92173D01*
X63827D02*
Y-119020D01*
X92173D01*
Y-165673D02*
Y-119020D01*
X121933Y-65024D02*
Y-42976D01*
Y-65024D02*
X151067D01*
Y-42976D01*
X121933D02*
X151067D01*
X142555Y-111555D02*
Y-93445D01*
X124445D02*
X142555D01*
X124445Y-111555D02*
Y-93445D01*
Y-111555D02*
X142555D01*
X262082Y-149465D02*
Y-143535D01*
Y-149465D02*
X273918D01*
Y-143535D01*
X262082D02*
X273918D01*
X262082Y-140965D02*
Y-135035D01*
Y-140965D02*
X273918D01*
Y-135035D01*
X262082D02*
X273918D01*
X229035Y-158582D02*
X234965D01*
X229035Y-170418D02*
Y-158582D01*
Y-170418D02*
X234965D01*
Y-158582D01*
X221754Y-158772D02*
X227684D01*
X221754Y-170607D02*
Y-158772D01*
Y-170607D02*
X227684D01*
Y-158772D01*
X231374Y-168268D02*
X265626D01*
Y-201732D02*
Y-168268D01*
X231374Y-201732D02*
X265626D01*
X231374D02*
Y-168268D01*
X271268Y-135126D02*
Y-100874D01*
X304732D01*
Y-135126D02*
Y-100874D01*
X271268Y-135126D02*
X304732D01*
X242638Y-166539D02*
Y-157287D01*
X251299D01*
Y-166539D02*
Y-157287D01*
X242638Y-166539D02*
X251299D01*
X261106Y-128605D02*
X270358D01*
X261106D02*
Y-119943D01*
X270358D01*
Y-128605D02*
Y-119943D01*
D197*
X258224Y-84878D02*
Y-57122D01*
X273776D01*
Y-84878D02*
Y-57122D01*
X258224Y-84878D02*
X273776D01*
M02*
