G04*
G04 #@! TF.GenerationSoftware,Altium Limited,Altium Designer,21.9.1 (22)*
G04*
G04 Layer_Color=0*
%FSLAX25Y25*%
%MOIN*%
G70*
G04*
G04 #@! TF.SameCoordinates,B80F087D-8A9E-4AC8-8264-EFD115A8CABB*
G04*
G04*
G04 #@! TF.FilePolarity,Positive*
G04*
G01*
G75*
%ADD11C,0.00394*%
%ADD12C,0.01000*%
%ADD13C,0.01968*%
%ADD160C,0.00500*%
%ADD197C,0.00197*%
D11*
X12531Y-56000D02*
X16468D01*
X14500Y-57968D02*
Y-54031D01*
X78787Y-62000D02*
X80953D01*
X79870Y-63083D02*
Y-60917D01*
X68032Y-76000D02*
X71969D01*
X70000Y-77969D02*
Y-74032D01*
X49500Y-12968D02*
Y-9031D01*
X47532Y-11000D02*
X51468D01*
X124917Y-100500D02*
X127083D01*
X126000Y-101583D02*
Y-99417D01*
X139917Y-104500D02*
X142083D01*
X141000Y-105583D02*
Y-103417D01*
D12*
X224000Y-207000D02*
X250500D01*
X234453Y-224000D02*
X239453D01*
X236953Y-226500D02*
Y-221500D01*
X224000Y-241000D02*
X250500D01*
Y-207000D01*
X224000Y-241000D02*
Y-207000D01*
D13*
X84642Y-27874D02*
G03*
X84642Y-27874I-984J0D01*
G01*
D160*
X8500Y-24000D02*
X13500D01*
X11000Y-26500D02*
Y-21500D01*
D197*
X25327Y-61709D02*
Y-50291D01*
X3673Y-61709D02*
Y-50291D01*
X25327D01*
X3673Y-61709D02*
X25327D01*
X84004Y-64165D02*
Y-59835D01*
X75736Y-64165D02*
Y-59835D01*
X84004D01*
X75736Y-64165D02*
X84004D01*
X57008Y-65764D02*
X82992D01*
X57008Y-86236D02*
X82992D01*
Y-65764D01*
X57008Y-86236D02*
Y-65764D01*
X43791Y-21827D02*
X55209D01*
X43791Y-173D02*
X55209D01*
Y-21827D02*
Y-173D01*
X43791Y-21827D02*
Y-173D01*
X127969Y-104240D02*
Y-96760D01*
X124031Y-104240D02*
Y-96760D01*
Y-104240D02*
X127969D01*
X124031Y-96760D02*
X127969D01*
X142968Y-108240D02*
Y-100760D01*
X139032Y-108240D02*
Y-100760D01*
Y-108240D02*
X142968D01*
X139032Y-100760D02*
X142968D01*
X55260Y-30524D02*
X72740D01*
Y-58476D02*
Y-30524D01*
X55260Y-58476D02*
X72740D01*
X55260D02*
Y-30524D01*
M02*
