M48
;Layer_Color=9474304
;FILE_FORMAT=2:5
INCH,LZ
;TYPE=PLATED
T1F00S00C0.01181
T3F00S00C0.03000
T4F00S00C0.03937
T5F00S00C0.04016
T6F00S00C0.12598
;TYPE=NON_PLATED
T7F00S00C0.02756
%
T01
X0312992Y0283465
X0324803
X0336614
X0348425
X034252Y0271654
X0330709
X0342751Y0299449
X0343251Y0305449
X0322251Y0303449
X0282751Y0306949
X0277559Y0283465
X0265748
X0253937
X0259842Y0295275
X0248031
Y0271654
X0259842
X0271654
X0283465
X0295275
X0307086
X023622
X0224409Y0295275
X023Y0308
X0224409Y0318898
X0225251Y0322449
X02365Y03235
X0245711Y0325449
X0254251Y0328449
X0251751Y0331016
X0256368Y0337292
X02405Y03415
X0231751Y0339449
X0228751Y0345949
X02215Y0345
X0241616Y03625
X0249366Y0365026
X0256751Y0365488
X0271654Y0366142
X0267386Y0375013
X0264251Y0383949
X0242126Y0377953
X0249211Y0312949
X0283465Y0318898
X0295275
X0307086
X0283465Y034252
X0312992Y0330709
X0318898Y0318898
X0330709
X0331751Y0314949
X034252Y0318898
T03
X0255936Y0316908
X0263936
X0271936
T04
X0299711Y0334949
X0294143Y0340517
T05
X0223751Y0366449
X0233751
Y0376449
X0223751
X0267211Y0357949
X0277211
Y0347949
X0267211
T06
X0230936Y0285408
X0297436Y0283408
T07
X0320558Y0288706
X0343314
M30
