G04*
G04 #@! TF.GenerationSoftware,Altium Limited,Altium Designer,21.9.1 (22)*
G04*
G04 Layer_Color=65535*
%FSLAX25Y25*%
%MOIN*%
G70*
G04*
G04 #@! TF.SameCoordinates,A7415FA3-026C-4748-ABA7-5A76E8C983D3*
G04*
G04*
G04 #@! TF.FilePolarity,Positive*
G04*
G01*
G75*
%ADD10C,0.00984*%
%ADD11C,0.01968*%
%ADD12C,0.01000*%
%ADD13C,0.00787*%
%ADD14C,0.00800*%
G36*
X220453Y318695D02*
Y318365D01*
X218230Y319389D01*
Y318043D01*
X217970D01*
Y319723D01*
X218148D01*
X220453Y318695D01*
D02*
G37*
G36*
Y316161D02*
X220228D01*
X219273Y317019D01*
X219269Y317023D01*
X219262Y317026D01*
X219254Y317038D01*
X219238Y317050D01*
X219196Y317085D01*
X219149Y317123D01*
X219091Y317166D01*
X219033Y317209D01*
X218974Y317251D01*
X218920Y317283D01*
X218912Y317286D01*
X218897Y317294D01*
X218870Y317306D01*
X218835Y317321D01*
X218792Y317333D01*
X218746Y317345D01*
X218695Y317352D01*
X218641Y317356D01*
X218637D01*
X218633D01*
X218610D01*
X218571Y317349D01*
X218528Y317341D01*
X218478Y317325D01*
X218424Y317306D01*
X218373Y317275D01*
X218323Y317236D01*
X218319Y317232D01*
X218303Y317217D01*
X218284Y317189D01*
X218257Y317155D01*
X218233Y317108D01*
X218214Y317057D01*
X218198Y316995D01*
X218195Y316926D01*
Y316902D01*
X218198Y316887D01*
X218202Y316844D01*
X218210Y316790D01*
X218230Y316732D01*
X218253Y316670D01*
X218284Y316611D01*
X218330Y316557D01*
X218338Y316553D01*
X218354Y316538D01*
X218385Y316518D01*
X218427Y316495D01*
X218478Y316468D01*
X218544Y316448D01*
X218618Y316433D01*
X218703Y316429D01*
Y316111D01*
X218699D01*
X218687D01*
X218668D01*
X218645Y316115D01*
X218618Y316119D01*
X218583Y316122D01*
X218505Y316138D01*
X218416Y316165D01*
X218369Y316184D01*
X218323Y316204D01*
X218276Y316231D01*
X218233Y316258D01*
X218187Y316293D01*
X218148Y316332D01*
X218144Y316336D01*
X218140Y316344D01*
X218129Y316355D01*
X218113Y316371D01*
X218098Y316394D01*
X218082Y316421D01*
X218063Y316452D01*
X218039Y316491D01*
X218020Y316530D01*
X218001Y316572D01*
X217985Y316623D01*
X217970Y316677D01*
X217954Y316732D01*
X217942Y316794D01*
X217939Y316856D01*
X217935Y316926D01*
Y316961D01*
X217939Y316984D01*
Y317011D01*
X217942Y317046D01*
X217958Y317123D01*
X217977Y317209D01*
X218012Y317302D01*
X218055Y317387D01*
X218086Y317430D01*
X218117Y317469D01*
X218121Y317473D01*
X218125Y317477D01*
X218136Y317488D01*
X218152Y317500D01*
X218167Y317515D01*
X218191Y317531D01*
X218245Y317570D01*
X218315Y317608D01*
X218400Y317639D01*
X218493Y317663D01*
X218548Y317667D01*
X218602Y317670D01*
X218606D01*
X218618D01*
X218641Y317667D01*
X218668Y317663D01*
X218703Y317655D01*
X218746Y317647D01*
X218792Y317632D01*
X218850Y317612D01*
X218909Y317589D01*
X218978Y317558D01*
X219048Y317519D01*
X219126Y317473D01*
X219207Y317422D01*
X219293Y317360D01*
X219382Y317286D01*
X219475Y317205D01*
X220197Y316541D01*
Y317787D01*
X220453D01*
Y316161D01*
D02*
G37*
G36*
X219685Y315789D02*
X219708D01*
X219735Y315781D01*
X219766Y315777D01*
X219805Y315765D01*
X219847Y315754D01*
X219890Y315742D01*
X219987Y315703D01*
X220088Y315653D01*
X220139Y315622D01*
X220185Y315587D01*
X220232Y315544D01*
X220274Y315502D01*
X220278Y315498D01*
X220282Y315490D01*
X220294Y315478D01*
X220309Y315459D01*
X220325Y315432D01*
X220340Y315405D01*
X220360Y315370D01*
X220379Y315331D01*
X220402Y315284D01*
X220422Y315238D01*
X220437Y315183D01*
X220453Y315125D01*
X220468Y315063D01*
X220480Y314997D01*
X220484Y314927D01*
X220488Y314854D01*
Y314834D01*
X220484Y314811D01*
Y314780D01*
X220476Y314745D01*
X220472Y314698D01*
X220461Y314652D01*
X220449Y314601D01*
X220433Y314543D01*
X220410Y314489D01*
X220387Y314427D01*
X220356Y314369D01*
X220321Y314310D01*
X220278Y314252D01*
X220228Y314198D01*
X220173Y314147D01*
X220170Y314144D01*
X220158Y314136D01*
X220142Y314124D01*
X220115Y314105D01*
X220084Y314085D01*
X220045Y314066D01*
X220003Y314039D01*
X219948Y314016D01*
X219894Y313992D01*
X219828Y313969D01*
X219758Y313946D01*
X219685Y313926D01*
X219603Y313907D01*
X219518Y313895D01*
X219425Y313888D01*
X219328Y313884D01*
X219091D01*
X219087D01*
X219075D01*
X219056D01*
X219033Y313888D01*
X219002D01*
X218967Y313891D01*
X218928Y313895D01*
X218885Y313899D01*
X218792Y313915D01*
X218687Y313938D01*
X218583Y313965D01*
X218482Y314008D01*
X218478D01*
X218470Y314016D01*
X218455Y314019D01*
X218439Y314031D01*
X218416Y314043D01*
X218392Y314058D01*
X218330Y314097D01*
X218268Y314147D01*
X218198Y314210D01*
X218136Y314279D01*
X218078Y314357D01*
Y314361D01*
X218071Y314369D01*
X218067Y314380D01*
X218055Y314396D01*
X218043Y314419D01*
X218032Y314442D01*
X218020Y314473D01*
X218004Y314508D01*
X217981Y314582D01*
X217958Y314671D01*
X217942Y314772D01*
X217935Y314881D01*
Y314920D01*
X217939Y314947D01*
X217942Y314982D01*
X217946Y315020D01*
X217954Y315063D01*
X217962Y315110D01*
X217989Y315211D01*
X218004Y315261D01*
X218028Y315315D01*
X218055Y315366D01*
X218082Y315420D01*
X218117Y315467D01*
X218156Y315513D01*
X218160Y315517D01*
X218167Y315525D01*
X218179Y315536D01*
X218195Y315552D01*
X218218Y315571D01*
X218245Y315591D01*
X218280Y315614D01*
X218315Y315637D01*
X218358Y315665D01*
X218404Y315688D01*
X218455Y315711D01*
X218509Y315734D01*
X218567Y315754D01*
X218629Y315769D01*
X218699Y315785D01*
X218769Y315793D01*
Y315467D01*
X218765D01*
X218757Y315463D01*
X218742D01*
X218718Y315459D01*
X218695Y315451D01*
X218668Y315447D01*
X218602Y315428D01*
X218532Y315401D01*
X218462Y315370D01*
X218392Y315331D01*
X218365Y315308D01*
X218338Y315280D01*
X218330Y315273D01*
X218315Y315253D01*
X218296Y315222D01*
X218268Y315176D01*
X218245Y315121D01*
X218222Y315052D01*
X218206Y314970D01*
X218202Y314881D01*
Y314850D01*
X218206Y314830D01*
X218210Y314803D01*
X218214Y314772D01*
X218230Y314702D01*
X218261Y314621D01*
X218276Y314582D01*
X218299Y314539D01*
X218327Y314501D01*
X218358Y314462D01*
X218392Y314423D01*
X218435Y314388D01*
X218439D01*
X218447Y314380D01*
X218459Y314372D01*
X218478Y314361D01*
X218501Y314349D01*
X218532Y314334D01*
X218567Y314318D01*
X218606Y314303D01*
X218649Y314283D01*
X218699Y314268D01*
X218753Y314252D01*
X218812Y314241D01*
X218878Y314229D01*
X218947Y314221D01*
X219021Y314217D01*
X219099Y314213D01*
X219339D01*
X219343D01*
X219359D01*
X219378D01*
X219405Y314217D01*
X219440D01*
X219479Y314221D01*
X219522Y314229D01*
X219572Y314233D01*
X219673Y314256D01*
X219782Y314283D01*
X219886Y314326D01*
X219937Y314349D01*
X219983Y314380D01*
X219987Y314384D01*
X219995Y314388D01*
X220007Y314400D01*
X220018Y314411D01*
X220057Y314450D01*
X220100Y314504D01*
X220146Y314570D01*
X220181Y314652D01*
X220197Y314698D01*
X220208Y314745D01*
X220216Y314799D01*
X220220Y314854D01*
Y314881D01*
X220216Y314900D01*
Y314920D01*
X220212Y314947D01*
X220204Y315009D01*
X220189Y315075D01*
X220170Y315145D01*
X220139Y315211D01*
X220100Y315269D01*
X220092Y315277D01*
X220076Y315292D01*
X220045Y315319D01*
X219999Y315350D01*
X219941Y315381D01*
X219906Y315397D01*
X219867Y315416D01*
X219824Y315428D01*
X219774Y315443D01*
X219723Y315455D01*
X219669Y315467D01*
Y315793D01*
X219673D01*
X219685Y315789D01*
D02*
G37*
G36*
X254887Y365704D02*
X254918Y365700D01*
X254953Y365692D01*
X254992Y365685D01*
X255035Y365673D01*
X255081Y365657D01*
X255128Y365642D01*
X255178Y365619D01*
X255225Y365592D01*
X255272Y365560D01*
X255318Y365522D01*
X255361Y365483D01*
X255403Y365432D01*
X255407Y365428D01*
X255411Y365421D01*
X255423Y365405D01*
X255438Y365382D01*
X255454Y365355D01*
X255469Y365320D01*
X255489Y365281D01*
X255512Y365234D01*
X255532Y365184D01*
X255551Y365126D01*
X255566Y365068D01*
X255582Y364998D01*
X255597Y364928D01*
X255609Y364850D01*
X255613Y364765D01*
X255617Y364680D01*
Y364587D01*
Y364583D01*
Y364579D01*
Y364556D01*
Y364517D01*
X255613Y364470D01*
X255609Y364408D01*
X255601Y364342D01*
X255594Y364264D01*
X255582Y364183D01*
X255566Y364098D01*
X255547Y364012D01*
X255524Y363923D01*
X255497Y363838D01*
X255462Y363752D01*
X255423Y363671D01*
X255380Y363597D01*
X255330Y363531D01*
X255326Y363527D01*
X255318Y363516D01*
X255299Y363500D01*
X255275Y363481D01*
X255244Y363454D01*
X255209Y363426D01*
X255163Y363395D01*
X255112Y363364D01*
X255058Y363333D01*
X254992Y363302D01*
X254922Y363271D01*
X254845Y363248D01*
X254759Y363225D01*
X254666Y363205D01*
X254569Y363194D01*
X254465Y363190D01*
X254406D01*
Y363457D01*
X254511D01*
X254538Y363461D01*
X254569Y363465D01*
X254608Y363469D01*
X254647Y363477D01*
X254693Y363485D01*
X254790Y363508D01*
X254887Y363543D01*
X254938Y363566D01*
X254984Y363589D01*
X255027Y363620D01*
X255070Y363655D01*
X255074Y363659D01*
X255078Y363663D01*
X255089Y363675D01*
X255105Y363694D01*
X255120Y363714D01*
X255136Y363741D01*
X255155Y363772D01*
X255178Y363807D01*
X255198Y363849D01*
X255217Y363896D01*
X255237Y363946D01*
X255256Y364001D01*
X255272Y364063D01*
X255283Y364133D01*
X255295Y364202D01*
X255299Y364280D01*
X255295Y364276D01*
X255283Y364261D01*
X255260Y364237D01*
X255233Y364210D01*
X255198Y364179D01*
X255159Y364148D01*
X255112Y364117D01*
X255062Y364090D01*
X255054Y364086D01*
X255039Y364078D01*
X255012Y364067D01*
X254973Y364055D01*
X254930Y364043D01*
X254880Y364032D01*
X254821Y364024D01*
X254763Y364020D01*
X254728D01*
X254686Y364024D01*
X254635Y364032D01*
X254577Y364047D01*
X254511Y364063D01*
X254449Y364090D01*
X254387Y364125D01*
X254379Y364129D01*
X254360Y364144D01*
X254333Y364167D01*
X254298Y364202D01*
X254255Y364241D01*
X254216Y364292D01*
X254173Y364354D01*
X254139Y364420D01*
Y364424D01*
X254135Y364427D01*
X254131Y364439D01*
X254127Y364455D01*
X254111Y364493D01*
X254096Y364548D01*
X254080Y364610D01*
X254065Y364684D01*
X254057Y364761D01*
X254053Y364846D01*
Y364850D01*
Y364858D01*
Y364870D01*
Y364889D01*
X254057Y364909D01*
Y364936D01*
X254065Y364994D01*
X254077Y365064D01*
X254092Y365141D01*
X254115Y365215D01*
X254146Y365293D01*
Y365297D01*
X254150Y365300D01*
X254166Y365328D01*
X254185Y365363D01*
X254216Y365405D01*
X254255Y365456D01*
X254302Y365506D01*
X254356Y365557D01*
X254418Y365599D01*
X254422D01*
X254426Y365603D01*
X254449Y365615D01*
X254484Y365634D01*
X254534Y365654D01*
X254592Y365673D01*
X254662Y365692D01*
X254740Y365704D01*
X254825Y365708D01*
X254860D01*
X254887Y365704D01*
D02*
G37*
G36*
X252637Y365669D02*
X252664D01*
X252699Y365665D01*
X252738Y365661D01*
X252777Y365654D01*
X252866Y365638D01*
X252963Y365611D01*
X253060Y365576D01*
X253157Y365529D01*
X253161D01*
X253169Y365522D01*
X253180Y365514D01*
X253200Y365502D01*
X253242Y365471D01*
X253297Y365425D01*
X253359Y365366D01*
X253425Y365297D01*
X253487Y365211D01*
X253541Y365118D01*
Y365114D01*
X253549Y365107D01*
X253553Y365091D01*
X253564Y365072D01*
X253572Y365048D01*
X253584Y365017D01*
X253595Y364982D01*
X253611Y364944D01*
X253623Y364901D01*
X253634Y364854D01*
X253658Y364753D01*
X253673Y364637D01*
X253681Y364513D01*
Y364354D01*
Y364350D01*
Y364338D01*
Y364319D01*
X253677Y364296D01*
Y364264D01*
X253673Y364230D01*
X253669Y364191D01*
X253665Y364144D01*
X253646Y364051D01*
X253623Y363946D01*
X253591Y363842D01*
X253545Y363737D01*
Y363733D01*
X253537Y363725D01*
X253529Y363714D01*
X253522Y363694D01*
X253506Y363671D01*
X253491Y363648D01*
X253444Y363585D01*
X253390Y363523D01*
X253324Y363454D01*
X253246Y363388D01*
X253157Y363329D01*
X253153D01*
X253145Y363322D01*
X253130Y363318D01*
X253114Y363306D01*
X253087Y363298D01*
X253060Y363287D01*
X253025Y363271D01*
X252990Y363260D01*
X252947Y363248D01*
X252905Y363232D01*
X252804Y363213D01*
X252691Y363197D01*
X252571Y363190D01*
X251884D01*
Y365673D01*
X252614D01*
X252637Y365669D01*
D02*
G37*
G36*
X221382Y324722D02*
X221417Y324718D01*
X221456Y324714D01*
X221499Y324706D01*
X221545Y324698D01*
X221646Y324671D01*
X221697Y324656D01*
X221751Y324632D01*
X221801Y324605D01*
X221856Y324578D01*
X221902Y324543D01*
X221949Y324504D01*
X221953Y324500D01*
X221960Y324493D01*
X221972Y324481D01*
X221988Y324465D01*
X222007Y324442D01*
X222026Y324415D01*
X222050Y324380D01*
X222073Y324345D01*
X222100Y324302D01*
X222123Y324256D01*
X222147Y324205D01*
X222170Y324151D01*
X222189Y324093D01*
X222205Y324031D01*
X222220Y323961D01*
X222228Y323891D01*
X221902D01*
Y323895D01*
X221898Y323903D01*
Y323918D01*
X221895Y323942D01*
X221887Y323965D01*
X221883Y323992D01*
X221864Y324058D01*
X221836Y324128D01*
X221805Y324198D01*
X221766Y324268D01*
X221743Y324295D01*
X221716Y324322D01*
X221708Y324330D01*
X221689Y324345D01*
X221658Y324364D01*
X221611Y324392D01*
X221557Y324415D01*
X221487Y324438D01*
X221406Y324454D01*
X221316Y324458D01*
X221285D01*
X221266Y324454D01*
X221239Y324450D01*
X221208Y324446D01*
X221138Y324430D01*
X221056Y324399D01*
X221018Y324384D01*
X220975Y324361D01*
X220936Y324334D01*
X220897Y324302D01*
X220859Y324268D01*
X220824Y324225D01*
Y324221D01*
X220816Y324213D01*
X220808Y324201D01*
X220796Y324182D01*
X220785Y324159D01*
X220769Y324128D01*
X220754Y324093D01*
X220738Y324054D01*
X220719Y324011D01*
X220703Y323961D01*
X220688Y323907D01*
X220676Y323849D01*
X220665Y323782D01*
X220657Y323713D01*
X220653Y323639D01*
X220649Y323561D01*
Y323321D01*
Y323317D01*
Y323301D01*
Y323282D01*
X220653Y323255D01*
Y323220D01*
X220657Y323181D01*
X220665Y323138D01*
X220668Y323088D01*
X220692Y322987D01*
X220719Y322879D01*
X220761Y322774D01*
X220785Y322723D01*
X220816Y322677D01*
X220820Y322673D01*
X220824Y322665D01*
X220835Y322653D01*
X220847Y322642D01*
X220886Y322603D01*
X220940Y322560D01*
X221006Y322514D01*
X221088Y322479D01*
X221134Y322463D01*
X221181Y322452D01*
X221235Y322444D01*
X221289Y322440D01*
X221316D01*
X221336Y322444D01*
X221355D01*
X221382Y322448D01*
X221444Y322456D01*
X221510Y322471D01*
X221580Y322491D01*
X221646Y322521D01*
X221704Y322560D01*
X221712Y322568D01*
X221728Y322584D01*
X221755Y322615D01*
X221786Y322661D01*
X221817Y322719D01*
X221832Y322754D01*
X221852Y322793D01*
X221864Y322836D01*
X221879Y322886D01*
X221891Y322937D01*
X221902Y322991D01*
X222228D01*
Y322987D01*
X222224Y322975D01*
Y322952D01*
X222217Y322925D01*
X222213Y322894D01*
X222201Y322855D01*
X222189Y322813D01*
X222178Y322770D01*
X222139Y322673D01*
X222089Y322572D01*
X222058Y322521D01*
X222023Y322475D01*
X221980Y322428D01*
X221937Y322386D01*
X221933Y322382D01*
X221926Y322378D01*
X221914Y322366D01*
X221895Y322351D01*
X221867Y322335D01*
X221840Y322320D01*
X221805Y322300D01*
X221766Y322281D01*
X221720Y322258D01*
X221673Y322238D01*
X221619Y322223D01*
X221561Y322207D01*
X221499Y322192D01*
X221433Y322180D01*
X221363Y322176D01*
X221289Y322172D01*
X221270D01*
X221247Y322176D01*
X221216D01*
X221181Y322184D01*
X221134Y322188D01*
X221088Y322200D01*
X221037Y322211D01*
X220979Y322227D01*
X220924Y322250D01*
X220862Y322273D01*
X220804Y322304D01*
X220746Y322339D01*
X220688Y322382D01*
X220634Y322432D01*
X220583Y322487D01*
X220579Y322491D01*
X220571Y322502D01*
X220560Y322518D01*
X220540Y322545D01*
X220521Y322576D01*
X220502Y322615D01*
X220474Y322657D01*
X220451Y322712D01*
X220428Y322766D01*
X220405Y322832D01*
X220381Y322902D01*
X220362Y322975D01*
X220342Y323057D01*
X220331Y323142D01*
X220323Y323235D01*
X220319Y323332D01*
Y323569D01*
Y323573D01*
Y323585D01*
Y323604D01*
X220323Y323627D01*
Y323658D01*
X220327Y323693D01*
X220331Y323732D01*
X220335Y323775D01*
X220350Y323868D01*
X220374Y323973D01*
X220401Y324077D01*
X220443Y324178D01*
Y324182D01*
X220451Y324190D01*
X220455Y324205D01*
X220467Y324221D01*
X220478Y324244D01*
X220494Y324268D01*
X220533Y324330D01*
X220583Y324392D01*
X220645Y324462D01*
X220715Y324524D01*
X220793Y324582D01*
X220796D01*
X220804Y324589D01*
X220816Y324593D01*
X220831Y324605D01*
X220855Y324617D01*
X220878Y324628D01*
X220909Y324640D01*
X220944Y324656D01*
X221018Y324679D01*
X221107Y324702D01*
X221208Y324718D01*
X221316Y324725D01*
X221355D01*
X221382Y324722D01*
D02*
G37*
G36*
X225379D02*
X225406D01*
X225441Y324718D01*
X225518Y324702D01*
X225604Y324683D01*
X225697Y324648D01*
X225782Y324605D01*
X225825Y324574D01*
X225864Y324543D01*
X225868Y324539D01*
X225871Y324535D01*
X225883Y324524D01*
X225895Y324508D01*
X225910Y324493D01*
X225926Y324469D01*
X225965Y324415D01*
X226003Y324345D01*
X226034Y324260D01*
X226058Y324167D01*
X226062Y324112D01*
X226065Y324058D01*
Y324054D01*
Y324043D01*
X226062Y324019D01*
X226058Y323992D01*
X226050Y323957D01*
X226042Y323914D01*
X226027Y323868D01*
X226007Y323810D01*
X225984Y323751D01*
X225953Y323682D01*
X225914Y323612D01*
X225868Y323534D01*
X225817Y323453D01*
X225755Y323367D01*
X225681Y323278D01*
X225600Y323185D01*
X224936Y322463D01*
X226182D01*
Y322207D01*
X224556D01*
Y322432D01*
X225414Y323387D01*
X225417Y323391D01*
X225421Y323398D01*
X225433Y323406D01*
X225445Y323422D01*
X225480Y323464D01*
X225518Y323511D01*
X225561Y323569D01*
X225604Y323627D01*
X225646Y323686D01*
X225677Y323740D01*
X225681Y323748D01*
X225689Y323763D01*
X225701Y323790D01*
X225716Y323825D01*
X225728Y323868D01*
X225740Y323914D01*
X225747Y323965D01*
X225751Y324019D01*
Y324023D01*
Y324027D01*
Y324050D01*
X225744Y324089D01*
X225736Y324132D01*
X225720Y324182D01*
X225701Y324236D01*
X225670Y324287D01*
X225631Y324337D01*
X225627Y324341D01*
X225611Y324357D01*
X225584Y324376D01*
X225550Y324403D01*
X225503Y324427D01*
X225452Y324446D01*
X225390Y324462D01*
X225321Y324465D01*
X225297D01*
X225282Y324462D01*
X225239Y324458D01*
X225185Y324450D01*
X225127Y324430D01*
X225064Y324407D01*
X225006Y324376D01*
X224952Y324330D01*
X224948Y324322D01*
X224933Y324306D01*
X224913Y324275D01*
X224890Y324233D01*
X224863Y324182D01*
X224843Y324116D01*
X224828Y324043D01*
X224824Y323957D01*
X224506D01*
Y323961D01*
Y323973D01*
Y323992D01*
X224510Y324015D01*
X224514Y324043D01*
X224517Y324077D01*
X224533Y324155D01*
X224560Y324244D01*
X224580Y324291D01*
X224599Y324337D01*
X224626Y324384D01*
X224653Y324427D01*
X224688Y324473D01*
X224727Y324512D01*
X224731Y324516D01*
X224739Y324520D01*
X224750Y324531D01*
X224766Y324547D01*
X224789Y324562D01*
X224816Y324578D01*
X224847Y324597D01*
X224886Y324621D01*
X224925Y324640D01*
X224968Y324659D01*
X225018Y324675D01*
X225072Y324690D01*
X225127Y324706D01*
X225189Y324718D01*
X225251Y324722D01*
X225321Y324725D01*
X225356D01*
X225379Y324722D01*
D02*
G37*
G36*
X223419D02*
X223446D01*
X223481Y324718D01*
X223559Y324702D01*
X223644Y324683D01*
X223738Y324648D01*
X223823Y324605D01*
X223866Y324574D01*
X223904Y324543D01*
X223908Y324539D01*
X223912Y324535D01*
X223924Y324524D01*
X223935Y324508D01*
X223951Y324493D01*
X223966Y324469D01*
X224005Y324415D01*
X224044Y324345D01*
X224075Y324260D01*
X224098Y324167D01*
X224102Y324112D01*
X224106Y324058D01*
Y324054D01*
Y324043D01*
X224102Y324019D01*
X224098Y323992D01*
X224091Y323957D01*
X224083Y323914D01*
X224067Y323868D01*
X224048Y323810D01*
X224025Y323751D01*
X223994Y323682D01*
X223955Y323612D01*
X223908Y323534D01*
X223858Y323453D01*
X223796Y323367D01*
X223722Y323278D01*
X223640Y323185D01*
X222977Y322463D01*
X224222D01*
Y322207D01*
X222597D01*
Y322432D01*
X223454Y323387D01*
X223458Y323391D01*
X223462Y323398D01*
X223474Y323406D01*
X223485Y323422D01*
X223520Y323464D01*
X223559Y323511D01*
X223602Y323569D01*
X223644Y323627D01*
X223687Y323686D01*
X223718Y323740D01*
X223722Y323748D01*
X223730Y323763D01*
X223741Y323790D01*
X223757Y323825D01*
X223769Y323868D01*
X223780Y323914D01*
X223788Y323965D01*
X223792Y324019D01*
Y324023D01*
Y324027D01*
Y324050D01*
X223784Y324089D01*
X223776Y324132D01*
X223761Y324182D01*
X223741Y324236D01*
X223710Y324287D01*
X223672Y324337D01*
X223668Y324341D01*
X223652Y324357D01*
X223625Y324376D01*
X223590Y324403D01*
X223544Y324427D01*
X223493Y324446D01*
X223431Y324462D01*
X223361Y324465D01*
X223338D01*
X223322Y324462D01*
X223280Y324458D01*
X223225Y324450D01*
X223167Y324430D01*
X223105Y324407D01*
X223047Y324376D01*
X222992Y324330D01*
X222989Y324322D01*
X222973Y324306D01*
X222954Y324275D01*
X222931Y324233D01*
X222903Y324182D01*
X222884Y324116D01*
X222868Y324043D01*
X222865Y323957D01*
X222546D01*
Y323961D01*
Y323973D01*
Y323992D01*
X222550Y324015D01*
X222554Y324043D01*
X222558Y324077D01*
X222573Y324155D01*
X222601Y324244D01*
X222620Y324291D01*
X222639Y324337D01*
X222667Y324384D01*
X222694Y324427D01*
X222729Y324473D01*
X222767Y324512D01*
X222771Y324516D01*
X222779Y324520D01*
X222791Y324531D01*
X222806Y324547D01*
X222830Y324562D01*
X222857Y324578D01*
X222888Y324597D01*
X222927Y324621D01*
X222965Y324640D01*
X223008Y324659D01*
X223059Y324675D01*
X223113Y324690D01*
X223167Y324706D01*
X223229Y324718D01*
X223291Y324722D01*
X223361Y324725D01*
X223396D01*
X223419Y324722D01*
D02*
G37*
G36*
X263612Y372510D02*
Y372506D01*
Y372495D01*
Y372476D01*
X263608Y372452D01*
X263604Y372421D01*
X263600Y372386D01*
X263592Y372351D01*
X263585Y372309D01*
X263558Y372216D01*
X263542Y372169D01*
X263519Y372122D01*
X263492Y372072D01*
X263464Y372025D01*
X263429Y371979D01*
X263391Y371936D01*
X263387Y371932D01*
X263379Y371928D01*
X263367Y371917D01*
X263352Y371901D01*
X263329Y371886D01*
X263301Y371866D01*
X263270Y371843D01*
X263235Y371824D01*
X263197Y371800D01*
X263150Y371777D01*
X263100Y371758D01*
X263049Y371738D01*
X262991Y371723D01*
X262929Y371707D01*
X262867Y371696D01*
X262797Y371688D01*
X262712Y371684D01*
X262673D01*
X262646Y371688D01*
X262611Y371692D01*
X262568Y371696D01*
X262525Y371703D01*
X262479Y371711D01*
X262374Y371738D01*
X262265Y371777D01*
X262211Y371800D01*
X262157Y371831D01*
X262106Y371862D01*
X262060Y371901D01*
X262056Y371905D01*
X262048Y371913D01*
X262036Y371924D01*
X262021Y371940D01*
X262005Y371963D01*
X261982Y371990D01*
X261963Y372025D01*
X261940Y372060D01*
X261916Y372099D01*
X261893Y372146D01*
X261874Y372196D01*
X261854Y372250D01*
X261839Y372309D01*
X261827Y372371D01*
X261819Y372437D01*
X261815Y372506D01*
Y374202D01*
X262141D01*
Y372518D01*
Y372514D01*
Y372506D01*
Y372491D01*
X262145Y372476D01*
Y372452D01*
X262149Y372425D01*
X262161Y372363D01*
X262176Y372297D01*
X262203Y372227D01*
X262238Y372161D01*
X262289Y372099D01*
X262297Y372091D01*
X262316Y372076D01*
X262351Y372053D01*
X262397Y372025D01*
X262456Y371998D01*
X262529Y371975D01*
X262615Y371959D01*
X262712Y371952D01*
X262739D01*
X262758Y371955D01*
X262782D01*
X262809Y371959D01*
X262871Y371971D01*
X262941Y371987D01*
X263010Y372014D01*
X263076Y372049D01*
X263138Y372099D01*
X263146Y372107D01*
X263162Y372126D01*
X263185Y372161D01*
X263212Y372208D01*
X263239Y372266D01*
X263263Y372336D01*
X263278Y372421D01*
X263286Y372514D01*
Y374202D01*
X263612D01*
Y372510D01*
D02*
G37*
G36*
X267340Y372553D02*
X267686D01*
Y372297D01*
X267340D01*
Y371719D01*
X267022D01*
Y372297D01*
X265893D01*
Y372479D01*
X267003Y374202D01*
X267340D01*
Y372553D01*
D02*
G37*
G36*
X265086Y371719D02*
X264768D01*
Y373822D01*
X264132Y373589D01*
Y373876D01*
X265036Y374214D01*
X265086D01*
Y371719D01*
D02*
G37*
G36*
X246317Y344765D02*
X246344Y344761D01*
X246379Y344757D01*
X246452Y344742D01*
X246538Y344715D01*
X246627Y344676D01*
X246670Y344653D01*
X246712Y344625D01*
X246755Y344590D01*
X246794Y344552D01*
X246798Y344548D01*
X246801Y344540D01*
X246813Y344529D01*
X246825Y344513D01*
X246840Y344490D01*
X246856Y344466D01*
X246871Y344435D01*
X246891Y344400D01*
X246910Y344362D01*
X246926Y344319D01*
X246957Y344222D01*
X246980Y344109D01*
X246984Y344051D01*
X246988Y343985D01*
Y343950D01*
X246984Y343927D01*
Y343896D01*
X246976Y343865D01*
X246972Y343826D01*
X246964Y343783D01*
X246941Y343694D01*
X246910Y343597D01*
X246864Y343504D01*
X246832Y343458D01*
X246801Y343415D01*
X246798Y343411D01*
X246794Y343407D01*
X246782Y343395D01*
X246767Y343380D01*
X246747Y343364D01*
X246724Y343345D01*
X246666Y343306D01*
X246596Y343267D01*
X246511Y343232D01*
X246410Y343205D01*
X246359Y343201D01*
X246301Y343198D01*
Y343516D01*
X246305D01*
X246309D01*
X246332Y343520D01*
X246371Y343524D01*
X246413Y343531D01*
X246464Y343547D01*
X246518Y343570D01*
X246569Y343597D01*
X246615Y343640D01*
X246619Y343648D01*
X246635Y343663D01*
X246650Y343690D01*
X246673Y343733D01*
X246693Y343780D01*
X246712Y343842D01*
X246728Y343908D01*
X246732Y343985D01*
Y344008D01*
X246728Y344024D01*
X246724Y344063D01*
X246716Y344113D01*
X246705Y344172D01*
X246681Y344230D01*
X246654Y344284D01*
X246615Y344335D01*
X246611Y344338D01*
X246592Y344354D01*
X246565Y344373D01*
X246526Y344396D01*
X246479Y344416D01*
X246417Y344435D01*
X246347Y344451D01*
X246270Y344455D01*
X246266D01*
X246262D01*
X246251D01*
X246235D01*
X246196Y344447D01*
X246146Y344439D01*
X246091Y344424D01*
X246037Y344400D01*
X245983Y344366D01*
X245936Y344323D01*
X245932Y344315D01*
X245917Y344300D01*
X245897Y344268D01*
X245874Y344226D01*
X245855Y344172D01*
X245831Y344106D01*
X245820Y344028D01*
X245812Y343939D01*
Y343702D01*
X245556D01*
Y343977D01*
X245548Y344016D01*
X245540Y344067D01*
X245529Y344121D01*
X245509Y344179D01*
X245482Y344237D01*
X245444Y344288D01*
X245440Y344292D01*
X245420Y344307D01*
X245397Y344327D01*
X245362Y344354D01*
X245315Y344377D01*
X245265Y344396D01*
X245203Y344412D01*
X245133Y344416D01*
X245129D01*
X245114D01*
X245094Y344412D01*
X245063Y344408D01*
X245032Y344404D01*
X244993Y344393D01*
X244955Y344381D01*
X244912Y344362D01*
X244873Y344338D01*
X244834Y344311D01*
X244795Y344276D01*
X244764Y344234D01*
X244733Y344183D01*
X244714Y344125D01*
X244699Y344059D01*
X244695Y343981D01*
Y343947D01*
X244702Y343912D01*
X244710Y343865D01*
X244726Y343814D01*
X244745Y343760D01*
X244776Y343706D01*
X244815Y343655D01*
X244819Y343652D01*
X244834Y343636D01*
X244862Y343617D01*
X244896Y343597D01*
X244939Y343574D01*
X244993Y343555D01*
X245056Y343539D01*
X245121Y343535D01*
Y343221D01*
X245118D01*
X245110D01*
X245094D01*
X245071Y343225D01*
X245048Y343229D01*
X245017Y343232D01*
X244951Y343248D01*
X244873Y343271D01*
X244792Y343310D01*
X244749Y343337D01*
X244710Y343364D01*
X244671Y343395D01*
X244633Y343434D01*
X244629Y343438D01*
X244625Y343446D01*
X244613Y343458D01*
X244601Y343473D01*
X244586Y343496D01*
X244570Y343520D01*
X244551Y343551D01*
X244532Y343586D01*
X244497Y343663D01*
X244466Y343756D01*
X244442Y343865D01*
X244439Y343919D01*
X244435Y343981D01*
Y344016D01*
X244439Y344040D01*
Y344071D01*
X244442Y344106D01*
X244458Y344183D01*
X244481Y344272D01*
X244512Y344362D01*
X244559Y344451D01*
X244590Y344494D01*
X244621Y344532D01*
X244625Y344536D01*
X244629Y344540D01*
X244640Y344552D01*
X244656Y344563D01*
X244675Y344579D01*
X244699Y344594D01*
X244726Y344614D01*
X244757Y344633D01*
X244830Y344672D01*
X244916Y344703D01*
X245021Y344726D01*
X245075Y344730D01*
X245137Y344734D01*
X245145D01*
X245164D01*
X245195Y344730D01*
X245238Y344722D01*
X245284Y344707D01*
X245339Y344691D01*
X245393Y344664D01*
X245451Y344629D01*
X245459Y344625D01*
X245475Y344610D01*
X245502Y344587D01*
X245537Y344556D01*
X245575Y344513D01*
X245610Y344462D01*
X245649Y344408D01*
X245680Y344342D01*
Y344346D01*
X245684Y344350D01*
X245688Y344362D01*
X245692Y344377D01*
X245707Y344412D01*
X245731Y344459D01*
X245758Y344509D01*
X245797Y344563D01*
X245839Y344614D01*
X245894Y344656D01*
X245901Y344660D01*
X245921Y344676D01*
X245952Y344691D01*
X245994Y344715D01*
X246049Y344734D01*
X246111Y344754D01*
X246185Y344765D01*
X246262Y344769D01*
X246266D01*
X246278D01*
X246293D01*
X246317Y344765D01*
D02*
G37*
G36*
X246953Y342003D02*
X244850D01*
X245083Y341366D01*
X244795D01*
X244458Y342270D01*
Y342321D01*
X246953D01*
Y342003D01*
D02*
G37*
G36*
X246219Y340843D02*
X246251Y340839D01*
X246285Y340835D01*
X246320Y340827D01*
X246363Y340819D01*
X246456Y340792D01*
X246503Y340776D01*
X246549Y340753D01*
X246600Y340726D01*
X246646Y340699D01*
X246693Y340664D01*
X246736Y340625D01*
X246739Y340621D01*
X246743Y340614D01*
X246755Y340602D01*
X246770Y340586D01*
X246786Y340563D01*
X246805Y340536D01*
X246829Y340505D01*
X246848Y340470D01*
X246871Y340431D01*
X246895Y340385D01*
X246914Y340334D01*
X246933Y340284D01*
X246949Y340226D01*
X246964Y340163D01*
X246976Y340101D01*
X246984Y340032D01*
X246988Y339946D01*
Y339907D01*
X246984Y339880D01*
X246980Y339845D01*
X246976Y339803D01*
X246968Y339760D01*
X246961Y339713D01*
X246933Y339609D01*
X246895Y339500D01*
X246871Y339446D01*
X246840Y339391D01*
X246809Y339341D01*
X246770Y339294D01*
X246767Y339290D01*
X246759Y339283D01*
X246747Y339271D01*
X246732Y339255D01*
X246708Y339240D01*
X246681Y339217D01*
X246646Y339197D01*
X246611Y339174D01*
X246573Y339151D01*
X246526Y339127D01*
X246476Y339108D01*
X246421Y339089D01*
X246363Y339073D01*
X246301Y339061D01*
X246235Y339054D01*
X246165Y339050D01*
X244470D01*
Y339376D01*
X246153D01*
X246157D01*
X246165D01*
X246181D01*
X246196Y339380D01*
X246219D01*
X246247Y339384D01*
X246309Y339395D01*
X246375Y339411D01*
X246445Y339438D01*
X246511Y339473D01*
X246573Y339523D01*
X246580Y339531D01*
X246596Y339550D01*
X246619Y339585D01*
X246646Y339632D01*
X246673Y339690D01*
X246697Y339764D01*
X246712Y339849D01*
X246720Y339946D01*
Y339973D01*
X246716Y339993D01*
Y340016D01*
X246712Y340043D01*
X246701Y340105D01*
X246685Y340175D01*
X246658Y340245D01*
X246623Y340311D01*
X246573Y340373D01*
X246565Y340381D01*
X246545Y340396D01*
X246511Y340420D01*
X246464Y340447D01*
X246406Y340474D01*
X246336Y340497D01*
X246251Y340513D01*
X246157Y340520D01*
X244470D01*
Y340846D01*
X246161D01*
X246165D01*
X246177D01*
X246196D01*
X246219Y340843D01*
D02*
G37*
G36*
X229637Y301999D02*
Y301995D01*
Y301983D01*
Y301964D01*
X229633Y301940D01*
X229629Y301909D01*
X229625Y301875D01*
X229618Y301840D01*
X229610Y301797D01*
X229583Y301704D01*
X229567Y301657D01*
X229544Y301611D01*
X229517Y301560D01*
X229490Y301514D01*
X229455Y301467D01*
X229416Y301425D01*
X229412Y301421D01*
X229404Y301417D01*
X229393Y301405D01*
X229377Y301390D01*
X229354Y301374D01*
X229327Y301355D01*
X229296Y301331D01*
X229261Y301312D01*
X229222Y301289D01*
X229175Y301265D01*
X229125Y301246D01*
X229074Y301227D01*
X229016Y301211D01*
X228954Y301196D01*
X228892Y301184D01*
X228822Y301176D01*
X228737Y301172D01*
X228698D01*
X228671Y301176D01*
X228636Y301180D01*
X228593Y301184D01*
X228551Y301192D01*
X228504Y301200D01*
X228399Y301227D01*
X228291Y301265D01*
X228236Y301289D01*
X228182Y301320D01*
X228132Y301351D01*
X228085Y301390D01*
X228081Y301394D01*
X228073Y301401D01*
X228062Y301413D01*
X228046Y301428D01*
X228031Y301452D01*
X228007Y301479D01*
X227988Y301514D01*
X227965Y301549D01*
X227941Y301588D01*
X227918Y301634D01*
X227899Y301684D01*
X227879Y301739D01*
X227864Y301797D01*
X227852Y301859D01*
X227845Y301925D01*
X227841Y301995D01*
Y303690D01*
X228167D01*
Y302007D01*
Y302003D01*
Y301995D01*
Y301979D01*
X228170Y301964D01*
Y301940D01*
X228174Y301913D01*
X228186Y301851D01*
X228201Y301785D01*
X228229Y301715D01*
X228263Y301649D01*
X228314Y301588D01*
X228322Y301580D01*
X228341Y301564D01*
X228376Y301541D01*
X228423Y301514D01*
X228481Y301487D01*
X228555Y301463D01*
X228640Y301448D01*
X228737Y301440D01*
X228764D01*
X228783Y301444D01*
X228807D01*
X228834Y301448D01*
X228896Y301459D01*
X228966Y301475D01*
X229036Y301502D01*
X229102Y301537D01*
X229164Y301588D01*
X229171Y301595D01*
X229187Y301615D01*
X229210Y301649D01*
X229237Y301696D01*
X229264Y301754D01*
X229288Y301824D01*
X229303Y301909D01*
X229311Y302003D01*
Y303690D01*
X229637D01*
Y301999D01*
D02*
G37*
G36*
X232857Y303721D02*
X232885D01*
X232920Y303718D01*
X232997Y303702D01*
X233083Y303683D01*
X233176Y303648D01*
X233261Y303605D01*
X233304Y303574D01*
X233342Y303543D01*
X233346Y303539D01*
X233350Y303535D01*
X233362Y303524D01*
X233373Y303508D01*
X233389Y303492D01*
X233404Y303469D01*
X233443Y303415D01*
X233482Y303345D01*
X233513Y303260D01*
X233536Y303167D01*
X233540Y303112D01*
X233544Y303058D01*
Y303054D01*
Y303043D01*
X233540Y303019D01*
X233536Y302992D01*
X233529Y302957D01*
X233521Y302914D01*
X233505Y302868D01*
X233486Y302810D01*
X233463Y302751D01*
X233432Y302682D01*
X233393Y302612D01*
X233346Y302534D01*
X233296Y302453D01*
X233234Y302367D01*
X233160Y302278D01*
X233079Y302185D01*
X232415Y301463D01*
X233661D01*
Y301207D01*
X232035D01*
Y301432D01*
X232892Y302387D01*
X232896Y302391D01*
X232900Y302398D01*
X232912Y302406D01*
X232923Y302422D01*
X232958Y302464D01*
X232997Y302511D01*
X233040Y302569D01*
X233083Y302627D01*
X233125Y302685D01*
X233156Y302740D01*
X233160Y302748D01*
X233168Y302763D01*
X233179Y302790D01*
X233195Y302825D01*
X233207Y302868D01*
X233218Y302914D01*
X233226Y302965D01*
X233230Y303019D01*
Y303023D01*
Y303027D01*
Y303050D01*
X233222Y303089D01*
X233214Y303132D01*
X233199Y303182D01*
X233179Y303237D01*
X233148Y303287D01*
X233110Y303337D01*
X233106Y303341D01*
X233090Y303357D01*
X233063Y303376D01*
X233028Y303403D01*
X232982Y303427D01*
X232931Y303446D01*
X232869Y303462D01*
X232799Y303465D01*
X232776D01*
X232760Y303462D01*
X232718Y303458D01*
X232663Y303450D01*
X232605Y303431D01*
X232543Y303407D01*
X232485Y303376D01*
X232431Y303330D01*
X232427Y303322D01*
X232411Y303306D01*
X232392Y303275D01*
X232368Y303233D01*
X232341Y303182D01*
X232322Y303116D01*
X232306Y303043D01*
X232303Y302957D01*
X231984D01*
Y302961D01*
Y302973D01*
Y302992D01*
X231988Y303015D01*
X231992Y303043D01*
X231996Y303077D01*
X232012Y303155D01*
X232039Y303244D01*
X232058Y303291D01*
X232078Y303337D01*
X232105Y303384D01*
X232132Y303427D01*
X232167Y303473D01*
X232206Y303512D01*
X232209Y303516D01*
X232217Y303520D01*
X232229Y303531D01*
X232244Y303547D01*
X232268Y303562D01*
X232295Y303578D01*
X232326Y303597D01*
X232365Y303621D01*
X232403Y303640D01*
X232446Y303659D01*
X232497Y303675D01*
X232551Y303690D01*
X232605Y303706D01*
X232667Y303718D01*
X232729Y303721D01*
X232799Y303725D01*
X232834D01*
X232857Y303721D01*
D02*
G37*
G36*
X231111Y301207D02*
X230793D01*
Y303310D01*
X230157Y303077D01*
Y303364D01*
X231061Y303702D01*
X231111D01*
Y301207D01*
D02*
G37*
G36*
X259009Y347917D02*
X258008D01*
X257930Y347238D01*
X257934D01*
X257938Y347242D01*
X257950Y347250D01*
X257962Y347253D01*
X258000Y347273D01*
X258051Y347292D01*
X258113Y347312D01*
X258183Y347331D01*
X258260Y347343D01*
X258346Y347346D01*
X258377D01*
X258400Y347343D01*
X258431Y347339D01*
X258462Y347335D01*
X258540Y347319D01*
X258625Y347292D01*
X258668Y347273D01*
X258714Y347253D01*
X258757Y347226D01*
X258800Y347195D01*
X258842Y347160D01*
X258881Y347122D01*
X258885Y347118D01*
X258889Y347110D01*
X258900Y347098D01*
X258912Y347079D01*
X258928Y347059D01*
X258943Y347028D01*
X258963Y346997D01*
X258982Y346962D01*
X259001Y346920D01*
X259021Y346873D01*
X259036Y346823D01*
X259052Y346768D01*
X259063Y346710D01*
X259075Y346648D01*
X259079Y346582D01*
X259083Y346512D01*
Y346508D01*
Y346497D01*
Y346477D01*
X259079Y346450D01*
X259075Y346415D01*
X259071Y346380D01*
X259067Y346338D01*
X259056Y346291D01*
X259032Y346194D01*
X258994Y346093D01*
X258970Y346047D01*
X258943Y345996D01*
X258912Y345950D01*
X258873Y345907D01*
X258869Y345903D01*
X258865Y345899D01*
X258854Y345888D01*
X258835Y345872D01*
X258815Y345857D01*
X258788Y345837D01*
X258761Y345818D01*
X258726Y345798D01*
X258687Y345779D01*
X258644Y345760D01*
X258594Y345740D01*
X258543Y345725D01*
X258489Y345709D01*
X258431Y345697D01*
X258365Y345694D01*
X258299Y345690D01*
X258268D01*
X258245Y345694D01*
X258218D01*
X258183Y345701D01*
X258109Y345713D01*
X258024Y345736D01*
X257934Y345767D01*
X257845Y345814D01*
X257799Y345841D01*
X257760Y345872D01*
X257756Y345876D01*
X257752Y345880D01*
X257740Y345891D01*
X257729Y345907D01*
X257709Y345923D01*
X257694Y345946D01*
X257674Y345973D01*
X257655Y346004D01*
X257612Y346074D01*
X257574Y346163D01*
X257542Y346264D01*
X257531Y346318D01*
X257523Y346376D01*
X257822D01*
Y346373D01*
Y346369D01*
X257826Y346357D01*
X257830Y346342D01*
X257837Y346303D01*
X257853Y346256D01*
X257872Y346202D01*
X257899Y346148D01*
X257930Y346097D01*
X257973Y346051D01*
X257981Y346047D01*
X257996Y346035D01*
X258024Y346016D01*
X258062Y346000D01*
X258109Y345981D01*
X258163Y345961D01*
X258225Y345950D01*
X258299Y345946D01*
X258318D01*
X258334Y345950D01*
X258373Y345954D01*
X258423Y345965D01*
X258478Y345981D01*
X258536Y346008D01*
X258590Y346043D01*
X258641Y346093D01*
X258644Y346101D01*
X258660Y346120D01*
X258679Y346155D01*
X258706Y346202D01*
X258730Y346260D01*
X258749Y346334D01*
X258765Y346415D01*
X258769Y346508D01*
Y346512D01*
Y346520D01*
Y346532D01*
X258765Y346551D01*
X258761Y346598D01*
X258753Y346652D01*
X258734Y346718D01*
X258710Y346784D01*
X258679Y346850D01*
X258633Y346912D01*
X258625Y346920D01*
X258610Y346935D01*
X258578Y346958D01*
X258536Y346990D01*
X258485Y347017D01*
X258423Y347040D01*
X258353Y347056D01*
X258272Y347063D01*
X258237D01*
X258202Y347059D01*
X258155Y347052D01*
X258101Y347040D01*
X258051Y347024D01*
X257996Y347001D01*
X257950Y346970D01*
X257864Y346904D01*
X257612Y346966D01*
X257740Y348208D01*
X259009D01*
Y347917D01*
D02*
G37*
G36*
X260759Y346559D02*
X261104D01*
Y346303D01*
X260759D01*
Y345725D01*
X260441D01*
Y346303D01*
X259312D01*
Y346485D01*
X260421Y348208D01*
X260759D01*
Y346559D01*
D02*
G37*
G36*
X256289Y348204D02*
X256324D01*
X256363Y348196D01*
X256410Y348192D01*
X256456Y348185D01*
X256561Y348161D01*
X256669Y348126D01*
X256720Y348103D01*
X256770Y348080D01*
X256821Y348049D01*
X256863Y348014D01*
X256867Y348010D01*
X256875Y348006D01*
X256883Y347994D01*
X256898Y347979D01*
X256918Y347960D01*
X256937Y347936D01*
X256957Y347905D01*
X256980Y347874D01*
X256999Y347835D01*
X257019Y347797D01*
X257038Y347750D01*
X257057Y347700D01*
X257073Y347645D01*
X257081Y347587D01*
X257088Y347525D01*
X257092Y347459D01*
Y347455D01*
Y347447D01*
Y347436D01*
Y347420D01*
X257085Y347378D01*
X257077Y347319D01*
X257061Y347257D01*
X257038Y347187D01*
X257007Y347118D01*
X256964Y347052D01*
X256961Y347044D01*
X256941Y347024D01*
X256914Y346993D01*
X256875Y346955D01*
X256825Y346916D01*
X256767Y346873D01*
X256697Y346834D01*
X256615Y346799D01*
X257201Y345744D01*
Y345725D01*
X256848D01*
X256309Y346730D01*
X255727D01*
Y345725D01*
X255397D01*
Y348208D01*
X256258D01*
X256289Y348204D01*
D02*
G37*
G36*
X258856Y341041D02*
X259201D01*
Y340785D01*
X258856D01*
Y340207D01*
X258538D01*
Y340785D01*
X257409D01*
Y340968D01*
X258518Y342690D01*
X258856D01*
Y341041D01*
D02*
G37*
G36*
X256346Y342687D02*
X256380D01*
X256419Y342679D01*
X256466Y342675D01*
X256512Y342667D01*
X256617Y342644D01*
X256726Y342609D01*
X256776Y342586D01*
X256827Y342562D01*
X256877Y342531D01*
X256920Y342496D01*
X256924Y342493D01*
X256931Y342489D01*
X256939Y342477D01*
X256955Y342461D01*
X256974Y342442D01*
X256993Y342419D01*
X257013Y342388D01*
X257036Y342357D01*
X257055Y342318D01*
X257075Y342279D01*
X257094Y342233D01*
X257114Y342182D01*
X257129Y342128D01*
X257137Y342070D01*
X257145Y342007D01*
X257149Y341942D01*
Y341938D01*
Y341930D01*
Y341918D01*
Y341903D01*
X257141Y341860D01*
X257133Y341802D01*
X257118Y341740D01*
X257094Y341670D01*
X257063Y341600D01*
X257021Y341534D01*
X257017Y341526D01*
X256997Y341507D01*
X256970Y341476D01*
X256931Y341437D01*
X256881Y341398D01*
X256823Y341356D01*
X256753Y341317D01*
X256671Y341282D01*
X257257Y340227D01*
Y340207D01*
X256904D01*
X256365Y341212D01*
X255783D01*
Y340207D01*
X255453D01*
Y342690D01*
X256314D01*
X256346Y342687D01*
D02*
G37*
G36*
X260311Y342722D02*
X260338D01*
X260373Y342718D01*
X260447Y342702D01*
X260532Y342679D01*
X260621Y342648D01*
X260707Y342601D01*
X260749Y342570D01*
X260788Y342539D01*
X260792Y342535D01*
X260796Y342531D01*
X260807Y342520D01*
X260819Y342504D01*
X260835Y342489D01*
X260850Y342465D01*
X260889Y342407D01*
X260928Y342337D01*
X260959Y342252D01*
X260982Y342155D01*
X260986Y342101D01*
X260990Y342042D01*
Y342039D01*
Y342035D01*
Y342011D01*
X260986Y341976D01*
X260978Y341930D01*
X260967Y341880D01*
X260947Y341825D01*
X260924Y341767D01*
X260889Y341709D01*
X260885Y341701D01*
X260870Y341686D01*
X260850Y341658D01*
X260819Y341627D01*
X260780Y341592D01*
X260738Y341554D01*
X260683Y341519D01*
X260625Y341484D01*
X260629D01*
X260633Y341480D01*
X260656Y341468D01*
X260691Y341449D01*
X260738Y341422D01*
X260784Y341387D01*
X260835Y341344D01*
X260885Y341298D01*
X260932Y341239D01*
X260935Y341231D01*
X260951Y341212D01*
X260970Y341177D01*
X260990Y341135D01*
X261013Y341080D01*
X261029Y341018D01*
X261044Y340948D01*
X261048Y340875D01*
Y340871D01*
Y340859D01*
Y340844D01*
X261044Y340820D01*
X261040Y340793D01*
X261036Y340762D01*
X261021Y340688D01*
X260994Y340607D01*
X260955Y340522D01*
X260932Y340479D01*
X260905Y340440D01*
X260870Y340401D01*
X260831Y340362D01*
X260827Y340358D01*
X260819Y340355D01*
X260807Y340347D01*
X260792Y340331D01*
X260769Y340320D01*
X260741Y340304D01*
X260714Y340285D01*
X260679Y340269D01*
X260637Y340250D01*
X260594Y340234D01*
X260547Y340215D01*
X260497Y340203D01*
X260385Y340180D01*
X260322Y340176D01*
X260257Y340172D01*
X260222D01*
X260198Y340176D01*
X260167Y340180D01*
X260132Y340184D01*
X260094Y340188D01*
X260051Y340196D01*
X259958Y340219D01*
X259865Y340254D01*
X259814Y340273D01*
X259768Y340300D01*
X259725Y340328D01*
X259682Y340362D01*
X259678Y340366D01*
X259675Y340370D01*
X259663Y340382D01*
X259647Y340397D01*
X259632Y340417D01*
X259616Y340440D01*
X259597Y340467D01*
X259577Y340498D01*
X259535Y340572D01*
X259504Y340661D01*
X259477Y340762D01*
X259473Y340816D01*
X259469Y340875D01*
Y340879D01*
Y340882D01*
Y340894D01*
Y340910D01*
X259477Y340948D01*
X259484Y340995D01*
X259496Y341053D01*
X259516Y341115D01*
X259543Y341177D01*
X259577Y341239D01*
X259581Y341247D01*
X259597Y341266D01*
X259624Y341294D01*
X259655Y341332D01*
X259702Y341371D01*
X259752Y341410D01*
X259814Y341449D01*
X259884Y341484D01*
X259876Y341488D01*
X259857Y341499D01*
X259826Y341519D01*
X259787Y341546D01*
X259748Y341577D01*
X259702Y341616D01*
X259659Y341662D01*
X259620Y341713D01*
X259616Y341720D01*
X259605Y341740D01*
X259589Y341767D01*
X259574Y341810D01*
X259558Y341856D01*
X259543Y341914D01*
X259531Y341976D01*
X259527Y342042D01*
Y342046D01*
Y342058D01*
Y342073D01*
X259531Y342093D01*
X259535Y342120D01*
X259539Y342151D01*
X259550Y342221D01*
X259574Y342302D01*
X259612Y342384D01*
X259632Y342427D01*
X259659Y342465D01*
X259690Y342504D01*
X259725Y342539D01*
X259729Y342543D01*
X259733Y342547D01*
X259744Y342555D01*
X259760Y342570D01*
X259783Y342582D01*
X259806Y342597D01*
X259834Y342617D01*
X259869Y342632D01*
X259942Y342667D01*
X260035Y342698D01*
X260140Y342718D01*
X260194Y342722D01*
X260257Y342725D01*
X260288D01*
X260311Y342722D01*
D02*
G37*
G36*
X262068Y388512D02*
X261039Y386207D01*
X260710D01*
X261734Y388431D01*
X260387D01*
Y388690D01*
X262068D01*
Y388512D01*
D02*
G37*
G36*
X259837Y387041D02*
X260182D01*
Y386785D01*
X259837D01*
Y386207D01*
X259518D01*
Y386785D01*
X258389D01*
Y386968D01*
X259499Y388690D01*
X259837D01*
Y387041D01*
D02*
G37*
G36*
X257326Y388686D02*
X257361D01*
X257400Y388679D01*
X257446Y388675D01*
X257493Y388667D01*
X257598Y388644D01*
X257706Y388609D01*
X257757Y388586D01*
X257807Y388562D01*
X257858Y388531D01*
X257900Y388496D01*
X257904Y388492D01*
X257912Y388489D01*
X257920Y388477D01*
X257935Y388461D01*
X257955Y388442D01*
X257974Y388419D01*
X257993Y388388D01*
X258017Y388357D01*
X258036Y388318D01*
X258055Y388279D01*
X258075Y388233D01*
X258094Y388182D01*
X258110Y388128D01*
X258118Y388070D01*
X258125Y388007D01*
X258129Y387942D01*
Y387938D01*
Y387930D01*
Y387918D01*
Y387903D01*
X258121Y387860D01*
X258114Y387802D01*
X258098Y387740D01*
X258075Y387670D01*
X258044Y387600D01*
X258001Y387534D01*
X257997Y387526D01*
X257978Y387507D01*
X257951Y387476D01*
X257912Y387437D01*
X257861Y387398D01*
X257803Y387356D01*
X257733Y387317D01*
X257652Y387282D01*
X258238Y386227D01*
Y386207D01*
X257885D01*
X257346Y387212D01*
X256764D01*
Y386207D01*
X256434D01*
Y388690D01*
X257295D01*
X257326Y388686D01*
D02*
G37*
G36*
X244932Y330457D02*
X245510D01*
Y330139D01*
X244932D01*
Y329010D01*
X244749D01*
X243026Y330120D01*
Y330457D01*
X244675D01*
Y330803D01*
X244932D01*
Y330457D01*
D02*
G37*
G36*
X245510Y327167D02*
X245285D01*
X244330Y328025D01*
X244326Y328028D01*
X244319Y328032D01*
X244311Y328044D01*
X244295Y328056D01*
X244252Y328090D01*
X244206Y328129D01*
X244148Y328172D01*
X244090Y328215D01*
X244031Y328257D01*
X243977Y328288D01*
X243969Y328292D01*
X243954Y328300D01*
X243927Y328312D01*
X243892Y328327D01*
X243849Y328339D01*
X243802Y328350D01*
X243752Y328358D01*
X243698Y328362D01*
X243694D01*
X243690D01*
X243667D01*
X243628Y328354D01*
X243585Y328346D01*
X243535Y328331D01*
X243480Y328312D01*
X243430Y328280D01*
X243379Y328242D01*
X243376Y328238D01*
X243360Y328222D01*
X243341Y328195D01*
X243314Y328160D01*
X243290Y328114D01*
X243271Y328063D01*
X243255Y328001D01*
X243251Y327931D01*
Y327908D01*
X243255Y327892D01*
X243259Y327850D01*
X243267Y327796D01*
X243286Y327737D01*
X243310Y327675D01*
X243341Y327617D01*
X243387Y327563D01*
X243395Y327559D01*
X243410Y327543D01*
X243442Y327524D01*
X243484Y327501D01*
X243535Y327473D01*
X243601Y327454D01*
X243674Y327439D01*
X243760Y327435D01*
Y327117D01*
X243756D01*
X243744D01*
X243725D01*
X243702Y327120D01*
X243674Y327124D01*
X243639Y327128D01*
X243562Y327144D01*
X243473Y327171D01*
X243426Y327190D01*
X243379Y327210D01*
X243333Y327237D01*
X243290Y327264D01*
X243244Y327299D01*
X243205Y327338D01*
X243201Y327342D01*
X243197Y327349D01*
X243185Y327361D01*
X243170Y327377D01*
X243155Y327400D01*
X243139Y327427D01*
X243120Y327458D01*
X243096Y327497D01*
X243077Y327536D01*
X243057Y327578D01*
X243042Y327629D01*
X243026Y327683D01*
X243011Y327737D01*
X242999Y327799D01*
X242995Y327861D01*
X242991Y327931D01*
Y327966D01*
X242995Y327990D01*
Y328017D01*
X242999Y328052D01*
X243015Y328129D01*
X243034Y328215D01*
X243069Y328308D01*
X243112Y328393D01*
X243143Y328436D01*
X243174Y328474D01*
X243178Y328478D01*
X243182Y328482D01*
X243193Y328494D01*
X243209Y328506D01*
X243224Y328521D01*
X243248Y328537D01*
X243302Y328575D01*
X243372Y328614D01*
X243457Y328645D01*
X243550Y328669D01*
X243604Y328672D01*
X243659Y328676D01*
X243663D01*
X243674D01*
X243698Y328672D01*
X243725Y328669D01*
X243760Y328661D01*
X243802Y328653D01*
X243849Y328638D01*
X243907Y328618D01*
X243965Y328595D01*
X244035Y328564D01*
X244105Y328525D01*
X244183Y328478D01*
X244264Y328428D01*
X244350Y328366D01*
X244439Y328292D01*
X244532Y328211D01*
X245253Y327547D01*
Y328793D01*
X245510D01*
Y327167D01*
D02*
G37*
G36*
Y326546D02*
X244505Y326007D01*
Y325425D01*
X245510D01*
Y325095D01*
X243026D01*
Y325956D01*
X243030Y325988D01*
Y326022D01*
X243038Y326061D01*
X243042Y326108D01*
X243050Y326154D01*
X243073Y326259D01*
X243108Y326368D01*
X243131Y326418D01*
X243155Y326469D01*
X243185Y326519D01*
X243220Y326562D01*
X243224Y326566D01*
X243228Y326573D01*
X243240Y326581D01*
X243255Y326597D01*
X243275Y326616D01*
X243298Y326635D01*
X243329Y326655D01*
X243360Y326678D01*
X243399Y326697D01*
X243438Y326717D01*
X243484Y326736D01*
X243535Y326756D01*
X243589Y326771D01*
X243647Y326779D01*
X243709Y326787D01*
X243775Y326791D01*
X243779D01*
X243787D01*
X243798D01*
X243814D01*
X243857Y326783D01*
X243915Y326775D01*
X243977Y326760D01*
X244047Y326736D01*
X244117Y326705D01*
X244183Y326663D01*
X244190Y326659D01*
X244210Y326639D01*
X244241Y326612D01*
X244280Y326573D01*
X244319Y326523D01*
X244361Y326465D01*
X244400Y326395D01*
X244435Y326313D01*
X245490Y326899D01*
X245510D01*
Y326546D01*
D02*
G37*
G36*
X249305Y388701D02*
X248987D01*
Y390804D01*
X248350Y390572D01*
Y390859D01*
X249254Y391196D01*
X249305D01*
Y388701D01*
D02*
G37*
G36*
X246814Y391181D02*
X246841D01*
X246876Y391177D01*
X246915Y391173D01*
X246953Y391165D01*
X247043Y391150D01*
X247140Y391123D01*
X247237Y391088D01*
X247334Y391041D01*
X247338D01*
X247345Y391033D01*
X247357Y391025D01*
X247376Y391014D01*
X247419Y390983D01*
X247473Y390936D01*
X247535Y390878D01*
X247601Y390808D01*
X247663Y390723D01*
X247718Y390630D01*
Y390626D01*
X247726Y390618D01*
X247729Y390603D01*
X247741Y390583D01*
X247749Y390560D01*
X247760Y390529D01*
X247772Y390494D01*
X247788Y390455D01*
X247799Y390412D01*
X247811Y390366D01*
X247834Y390265D01*
X247850Y390149D01*
X247857Y390024D01*
Y389865D01*
Y389861D01*
Y389850D01*
Y389830D01*
X247853Y389807D01*
Y389776D01*
X247850Y389741D01*
X247846Y389702D01*
X247842Y389656D01*
X247822Y389563D01*
X247799Y389458D01*
X247768Y389353D01*
X247722Y389248D01*
Y389245D01*
X247714Y389237D01*
X247706Y389225D01*
X247698Y389206D01*
X247683Y389182D01*
X247667Y389159D01*
X247621Y389097D01*
X247566Y389035D01*
X247500Y388965D01*
X247423Y388899D01*
X247334Y388841D01*
X247330D01*
X247322Y388833D01*
X247306Y388829D01*
X247291Y388818D01*
X247264Y388810D01*
X247237Y388798D01*
X247202Y388783D01*
X247167Y388771D01*
X247124Y388760D01*
X247081Y388744D01*
X246981Y388725D01*
X246868Y388709D01*
X246748Y388701D01*
X246061D01*
Y391185D01*
X246790D01*
X246814Y391181D01*
D02*
G37*
G36*
X245634Y390917D02*
X244400D01*
Y390118D01*
X245475D01*
Y389850D01*
X244400D01*
Y388969D01*
X245650D01*
Y388701D01*
X244074D01*
Y391185D01*
X245634D01*
Y390917D01*
D02*
G37*
G36*
X242526Y388969D02*
X243702D01*
Y388701D01*
X242196D01*
Y391185D01*
X242526D01*
Y388969D01*
D02*
G37*
G36*
X284664Y353702D02*
X284660D01*
X284656D01*
X284645D01*
X284629Y353698D01*
X284590Y353694D01*
X284544Y353686D01*
X284489Y353675D01*
X284435Y353652D01*
X284381Y353624D01*
X284331Y353586D01*
X284327Y353582D01*
X284311Y353562D01*
X284296Y353535D01*
X284272Y353500D01*
X284253Y353450D01*
X284233Y353392D01*
X284218Y353322D01*
X284214Y353244D01*
Y353225D01*
X284218Y353209D01*
X284222Y353174D01*
X284230Y353128D01*
X284245Y353077D01*
X284268Y353023D01*
X284296Y352969D01*
X284338Y352918D01*
X284346Y352914D01*
X284362Y352899D01*
X284392Y352879D01*
X284431Y352856D01*
X284482Y352833D01*
X284544Y352814D01*
X284618Y352798D01*
X284699Y352790D01*
X286465D01*
Y352460D01*
X284703D01*
X284699D01*
X284687D01*
X284668D01*
X284645Y352464D01*
X284614Y352468D01*
X284579Y352472D01*
X284501Y352488D01*
X284408Y352515D01*
X284315Y352554D01*
X284272Y352577D01*
X284226Y352604D01*
X284183Y352639D01*
X284144Y352678D01*
X284140Y352682D01*
X284137Y352689D01*
X284125Y352701D01*
X284113Y352716D01*
X284098Y352740D01*
X284082Y352763D01*
X284063Y352794D01*
X284047Y352829D01*
X284028Y352868D01*
X284008Y352910D01*
X283993Y352957D01*
X283977Y353008D01*
X283954Y353120D01*
X283950Y353178D01*
X283946Y353244D01*
Y353279D01*
X283950Y353306D01*
Y353337D01*
X283958Y353372D01*
X283962Y353411D01*
X283970Y353458D01*
X283993Y353551D01*
X284024Y353644D01*
X284070Y353737D01*
X284102Y353783D01*
X284133Y353822D01*
X284137Y353826D01*
X284140Y353830D01*
X284152Y353842D01*
X284168Y353853D01*
X284187Y353869D01*
X284210Y353888D01*
X284237Y353908D01*
X284272Y353923D01*
X284307Y353943D01*
X284346Y353962D01*
X284389Y353981D01*
X284439Y353997D01*
X284544Y354020D01*
X284602Y354024D01*
X284664Y354028D01*
Y353702D01*
D02*
G37*
G36*
X286476Y350998D02*
Y350947D01*
X283981D01*
Y351265D01*
X286084D01*
X285851Y351902D01*
X286139D01*
X286476Y350998D01*
D02*
G37*
G36*
Y349038D02*
Y348988D01*
X283981D01*
Y349306D01*
X286084D01*
X285851Y349942D01*
X286139D01*
X286476Y349038D01*
D02*
G37*
G36*
X226038Y384429D02*
Y384425D01*
Y384413D01*
Y384394D01*
X226034Y384371D01*
X226030Y384340D01*
X226026Y384305D01*
X226011Y384227D01*
X225984Y384134D01*
X225945Y384041D01*
X225922Y383998D01*
X225894Y383952D01*
X225860Y383909D01*
X225821Y383870D01*
X225817Y383866D01*
X225809Y383862D01*
X225798Y383851D01*
X225782Y383839D01*
X225759Y383824D01*
X225735Y383808D01*
X225704Y383789D01*
X225670Y383773D01*
X225631Y383754D01*
X225588Y383734D01*
X225541Y383719D01*
X225491Y383703D01*
X225378Y383680D01*
X225320Y383676D01*
X225254Y383672D01*
X225219D01*
X225192Y383676D01*
X225161D01*
X225126Y383684D01*
X225087Y383688D01*
X225041Y383696D01*
X224948Y383719D01*
X224855Y383750D01*
X224762Y383797D01*
X224715Y383827D01*
X224676Y383858D01*
X224672Y383862D01*
X224668Y383866D01*
X224657Y383878D01*
X224645Y383893D01*
X224630Y383913D01*
X224610Y383936D01*
X224591Y383963D01*
X224575Y383998D01*
X224556Y384033D01*
X224536Y384072D01*
X224517Y384115D01*
X224502Y384165D01*
X224478Y384270D01*
X224474Y384328D01*
X224471Y384390D01*
X224797D01*
Y384386D01*
Y384382D01*
Y384371D01*
X224800Y384355D01*
X224804Y384316D01*
X224812Y384270D01*
X224824Y384215D01*
X224847Y384161D01*
X224874Y384107D01*
X224913Y384056D01*
X224917Y384052D01*
X224936Y384037D01*
X224963Y384021D01*
X224998Y383998D01*
X225049Y383979D01*
X225107Y383959D01*
X225177Y383944D01*
X225254Y383940D01*
X225274D01*
X225289Y383944D01*
X225324Y383948D01*
X225371Y383956D01*
X225421Y383971D01*
X225476Y383994D01*
X225530Y384021D01*
X225580Y384064D01*
X225584Y384072D01*
X225600Y384087D01*
X225619Y384119D01*
X225642Y384157D01*
X225666Y384208D01*
X225685Y384270D01*
X225700Y384344D01*
X225708Y384425D01*
Y386190D01*
X226038D01*
Y384429D01*
D02*
G37*
G36*
X227551Y383707D02*
X227233D01*
Y385810D01*
X226597Y385577D01*
Y385864D01*
X227501Y386202D01*
X227551D01*
Y383707D01*
D02*
G37*
G36*
X229313Y386222D02*
X229344Y386218D01*
X229383Y386210D01*
X229425Y386202D01*
X229472Y386194D01*
X229565Y386163D01*
X229615Y386140D01*
X229666Y386117D01*
X229712Y386086D01*
X229755Y386051D01*
X229798Y386012D01*
X229837Y385965D01*
X229840Y385962D01*
X229844Y385954D01*
X229856Y385938D01*
X229868Y385919D01*
X229879Y385892D01*
X229899Y385857D01*
X229914Y385818D01*
X229934Y385771D01*
X229949Y385717D01*
X229969Y385659D01*
X229984Y385593D01*
X229999Y385523D01*
X230011Y385445D01*
X230023Y385360D01*
X230027Y385271D01*
X230031Y385174D01*
Y384763D01*
Y384755D01*
Y384739D01*
Y384708D01*
X230027Y384673D01*
Y384627D01*
X230019Y384573D01*
X230015Y384514D01*
X230007Y384452D01*
X229984Y384316D01*
X229949Y384181D01*
X229930Y384115D01*
X229903Y384052D01*
X229875Y383994D01*
X229840Y383940D01*
X229837Y383936D01*
X229833Y383928D01*
X229821Y383917D01*
X229805Y383897D01*
X229786Y383878D01*
X229759Y383855D01*
X229728Y383831D01*
X229697Y383808D01*
X229658Y383781D01*
X229611Y383758D01*
X229565Y383734D01*
X229511Y383715D01*
X229452Y383696D01*
X229390Y383684D01*
X229324Y383676D01*
X229251Y383672D01*
X229212D01*
X229185Y383676D01*
X229154Y383680D01*
X229115Y383688D01*
X229072Y383696D01*
X229026Y383703D01*
X228932Y383734D01*
X228882Y383758D01*
X228832Y383781D01*
X228785Y383812D01*
X228742Y383847D01*
X228700Y383886D01*
X228661Y383932D01*
X228657Y383936D01*
X228653Y383944D01*
X228642Y383959D01*
X228630Y383983D01*
X228618Y384010D01*
X228599Y384045D01*
X228583Y384084D01*
X228564Y384130D01*
X228548Y384181D01*
X228529Y384239D01*
X228514Y384305D01*
X228498Y384375D01*
X228483Y384452D01*
X228475Y384538D01*
X228467Y384627D01*
X228463Y384720D01*
Y385143D01*
Y385151D01*
Y385166D01*
Y385193D01*
X228467Y385232D01*
X228471Y385279D01*
X228475Y385329D01*
X228479Y385387D01*
X228486Y385449D01*
X228510Y385581D01*
X228544Y385717D01*
X228564Y385783D01*
X228591Y385845D01*
X228618Y385903D01*
X228653Y385958D01*
X228657Y385962D01*
X228661Y385969D01*
X228673Y385981D01*
X228688Y386000D01*
X228711Y386020D01*
X228735Y386043D01*
X228766Y386066D01*
X228801Y386093D01*
X228839Y386117D01*
X228882Y386140D01*
X228929Y386163D01*
X228983Y386183D01*
X229041Y386202D01*
X229107Y386214D01*
X229173Y386222D01*
X229247Y386225D01*
X229286D01*
X229313Y386222D01*
D02*
G37*
G36*
X261177Y379721D02*
X261212Y379718D01*
X261251Y379714D01*
X261294Y379706D01*
X261340Y379698D01*
X261441Y379671D01*
X261491Y379656D01*
X261546Y379632D01*
X261596Y379605D01*
X261651Y379578D01*
X261697Y379543D01*
X261744Y379504D01*
X261748Y379500D01*
X261755Y379492D01*
X261767Y379481D01*
X261783Y379465D01*
X261802Y379442D01*
X261821Y379415D01*
X261845Y379380D01*
X261868Y379345D01*
X261895Y379302D01*
X261918Y379256D01*
X261942Y379205D01*
X261965Y379151D01*
X261984Y379093D01*
X262000Y379031D01*
X262015Y378961D01*
X262023Y378891D01*
X261697D01*
Y378895D01*
X261693Y378903D01*
Y378918D01*
X261689Y378942D01*
X261682Y378965D01*
X261678Y378992D01*
X261658Y379058D01*
X261631Y379128D01*
X261600Y379198D01*
X261561Y379268D01*
X261538Y379295D01*
X261511Y379322D01*
X261503Y379330D01*
X261484Y379345D01*
X261453Y379364D01*
X261406Y379392D01*
X261352Y379415D01*
X261282Y379438D01*
X261200Y379454D01*
X261111Y379458D01*
X261080D01*
X261061Y379454D01*
X261034Y379450D01*
X261003Y379446D01*
X260933Y379431D01*
X260851Y379399D01*
X260812Y379384D01*
X260770Y379361D01*
X260731Y379333D01*
X260692Y379302D01*
X260653Y379268D01*
X260618Y379225D01*
Y379221D01*
X260611Y379213D01*
X260603Y379202D01*
X260591Y379182D01*
X260580Y379159D01*
X260564Y379128D01*
X260549Y379093D01*
X260533Y379054D01*
X260514Y379011D01*
X260498Y378961D01*
X260483Y378907D01*
X260471Y378849D01*
X260459Y378783D01*
X260452Y378713D01*
X260448Y378639D01*
X260444Y378561D01*
Y378321D01*
Y378317D01*
Y378301D01*
Y378282D01*
X260448Y378255D01*
Y378220D01*
X260452Y378181D01*
X260459Y378138D01*
X260463Y378088D01*
X260487Y377987D01*
X260514Y377878D01*
X260556Y377774D01*
X260580Y377723D01*
X260611Y377677D01*
X260615Y377673D01*
X260618Y377665D01*
X260630Y377653D01*
X260642Y377642D01*
X260681Y377603D01*
X260735Y377560D01*
X260801Y377514D01*
X260882Y377479D01*
X260929Y377463D01*
X260976Y377452D01*
X261030Y377444D01*
X261084Y377440D01*
X261111D01*
X261131Y377444D01*
X261150D01*
X261177Y377448D01*
X261239Y377455D01*
X261305Y377471D01*
X261375Y377490D01*
X261441Y377521D01*
X261499Y377560D01*
X261507Y377568D01*
X261523Y377584D01*
X261550Y377615D01*
X261581Y377661D01*
X261612Y377719D01*
X261627Y377754D01*
X261647Y377793D01*
X261658Y377836D01*
X261674Y377886D01*
X261685Y377937D01*
X261697Y377991D01*
X262023D01*
Y377987D01*
X262019Y377976D01*
Y377952D01*
X262011Y377925D01*
X262007Y377894D01*
X261996Y377855D01*
X261984Y377813D01*
X261973Y377770D01*
X261934Y377673D01*
X261883Y377572D01*
X261852Y377521D01*
X261817Y377475D01*
X261775Y377428D01*
X261732Y377386D01*
X261728Y377382D01*
X261720Y377378D01*
X261709Y377366D01*
X261689Y377351D01*
X261662Y377335D01*
X261635Y377320D01*
X261600Y377300D01*
X261561Y377281D01*
X261515Y377258D01*
X261468Y377238D01*
X261414Y377223D01*
X261356Y377207D01*
X261294Y377192D01*
X261228Y377180D01*
X261158Y377176D01*
X261084Y377172D01*
X261065D01*
X261041Y377176D01*
X261010D01*
X260976Y377184D01*
X260929Y377188D01*
X260882Y377200D01*
X260832Y377211D01*
X260774Y377227D01*
X260719Y377250D01*
X260657Y377273D01*
X260599Y377304D01*
X260541Y377339D01*
X260483Y377382D01*
X260428Y377432D01*
X260378Y377487D01*
X260374Y377490D01*
X260366Y377502D01*
X260355Y377518D01*
X260335Y377545D01*
X260316Y377576D01*
X260297Y377615D01*
X260269Y377657D01*
X260246Y377712D01*
X260223Y377766D01*
X260199Y377832D01*
X260176Y377902D01*
X260157Y377976D01*
X260137Y378057D01*
X260126Y378142D01*
X260118Y378235D01*
X260114Y378332D01*
Y378569D01*
Y378573D01*
Y378585D01*
Y378604D01*
X260118Y378627D01*
Y378658D01*
X260122Y378693D01*
X260126Y378732D01*
X260130Y378775D01*
X260145Y378868D01*
X260168Y378973D01*
X260196Y379077D01*
X260238Y379178D01*
Y379182D01*
X260246Y379190D01*
X260250Y379205D01*
X260262Y379221D01*
X260273Y379244D01*
X260289Y379268D01*
X260328Y379330D01*
X260378Y379392D01*
X260440Y379462D01*
X260510Y379524D01*
X260588Y379582D01*
X260591D01*
X260599Y379590D01*
X260611Y379593D01*
X260626Y379605D01*
X260649Y379617D01*
X260673Y379628D01*
X260704Y379640D01*
X260739Y379656D01*
X260812Y379679D01*
X260902Y379702D01*
X261003Y379718D01*
X261111Y379725D01*
X261150D01*
X261177Y379721D01*
D02*
G37*
G36*
X265387Y377207D02*
X265069D01*
Y379310D01*
X264433Y379077D01*
Y379364D01*
X265337Y379702D01*
X265387D01*
Y377207D01*
D02*
G37*
G36*
X263214Y379721D02*
X263241D01*
X263276Y379718D01*
X263354Y379702D01*
X263439Y379683D01*
X263532Y379648D01*
X263618Y379605D01*
X263660Y379574D01*
X263699Y379543D01*
X263703Y379539D01*
X263707Y379535D01*
X263719Y379524D01*
X263730Y379508D01*
X263746Y379492D01*
X263761Y379469D01*
X263800Y379415D01*
X263839Y379345D01*
X263870Y379260D01*
X263893Y379167D01*
X263897Y379112D01*
X263901Y379058D01*
Y379054D01*
Y379043D01*
X263897Y379019D01*
X263893Y378992D01*
X263885Y378957D01*
X263878Y378914D01*
X263862Y378868D01*
X263843Y378810D01*
X263820Y378751D01*
X263789Y378682D01*
X263750Y378612D01*
X263703Y378534D01*
X263653Y378453D01*
X263591Y378367D01*
X263517Y378278D01*
X263435Y378185D01*
X262772Y377463D01*
X264017D01*
Y377207D01*
X262392D01*
Y377432D01*
X263249Y378387D01*
X263253Y378391D01*
X263257Y378398D01*
X263269Y378406D01*
X263280Y378422D01*
X263315Y378464D01*
X263354Y378511D01*
X263397Y378569D01*
X263439Y378627D01*
X263482Y378685D01*
X263513Y378740D01*
X263517Y378748D01*
X263525Y378763D01*
X263536Y378790D01*
X263552Y378825D01*
X263563Y378868D01*
X263575Y378914D01*
X263583Y378965D01*
X263587Y379019D01*
Y379023D01*
Y379027D01*
Y379050D01*
X263579Y379089D01*
X263571Y379132D01*
X263556Y379182D01*
X263536Y379237D01*
X263505Y379287D01*
X263466Y379337D01*
X263463Y379341D01*
X263447Y379357D01*
X263420Y379376D01*
X263385Y379403D01*
X263338Y379427D01*
X263288Y379446D01*
X263226Y379462D01*
X263156Y379465D01*
X263133D01*
X263117Y379462D01*
X263074Y379458D01*
X263020Y379450D01*
X262962Y379431D01*
X262900Y379407D01*
X262842Y379376D01*
X262787Y379330D01*
X262784Y379322D01*
X262768Y379306D01*
X262749Y379275D01*
X262725Y379233D01*
X262698Y379182D01*
X262679Y379116D01*
X262663Y379043D01*
X262659Y378957D01*
X262341D01*
Y378961D01*
Y378973D01*
Y378992D01*
X262345Y379015D01*
X262349Y379043D01*
X262353Y379077D01*
X262368Y379155D01*
X262396Y379244D01*
X262415Y379291D01*
X262434Y379337D01*
X262461Y379384D01*
X262489Y379427D01*
X262524Y379473D01*
X262562Y379512D01*
X262566Y379516D01*
X262574Y379520D01*
X262586Y379531D01*
X262601Y379547D01*
X262625Y379562D01*
X262652Y379578D01*
X262683Y379597D01*
X262721Y379621D01*
X262760Y379640D01*
X262803Y379659D01*
X262853Y379675D01*
X262908Y379690D01*
X262962Y379706D01*
X263024Y379718D01*
X263086Y379721D01*
X263156Y379725D01*
X263191D01*
X263214Y379721D01*
D02*
G37*
G36*
X219816Y306724D02*
X219844Y306720D01*
X219879Y306716D01*
X219952Y306701D01*
X220038Y306673D01*
X220127Y306635D01*
X220170Y306611D01*
X220212Y306584D01*
X220255Y306549D01*
X220294Y306510D01*
X220298Y306507D01*
X220302Y306499D01*
X220313Y306487D01*
X220325Y306472D01*
X220340Y306448D01*
X220356Y306425D01*
X220371Y306394D01*
X220391Y306359D01*
X220410Y306320D01*
X220426Y306278D01*
X220457Y306181D01*
X220480Y306068D01*
X220484Y306010D01*
X220488Y305944D01*
Y305909D01*
X220484Y305886D01*
Y305855D01*
X220476Y305824D01*
X220472Y305785D01*
X220464Y305742D01*
X220441Y305653D01*
X220410Y305556D01*
X220364Y305463D01*
X220333Y305416D01*
X220302Y305374D01*
X220298Y305370D01*
X220294Y305366D01*
X220282Y305354D01*
X220267Y305339D01*
X220247Y305323D01*
X220224Y305304D01*
X220166Y305265D01*
X220096Y305226D01*
X220010Y305191D01*
X219910Y305164D01*
X219859Y305160D01*
X219801Y305156D01*
Y305474D01*
X219805D01*
X219809D01*
X219832Y305478D01*
X219871Y305482D01*
X219914Y305490D01*
X219964Y305505D01*
X220018Y305529D01*
X220069Y305556D01*
X220115Y305599D01*
X220119Y305606D01*
X220135Y305622D01*
X220150Y305649D01*
X220174Y305692D01*
X220193Y305738D01*
X220212Y305800D01*
X220228Y305866D01*
X220232Y305944D01*
Y305967D01*
X220228Y305983D01*
X220224Y306022D01*
X220216Y306072D01*
X220204Y306130D01*
X220181Y306188D01*
X220154Y306243D01*
X220115Y306293D01*
X220111Y306297D01*
X220092Y306313D01*
X220065Y306332D01*
X220026Y306355D01*
X219980Y306375D01*
X219917Y306394D01*
X219848Y306410D01*
X219770Y306414D01*
X219766D01*
X219762D01*
X219751D01*
X219735D01*
X219696Y306406D01*
X219646Y306398D01*
X219591Y306382D01*
X219537Y306359D01*
X219483Y306324D01*
X219436Y306282D01*
X219432Y306274D01*
X219417Y306258D01*
X219397Y306227D01*
X219374Y306185D01*
X219355Y306130D01*
X219332Y306064D01*
X219320Y305987D01*
X219312Y305897D01*
Y305661D01*
X219056D01*
Y305936D01*
X219048Y305975D01*
X219040Y306026D01*
X219029Y306080D01*
X219009Y306138D01*
X218982Y306196D01*
X218944Y306247D01*
X218940Y306251D01*
X218920Y306266D01*
X218897Y306285D01*
X218862Y306313D01*
X218815Y306336D01*
X218765Y306355D01*
X218703Y306371D01*
X218633Y306375D01*
X218629D01*
X218614D01*
X218594Y306371D01*
X218563Y306367D01*
X218532Y306363D01*
X218493Y306351D01*
X218455Y306340D01*
X218412Y306320D01*
X218373Y306297D01*
X218334Y306270D01*
X218296Y306235D01*
X218265Y306192D01*
X218233Y306142D01*
X218214Y306084D01*
X218199Y306018D01*
X218195Y305940D01*
Y305905D01*
X218202Y305870D01*
X218210Y305824D01*
X218226Y305773D01*
X218245Y305719D01*
X218276Y305665D01*
X218315Y305614D01*
X218319Y305610D01*
X218334Y305595D01*
X218361Y305575D01*
X218396Y305556D01*
X218439Y305533D01*
X218493Y305513D01*
X218555Y305498D01*
X218621Y305494D01*
Y305180D01*
X218618D01*
X218610D01*
X218594D01*
X218571Y305184D01*
X218548Y305187D01*
X218517Y305191D01*
X218451Y305207D01*
X218373Y305230D01*
X218292Y305269D01*
X218249Y305296D01*
X218210Y305323D01*
X218171Y305354D01*
X218133Y305393D01*
X218129Y305397D01*
X218125Y305405D01*
X218113Y305416D01*
X218102Y305432D01*
X218086Y305455D01*
X218071Y305478D01*
X218051Y305509D01*
X218032Y305544D01*
X217997Y305622D01*
X217966Y305715D01*
X217943Y305824D01*
X217939Y305878D01*
X217935Y305940D01*
Y305975D01*
X217939Y305998D01*
Y306029D01*
X217943Y306064D01*
X217958Y306142D01*
X217981Y306231D01*
X218012Y306320D01*
X218059Y306410D01*
X218090Y306452D01*
X218121Y306491D01*
X218125Y306495D01*
X218129Y306499D01*
X218140Y306510D01*
X218156Y306522D01*
X218175Y306538D01*
X218199Y306553D01*
X218226Y306573D01*
X218257Y306592D01*
X218331Y306631D01*
X218416Y306662D01*
X218521Y306685D01*
X218575Y306689D01*
X218637Y306693D01*
X218645D01*
X218664D01*
X218695Y306689D01*
X218738Y306681D01*
X218784Y306666D01*
X218839Y306650D01*
X218893Y306623D01*
X218951Y306588D01*
X218959Y306584D01*
X218975Y306569D01*
X219002Y306545D01*
X219037Y306514D01*
X219075Y306472D01*
X219110Y306421D01*
X219149Y306367D01*
X219180Y306301D01*
Y306305D01*
X219184Y306309D01*
X219188Y306320D01*
X219192Y306336D01*
X219207Y306371D01*
X219231Y306417D01*
X219258Y306468D01*
X219297Y306522D01*
X219339Y306573D01*
X219394Y306615D01*
X219401Y306619D01*
X219421Y306635D01*
X219452Y306650D01*
X219495Y306673D01*
X219549Y306693D01*
X219611Y306712D01*
X219685Y306724D01*
X219762Y306728D01*
X219766D01*
X219778D01*
X219793D01*
X219816Y306724D01*
D02*
G37*
G36*
X219685Y304830D02*
X219708D01*
X219735Y304823D01*
X219766Y304819D01*
X219805Y304807D01*
X219848Y304796D01*
X219890Y304784D01*
X219987Y304745D01*
X220088Y304695D01*
X220139Y304664D01*
X220185Y304629D01*
X220232Y304586D01*
X220274Y304543D01*
X220278Y304539D01*
X220282Y304532D01*
X220294Y304520D01*
X220309Y304501D01*
X220325Y304473D01*
X220340Y304446D01*
X220360Y304411D01*
X220379Y304373D01*
X220402Y304326D01*
X220422Y304279D01*
X220437Y304225D01*
X220453Y304167D01*
X220468Y304105D01*
X220480Y304039D01*
X220484Y303969D01*
X220488Y303895D01*
Y303876D01*
X220484Y303853D01*
Y303822D01*
X220476Y303787D01*
X220472Y303740D01*
X220461Y303694D01*
X220449Y303643D01*
X220433Y303585D01*
X220410Y303531D01*
X220387Y303469D01*
X220356Y303410D01*
X220321Y303352D01*
X220278Y303294D01*
X220228Y303240D01*
X220174Y303189D01*
X220170Y303185D01*
X220158Y303178D01*
X220142Y303166D01*
X220115Y303147D01*
X220084Y303127D01*
X220045Y303108D01*
X220003Y303081D01*
X219948Y303057D01*
X219894Y303034D01*
X219828Y303011D01*
X219758Y302987D01*
X219685Y302968D01*
X219603Y302949D01*
X219518Y302937D01*
X219425Y302929D01*
X219328Y302925D01*
X219091D01*
X219087D01*
X219075D01*
X219056D01*
X219033Y302929D01*
X219002D01*
X218967Y302933D01*
X218928Y302937D01*
X218885Y302941D01*
X218792Y302956D01*
X218687Y302980D01*
X218583Y303007D01*
X218482Y303049D01*
X218478D01*
X218470Y303057D01*
X218455Y303061D01*
X218439Y303073D01*
X218416Y303084D01*
X218393Y303100D01*
X218331Y303139D01*
X218268Y303189D01*
X218199Y303251D01*
X218137Y303321D01*
X218078Y303399D01*
Y303403D01*
X218071Y303410D01*
X218067Y303422D01*
X218055Y303437D01*
X218043Y303461D01*
X218032Y303484D01*
X218020Y303515D01*
X218005Y303550D01*
X217981Y303624D01*
X217958Y303713D01*
X217943Y303814D01*
X217935Y303923D01*
Y303961D01*
X217939Y303989D01*
X217943Y304023D01*
X217946Y304062D01*
X217954Y304105D01*
X217962Y304151D01*
X217989Y304252D01*
X218005Y304303D01*
X218028Y304357D01*
X218055Y304408D01*
X218082Y304462D01*
X218117Y304508D01*
X218156Y304555D01*
X218160Y304559D01*
X218167Y304567D01*
X218179Y304578D01*
X218195Y304594D01*
X218218Y304613D01*
X218245Y304632D01*
X218280Y304656D01*
X218315Y304679D01*
X218358Y304706D01*
X218404Y304730D01*
X218455Y304753D01*
X218509Y304776D01*
X218567Y304796D01*
X218629Y304811D01*
X218699Y304826D01*
X218769Y304834D01*
Y304508D01*
X218765D01*
X218757Y304504D01*
X218742D01*
X218719Y304501D01*
X218695Y304493D01*
X218668Y304489D01*
X218602Y304470D01*
X218532Y304442D01*
X218462Y304411D01*
X218393Y304373D01*
X218365Y304349D01*
X218338Y304322D01*
X218331Y304314D01*
X218315Y304295D01*
X218296Y304264D01*
X218268Y304217D01*
X218245Y304163D01*
X218222Y304093D01*
X218206Y304012D01*
X218202Y303923D01*
Y303891D01*
X218206Y303872D01*
X218210Y303845D01*
X218214Y303814D01*
X218230Y303744D01*
X218261Y303663D01*
X218276Y303624D01*
X218299Y303581D01*
X218327Y303542D01*
X218358Y303503D01*
X218393Y303465D01*
X218435Y303430D01*
X218439D01*
X218447Y303422D01*
X218459Y303414D01*
X218478Y303403D01*
X218501Y303391D01*
X218532Y303375D01*
X218567Y303360D01*
X218606Y303344D01*
X218649Y303325D01*
X218699Y303309D01*
X218753Y303294D01*
X218812Y303282D01*
X218878Y303271D01*
X218947Y303263D01*
X219021Y303259D01*
X219099Y303255D01*
X219339D01*
X219343D01*
X219359D01*
X219378D01*
X219405Y303259D01*
X219440D01*
X219479Y303263D01*
X219522Y303271D01*
X219572Y303274D01*
X219673Y303298D01*
X219782Y303325D01*
X219886Y303368D01*
X219937Y303391D01*
X219983Y303422D01*
X219987Y303426D01*
X219995Y303430D01*
X220007Y303441D01*
X220018Y303453D01*
X220057Y303492D01*
X220100Y303546D01*
X220146Y303612D01*
X220181Y303694D01*
X220197Y303740D01*
X220208Y303787D01*
X220216Y303841D01*
X220220Y303895D01*
Y303923D01*
X220216Y303942D01*
Y303961D01*
X220212Y303989D01*
X220204Y304051D01*
X220189Y304117D01*
X220170Y304186D01*
X220139Y304252D01*
X220100Y304310D01*
X220092Y304318D01*
X220076Y304334D01*
X220045Y304361D01*
X219999Y304392D01*
X219941Y304423D01*
X219906Y304438D01*
X219867Y304458D01*
X219824Y304470D01*
X219774Y304485D01*
X219723Y304497D01*
X219669Y304508D01*
Y304834D01*
X219673D01*
X219685Y304830D01*
D02*
G37*
G36*
X308995Y328446D02*
Y328443D01*
Y328431D01*
Y328411D01*
X308991Y328388D01*
X308987Y328357D01*
X308983Y328322D01*
X308967Y328245D01*
X308940Y328151D01*
X308901Y328058D01*
X308878Y328016D01*
X308851Y327969D01*
X308816Y327926D01*
X308777Y327888D01*
X308773Y327884D01*
X308766Y327880D01*
X308754Y327868D01*
X308738Y327857D01*
X308715Y327841D01*
X308692Y327826D01*
X308661Y327806D01*
X308626Y327791D01*
X308587Y327771D01*
X308544Y327752D01*
X308498Y327736D01*
X308447Y327721D01*
X308335Y327697D01*
X308277Y327694D01*
X308211Y327690D01*
X308176D01*
X308149Y327694D01*
X308118D01*
X308083Y327701D01*
X308044Y327705D01*
X307997Y327713D01*
X307904Y327736D01*
X307811Y327767D01*
X307718Y327814D01*
X307671Y327845D01*
X307633Y327876D01*
X307629Y327880D01*
X307625Y327884D01*
X307613Y327895D01*
X307602Y327911D01*
X307586Y327930D01*
X307567Y327954D01*
X307547Y327981D01*
X307532Y328016D01*
X307512Y328051D01*
X307493Y328089D01*
X307473Y328132D01*
X307458Y328183D01*
X307435Y328287D01*
X307431Y328345D01*
X307427Y328408D01*
X307753D01*
Y328404D01*
Y328400D01*
Y328388D01*
X307757Y328373D01*
X307761Y328334D01*
X307768Y328287D01*
X307780Y328233D01*
X307803Y328179D01*
X307831Y328124D01*
X307869Y328074D01*
X307873Y328070D01*
X307893Y328054D01*
X307920Y328039D01*
X307955Y328016D01*
X308005Y327996D01*
X308063Y327977D01*
X308133Y327961D01*
X308211Y327958D01*
X308230D01*
X308246Y327961D01*
X308281Y327965D01*
X308327Y327973D01*
X308378Y327989D01*
X308432Y328012D01*
X308486Y328039D01*
X308537Y328082D01*
X308541Y328089D01*
X308556Y328105D01*
X308576Y328136D01*
X308599Y328175D01*
X308622Y328225D01*
X308641Y328287D01*
X308657Y328361D01*
X308665Y328443D01*
Y330208D01*
X308995D01*
Y328446D01*
D02*
G37*
G36*
X311074Y330029D02*
X310046Y327725D01*
X309716D01*
X310740Y329948D01*
X309394D01*
Y330208D01*
X311074D01*
Y330029D01*
D02*
G37*
G36*
X263259Y328059D02*
X263604D01*
Y327803D01*
X263259D01*
Y327225D01*
X262941D01*
Y327803D01*
X261812D01*
Y327985D01*
X262921Y329708D01*
X263259D01*
Y328059D01*
D02*
G37*
G36*
X258789Y329704D02*
X258824D01*
X258863Y329696D01*
X258910Y329692D01*
X258956Y329685D01*
X259061Y329661D01*
X259170Y329626D01*
X259220Y329603D01*
X259270Y329580D01*
X259321Y329549D01*
X259364Y329514D01*
X259367Y329510D01*
X259375Y329506D01*
X259383Y329495D01*
X259398Y329479D01*
X259418Y329460D01*
X259437Y329436D01*
X259457Y329405D01*
X259480Y329374D01*
X259499Y329335D01*
X259519Y329297D01*
X259538Y329250D01*
X259558Y329200D01*
X259573Y329145D01*
X259581Y329087D01*
X259589Y329025D01*
X259592Y328959D01*
Y328955D01*
Y328947D01*
Y328936D01*
Y328920D01*
X259585Y328878D01*
X259577Y328819D01*
X259561Y328757D01*
X259538Y328687D01*
X259507Y328618D01*
X259464Y328552D01*
X259460Y328544D01*
X259441Y328524D01*
X259414Y328493D01*
X259375Y328455D01*
X259325Y328416D01*
X259266Y328373D01*
X259197Y328334D01*
X259115Y328299D01*
X259701Y327244D01*
Y327225D01*
X259348D01*
X258809Y328230D01*
X258227D01*
Y327225D01*
X257897D01*
Y329708D01*
X258758D01*
X258789Y329704D01*
D02*
G37*
G36*
X261207Y329440D02*
X261133D01*
X261113Y329436D01*
X261086D01*
X261055Y329432D01*
X261020Y329425D01*
X260981Y329421D01*
X260935Y329409D01*
X260842Y329382D01*
X260745Y329343D01*
X260694Y329320D01*
X260648Y329289D01*
X260601Y329258D01*
X260559Y329219D01*
X260555Y329215D01*
X260551Y329207D01*
X260539Y329196D01*
X260524Y329180D01*
X260508Y329157D01*
X260489Y329130D01*
X260469Y329099D01*
X260446Y329064D01*
X260423Y329025D01*
X260403Y328982D01*
X260380Y328932D01*
X260361Y328878D01*
X260345Y328823D01*
X260330Y328761D01*
X260318Y328695D01*
X260310Y328625D01*
X260314Y328629D01*
X260318Y328637D01*
X260330Y328645D01*
X260345Y328660D01*
X260365Y328676D01*
X260388Y328695D01*
X260419Y328718D01*
X260450Y328738D01*
X260485Y328757D01*
X260527Y328781D01*
X260617Y328816D01*
X260671Y328831D01*
X260725Y328843D01*
X260784Y328847D01*
X260846Y328850D01*
X260877D01*
X260900Y328847D01*
X260927Y328843D01*
X260958Y328839D01*
X261032Y328823D01*
X261113Y328796D01*
X261156Y328777D01*
X261199Y328753D01*
X261241Y328726D01*
X261284Y328699D01*
X261323Y328660D01*
X261362Y328622D01*
X261366Y328618D01*
X261369Y328610D01*
X261381Y328598D01*
X261393Y328579D01*
X261408Y328559D01*
X261424Y328528D01*
X261439Y328497D01*
X261459Y328462D01*
X261478Y328420D01*
X261494Y328377D01*
X261509Y328327D01*
X261525Y328276D01*
X261548Y328160D01*
X261552Y328098D01*
X261556Y328032D01*
Y328028D01*
Y328016D01*
Y327997D01*
X261552Y327970D01*
X261548Y327935D01*
X261544Y327900D01*
X261540Y327857D01*
X261528Y327811D01*
X261505Y327714D01*
X261466Y327613D01*
X261443Y327562D01*
X261416Y327512D01*
X261385Y327465D01*
X261346Y327419D01*
X261342Y327415D01*
X261338Y327407D01*
X261323Y327399D01*
X261307Y327384D01*
X261288Y327364D01*
X261261Y327345D01*
X261234Y327326D01*
X261199Y327306D01*
X261160Y327283D01*
X261117Y327263D01*
X261071Y327244D01*
X261024Y327225D01*
X260970Y327209D01*
X260912Y327201D01*
X260849Y327194D01*
X260787Y327190D01*
X260753D01*
X260729Y327194D01*
X260698Y327198D01*
X260663Y327205D01*
X260625Y327213D01*
X260582Y327225D01*
X260535Y327236D01*
X260489Y327256D01*
X260442Y327279D01*
X260392Y327306D01*
X260345Y327337D01*
X260298Y327372D01*
X260252Y327415D01*
X260209Y327461D01*
X260205Y327465D01*
X260202Y327473D01*
X260190Y327488D01*
X260174Y327512D01*
X260159Y327539D01*
X260139Y327570D01*
X260120Y327609D01*
X260101Y327652D01*
X260077Y327702D01*
X260058Y327756D01*
X260039Y327814D01*
X260023Y327876D01*
X260008Y327942D01*
X259996Y328012D01*
X259992Y328090D01*
X259988Y328168D01*
Y328288D01*
Y328292D01*
Y328296D01*
Y328319D01*
X259992Y328354D01*
Y328400D01*
X259996Y328458D01*
X260004Y328524D01*
X260011Y328598D01*
X260023Y328676D01*
X260039Y328761D01*
X260058Y328847D01*
X260081Y328932D01*
X260112Y329021D01*
X260143Y329106D01*
X260182Y329188D01*
X260229Y329266D01*
X260279Y329335D01*
X260283Y329339D01*
X260295Y329351D01*
X260310Y329370D01*
X260333Y329394D01*
X260365Y329421D01*
X260403Y329452D01*
X260446Y329483D01*
X260496Y329518D01*
X260555Y329553D01*
X260621Y329584D01*
X260690Y329615D01*
X260768Y329646D01*
X260853Y329669D01*
X260946Y329689D01*
X261044Y329700D01*
X261148Y329708D01*
X261207D01*
Y329440D01*
D02*
G37*
G36*
X281329Y327232D02*
X281011D01*
Y329335D01*
X280374Y329102D01*
Y329390D01*
X281278Y329727D01*
X281329D01*
Y327232D01*
D02*
G37*
G36*
X279369D02*
X279051D01*
Y329335D01*
X278415Y329102D01*
Y329390D01*
X279319Y329727D01*
X279369D01*
Y327232D01*
D02*
G37*
G36*
X276960Y329747D02*
X276987D01*
X277014Y329743D01*
X277088Y329731D01*
X277169Y329716D01*
X277255Y329688D01*
X277348Y329654D01*
X277433Y329603D01*
X277437D01*
X277445Y329595D01*
X277457Y329588D01*
X277472Y329576D01*
X277511Y329545D01*
X277565Y329498D01*
X277620Y329436D01*
X277678Y329366D01*
X277736Y329281D01*
X277786Y329184D01*
Y329180D01*
X277790Y329172D01*
X277798Y329157D01*
X277806Y329137D01*
X277814Y329110D01*
X277825Y329079D01*
X277837Y329044D01*
X277849Y329002D01*
X277860Y328959D01*
X277872Y328908D01*
X277891Y328804D01*
X277907Y328683D01*
X277911Y328552D01*
Y328393D01*
Y328389D01*
Y328377D01*
Y328358D01*
Y328330D01*
X277907Y328299D01*
X277903Y328264D01*
Y328226D01*
X277895Y328179D01*
X277883Y328082D01*
X277860Y327977D01*
X277833Y327873D01*
X277794Y327772D01*
Y327768D01*
X277790Y327760D01*
X277783Y327748D01*
X277775Y327729D01*
X277763Y327706D01*
X277748Y327682D01*
X277713Y327624D01*
X277666Y327558D01*
X277612Y327488D01*
X277550Y327422D01*
X277476Y327364D01*
X277918Y327019D01*
X277693Y326813D01*
X277169Y327228D01*
X277166D01*
X277150Y327225D01*
X277123Y327221D01*
X277092Y327213D01*
X277053Y327209D01*
X277010Y327201D01*
X276960Y327197D01*
X276882D01*
X276859Y327201D01*
X276836D01*
X276805Y327205D01*
X276735Y327217D01*
X276654Y327232D01*
X276568Y327259D01*
X276479Y327294D01*
X276390Y327341D01*
X276386D01*
X276378Y327349D01*
X276366Y327357D01*
X276351Y327368D01*
X276312Y327399D01*
X276262Y327446D01*
X276203Y327504D01*
X276145Y327574D01*
X276087Y327659D01*
X276037Y327752D01*
Y327756D01*
X276033Y327764D01*
X276025Y327779D01*
X276017Y327799D01*
X276009Y327826D01*
X275998Y327857D01*
X275986Y327892D01*
X275974Y327931D01*
X275963Y327974D01*
X275951Y328020D01*
X275932Y328125D01*
X275916Y328241D01*
X275912Y328369D01*
Y328548D01*
Y328552D01*
Y328563D01*
Y328583D01*
X275916Y328610D01*
Y328641D01*
X275920Y328676D01*
X275924Y328718D01*
X275928Y328761D01*
X275943Y328862D01*
X275967Y328967D01*
X275994Y329075D01*
X276037Y329180D01*
Y329184D01*
X276044Y329192D01*
X276048Y329207D01*
X276060Y329227D01*
X276072Y329250D01*
X276087Y329277D01*
X276126Y329335D01*
X276176Y329405D01*
X276238Y329475D01*
X276308Y329541D01*
X276386Y329603D01*
X276390D01*
X276397Y329611D01*
X276409Y329619D01*
X276425Y329626D01*
X276448Y329638D01*
X276475Y329650D01*
X276502Y329661D01*
X276537Y329677D01*
X276615Y329704D01*
X276704Y329727D01*
X276801Y329743D01*
X276910Y329750D01*
X276941D01*
X276960Y329747D01*
D02*
G37*
G36*
X251742Y327954D02*
X251424D01*
Y330057D01*
X250788Y329824D01*
Y330112D01*
X251692Y330449D01*
X251742D01*
Y327954D01*
D02*
G37*
G36*
X249239Y328222D02*
X250415D01*
Y327954D01*
X248910D01*
Y330437D01*
X249239D01*
Y328222D01*
D02*
G37*
G36*
X335887Y317221D02*
X335918D01*
X335953Y317218D01*
X336031Y317202D01*
X336120Y317179D01*
X336210Y317148D01*
X336299Y317101D01*
X336341Y317070D01*
X336380Y317039D01*
X336384Y317035D01*
X336388Y317031D01*
X336400Y317020D01*
X336411Y317004D01*
X336427Y316985D01*
X336442Y316962D01*
X336462Y316934D01*
X336481Y316903D01*
X336520Y316830D01*
X336551Y316744D01*
X336574Y316639D01*
X336578Y316585D01*
X336582Y316523D01*
Y316515D01*
Y316496D01*
X336578Y316465D01*
X336570Y316422D01*
X336555Y316376D01*
X336539Y316321D01*
X336512Y316267D01*
X336477Y316209D01*
X336473Y316201D01*
X336458Y316185D01*
X336435Y316158D01*
X336403Y316123D01*
X336361Y316085D01*
X336310Y316050D01*
X336256Y316011D01*
X336190Y315980D01*
X336194D01*
X336198Y315976D01*
X336210Y315972D01*
X336225Y315968D01*
X336260Y315953D01*
X336306Y315929D01*
X336357Y315902D01*
X336411Y315863D01*
X336462Y315821D01*
X336504Y315767D01*
X336508Y315759D01*
X336524Y315739D01*
X336539Y315708D01*
X336562Y315666D01*
X336582Y315611D01*
X336601Y315549D01*
X336613Y315476D01*
X336617Y315398D01*
Y315394D01*
Y315382D01*
Y315367D01*
X336613Y315343D01*
X336609Y315316D01*
X336605Y315282D01*
X336590Y315208D01*
X336562Y315122D01*
X336524Y315033D01*
X336501Y314990D01*
X336473Y314948D01*
X336438Y314905D01*
X336400Y314866D01*
X336396Y314862D01*
X336388Y314859D01*
X336376Y314847D01*
X336361Y314835D01*
X336337Y314820D01*
X336314Y314804D01*
X336283Y314789D01*
X336248Y314769D01*
X336210Y314750D01*
X336167Y314734D01*
X336070Y314703D01*
X335957Y314680D01*
X335899Y314676D01*
X335833Y314672D01*
X335798D01*
X335775Y314676D01*
X335744D01*
X335713Y314684D01*
X335674Y314688D01*
X335631Y314696D01*
X335542Y314719D01*
X335445Y314750D01*
X335352Y314796D01*
X335305Y314827D01*
X335263Y314859D01*
X335259Y314862D01*
X335255Y314866D01*
X335243Y314878D01*
X335228Y314894D01*
X335212Y314913D01*
X335193Y314936D01*
X335154Y314994D01*
X335115Y315064D01*
X335080Y315149D01*
X335053Y315250D01*
X335049Y315301D01*
X335045Y315359D01*
X335364D01*
Y315355D01*
Y315351D01*
X335367Y315328D01*
X335371Y315289D01*
X335379Y315247D01*
X335395Y315196D01*
X335418Y315142D01*
X335445Y315091D01*
X335488Y315045D01*
X335495Y315041D01*
X335511Y315025D01*
X335538Y315010D01*
X335581Y314987D01*
X335627Y314967D01*
X335689Y314948D01*
X335755Y314932D01*
X335833Y314928D01*
X335856D01*
X335872Y314932D01*
X335911Y314936D01*
X335961Y314944D01*
X336019Y314955D01*
X336077Y314979D01*
X336132Y315006D01*
X336182Y315045D01*
X336186Y315049D01*
X336202Y315068D01*
X336221Y315095D01*
X336244Y315134D01*
X336264Y315181D01*
X336283Y315243D01*
X336299Y315313D01*
X336303Y315390D01*
Y315394D01*
Y315398D01*
Y315409D01*
Y315425D01*
X336295Y315464D01*
X336287Y315514D01*
X336272Y315569D01*
X336248Y315623D01*
X336213Y315677D01*
X336171Y315724D01*
X336163Y315728D01*
X336147Y315743D01*
X336116Y315763D01*
X336074Y315786D01*
X336019Y315805D01*
X335953Y315828D01*
X335876Y315840D01*
X335787Y315848D01*
X335550D01*
Y316104D01*
X335825D01*
X335864Y316112D01*
X335915Y316120D01*
X335969Y316131D01*
X336027Y316151D01*
X336085Y316178D01*
X336136Y316216D01*
X336140Y316220D01*
X336155Y316240D01*
X336175Y316263D01*
X336202Y316298D01*
X336225Y316345D01*
X336244Y316395D01*
X336260Y316457D01*
X336264Y316527D01*
Y316531D01*
Y316546D01*
X336260Y316566D01*
X336256Y316597D01*
X336252Y316628D01*
X336241Y316667D01*
X336229Y316705D01*
X336210Y316748D01*
X336186Y316787D01*
X336159Y316826D01*
X336124Y316864D01*
X336081Y316896D01*
X336031Y316927D01*
X335973Y316946D01*
X335907Y316962D01*
X335829Y316965D01*
X335794D01*
X335759Y316958D01*
X335713Y316950D01*
X335662Y316934D01*
X335608Y316915D01*
X335554Y316884D01*
X335503Y316845D01*
X335499Y316841D01*
X335484Y316826D01*
X335465Y316798D01*
X335445Y316764D01*
X335422Y316721D01*
X335402Y316667D01*
X335387Y316604D01*
X335383Y316539D01*
X335069D01*
Y316543D01*
Y316550D01*
Y316566D01*
X335073Y316589D01*
X335076Y316612D01*
X335080Y316643D01*
X335096Y316709D01*
X335119Y316787D01*
X335158Y316868D01*
X335185Y316911D01*
X335212Y316950D01*
X335243Y316989D01*
X335282Y317027D01*
X335286Y317031D01*
X335294Y317035D01*
X335305Y317047D01*
X335321Y317058D01*
X335344Y317074D01*
X335367Y317090D01*
X335399Y317109D01*
X335433Y317128D01*
X335511Y317163D01*
X335604Y317194D01*
X335713Y317218D01*
X335767Y317221D01*
X335829Y317225D01*
X335864D01*
X335887Y317221D01*
D02*
G37*
G36*
X333637Y317186D02*
X333664D01*
X333699Y317183D01*
X333738Y317179D01*
X333777Y317171D01*
X333866Y317156D01*
X333963Y317128D01*
X334060Y317093D01*
X334157Y317047D01*
X334161D01*
X334169Y317039D01*
X334180Y317031D01*
X334200Y317020D01*
X334242Y316989D01*
X334297Y316942D01*
X334359Y316884D01*
X334425Y316814D01*
X334487Y316729D01*
X334541Y316636D01*
Y316632D01*
X334549Y316624D01*
X334553Y316608D01*
X334564Y316589D01*
X334572Y316566D01*
X334584Y316535D01*
X334595Y316500D01*
X334611Y316461D01*
X334623Y316418D01*
X334634Y316372D01*
X334658Y316271D01*
X334673Y316155D01*
X334681Y316030D01*
Y315871D01*
Y315867D01*
Y315856D01*
Y315836D01*
X334677Y315813D01*
Y315782D01*
X334673Y315747D01*
X334669Y315708D01*
X334665Y315662D01*
X334646Y315569D01*
X334623Y315464D01*
X334592Y315359D01*
X334545Y315254D01*
Y315250D01*
X334537Y315243D01*
X334529Y315231D01*
X334522Y315212D01*
X334506Y315188D01*
X334491Y315165D01*
X334444Y315103D01*
X334390Y315041D01*
X334324Y314971D01*
X334246Y314905D01*
X334157Y314847D01*
X334153D01*
X334145Y314839D01*
X334130Y314835D01*
X334114Y314824D01*
X334087Y314816D01*
X334060Y314804D01*
X334025Y314789D01*
X333990Y314777D01*
X333947Y314765D01*
X333905Y314750D01*
X333804Y314731D01*
X333691Y314715D01*
X333571Y314707D01*
X332884D01*
Y317190D01*
X333614D01*
X333637Y317186D01*
D02*
G37*
G36*
X309349Y300221D02*
X309376D01*
X309438Y300214D01*
X309507Y300202D01*
X309585Y300183D01*
X309663Y300159D01*
X309740Y300125D01*
X309744D01*
X309748Y300121D01*
X309775Y300105D01*
X309810Y300086D01*
X309857Y300055D01*
X309903Y300016D01*
X309958Y299969D01*
X310008Y299915D01*
X310051Y299853D01*
X310055Y299845D01*
X310066Y299822D01*
X310086Y299787D01*
X310105Y299740D01*
X310124Y299682D01*
X310144Y299620D01*
X310156Y299546D01*
X310159Y299473D01*
X309834D01*
Y299477D01*
Y299484D01*
Y299496D01*
X309830Y299511D01*
X309826Y299550D01*
X309814Y299601D01*
X309799Y299659D01*
X309771Y299717D01*
X309736Y299775D01*
X309690Y299826D01*
X309682Y299830D01*
X309663Y299845D01*
X309632Y299868D01*
X309585Y299892D01*
X309527Y299915D01*
X309457Y299938D01*
X309376Y299954D01*
X309282Y299958D01*
X309244D01*
X309201Y299954D01*
X309147Y299946D01*
X309085Y299931D01*
X309023Y299911D01*
X308961Y299884D01*
X308906Y299849D01*
X308902Y299845D01*
X308887Y299830D01*
X308863Y299806D01*
X308840Y299771D01*
X308813Y299729D01*
X308794Y299678D01*
X308778Y299616D01*
X308770Y299550D01*
Y299542D01*
X308774Y299527D01*
X308778Y299496D01*
X308786Y299461D01*
X308801Y299422D01*
X308825Y299379D01*
X308856Y299337D01*
X308898Y299294D01*
X308906Y299290D01*
X308926Y299275D01*
X308957Y299255D01*
X309003Y299232D01*
X309065Y299201D01*
X309139Y299170D01*
X309182Y299151D01*
X309228Y299135D01*
X309282Y299116D01*
X309337Y299100D01*
X309341D01*
X309352Y299096D01*
X309368Y299092D01*
X309387Y299085D01*
X309414Y299077D01*
X309446Y299069D01*
X309515Y299046D01*
X309593Y299015D01*
X309674Y298984D01*
X309752Y298949D01*
X309822Y298910D01*
X309826D01*
X309830Y298906D01*
X309849Y298891D01*
X309880Y298871D01*
X309919Y298840D01*
X309962Y298805D01*
X310004Y298763D01*
X310047Y298716D01*
X310082Y298666D01*
X310086Y298658D01*
X310093Y298642D01*
X310109Y298611D01*
X310124Y298572D01*
X310140Y298522D01*
X310156Y298468D01*
X310163Y298406D01*
X310167Y298336D01*
Y298332D01*
Y298324D01*
Y298309D01*
X310163Y298285D01*
X310159Y298262D01*
X310156Y298231D01*
X310136Y298161D01*
X310109Y298084D01*
X310090Y298045D01*
X310066Y298002D01*
X310039Y297963D01*
X310008Y297924D01*
X309973Y297886D01*
X309930Y297851D01*
X309927D01*
X309919Y297843D01*
X309907Y297835D01*
X309888Y297824D01*
X309864Y297808D01*
X309834Y297793D01*
X309802Y297777D01*
X309764Y297762D01*
X309721Y297746D01*
X309674Y297730D01*
X309620Y297715D01*
X309566Y297699D01*
X309504Y297688D01*
X309442Y297680D01*
X309372Y297676D01*
X309302Y297672D01*
X309259D01*
X309236Y297676D01*
X309209D01*
X309147Y297684D01*
X309073Y297696D01*
X308992Y297715D01*
X308910Y297738D01*
X308825Y297769D01*
X308821D01*
X308817Y297773D01*
X308805Y297781D01*
X308790Y297789D01*
X308747Y297808D01*
X308700Y297839D01*
X308642Y297878D01*
X308588Y297924D01*
X308534Y297975D01*
X308483Y298037D01*
Y298041D01*
X308479Y298045D01*
X308464Y298068D01*
X308444Y298103D01*
X308425Y298149D01*
X308402Y298208D01*
X308382Y298274D01*
X308367Y298347D01*
X308363Y298425D01*
X308693D01*
Y298421D01*
Y298413D01*
Y298402D01*
X308697Y298386D01*
X308700Y298347D01*
X308712Y298297D01*
X308732Y298239D01*
X308763Y298181D01*
X308801Y298122D01*
X308856Y298068D01*
X308860D01*
X308863Y298064D01*
X308887Y298049D01*
X308922Y298029D01*
X308976Y298006D01*
X309038Y297979D01*
X309116Y297959D01*
X309201Y297944D01*
X309302Y297940D01*
X309345D01*
X309391Y297944D01*
X309449Y297952D01*
X309511Y297967D01*
X309577Y297983D01*
X309643Y298010D01*
X309698Y298045D01*
X309705Y298049D01*
X309721Y298064D01*
X309740Y298088D01*
X309768Y298118D01*
X309795Y298161D01*
X309814Y298212D01*
X309830Y298266D01*
X309837Y298332D01*
Y298336D01*
Y298340D01*
Y298363D01*
X309830Y298394D01*
X309822Y298437D01*
X309806Y298483D01*
X309783Y298530D01*
X309752Y298572D01*
X309709Y298615D01*
X309701Y298619D01*
X309686Y298631D01*
X309651Y298654D01*
X309628Y298666D01*
X309605Y298677D01*
X309574Y298693D01*
X309539Y298708D01*
X309500Y298724D01*
X309457Y298743D01*
X309411Y298759D01*
X309360Y298778D01*
X309306Y298794D01*
X309244Y298813D01*
X309240D01*
X309224Y298817D01*
X309205Y298825D01*
X309174Y298836D01*
X309139Y298848D01*
X309100Y298860D01*
X309057Y298875D01*
X309011Y298895D01*
X308910Y298937D01*
X308809Y298988D01*
X308712Y299046D01*
X308669Y299077D01*
X308631Y299108D01*
X308627Y299112D01*
X308623Y299116D01*
X308615Y299127D01*
X308600Y299139D01*
X308573Y299178D01*
X308538Y299228D01*
X308503Y299294D01*
X308472Y299368D01*
X308448Y299453D01*
X308444Y299500D01*
X308440Y299546D01*
Y299550D01*
Y299558D01*
Y299573D01*
X308444Y299597D01*
X308448Y299620D01*
X308452Y299651D01*
X308472Y299717D01*
X308499Y299795D01*
X308518Y299833D01*
X308538Y299876D01*
X308565Y299915D01*
X308596Y299958D01*
X308631Y299996D01*
X308673Y300031D01*
X308677Y300035D01*
X308685Y300039D01*
X308697Y300051D01*
X308716Y300062D01*
X308739Y300078D01*
X308767Y300093D01*
X308801Y300109D01*
X308840Y300128D01*
X308879Y300148D01*
X308926Y300163D01*
X308976Y300179D01*
X309030Y300194D01*
X309151Y300218D01*
X309213Y300221D01*
X309282Y300225D01*
X309325D01*
X309349Y300221D01*
D02*
G37*
G36*
X307994Y298499D02*
Y298495D01*
Y298483D01*
Y298464D01*
X307991Y298441D01*
X307987Y298410D01*
X307983Y298375D01*
X307975Y298340D01*
X307967Y298297D01*
X307940Y298204D01*
X307925Y298157D01*
X307901Y298111D01*
X307874Y298060D01*
X307847Y298014D01*
X307812Y297967D01*
X307773Y297924D01*
X307769Y297921D01*
X307762Y297917D01*
X307750Y297905D01*
X307734Y297890D01*
X307711Y297874D01*
X307684Y297855D01*
X307653Y297831D01*
X307618Y297812D01*
X307579Y297789D01*
X307533Y297765D01*
X307482Y297746D01*
X307432Y297727D01*
X307373Y297711D01*
X307312Y297696D01*
X307249Y297684D01*
X307180Y297676D01*
X307094Y297672D01*
X307055D01*
X307028Y297676D01*
X306993Y297680D01*
X306951Y297684D01*
X306908Y297692D01*
X306861Y297699D01*
X306757Y297727D01*
X306648Y297765D01*
X306594Y297789D01*
X306539Y297820D01*
X306489Y297851D01*
X306442Y297890D01*
X306438Y297894D01*
X306431Y297901D01*
X306419Y297913D01*
X306403Y297928D01*
X306388Y297952D01*
X306365Y297979D01*
X306345Y298014D01*
X306322Y298049D01*
X306299Y298088D01*
X306276Y298134D01*
X306256Y298184D01*
X306237Y298239D01*
X306221Y298297D01*
X306209Y298359D01*
X306202Y298425D01*
X306198Y298495D01*
Y300190D01*
X306524D01*
Y298506D01*
Y298503D01*
Y298495D01*
Y298479D01*
X306528Y298464D01*
Y298441D01*
X306532Y298413D01*
X306543Y298351D01*
X306559Y298285D01*
X306586Y298216D01*
X306621Y298149D01*
X306671Y298088D01*
X306679Y298080D01*
X306698Y298064D01*
X306733Y298041D01*
X306780Y298014D01*
X306838Y297987D01*
X306912Y297963D01*
X306997Y297948D01*
X307094Y297940D01*
X307121D01*
X307141Y297944D01*
X307164D01*
X307191Y297948D01*
X307253Y297959D01*
X307323Y297975D01*
X307393Y298002D01*
X307459Y298037D01*
X307521Y298088D01*
X307529Y298095D01*
X307544Y298115D01*
X307568Y298149D01*
X307595Y298196D01*
X307622Y298254D01*
X307645Y298324D01*
X307661Y298410D01*
X307668Y298503D01*
Y300190D01*
X307994D01*
Y298499D01*
D02*
G37*
G36*
X313500Y300221D02*
X313527D01*
X313562Y300218D01*
X313640Y300202D01*
X313725Y300183D01*
X313818Y300148D01*
X313904Y300105D01*
X313946Y300074D01*
X313985Y300043D01*
X313989Y300039D01*
X313993Y300035D01*
X314004Y300024D01*
X314016Y300008D01*
X314032Y299992D01*
X314047Y299969D01*
X314086Y299915D01*
X314125Y299845D01*
X314156Y299760D01*
X314179Y299667D01*
X314183Y299612D01*
X314187Y299558D01*
Y299554D01*
Y299542D01*
X314183Y299519D01*
X314179Y299492D01*
X314171Y299457D01*
X314163Y299414D01*
X314148Y299368D01*
X314129Y299310D01*
X314105Y299252D01*
X314074Y299182D01*
X314036Y299112D01*
X313989Y299034D01*
X313938Y298953D01*
X313876Y298867D01*
X313803Y298778D01*
X313721Y298685D01*
X313058Y297963D01*
X314303D01*
Y297707D01*
X312678D01*
Y297932D01*
X313535Y298887D01*
X313539Y298891D01*
X313543Y298898D01*
X313554Y298906D01*
X313566Y298922D01*
X313601Y298964D01*
X313640Y299011D01*
X313682Y299069D01*
X313725Y299127D01*
X313768Y299185D01*
X313799Y299240D01*
X313803Y299248D01*
X313810Y299263D01*
X313822Y299290D01*
X313838Y299325D01*
X313849Y299368D01*
X313861Y299414D01*
X313869Y299465D01*
X313873Y299519D01*
Y299523D01*
Y299527D01*
Y299550D01*
X313865Y299589D01*
X313857Y299632D01*
X313842Y299682D01*
X313822Y299736D01*
X313791Y299787D01*
X313752Y299837D01*
X313748Y299841D01*
X313733Y299857D01*
X313706Y299876D01*
X313671Y299903D01*
X313624Y299927D01*
X313574Y299946D01*
X313512Y299961D01*
X313442Y299965D01*
X313419D01*
X313403Y299961D01*
X313360Y299958D01*
X313306Y299950D01*
X313248Y299931D01*
X313186Y299907D01*
X313128Y299876D01*
X313073Y299830D01*
X313069Y299822D01*
X313054Y299806D01*
X313035Y299775D01*
X313011Y299733D01*
X312984Y299682D01*
X312965Y299616D01*
X312949Y299542D01*
X312945Y299457D01*
X312627D01*
Y299461D01*
Y299473D01*
Y299492D01*
X312631Y299515D01*
X312635Y299542D01*
X312639Y299577D01*
X312654Y299655D01*
X312681Y299744D01*
X312701Y299791D01*
X312720Y299837D01*
X312747Y299884D01*
X312774Y299927D01*
X312809Y299973D01*
X312848Y300012D01*
X312852Y300016D01*
X312860Y300020D01*
X312872Y300031D01*
X312887Y300047D01*
X312910Y300062D01*
X312937Y300078D01*
X312968Y300097D01*
X313007Y300121D01*
X313046Y300140D01*
X313089Y300159D01*
X313139Y300175D01*
X313194Y300190D01*
X313248Y300206D01*
X313310Y300218D01*
X313372Y300221D01*
X313442Y300225D01*
X313477D01*
X313500Y300221D01*
D02*
G37*
G36*
X311463Y300186D02*
X311498D01*
X311537Y300183D01*
X311579Y300175D01*
X311626Y300171D01*
X311723Y300148D01*
X311824Y300117D01*
X311917Y300078D01*
X311964Y300051D01*
X312002Y300020D01*
X312006D01*
X312010Y300012D01*
X312022Y300004D01*
X312033Y299989D01*
X312068Y299950D01*
X312107Y299896D01*
X312142Y299826D01*
X312177Y299740D01*
X312200Y299643D01*
X312204Y299585D01*
X312208Y299527D01*
Y299519D01*
Y299496D01*
X312204Y299465D01*
X312196Y299422D01*
X312185Y299376D01*
X312165Y299321D01*
X312142Y299271D01*
X312107Y299217D01*
X312103Y299213D01*
X312088Y299193D01*
X312068Y299170D01*
X312037Y299143D01*
X311999Y299108D01*
X311952Y299073D01*
X311901Y299042D01*
X311839Y299011D01*
X311843D01*
X311847Y299007D01*
X311859Y299003D01*
X311874Y298999D01*
X311909Y298984D01*
X311956Y298960D01*
X312006Y298933D01*
X312061Y298895D01*
X312111Y298848D01*
X312158Y298794D01*
X312161Y298786D01*
X312177Y298766D01*
X312196Y298731D01*
X312216Y298689D01*
X312239Y298635D01*
X312255Y298572D01*
X312270Y298499D01*
X312274Y298421D01*
Y298417D01*
Y298406D01*
Y298390D01*
X312270Y298367D01*
X312266Y298340D01*
X312262Y298305D01*
X312247Y298231D01*
X312220Y298146D01*
X312181Y298060D01*
X312158Y298018D01*
X312130Y297975D01*
X312095Y297936D01*
X312057Y297897D01*
X312053Y297894D01*
X312045Y297890D01*
X312033Y297882D01*
X312018Y297866D01*
X311995Y297855D01*
X311967Y297839D01*
X311936Y297820D01*
X311901Y297804D01*
X311859Y297785D01*
X311816Y297769D01*
X311766Y297750D01*
X311711Y297738D01*
X311649Y297727D01*
X311587Y297715D01*
X311521Y297711D01*
X311448Y297707D01*
X310586D01*
Y300190D01*
X311436D01*
X311463Y300186D01*
D02*
G37*
G36*
X319590Y304369D02*
X319625Y304365D01*
X319664Y304361D01*
X319707Y304353D01*
X319753Y304346D01*
X319854Y304319D01*
X319905Y304303D01*
X319959Y304280D01*
X320009Y304253D01*
X320064Y304225D01*
X320110Y304191D01*
X320157Y304152D01*
X320161Y304148D01*
X320168Y304140D01*
X320180Y304129D01*
X320196Y304113D01*
X320215Y304090D01*
X320234Y304063D01*
X320258Y304028D01*
X320281Y303993D01*
X320308Y303950D01*
X320332Y303904D01*
X320355Y303853D01*
X320378Y303799D01*
X320397Y303741D01*
X320413Y303678D01*
X320428Y303609D01*
X320436Y303539D01*
X320110D01*
Y303543D01*
X320106Y303550D01*
Y303566D01*
X320103Y303589D01*
X320095Y303612D01*
X320091Y303640D01*
X320072Y303706D01*
X320044Y303775D01*
X320013Y303845D01*
X319974Y303915D01*
X319951Y303942D01*
X319924Y303969D01*
X319916Y303977D01*
X319897Y303993D01*
X319866Y304012D01*
X319819Y304039D01*
X319765Y304063D01*
X319695Y304086D01*
X319614Y304101D01*
X319524Y304105D01*
X319493D01*
X319474Y304101D01*
X319447Y304098D01*
X319416Y304094D01*
X319346Y304078D01*
X319265Y304047D01*
X319226Y304031D01*
X319183Y304008D01*
X319144Y303981D01*
X319105Y303950D01*
X319067Y303915D01*
X319032Y303872D01*
Y303869D01*
X319024Y303861D01*
X319016Y303849D01*
X319005Y303830D01*
X318993Y303806D01*
X318977Y303775D01*
X318962Y303741D01*
X318946Y303702D01*
X318927Y303659D01*
X318911Y303609D01*
X318896Y303554D01*
X318884Y303496D01*
X318873Y303430D01*
X318865Y303360D01*
X318861Y303287D01*
X318857Y303209D01*
Y302968D01*
Y302964D01*
Y302949D01*
Y302930D01*
X318861Y302902D01*
Y302868D01*
X318865Y302829D01*
X318873Y302786D01*
X318877Y302736D01*
X318900Y302635D01*
X318927Y302526D01*
X318970Y302421D01*
X318993Y302371D01*
X319024Y302324D01*
X319028Y302320D01*
X319032Y302313D01*
X319043Y302301D01*
X319055Y302289D01*
X319094Y302251D01*
X319148Y302208D01*
X319214Y302161D01*
X319296Y302126D01*
X319342Y302111D01*
X319389Y302099D01*
X319443Y302092D01*
X319497Y302088D01*
X319524D01*
X319544Y302092D01*
X319563D01*
X319590Y302095D01*
X319653Y302103D01*
X319718Y302119D01*
X319788Y302138D01*
X319854Y302169D01*
X319912Y302208D01*
X319920Y302216D01*
X319936Y302231D01*
X319963Y302262D01*
X319994Y302309D01*
X320025Y302367D01*
X320040Y302402D01*
X320060Y302441D01*
X320072Y302483D01*
X320087Y302534D01*
X320099Y302584D01*
X320110Y302639D01*
X320436D01*
Y302635D01*
X320432Y302623D01*
Y302600D01*
X320425Y302573D01*
X320421Y302542D01*
X320409Y302503D01*
X320397Y302460D01*
X320386Y302417D01*
X320347Y302320D01*
X320297Y302220D01*
X320266Y302169D01*
X320231Y302122D01*
X320188Y302076D01*
X320145Y302033D01*
X320141Y302029D01*
X320134Y302026D01*
X320122Y302014D01*
X320103Y301998D01*
X320075Y301983D01*
X320048Y301967D01*
X320013Y301948D01*
X319974Y301928D01*
X319928Y301905D01*
X319881Y301886D01*
X319827Y301870D01*
X319769Y301855D01*
X319707Y301839D01*
X319641Y301828D01*
X319571Y301824D01*
X319497Y301820D01*
X319478D01*
X319455Y301824D01*
X319424D01*
X319389Y301832D01*
X319342Y301835D01*
X319296Y301847D01*
X319245Y301859D01*
X319187Y301874D01*
X319133Y301898D01*
X319071Y301921D01*
X319012Y301952D01*
X318954Y301987D01*
X318896Y302029D01*
X318842Y302080D01*
X318791Y302134D01*
X318787Y302138D01*
X318779Y302150D01*
X318768Y302165D01*
X318748Y302192D01*
X318729Y302223D01*
X318710Y302262D01*
X318683Y302305D01*
X318659Y302359D01*
X318636Y302414D01*
X318613Y302480D01*
X318589Y302549D01*
X318570Y302623D01*
X318551Y302705D01*
X318539Y302790D01*
X318531Y302883D01*
X318527Y302980D01*
Y303217D01*
Y303221D01*
Y303232D01*
Y303252D01*
X318531Y303275D01*
Y303306D01*
X318535Y303341D01*
X318539Y303380D01*
X318543Y303422D01*
X318558Y303516D01*
X318582Y303620D01*
X318609Y303725D01*
X318651Y303826D01*
Y303830D01*
X318659Y303837D01*
X318663Y303853D01*
X318675Y303869D01*
X318686Y303892D01*
X318702Y303915D01*
X318741Y303977D01*
X318791Y304039D01*
X318853Y304109D01*
X318923Y304171D01*
X319001Y304229D01*
X319005D01*
X319012Y304237D01*
X319024Y304241D01*
X319039Y304253D01*
X319063Y304264D01*
X319086Y304276D01*
X319117Y304288D01*
X319152Y304303D01*
X319226Y304326D01*
X319315Y304350D01*
X319416Y304365D01*
X319524Y304373D01*
X319563D01*
X319590Y304369D01*
D02*
G37*
G36*
X321627D02*
X321655D01*
X321690Y304365D01*
X321767Y304350D01*
X321852Y304330D01*
X321946Y304295D01*
X322031Y304253D01*
X322074Y304222D01*
X322112Y304191D01*
X322116Y304187D01*
X322120Y304183D01*
X322132Y304171D01*
X322143Y304156D01*
X322159Y304140D01*
X322175Y304117D01*
X322213Y304063D01*
X322252Y303993D01*
X322283Y303907D01*
X322306Y303814D01*
X322310Y303760D01*
X322314Y303706D01*
Y303702D01*
Y303690D01*
X322310Y303667D01*
X322306Y303640D01*
X322299Y303605D01*
X322291Y303562D01*
X322275Y303516D01*
X322256Y303457D01*
X322233Y303399D01*
X322202Y303329D01*
X322163Y303259D01*
X322116Y303182D01*
X322066Y303100D01*
X322004Y303015D01*
X321930Y302926D01*
X321849Y302833D01*
X321185Y302111D01*
X322431D01*
Y301855D01*
X320805D01*
Y302080D01*
X321662Y303034D01*
X321666Y303038D01*
X321670Y303046D01*
X321682Y303054D01*
X321693Y303069D01*
X321728Y303112D01*
X321767Y303158D01*
X321810Y303217D01*
X321852Y303275D01*
X321895Y303333D01*
X321926Y303387D01*
X321930Y303395D01*
X321938Y303411D01*
X321949Y303438D01*
X321965Y303473D01*
X321977Y303516D01*
X321988Y303562D01*
X321996Y303612D01*
X322000Y303667D01*
Y303671D01*
Y303675D01*
Y303698D01*
X321992Y303737D01*
X321984Y303779D01*
X321969Y303830D01*
X321949Y303884D01*
X321918Y303935D01*
X321880Y303985D01*
X321876Y303989D01*
X321860Y304004D01*
X321833Y304024D01*
X321798Y304051D01*
X321752Y304074D01*
X321701Y304094D01*
X321639Y304109D01*
X321569Y304113D01*
X321546D01*
X321530Y304109D01*
X321488Y304105D01*
X321433Y304098D01*
X321375Y304078D01*
X321313Y304055D01*
X321255Y304024D01*
X321201Y303977D01*
X321197Y303969D01*
X321181Y303954D01*
X321162Y303923D01*
X321139Y303880D01*
X321111Y303830D01*
X321092Y303764D01*
X321076Y303690D01*
X321073Y303605D01*
X320754D01*
Y303609D01*
Y303620D01*
Y303640D01*
X320758Y303663D01*
X320762Y303690D01*
X320766Y303725D01*
X320782Y303803D01*
X320809Y303892D01*
X320828Y303938D01*
X320848Y303985D01*
X320875Y304031D01*
X320902Y304074D01*
X320937Y304121D01*
X320976Y304159D01*
X320979Y304163D01*
X320987Y304167D01*
X320999Y304179D01*
X321014Y304194D01*
X321038Y304210D01*
X321065Y304225D01*
X321096Y304245D01*
X321135Y304268D01*
X321173Y304288D01*
X321216Y304307D01*
X321267Y304323D01*
X321321Y304338D01*
X321375Y304353D01*
X321437Y304365D01*
X321499Y304369D01*
X321569Y304373D01*
X321604D01*
X321627Y304369D01*
D02*
G37*
G36*
X258836Y337721D02*
X258863D01*
X258898Y337718D01*
X258976Y337702D01*
X259061Y337683D01*
X259154Y337648D01*
X259239Y337605D01*
X259282Y337574D01*
X259321Y337543D01*
X259325Y337539D01*
X259329Y337535D01*
X259340Y337524D01*
X259352Y337508D01*
X259367Y337492D01*
X259383Y337469D01*
X259422Y337415D01*
X259461Y337345D01*
X259492Y337260D01*
X259515Y337167D01*
X259519Y337112D01*
X259523Y337058D01*
Y337054D01*
Y337042D01*
X259519Y337019D01*
X259515Y336992D01*
X259507Y336957D01*
X259499Y336914D01*
X259484Y336868D01*
X259465Y336810D01*
X259441Y336752D01*
X259410Y336682D01*
X259371Y336612D01*
X259325Y336534D01*
X259274Y336453D01*
X259212Y336367D01*
X259139Y336278D01*
X259057Y336185D01*
X258394Y335463D01*
X259639D01*
Y335207D01*
X258013D01*
Y335432D01*
X258871Y336387D01*
X258875Y336391D01*
X258879Y336398D01*
X258890Y336406D01*
X258902Y336422D01*
X258937Y336464D01*
X258976Y336511D01*
X259018Y336569D01*
X259061Y336627D01*
X259104Y336685D01*
X259135Y336740D01*
X259139Y336748D01*
X259146Y336763D01*
X259158Y336790D01*
X259173Y336825D01*
X259185Y336868D01*
X259197Y336914D01*
X259205Y336965D01*
X259208Y337019D01*
Y337023D01*
Y337027D01*
Y337050D01*
X259201Y337089D01*
X259193Y337132D01*
X259177Y337182D01*
X259158Y337236D01*
X259127Y337287D01*
X259088Y337337D01*
X259084Y337341D01*
X259069Y337357D01*
X259042Y337376D01*
X259007Y337403D01*
X258960Y337427D01*
X258910Y337446D01*
X258848Y337461D01*
X258778Y337465D01*
X258754D01*
X258739Y337461D01*
X258696Y337458D01*
X258642Y337450D01*
X258584Y337431D01*
X258522Y337407D01*
X258464Y337376D01*
X258409Y337330D01*
X258405Y337322D01*
X258390Y337306D01*
X258370Y337275D01*
X258347Y337233D01*
X258320Y337182D01*
X258300Y337116D01*
X258285Y337042D01*
X258281Y336957D01*
X257963D01*
Y336961D01*
Y336973D01*
Y336992D01*
X257967Y337015D01*
X257971Y337042D01*
X257975Y337077D01*
X257990Y337155D01*
X258017Y337244D01*
X258037Y337291D01*
X258056Y337337D01*
X258083Y337384D01*
X258110Y337427D01*
X258145Y337473D01*
X258184Y337512D01*
X258188Y337516D01*
X258196Y337520D01*
X258207Y337531D01*
X258223Y337547D01*
X258246Y337562D01*
X258273Y337578D01*
X258304Y337597D01*
X258343Y337621D01*
X258382Y337640D01*
X258425Y337659D01*
X258475Y337675D01*
X258529Y337690D01*
X258584Y337706D01*
X258646Y337718D01*
X258708Y337721D01*
X258778Y337725D01*
X258813D01*
X258836Y337721D01*
D02*
G37*
G36*
X256834Y337686D02*
X256869D01*
X256908Y337679D01*
X256954Y337675D01*
X257001Y337667D01*
X257105Y337644D01*
X257214Y337609D01*
X257264Y337586D01*
X257315Y337562D01*
X257365Y337531D01*
X257408Y337496D01*
X257412Y337492D01*
X257420Y337489D01*
X257428Y337477D01*
X257443Y337461D01*
X257462Y337442D01*
X257482Y337419D01*
X257501Y337388D01*
X257524Y337357D01*
X257544Y337318D01*
X257563Y337279D01*
X257583Y337233D01*
X257602Y337182D01*
X257618Y337128D01*
X257625Y337070D01*
X257633Y337007D01*
X257637Y336942D01*
Y336938D01*
Y336930D01*
Y336918D01*
Y336903D01*
X257629Y336860D01*
X257622Y336802D01*
X257606Y336740D01*
X257583Y336670D01*
X257552Y336600D01*
X257509Y336534D01*
X257505Y336526D01*
X257486Y336507D01*
X257458Y336476D01*
X257420Y336437D01*
X257369Y336398D01*
X257311Y336356D01*
X257241Y336317D01*
X257160Y336282D01*
X257746Y335227D01*
Y335207D01*
X257393D01*
X256853Y336212D01*
X256271D01*
Y335207D01*
X255941D01*
Y337690D01*
X256803D01*
X256834Y337686D01*
D02*
G37*
G36*
X261210Y337423D02*
X261137D01*
X261117Y337419D01*
X261090D01*
X261059Y337415D01*
X261024Y337407D01*
X260985Y337403D01*
X260939Y337392D01*
X260846Y337365D01*
X260749Y337326D01*
X260698Y337302D01*
X260652Y337271D01*
X260605Y337240D01*
X260562Y337201D01*
X260559Y337198D01*
X260555Y337190D01*
X260543Y337178D01*
X260528Y337163D01*
X260512Y337140D01*
X260493Y337112D01*
X260473Y337081D01*
X260450Y337046D01*
X260427Y337007D01*
X260407Y336965D01*
X260384Y336914D01*
X260365Y336860D01*
X260349Y336806D01*
X260334Y336744D01*
X260322Y336678D01*
X260314Y336608D01*
X260318Y336612D01*
X260322Y336619D01*
X260334Y336627D01*
X260349Y336643D01*
X260368Y336658D01*
X260392Y336678D01*
X260423Y336701D01*
X260454Y336720D01*
X260489Y336740D01*
X260531Y336763D01*
X260621Y336798D01*
X260675Y336813D01*
X260729Y336825D01*
X260788Y336829D01*
X260850Y336833D01*
X260881D01*
X260904Y336829D01*
X260931Y336825D01*
X260962Y336821D01*
X261036Y336806D01*
X261117Y336779D01*
X261160Y336759D01*
X261203Y336736D01*
X261245Y336709D01*
X261288Y336682D01*
X261327Y336643D01*
X261366Y336604D01*
X261370Y336600D01*
X261373Y336592D01*
X261385Y336581D01*
X261397Y336561D01*
X261412Y336542D01*
X261428Y336511D01*
X261443Y336480D01*
X261463Y336445D01*
X261482Y336402D01*
X261498Y336360D01*
X261513Y336309D01*
X261529Y336259D01*
X261552Y336142D01*
X261556Y336080D01*
X261560Y336014D01*
Y336010D01*
Y335999D01*
Y335979D01*
X261556Y335952D01*
X261552Y335917D01*
X261548Y335882D01*
X261544Y335840D01*
X261532Y335793D01*
X261509Y335696D01*
X261470Y335595D01*
X261447Y335545D01*
X261420Y335494D01*
X261389Y335448D01*
X261350Y335401D01*
X261346Y335397D01*
X261342Y335390D01*
X261327Y335382D01*
X261311Y335366D01*
X261292Y335347D01*
X261265Y335328D01*
X261238Y335308D01*
X261203Y335289D01*
X261164Y335265D01*
X261121Y335246D01*
X261075Y335227D01*
X261028Y335207D01*
X260974Y335192D01*
X260916Y335184D01*
X260854Y335176D01*
X260791Y335172D01*
X260756D01*
X260733Y335176D01*
X260702Y335180D01*
X260667Y335188D01*
X260629Y335196D01*
X260586Y335207D01*
X260539Y335219D01*
X260493Y335238D01*
X260446Y335262D01*
X260396Y335289D01*
X260349Y335320D01*
X260303Y335355D01*
X260256Y335397D01*
X260213Y335444D01*
X260209Y335448D01*
X260206Y335455D01*
X260194Y335471D01*
X260178Y335494D01*
X260163Y335522D01*
X260143Y335553D01*
X260124Y335591D01*
X260105Y335634D01*
X260081Y335684D01*
X260062Y335739D01*
X260043Y335797D01*
X260027Y335859D01*
X260012Y335925D01*
X260000Y335995D01*
X259996Y336072D01*
X259992Y336150D01*
Y336270D01*
Y336274D01*
Y336278D01*
Y336301D01*
X259996Y336336D01*
Y336383D01*
X260000Y336441D01*
X260008Y336507D01*
X260016Y336581D01*
X260027Y336658D01*
X260043Y336744D01*
X260062Y336829D01*
X260085Y336914D01*
X260116Y337004D01*
X260147Y337089D01*
X260186Y337171D01*
X260233Y337248D01*
X260283Y337318D01*
X260287Y337322D01*
X260299Y337333D01*
X260314Y337353D01*
X260337Y337376D01*
X260368Y337403D01*
X260407Y337434D01*
X260450Y337465D01*
X260501Y337500D01*
X260559Y337535D01*
X260625Y337566D01*
X260695Y337597D01*
X260772Y337628D01*
X260857Y337652D01*
X260950Y337671D01*
X261048Y337683D01*
X261152Y337690D01*
X261210D01*
Y337423D01*
D02*
G37*
%LPC*%
G36*
X254825Y365440D02*
X254806D01*
X254790Y365436D01*
X254752Y365432D01*
X254705Y365421D01*
X254651Y365401D01*
X254596Y365374D01*
X254538Y365335D01*
X254488Y365281D01*
X254484Y365273D01*
X254468Y365254D01*
X254449Y365219D01*
X254426Y365169D01*
X254402Y365110D01*
X254383Y365037D01*
X254367Y364955D01*
X254364Y364862D01*
Y364858D01*
Y364850D01*
Y364839D01*
X254367Y364819D01*
X254371Y364777D01*
X254379Y364719D01*
X254395Y364652D01*
X254414Y364583D01*
X254445Y364517D01*
X254484Y364451D01*
X254492Y364443D01*
X254507Y364424D01*
X254534Y364400D01*
X254573Y364369D01*
X254620Y364338D01*
X254674Y364315D01*
X254740Y364296D01*
X254814Y364288D01*
X254841D01*
X254872Y364292D01*
X254911Y364299D01*
X254953Y364311D01*
X255004Y364327D01*
X255054Y364350D01*
X255105Y364381D01*
X255112Y364385D01*
X255128Y364400D01*
X255151Y364420D01*
X255182Y364447D01*
X255213Y364482D01*
X255244Y364525D01*
X255275Y364571D01*
X255303Y364621D01*
Y364746D01*
Y364750D01*
Y364761D01*
Y364777D01*
X255299Y364796D01*
Y364823D01*
X255295Y364854D01*
X255287Y364924D01*
X255268Y365002D01*
X255244Y365087D01*
X255213Y365169D01*
X255167Y365246D01*
Y365250D01*
X255159Y365254D01*
X255143Y365277D01*
X255112Y365308D01*
X255074Y365343D01*
X255023Y365378D01*
X254965Y365409D01*
X254899Y365432D01*
X254864Y365436D01*
X254825Y365440D01*
D02*
G37*
G36*
X252594Y365405D02*
X252210D01*
Y363457D01*
X252590D01*
X252618Y363461D01*
X252649Y363465D01*
X252687Y363469D01*
X252726Y363477D01*
X252769Y363489D01*
X252866Y363516D01*
X252912Y363535D01*
X252963Y363555D01*
X253010Y363582D01*
X253056Y363613D01*
X253099Y363648D01*
X253141Y363690D01*
X253145Y363694D01*
X253149Y363702D01*
X253161Y363714D01*
X253176Y363733D01*
X253192Y363760D01*
X253207Y363787D01*
X253227Y363822D01*
X253250Y363865D01*
X253270Y363908D01*
X253289Y363958D01*
X253304Y364012D01*
X253320Y364074D01*
X253335Y364137D01*
X253347Y364206D01*
X253351Y364284D01*
X253355Y364362D01*
Y364509D01*
Y364513D01*
Y364528D01*
Y364548D01*
X253351Y364579D01*
X253347Y364614D01*
X253343Y364656D01*
X253339Y364699D01*
X253331Y364750D01*
X253308Y364854D01*
X253273Y364963D01*
X253250Y365017D01*
X253223Y365072D01*
X253192Y365118D01*
X253157Y365165D01*
X253153Y365169D01*
X253149Y365176D01*
X253137Y365188D01*
X253122Y365203D01*
X253099Y365219D01*
X253076Y365238D01*
X253044Y365262D01*
X253013Y365285D01*
X252975Y365304D01*
X252932Y365328D01*
X252885Y365347D01*
X252835Y365366D01*
X252781Y365382D01*
X252722Y365394D01*
X252660Y365401D01*
X252594Y365405D01*
D02*
G37*
G36*
X267022Y373767D02*
X266984Y373702D01*
X266250Y372553D01*
X267022D01*
Y373767D01*
D02*
G37*
G36*
X260441Y347773D02*
X260402Y347707D01*
X259669Y346559D01*
X260441D01*
Y347773D01*
D02*
G37*
G36*
X256227Y347940D02*
X255727D01*
Y346997D01*
X256254D01*
X256270Y347001D01*
X256316Y347005D01*
X256371Y347013D01*
X256433Y347028D01*
X256499Y347052D01*
X256561Y347079D01*
X256619Y347122D01*
X256627Y347129D01*
X256642Y347145D01*
X256666Y347172D01*
X256693Y347211D01*
X256716Y347261D01*
X256739Y347319D01*
X256755Y347385D01*
X256763Y347459D01*
Y347463D01*
Y347471D01*
Y347482D01*
X256759Y347498D01*
X256755Y347540D01*
X256747Y347591D01*
X256728Y347649D01*
X256704Y347707D01*
X256669Y347762D01*
X256623Y347812D01*
X256615Y347816D01*
X256600Y347832D01*
X256565Y347851D01*
X256522Y347874D01*
X256468Y347898D01*
X256398Y347917D01*
X256320Y347932D01*
X256227Y347940D01*
D02*
G37*
G36*
X258538Y342256D02*
X258499Y342190D01*
X257766Y341041D01*
X258538D01*
Y342256D01*
D02*
G37*
G36*
X256283Y342423D02*
X255783D01*
Y341480D01*
X256311D01*
X256326Y341484D01*
X256373Y341488D01*
X256427Y341495D01*
X256489Y341511D01*
X256555Y341534D01*
X256617Y341561D01*
X256675Y341604D01*
X256683Y341612D01*
X256699Y341627D01*
X256722Y341654D01*
X256749Y341693D01*
X256772Y341744D01*
X256796Y341802D01*
X256811Y341868D01*
X256819Y341942D01*
Y341946D01*
Y341953D01*
Y341965D01*
X256815Y341980D01*
X256811Y342023D01*
X256803Y342073D01*
X256784Y342132D01*
X256761Y342190D01*
X256726Y342244D01*
X256679Y342295D01*
X256671Y342299D01*
X256656Y342314D01*
X256621Y342334D01*
X256578Y342357D01*
X256524Y342380D01*
X256454Y342399D01*
X256377Y342415D01*
X256283Y342423D01*
D02*
G37*
G36*
X260257Y342465D02*
X260226D01*
X260191Y342458D01*
X260148Y342450D01*
X260101Y342438D01*
X260051Y342415D01*
X260000Y342388D01*
X259954Y342349D01*
X259950Y342345D01*
X259938Y342330D01*
X259919Y342302D01*
X259900Y342267D01*
X259876Y342221D01*
X259861Y342167D01*
X259845Y342105D01*
X259841Y342035D01*
Y342031D01*
Y342027D01*
Y342004D01*
X259849Y341969D01*
X259857Y341926D01*
X259869Y341880D01*
X259888Y341829D01*
X259915Y341779D01*
X259954Y341732D01*
X259958Y341728D01*
X259973Y341713D01*
X260000Y341697D01*
X260035Y341674D01*
X260078Y341654D01*
X260128Y341635D01*
X260191Y341619D01*
X260257Y341616D01*
X260264D01*
X260288Y341619D01*
X260322Y341623D01*
X260365Y341631D01*
X260416Y341643D01*
X260466Y341666D01*
X260513Y341693D01*
X260559Y341732D01*
X260563Y341736D01*
X260579Y341752D01*
X260594Y341779D01*
X260617Y341813D01*
X260637Y341856D01*
X260656Y341911D01*
X260668Y341969D01*
X260672Y342035D01*
Y342039D01*
Y342042D01*
Y342066D01*
X260664Y342101D01*
X260656Y342143D01*
X260645Y342194D01*
X260621Y342244D01*
X260594Y342299D01*
X260555Y342345D01*
X260551Y342349D01*
X260536Y342365D01*
X260509Y342384D01*
X260474Y342407D01*
X260431Y342427D01*
X260381Y342446D01*
X260322Y342461D01*
X260257Y342465D01*
D02*
G37*
G36*
X260253Y341356D02*
X260218D01*
X260179Y341348D01*
X260128Y341340D01*
X260074Y341325D01*
X260020Y341301D01*
X259962Y341266D01*
X259911Y341224D01*
X259907Y341216D01*
X259892Y341200D01*
X259872Y341170D01*
X259849Y341131D01*
X259822Y341080D01*
X259803Y341022D01*
X259787Y340956D01*
X259783Y340879D01*
Y340875D01*
Y340871D01*
Y340859D01*
X259787Y340844D01*
X259791Y340805D01*
X259799Y340758D01*
X259814Y340708D01*
X259838Y340650D01*
X259865Y340599D01*
X259907Y340549D01*
X259915Y340545D01*
X259931Y340529D01*
X259958Y340510D01*
X260000Y340491D01*
X260051Y340467D01*
X260109Y340448D01*
X260179Y340432D01*
X260257Y340428D01*
X260280D01*
X260291Y340432D01*
X260334Y340436D01*
X260385Y340444D01*
X260439Y340459D01*
X260497Y340479D01*
X260551Y340510D01*
X260602Y340549D01*
X260606Y340556D01*
X260621Y340572D01*
X260641Y340599D01*
X260668Y340638D01*
X260691Y340685D01*
X260711Y340743D01*
X260726Y340809D01*
X260730Y340882D01*
Y340886D01*
Y340890D01*
Y340902D01*
Y340917D01*
X260722Y340956D01*
X260714Y341003D01*
X260699Y341057D01*
X260676Y341115D01*
X260641Y341170D01*
X260598Y341224D01*
X260590Y341228D01*
X260575Y341243D01*
X260544Y341266D01*
X260505Y341290D01*
X260454Y341313D01*
X260396Y341336D01*
X260330Y341352D01*
X260253Y341356D01*
D02*
G37*
G36*
X259518Y388256D02*
X259479Y388190D01*
X258746Y387041D01*
X259518D01*
Y388256D01*
D02*
G37*
G36*
X257264Y388423D02*
X256764D01*
Y387480D01*
X257291D01*
X257307Y387484D01*
X257353Y387488D01*
X257408Y387495D01*
X257470Y387511D01*
X257536Y387534D01*
X257598Y387561D01*
X257656Y387604D01*
X257664Y387612D01*
X257679Y387627D01*
X257702Y387654D01*
X257730Y387693D01*
X257753Y387744D01*
X257776Y387802D01*
X257792Y387868D01*
X257799Y387942D01*
Y387946D01*
Y387953D01*
Y387965D01*
X257796Y387980D01*
X257792Y388023D01*
X257784Y388073D01*
X257765Y388132D01*
X257741Y388190D01*
X257706Y388244D01*
X257660Y388295D01*
X257652Y388299D01*
X257636Y388314D01*
X257602Y388334D01*
X257559Y388357D01*
X257505Y388380D01*
X257435Y388399D01*
X257357Y388415D01*
X257264Y388423D01*
D02*
G37*
G36*
X244675Y330139D02*
X243461D01*
X243527Y330100D01*
X244675Y329367D01*
Y330139D01*
D02*
G37*
G36*
X243775Y326461D02*
X243771D01*
X243764D01*
X243752D01*
X243737Y326457D01*
X243694Y326453D01*
X243643Y326445D01*
X243585Y326426D01*
X243527Y326403D01*
X243473Y326368D01*
X243422Y326321D01*
X243418Y326313D01*
X243403Y326298D01*
X243383Y326263D01*
X243360Y326220D01*
X243337Y326166D01*
X243317Y326096D01*
X243302Y326019D01*
X243294Y325925D01*
Y325425D01*
X244237D01*
Y325953D01*
X244233Y325968D01*
X244229Y326015D01*
X244221Y326069D01*
X244206Y326131D01*
X244183Y326197D01*
X244156Y326259D01*
X244113Y326317D01*
X244105Y326325D01*
X244090Y326341D01*
X244062Y326364D01*
X244024Y326391D01*
X243973Y326414D01*
X243915Y326438D01*
X243849Y326453D01*
X243775Y326461D01*
D02*
G37*
G36*
X246771Y390917D02*
X246387D01*
Y388969D01*
X246767D01*
X246794Y388973D01*
X246825Y388977D01*
X246864Y388981D01*
X246903Y388988D01*
X246946Y389000D01*
X247043Y389027D01*
X247089Y389047D01*
X247140Y389066D01*
X247186Y389093D01*
X247233Y389124D01*
X247275Y389159D01*
X247318Y389202D01*
X247322Y389206D01*
X247326Y389214D01*
X247338Y389225D01*
X247353Y389245D01*
X247369Y389272D01*
X247384Y389299D01*
X247404Y389334D01*
X247427Y389376D01*
X247446Y389419D01*
X247465Y389470D01*
X247481Y389524D01*
X247497Y389586D01*
X247512Y389648D01*
X247524Y389718D01*
X247528Y389796D01*
X247532Y389873D01*
Y390021D01*
Y390024D01*
Y390040D01*
Y390059D01*
X247528Y390090D01*
X247524Y390125D01*
X247520Y390168D01*
X247516Y390211D01*
X247508Y390261D01*
X247485Y390366D01*
X247450Y390475D01*
X247427Y390529D01*
X247400Y390583D01*
X247369Y390630D01*
X247334Y390676D01*
X247330Y390680D01*
X247326Y390688D01*
X247314Y390700D01*
X247299Y390715D01*
X247275Y390731D01*
X247252Y390750D01*
X247221Y390773D01*
X247190Y390797D01*
X247151Y390816D01*
X247109Y390839D01*
X247062Y390859D01*
X247012Y390878D01*
X246957Y390894D01*
X246899Y390905D01*
X246837Y390913D01*
X246771Y390917D01*
D02*
G37*
G36*
X229247Y385965D02*
X229223D01*
X229208Y385962D01*
X229165Y385958D01*
X229111Y385942D01*
X229053Y385919D01*
X228995Y385888D01*
X228936Y385841D01*
X228913Y385810D01*
X228890Y385779D01*
Y385775D01*
X228886Y385771D01*
X228878Y385760D01*
X228874Y385744D01*
X228867Y385725D01*
X228855Y385701D01*
X228847Y385674D01*
X228836Y385640D01*
X228824Y385605D01*
X228816Y385562D01*
X228804Y385515D01*
X228797Y385465D01*
X228789Y385410D01*
X228785Y385352D01*
X228781Y385290D01*
X228777Y385220D01*
Y384712D01*
Y384708D01*
Y384697D01*
Y384673D01*
X228781Y384646D01*
Y384615D01*
X228785Y384576D01*
X228789Y384534D01*
X228793Y384487D01*
X228804Y384390D01*
X228828Y384293D01*
X228855Y384200D01*
X228874Y384157D01*
X228894Y384119D01*
Y384115D01*
X228898Y384111D01*
X228917Y384087D01*
X228944Y384060D01*
X228983Y384025D01*
X229033Y383991D01*
X229096Y383959D01*
X229169Y383936D01*
X229208Y383932D01*
X229251Y383928D01*
X229274D01*
X229290Y383932D01*
X229332Y383936D01*
X229383Y383952D01*
X229437Y383971D01*
X229495Y384002D01*
X229550Y384049D01*
X229573Y384076D01*
X229596Y384107D01*
Y384111D01*
X229600Y384115D01*
X229608Y384126D01*
X229615Y384142D01*
X229623Y384161D01*
X229631Y384185D01*
X229643Y384215D01*
X229654Y384246D01*
X229666Y384285D01*
X229674Y384328D01*
X229685Y384375D01*
X229693Y384425D01*
X229701Y384479D01*
X229709Y384541D01*
X229712Y384607D01*
X229716Y384677D01*
Y385193D01*
Y385197D01*
Y385213D01*
Y385232D01*
Y385259D01*
X229712Y385294D01*
Y385329D01*
X229709Y385372D01*
X229701Y385418D01*
X229689Y385515D01*
X229670Y385612D01*
X229643Y385701D01*
X229623Y385744D01*
X229604Y385779D01*
Y385783D01*
X229600Y385787D01*
X229584Y385810D01*
X229557Y385837D01*
X229518Y385872D01*
X229468Y385907D01*
X229406Y385938D01*
X229332Y385958D01*
X229290Y385962D01*
X229247Y385965D01*
D02*
G37*
G36*
X262941Y329273D02*
X262902Y329207D01*
X262169Y328059D01*
X262941D01*
Y329273D01*
D02*
G37*
G36*
X258727Y329440D02*
X258227D01*
Y328497D01*
X258754D01*
X258770Y328501D01*
X258816Y328505D01*
X258871Y328513D01*
X258933Y328528D01*
X258999Y328552D01*
X259061Y328579D01*
X259119Y328622D01*
X259127Y328629D01*
X259142Y328645D01*
X259166Y328672D01*
X259193Y328711D01*
X259216Y328761D01*
X259239Y328819D01*
X259255Y328885D01*
X259263Y328959D01*
Y328963D01*
Y328971D01*
Y328982D01*
X259259Y328998D01*
X259255Y329041D01*
X259247Y329091D01*
X259228Y329149D01*
X259204Y329207D01*
X259170Y329262D01*
X259123Y329312D01*
X259115Y329316D01*
X259100Y329331D01*
X259065Y329351D01*
X259022Y329374D01*
X258968Y329398D01*
X258898Y329417D01*
X258820Y329432D01*
X258727Y329440D01*
D02*
G37*
G36*
X260791Y328583D02*
X260764D01*
X260733Y328579D01*
X260694Y328571D01*
X260648Y328559D01*
X260597Y328540D01*
X260543Y328517D01*
X260492Y328486D01*
X260489Y328482D01*
X260469Y328470D01*
X260446Y328447D01*
X260419Y328420D01*
X260388Y328385D01*
X260357Y328342D01*
X260326Y328296D01*
X260302Y328245D01*
Y328129D01*
Y328125D01*
Y328117D01*
Y328102D01*
X260306Y328078D01*
Y328051D01*
X260310Y328024D01*
X260318Y327954D01*
X260337Y327876D01*
X260361Y327795D01*
X260392Y327714D01*
X260438Y327640D01*
X260446Y327632D01*
X260465Y327613D01*
X260492Y327582D01*
X260535Y327551D01*
X260586Y327516D01*
X260644Y327485D01*
X260714Y327465D01*
X260749Y327461D01*
X260787Y327457D01*
X260807D01*
X260822Y327461D01*
X260861Y327465D01*
X260908Y327477D01*
X260962Y327496D01*
X261020Y327520D01*
X261071Y327558D01*
X261121Y327609D01*
X261125Y327617D01*
X261140Y327636D01*
X261160Y327671D01*
X261183Y327717D01*
X261203Y327776D01*
X261222Y327846D01*
X261238Y327927D01*
X261241Y328016D01*
Y328020D01*
Y328028D01*
Y328040D01*
Y328059D01*
X261234Y328105D01*
X261226Y328164D01*
X261210Y328226D01*
X261191Y328296D01*
X261160Y328362D01*
X261117Y328424D01*
X261113Y328431D01*
X261094Y328447D01*
X261067Y328474D01*
X261032Y328505D01*
X260985Y328532D01*
X260931Y328559D01*
X260865Y328575D01*
X260791Y328583D01*
D02*
G37*
G36*
X276910Y329467D02*
X276878D01*
X276859Y329463D01*
X276832Y329460D01*
X276801Y329456D01*
X276731Y329436D01*
X276654Y329409D01*
X276615Y329390D01*
X276572Y329366D01*
X276533Y329339D01*
X276494Y329308D01*
X276456Y329273D01*
X276421Y329231D01*
Y329227D01*
X276413Y329219D01*
X276405Y329207D01*
X276394Y329188D01*
X276378Y329165D01*
X276362Y329134D01*
X276347Y329099D01*
X276331Y329060D01*
X276316Y329017D01*
X276296Y328967D01*
X276281Y328912D01*
X276269Y328854D01*
X276258Y328792D01*
X276246Y328722D01*
X276242Y328652D01*
X276238Y328575D01*
Y328393D01*
Y328389D01*
Y328373D01*
Y328350D01*
X276242Y328323D01*
Y328288D01*
X276246Y328245D01*
X276254Y328199D01*
X276262Y328148D01*
X276281Y328039D01*
X276312Y327931D01*
X276359Y327822D01*
X276386Y327768D01*
X276417Y327721D01*
X276421Y327717D01*
X276425Y327710D01*
X276436Y327698D01*
X276448Y327682D01*
X276467Y327663D01*
X276490Y327644D01*
X276545Y327601D01*
X276615Y327554D01*
X276700Y327516D01*
X276747Y327500D01*
X276797Y327488D01*
X276851Y327481D01*
X276910Y327477D01*
X276941D01*
X276964Y327481D01*
X276987Y327485D01*
X277018Y327488D01*
X277092Y327504D01*
X277169Y327531D01*
X277212Y327551D01*
X277251Y327574D01*
X277294Y327601D01*
X277332Y327632D01*
X277367Y327667D01*
X277402Y327706D01*
X277406Y327710D01*
X277410Y327717D01*
X277418Y327729D01*
X277430Y327748D01*
X277441Y327772D01*
X277457Y327803D01*
X277472Y327838D01*
X277492Y327876D01*
X277507Y327919D01*
X277523Y327970D01*
X277538Y328024D01*
X277550Y328082D01*
X277561Y328148D01*
X277573Y328218D01*
X277577Y328292D01*
X277581Y328369D01*
Y328552D01*
Y328555D01*
Y328571D01*
Y328594D01*
X277577Y328625D01*
Y328660D01*
X277573Y328703D01*
X277565Y328749D01*
X277557Y328800D01*
X277538Y328908D01*
X277507Y329021D01*
X277464Y329130D01*
X277437Y329180D01*
X277406Y329227D01*
Y329231D01*
X277398Y329238D01*
X277387Y329250D01*
X277375Y329265D01*
X277356Y329281D01*
X277332Y329304D01*
X277278Y329347D01*
X277208Y329390D01*
X277123Y329429D01*
X277076Y329444D01*
X277022Y329456D01*
X276968Y329463D01*
X276910Y329467D01*
D02*
G37*
G36*
X333594Y316923D02*
X333210D01*
Y314975D01*
X333591D01*
X333618Y314979D01*
X333649Y314983D01*
X333687Y314987D01*
X333726Y314994D01*
X333769Y315006D01*
X333866Y315033D01*
X333912Y315053D01*
X333963Y315072D01*
X334010Y315099D01*
X334056Y315130D01*
X334099Y315165D01*
X334141Y315208D01*
X334145Y315212D01*
X334149Y315219D01*
X334161Y315231D01*
X334176Y315250D01*
X334192Y315278D01*
X334207Y315305D01*
X334227Y315340D01*
X334250Y315382D01*
X334269Y315425D01*
X334289Y315476D01*
X334304Y315530D01*
X334320Y315592D01*
X334335Y315654D01*
X334347Y315724D01*
X334351Y315801D01*
X334355Y315879D01*
Y316026D01*
Y316030D01*
Y316046D01*
Y316065D01*
X334351Y316096D01*
X334347Y316131D01*
X334343Y316174D01*
X334339Y316216D01*
X334331Y316267D01*
X334308Y316372D01*
X334273Y316480D01*
X334250Y316535D01*
X334223Y316589D01*
X334192Y316636D01*
X334157Y316682D01*
X334153Y316686D01*
X334149Y316694D01*
X334138Y316705D01*
X334122Y316721D01*
X334099Y316737D01*
X334075Y316756D01*
X334044Y316779D01*
X334013Y316802D01*
X333975Y316822D01*
X333932Y316845D01*
X333885Y316864D01*
X333835Y316884D01*
X333781Y316899D01*
X333722Y316911D01*
X333660Y316919D01*
X333594Y316923D01*
D02*
G37*
G36*
X311397Y299923D02*
X310912D01*
Y299131D01*
X311444D01*
X311483Y299135D01*
X311533Y299143D01*
X311587Y299158D01*
X311642Y299174D01*
X311700Y299201D01*
X311750Y299236D01*
X311754Y299240D01*
X311770Y299255D01*
X311789Y299279D01*
X311816Y299313D01*
X311839Y299356D01*
X311859Y299407D01*
X311874Y299465D01*
X311878Y299531D01*
Y299535D01*
Y299539D01*
Y299566D01*
X311871Y299601D01*
X311863Y299643D01*
X311847Y299690D01*
X311828Y299740D01*
X311797Y299787D01*
X311758Y299826D01*
X311754Y299830D01*
X311735Y299841D01*
X311707Y299857D01*
X311669Y299876D01*
X311618Y299892D01*
X311556Y299907D01*
X311483Y299919D01*
X311397Y299923D01*
D02*
G37*
G36*
X311459Y298864D02*
X310912D01*
Y297975D01*
X311475D01*
X311490Y297979D01*
X311529Y297983D01*
X311583Y297990D01*
X311642Y298002D01*
X311700Y298025D01*
X311758Y298053D01*
X311812Y298091D01*
X311816Y298095D01*
X311832Y298115D01*
X311855Y298138D01*
X311878Y298177D01*
X311901Y298223D01*
X311925Y298278D01*
X311940Y298343D01*
X311944Y298417D01*
Y298421D01*
Y298437D01*
X311940Y298460D01*
X311936Y298487D01*
X311929Y298522D01*
X311917Y298557D01*
X311905Y298600D01*
X311882Y298642D01*
X311859Y298681D01*
X311828Y298724D01*
X311785Y298759D01*
X311738Y298794D01*
X311684Y298821D01*
X311618Y298844D01*
X311544Y298860D01*
X311459Y298864D01*
D02*
G37*
G36*
X256772Y337423D02*
X256271D01*
Y336480D01*
X256799D01*
X256814Y336484D01*
X256861Y336488D01*
X256915Y336495D01*
X256977Y336511D01*
X257043Y336534D01*
X257105Y336561D01*
X257164Y336604D01*
X257171Y336612D01*
X257187Y336627D01*
X257210Y336654D01*
X257237Y336693D01*
X257261Y336744D01*
X257284Y336802D01*
X257299Y336868D01*
X257307Y336942D01*
Y336946D01*
Y336953D01*
Y336965D01*
X257303Y336980D01*
X257299Y337023D01*
X257292Y337073D01*
X257272Y337132D01*
X257249Y337190D01*
X257214Y337244D01*
X257168Y337295D01*
X257160Y337298D01*
X257144Y337314D01*
X257109Y337333D01*
X257067Y337357D01*
X257012Y337380D01*
X256943Y337399D01*
X256865Y337415D01*
X256772Y337423D01*
D02*
G37*
G36*
X260795Y336565D02*
X260768D01*
X260737Y336561D01*
X260698Y336554D01*
X260652Y336542D01*
X260601Y336523D01*
X260547Y336499D01*
X260497Y336468D01*
X260493Y336464D01*
X260473Y336453D01*
X260450Y336429D01*
X260423Y336402D01*
X260392Y336367D01*
X260361Y336325D01*
X260330Y336278D01*
X260306Y336228D01*
Y336111D01*
Y336107D01*
Y336100D01*
Y336084D01*
X260310Y336061D01*
Y336034D01*
X260314Y336006D01*
X260322Y335937D01*
X260341Y335859D01*
X260365Y335778D01*
X260396Y335696D01*
X260442Y335622D01*
X260450Y335615D01*
X260469Y335595D01*
X260497Y335564D01*
X260539Y335533D01*
X260590Y335498D01*
X260648Y335467D01*
X260718Y335448D01*
X260753Y335444D01*
X260791Y335440D01*
X260811D01*
X260826Y335444D01*
X260865Y335448D01*
X260912Y335459D01*
X260966Y335479D01*
X261024Y335502D01*
X261075Y335541D01*
X261125Y335591D01*
X261129Y335599D01*
X261144Y335618D01*
X261164Y335653D01*
X261187Y335700D01*
X261207Y335758D01*
X261226Y335828D01*
X261242Y335910D01*
X261245Y335999D01*
Y336003D01*
Y336010D01*
Y336022D01*
Y336041D01*
X261238Y336088D01*
X261230Y336146D01*
X261214Y336208D01*
X261195Y336278D01*
X261164Y336344D01*
X261121Y336406D01*
X261117Y336414D01*
X261098Y336429D01*
X261071Y336457D01*
X261036Y336488D01*
X260989Y336515D01*
X260935Y336542D01*
X260869Y336558D01*
X260795Y336565D01*
D02*
G37*
%LPD*%
D10*
X219188Y325114D02*
G03*
X219188Y325114I-492J0D01*
G01*
X267073Y339484D02*
G03*
X267073Y339484I-492J0D01*
G01*
X215778Y377079D02*
G03*
X215778Y377079I-492J0D01*
G01*
X331963Y296598D02*
G03*
X331963Y296598I-492J0D01*
G01*
D11*
X221353Y339898D02*
G03*
X221353Y339898I-984J0D01*
G01*
D12*
X236711Y304449D02*
G03*
X236711Y304449I-500J0D01*
G01*
X244715Y285408D02*
G03*
X244715Y285408I-13780J0D01*
G01*
X311215Y283408D02*
G03*
X311215Y283408I-13780J0D01*
G01*
X226668Y317051D02*
X233754D01*
X226668Y309374D02*
Y312523D01*
Y304846D02*
X233754D01*
X262436Y277908D02*
X278436D01*
Y325408D01*
X263936D02*
X278436D01*
X249436Y277908D02*
X265436D01*
X249436D02*
Y325408D01*
X263936D01*
X336936Y281558D02*
Y283558D01*
Y281558D02*
X342936D01*
Y283558D01*
X336936D02*
X342936D01*
X318936Y281558D02*
Y283558D01*
Y281558D02*
X324936D01*
Y283558D01*
X318936D02*
X324936D01*
X346660Y295369D02*
X347142D01*
X349337Y278647D02*
Y285458D01*
X313747Y262850D02*
Y269986D01*
Y262850D02*
X349337D01*
Y269788D01*
X313747Y278450D02*
Y285655D01*
Y295763D02*
X313964D01*
X313747Y295694D02*
Y295763D01*
X315891D02*
X317132D01*
D13*
X247306Y353630D02*
Y357075D01*
X256262Y353630D02*
X259117D01*
X247306D02*
X250160D01*
X259117D02*
Y357075D01*
X217416Y336945D02*
X243006D01*
Y347952D01*
X217416D02*
X243006D01*
X217416Y336945D02*
Y347952D01*
X240589Y312786D02*
Y315148D01*
X247282Y312786D02*
Y315148D01*
X241648Y380701D02*
X250703D01*
X241648D02*
Y387197D01*
X250703D01*
X261961Y363106D02*
X282461D01*
Y342791D02*
Y363106D01*
X261961Y342791D02*
X282461D01*
X261961D02*
Y363106D01*
X238908Y361199D02*
Y381699D01*
X218593Y361199D02*
X238908D01*
X218593D02*
Y381699D01*
X238908D01*
X293447Y350678D02*
X309872Y334253D01*
X280920Y338150D02*
X293447Y350678D01*
X297345Y321725D02*
X309872Y334253D01*
X280920Y338150D02*
X297345Y321725D01*
X266215Y339854D02*
X271333D01*
X272711Y328201D02*
Y339697D01*
Y328201D02*
X273105D01*
Y339697D01*
X272711D02*
X273105D01*
X341215Y305260D02*
Y306638D01*
X334128Y309394D02*
X336294D01*
X329207Y305260D02*
Y306638D01*
D14*
X250869Y367945D02*
X254251D01*
X250869Y379145D02*
X254251D01*
X255751Y372488D02*
Y374602D01*
M02*
