M48
;Layer_Color=9474304
;FILE_FORMAT=2:5
INCH,LZ
;TYPE=PLATED
T1F00S00C0.02800
T2F00S00C0.12598
%
T01
X0842Y0512
X06925
X05425
X03935
X02435
X0234957Y0632721
X0233Y0775437
X0382606
X0384563Y0632721
X0534169
X0532213Y0775437
X0681819
X0683776Y0632721
X0833382
X0831425Y0775437
Y091726
X0681819
X0532213
X0382606
X0233
Y1048
X0382606
X0532213
X0681819
X0831425
T02
X0141118Y0724554
X0141Y08465
M30
