G04*
G04 #@! TF.GenerationSoftware,Altium Limited,Altium Designer,21.9.1 (22)*
G04*
G04 Layer_Physical_Order=2*
G04 Layer_Color=16711680*
%FSLAX25Y25*%
%MOIN*%
G70*
G04*
G04 #@! TF.SameCoordinates,A7415FA3-026C-4748-ABA7-5A76E8C983D3*
G04*
G04*
G04 #@! TF.FilePolarity,Positive*
G04*
G01*
G75*
%ADD12C,0.01000*%
%ADD14C,0.00800*%
%ADD41C,0.05984*%
%ADD42R,0.05984X0.05984*%
%ADD43R,0.05984X0.05984*%
%ADD51C,0.02000*%
%ADD52C,0.01200*%
%ADD53C,0.05000*%
%ADD55C,0.05906*%
%ADD56P,0.08352X4X360.0*%
%ADD57C,0.06000*%
%ADD58O,0.04724X0.08661*%
%ADD59O,0.04724X0.07087*%
%ADD60C,0.02756*%
%ADD61C,0.19685*%
%ADD62C,0.01968*%
G36*
X270758Y390694D02*
X272017Y385295D01*
X273627Y379990D01*
X275580Y374801D01*
X277868Y369751D01*
X280481Y364861D01*
X283409Y360153D01*
X286638Y355647D01*
X290155Y351361D01*
X293945Y347315D01*
X297991Y343525D01*
X302277Y340008D01*
X306784Y336778D01*
X311492Y333851D01*
X316381Y331237D01*
X321431Y328949D01*
X326620Y326996D01*
X327037Y326870D01*
X327574Y326511D01*
X328355Y326356D01*
X350394D01*
X350438Y326364D01*
X350957Y326261D01*
X351435Y325942D01*
X351754Y325464D01*
X351858Y324944D01*
X351849Y324901D01*
Y295157D01*
X351375Y294997D01*
X351341Y295041D01*
X350639Y295580D01*
X349943Y295868D01*
Y290674D01*
Y285481D01*
X350639Y285769D01*
X351341Y286308D01*
X351375Y286352D01*
X351849Y286192D01*
Y277913D01*
X351375Y277752D01*
X351341Y277797D01*
X350639Y278336D01*
X349943Y278624D01*
Y274218D01*
X348943D01*
Y273218D01*
X345552D01*
Y273037D01*
X345668Y272159D01*
X346006Y271341D01*
X346309Y270947D01*
X346062Y270447D01*
X317809D01*
X317562Y270947D01*
X317865Y271341D01*
X318203Y272159D01*
X318319Y273037D01*
Y273218D01*
X311537D01*
Y273037D01*
X311652Y272159D01*
X311991Y271341D01*
X312293Y270947D01*
X312047Y270447D01*
X229339D01*
X217211Y282575D01*
Y314823D01*
X217711Y314975D01*
X217822Y314808D01*
X243110Y289521D01*
X243536Y289236D01*
X244038Y289136D01*
X262251D01*
X262753Y289236D01*
X263179Y289521D01*
X269150Y295492D01*
X312377D01*
X312403Y295414D01*
X312492Y294992D01*
X311991Y294338D01*
X311652Y293521D01*
X311537Y292643D01*
Y291674D01*
X314928D01*
Y290674D01*
X315928D01*
Y285481D01*
X316623Y285769D01*
X317326Y286308D01*
X317865Y287010D01*
X318120Y287626D01*
X318661Y287626D01*
X318722Y287479D01*
X319331Y286870D01*
X320127Y286540D01*
X320988D01*
X321784Y286870D01*
X322393Y287479D01*
X322723Y288275D01*
Y289137D01*
X322393Y289932D01*
X321784Y290542D01*
X320988Y290871D01*
X320127D01*
X319331Y290542D01*
X318819Y290030D01*
X318365Y290154D01*
X318319Y290183D01*
Y292643D01*
X318203Y293521D01*
X317865Y294338D01*
X317363Y294992D01*
X317452Y295414D01*
X317479Y295492D01*
X333106D01*
X333608Y295592D01*
X334034Y295876D01*
X338294Y300136D01*
X339251D01*
X339753Y300236D01*
X340179Y300521D01*
X343335Y303677D01*
X343603D01*
X344254Y303947D01*
X344753Y304445D01*
X345022Y305096D01*
Y305801D01*
X344753Y306452D01*
X344254Y306951D01*
X343603Y307221D01*
X342898D01*
X342247Y306951D01*
X341749Y306452D01*
X341479Y305801D01*
Y305534D01*
X338707Y302761D01*
X337751D01*
X337248Y302661D01*
X336822Y302377D01*
X332562Y298117D01*
X268606D01*
X268104Y298017D01*
X267678Y297732D01*
X261707Y291761D01*
X244582D01*
X230567Y305776D01*
X230565Y305785D01*
X230696Y306309D01*
X230719Y306331D01*
X230914Y306461D01*
X231004Y306498D01*
X231072Y306567D01*
X231289Y306711D01*
X231433Y306928D01*
X231502Y306996D01*
X231539Y307086D01*
X231684Y307303D01*
X231734Y307558D01*
X231772Y307648D01*
Y307745D01*
X231822Y308000D01*
Y317699D01*
X231822Y317699D01*
X231684Y318397D01*
X231289Y318988D01*
X231289Y318988D01*
X226665Y323611D01*
Y325987D01*
X226800Y326082D01*
X227165Y326178D01*
X247322Y306021D01*
X247748Y305736D01*
X248251Y305636D01*
X281558D01*
X281747Y305447D01*
X282398Y305177D01*
X283103D01*
X283754Y305447D01*
X284253Y305945D01*
X284522Y306596D01*
Y307301D01*
X284253Y307952D01*
X284027Y308178D01*
X284234Y308678D01*
X316444D01*
X320428Y304694D01*
Y303449D01*
X320479Y303194D01*
Y303096D01*
X320516Y303007D01*
X320567Y302751D01*
X320711Y302535D01*
X320749Y302445D01*
X320817Y302377D01*
X320962Y302160D01*
X321178Y302016D01*
X321247Y301947D01*
X321337Y301910D01*
X321553Y301765D01*
X321808Y301714D01*
X321898Y301677D01*
X321995D01*
X322251Y301626D01*
X322506Y301677D01*
X322603D01*
X322693Y301714D01*
X322948Y301765D01*
X323164Y301910D01*
X323254Y301947D01*
X323323Y302016D01*
X323539Y302160D01*
X323684Y302377D01*
X323752Y302445D01*
X323790Y302535D01*
X323934Y302751D01*
X323985Y303007D01*
X324022Y303096D01*
Y303194D01*
X324073Y303449D01*
Y304694D01*
X333039Y313660D01*
X333184Y313877D01*
X333253Y313945D01*
X333290Y314035D01*
X333434Y314251D01*
X333485Y314507D01*
X333522Y314596D01*
Y314693D01*
X333573Y314949D01*
X333522Y315204D01*
Y315301D01*
X333485Y315391D01*
X333434Y315646D01*
X333290Y315863D01*
X333253Y315952D01*
X333184Y316021D01*
X333039Y316237D01*
X332823Y316382D01*
X332754Y316451D01*
X332664Y316488D01*
X332448Y316633D01*
X332193Y316683D01*
X332103Y316721D01*
X332006D01*
X331751Y316771D01*
X331495Y316721D01*
X331398D01*
X331308Y316683D01*
X331053Y316633D01*
X330837Y316488D01*
X330747Y316451D01*
X330678Y316382D01*
X330462Y316237D01*
X322251Y308026D01*
X318488Y311789D01*
X317897Y312184D01*
X317199Y312322D01*
X317199Y312322D01*
X252415D01*
X250500Y314237D01*
X250422Y314290D01*
Y329186D01*
X250922Y329441D01*
X251398Y329244D01*
X252103D01*
X252125Y329253D01*
X252508Y328871D01*
X252479Y328801D01*
Y328096D01*
X252749Y327445D01*
X253247Y326947D01*
X253898Y326677D01*
X254603D01*
X255254Y326947D01*
X255501Y327193D01*
X256001Y326986D01*
Y323632D01*
X256000Y323632D01*
X256093Y323169D01*
X256355Y322776D01*
X260536Y318595D01*
X260406Y318370D01*
X260194Y317579D01*
X259677D01*
X259465Y318370D01*
X258966Y319233D01*
X258261Y319938D01*
X257398Y320437D01*
X256434Y320695D01*
X255437D01*
X254474Y320437D01*
X253610Y319938D01*
X252905Y319233D01*
X252406Y318370D01*
X252148Y317406D01*
Y316409D01*
X252406Y315446D01*
X252905Y314582D01*
X253610Y313877D01*
X254474Y313378D01*
X255437Y313120D01*
X256434D01*
X257398Y313378D01*
X258261Y313877D01*
X258966Y314582D01*
X259465Y315446D01*
X259677Y316237D01*
X260194D01*
X260406Y315446D01*
X260905Y314582D01*
X261610Y313877D01*
X262474Y313378D01*
X263437Y313120D01*
X264434D01*
X265398Y313378D01*
X266261Y313877D01*
X266966Y314582D01*
X267465Y315446D01*
X267677Y316237D01*
X268195D01*
X268406Y315446D01*
X268905Y314582D01*
X269610Y313877D01*
X270474Y313378D01*
X271437Y313120D01*
X272434D01*
X273397Y313378D01*
X274261Y313877D01*
X274966Y314582D01*
X275465Y315446D01*
X275575Y315858D01*
X282339Y322621D01*
X290700D01*
X291558Y322734D01*
X292358Y323066D01*
X293044Y323593D01*
X300827Y331376D01*
X301155Y331464D01*
X302008Y331956D01*
X302704Y332652D01*
X303197Y333505D01*
X303451Y334456D01*
Y335441D01*
X303197Y336392D01*
X302704Y337245D01*
X302008Y337942D01*
X301155Y338434D01*
X300204Y338689D01*
X299219D01*
X298268Y338434D01*
X297770Y338147D01*
X297463Y338547D01*
X299433Y340517D01*
X294143Y345806D01*
X288854Y340517D01*
X294143Y335227D01*
X296113Y337197D01*
X296513Y336890D01*
X296226Y336392D01*
X296138Y336065D01*
X289326Y329253D01*
X280965D01*
X280107Y329140D01*
X279307Y328809D01*
X278621Y328282D01*
X270886Y320548D01*
X270474Y320437D01*
X269610Y319938D01*
X268905Y319233D01*
X268406Y318370D01*
X268195Y317579D01*
X267677D01*
X267465Y318370D01*
X266966Y319233D01*
X266261Y319938D01*
X265398Y320437D01*
X264434Y320695D01*
X263437D01*
X262474Y320437D01*
X262248Y320307D01*
X258422Y324134D01*
Y334708D01*
X258330Y335171D01*
X258067Y335564D01*
X258067Y335564D01*
X257802Y335829D01*
Y336221D01*
X257870Y336289D01*
X258139Y336940D01*
Y337645D01*
X257870Y338296D01*
X257427Y338738D01*
X257469Y339001D01*
X257581Y339238D01*
X269711D01*
X269711Y339238D01*
X270175Y339330D01*
X270567Y339593D01*
X275530Y344555D01*
X275752Y344427D01*
X276714Y344169D01*
X277709D01*
X278670Y344427D01*
X279532Y344924D01*
X280236Y345628D01*
X280733Y346490D01*
X280991Y347451D01*
Y348446D01*
X280733Y349408D01*
X280236Y350270D01*
X279532Y350973D01*
X278670Y351471D01*
X277709Y351728D01*
X276714D01*
X275752Y351471D01*
X274890Y350973D01*
X274187Y350270D01*
X273689Y349408D01*
X273432Y348446D01*
Y347451D01*
X273689Y346490D01*
X273818Y346268D01*
X269210Y341659D01*
X254751D01*
X254751Y341659D01*
X254287Y341567D01*
X253894Y341305D01*
X250922Y338332D01*
X250805Y338341D01*
X250422Y338497D01*
Y363577D01*
X250868Y364022D01*
X251137Y364673D01*
Y365378D01*
X250868Y366029D01*
X250369Y366528D01*
X249861Y366738D01*
X249961Y367238D01*
X253289D01*
X254979Y365548D01*
Y365136D01*
X255249Y364485D01*
X255747Y363986D01*
X256398Y363717D01*
X257103D01*
X257754Y363986D01*
X258253Y364485D01*
X258522Y365136D01*
Y365841D01*
X258253Y366492D01*
X257754Y366990D01*
X257103Y367260D01*
X256691D01*
X254646Y369305D01*
X254253Y369567D01*
X253790Y369659D01*
X253790Y369659D01*
X247251D01*
X247036Y369617D01*
X246790Y370078D01*
X247501Y370789D01*
X256998D01*
X259789Y367999D01*
Y354160D01*
X259789Y354160D01*
X259881Y353697D01*
X260144Y353304D01*
X263432Y350016D01*
Y344169D01*
X270991D01*
Y351728D01*
X265144D01*
X262211Y354661D01*
Y368500D01*
X262211Y368500D01*
X262119Y368963D01*
X261856Y369356D01*
X261856Y369356D01*
X258356Y372856D01*
X257963Y373118D01*
X257500Y373211D01*
X257500Y373211D01*
X247000D01*
X247000Y373211D01*
X246537Y373118D01*
X246144Y372856D01*
X243584Y370296D01*
X243077Y370427D01*
X242936Y370820D01*
X254650Y382534D01*
X263160D01*
X263247Y382447D01*
X263898Y382177D01*
X264603D01*
X265254Y382447D01*
X265753Y382945D01*
X266022Y383596D01*
Y384301D01*
X265753Y384952D01*
X265254Y385451D01*
X264603Y385720D01*
X263898D01*
X263247Y385451D01*
X263160Y385363D01*
X254065D01*
X253523Y385256D01*
X253064Y384949D01*
X240770Y372654D01*
X240541Y372807D01*
X240000Y372915D01*
X236188D01*
X236054Y373415D01*
X236071Y373424D01*
X236775Y374128D01*
X237273Y374990D01*
X237530Y375951D01*
Y376946D01*
X237273Y377908D01*
X236775Y378769D01*
X236071Y379473D01*
X235209Y379971D01*
X234248Y380228D01*
X233253D01*
X232292Y379971D01*
X231430Y379473D01*
X230726Y378769D01*
X230229Y377908D01*
X229971Y376946D01*
Y375951D01*
X230229Y374990D01*
X230726Y374128D01*
X231430Y373424D01*
X231447Y373415D01*
X231313Y372915D01*
X228874D01*
X228809Y373238D01*
X228503Y373697D01*
X227530Y374670D01*
Y380228D01*
X219971D01*
Y372669D01*
X225530D01*
X226088Y372111D01*
Y371998D01*
X226195Y371456D01*
X226502Y370997D01*
X227000Y370500D01*
X227459Y370193D01*
X228000Y370085D01*
X231160D01*
X231241Y369585D01*
X230556Y368900D01*
X230030Y367990D01*
X229886Y367449D01*
X233751D01*
X237616D01*
X237471Y367990D01*
X236945Y368900D01*
X236260Y369585D01*
X236342Y370085D01*
X239414D01*
X240201Y369298D01*
Y363915D01*
X238500D01*
X237959Y363807D01*
X237500Y363500D01*
X224250Y350251D01*
X223944Y349792D01*
X223836Y349251D01*
Y323549D01*
X223817Y323521D01*
X223749Y323452D01*
X223711Y323363D01*
X223567Y323146D01*
X223516Y322891D01*
X223479Y322801D01*
Y322704D01*
X223428Y322449D01*
X223479Y322194D01*
Y322096D01*
X223516Y322007D01*
X223567Y321751D01*
X223711Y321535D01*
X223749Y321445D01*
X223817Y321377D01*
X223962Y321160D01*
X228178Y316945D01*
Y308819D01*
X227716Y308627D01*
X220063Y316280D01*
Y341707D01*
X221585Y343228D01*
X221852D01*
X222504Y343498D01*
X223002Y343996D01*
X223272Y344648D01*
Y345352D01*
X223002Y346004D01*
X222504Y346502D01*
X221852Y346772D01*
X221148D01*
X220496Y346502D01*
X219998Y346004D01*
X219728Y345352D01*
Y345085D01*
X217822Y343179D01*
X217711Y343012D01*
X217211Y343164D01*
Y384327D01*
X225305Y392422D01*
X270473D01*
X270758Y390694D01*
D02*
G37*
%LPC*%
G36*
X267739Y376784D02*
X267034D01*
X266383Y376515D01*
X265884Y376016D01*
X265615Y375365D01*
Y374660D01*
X265884Y374009D01*
X266383Y373511D01*
X267034Y373241D01*
X267739D01*
X268390Y373511D01*
X268888Y374009D01*
X269158Y374660D01*
Y375365D01*
X268888Y376016D01*
X268390Y376515D01*
X267739Y376784D01*
D02*
G37*
G36*
X224248Y370228D02*
X223253D01*
X222292Y369971D01*
X221430Y369473D01*
X220726Y368770D01*
X220229Y367908D01*
X219971Y366946D01*
Y365951D01*
X220229Y364990D01*
X220726Y364128D01*
X221430Y363424D01*
X222292Y362927D01*
X223253Y362669D01*
X224248D01*
X225209Y362927D01*
X226071Y363424D01*
X226775Y364128D01*
X227273Y364990D01*
X227530Y365951D01*
Y366946D01*
X227273Y367908D01*
X226775Y368770D01*
X226071Y369473D01*
X225209Y369971D01*
X224248Y370228D01*
D02*
G37*
G36*
X237616Y365449D02*
X234751D01*
Y362584D01*
X235292Y362729D01*
X236202Y363254D01*
X236945Y363998D01*
X237471Y364908D01*
X237616Y365449D01*
D02*
G37*
G36*
X232751D02*
X229886D01*
X230030Y364908D01*
X230556Y363998D01*
X231299Y363254D01*
X232210Y362729D01*
X232751Y362584D01*
Y365449D01*
D02*
G37*
G36*
X278211Y361814D02*
Y358949D01*
X281076D01*
X280931Y359490D01*
X280406Y360400D01*
X279662Y361143D01*
X278752Y361669D01*
X278211Y361814D01*
D02*
G37*
G36*
X276211D02*
X275670Y361669D01*
X274760Y361143D01*
X274017Y360400D01*
X273491Y359490D01*
X273346Y358949D01*
X276211D01*
Y361814D01*
D02*
G37*
G36*
X267709Y361728D02*
X266714D01*
X265752Y361471D01*
X264891Y360973D01*
X264187Y360269D01*
X263689Y359408D01*
X263432Y358446D01*
Y357451D01*
X263689Y356490D01*
X264187Y355628D01*
X264891Y354924D01*
X265752Y354427D01*
X266714Y354169D01*
X267709D01*
X268670Y354427D01*
X269532Y354924D01*
X270236Y355628D01*
X270733Y356490D01*
X270991Y357451D01*
Y358446D01*
X270733Y359408D01*
X270236Y360269D01*
X269532Y360973D01*
X268670Y361471D01*
X267709Y361728D01*
D02*
G37*
G36*
X281076Y356949D02*
X278211D01*
Y354084D01*
X278752Y354229D01*
X279662Y354754D01*
X280406Y355498D01*
X280931Y356408D01*
X281076Y356949D01*
D02*
G37*
G36*
X276211D02*
X273346D01*
X273491Y356408D01*
X274017Y355498D01*
X274760Y354754D01*
X275670Y354229D01*
X276211Y354084D01*
Y356949D01*
D02*
G37*
G36*
X343103Y301220D02*
X342398D01*
X341747Y300951D01*
X341249Y300452D01*
X340979Y299801D01*
Y299096D01*
X341249Y298445D01*
X341747Y297947D01*
X342398Y297677D01*
X343103D01*
X343754Y297947D01*
X344252Y298445D01*
X344522Y299096D01*
Y299801D01*
X344252Y300452D01*
X343754Y300951D01*
X343103Y301220D01*
D02*
G37*
G36*
X347943Y295868D02*
X347248Y295580D01*
X346545Y295041D01*
X346006Y294338D01*
X345668Y293521D01*
X345552Y292643D01*
Y290183D01*
X345507Y290155D01*
X345052Y290030D01*
X344540Y290542D01*
X343744Y290871D01*
X342883D01*
X342087Y290542D01*
X341478Y289932D01*
X341148Y289137D01*
Y288275D01*
X341478Y287479D01*
X342087Y286870D01*
X342883Y286540D01*
X343744D01*
X344540Y286870D01*
X345149Y287479D01*
X345210Y287626D01*
X345751Y287626D01*
X346006Y287010D01*
X346545Y286308D01*
X347248Y285769D01*
X347943Y285481D01*
Y290674D01*
Y295868D01*
D02*
G37*
G36*
X313928Y289674D02*
X311537D01*
Y288706D01*
X311652Y287828D01*
X311991Y287010D01*
X312530Y286308D01*
X313232Y285769D01*
X313928Y285481D01*
Y289674D01*
D02*
G37*
G36*
X347943Y278624D02*
X347248Y278336D01*
X346545Y277797D01*
X346006Y277095D01*
X345668Y276277D01*
X345552Y275399D01*
Y275218D01*
X347943D01*
Y278624D01*
D02*
G37*
G36*
X315928D02*
Y275218D01*
X318319D01*
Y275399D01*
X318203Y276277D01*
X317865Y277095D01*
X317326Y277797D01*
X316623Y278336D01*
X315928Y278624D01*
D02*
G37*
G36*
X313928D02*
X313232Y278336D01*
X312530Y277797D01*
X311991Y277095D01*
X311652Y276277D01*
X311537Y275399D01*
Y275218D01*
X313928D01*
Y278624D01*
D02*
G37*
G36*
X231772Y296038D02*
X230099D01*
X228447Y295776D01*
X226855Y295259D01*
X225364Y294499D01*
X224011Y293516D01*
X222828Y292333D01*
X221844Y290979D01*
X221084Y289488D01*
X220567Y287897D01*
X220306Y286244D01*
Y284571D01*
X220567Y282919D01*
X221084Y281327D01*
X221844Y279836D01*
X222828Y278483D01*
X224011Y277300D01*
X225364Y276316D01*
X226855Y275556D01*
X228447Y275040D01*
X230099Y274778D01*
X231772D01*
X233425Y275040D01*
X235016Y275556D01*
X236507Y276316D01*
X237861Y277300D01*
X239044Y278483D01*
X240027Y279836D01*
X240787Y281327D01*
X241304Y282919D01*
X241566Y284571D01*
Y286244D01*
X241304Y287897D01*
X240787Y289488D01*
X240027Y290979D01*
X239044Y292333D01*
X237861Y293516D01*
X236507Y294499D01*
X235016Y295259D01*
X233425Y295776D01*
X231772Y296038D01*
D02*
G37*
G36*
X298272Y294038D02*
X296599D01*
X294947Y293776D01*
X293355Y293259D01*
X291864Y292499D01*
X290511Y291516D01*
X289328Y290333D01*
X288344Y288979D01*
X287584Y287488D01*
X287068Y285897D01*
X286806Y284244D01*
Y282571D01*
X287068Y280919D01*
X287584Y279327D01*
X288344Y277836D01*
X289328Y276483D01*
X290511Y275300D01*
X291864Y274316D01*
X293355Y273556D01*
X294947Y273040D01*
X296599Y272778D01*
X298272D01*
X299925Y273040D01*
X301516Y273556D01*
X303007Y274316D01*
X304361Y275300D01*
X305544Y276483D01*
X306527Y277836D01*
X307287Y279327D01*
X307804Y280919D01*
X308066Y282571D01*
Y284244D01*
X307804Y285897D01*
X307287Y287488D01*
X306527Y288979D01*
X305544Y290333D01*
X304361Y291516D01*
X303007Y292499D01*
X301516Y293259D01*
X299925Y293776D01*
X298272Y294038D01*
D02*
G37*
%LPD*%
D12*
X244038Y290449D02*
X262251D01*
X218751Y315736D02*
X244038Y290449D01*
X218751Y315736D02*
Y342251D01*
X221500Y345000D01*
X228751Y345687D02*
Y345949D01*
X228000Y327199D02*
Y344936D01*
Y327199D02*
X248251Y306949D01*
X228000Y344936D02*
X228751Y345687D01*
X240609Y327609D02*
Y341391D01*
X236500Y323500D02*
X240609Y327609D01*
X240500Y341500D02*
X240609Y341391D01*
X339251Y301449D02*
X343251Y305449D01*
X337751Y301449D02*
X339251D01*
X333106Y296804D02*
X337751Y301449D01*
X268606Y296804D02*
X333106D01*
X262251Y290449D02*
X268606Y296804D01*
X248251Y306949D02*
X282751D01*
D14*
X231751Y339449D02*
X244000Y351698D01*
Y369000D01*
X247000Y372000D01*
X245711Y325449D02*
Y366910D01*
X247251Y368449D01*
X249211Y312949D02*
Y364988D01*
X249174Y365026D02*
X249211Y364988D01*
X254751Y340449D02*
X269711D01*
X277211Y347949D01*
X251751Y337449D02*
X254751Y340449D01*
X253790Y368449D02*
X256751Y365488D01*
X247251Y368449D02*
X253790D01*
X257211Y323632D02*
X263936Y316908D01*
X261000Y354160D02*
X267211Y347949D01*
X261000Y354160D02*
Y368500D01*
X257500Y372000D02*
X261000Y368500D01*
X247000Y372000D02*
X257500D01*
X257211Y323632D02*
Y334708D01*
X256591Y335328D02*
X257211Y334708D01*
X256368Y337292D02*
X256591Y337069D01*
X251751Y331016D02*
Y337449D01*
X256591Y335328D02*
Y337069D01*
D41*
X267211Y357949D02*
D03*
X277211D02*
D03*
Y347949D02*
D03*
X233751Y376449D02*
D03*
Y366449D02*
D03*
X223751D02*
D03*
D42*
X267211Y347949D02*
D03*
D43*
X223751Y376449D02*
D03*
D51*
X230000Y308000D02*
Y317699D01*
X225251Y322449D02*
X230000Y317699D01*
X249211Y312949D02*
X251660Y310500D01*
X317199D02*
X322251Y305449D01*
X251660Y310500D02*
X317199D01*
X322251Y305449D02*
X331751Y314949D01*
X322251Y303449D02*
Y305449D01*
D52*
X238500Y362500D02*
X241616D01*
X225251Y349251D02*
X238500Y362500D01*
X225251Y322449D02*
Y349251D01*
X240808Y370692D02*
X241616Y369884D01*
X240000Y371500D02*
X240808Y370692D01*
X254065Y383949D01*
X264251D01*
X227502Y371998D02*
X228000Y371500D01*
X223751Y376449D02*
X227502Y372697D01*
Y371998D02*
Y372697D01*
X228000Y371500D02*
X240000D01*
X241616Y362500D02*
Y369884D01*
D53*
X280965Y325937D02*
X290700D01*
X271936Y316908D02*
X280965Y325937D01*
X290700D02*
X299711Y334949D01*
D55*
D03*
D56*
X294143Y340517D02*
D03*
D57*
X255936Y316908D02*
D03*
X263936D02*
D03*
X271936D02*
D03*
D58*
X348943Y290674D02*
D03*
X314928D02*
D03*
D59*
Y274218D02*
D03*
X348943D02*
D03*
D60*
X320558Y288706D02*
D03*
X343314D02*
D03*
D61*
X230936Y285408D02*
D03*
X297436Y283408D02*
D03*
D62*
X342520Y318898D02*
D03*
X348425Y283465D02*
D03*
X342520Y271654D02*
D03*
X330709Y318898D02*
D03*
X336614Y283465D02*
D03*
X330709Y271654D02*
D03*
X318898Y318898D02*
D03*
X324803Y283465D02*
D03*
X312992Y330709D02*
D03*
X307086Y318898D02*
D03*
X312992Y283465D02*
D03*
X307086Y271654D02*
D03*
X295275Y318898D02*
D03*
Y271654D02*
D03*
X283465Y342520D02*
D03*
Y318898D02*
D03*
Y271654D02*
D03*
X271654Y366142D02*
D03*
X277559Y283465D02*
D03*
X271654Y271654D02*
D03*
X259842Y295275D02*
D03*
X265748Y283465D02*
D03*
X259842Y271654D02*
D03*
X248031Y295275D02*
D03*
X253937Y283465D02*
D03*
X248031Y271654D02*
D03*
X242126Y377953D02*
D03*
X236220Y271654D02*
D03*
X224409Y318898D02*
D03*
Y295275D02*
D03*
X230000Y308000D02*
D03*
X221500Y345000D02*
D03*
X241616Y362500D02*
D03*
X236500Y323500D02*
D03*
X240500Y341500D02*
D03*
X343251Y305449D02*
D03*
X225251Y322449D02*
D03*
X267386Y375013D02*
D03*
X264251Y383949D02*
D03*
X228751Y345949D02*
D03*
X254251Y328449D02*
D03*
X282751Y306949D02*
D03*
X331751Y314949D02*
D03*
X322251Y303449D02*
D03*
X231751Y339449D02*
D03*
X342751Y299449D02*
D03*
X256751Y365488D02*
D03*
X245711Y325449D02*
D03*
X249366Y365026D02*
D03*
X249211Y312949D02*
D03*
X251751Y331016D02*
D03*
X256368Y337292D02*
D03*
M02*
