G04*
G04 #@! TF.GenerationSoftware,Altium Limited,Altium Designer,21.9.1 (22)*
G04*
G04 Layer_Color=8421504*
%FSLAX25Y25*%
%MOIN*%
G70*
G04*
G04 #@! TF.SameCoordinates,A7415FA3-026C-4748-ABA7-5A76E8C983D3*
G04*
G04*
G04 #@! TF.FilePolarity,Positive*
G04*
G01*
G75*
%ADD15R,0.02441X0.02598*%
%ADD16R,0.03150X0.03543*%
%ADD17R,0.02598X0.02441*%
%ADD18R,0.04724X0.02165*%
G04:AMPARAMS|DCode=19|XSize=76.98mil|YSize=16.57mil|CornerRadius=8.28mil|HoleSize=0mil|Usage=FLASHONLY|Rotation=90.000|XOffset=0mil|YOffset=0mil|HoleType=Round|Shape=RoundedRectangle|*
%AMROUNDEDRECTD19*
21,1,0.07698,0.00000,0,0,90.0*
21,1,0.06041,0.01657,0,0,90.0*
1,1,0.01657,0.00000,0.03021*
1,1,0.01657,0.00000,-0.03021*
1,1,0.01657,0.00000,-0.03021*
1,1,0.01657,0.00000,0.03021*
%
%ADD19ROUNDEDRECTD19*%
%ADD20R,0.01657X0.07698*%
%ADD21R,0.03937X0.02362*%
%ADD22R,0.02756X0.02559*%
%ADD23R,0.07480X0.06102*%
%ADD24R,0.03543X0.03740*%
%ADD25R,0.02559X0.02756*%
%ADD26R,0.05118X0.02362*%
%ADD27R,0.02362X0.04724*%
%ADD28R,0.02362X0.05118*%
%ADD29R,0.01181X0.05118*%
G36*
X331542Y291038D02*
X330361D01*
Y296157D01*
X331542D01*
Y291038D01*
D02*
G37*
G36*
X329573D02*
X328392D01*
Y296157D01*
X329573D01*
Y291038D01*
D02*
G37*
G36*
X327605D02*
X326424D01*
Y296157D01*
X327605D01*
Y291038D01*
D02*
G37*
G36*
X325636D02*
X324455D01*
Y296157D01*
X325636D01*
Y291038D01*
D02*
G37*
G36*
X323668D02*
X321305D01*
Y296157D01*
X323668D01*
Y291038D01*
D02*
G37*
G36*
X320519D02*
X318157D01*
Y296157D01*
X320519D01*
Y291038D01*
D02*
G37*
G36*
X316261Y294633D02*
X316925Y293973D01*
X317287Y293111D01*
X317290Y292643D01*
X317290Y292643D01*
X317290Y288706D01*
X317287Y288238D01*
X316925Y287375D01*
X316261Y286716D01*
X315396Y286359D01*
X314460D01*
X313595Y286716D01*
X312931Y287375D01*
X312569Y288238D01*
X312566Y288706D01*
Y292643D01*
X312569Y293111D01*
X312931Y293973D01*
X313595Y294633D01*
X314460Y294990D01*
X315396D01*
X316261Y294633D01*
D02*
G37*
G36*
Y277388D02*
X316925Y276729D01*
X317287Y275866D01*
X317290Y275398D01*
X317290Y275398D01*
X317290Y273036D01*
X317287Y272568D01*
X316925Y271706D01*
X316261Y271046D01*
X315396Y270690D01*
X314460D01*
X313595Y271046D01*
X312931Y271706D01*
X312569Y272568D01*
X312566Y273036D01*
Y275398D01*
X312569Y275866D01*
X312931Y276729D01*
X313595Y277388D01*
X314460Y277745D01*
X315396D01*
X316261Y277388D01*
D02*
G37*
G36*
X346582Y275398D02*
Y275868D01*
X346942Y276736D01*
X347606Y277401D01*
X348474Y277761D01*
X349414D01*
X350283Y277401D01*
X350947Y276736D01*
X351307Y275868D01*
Y275398D01*
D01*
D01*
Y273036D01*
Y272566D01*
X350947Y271698D01*
X350283Y271034D01*
X349414Y270674D01*
X348474D01*
X347606Y271034D01*
X346942Y271698D01*
X346582Y272566D01*
Y273036D01*
D01*
Y275398D01*
D01*
D02*
G37*
G36*
Y292643D02*
Y293113D01*
X346942Y293981D01*
X347606Y294646D01*
X348474Y295005D01*
X349414D01*
X350283Y294646D01*
X350947Y293981D01*
X351307Y293113D01*
Y292643D01*
D01*
D01*
Y288706D01*
Y288236D01*
X350947Y287368D01*
X350283Y286703D01*
X349414Y286344D01*
X348474D01*
X347606Y286703D01*
X346942Y287368D01*
X346582Y288236D01*
Y288706D01*
D01*
Y292643D01*
D01*
D02*
G37*
G36*
X340204Y296157D02*
X342566D01*
Y291038D01*
X340204D01*
Y296157D01*
D02*
G37*
G36*
X343353D02*
X345715D01*
Y291038D01*
X343353D01*
Y296157D01*
D02*
G37*
G36*
X332329D02*
X333510D01*
Y291038D01*
X332329D01*
Y296157D01*
D02*
G37*
G36*
X334298D02*
X335479D01*
Y291038D01*
X334298D01*
Y296157D01*
D02*
G37*
G36*
X336266D02*
X337448D01*
Y291038D01*
X336266D01*
Y296157D01*
D02*
G37*
G36*
X338235D02*
X339416D01*
Y291038D01*
X338235D01*
Y296157D01*
D02*
G37*
D15*
X219211Y318181D02*
D03*
Y314717D02*
D03*
X262860Y374894D02*
D03*
Y371429D02*
D03*
X219211Y303449D02*
D03*
Y306913D02*
D03*
D16*
X253211Y352449D02*
D03*
X249471Y360323D02*
D03*
X256951D02*
D03*
D17*
X232443Y322949D02*
D03*
X228979D02*
D03*
X318786Y299949D02*
D03*
X322251D02*
D03*
D18*
X247441Y377285D02*
D03*
Y373545D02*
D03*
Y369805D02*
D03*
X257679D02*
D03*
Y377285D02*
D03*
D19*
X218695Y353770D02*
D03*
X221254D02*
D03*
X223814D02*
D03*
X226373D02*
D03*
X228932D02*
D03*
X231491D02*
D03*
X234050D02*
D03*
X236609D02*
D03*
X239168D02*
D03*
X241727D02*
D03*
Y331128D02*
D03*
X239168D02*
D03*
X236609D02*
D03*
X234050D02*
D03*
X231491D02*
D03*
X228932D02*
D03*
X226373D02*
D03*
X223814D02*
D03*
X221254D02*
D03*
D20*
X218695D02*
D03*
D21*
X235329Y307209D02*
D03*
X235329Y310949D02*
D03*
X235329Y314689D02*
D03*
X225093Y314689D02*
D03*
X225093Y307209D02*
D03*
D22*
X249560Y346724D02*
D03*
X253300D02*
D03*
X249471Y341449D02*
D03*
X253211D02*
D03*
X260121Y383949D02*
D03*
X256381D02*
D03*
X249560Y336224D02*
D03*
X253300D02*
D03*
D23*
X243936Y308160D02*
D03*
Y319774D02*
D03*
D24*
X250703Y383949D02*
D03*
X244798D02*
D03*
D25*
X262133Y336278D02*
D03*
Y332538D02*
D03*
D26*
X277042Y333949D02*
D03*
X268774Y330209D02*
D03*
Y337689D02*
D03*
D27*
X331471Y310476D02*
D03*
X338951D02*
D03*
Y301421D02*
D03*
X335211D02*
D03*
X331471D02*
D03*
D28*
X319337Y293598D02*
D03*
X322487D02*
D03*
X344534D02*
D03*
X341385D02*
D03*
D29*
X325046D02*
D03*
X327015D02*
D03*
X328983D02*
D03*
X330952D02*
D03*
X332920D02*
D03*
X334889D02*
D03*
X336857D02*
D03*
X338826D02*
D03*
M02*
