M48
;Layer_Color=9474304
;FILE_FORMAT=2:5
INCH,LZ
;TYPE=PLATED
T1F00S00C0.01181
T3F00S00C0.12598
;TYPE=NON_PLATED
T4F00S00C0.02756
%
T01
X0354331Y0283465
X0366142
X0372047Y0295275
X0360236
X0359233Y0300006
X0348425Y0295275
X0349211Y0309449
X0368211
X0374638Y0312006
X0371122Y0312522
X0368211Y0328449
X036642Y0341148
X0366823Y0350631
X0348653Y0350852
X0348425Y034252
X0338751Y0346045
X0343548Y0334006
X034252Y0330709
X0377711Y0337949
T03
X0353638Y0322506
T04
X0347863Y0299994
X0370619
M30
