G04*
G04 #@! TF.GenerationSoftware,Altium Limited,Altium Designer,21.9.1 (22)*
G04*
G04 Layer_Physical_Order=2*
G04 Layer_Color=16711680*
%FSLAX25Y25*%
%MOIN*%
G70*
G04*
G04 #@! TF.SameCoordinates,9576BD0E-73BF-4861-8540-BB655C5FDD5B*
G04*
G04*
G04 #@! TF.FilePolarity,Positive*
G04*
G01*
G75*
%ADD13C,0.00787*%
%ADD39C,0.02000*%
%ADD40O,0.04724X0.08661*%
%ADD41O,0.04724X0.07087*%
%ADD42C,0.02756*%
%ADD43C,0.19685*%
%ADD44C,0.01968*%
G36*
X378747Y351866D02*
X379225Y351547D01*
X379544Y351069D01*
X379647Y350551D01*
X379639Y350508D01*
X379625Y339194D01*
X379540Y339144D01*
X379125Y339040D01*
X378715Y339451D01*
X378064Y339721D01*
X377359D01*
X376708Y339451D01*
X376209Y338952D01*
X376140Y338785D01*
X375576Y338729D01*
X375490Y338857D01*
X366357Y347991D01*
X365966Y348252D01*
X365505Y348343D01*
X365505Y348343D01*
X342747D01*
X342747Y348343D01*
X342286Y348252D01*
X341895Y347991D01*
X341153Y347249D01*
X340052D01*
X339754Y347547D01*
X339103Y347816D01*
X338398D01*
X337747Y347547D01*
X337678Y347477D01*
X337178Y347684D01*
Y350506D01*
X337169Y350550D01*
X337272Y351069D01*
X337591Y351547D01*
X338069Y351866D01*
X338589Y351970D01*
X338632Y351961D01*
X346653D01*
X346987Y351461D01*
X346881Y351204D01*
Y350500D01*
X347151Y349848D01*
X347649Y349350D01*
X348300Y349080D01*
X349005D01*
X349656Y349350D01*
X350154Y349848D01*
X350424Y350500D01*
Y351204D01*
X350318Y351461D01*
X350652Y351961D01*
X378184D01*
X378228Y351970D01*
X378747Y351866D01*
D02*
G37*
G36*
X373434Y337507D02*
Y313641D01*
X373196Y313427D01*
X372624Y313526D01*
X372326Y313824D01*
Y332022D01*
X372326Y332022D01*
X372235Y332483D01*
X371973Y332874D01*
X371973Y332874D01*
X365671Y339176D01*
X365280Y339437D01*
X364820Y339529D01*
X364820Y339529D01*
X347867D01*
X347406Y339437D01*
X347015Y339176D01*
X347015Y339176D01*
X343616Y335778D01*
X343195D01*
X342544Y335508D01*
X342046Y335010D01*
X341776Y334358D01*
Y333653D01*
X342046Y333002D01*
X342544Y332504D01*
X343195Y332234D01*
X343900D01*
X344551Y332504D01*
X345050Y333002D01*
X345320Y333653D01*
Y334074D01*
X348365Y337121D01*
X364321D01*
X369918Y331524D01*
Y330012D01*
X369725Y329885D01*
X369418Y329792D01*
X369283Y329882D01*
X369215Y329951D01*
X369125Y329988D01*
X368909Y330133D01*
X368653Y330183D01*
X368564Y330221D01*
X368466D01*
X368211Y330271D01*
X367956Y330221D01*
X367859D01*
X367769Y330183D01*
X367514Y330133D01*
X367297Y329988D01*
X367208Y329951D01*
X367139Y329882D01*
X366923Y329737D01*
X366849Y329664D01*
X366454Y329073D01*
X366315Y328375D01*
X366315Y328375D01*
Y311286D01*
X366315Y311286D01*
X366303Y311271D01*
X349211D01*
X348956Y311221D01*
X348859D01*
X348769Y311183D01*
X348514Y311133D01*
X348297Y310988D01*
X348208Y310951D01*
X348139Y310882D01*
X347923Y310737D01*
X347778Y310521D01*
X347709Y310452D01*
X347672Y310363D01*
X347528Y310146D01*
X347477Y309891D01*
X347440Y309801D01*
Y309704D01*
X347389Y309449D01*
X347440Y309194D01*
Y309096D01*
X347477Y309007D01*
X347528Y308751D01*
X347672Y308535D01*
X347709Y308445D01*
X347778Y308377D01*
X347923Y308160D01*
X348139Y308016D01*
X348208Y307947D01*
X348297Y307910D01*
X348514Y307765D01*
X348769Y307714D01*
X348859Y307677D01*
X348956D01*
X349211Y307626D01*
X367849D01*
X368056Y307126D01*
X362140Y301210D01*
X360534D01*
X360237Y301508D01*
X359585Y301778D01*
X358880D01*
X358229Y301508D01*
X357731Y301009D01*
X357461Y300358D01*
Y299654D01*
X357731Y299002D01*
X358229Y298504D01*
X358880Y298234D01*
X359585D01*
X360237Y298504D01*
X360534Y298802D01*
X362638D01*
X362638Y298802D01*
X363099Y298893D01*
X363490Y299154D01*
X374570Y310234D01*
X374991D01*
X375642Y310504D01*
X376140Y311002D01*
X376410Y311653D01*
Y312358D01*
X376140Y313010D01*
X375843Y313307D01*
Y336623D01*
X376343Y336812D01*
X376708Y336447D01*
X377359Y336177D01*
X378064D01*
X378715Y336447D01*
X379122Y336855D01*
X379549Y336745D01*
X379622Y336701D01*
X379586Y305917D01*
X379085Y305757D01*
X378646Y306329D01*
X377944Y306868D01*
X377249Y307156D01*
Y301963D01*
Y296769D01*
X377944Y297057D01*
X378646Y297596D01*
X379077Y298157D01*
X379576Y297987D01*
X379565Y288709D01*
X379065Y288539D01*
X378646Y289085D01*
X377944Y289624D01*
X377249Y289912D01*
Y285506D01*
X376249D01*
Y284506D01*
X372857D01*
Y284325D01*
X372973Y283447D01*
X373312Y282629D01*
X373760Y282045D01*
X373588Y281545D01*
X344894D01*
X344722Y282045D01*
X345170Y282629D01*
X345509Y283447D01*
X345624Y284325D01*
Y284506D01*
X338842D01*
Y284325D01*
X338957Y283447D01*
X339296Y282629D01*
X339744Y282045D01*
X339733Y281956D01*
X339306Y281583D01*
X338726Y281698D01*
X337915Y282240D01*
X337374Y283050D01*
X337191Y283969D01*
X337221Y284006D01*
X337221D01*
X337178Y284224D01*
Y344405D01*
X337678Y344612D01*
X337747Y344543D01*
X338398Y344273D01*
X339103D01*
X339754Y344543D01*
X340052Y344840D01*
X341652D01*
X341652Y344840D01*
X342113Y344932D01*
X342503Y345193D01*
X343245Y345935D01*
X365006D01*
X373434Y337507D01*
D02*
G37*
%LPC*%
G36*
X354475Y333136D02*
X352802D01*
X351149Y332874D01*
X349558Y332357D01*
X348067Y331597D01*
X346713Y330614D01*
X345530Y329431D01*
X344547Y328077D01*
X343787Y326586D01*
X343270Y324995D01*
X343008Y323342D01*
Y321669D01*
X343270Y320017D01*
X343787Y318425D01*
X344547Y316935D01*
X345530Y315581D01*
X346713Y314398D01*
X348067Y313414D01*
X349558Y312655D01*
X351149Y312138D01*
X352802Y311876D01*
X354475D01*
X356128Y312138D01*
X357719Y312655D01*
X359210Y313414D01*
X360563Y314398D01*
X361747Y315581D01*
X362730Y316935D01*
X363490Y318425D01*
X364007Y320017D01*
X364268Y321669D01*
Y323342D01*
X364007Y324995D01*
X363490Y326586D01*
X362730Y328077D01*
X361747Y329431D01*
X360563Y330614D01*
X359210Y331597D01*
X357719Y332357D01*
X356128Y332874D01*
X354475Y333136D01*
D02*
G37*
G36*
X341233Y307156D02*
X340537Y306868D01*
X339835Y306329D01*
X339296Y305627D01*
X338957Y304809D01*
X338842Y303931D01*
Y302963D01*
X341233D01*
Y307156D01*
D02*
G37*
G36*
X375249D02*
X374553Y306868D01*
X373850Y306329D01*
X373312Y305627D01*
X372973Y304809D01*
X372857Y303931D01*
Y301471D01*
X372812Y301443D01*
X372357Y301318D01*
X371845Y301830D01*
X371049Y302159D01*
X370188D01*
X369392Y301830D01*
X368783Y301221D01*
X368453Y300425D01*
Y299563D01*
X368783Y298767D01*
X369392Y298158D01*
X370188Y297829D01*
X371049D01*
X371845Y298158D01*
X372455Y298767D01*
X372515Y298914D01*
X373057Y298914D01*
X373312Y298299D01*
X373850Y297596D01*
X374553Y297057D01*
X375249Y296769D01*
Y301963D01*
Y307156D01*
D02*
G37*
G36*
X343233D02*
Y301963D01*
Y296769D01*
X343929Y297057D01*
X344631Y297596D01*
X345170Y298299D01*
X345425Y298915D01*
X345966Y298914D01*
X346027Y298767D01*
X346636Y298158D01*
X347432Y297829D01*
X348293D01*
X349089Y298158D01*
X349698Y298767D01*
X350028Y299563D01*
Y300425D01*
X349698Y301221D01*
X349089Y301830D01*
X348293Y302159D01*
X347432D01*
X346636Y301830D01*
X346124Y301318D01*
X345670Y301442D01*
X345624Y301471D01*
Y303931D01*
X345509Y304809D01*
X345170Y305627D01*
X344631Y306329D01*
X343929Y306868D01*
X343233Y307156D01*
D02*
G37*
G36*
X341233Y300963D02*
X338842D01*
Y299994D01*
X338957Y299116D01*
X339296Y298299D01*
X339835Y297596D01*
X340537Y297057D01*
X341233Y296769D01*
Y300963D01*
D02*
G37*
G36*
X375249Y289912D02*
X374553Y289624D01*
X373850Y289085D01*
X373312Y288383D01*
X372973Y287565D01*
X372857Y286687D01*
Y286506D01*
X375249D01*
Y289912D01*
D02*
G37*
G36*
X343233D02*
Y286506D01*
X345624D01*
Y286687D01*
X345509Y287565D01*
X345170Y288383D01*
X344631Y289085D01*
X343929Y289624D01*
X343233Y289912D01*
D02*
G37*
G36*
X341233D02*
X340537Y289624D01*
X339835Y289085D01*
X339296Y288383D01*
X338957Y287565D01*
X338842Y286687D01*
Y286506D01*
X341233D01*
Y289912D01*
D02*
G37*
%LPD*%
D13*
X362638Y300006D02*
X374638Y312006D01*
X359233Y300006D02*
X362638D01*
X374638Y312006D02*
Y338006D01*
X371122Y312522D02*
Y332022D01*
X364820Y338325D02*
X371122Y332022D01*
X343548Y334006D02*
X347867Y338325D01*
X342747Y347139D02*
X365505D01*
X374638Y338006D01*
X347867Y338325D02*
X364820D01*
X341652Y346045D02*
X342747Y347139D01*
X338751Y346045D02*
X341652D01*
D39*
X368138Y328375D02*
X368211Y328449D01*
Y309449D02*
Y311213D01*
X368138Y311286D02*
X368211Y311213D01*
X368138Y311286D02*
Y328375D01*
X349211Y309449D02*
X368211D01*
D40*
X376249Y301963D02*
D03*
X342233D02*
D03*
D41*
Y285506D02*
D03*
X376249D02*
D03*
D42*
X347863Y299994D02*
D03*
X370619D02*
D03*
D43*
X353638Y322506D02*
D03*
D44*
X372047Y295275D02*
D03*
X366142Y283465D02*
D03*
X360236Y295275D02*
D03*
X354331Y283465D02*
D03*
X348425Y342520D02*
D03*
X342520Y330709D02*
D03*
X348425Y295275D02*
D03*
X343548Y334006D02*
D03*
X359233Y300006D02*
D03*
X374638Y312006D02*
D03*
X371122Y312522D02*
D03*
X338751Y346045D02*
D03*
X348653Y350852D02*
D03*
X366823Y350631D02*
D03*
X366420Y341148D02*
D03*
X349211Y309449D02*
D03*
X368211D02*
D03*
Y328449D02*
D03*
X377711Y337949D02*
D03*
M02*
