G04*
G04 #@! TF.GenerationSoftware,Altium Limited,Altium Designer,21.9.1 (22)*
G04*
G04 Layer_Color=16711935*
%FSLAX25Y25*%
%MOIN*%
G70*
G04*
G04 #@! TF.SameCoordinates,9576BD0E-73BF-4861-8540-BB655C5FDD5B*
G04*
G04*
G04 #@! TF.FilePolarity,Positive*
G04*
G01*
G75*
%ADD13C,0.00787*%
G36*
X375960Y320038D02*
X375956Y319972D01*
X375953Y319899D01*
X375945Y319827D01*
X375934Y319754D01*
X375923Y319692D01*
Y319688D01*
X375920Y319681D01*
Y319670D01*
X375912Y319655D01*
X375902Y319615D01*
X375883Y319565D01*
X375858Y319506D01*
X375825Y319444D01*
X375789Y319383D01*
X375741Y319324D01*
X375738Y319321D01*
X375734Y319317D01*
X375723Y319306D01*
X375712Y319291D01*
X375676Y319255D01*
X375625Y319211D01*
X375563Y319164D01*
X375490Y319113D01*
X375407Y319066D01*
X375312Y319026D01*
X375308D01*
X375301Y319022D01*
X375286Y319015D01*
X375265Y319011D01*
X375239Y319000D01*
X375210Y318993D01*
X375177Y318986D01*
X375137Y318975D01*
X375097Y318964D01*
X375050Y318957D01*
X374948Y318938D01*
X374835Y318928D01*
X374711Y318924D01*
X374708D01*
X374700D01*
X374682D01*
X374664D01*
X374639Y318928D01*
X374609D01*
X374540Y318931D01*
X374460Y318942D01*
X374376Y318953D01*
X374289Y318971D01*
X374202Y318993D01*
X374198D01*
X374191Y318997D01*
X374180Y319000D01*
X374165Y319004D01*
X374125Y319019D01*
X374074Y319040D01*
X374016Y319062D01*
X373958Y319091D01*
X373896Y319128D01*
X373838Y319164D01*
X373830Y319168D01*
X373812Y319182D01*
X373787Y319204D01*
X373754Y319233D01*
X373718Y319266D01*
X373681Y319306D01*
X373641Y319346D01*
X373608Y319393D01*
X373605Y319401D01*
X373594Y319415D01*
X373579Y319441D01*
X373561Y319477D01*
X373539Y319521D01*
X373521Y319572D01*
X373499Y319630D01*
X373481Y319695D01*
Y319703D01*
X373477Y319714D01*
X373474Y319725D01*
X373470Y319761D01*
X373463Y319812D01*
X373456Y319870D01*
X373448Y319939D01*
X373445Y320016D01*
X373441Y320099D01*
Y321006D01*
X375960D01*
Y320038D01*
D02*
G37*
G36*
X374686Y318603D02*
X374737D01*
X374795Y318600D01*
X374864Y318593D01*
X374941Y318585D01*
X375024Y318574D01*
X375108Y318560D01*
X375199Y318542D01*
X375286Y318520D01*
X375374Y318494D01*
X375458Y318461D01*
X375538Y318425D01*
X375614Y318385D01*
X375680Y318338D01*
X375683Y318334D01*
X375691Y318327D01*
X375705Y318312D01*
X375727Y318294D01*
X375749Y318272D01*
X375771Y318243D01*
X375800Y318207D01*
X375825Y318170D01*
X375851Y318127D01*
X375880Y318079D01*
X375902Y318025D01*
X375927Y317970D01*
X375945Y317908D01*
X375960Y317843D01*
X375967Y317774D01*
X375971Y317701D01*
Y317672D01*
X375967Y317650D01*
Y317624D01*
X375963Y317595D01*
X375949Y317526D01*
X375931Y317450D01*
X375902Y317370D01*
X375858Y317289D01*
X375832Y317249D01*
X375803Y317213D01*
X375800Y317209D01*
X375796Y317206D01*
X375785Y317195D01*
X375774Y317184D01*
X375756Y317166D01*
X375734Y317151D01*
X375683Y317111D01*
X375618Y317071D01*
X375538Y317035D01*
X375447Y317002D01*
X375345Y316980D01*
X375319Y317289D01*
X375323D01*
X375326Y317293D01*
X375348Y317297D01*
X375381Y317308D01*
X375421Y317322D01*
X375465Y317337D01*
X375508Y317359D01*
X375549Y317384D01*
X375581Y317410D01*
X375588Y317417D01*
X375603Y317431D01*
X375625Y317457D01*
X375650Y317493D01*
X375672Y317541D01*
X375694Y317592D01*
X375709Y317653D01*
X375716Y317719D01*
Y317744D01*
X375712Y317774D01*
X375705Y317806D01*
X375694Y317850D01*
X375680Y317894D01*
X375661Y317937D01*
X375632Y317981D01*
X375629Y317988D01*
X375614Y318006D01*
X375588Y318032D01*
X375552Y318065D01*
X375508Y318101D01*
X375458Y318141D01*
X375392Y318178D01*
X375319Y318214D01*
X375315D01*
X375308Y318218D01*
X375297Y318221D01*
X375283Y318229D01*
X375261Y318232D01*
X375236Y318239D01*
X375206Y318247D01*
X375170Y318254D01*
X375130Y318265D01*
X375086Y318272D01*
X375039Y318280D01*
X374988Y318283D01*
X374930Y318290D01*
X374871Y318294D01*
X374806Y318298D01*
X374740D01*
X374744Y318294D01*
X374766Y318280D01*
X374795Y318254D01*
X374831Y318221D01*
X374875Y318185D01*
X374915Y318138D01*
X374955Y318087D01*
X374992Y318028D01*
Y318025D01*
X374995Y318021D01*
X375006Y317999D01*
X375017Y317967D01*
X375035Y317923D01*
X375050Y317872D01*
X375061Y317814D01*
X375072Y317752D01*
X375075Y317686D01*
Y317657D01*
X375072Y317635D01*
X375068Y317606D01*
X375064Y317577D01*
X375057Y317541D01*
X375046Y317504D01*
X375021Y317421D01*
X375003Y317377D01*
X374977Y317333D01*
X374952Y317289D01*
X374922Y317242D01*
X374886Y317198D01*
X374846Y317158D01*
X374842Y317155D01*
X374835Y317147D01*
X374824Y317137D01*
X374806Y317126D01*
X374781Y317108D01*
X374755Y317089D01*
X374722Y317071D01*
X374686Y317049D01*
X374646Y317027D01*
X374602Y317009D01*
X374551Y316991D01*
X374500Y316973D01*
X374446Y316962D01*
X374384Y316951D01*
X374322Y316944D01*
X374256Y316940D01*
X374253D01*
X374245D01*
X374235D01*
X374216D01*
X374194Y316944D01*
X374173D01*
X374114Y316955D01*
X374045Y316966D01*
X373972Y316984D01*
X373892Y317009D01*
X373816Y317046D01*
X373812D01*
X373809Y317049D01*
X373798Y317056D01*
X373783Y317064D01*
X373747Y317086D01*
X373699Y317118D01*
X373648Y317158D01*
X373598Y317206D01*
X373547Y317264D01*
X373503Y317326D01*
Y317330D01*
X373499Y317333D01*
X373492Y317344D01*
X373488Y317359D01*
X373470Y317395D01*
X373452Y317442D01*
X373430Y317504D01*
X373415Y317573D01*
X373401Y317650D01*
X373397Y317734D01*
Y317752D01*
X373401Y317770D01*
Y317799D01*
X373405Y317832D01*
X373412Y317868D01*
X373423Y317912D01*
X373434Y317956D01*
X373448Y318006D01*
X373466Y318057D01*
X373488Y318109D01*
X373517Y318163D01*
X373550Y318214D01*
X373587Y318265D01*
X373630Y318316D01*
X373681Y318363D01*
X373685Y318367D01*
X373696Y318374D01*
X373710Y318385D01*
X373736Y318400D01*
X373769Y318422D01*
X373805Y318440D01*
X373852Y318461D01*
X373903Y318483D01*
X373965Y318509D01*
X374034Y318531D01*
X374111Y318549D01*
X374194Y318567D01*
X374289Y318585D01*
X374391Y318596D01*
X374500Y318603D01*
X374617Y318607D01*
X374620D01*
X374624D01*
X374635D01*
X374649D01*
X374686Y318603D01*
D02*
G37*
%LPC*%
G36*
X375661Y320671D02*
X373739D01*
Y320074D01*
X373743Y320049D01*
X373747Y319994D01*
X373750Y319932D01*
X373758Y319867D01*
X373769Y319801D01*
X373783Y319746D01*
X373787Y319739D01*
X373790Y319721D01*
X373801Y319695D01*
X373816Y319663D01*
X373838Y319626D01*
X373860Y319590D01*
X373885Y319553D01*
X373914Y319517D01*
X373921Y319514D01*
X373936Y319499D01*
X373961Y319477D01*
X373998Y319452D01*
X374045Y319423D01*
X374100Y319390D01*
X374162Y319361D01*
X374231Y319335D01*
X374235D01*
X374242Y319332D01*
X374253Y319328D01*
X374267Y319324D01*
X374285Y319321D01*
X374311Y319313D01*
X374336Y319306D01*
X374365Y319299D01*
X374438Y319288D01*
X374522Y319277D01*
X374617Y319270D01*
X374719Y319266D01*
X374722D01*
X374737D01*
X374755D01*
X374784Y319270D01*
X374817D01*
X374853Y319273D01*
X374897Y319277D01*
X374941Y319281D01*
X375039Y319299D01*
X375141Y319321D01*
X375236Y319353D01*
X375283Y319375D01*
X375323Y319397D01*
X375326D01*
X375334Y319404D01*
X375345Y319412D01*
X375359Y319419D01*
X375396Y319448D01*
X375439Y319484D01*
X375487Y319532D01*
X375534Y319586D01*
X375574Y319648D01*
X375607Y319714D01*
X375610Y319721D01*
X375614Y319739D01*
X375625Y319772D01*
X375636Y319819D01*
X375643Y319878D01*
X375654Y319950D01*
X375658Y319994D01*
Y320041D01*
X375661Y320089D01*
Y320671D01*
D02*
G37*
G36*
X374256Y318250D02*
X374249D01*
X374231D01*
X374198Y318247D01*
X374158Y318243D01*
X374111Y318236D01*
X374060Y318221D01*
X374005Y318207D01*
X373951Y318185D01*
X373943Y318181D01*
X373925Y318170D01*
X373900Y318156D01*
X373867Y318134D01*
X373834Y318109D01*
X373794Y318076D01*
X373761Y318039D01*
X373728Y317996D01*
X373725Y317988D01*
X373718Y317974D01*
X373703Y317948D01*
X373692Y317916D01*
X373678Y317879D01*
X373663Y317835D01*
X373656Y317788D01*
X373652Y317737D01*
Y317719D01*
X373656Y317704D01*
X373659Y317668D01*
X373670Y317621D01*
X373692Y317570D01*
X373718Y317512D01*
X373758Y317453D01*
X373780Y317424D01*
X373809Y317399D01*
X373812D01*
X373816Y317391D01*
X373838Y317377D01*
X373874Y317355D01*
X373921Y317326D01*
X373983Y317300D01*
X374056Y317279D01*
X374140Y317264D01*
X374238Y317257D01*
X374242D01*
X374249D01*
X374264D01*
X374282Y317260D01*
X374304D01*
X374329Y317264D01*
X374387Y317275D01*
X374453Y317289D01*
X374522Y317315D01*
X374588Y317351D01*
X374649Y317399D01*
X374657Y317406D01*
X374675Y317424D01*
X374697Y317453D01*
X374726Y317493D01*
X374755Y317544D01*
X374777Y317602D01*
X374795Y317672D01*
X374802Y317748D01*
Y317770D01*
X374799Y317785D01*
X374795Y317821D01*
X374784Y317872D01*
X374766Y317927D01*
X374737Y317988D01*
X374700Y318047D01*
X374649Y318105D01*
X374642Y318112D01*
X374624Y318127D01*
X374591Y318152D01*
X374544Y318178D01*
X374489Y318203D01*
X374420Y318229D01*
X374344Y318243D01*
X374256Y318250D01*
D02*
G37*
%LPD*%
D13*
X380536Y313722D02*
Y328289D01*
X367741Y313722D02*
X380536D01*
X367741D02*
Y328289D01*
X380536D01*
M02*
