G04*
G04 #@! TF.GenerationSoftware,Altium Limited,Altium Designer,21.9.1 (22)*
G04*
G04 Layer_Color=8421504*
%FSLAX25Y25*%
%MOIN*%
G70*
G04*
G04 #@! TF.SameCoordinates,9576BD0E-73BF-4861-8540-BB655C5FDD5B*
G04*
G04*
G04 #@! TF.FilePolarity,Positive*
G04*
G01*
G75*
%ADD14R,0.02362X0.05118*%
%ADD15R,0.01181X0.05118*%
%ADD16R,0.02362X0.04724*%
%ADD17R,0.02441X0.02598*%
%ADD18O,0.01378X0.03150*%
%ADD19R,0.05118X0.01575*%
%ADD20R,0.02362X0.03937*%
%ADD21R,0.02598X0.02441*%
%ADD22R,0.02559X0.02756*%
G36*
X358847Y302327D02*
X357666D01*
Y307445D01*
X358847D01*
Y302327D01*
D02*
G37*
G36*
X356879D02*
X355697D01*
Y307445D01*
X356879D01*
Y302327D01*
D02*
G37*
G36*
X354910D02*
X353729D01*
Y307445D01*
X354910D01*
Y302327D01*
D02*
G37*
G36*
X352941D02*
X351761D01*
Y307445D01*
X352941D01*
Y302327D01*
D02*
G37*
G36*
X350973D02*
X348611D01*
Y307445D01*
X350973D01*
Y302327D01*
D02*
G37*
G36*
X347824D02*
X345462D01*
Y307445D01*
X347824D01*
Y302327D01*
D02*
G37*
G36*
X343566Y305921D02*
X344230Y305262D01*
X344592Y304399D01*
X344596Y303931D01*
X344596Y303931D01*
X344596Y299994D01*
X344592Y299526D01*
X344230Y298663D01*
X343566Y298004D01*
X342701Y297647D01*
X341766D01*
X340900Y298004D01*
X340237Y298663D01*
X339874Y299526D01*
X339871Y299994D01*
Y303931D01*
X339874Y304399D01*
X340237Y305262D01*
X340900Y305921D01*
X341766Y306278D01*
X342701D01*
X343566Y305921D01*
D02*
G37*
G36*
Y288677D02*
X344230Y288017D01*
X344592Y287154D01*
X344596Y286686D01*
X344596Y286686D01*
X344596Y284325D01*
X344592Y283857D01*
X344230Y282994D01*
X343566Y282334D01*
X342701Y281978D01*
X341766D01*
X340900Y282334D01*
X340237Y282994D01*
X339874Y283857D01*
X339871Y284325D01*
Y286686D01*
X339874Y287154D01*
X340237Y288017D01*
X340900Y288677D01*
X341766Y289033D01*
X342701D01*
X343566Y288677D01*
D02*
G37*
G36*
X373887Y286686D02*
Y287156D01*
X374247Y288024D01*
X374911Y288689D01*
X375780Y289049D01*
X376719D01*
X377588Y288689D01*
X378252Y288024D01*
X378612Y287156D01*
Y286686D01*
D01*
D01*
Y284325D01*
Y283855D01*
X378252Y282986D01*
X377588Y282322D01*
X376719Y281962D01*
X375780D01*
X374911Y282322D01*
X374247Y282986D01*
X373887Y283855D01*
Y284325D01*
D01*
Y286686D01*
D01*
D02*
G37*
G36*
Y303931D02*
Y304401D01*
X374247Y305269D01*
X374911Y305934D01*
X375780Y306293D01*
X376719D01*
X377588Y305934D01*
X378252Y305269D01*
X378612Y304401D01*
Y303931D01*
D01*
D01*
Y299994D01*
Y299524D01*
X378252Y298656D01*
X377588Y297991D01*
X376719Y297632D01*
X375780D01*
X374911Y297991D01*
X374247Y298656D01*
X373887Y299524D01*
Y299994D01*
D01*
Y303931D01*
D01*
D02*
G37*
G36*
X367509Y307445D02*
X369871D01*
Y302327D01*
X367509D01*
Y307445D01*
D02*
G37*
G36*
X370658D02*
X373020D01*
Y302327D01*
X370658D01*
Y307445D01*
D02*
G37*
G36*
X359634D02*
X360816D01*
Y302327D01*
X359634D01*
Y307445D01*
D02*
G37*
G36*
X361603D02*
X362785D01*
Y302327D01*
X361603D01*
Y307445D01*
D02*
G37*
G36*
X363572D02*
X364753D01*
Y302327D01*
X363572D01*
Y307445D01*
D02*
G37*
G36*
X365540D02*
X366722D01*
Y302327D01*
X365540D01*
Y307445D01*
D02*
G37*
D14*
X346642Y304886D02*
D03*
X349792D02*
D03*
X371839D02*
D03*
X368690D02*
D03*
D15*
X352351D02*
D03*
X354320D02*
D03*
X356288D02*
D03*
X358257D02*
D03*
X360225D02*
D03*
X362194D02*
D03*
X364162D02*
D03*
X366131D02*
D03*
D16*
X377879Y325534D02*
D03*
X374138D02*
D03*
X370398D02*
D03*
Y316478D02*
D03*
X377879D02*
D03*
D17*
X364138Y346911D02*
D03*
Y343447D02*
D03*
X353138Y347679D02*
D03*
Y344215D02*
D03*
D18*
X345107Y347230D02*
D03*
X341170D02*
D03*
Y338175D02*
D03*
X345107D02*
D03*
D19*
X343138Y342506D02*
D03*
D20*
X370898Y332888D02*
D03*
X374638Y332888D02*
D03*
X378378Y332888D02*
D03*
X378379Y343124D02*
D03*
X370899Y343125D02*
D03*
D21*
X376371Y349447D02*
D03*
X372906D02*
D03*
D22*
X359638Y347187D02*
D03*
Y343447D02*
D03*
M02*
