G04*
G04 #@! TF.GenerationSoftware,Altium Limited,Altium Designer,21.9.1 (22)*
G04*
G04 Layer_Color=8388736*
%FSLAX25Y25*%
%MOIN*%
G70*
G04*
G04 #@! TF.SameCoordinates,9576BD0E-73BF-4861-8540-BB655C5FDD5B*
G04*
G04*
G04 #@! TF.FilePolarity,Negative*
G04*
G01*
G75*
%ADD16R,0.02362X0.04724*%
%ADD23R,0.03162X0.05918*%
%ADD24R,0.01981X0.05918*%
%ADD25R,0.03241X0.03398*%
%ADD26O,0.02178X0.03950*%
%ADD27R,0.07099X0.03556*%
%ADD28R,0.03162X0.04737*%
%ADD29R,0.03398X0.03241*%
%ADD30R,0.03359X0.03556*%
%ADD31O,0.05524X0.09461*%
%ADD32O,0.05524X0.07887*%
%ADD33C,0.03556*%
%ADD34C,0.20485*%
%ADD35C,0.02769*%
D16*
X377879Y325534D02*
D03*
X374138D02*
D03*
X370398D02*
D03*
Y316478D02*
D03*
X377879D02*
D03*
D23*
X346642Y304886D02*
D03*
X349792D02*
D03*
X371839D02*
D03*
X368690D02*
D03*
D24*
X352351D02*
D03*
X354320D02*
D03*
X356288D02*
D03*
X358257D02*
D03*
X360225D02*
D03*
X362194D02*
D03*
X364162D02*
D03*
X366131D02*
D03*
D25*
X364138Y346911D02*
D03*
Y343447D02*
D03*
X353138Y347679D02*
D03*
Y344215D02*
D03*
D26*
X345107Y347230D02*
D03*
X341170D02*
D03*
Y338175D02*
D03*
X345107D02*
D03*
D27*
X343138Y342506D02*
D03*
D28*
X370898Y332888D02*
D03*
X374638Y332888D02*
D03*
X378378Y332888D02*
D03*
X378379Y343124D02*
D03*
X370899Y343125D02*
D03*
D29*
X376371Y349447D02*
D03*
X372906D02*
D03*
D30*
X359638Y347187D02*
D03*
Y343447D02*
D03*
D31*
X376249Y301963D02*
D03*
X342233D02*
D03*
D32*
Y285506D02*
D03*
X376249D02*
D03*
D33*
X347863Y299994D02*
D03*
X370619D02*
D03*
D34*
X353638Y322506D02*
D03*
D35*
X372047Y295275D02*
D03*
X366142Y283465D02*
D03*
X360236Y295275D02*
D03*
X354331Y283465D02*
D03*
X348425Y342520D02*
D03*
X342520Y330709D02*
D03*
X348425Y295275D02*
D03*
M02*
