G04*
G04 #@! TF.GenerationSoftware,Altium Limited,Altium Designer,21.9.1 (22)*
G04*
G04 Layer_Color=8388736*
%FSLAX25Y25*%
%MOIN*%
G70*
G04*
G04 #@! TF.SameCoordinates,D67FD960-D183-44D8-A287-F522006B6830*
G04*
G04*
G04 #@! TF.FilePolarity,Positive*
G04*
G01*
G75*
%ADD11C,0.00394*%
D11*
X21193Y-59543D02*
Y-52457D01*
X7807Y-59543D02*
Y-52457D01*
X21193D01*
X7807Y-59543D02*
X21193D01*
X81937Y-63083D02*
Y-60917D01*
X77803Y-63083D02*
Y-60917D01*
X81937D01*
X77803Y-63083D02*
X81937D01*
X60158Y-85843D02*
Y-66158D01*
Y-85843D02*
X79843D01*
X60158Y-66158D02*
X79843D01*
Y-85843D02*
Y-66158D01*
X45957Y-17693D02*
X53043D01*
X45957Y-4307D02*
X53043D01*
Y-17693D02*
Y-4307D01*
X45957Y-17693D02*
Y-4307D01*
X127083Y-102567D02*
Y-98433D01*
X124917Y-102567D02*
Y-98433D01*
Y-102567D02*
X127083D01*
X124917Y-98433D02*
X127083D01*
X142083Y-106567D02*
Y-102433D01*
X139917Y-106567D02*
Y-102433D01*
Y-106567D02*
X142083D01*
X139917Y-102433D02*
X142083D01*
X56874Y-38102D02*
X61106Y-33870D01*
X56874D02*
X71126D01*
Y-55130D02*
Y-33870D01*
X56874Y-55130D02*
X71126D01*
X56874D02*
Y-33870D01*
M02*
