G04*
G04 #@! TF.GenerationSoftware,Altium Limited,Altium Designer,21.9.1 (22)*
G04*
G04 Layer_Color=16711935*
%FSLAX25Y25*%
%MOIN*%
G70*
G04*
G04 #@! TF.SameCoordinates,D67FD960-D183-44D8-A287-F522006B6830*
G04*
G04*
G04 #@! TF.FilePolarity,Positive*
G04*
G01*
G75*
%ADD14C,0.00787*%
G36*
X432528Y-232066D02*
X433500Y-233519D01*
X433096D01*
X432601Y-232754D01*
Y-232751D01*
X432594Y-232744D01*
X432586Y-232733D01*
X432579Y-232718D01*
X432564Y-232700D01*
X432550Y-232678D01*
X432517Y-232623D01*
X432477Y-232558D01*
X432434Y-232485D01*
X432386Y-232409D01*
X432342Y-232329D01*
Y-232332D01*
X432339Y-232340D01*
X432332Y-232350D01*
X432321Y-232365D01*
X432310Y-232383D01*
X432295Y-232405D01*
X432262Y-232460D01*
X432222Y-232525D01*
X432175Y-232601D01*
X432121Y-232685D01*
X432062Y-232776D01*
X431578Y-233519D01*
X431189D01*
X432193Y-232066D01*
Y-231000D01*
X432528D01*
Y-232066D01*
D02*
G37*
G36*
X430159Y-232969D02*
X430162Y-232965D01*
X430180Y-232951D01*
X430202Y-232929D01*
X430239Y-232904D01*
X430279Y-232871D01*
X430330Y-232835D01*
X430388Y-232794D01*
X430453Y-232754D01*
X430457D01*
X430461Y-232751D01*
X430482Y-232736D01*
X430519Y-232718D01*
X430563Y-232696D01*
X430614Y-232671D01*
X430668Y-232645D01*
X430723Y-232620D01*
X430777Y-232598D01*
Y-232896D01*
X430774D01*
X430766Y-232904D01*
X430752Y-232907D01*
X430734Y-232918D01*
X430712Y-232929D01*
X430686Y-232944D01*
X430624Y-232980D01*
X430552Y-233020D01*
X430479Y-233071D01*
X430402Y-233129D01*
X430326Y-233191D01*
X430322Y-233195D01*
X430319Y-233198D01*
X430308Y-233209D01*
X430293Y-233220D01*
X430260Y-233257D01*
X430217Y-233300D01*
X430173Y-233351D01*
X430126Y-233410D01*
X430086Y-233468D01*
X430049Y-233530D01*
X429849D01*
Y-231000D01*
X430159D01*
Y-232969D01*
D02*
G37*
D14*
X421295Y-238087D02*
X445705D01*
X421295D02*
Y-223913D01*
X445705D01*
Y-238087D02*
Y-223913D01*
M02*
