G04*
G04 #@! TF.GenerationSoftware,Altium Limited,Altium Designer,21.9.1 (22)*
G04*
G04 Layer_Color=8388736*
%FSLAX25Y25*%
%MOIN*%
G70*
G04*
G04 #@! TF.SameCoordinates,E1323236-0D64-4C8B-8FC9-1981637C6FB2*
G04*
G04*
G04 #@! TF.FilePolarity,Negative*
G04*
G01*
G75*
%ADD16R,0.01657X0.07698*%
G04:AMPARAMS|DCode=17|XSize=76.98mil|YSize=16.57mil|CornerRadius=8.28mil|HoleSize=0mil|Usage=FLASHONLY|Rotation=90.000|XOffset=0mil|YOffset=0mil|HoleType=Round|Shape=RoundedRectangle|*
%AMROUNDEDRECTD17*
21,1,0.07698,0.00000,0,0,90.0*
21,1,0.06041,0.01657,0,0,90.0*
1,1,0.01657,0.00000,0.03021*
1,1,0.01657,0.00000,-0.03021*
1,1,0.01657,0.00000,-0.03021*
1,1,0.01657,0.00000,0.03021*
%
%ADD17ROUNDEDRECTD17*%
%ADD25R,0.02362X0.04724*%
%ADD27R,0.03150X0.03543*%
%ADD30R,0.03241X0.03398*%
%ADD31R,0.04737X0.03162*%
%ADD32R,0.05918X0.03162*%
%ADD33R,0.03359X0.03556*%
%ADD34R,0.03556X0.03359*%
%ADD35R,0.01981X0.05918*%
%ADD36R,0.03162X0.05918*%
%ADD37R,0.04343X0.04540*%
%ADD38R,0.03398X0.03241*%
%ADD39R,0.05524X0.02965*%
%ADD40R,0.08280X0.06902*%
%ADD41C,0.05984*%
%ADD42R,0.05984X0.05984*%
%ADD43C,0.06800*%
%ADD44C,0.20485*%
%ADD45R,0.05984X0.05984*%
%ADD46P,0.09483X4X360.0*%
%ADD47C,0.06706*%
%ADD48O,0.05524X0.09461*%
%ADD49C,0.03556*%
%ADD50O,0.05524X0.07887*%
D16*
X251445Y-312821D02*
D03*
D17*
X254004D02*
D03*
X256563D02*
D03*
X259122D02*
D03*
X261681D02*
D03*
X264240D02*
D03*
X266799D02*
D03*
X269358D02*
D03*
X271917D02*
D03*
X274476D02*
D03*
Y-290179D02*
D03*
X271917D02*
D03*
X269358D02*
D03*
X266799D02*
D03*
X264240D02*
D03*
X261681D02*
D03*
X259122D02*
D03*
X256563D02*
D03*
X254004D02*
D03*
X251445D02*
D03*
D25*
X364220Y-342528D02*
D03*
X367961D02*
D03*
X371701D02*
D03*
Y-333472D02*
D03*
X364220D02*
D03*
D27*
X289701Y-283626D02*
D03*
X282221D02*
D03*
X285961Y-291500D02*
D03*
D30*
X295610Y-272519D02*
D03*
Y-269055D02*
D03*
X251961Y-337035D02*
D03*
Y-340500D02*
D03*
Y-329232D02*
D03*
Y-325768D02*
D03*
D31*
X257842Y-336739D02*
D03*
X257842Y-329259D02*
D03*
X268079Y-329260D02*
D03*
X268078Y-333000D02*
D03*
X268078Y-336740D02*
D03*
D32*
X301524Y-306260D02*
D03*
Y-313740D02*
D03*
X309791Y-310000D02*
D03*
D33*
X294882Y-311411D02*
D03*
Y-307671D02*
D03*
D34*
X285961Y-302500D02*
D03*
X282221D02*
D03*
X286049Y-307724D02*
D03*
X282309D02*
D03*
X286049Y-297224D02*
D03*
X282309D02*
D03*
X289130Y-260000D02*
D03*
X292870D02*
D03*
D35*
X371575Y-350351D02*
D03*
X369606D02*
D03*
X367638D02*
D03*
X365669D02*
D03*
X363701D02*
D03*
X361732D02*
D03*
X359764D02*
D03*
X357795D02*
D03*
D36*
X374134D02*
D03*
X377283D02*
D03*
X355236D02*
D03*
X352086D02*
D03*
D37*
X277547Y-260000D02*
D03*
X283453D02*
D03*
D38*
X355000Y-344000D02*
D03*
X351535D02*
D03*
X261728Y-321000D02*
D03*
X265193D02*
D03*
D39*
X290428Y-266664D02*
D03*
Y-274144D02*
D03*
X280190D02*
D03*
Y-270404D02*
D03*
Y-266664D02*
D03*
D40*
X276685Y-324175D02*
D03*
Y-335789D02*
D03*
D41*
X256500Y-277500D02*
D03*
X266500D02*
D03*
Y-267500D02*
D03*
X309961Y-296000D02*
D03*
Y-286000D02*
D03*
X299961D02*
D03*
D42*
X256500Y-267500D02*
D03*
D43*
X304685Y-327041D02*
D03*
X296685D02*
D03*
X288685D02*
D03*
D44*
X263685Y-358541D02*
D03*
X330185Y-360541D02*
D03*
D45*
X299961Y-296000D02*
D03*
D46*
X326893Y-303432D02*
D03*
D47*
X332461Y-309000D02*
D03*
D48*
X347677Y-353274D02*
D03*
X381693D02*
D03*
D49*
X376063Y-355243D02*
D03*
X353307D02*
D03*
D50*
X381693Y-369731D02*
D03*
X347677D02*
D03*
M02*
