G04*
G04 #@! TF.GenerationSoftware,Altium Limited,Altium Designer,21.9.1 (22)*
G04*
G04 Layer_Physical_Order=2*
G04 Layer_Color=36540*
%FSLAX25Y25*%
%MOIN*%
G70*
G04*
G04 #@! TF.SameCoordinates,E1323236-0D64-4C8B-8FC9-1981637C6FB2*
G04*
G04*
G04 #@! TF.FilePolarity,Positive*
G04*
G01*
G75*
%ADD41C,0.05984*%
%ADD55C,0.19685*%
%ADD58O,0.04724X0.08661*%
%ADD60O,0.04724X0.07087*%
G36*
X303508Y-253255D02*
X304767Y-258654D01*
X306376Y-263959D01*
X308329Y-269148D01*
X310617Y-274198D01*
X313230Y-279087D01*
X316158Y-283795D01*
X319388Y-288302D01*
X322905Y-292588D01*
X326694Y-296634D01*
X330741Y-300424D01*
X335027Y-303941D01*
X339533Y-307170D01*
X344241Y-310098D01*
X349131Y-312712D01*
X354181Y-315000D01*
X359369Y-316952D01*
X359786Y-317079D01*
X360324Y-317438D01*
X361104Y-317593D01*
X383143D01*
X383187Y-317585D01*
X383707Y-317688D01*
X384185Y-318007D01*
X384504Y-318485D01*
X384607Y-319004D01*
X384598Y-319048D01*
Y-348792D01*
X384125Y-348952D01*
X384091Y-348908D01*
X383388Y-348369D01*
X383071Y-348237D01*
Y-353274D01*
Y-358311D01*
X383388Y-358180D01*
X384091Y-357641D01*
X384125Y-357596D01*
X384598Y-357757D01*
Y-366036D01*
X384125Y-366196D01*
X384091Y-366152D01*
X383388Y-365613D01*
X383071Y-365481D01*
Y-369731D01*
X381693D01*
Y-371109D01*
X378327D01*
X378417Y-371790D01*
X378756Y-372608D01*
X379058Y-373002D01*
X378812Y-373502D01*
X350558D01*
X350312Y-373002D01*
X350614Y-372608D01*
X350953Y-371790D01*
X351043Y-371109D01*
X344312D01*
X344402Y-371790D01*
X344740Y-372608D01*
X345043Y-373002D01*
X344796Y-373502D01*
X262089D01*
X249960Y-361374D01*
X249960Y-251527D01*
X303223D01*
X303508Y-253255D01*
D02*
G37*
%LPC*%
G36*
X297352Y-258228D02*
X296648D01*
X295996Y-258498D01*
X295498Y-258996D01*
X295228Y-259648D01*
Y-260352D01*
X295498Y-261004D01*
X295996Y-261502D01*
X296648Y-261772D01*
X297352D01*
X298004Y-261502D01*
X298502Y-261004D01*
X298772Y-260352D01*
Y-259648D01*
X298502Y-258996D01*
X298004Y-258498D01*
X297352Y-258228D01*
D02*
G37*
G36*
X300488Y-267164D02*
X299783D01*
X299132Y-267434D01*
X298634Y-267933D01*
X298364Y-268584D01*
Y-269288D01*
X298634Y-269940D01*
X299132Y-270438D01*
X299783Y-270708D01*
X300488D01*
X301139Y-270438D01*
X301638Y-269940D01*
X301907Y-269288D01*
Y-268584D01*
X301638Y-267933D01*
X301139Y-267434D01*
X300488Y-267164D01*
D02*
G37*
G36*
X266998Y-263720D02*
X266002D01*
X265041Y-263978D01*
X264179Y-264476D01*
X263476Y-265179D01*
X262978Y-266041D01*
X262720Y-267002D01*
Y-267998D01*
X262978Y-268959D01*
X263476Y-269821D01*
X264179Y-270524D01*
X265041Y-271022D01*
X266002Y-271280D01*
X266998D01*
X267959Y-271022D01*
X268821Y-270524D01*
X269524Y-269821D01*
X270022Y-268959D01*
X270280Y-267998D01*
Y-267002D01*
X270022Y-266041D01*
X269524Y-265179D01*
X268821Y-264476D01*
X267959Y-263978D01*
X266998Y-263720D01*
D02*
G37*
G36*
X260279D02*
X252720D01*
Y-271280D01*
X260279D01*
Y-263720D01*
D02*
G37*
G36*
X267878Y-273736D02*
Y-276122D01*
X270264D01*
X270220Y-275959D01*
X269694Y-275049D01*
X268951Y-274306D01*
X268041Y-273780D01*
X267878Y-273736D01*
D02*
G37*
G36*
X265122Y-273736D02*
X264959Y-273780D01*
X264049Y-274306D01*
X263305Y-275049D01*
X262780Y-275959D01*
X262736Y-276122D01*
X265122D01*
Y-273736D01*
D02*
G37*
G36*
X289852Y-276689D02*
X289148D01*
X288496Y-276959D01*
X287998Y-277457D01*
X287728Y-278108D01*
Y-278813D01*
X287998Y-279464D01*
X288496Y-279963D01*
X289148Y-280232D01*
X289852D01*
X290504Y-279963D01*
X291002Y-279464D01*
X291272Y-278813D01*
Y-278108D01*
X291002Y-277457D01*
X290504Y-276959D01*
X289852Y-276689D01*
D02*
G37*
G36*
X282468Y-277151D02*
X281763D01*
X281112Y-277421D01*
X280613Y-277920D01*
X280344Y-278571D01*
Y-279275D01*
X280613Y-279927D01*
X281112Y-280425D01*
X281763Y-280695D01*
X282468D01*
X283119Y-280425D01*
X283617Y-279927D01*
X283887Y-279275D01*
Y-278571D01*
X283617Y-277920D01*
X283119Y-277421D01*
X282468Y-277151D01*
D02*
G37*
G36*
X270264Y-278878D02*
X267878D01*
Y-281264D01*
X268041Y-281220D01*
X268951Y-280695D01*
X269694Y-279951D01*
X270220Y-279041D01*
X270264Y-278878D01*
D02*
G37*
G36*
X265122D02*
X262736D01*
X262780Y-279041D01*
X263305Y-279951D01*
X264049Y-280695D01*
X264959Y-281220D01*
X265122Y-281264D01*
Y-278878D01*
D02*
G37*
G36*
X256998Y-273721D02*
X256002D01*
X255041Y-273978D01*
X254179Y-274476D01*
X253476Y-275179D01*
X252978Y-276041D01*
X252720Y-277002D01*
Y-277998D01*
X252978Y-278959D01*
X253476Y-279821D01*
X254179Y-280524D01*
X255041Y-281022D01*
X256002Y-281279D01*
X256998D01*
X257959Y-281022D01*
X258821Y-280524D01*
X259524Y-279821D01*
X260022Y-278959D01*
X260279Y-277998D01*
Y-277002D01*
X260022Y-276041D01*
X259524Y-275179D01*
X258821Y-274476D01*
X257959Y-273978D01*
X256998Y-273721D01*
D02*
G37*
G36*
X311339Y-282236D02*
Y-284622D01*
X313724D01*
X313681Y-284459D01*
X313155Y-283549D01*
X312412Y-282805D01*
X311502Y-282280D01*
X311339Y-282236D01*
D02*
G37*
G36*
X308583D02*
X308420Y-282280D01*
X307509Y-282805D01*
X306766Y-283549D01*
X306241Y-284459D01*
X306197Y-284622D01*
X308583D01*
Y-282236D01*
D02*
G37*
G36*
X275873Y-281939D02*
X275169D01*
X274518Y-282209D01*
X274019Y-282707D01*
X273749Y-283358D01*
Y-284063D01*
X274019Y-284714D01*
X274518Y-285213D01*
X275169Y-285482D01*
X275873D01*
X276525Y-285213D01*
X277023Y-284714D01*
X277293Y-284063D01*
Y-283358D01*
X277023Y-282707D01*
X276525Y-282209D01*
X275873Y-281939D01*
D02*
G37*
G36*
X313724Y-287378D02*
X311339D01*
Y-289764D01*
X311502Y-289720D01*
X312412Y-289194D01*
X313155Y-288451D01*
X313681Y-287541D01*
X313724Y-287378D01*
D02*
G37*
G36*
X308583D02*
X306197D01*
X306241Y-287541D01*
X306766Y-288451D01*
X307509Y-289194D01*
X308420Y-289720D01*
X308583Y-289764D01*
Y-287378D01*
D02*
G37*
G36*
X300458Y-282221D02*
X299463D01*
X298502Y-282478D01*
X297640Y-282976D01*
X296936Y-283679D01*
X296439Y-284541D01*
X296181Y-285502D01*
Y-286498D01*
X296439Y-287459D01*
X296936Y-288321D01*
X297640Y-289024D01*
X298502Y-289522D01*
X299463Y-289779D01*
X300458D01*
X301419Y-289522D01*
X302281Y-289024D01*
X302985Y-288321D01*
X303483Y-287459D01*
X303740Y-286498D01*
Y-285502D01*
X303483Y-284541D01*
X302985Y-283679D01*
X302281Y-282976D01*
X301419Y-282478D01*
X300458Y-282221D01*
D02*
G37*
G36*
X267035Y-295411D02*
X266331D01*
X265679Y-295681D01*
X265181Y-296179D01*
X264911Y-296831D01*
Y-297535D01*
X265181Y-298186D01*
X265679Y-298685D01*
X266331Y-298955D01*
X267035D01*
X267687Y-298685D01*
X268185Y-298186D01*
X268455Y-297535D01*
Y-296831D01*
X268185Y-296179D01*
X267687Y-295681D01*
X267035Y-295411D01*
D02*
G37*
G36*
X261852Y-296228D02*
X261148D01*
X260496Y-296498D01*
X259998Y-296996D01*
X259728Y-297648D01*
Y-298352D01*
X259998Y-299004D01*
X260496Y-299502D01*
X261148Y-299772D01*
X261852D01*
X262504Y-299502D01*
X263002Y-299004D01*
X263272Y-298352D01*
Y-297648D01*
X263002Y-296996D01*
X262504Y-296498D01*
X261852Y-296228D01*
D02*
G37*
G36*
X310458Y-292220D02*
X309463D01*
X308502Y-292478D01*
X307640Y-292976D01*
X306936Y-293679D01*
X306439Y-294541D01*
X306181Y-295502D01*
Y-296498D01*
X306439Y-297459D01*
X306936Y-298321D01*
X307640Y-299024D01*
X308502Y-299522D01*
X309463Y-299780D01*
X310458D01*
X311420Y-299522D01*
X312281Y-299024D01*
X312985Y-298321D01*
X313483Y-297459D01*
X313740Y-296498D01*
Y-295502D01*
X313483Y-294541D01*
X312985Y-293679D01*
X312281Y-292976D01*
X311420Y-292478D01*
X310458Y-292220D01*
D02*
G37*
G36*
X303740D02*
X296181D01*
Y-299780D01*
X303740D01*
Y-292220D01*
D02*
G37*
G36*
X256852Y-297228D02*
X256148D01*
X255496Y-297498D01*
X254998Y-297996D01*
X254728Y-298648D01*
Y-299352D01*
X254998Y-300004D01*
X255496Y-300502D01*
X256148Y-300772D01*
X256852D01*
X257504Y-300502D01*
X258002Y-300004D01*
X258272Y-299352D01*
Y-298648D01*
X258002Y-297996D01*
X257504Y-297498D01*
X256852Y-297228D01*
D02*
G37*
G36*
X264852Y-302728D02*
X264148D01*
X263496Y-302998D01*
X262998Y-303496D01*
X262728Y-304148D01*
Y-304852D01*
X262998Y-305504D01*
X263496Y-306002D01*
X264148Y-306272D01*
X264852D01*
X265504Y-306002D01*
X266002Y-305504D01*
X266272Y-304852D01*
Y-304148D01*
X266002Y-303496D01*
X265504Y-302998D01*
X264852Y-302728D01*
D02*
G37*
G36*
X271226Y-303631D02*
X270521D01*
X269870Y-303901D01*
X269372Y-304399D01*
X269102Y-305050D01*
Y-305755D01*
X269372Y-306406D01*
X269870Y-306904D01*
X270521Y-307174D01*
X271226D01*
X271877Y-306904D01*
X272376Y-306406D01*
X272645Y-305755D01*
Y-305050D01*
X272376Y-304399D01*
X271877Y-303901D01*
X271226Y-303631D01*
D02*
G37*
G36*
X290313Y-305728D02*
X289608D01*
X288957Y-305998D01*
X288459Y-306496D01*
X288189Y-307148D01*
Y-307852D01*
X288459Y-308504D01*
X288957Y-309002D01*
X289608Y-309272D01*
X290313D01*
X290964Y-309002D01*
X291463Y-308504D01*
X291732Y-307852D01*
Y-307148D01*
X291463Y-306496D01*
X290964Y-305998D01*
X290313Y-305728D01*
D02*
G37*
G36*
X326893Y-298143D02*
X321603Y-303432D01*
X326893Y-308722D01*
X328862Y-306752D01*
X329262Y-307059D01*
X328975Y-307556D01*
X328720Y-308508D01*
Y-309492D01*
X328975Y-310444D01*
X329468Y-311297D01*
X330164Y-311993D01*
X331017Y-312485D01*
X331968Y-312740D01*
X332953D01*
X333904Y-312485D01*
X334757Y-311993D01*
X335454Y-311297D01*
X335946Y-310444D01*
X336201Y-309492D01*
Y-308508D01*
X335946Y-307556D01*
X335454Y-306703D01*
X334757Y-306007D01*
X333904Y-305515D01*
X332953Y-305260D01*
X331968D01*
X331017Y-305515D01*
X330520Y-305802D01*
X330213Y-305402D01*
X332182Y-303432D01*
X326893Y-298143D01*
D02*
G37*
G36*
X284852Y-310728D02*
X284148D01*
X283496Y-310998D01*
X282998Y-311496D01*
X282728Y-312148D01*
Y-312852D01*
X282998Y-313504D01*
X283496Y-314002D01*
X284148Y-314272D01*
X284852D01*
X285141Y-314152D01*
X285368Y-314371D01*
X285474Y-314556D01*
X285228Y-315148D01*
Y-315852D01*
X285498Y-316504D01*
X285996Y-317002D01*
X286648Y-317272D01*
X287352D01*
X288004Y-317002D01*
X288502Y-316504D01*
X288772Y-315852D01*
Y-315148D01*
X288502Y-314496D01*
X288004Y-313998D01*
X287352Y-313728D01*
X286648D01*
X286359Y-313848D01*
X286132Y-313629D01*
X286026Y-313444D01*
X286272Y-312852D01*
Y-312148D01*
X286002Y-311496D01*
X285504Y-310998D01*
X284852Y-310728D01*
D02*
G37*
G36*
X278813Y-316728D02*
X278108D01*
X277457Y-316998D01*
X276959Y-317496D01*
X276689Y-318148D01*
Y-318852D01*
X276959Y-319504D01*
X277457Y-320002D01*
X278108Y-320272D01*
X278813D01*
X279464Y-320002D01*
X279963Y-319504D01*
X280232Y-318852D01*
Y-318148D01*
X279963Y-317496D01*
X279464Y-316998D01*
X278813Y-316728D01*
D02*
G37*
G36*
X258352Y-319728D02*
X257648D01*
X256996Y-319998D01*
X256498Y-320496D01*
X256228Y-321148D01*
Y-321852D01*
X256498Y-322504D01*
X256996Y-323002D01*
X257648Y-323272D01*
X258352D01*
X259004Y-323002D01*
X259502Y-322504D01*
X259772Y-321852D01*
Y-321148D01*
X259502Y-320496D01*
X259004Y-319998D01*
X258352Y-319728D01*
D02*
G37*
G36*
X305184Y-323254D02*
X304187D01*
X303223Y-323512D01*
X302360Y-324010D01*
X301654Y-324716D01*
X301156Y-325579D01*
X300944Y-326370D01*
X300426D01*
X300214Y-325579D01*
X299716Y-324716D01*
X299011Y-324010D01*
X298147Y-323512D01*
X297184Y-323254D01*
X296186D01*
X295223Y-323512D01*
X294360Y-324010D01*
X293654Y-324716D01*
X293156Y-325579D01*
X292944Y-326370D01*
X292426D01*
X292214Y-325579D01*
X291716Y-324716D01*
X291011Y-324010D01*
X290147Y-323512D01*
X289184Y-323254D01*
X288187D01*
X287223Y-323512D01*
X286360Y-324010D01*
X285654Y-324716D01*
X285156Y-325579D01*
X284898Y-326542D01*
Y-327540D01*
X285156Y-328503D01*
X285654Y-329367D01*
X286360Y-330072D01*
X287223Y-330570D01*
X288187Y-330828D01*
X289184D01*
X290147Y-330570D01*
X291011Y-330072D01*
X291716Y-329367D01*
X292214Y-328503D01*
X292426Y-327712D01*
X292944D01*
X293156Y-328503D01*
X293654Y-329367D01*
X294360Y-330072D01*
X295223Y-330570D01*
X296186Y-330828D01*
X297184D01*
X298147Y-330570D01*
X299011Y-330072D01*
X299716Y-329367D01*
X300214Y-328503D01*
X300426Y-327712D01*
X300944D01*
X301156Y-328503D01*
X301654Y-329367D01*
X302360Y-330072D01*
X303223Y-330570D01*
X304187Y-330828D01*
X305184D01*
X306147Y-330570D01*
X307011Y-330072D01*
X307716Y-329367D01*
X308214Y-328503D01*
X308472Y-327540D01*
Y-326542D01*
X308214Y-325579D01*
X307716Y-324716D01*
X307011Y-324010D01*
X306147Y-323512D01*
X305184Y-323254D01*
D02*
G37*
G36*
X364852Y-327228D02*
X364148D01*
X363496Y-327498D01*
X362998Y-327996D01*
X362728Y-328648D01*
Y-329352D01*
X362998Y-330004D01*
X363496Y-330502D01*
X364148Y-330772D01*
X364852D01*
X365504Y-330502D01*
X366002Y-330004D01*
X366272Y-329352D01*
Y-328648D01*
X366002Y-327996D01*
X365504Y-327498D01*
X364852Y-327228D01*
D02*
G37*
G36*
X282313Y-329228D02*
X281608D01*
X280957Y-329498D01*
X280459Y-329996D01*
X280189Y-330648D01*
Y-331352D01*
X280459Y-332004D01*
X280957Y-332502D01*
X281608Y-332772D01*
X282313D01*
X282964Y-332502D01*
X283463Y-332004D01*
X283732Y-331352D01*
Y-330648D01*
X283463Y-329996D01*
X282964Y-329498D01*
X282313Y-329228D01*
D02*
G37*
G36*
X315852Y-335228D02*
X315148D01*
X314496Y-335498D01*
X313998Y-335996D01*
X313728Y-336648D01*
Y-337352D01*
X313998Y-338004D01*
X314496Y-338502D01*
X315148Y-338772D01*
X315852D01*
X316504Y-338502D01*
X317002Y-338004D01*
X317272Y-337352D01*
Y-336648D01*
X317002Y-335996D01*
X316504Y-335498D01*
X315852Y-335228D01*
D02*
G37*
G36*
X376352Y-336728D02*
X375648D01*
X374996Y-336998D01*
X374498Y-337496D01*
X374228Y-338148D01*
Y-338852D01*
X374498Y-339504D01*
X374996Y-340002D01*
X375648Y-340272D01*
X376352D01*
X377004Y-340002D01*
X377502Y-339504D01*
X377772Y-338852D01*
Y-338148D01*
X377502Y-337496D01*
X377004Y-336998D01*
X376352Y-336728D01*
D02*
G37*
G36*
X258852Y-338228D02*
X258148D01*
X257496Y-338498D01*
X256998Y-338996D01*
X256728Y-339648D01*
Y-340352D01*
X256998Y-341004D01*
X257496Y-341502D01*
X258148Y-341772D01*
X258852D01*
X259504Y-341502D01*
X260002Y-341004D01*
X260272Y-340352D01*
Y-339648D01*
X260002Y-338996D01*
X259504Y-338498D01*
X258852Y-338228D01*
D02*
G37*
G36*
X355352Y-338728D02*
X354648D01*
X353996Y-338998D01*
X353498Y-339496D01*
X353228Y-340148D01*
Y-340852D01*
X353498Y-341504D01*
X353996Y-342002D01*
X354648Y-342272D01*
X355352D01*
X356004Y-342002D01*
X356502Y-341504D01*
X356772Y-340852D01*
Y-340148D01*
X356502Y-339496D01*
X356004Y-338998D01*
X355352Y-338728D01*
D02*
G37*
G36*
X375852Y-342728D02*
X375148D01*
X374496Y-342998D01*
X373998Y-343496D01*
X373728Y-344148D01*
Y-344852D01*
X373998Y-345504D01*
X374496Y-346002D01*
X375148Y-346272D01*
X375852D01*
X376504Y-346002D01*
X377002Y-345504D01*
X377272Y-344852D01*
Y-344148D01*
X377002Y-343496D01*
X376504Y-342998D01*
X375852Y-342728D01*
D02*
G37*
G36*
X277038Y-338716D02*
X276333D01*
X275681Y-338985D01*
X275183Y-339483D01*
X274913Y-340135D01*
Y-340840D01*
X275183Y-341491D01*
X275593Y-341901D01*
X275498Y-341996D01*
X275228Y-342648D01*
Y-343352D01*
X275498Y-344004D01*
X275965Y-344470D01*
X275981Y-344750D01*
X275965Y-345030D01*
X275498Y-345496D01*
X275228Y-346148D01*
Y-346852D01*
X275498Y-347504D01*
X275996Y-348002D01*
X276648Y-348272D01*
X277352D01*
X278004Y-348002D01*
X278502Y-347504D01*
X278772Y-346852D01*
Y-346148D01*
X278502Y-345496D01*
X278035Y-345030D01*
X278018Y-344750D01*
X278035Y-344470D01*
X278502Y-344004D01*
X278772Y-343352D01*
Y-342648D01*
X278502Y-341996D01*
X278092Y-341586D01*
X278187Y-341491D01*
X278457Y-340840D01*
Y-340135D01*
X278187Y-339483D01*
X277689Y-338985D01*
X277038Y-338716D01*
D02*
G37*
G36*
X346299Y-348237D02*
X345982Y-348369D01*
X345279Y-348908D01*
X344740Y-349610D01*
X344402Y-350428D01*
X344286Y-351306D01*
Y-351897D01*
X346299D01*
Y-348237D01*
D02*
G37*
G36*
X380315D02*
X379997Y-348369D01*
X379295Y-348908D01*
X378756Y-349610D01*
X378417Y-350428D01*
X378302Y-351306D01*
Y-353766D01*
X378256Y-353794D01*
X377802Y-353919D01*
X377290Y-353407D01*
X376494Y-353078D01*
X375632D01*
X374836Y-353407D01*
X374227Y-354016D01*
X373898Y-354812D01*
Y-355674D01*
X374227Y-356470D01*
X374836Y-357079D01*
X375632Y-357408D01*
X376494D01*
X377290Y-357079D01*
X377899Y-356470D01*
X377960Y-356323D01*
X378501Y-356323D01*
X378756Y-356939D01*
X379295Y-357641D01*
X379997Y-358180D01*
X380315Y-358311D01*
Y-353274D01*
Y-348237D01*
D02*
G37*
G36*
X265063Y-347782D02*
Y-357163D01*
X274445D01*
X274261Y-356002D01*
X273733Y-354379D01*
X272958Y-352858D01*
X271955Y-351478D01*
X270748Y-350271D01*
X269368Y-349268D01*
X267847Y-348493D01*
X266224Y-347966D01*
X265063Y-347782D01*
D02*
G37*
G36*
X262307Y-347782D02*
X261146Y-347966D01*
X259523Y-348493D01*
X258002Y-349268D01*
X256622Y-350271D01*
X255415Y-351478D01*
X254412Y-352858D01*
X253637Y-354379D01*
X253110Y-356002D01*
X252926Y-357163D01*
X262307D01*
Y-347782D01*
D02*
G37*
G36*
X349055Y-348237D02*
Y-353274D01*
Y-358311D01*
X349373Y-358180D01*
X350075Y-357641D01*
X350614Y-356939D01*
X350869Y-356323D01*
X351410Y-356323D01*
X351471Y-356470D01*
X352080Y-357079D01*
X352876Y-357408D01*
X353738D01*
X354534Y-357079D01*
X355143Y-356470D01*
X355472Y-355674D01*
Y-354812D01*
X355143Y-354016D01*
X354534Y-353407D01*
X353738Y-353078D01*
X352876D01*
X352080Y-353407D01*
X351568Y-353919D01*
X351115Y-353795D01*
X351068Y-353766D01*
Y-351306D01*
X350953Y-350428D01*
X350614Y-349610D01*
X350075Y-348908D01*
X349373Y-348369D01*
X349055Y-348237D01*
D02*
G37*
G36*
X346299Y-354652D02*
X344286D01*
Y-355243D01*
X344402Y-356121D01*
X344740Y-356939D01*
X345279Y-357641D01*
X345982Y-358180D01*
X346299Y-358311D01*
Y-354652D01*
D02*
G37*
G36*
X331563Y-349782D02*
Y-359163D01*
X340945D01*
X340761Y-358002D01*
X340233Y-356379D01*
X339458Y-354858D01*
X338455Y-353478D01*
X337248Y-352271D01*
X335868Y-351268D01*
X334347Y-350493D01*
X332724Y-349966D01*
X331563Y-349782D01*
D02*
G37*
G36*
X328807Y-349782D02*
X327646Y-349966D01*
X326023Y-350493D01*
X324502Y-351268D01*
X323122Y-352271D01*
X321915Y-353478D01*
X320912Y-354858D01*
X320137Y-356379D01*
X319609Y-358002D01*
X319426Y-359163D01*
X328807D01*
Y-349782D01*
D02*
G37*
G36*
X380315Y-365481D02*
X379997Y-365613D01*
X379295Y-366152D01*
X378756Y-366854D01*
X378417Y-367672D01*
X378327Y-368353D01*
X380315D01*
Y-365481D01*
D02*
G37*
G36*
X349055D02*
Y-368353D01*
X351043D01*
X350953Y-367672D01*
X350614Y-366854D01*
X350075Y-366152D01*
X349373Y-365613D01*
X349055Y-365481D01*
D02*
G37*
G36*
X346299D02*
X345982Y-365613D01*
X345279Y-366152D01*
X344740Y-366854D01*
X344402Y-367672D01*
X344312Y-368353D01*
X346299D01*
Y-365481D01*
D02*
G37*
G36*
X274445Y-359919D02*
X265063D01*
Y-369301D01*
X266224Y-369117D01*
X267847Y-368589D01*
X269368Y-367814D01*
X270748Y-366811D01*
X271955Y-365605D01*
X272958Y-364224D01*
X273733Y-362703D01*
X274261Y-361080D01*
X274445Y-359919D01*
D02*
G37*
G36*
X262307D02*
X252926D01*
X253110Y-361080D01*
X253637Y-362703D01*
X254412Y-364224D01*
X255415Y-365605D01*
X256622Y-366811D01*
X258002Y-367814D01*
X259523Y-368589D01*
X261146Y-369117D01*
X262307Y-369301D01*
Y-359919D01*
D02*
G37*
G36*
X340945Y-361919D02*
X331563D01*
Y-371301D01*
X332724Y-371117D01*
X334347Y-370589D01*
X335868Y-369814D01*
X337248Y-368811D01*
X338455Y-367605D01*
X339458Y-366224D01*
X340233Y-364703D01*
X340761Y-363080D01*
X340945Y-361919D01*
D02*
G37*
G36*
X328807D02*
X319426D01*
X319609Y-363080D01*
X320137Y-364703D01*
X320912Y-366224D01*
X321915Y-367605D01*
X323122Y-368811D01*
X324502Y-369814D01*
X326023Y-370589D01*
X327646Y-371117D01*
X328807Y-371301D01*
Y-361919D01*
D02*
G37*
%LPD*%
D41*
X266500Y-277500D02*
D03*
X309961Y-286000D02*
D03*
D55*
X263685Y-358541D02*
D03*
X330185Y-360541D02*
D03*
D58*
X347677Y-353274D02*
D03*
X381693D02*
D03*
D60*
Y-369731D02*
D03*
X347677D02*
D03*
M02*
