G04*
G04 #@! TF.GenerationSoftware,Altium Limited,Altium Designer,21.9.1 (22)*
G04*
G04 Layer_Color=255*
%FSLAX25Y25*%
%MOIN*%
G70*
G04*
G04 #@! TF.SameCoordinates,D67FD960-D183-44D8-A287-F522006B6830*
G04*
G04*
G04 #@! TF.FilePolarity,Positive*
G04*
G01*
G75*
%ADD22R,0.02756X0.02559*%
%ADD32R,0.02441X0.02598*%
%ADD48R,0.05906X0.03543*%
%ADD60R,0.06102X0.07480*%
%ADD72R,0.07480X0.06102*%
%ADD115C,0.18399*%
%ADD116R,0.06265X0.06265*%
%ADD117C,0.06265*%
%ADD118C,0.06265*%
%ADD129R,0.05512X0.05512*%
%ADD130C,0.05512*%
%ADD162O,0.03543X0.07874*%
%ADD163R,0.02441X0.02441*%
%ADD164C,0.19685*%
G04:AMPARAMS|DCode=165|XSize=37.4mil|YSize=37.4mil|CornerRadius=9.35mil|HoleSize=0mil|Usage=FLASHONLY|Rotation=90.000|XOffset=0mil|YOffset=0mil|HoleType=Round|Shape=RoundedRectangle|*
%AMROUNDEDRECTD165*
21,1,0.03740,0.01870,0,0,90.0*
21,1,0.01870,0.03740,0,0,90.0*
1,1,0.01870,0.00935,0.00935*
1,1,0.01870,0.00935,-0.00935*
1,1,0.01870,-0.00935,-0.00935*
1,1,0.01870,-0.00935,0.00935*
%
%ADD165ROUNDEDRECTD165*%
%ADD166C,0.03740*%
%ADD167R,0.07874X0.05118*%
%ADD168R,0.05118X0.07874*%
%ADD169C,0.06000*%
G04:AMPARAMS|DCode=170|XSize=60mil|YSize=60mil|CornerRadius=6mil|HoleSize=0mil|Usage=FLASHONLY|Rotation=0.000|XOffset=0mil|YOffset=0mil|HoleType=Round|Shape=RoundedRectangle|*
%AMROUNDEDRECTD170*
21,1,0.06000,0.04800,0,0,0.0*
21,1,0.04800,0.06000,0,0,0.0*
1,1,0.01200,0.02400,-0.02400*
1,1,0.01200,-0.02400,-0.02400*
1,1,0.01200,-0.02400,0.02400*
1,1,0.01200,0.02400,0.02400*
%
%ADD170ROUNDEDRECTD170*%
%ADD171C,0.11811*%
%ADD172O,0.06200X0.06000*%
%ADD173R,0.09843X0.09843*%
%ADD174C,0.08000*%
%ADD175C,0.08268*%
%ADD176R,0.08268X0.08268*%
%ADD177C,0.11024*%
%ADD178C,0.06299*%
%ADD179R,0.06299X0.06299*%
%ADD180C,0.05400*%
%ADD182C,0.02000*%
%ADD184R,0.03150X0.03150*%
%ADD185R,0.08465X0.08661*%
%ADD186R,0.18307X0.16339*%
%ADD187R,0.04528X0.05709*%
%ADD188R,0.05709X0.04528*%
%ADD189R,0.16339X0.18307*%
D22*
X81740Y-62000D02*
D03*
X78000D02*
D03*
D32*
X126000Y-102232D02*
D03*
Y-98768D02*
D03*
X141000Y-106232D02*
D03*
Y-102768D02*
D03*
D48*
X60354Y-82496D02*
D03*
Y-69504D02*
D03*
X79646D02*
D03*
Y-82496D02*
D03*
D60*
X20307Y-56000D02*
D03*
X8693D02*
D03*
D72*
X49500Y-16807D02*
D03*
Y-5193D02*
D03*
D115*
X484400Y-229200D02*
D03*
Y-130800D02*
D03*
D116*
X490000Y-158400D02*
D03*
D117*
Y-169200D02*
D03*
Y-180000D02*
D03*
Y-190800D02*
D03*
Y-201600D02*
D03*
D118*
X478800Y-163800D02*
D03*
Y-174600D02*
D03*
Y-185400D02*
D03*
Y-196200D02*
D03*
D129*
X83000Y-199815D02*
D03*
X283000Y-63500D02*
D03*
D130*
X83000Y-209658D02*
D03*
Y-219500D02*
D03*
Y-229343D02*
D03*
X293000Y-63500D02*
D03*
X283000Y-73500D02*
D03*
X293000D02*
D03*
X283000Y-83500D02*
D03*
X293000D02*
D03*
D162*
X330343Y-226602D02*
D03*
Y-210854D02*
D03*
X315146Y-226602D02*
D03*
Y-210854D02*
D03*
X305343D02*
D03*
Y-226602D02*
D03*
X290146Y-210854D02*
D03*
Y-226602D02*
D03*
D163*
X325500Y-231524D02*
D03*
Y-227783D02*
D03*
Y-224043D02*
D03*
Y-220500D02*
D03*
Y-216956D02*
D03*
Y-213413D02*
D03*
Y-209673D02*
D03*
Y-205932D02*
D03*
X319988D02*
D03*
Y-209673D02*
D03*
Y-213413D02*
D03*
Y-216956D02*
D03*
Y-220500D02*
D03*
Y-224043D02*
D03*
Y-227783D02*
D03*
Y-231524D02*
D03*
X300500D02*
D03*
Y-227783D02*
D03*
Y-224043D02*
D03*
Y-220500D02*
D03*
Y-216956D02*
D03*
Y-213413D02*
D03*
Y-209673D02*
D03*
Y-205932D02*
D03*
X294988D02*
D03*
Y-209673D02*
D03*
Y-213413D02*
D03*
Y-216956D02*
D03*
Y-220500D02*
D03*
Y-224043D02*
D03*
Y-227783D02*
D03*
Y-231524D02*
D03*
D164*
X47059Y-228594D02*
D03*
X103059Y-13595D02*
D03*
X504315Y-93094D02*
D03*
D165*
X268500Y-81000D02*
D03*
D166*
X263500D02*
D03*
X268500Y-76000D02*
D03*
Y-71000D02*
D03*
X263500Y-76000D02*
D03*
Y-71000D02*
D03*
X268500Y-66000D02*
D03*
Y-61000D02*
D03*
X263500Y-66000D02*
D03*
Y-61000D02*
D03*
D167*
X240543Y-215142D02*
D03*
Y-232858D02*
D03*
D168*
X246055Y-224000D02*
D03*
D169*
X271000Y-226500D02*
D03*
D170*
X261000D02*
D03*
D171*
X366169Y-182354D02*
D03*
Y-234087D02*
D03*
D172*
X355500Y-204283D02*
D03*
Y-222000D02*
D03*
Y-194441D02*
D03*
Y-212158D02*
D03*
D173*
X11000Y-34000D02*
D03*
X34500D02*
D03*
D174*
X11000Y-14000D02*
D03*
X34500D02*
D03*
D175*
X16500Y-218500D02*
D03*
D176*
Y-233500D02*
D03*
D177*
X15560Y-181501D02*
D03*
Y-161501D02*
D03*
Y-141501D02*
D03*
Y-121501D02*
D03*
D178*
X60815Y-23748D02*
D03*
Y-15874D02*
D03*
Y-8000D02*
D03*
X80500Y-15874D02*
D03*
Y-8000D02*
D03*
D179*
X80499Y-23748D02*
D03*
D180*
X137559Y-35394D02*
D03*
Y-9799D02*
D03*
D182*
X299059Y-46595D02*
D03*
X327059D02*
D03*
D184*
X67047Y-62000D02*
D03*
X72953D02*
D03*
D185*
X64000Y-53161D02*
D03*
Y-35839D02*
D03*
D186*
X37063Y-60000D02*
D03*
D187*
X51827Y-56122D02*
D03*
Y-63878D02*
D03*
D188*
X38756Y-74500D02*
D03*
X31000D02*
D03*
X17378Y-66173D02*
D03*
X9622D02*
D03*
D189*
X34878Y-89264D02*
D03*
X13500Y-80937D02*
D03*
M02*
