G04*
G04 #@! TF.GenerationSoftware,Altium Limited,Altium Designer,21.9.1 (22)*
G04*
G04 Layer_Physical_Order=2*
G04 Layer_Color=36540*
%FSLAX25Y25*%
%MOIN*%
G70*
G04*
G04 #@! TF.SameCoordinates,D67FD960-D183-44D8-A287-F522006B6830*
G04*
G04*
G04 #@! TF.FilePolarity,Positive*
G04*
G01*
G75*
%ADD115C,0.18399*%
%ADD118C,0.06265*%
%ADD130C,0.05512*%
%ADD163R,0.02441X0.02441*%
%ADD164C,0.19685*%
%ADD166C,0.03740*%
%ADD169C,0.06000*%
%ADD171C,0.11811*%
%ADD172O,0.06200X0.06000*%
%ADD173R,0.09843X0.09843*%
%ADD178C,0.06299*%
%ADD181C,0.01968*%
%ADD183C,0.04724*%
G36*
X4500Y-2039D02*
X4500Y-2039D01*
X157000D01*
Y-24500D01*
X266500D01*
X266559Y-49595D01*
X325707Y-49595D01*
X325974Y-50094D01*
X325831Y-50309D01*
X325694Y-51000D01*
X325831Y-51691D01*
X326223Y-52277D01*
X326809Y-52669D01*
X327500Y-52806D01*
X328191Y-52669D01*
X328777Y-52277D01*
X329169Y-51691D01*
X329306Y-51000D01*
X329169Y-50309D01*
X329026Y-50094D01*
X329293Y-49595D01*
X381651Y-49595D01*
X382099Y-50042D01*
X499896Y-49594D01*
X524961Y-49595D01*
Y-237595D01*
X524970Y-237639D01*
X524874Y-238365D01*
X524577Y-239082D01*
X524104Y-239699D01*
X523488Y-240171D01*
X522770Y-240469D01*
X522044Y-240564D01*
X522000Y-240555D01*
X179555D01*
X179218Y-240055D01*
X179306Y-239610D01*
X179169Y-238919D01*
X178777Y-238333D01*
X178191Y-237941D01*
X177500Y-237804D01*
X176809Y-237941D01*
X176223Y-238333D01*
X175831Y-238919D01*
X175694Y-239610D01*
X175782Y-240055D01*
X175445Y-240555D01*
X102513D01*
X102361Y-240055D01*
X102777Y-239777D01*
X103169Y-239191D01*
X103306Y-238500D01*
X103169Y-237809D01*
X102777Y-237223D01*
X102191Y-236831D01*
X101500Y-236694D01*
X100809Y-236831D01*
X100223Y-237223D01*
X99831Y-237809D01*
X99694Y-238500D01*
X99831Y-239191D01*
X100223Y-239777D01*
X100639Y-240055D01*
X100487Y-240555D01*
X4500D01*
X4406Y-240574D01*
X3544Y-240402D01*
X2734Y-239861D01*
X2192Y-239050D01*
X2021Y-238188D01*
X2039Y-238094D01*
Y-4500D01*
X2021Y-4406D01*
X2192Y-3544D01*
X2734Y-2734D01*
X3544Y-2192D01*
X4406Y-2021D01*
X4500Y-2039D01*
D02*
G37*
%LPC*%
G36*
X137559Y-6282D02*
X136649Y-6402D01*
X135800Y-6753D01*
X135072Y-7312D01*
X134513Y-8040D01*
X134161Y-8889D01*
X134042Y-9799D01*
X134161Y-10710D01*
X134513Y-11558D01*
X135072Y-12286D01*
X135800Y-12845D01*
X136649Y-13197D01*
X137559Y-13317D01*
X138470Y-13197D01*
X139318Y-12845D01*
X140046Y-12286D01*
X140605Y-11558D01*
X140957Y-10710D01*
X141077Y-9799D01*
X140957Y-8889D01*
X140605Y-8040D01*
X140046Y-7312D01*
X139318Y-6753D01*
X138470Y-6402D01*
X137559Y-6282D01*
D02*
G37*
G36*
X34500Y-9171D02*
X33250Y-9336D01*
X32086Y-9818D01*
X31086Y-10586D01*
X30318Y-11586D01*
X29836Y-12750D01*
X29671Y-14000D01*
X29836Y-15250D01*
X30318Y-16414D01*
X31086Y-17414D01*
X32086Y-18182D01*
X33250Y-18664D01*
X34500Y-18829D01*
X35750Y-18664D01*
X36914Y-18182D01*
X37914Y-17414D01*
X38682Y-16414D01*
X39164Y-15250D01*
X39329Y-14000D01*
X39164Y-12750D01*
X38682Y-11586D01*
X37914Y-10586D01*
X36914Y-9818D01*
X35750Y-9336D01*
X34500Y-9171D01*
D02*
G37*
G36*
X11000D02*
X9750Y-9336D01*
X8586Y-9818D01*
X7586Y-10586D01*
X6818Y-11586D01*
X6336Y-12750D01*
X6171Y-14000D01*
X6336Y-15250D01*
X6818Y-16414D01*
X7586Y-17414D01*
X8586Y-18182D01*
X9750Y-18664D01*
X11000Y-18829D01*
X12250Y-18664D01*
X13414Y-18182D01*
X14414Y-17414D01*
X15182Y-16414D01*
X15664Y-15250D01*
X15829Y-14000D01*
X15664Y-12750D01*
X15182Y-11586D01*
X14414Y-10586D01*
X13414Y-9818D01*
X12250Y-9336D01*
X11000Y-9171D01*
D02*
G37*
G36*
X80500Y-11903D02*
X79472Y-12038D01*
X78514Y-12435D01*
X77692Y-13066D01*
X77061Y-13889D01*
X76664Y-14846D01*
X76529Y-15874D01*
X76664Y-16902D01*
X77061Y-17860D01*
X77692Y-18682D01*
X78514Y-19313D01*
X78410Y-19811D01*
X76562D01*
Y-27685D01*
X84436D01*
Y-19811D01*
X82590D01*
X82486Y-19313D01*
X83308Y-18682D01*
X83939Y-17860D01*
X84336Y-16902D01*
X84471Y-15874D01*
X84336Y-14846D01*
X83939Y-13889D01*
X83308Y-13066D01*
X82486Y-12435D01*
X81528Y-12038D01*
X80500Y-11903D01*
D02*
G37*
G36*
X60815D02*
X59787Y-12038D01*
X58829Y-12435D01*
X58007Y-13066D01*
X57376Y-13889D01*
X56979Y-14846D01*
X56844Y-15874D01*
X56979Y-16902D01*
X57376Y-17860D01*
X58007Y-18682D01*
X58829Y-19313D01*
X59379Y-19540D01*
Y-20082D01*
X58829Y-20309D01*
X58007Y-20940D01*
X57376Y-21763D01*
X56979Y-22720D01*
X56844Y-23748D01*
X56979Y-24776D01*
X57376Y-25734D01*
X58007Y-26556D01*
X58829Y-27187D01*
X59787Y-27584D01*
X60815Y-27719D01*
X61843Y-27584D01*
X62801Y-27187D01*
X63623Y-26556D01*
X64254Y-25734D01*
X64651Y-24776D01*
X64786Y-23748D01*
X64651Y-22720D01*
X64254Y-21763D01*
X63623Y-20940D01*
X62801Y-20309D01*
X62251Y-20082D01*
Y-19540D01*
X62801Y-19313D01*
X63623Y-18682D01*
X64254Y-17860D01*
X64651Y-16902D01*
X64786Y-15874D01*
X64651Y-14846D01*
X64254Y-13889D01*
X63623Y-13066D01*
X62801Y-12435D01*
X61843Y-12038D01*
X60815Y-11903D01*
D02*
G37*
G36*
X109000Y-27694D02*
X108309Y-27831D01*
X107723Y-28223D01*
X107331Y-28809D01*
X107194Y-29500D01*
X107331Y-30191D01*
X107723Y-30777D01*
X108309Y-31169D01*
X109000Y-31306D01*
X109691Y-31169D01*
X110277Y-30777D01*
X110669Y-30191D01*
X110806Y-29500D01*
X110669Y-28809D01*
X110277Y-28223D01*
X109691Y-27831D01*
X109000Y-27694D01*
D02*
G37*
G36*
X177000Y-31194D02*
X176309Y-31331D01*
X175723Y-31723D01*
X175331Y-32309D01*
X175194Y-33000D01*
X175331Y-33691D01*
X175723Y-34277D01*
X176309Y-34669D01*
X177000Y-34806D01*
X177691Y-34669D01*
X178277Y-34277D01*
X178669Y-33691D01*
X178806Y-33000D01*
X178669Y-32309D01*
X178277Y-31723D01*
X177691Y-31331D01*
X177000Y-31194D01*
D02*
G37*
G36*
X245500Y-32194D02*
X244809Y-32331D01*
X244223Y-32723D01*
X243831Y-33309D01*
X243694Y-34000D01*
X243831Y-34691D01*
X244223Y-35277D01*
X244809Y-35669D01*
X245500Y-35806D01*
X246191Y-35669D01*
X246777Y-35277D01*
X247169Y-34691D01*
X247306Y-34000D01*
X247169Y-33309D01*
X246777Y-32723D01*
X246191Y-32331D01*
X245500Y-32194D01*
D02*
G37*
G36*
X99500Y-32694D02*
X98809Y-32831D01*
X98223Y-33223D01*
X97831Y-33809D01*
X97694Y-34500D01*
X97831Y-35191D01*
X98223Y-35777D01*
X98809Y-36169D01*
X99500Y-36306D01*
X100191Y-36169D01*
X100777Y-35777D01*
X101169Y-35191D01*
X101306Y-34500D01*
X101169Y-33809D01*
X100777Y-33223D01*
X100191Y-32831D01*
X99500Y-32694D01*
D02*
G37*
G36*
X94500D02*
X93809Y-32831D01*
X93223Y-33223D01*
X92831Y-33809D01*
X92694Y-34500D01*
X92831Y-35191D01*
X93223Y-35777D01*
X93809Y-36169D01*
X94500Y-36306D01*
X95191Y-36169D01*
X95777Y-35777D01*
X96169Y-35191D01*
X96306Y-34500D01*
X96169Y-33809D01*
X95777Y-33223D01*
X95191Y-32831D01*
X94500Y-32694D01*
D02*
G37*
G36*
X90000D02*
X89309Y-32831D01*
X88723Y-33223D01*
X88331Y-33809D01*
X88194Y-34500D01*
X88331Y-35191D01*
X88723Y-35777D01*
X89309Y-36169D01*
X90000Y-36306D01*
X90691Y-36169D01*
X91277Y-35777D01*
X91669Y-35191D01*
X91806Y-34500D01*
X91669Y-33809D01*
X91277Y-33223D01*
X90691Y-32831D01*
X90000Y-32694D01*
D02*
G37*
G36*
X85500D02*
X84809Y-32831D01*
X84223Y-33223D01*
X83831Y-33809D01*
X83694Y-34500D01*
X83831Y-35191D01*
X84223Y-35777D01*
X84809Y-36169D01*
X85500Y-36306D01*
X86191Y-36169D01*
X86777Y-35777D01*
X87169Y-35191D01*
X87306Y-34500D01*
X87169Y-33809D01*
X86777Y-33223D01*
X86191Y-32831D01*
X85500Y-32694D01*
D02*
G37*
G36*
X80500D02*
X79809Y-32831D01*
X79223Y-33223D01*
X78831Y-33809D01*
X78694Y-34500D01*
X78831Y-35191D01*
X79223Y-35777D01*
X79809Y-36169D01*
X80500Y-36306D01*
X81191Y-36169D01*
X81777Y-35777D01*
X82169Y-35191D01*
X82306Y-34500D01*
X82169Y-33809D01*
X81777Y-33223D01*
X81191Y-32831D01*
X80500Y-32694D01*
D02*
G37*
G36*
X210000Y-35194D02*
X209309Y-35331D01*
X208723Y-35723D01*
X208331Y-36309D01*
X208194Y-37000D01*
X208331Y-37691D01*
X208723Y-38277D01*
X209309Y-38669D01*
X210000Y-38806D01*
X210691Y-38669D01*
X211277Y-38277D01*
X211669Y-37691D01*
X211806Y-37000D01*
X211669Y-36309D01*
X211277Y-35723D01*
X210691Y-35331D01*
X210000Y-35194D01*
D02*
G37*
G36*
X137559Y-31877D02*
X136649Y-31997D01*
X135800Y-32348D01*
X135072Y-32907D01*
X134513Y-33636D01*
X134161Y-34484D01*
X134042Y-35394D01*
X134161Y-36305D01*
X134513Y-37153D01*
X135072Y-37882D01*
X135800Y-38441D01*
X136649Y-38792D01*
X137559Y-38912D01*
X138470Y-38792D01*
X139318Y-38441D01*
X140046Y-37882D01*
X140605Y-37153D01*
X140957Y-36305D01*
X141077Y-35394D01*
X140957Y-34484D01*
X140605Y-33636D01*
X140046Y-32907D01*
X139318Y-32348D01*
X138470Y-31997D01*
X137559Y-31877D01*
D02*
G37*
G36*
X16709Y-28291D02*
X5291D01*
Y-39709D01*
X16709D01*
Y-28291D01*
D02*
G37*
G36*
X188500Y-37194D02*
X187809Y-37331D01*
X187223Y-37723D01*
X186831Y-38309D01*
X186694Y-39000D01*
X186831Y-39691D01*
X187223Y-40277D01*
X187809Y-40669D01*
X188500Y-40806D01*
X189191Y-40669D01*
X189777Y-40277D01*
X190169Y-39691D01*
X190306Y-39000D01*
X190169Y-38309D01*
X189777Y-37723D01*
X189191Y-37331D01*
X188500Y-37194D01*
D02*
G37*
G36*
X244500Y-37694D02*
X243809Y-37831D01*
X243223Y-38223D01*
X242831Y-38809D01*
X242694Y-39500D01*
X242831Y-40191D01*
X243223Y-40777D01*
X243809Y-41169D01*
X244500Y-41306D01*
X245191Y-41169D01*
X245777Y-40777D01*
X246169Y-40191D01*
X246306Y-39500D01*
X246169Y-38809D01*
X245777Y-38223D01*
X245191Y-37831D01*
X244500Y-37694D01*
D02*
G37*
G36*
X102500D02*
X101809Y-37831D01*
X101223Y-38223D01*
X100831Y-38809D01*
X100694Y-39500D01*
X100831Y-40191D01*
X101223Y-40777D01*
X101809Y-41169D01*
X102500Y-41306D01*
X103191Y-41169D01*
X103777Y-40777D01*
X104169Y-40191D01*
X104306Y-39500D01*
X104169Y-38809D01*
X103777Y-38223D01*
X103191Y-37831D01*
X102500Y-37694D01*
D02*
G37*
G36*
X97500D02*
X96809Y-37831D01*
X96223Y-38223D01*
X95831Y-38809D01*
X95694Y-39500D01*
X95831Y-40191D01*
X96223Y-40777D01*
X96809Y-41169D01*
X97500Y-41306D01*
X98191Y-41169D01*
X98777Y-40777D01*
X99169Y-40191D01*
X99306Y-39500D01*
X99169Y-38809D01*
X98777Y-38223D01*
X98191Y-37831D01*
X97500Y-37694D01*
D02*
G37*
G36*
X93000D02*
X92309Y-37831D01*
X91723Y-38223D01*
X91331Y-38809D01*
X91194Y-39500D01*
X91331Y-40191D01*
X91723Y-40777D01*
X92309Y-41169D01*
X93000Y-41306D01*
X93691Y-41169D01*
X94277Y-40777D01*
X94669Y-40191D01*
X94806Y-39500D01*
X94669Y-38809D01*
X94277Y-38223D01*
X93691Y-37831D01*
X93000Y-37694D01*
D02*
G37*
G36*
X88500D02*
X87809Y-37831D01*
X87223Y-38223D01*
X86831Y-38809D01*
X86694Y-39500D01*
X86831Y-40191D01*
X87223Y-40777D01*
X87809Y-41169D01*
X88500Y-41306D01*
X89191Y-41169D01*
X89777Y-40777D01*
X90169Y-40191D01*
X90306Y-39500D01*
X90169Y-38809D01*
X89777Y-38223D01*
X89191Y-37831D01*
X88500Y-37694D01*
D02*
G37*
G36*
X83500D02*
X82809Y-37831D01*
X82223Y-38223D01*
X81831Y-38809D01*
X81694Y-39500D01*
X81831Y-40191D01*
X82223Y-40777D01*
X82809Y-41169D01*
X83500Y-41306D01*
X84191Y-41169D01*
X84777Y-40777D01*
X85169Y-40191D01*
X85306Y-39500D01*
X85169Y-38809D01*
X84777Y-38223D01*
X84191Y-37831D01*
X83500Y-37694D01*
D02*
G37*
G36*
X130500Y-38194D02*
X129809Y-38331D01*
X129223Y-38723D01*
X128831Y-39309D01*
X128694Y-40000D01*
X128831Y-40691D01*
X129223Y-41277D01*
X129809Y-41669D01*
X130500Y-41806D01*
X131191Y-41669D01*
X131777Y-41277D01*
X132169Y-40691D01*
X132306Y-40000D01*
X132169Y-39309D01*
X131777Y-38723D01*
X131191Y-38331D01*
X130500Y-38194D01*
D02*
G37*
G36*
X256000Y-41694D02*
X255309Y-41831D01*
X254723Y-42223D01*
X254331Y-42809D01*
X254194Y-43500D01*
X254331Y-44191D01*
X254723Y-44777D01*
X255309Y-45169D01*
X256000Y-45306D01*
X256691Y-45169D01*
X257277Y-44777D01*
X257669Y-44191D01*
X257806Y-43500D01*
X257669Y-42809D01*
X257277Y-42223D01*
X256691Y-41831D01*
X256000Y-41694D01*
D02*
G37*
G36*
X166500D02*
X165809Y-41831D01*
X165223Y-42223D01*
X164831Y-42809D01*
X164694Y-43500D01*
X164831Y-44191D01*
X165223Y-44777D01*
X165809Y-45169D01*
X166500Y-45306D01*
X167191Y-45169D01*
X167777Y-44777D01*
X168169Y-44191D01*
X168306Y-43500D01*
X168169Y-42809D01*
X167777Y-42223D01*
X167191Y-41831D01*
X166500Y-41694D01*
D02*
G37*
G36*
X153443Y-43945D02*
X152752Y-44082D01*
X152165Y-44474D01*
X151774Y-45060D01*
X151636Y-45751D01*
X151774Y-46442D01*
X152165Y-47029D01*
X152752Y-47420D01*
X153443Y-47558D01*
X154134Y-47420D01*
X154720Y-47029D01*
X155112Y-46442D01*
X155249Y-45751D01*
X155112Y-45060D01*
X154720Y-44474D01*
X154134Y-44082D01*
X153443Y-43945D01*
D02*
G37*
G36*
X198000Y-46194D02*
X197309Y-46331D01*
X196723Y-46723D01*
X196331Y-47309D01*
X196194Y-48000D01*
X196331Y-48691D01*
X196723Y-49277D01*
X197309Y-49669D01*
X198000Y-49806D01*
X198691Y-49669D01*
X199277Y-49277D01*
X199669Y-48691D01*
X199806Y-48000D01*
X199669Y-47309D01*
X199277Y-46723D01*
X198691Y-46331D01*
X198000Y-46194D01*
D02*
G37*
G36*
X174000Y-46694D02*
X173309Y-46831D01*
X172723Y-47223D01*
X172331Y-47809D01*
X172194Y-48500D01*
X172331Y-49191D01*
X172723Y-49777D01*
X173309Y-50169D01*
X174000Y-50306D01*
X174691Y-50169D01*
X175277Y-49777D01*
X175669Y-49191D01*
X175806Y-48500D01*
X175669Y-47809D01*
X175277Y-47223D01*
X174691Y-46831D01*
X174000Y-46694D01*
D02*
G37*
G36*
X110000Y-47694D02*
X109309Y-47831D01*
X108723Y-48223D01*
X108331Y-48809D01*
X108194Y-49500D01*
X108331Y-50191D01*
X108723Y-50777D01*
X109309Y-51169D01*
X110000Y-51306D01*
X110691Y-51169D01*
X111277Y-50777D01*
X111669Y-50191D01*
X111806Y-49500D01*
X111669Y-48809D01*
X111277Y-48223D01*
X110691Y-47831D01*
X110000Y-47694D01*
D02*
G37*
G36*
X154000Y-49694D02*
X153309Y-49831D01*
X152723Y-50223D01*
X152331Y-50809D01*
X152194Y-51500D01*
X152331Y-52191D01*
X152723Y-52777D01*
X153309Y-53169D01*
X154000Y-53306D01*
X154691Y-53169D01*
X155277Y-52777D01*
X155669Y-52191D01*
X155806Y-51500D01*
X155669Y-50809D01*
X155277Y-50223D01*
X154691Y-49831D01*
X154000Y-49694D01*
D02*
G37*
G36*
X257203Y-51960D02*
X256511Y-52097D01*
X255925Y-52489D01*
X255534Y-53075D01*
X255396Y-53766D01*
X255534Y-54457D01*
X255925Y-55044D01*
X256511Y-55435D01*
X257203Y-55573D01*
X257894Y-55435D01*
X258480Y-55044D01*
X258871Y-54457D01*
X259009Y-53766D01*
X258871Y-53075D01*
X258480Y-52489D01*
X257894Y-52097D01*
X257203Y-51960D01*
D02*
G37*
G36*
X76500Y-53194D02*
X75809Y-53331D01*
X75223Y-53723D01*
X74831Y-54309D01*
X74694Y-55000D01*
X74831Y-55691D01*
X75223Y-56277D01*
X75809Y-56669D01*
X76500Y-56806D01*
X77191Y-56669D01*
X77777Y-56277D01*
X78169Y-55691D01*
X78306Y-55000D01*
X78169Y-54309D01*
X77777Y-53723D01*
X77191Y-53331D01*
X76500Y-53194D01*
D02*
G37*
G36*
X131000Y-55694D02*
X130309Y-55831D01*
X129723Y-56223D01*
X129331Y-56809D01*
X129194Y-57500D01*
X129331Y-58191D01*
X129723Y-58777D01*
X130309Y-59169D01*
X131000Y-59306D01*
X131691Y-59169D01*
X132277Y-58777D01*
X132669Y-58191D01*
X132806Y-57500D01*
X132669Y-56809D01*
X132277Y-56223D01*
X131691Y-55831D01*
X131000Y-55694D01*
D02*
G37*
G36*
X190000Y-56694D02*
X189309Y-56831D01*
X188723Y-57223D01*
X188331Y-57809D01*
X188194Y-58500D01*
X188331Y-59191D01*
X188723Y-59777D01*
X189309Y-60169D01*
X190000Y-60306D01*
X190691Y-60169D01*
X191277Y-59777D01*
X191669Y-59191D01*
X191806Y-58500D01*
X191669Y-57809D01*
X191277Y-57223D01*
X190691Y-56831D01*
X190000Y-56694D01*
D02*
G37*
G36*
X170910Y-57371D02*
X170218Y-57508D01*
X169632Y-57900D01*
X169241Y-58486D01*
X169103Y-59177D01*
X169241Y-59869D01*
X169632Y-60455D01*
X170218Y-60846D01*
X170910Y-60984D01*
X171601Y-60846D01*
X172187Y-60455D01*
X172579Y-59869D01*
X172716Y-59177D01*
X172579Y-58486D01*
X172187Y-57900D01*
X171601Y-57508D01*
X170910Y-57371D01*
D02*
G37*
G36*
X274500Y-58194D02*
X273809Y-58331D01*
X273223Y-58723D01*
X272831Y-59309D01*
X272694Y-60000D01*
X272831Y-60691D01*
X273223Y-61277D01*
X273809Y-61669D01*
X274500Y-61806D01*
X275191Y-61669D01*
X275777Y-61277D01*
X276169Y-60691D01*
X276306Y-60000D01*
X276169Y-59309D01*
X275777Y-58723D01*
X275191Y-58331D01*
X274500Y-58194D01*
D02*
G37*
G36*
X109999Y-62041D02*
X109308Y-62178D01*
X108721Y-62570D01*
X108330Y-63156D01*
X108192Y-63847D01*
X108330Y-64538D01*
X108721Y-65124D01*
X109308Y-65516D01*
X109999Y-65654D01*
X110690Y-65516D01*
X111276Y-65124D01*
X111668Y-64538D01*
X111805Y-63847D01*
X111668Y-63156D01*
X111276Y-62570D01*
X110690Y-62178D01*
X109999Y-62041D01*
D02*
G37*
G36*
X286543Y-59957D02*
X279457D01*
Y-67043D01*
X286543D01*
Y-59957D01*
D02*
G37*
G36*
X293000Y-59926D02*
X292075Y-60048D01*
X291213Y-60405D01*
X290473Y-60973D01*
X289905Y-61713D01*
X289548Y-62575D01*
X289426Y-63500D01*
X289548Y-64425D01*
X289905Y-65287D01*
X290473Y-66027D01*
X291213Y-66595D01*
X292075Y-66952D01*
X293000Y-67074D01*
X293925Y-66952D01*
X294787Y-66595D01*
X295527Y-66027D01*
X296095Y-65287D01*
X296452Y-64425D01*
X296574Y-63500D01*
X296452Y-62575D01*
X296095Y-61713D01*
X295527Y-60973D01*
X294787Y-60405D01*
X293925Y-60048D01*
X293000Y-59926D01*
D02*
G37*
G36*
X138827Y-64758D02*
X138136Y-64895D01*
X137550Y-65287D01*
X137158Y-65873D01*
X137021Y-66564D01*
X137158Y-67255D01*
X137550Y-67841D01*
X138136Y-68233D01*
X138827Y-68370D01*
X139518Y-68233D01*
X140104Y-67841D01*
X140496Y-67255D01*
X140633Y-66564D01*
X140496Y-65873D01*
X140104Y-65287D01*
X139518Y-64895D01*
X138827Y-64758D01*
D02*
G37*
G36*
X172000Y-66694D02*
X171309Y-66831D01*
X170723Y-67223D01*
X170331Y-67809D01*
X170194Y-68500D01*
X170331Y-69191D01*
X170723Y-69777D01*
X171309Y-70169D01*
X172000Y-70306D01*
X172691Y-70169D01*
X173277Y-69777D01*
X173669Y-69191D01*
X173806Y-68500D01*
X173669Y-67809D01*
X173277Y-67223D01*
X172691Y-66831D01*
X172000Y-66694D01*
D02*
G37*
G36*
X118000Y-68194D02*
X117309Y-68331D01*
X116723Y-68723D01*
X116331Y-69309D01*
X116194Y-70000D01*
X116331Y-70691D01*
X116723Y-71277D01*
X117309Y-71669D01*
X118000Y-71806D01*
X118691Y-71669D01*
X119277Y-71277D01*
X119669Y-70691D01*
X119806Y-70000D01*
X119669Y-69309D01*
X119277Y-68723D01*
X118691Y-68331D01*
X118000Y-68194D01*
D02*
G37*
G36*
X157000Y-71194D02*
X156309Y-71331D01*
X155723Y-71723D01*
X155331Y-72309D01*
X155194Y-73000D01*
X155331Y-73691D01*
X155723Y-74277D01*
X156309Y-74669D01*
X157000Y-74806D01*
X157691Y-74669D01*
X158277Y-74277D01*
X158669Y-73691D01*
X158806Y-73000D01*
X158669Y-72309D01*
X158277Y-71723D01*
X157691Y-71331D01*
X157000Y-71194D01*
D02*
G37*
G36*
X256000Y-71694D02*
X255309Y-71831D01*
X254723Y-72223D01*
X254331Y-72809D01*
X254194Y-73500D01*
X254331Y-74191D01*
X254723Y-74777D01*
X255309Y-75169D01*
X256000Y-75306D01*
X256691Y-75169D01*
X257277Y-74777D01*
X257669Y-74191D01*
X257806Y-73500D01*
X257669Y-72809D01*
X257277Y-72223D01*
X256691Y-71831D01*
X256000Y-71694D01*
D02*
G37*
G36*
X77500D02*
X76809Y-71831D01*
X76223Y-72223D01*
X75831Y-72809D01*
X75694Y-73500D01*
X75831Y-74191D01*
X76223Y-74777D01*
X76809Y-75169D01*
X77500Y-75306D01*
X78191Y-75169D01*
X78777Y-74777D01*
X79169Y-74191D01*
X79306Y-73500D01*
X79169Y-72809D01*
X78777Y-72223D01*
X78191Y-71831D01*
X77500Y-71694D01*
D02*
G37*
G36*
X23441Y-72125D02*
X22750Y-72262D01*
X22164Y-72654D01*
X21772Y-73240D01*
X21635Y-73931D01*
X21772Y-74622D01*
X22164Y-75208D01*
X22750Y-75600D01*
X23441Y-75737D01*
X24132Y-75600D01*
X24718Y-75208D01*
X25110Y-74622D01*
X25247Y-73931D01*
X25110Y-73240D01*
X24718Y-72654D01*
X24132Y-72262D01*
X23441Y-72125D01*
D02*
G37*
G36*
X129000Y-71694D02*
X128309Y-71831D01*
X127723Y-72223D01*
X127331Y-72809D01*
X127194Y-73500D01*
X127331Y-74191D01*
X127723Y-74777D01*
X128309Y-75169D01*
X129000Y-75306D01*
X129691Y-75169D01*
X129887Y-75038D01*
X130574Y-75165D01*
X130649Y-75277D01*
X131235Y-75669D01*
X131926Y-75806D01*
X132617Y-75669D01*
X133203Y-75277D01*
X133595Y-74691D01*
X133732Y-74000D01*
X133595Y-73309D01*
X133203Y-72723D01*
X132617Y-72331D01*
X131926Y-72194D01*
X131235Y-72331D01*
X130649Y-72723D01*
X130611D01*
X130277Y-72223D01*
X129691Y-71831D01*
X129000Y-71694D01*
D02*
G37*
G36*
X110000Y-72194D02*
X109309Y-72331D01*
X108723Y-72723D01*
X108331Y-73309D01*
X108194Y-74000D01*
X108331Y-74691D01*
X108723Y-75277D01*
X109309Y-75669D01*
X110000Y-75806D01*
X110691Y-75669D01*
X111277Y-75277D01*
X111669Y-74691D01*
X111806Y-74000D01*
X111669Y-73309D01*
X111277Y-72723D01*
X110691Y-72331D01*
X110000Y-72194D01*
D02*
G37*
G36*
X137500Y-73016D02*
X136809Y-73153D01*
X136223Y-73545D01*
X135831Y-74131D01*
X135694Y-74822D01*
X135831Y-75513D01*
X136223Y-76099D01*
X136809Y-76491D01*
X137500Y-76628D01*
X138191Y-76491D01*
X138777Y-76099D01*
X139169Y-75513D01*
X139306Y-74822D01*
X139169Y-74131D01*
X138777Y-73545D01*
X138191Y-73153D01*
X137500Y-73016D01*
D02*
G37*
G36*
X162000Y-73194D02*
X161309Y-73331D01*
X160723Y-73723D01*
X160331Y-74309D01*
X160194Y-75000D01*
X160331Y-75691D01*
X160723Y-76277D01*
X161309Y-76669D01*
X162000Y-76806D01*
X162691Y-76669D01*
X163277Y-76277D01*
X163669Y-75691D01*
X163806Y-75000D01*
X163669Y-74309D01*
X163277Y-73723D01*
X162691Y-73331D01*
X162000Y-73194D01*
D02*
G37*
G36*
X283000Y-69926D02*
X282075Y-70048D01*
X281213Y-70405D01*
X280473Y-70973D01*
X279905Y-71713D01*
X279548Y-72575D01*
X279426Y-73500D01*
X279548Y-74425D01*
X279905Y-75287D01*
X280473Y-76027D01*
X281213Y-76595D01*
X282075Y-76952D01*
X283000Y-77074D01*
X283925Y-76952D01*
X284787Y-76595D01*
X285527Y-76027D01*
X286095Y-75287D01*
X286452Y-74425D01*
X286574Y-73500D01*
X286452Y-72575D01*
X286095Y-71713D01*
X285527Y-70973D01*
X284787Y-70405D01*
X283925Y-70048D01*
X283000Y-69926D01*
D02*
G37*
G36*
X190000Y-76194D02*
X189309Y-76331D01*
X188723Y-76723D01*
X188331Y-77309D01*
X188194Y-78000D01*
X188331Y-78691D01*
X188723Y-79277D01*
X189309Y-79669D01*
X190000Y-79806D01*
X190691Y-79669D01*
X191277Y-79277D01*
X191669Y-78691D01*
X191806Y-78000D01*
X191669Y-77309D01*
X191277Y-76723D01*
X190691Y-76331D01*
X190000Y-76194D01*
D02*
G37*
G36*
X76500D02*
X75809Y-76331D01*
X75223Y-76723D01*
X74831Y-77309D01*
X74694Y-78000D01*
X74831Y-78691D01*
X75223Y-79277D01*
X75809Y-79669D01*
X76500Y-79806D01*
X77191Y-79669D01*
X77777Y-79277D01*
X78169Y-78691D01*
X78306Y-78000D01*
X78169Y-77309D01*
X77777Y-76723D01*
X77191Y-76331D01*
X76500Y-76194D01*
D02*
G37*
G36*
X256000Y-76694D02*
X255309Y-76831D01*
X254723Y-77223D01*
X254331Y-77809D01*
X254194Y-78500D01*
X254331Y-79191D01*
X254723Y-79777D01*
X255309Y-80169D01*
X256000Y-80306D01*
X256691Y-80169D01*
X257277Y-79777D01*
X257669Y-79191D01*
X257806Y-78500D01*
X257669Y-77809D01*
X257277Y-77223D01*
X256691Y-76831D01*
X256000Y-76694D01*
D02*
G37*
G36*
X174000Y-78694D02*
X173309Y-78831D01*
X172723Y-79223D01*
X172331Y-79809D01*
X172194Y-80500D01*
X172331Y-81191D01*
X172723Y-81777D01*
X173309Y-82169D01*
X174000Y-82306D01*
X174691Y-82169D01*
X175277Y-81777D01*
X175669Y-81191D01*
X175806Y-80500D01*
X175669Y-79809D01*
X175277Y-79223D01*
X174691Y-78831D01*
X174000Y-78694D01*
D02*
G37*
G36*
X150500Y-79694D02*
X149809Y-79831D01*
X149223Y-80223D01*
X148831Y-80809D01*
X148694Y-81500D01*
X148831Y-82191D01*
X149223Y-82777D01*
X149809Y-83169D01*
X150500Y-83306D01*
X151191Y-83169D01*
X151777Y-82777D01*
X152169Y-82191D01*
X152306Y-81500D01*
X152169Y-80809D01*
X151777Y-80223D01*
X151191Y-79831D01*
X150500Y-79694D01*
D02*
G37*
G36*
X263500Y-58320D02*
X262806Y-58411D01*
X262160Y-58679D01*
X261605Y-59105D01*
X261179Y-59660D01*
X260911Y-60306D01*
X260820Y-61000D01*
X260911Y-61694D01*
X261179Y-62340D01*
X261605Y-62895D01*
X262004Y-63202D01*
X262043Y-63321D01*
Y-63679D01*
X262004Y-63798D01*
X261605Y-64105D01*
X261179Y-64660D01*
X260911Y-65306D01*
X260820Y-66000D01*
X260911Y-66694D01*
X261179Y-67340D01*
X261605Y-67895D01*
X262004Y-68202D01*
X262043Y-68321D01*
Y-68679D01*
X262004Y-68798D01*
X261605Y-69105D01*
X261179Y-69660D01*
X260911Y-70306D01*
X260820Y-71000D01*
X260911Y-71694D01*
X261179Y-72340D01*
X261605Y-72895D01*
X262004Y-73202D01*
X262043Y-73321D01*
Y-73679D01*
X262004Y-73798D01*
X261605Y-74105D01*
X261179Y-74660D01*
X260911Y-75306D01*
X260820Y-76000D01*
X260911Y-76694D01*
X261179Y-77340D01*
X261605Y-77895D01*
X262004Y-78202D01*
X262043Y-78321D01*
Y-78679D01*
X262004Y-78798D01*
X261605Y-79105D01*
X261179Y-79660D01*
X260911Y-80306D01*
X260820Y-81000D01*
X260911Y-81694D01*
X261179Y-82340D01*
X261605Y-82895D01*
X262160Y-83321D01*
X262806Y-83589D01*
X263500Y-83680D01*
X264194Y-83589D01*
X264840Y-83321D01*
X265395Y-82895D01*
X265494Y-82767D01*
X265517Y-82759D01*
X266084Y-82819D01*
X266323Y-83177D01*
X266893Y-83557D01*
X267565Y-83691D01*
X269435D01*
X270107Y-83557D01*
X270677Y-83177D01*
X271058Y-82607D01*
X271191Y-81935D01*
Y-80065D01*
X271058Y-79393D01*
X270677Y-78823D01*
X270107Y-78443D01*
X269435Y-78309D01*
X267565D01*
X266893Y-78443D01*
X266323Y-78823D01*
X266084Y-79181D01*
X265517Y-79241D01*
X265494Y-79233D01*
X265395Y-79105D01*
X264996Y-78798D01*
X264957Y-78679D01*
Y-78321D01*
X264996Y-78202D01*
X265395Y-77895D01*
X265821Y-77340D01*
X266089Y-76694D01*
X266180Y-76000D01*
X266089Y-75306D01*
X265821Y-74660D01*
X265395Y-74105D01*
X264996Y-73798D01*
X264957Y-73679D01*
Y-73321D01*
X264996Y-73202D01*
X265395Y-72895D01*
X265821Y-72340D01*
X266089Y-71694D01*
X266180Y-71000D01*
X266089Y-70306D01*
X265821Y-69660D01*
X265395Y-69105D01*
X264996Y-68798D01*
X264957Y-68679D01*
Y-68321D01*
X264996Y-68202D01*
X265395Y-67895D01*
X265821Y-67340D01*
X266089Y-66694D01*
X266180Y-66000D01*
X266089Y-65306D01*
X265821Y-64660D01*
X265395Y-64105D01*
X264996Y-63798D01*
X264957Y-63679D01*
Y-63321D01*
X264996Y-63202D01*
X265395Y-62895D01*
X265821Y-62340D01*
X266089Y-61694D01*
X266180Y-61000D01*
X266089Y-60306D01*
X265821Y-59660D01*
X265395Y-59105D01*
X264840Y-58679D01*
X264194Y-58411D01*
X263500Y-58320D01*
D02*
G37*
G36*
X108000Y-82694D02*
X107309Y-82831D01*
X106723Y-83223D01*
X106331Y-83809D01*
X106194Y-84500D01*
X106331Y-85191D01*
X106723Y-85777D01*
X107309Y-86169D01*
X108000Y-86306D01*
X108691Y-86169D01*
X109277Y-85777D01*
X109669Y-85191D01*
X109806Y-84500D01*
X109669Y-83809D01*
X109277Y-83223D01*
X108691Y-82831D01*
X108000Y-82694D01*
D02*
G37*
G36*
X274500Y-83194D02*
X273809Y-83331D01*
X273223Y-83723D01*
X272831Y-84309D01*
X272694Y-85000D01*
X272831Y-85691D01*
X273223Y-86277D01*
X273809Y-86669D01*
X274500Y-86806D01*
X275191Y-86669D01*
X275777Y-86277D01*
X276169Y-85691D01*
X276306Y-85000D01*
X276169Y-84309D01*
X275777Y-83723D01*
X275191Y-83331D01*
X274500Y-83194D01*
D02*
G37*
G36*
X135000D02*
X134309Y-83331D01*
X133723Y-83723D01*
X133331Y-84309D01*
X133194Y-85000D01*
X133331Y-85691D01*
X133723Y-86277D01*
X134309Y-86669D01*
X135000Y-86806D01*
X135691Y-86669D01*
X136277Y-86277D01*
X136669Y-85691D01*
X136806Y-85000D01*
X136669Y-84309D01*
X136277Y-83723D01*
X135691Y-83331D01*
X135000Y-83194D01*
D02*
G37*
G36*
X293000Y-79926D02*
X292075Y-80048D01*
X291213Y-80405D01*
X290473Y-80973D01*
X289905Y-81713D01*
X289548Y-82575D01*
X289426Y-83500D01*
X289548Y-84425D01*
X289905Y-85287D01*
X290473Y-86027D01*
X291213Y-86595D01*
X292075Y-86952D01*
X293000Y-87074D01*
X293925Y-86952D01*
X294787Y-86595D01*
X295527Y-86027D01*
X296095Y-85287D01*
X296452Y-84425D01*
X296574Y-83500D01*
X296452Y-82575D01*
X296095Y-81713D01*
X295527Y-80973D01*
X294787Y-80405D01*
X293925Y-80048D01*
X293000Y-79926D01*
D02*
G37*
G36*
X283000D02*
X282075Y-80048D01*
X281213Y-80405D01*
X280473Y-80973D01*
X279905Y-81713D01*
X279548Y-82575D01*
X279426Y-83500D01*
X279548Y-84425D01*
X279905Y-85287D01*
X280473Y-86027D01*
X281213Y-86595D01*
X282075Y-86952D01*
X283000Y-87074D01*
X283925Y-86952D01*
X284787Y-86595D01*
X285527Y-86027D01*
X286095Y-85287D01*
X286452Y-84425D01*
X286574Y-83500D01*
X286452Y-82575D01*
X286095Y-81713D01*
X285527Y-80973D01*
X284787Y-80405D01*
X283925Y-80048D01*
X283000Y-79926D01*
D02*
G37*
G36*
X143161Y-83694D02*
X142470Y-83831D01*
X141884Y-84223D01*
X141493Y-84809D01*
X141355Y-85500D01*
X141493Y-86191D01*
X141884Y-86777D01*
X142470Y-87169D01*
X143161Y-87306D01*
X143853Y-87169D01*
X144439Y-86777D01*
X144830Y-86191D01*
X144968Y-85500D01*
X144830Y-84809D01*
X144439Y-84223D01*
X143853Y-83831D01*
X143161Y-83694D01*
D02*
G37*
G36*
X242500Y-84194D02*
X241809Y-84331D01*
X241223Y-84723D01*
X240831Y-85309D01*
X240694Y-86000D01*
X240831Y-86691D01*
X241223Y-87277D01*
X241809Y-87669D01*
X242500Y-87806D01*
X243191Y-87669D01*
X243777Y-87277D01*
X244169Y-86691D01*
X244306Y-86000D01*
X244169Y-85309D01*
X243777Y-84723D01*
X243191Y-84331D01*
X242500Y-84194D01*
D02*
G37*
G36*
X418500Y-86194D02*
X417809Y-86331D01*
X417223Y-86723D01*
X416831Y-87309D01*
X416694Y-88000D01*
X416831Y-88691D01*
X417223Y-89277D01*
X417809Y-89669D01*
X418500Y-89806D01*
X419191Y-89669D01*
X419777Y-89277D01*
X420169Y-88691D01*
X420306Y-88000D01*
X420169Y-87309D01*
X419777Y-86723D01*
X419191Y-86331D01*
X418500Y-86194D01*
D02*
G37*
G36*
X170000D02*
X169309Y-86331D01*
X168723Y-86723D01*
X168331Y-87309D01*
X168194Y-88000D01*
X168331Y-88691D01*
X168723Y-89277D01*
X169309Y-89669D01*
X170000Y-89806D01*
X170691Y-89669D01*
X171277Y-89277D01*
X171669Y-88691D01*
X171806Y-88000D01*
X171669Y-87309D01*
X171277Y-86723D01*
X170691Y-86331D01*
X170000Y-86194D01*
D02*
G37*
G36*
X75500Y-87194D02*
X74809Y-87331D01*
X74223Y-87723D01*
X73831Y-88309D01*
X73694Y-89000D01*
X73831Y-89691D01*
X74223Y-90277D01*
X74809Y-90669D01*
X75500Y-90806D01*
X76191Y-90669D01*
X76777Y-90277D01*
X77169Y-89691D01*
X77306Y-89000D01*
X77169Y-88309D01*
X76777Y-87723D01*
X76191Y-87331D01*
X75500Y-87194D01*
D02*
G37*
G36*
X68500D02*
X67809Y-87331D01*
X67223Y-87723D01*
X66831Y-88309D01*
X66694Y-89000D01*
X66831Y-89691D01*
X67223Y-90277D01*
X67809Y-90669D01*
X68500Y-90806D01*
X69191Y-90669D01*
X69777Y-90277D01*
X70169Y-89691D01*
X70306Y-89000D01*
X70169Y-88309D01*
X69777Y-87723D01*
X69191Y-87331D01*
X68500Y-87194D01*
D02*
G37*
G36*
X62000D02*
X61309Y-87331D01*
X60723Y-87723D01*
X60331Y-88309D01*
X60194Y-89000D01*
X60331Y-89691D01*
X60723Y-90277D01*
X61309Y-90669D01*
X62000Y-90806D01*
X62691Y-90669D01*
X63277Y-90277D01*
X63669Y-89691D01*
X63806Y-89000D01*
X63669Y-88309D01*
X63277Y-87723D01*
X62691Y-87331D01*
X62000Y-87194D01*
D02*
G37*
G36*
X55279D02*
X54588Y-87331D01*
X54002Y-87723D01*
X53611Y-88309D01*
X53473Y-89000D01*
X53611Y-89691D01*
X54002Y-90277D01*
X54588Y-90669D01*
X55279Y-90806D01*
X55971Y-90669D01*
X56557Y-90277D01*
X56948Y-89691D01*
X57086Y-89000D01*
X56948Y-88309D01*
X56557Y-87723D01*
X55971Y-87331D01*
X55279Y-87194D01*
D02*
G37*
G36*
X14874Y-90391D02*
X14182Y-90529D01*
X13596Y-90921D01*
X13205Y-91507D01*
X13201Y-91525D01*
X12667Y-91649D01*
X12191Y-91331D01*
X11500Y-91194D01*
X10809Y-91331D01*
X10223Y-91723D01*
X10125Y-91870D01*
X9594Y-91764D01*
X9542Y-91507D01*
X9151Y-90921D01*
X8565Y-90529D01*
X7874Y-90391D01*
X7182Y-90529D01*
X6596Y-90921D01*
X6205Y-91507D01*
X6067Y-92198D01*
X6205Y-92889D01*
X6596Y-93475D01*
X7182Y-93867D01*
X7446Y-93919D01*
X7596Y-94421D01*
X7205Y-95007D01*
X7067Y-95698D01*
X7205Y-96389D01*
X7596Y-96975D01*
X8182Y-97367D01*
X8874Y-97504D01*
X9565Y-97367D01*
X10151Y-96975D01*
X10542Y-96389D01*
X10680Y-95698D01*
X10559Y-95090D01*
X10640Y-94954D01*
X10718Y-94867D01*
X10935Y-94694D01*
X11282Y-94763D01*
X11531Y-94907D01*
X11649Y-95287D01*
X11567Y-95698D01*
X11705Y-96389D01*
X12096Y-96975D01*
X12682Y-97367D01*
X13374Y-97504D01*
X14065Y-97367D01*
X14651Y-96975D01*
X15042Y-96389D01*
X15180Y-95698D01*
X15042Y-95007D01*
X14689Y-94477D01*
X14779Y-94214D01*
X14915Y-93996D01*
X15565Y-93867D01*
X16151Y-93475D01*
X16542Y-92889D01*
X16680Y-92198D01*
X16542Y-91507D01*
X16151Y-90921D01*
X15565Y-90529D01*
X14874Y-90391D01*
D02*
G37*
G36*
X256000Y-88194D02*
X255309Y-88331D01*
X254723Y-88723D01*
X254331Y-89309D01*
X254194Y-90000D01*
X254331Y-90691D01*
X254723Y-91277D01*
X255309Y-91669D01*
X256000Y-91806D01*
X256691Y-91669D01*
X257277Y-91277D01*
X257669Y-90691D01*
X257713Y-90471D01*
X257715Y-90460D01*
X258194Y-90500D01*
X258201Y-90534D01*
X258331Y-91191D01*
X258723Y-91777D01*
X259309Y-92169D01*
X260000Y-92306D01*
X260691Y-92169D01*
X261277Y-91777D01*
X261669Y-91191D01*
X261806Y-90500D01*
X261669Y-89809D01*
X261277Y-89223D01*
X260691Y-88831D01*
X260000Y-88694D01*
X259309Y-88831D01*
X258723Y-89223D01*
X258331Y-89809D01*
X258287Y-90029D01*
X258285Y-90040D01*
X257806Y-90000D01*
X257800Y-89966D01*
X257669Y-89309D01*
X257277Y-88723D01*
X256691Y-88331D01*
X256000Y-88194D01*
D02*
G37*
G36*
X198500Y-88694D02*
X197809Y-88831D01*
X197223Y-89223D01*
X196831Y-89809D01*
X196694Y-90500D01*
X196831Y-91191D01*
X197223Y-91777D01*
X197809Y-92169D01*
X198500Y-92306D01*
X199191Y-92169D01*
X199777Y-91777D01*
X200169Y-91191D01*
X200306Y-90500D01*
X200169Y-89809D01*
X199777Y-89223D01*
X199191Y-88831D01*
X198500Y-88694D01*
D02*
G37*
G36*
X224000Y-91694D02*
X223309Y-91831D01*
X222723Y-92223D01*
X222331Y-92809D01*
X222194Y-93500D01*
X222331Y-94191D01*
X222723Y-94777D01*
X223309Y-95169D01*
X224000Y-95306D01*
X224691Y-95169D01*
X225277Y-94777D01*
X225669Y-94191D01*
X225806Y-93500D01*
X225669Y-92809D01*
X225277Y-92223D01*
X224691Y-91831D01*
X224000Y-91694D01*
D02*
G37*
G36*
X75500Y-93194D02*
X74809Y-93331D01*
X74223Y-93723D01*
X73831Y-94309D01*
X73694Y-95000D01*
X73831Y-95691D01*
X74223Y-96277D01*
X74809Y-96669D01*
X75500Y-96806D01*
X76191Y-96669D01*
X76777Y-96277D01*
X77169Y-95691D01*
X77306Y-95000D01*
X77169Y-94309D01*
X76777Y-93723D01*
X76191Y-93331D01*
X75500Y-93194D01*
D02*
G37*
G36*
X165500Y-94194D02*
X164809Y-94331D01*
X164223Y-94723D01*
X163831Y-95309D01*
X163694Y-96000D01*
X163831Y-96691D01*
X164223Y-97277D01*
X164809Y-97669D01*
X165500Y-97806D01*
X166191Y-97669D01*
X166777Y-97277D01*
X167169Y-96691D01*
X167306Y-96000D01*
X167169Y-95309D01*
X166777Y-94723D01*
X166191Y-94331D01*
X165500Y-94194D01*
D02*
G37*
G36*
X337114Y-89417D02*
X317626D01*
Y-97882D01*
X337114D01*
Y-89417D01*
D02*
G37*
G36*
X409500Y-94694D02*
X408809Y-94831D01*
X408223Y-95223D01*
X407831Y-95809D01*
X407694Y-96500D01*
X407831Y-97191D01*
X408223Y-97777D01*
X408809Y-98169D01*
X409500Y-98306D01*
X410191Y-98169D01*
X410777Y-97777D01*
X411169Y-97191D01*
X411306Y-96500D01*
X411169Y-95809D01*
X410777Y-95223D01*
X410191Y-94831D01*
X409500Y-94694D01*
D02*
G37*
G36*
X143063Y-89175D02*
X142372Y-89313D01*
X141786Y-89704D01*
X141394Y-90290D01*
X141257Y-90981D01*
X141394Y-91673D01*
X141786Y-92259D01*
X142372Y-92650D01*
X142794Y-92734D01*
X143084Y-92895D01*
X143157Y-93277D01*
X143081Y-93661D01*
X143218Y-94352D01*
X143610Y-94938D01*
X144196Y-95329D01*
X144887Y-95467D01*
X145241Y-95397D01*
X145436Y-95868D01*
X145326Y-95941D01*
X144934Y-96527D01*
X144797Y-97218D01*
X144934Y-97910D01*
X145326Y-98496D01*
X145912Y-98887D01*
X146603Y-99025D01*
X147295Y-98887D01*
X147881Y-98496D01*
X148272Y-97910D01*
X148410Y-97218D01*
X148323Y-96781D01*
X148461Y-96411D01*
X148692Y-96268D01*
X149191Y-96169D01*
X149777Y-95777D01*
X150169Y-95191D01*
X150306Y-94500D01*
X150169Y-93809D01*
X149777Y-93223D01*
X149191Y-92831D01*
X148500Y-92694D01*
X147809Y-92831D01*
X147223Y-93223D01*
X147141Y-93345D01*
X146610Y-93240D01*
X146556Y-92969D01*
X146165Y-92383D01*
X145579Y-91992D01*
X145156Y-91908D01*
X144867Y-91747D01*
X144793Y-91365D01*
X144870Y-90981D01*
X144732Y-90290D01*
X144341Y-89704D01*
X143755Y-89313D01*
X143063Y-89175D01*
D02*
G37*
G36*
X132774Y-95661D02*
X132082Y-95798D01*
X131496Y-96190D01*
X131105Y-96776D01*
X130967Y-97467D01*
X131105Y-98158D01*
X131496Y-98744D01*
X132082Y-99136D01*
X132774Y-99273D01*
X133465Y-99136D01*
X134051Y-98744D01*
X134442Y-98158D01*
X134580Y-97467D01*
X134442Y-96776D01*
X134051Y-96190D01*
X133465Y-95798D01*
X132774Y-95661D01*
D02*
G37*
G36*
X108000Y-95694D02*
X107309Y-95831D01*
X106723Y-96223D01*
X106331Y-96809D01*
X106194Y-97500D01*
X106331Y-98191D01*
X106723Y-98777D01*
X107309Y-99169D01*
X108000Y-99306D01*
X108691Y-99169D01*
X109277Y-98777D01*
X109669Y-98191D01*
X109806Y-97500D01*
X109669Y-96809D01*
X109277Y-96223D01*
X108691Y-95831D01*
X108000Y-95694D01*
D02*
G37*
G36*
X137894Y-99300D02*
X137202Y-99437D01*
X136616Y-99829D01*
X136225Y-100415D01*
X136163Y-100726D01*
X136000Y-100694D01*
X135309Y-100831D01*
X134723Y-101223D01*
X134331Y-101809D01*
X134194Y-102500D01*
X134331Y-103191D01*
X134723Y-103777D01*
X135309Y-104169D01*
X136000Y-104306D01*
X136118Y-104283D01*
X136239Y-104892D01*
X136631Y-105478D01*
X137217Y-105870D01*
X137908Y-106007D01*
X138600Y-105870D01*
X139186Y-105478D01*
X139577Y-104892D01*
X139715Y-104201D01*
X139577Y-103509D01*
X139209Y-102959D01*
X139148Y-102808D01*
Y-102399D01*
X139171Y-102384D01*
X139563Y-101798D01*
X139700Y-101106D01*
X139563Y-100415D01*
X139171Y-99829D01*
X138585Y-99437D01*
X137894Y-99300D01*
D02*
G37*
G36*
X114000Y-97194D02*
X113309Y-97331D01*
X112723Y-97723D01*
X112331Y-98309D01*
X112194Y-99000D01*
X112331Y-99691D01*
X112723Y-100277D01*
X113309Y-100669D01*
X114000Y-100806D01*
X114691Y-100669D01*
X115277Y-100277D01*
X115669Y-99691D01*
X115806Y-99000D01*
X115669Y-98309D01*
X115277Y-97723D01*
X114691Y-97331D01*
X114000Y-97194D01*
D02*
G37*
G36*
X123000Y-99694D02*
X122309Y-99831D01*
X121723Y-100223D01*
X121331Y-100809D01*
X121255Y-101192D01*
X120745D01*
X120669Y-100809D01*
X120277Y-100223D01*
X119691Y-99831D01*
X119000Y-99694D01*
X118309Y-99831D01*
X117723Y-100223D01*
X117331Y-100809D01*
X117194Y-101500D01*
X117331Y-102191D01*
X117723Y-102777D01*
X118309Y-103169D01*
X119000Y-103306D01*
X119691Y-103169D01*
X120277Y-102777D01*
X120669Y-102191D01*
X120745Y-101808D01*
X121255D01*
X121331Y-102191D01*
X121723Y-102777D01*
X122309Y-103169D01*
X123000Y-103306D01*
X123691Y-103169D01*
X124277Y-102777D01*
X124669Y-102191D01*
X124806Y-101500D01*
X124669Y-100809D01*
X124277Y-100223D01*
X123691Y-99831D01*
X123000Y-99694D01*
D02*
G37*
G36*
X169500Y-99194D02*
X168809Y-99331D01*
X168223Y-99723D01*
X167831Y-100309D01*
X167694Y-101000D01*
X167831Y-101691D01*
X168223Y-102277D01*
X168809Y-102669D01*
X169500Y-102806D01*
X170191Y-102669D01*
X170777Y-102277D01*
X171169Y-101691D01*
X171306Y-101000D01*
X171169Y-100309D01*
X170777Y-99723D01*
X170191Y-99331D01*
X169500Y-99194D01*
D02*
G37*
G36*
X74000Y-99694D02*
X73309Y-99831D01*
X72723Y-100223D01*
X72331Y-100809D01*
X72194Y-101500D01*
X72331Y-102191D01*
X72723Y-102777D01*
X73309Y-103169D01*
X74000Y-103306D01*
X74691Y-103169D01*
X75277Y-102777D01*
X75669Y-102191D01*
X75806Y-101500D01*
X75669Y-100809D01*
X75277Y-100223D01*
X74691Y-99831D01*
X74000Y-99694D01*
D02*
G37*
G36*
X101000Y-101194D02*
X100309Y-101331D01*
X99723Y-101723D01*
X99331Y-102309D01*
X99194Y-103000D01*
X99255Y-103308D01*
X98830Y-103733D01*
X98467Y-103661D01*
X97776Y-103799D01*
X97190Y-104190D01*
X96799Y-104776D01*
X96661Y-105467D01*
X96799Y-106159D01*
X97190Y-106745D01*
X97776Y-107136D01*
X98467Y-107274D01*
X99159Y-107136D01*
X99745Y-106745D01*
X100136Y-106159D01*
X100274Y-105467D01*
X100213Y-105159D01*
X100638Y-104734D01*
X101000Y-104806D01*
X101191Y-104768D01*
X101661Y-104967D01*
X101695Y-105139D01*
X101799Y-105659D01*
X102190Y-106245D01*
X102776Y-106636D01*
X103468Y-106774D01*
X104159Y-106636D01*
X104745Y-106245D01*
X105136Y-105659D01*
X105274Y-104967D01*
X105136Y-104276D01*
X104745Y-103690D01*
X104159Y-103299D01*
X103468Y-103161D01*
X103277Y-103199D01*
X102806Y-103000D01*
X102772Y-102829D01*
X102669Y-102309D01*
X102277Y-101723D01*
X101691Y-101331D01*
X101000Y-101194D01*
D02*
G37*
G36*
X55567Y-100626D02*
X54876Y-100764D01*
X54290Y-101155D01*
X53898Y-101741D01*
X53761Y-102433D01*
X53898Y-103124D01*
X54290Y-103710D01*
X54876Y-104102D01*
X55567Y-104239D01*
X56259Y-104102D01*
X56845Y-103710D01*
X57236Y-103124D01*
X57374Y-102433D01*
X57236Y-101741D01*
X56845Y-101155D01*
X56259Y-100764D01*
X55567Y-100626D01*
D02*
G37*
G36*
X129291Y-99300D02*
X128600Y-99437D01*
X128014Y-99829D01*
X127622Y-100415D01*
X127485Y-101106D01*
X127622Y-101798D01*
X128014Y-102384D01*
Y-102790D01*
X127814Y-102924D01*
X127423Y-103509D01*
X127285Y-104201D01*
X127423Y-104892D01*
X127814Y-105478D01*
X128401Y-105870D01*
X129092Y-106007D01*
X129783Y-105870D01*
X130369Y-105478D01*
X130761Y-104892D01*
X130882Y-104283D01*
X131000Y-104306D01*
X131691Y-104169D01*
X132277Y-103777D01*
X132669Y-103191D01*
X132806Y-102500D01*
X132669Y-101809D01*
X132277Y-101223D01*
X131691Y-100831D01*
X131016Y-100697D01*
X130960Y-100415D01*
X130569Y-99829D01*
X129983Y-99437D01*
X129291Y-99300D01*
D02*
G37*
G36*
X66000Y-100694D02*
X65309Y-100831D01*
X64723Y-101223D01*
X64331Y-101809D01*
X64194Y-102500D01*
X64331Y-103191D01*
X64723Y-103777D01*
X65309Y-104169D01*
X66000Y-104306D01*
X66691Y-104169D01*
X67277Y-103777D01*
X67669Y-103191D01*
X67806Y-102500D01*
X67669Y-101809D01*
X67277Y-101223D01*
X66691Y-100831D01*
X66000Y-100694D01*
D02*
G37*
G36*
X26500Y-101194D02*
X25809Y-101331D01*
X25223Y-101723D01*
X24831Y-102309D01*
X24694Y-103000D01*
X24831Y-103691D01*
X25223Y-104277D01*
X25809Y-104669D01*
X26500Y-104806D01*
X27191Y-104669D01*
X27777Y-104277D01*
X28169Y-103691D01*
X28306Y-103000D01*
X28169Y-102309D01*
X27777Y-101723D01*
X27191Y-101331D01*
X26500Y-101194D01*
D02*
G37*
G36*
X400000Y-101694D02*
X399309Y-101831D01*
X398723Y-102223D01*
X398331Y-102809D01*
X398194Y-103500D01*
X398331Y-104191D01*
X398723Y-104777D01*
X399309Y-105169D01*
X400000Y-105306D01*
X400691Y-105169D01*
X401277Y-104777D01*
X401669Y-104191D01*
X401806Y-103500D01*
X401669Y-102809D01*
X401277Y-102223D01*
X400691Y-101831D01*
X400000Y-101694D01*
D02*
G37*
G36*
X255000D02*
X254309Y-101831D01*
X253723Y-102223D01*
X253331Y-102809D01*
X253194Y-103500D01*
X253331Y-104191D01*
X253723Y-104777D01*
X254309Y-105169D01*
X255000Y-105306D01*
X255691Y-105169D01*
X256277Y-104777D01*
X256669Y-104191D01*
X256806Y-103500D01*
X256669Y-102809D01*
X256277Y-102223D01*
X255691Y-101831D01*
X255000Y-101694D01*
D02*
G37*
G36*
X144258Y-101733D02*
X143567Y-101871D01*
X142981Y-102262D01*
X142589Y-102848D01*
X142452Y-103539D01*
X142589Y-104231D01*
X142981Y-104817D01*
X143567Y-105208D01*
X144258Y-105346D01*
X144949Y-105208D01*
X145535Y-104817D01*
X145927Y-104231D01*
X146064Y-103539D01*
X145927Y-102848D01*
X145535Y-102262D01*
X144949Y-101871D01*
X144258Y-101733D01*
D02*
G37*
G36*
X153500Y-102694D02*
X152809Y-102831D01*
X152223Y-103223D01*
X151831Y-103809D01*
X151694Y-104500D01*
X151831Y-105191D01*
X152223Y-105777D01*
X152809Y-106169D01*
X153500Y-106306D01*
X154191Y-106169D01*
X154777Y-105777D01*
X155169Y-105191D01*
X155306Y-104500D01*
X155169Y-103809D01*
X154777Y-103223D01*
X154191Y-102831D01*
X153500Y-102694D01*
D02*
G37*
G36*
X214500Y-103194D02*
X213809Y-103331D01*
X213223Y-103723D01*
X212831Y-104309D01*
X212694Y-105000D01*
X212831Y-105691D01*
X213223Y-106277D01*
X213809Y-106669D01*
X214500Y-106806D01*
X215191Y-106669D01*
X215777Y-106277D01*
X216169Y-105691D01*
X216306Y-105000D01*
X216169Y-104309D01*
X215777Y-103723D01*
X215191Y-103331D01*
X214500Y-103194D01*
D02*
G37*
G36*
X203500D02*
X202809Y-103331D01*
X202223Y-103723D01*
X201831Y-104309D01*
X201694Y-105000D01*
X201831Y-105691D01*
X202223Y-106277D01*
X202809Y-106669D01*
X203500Y-106806D01*
X204191Y-106669D01*
X204777Y-106277D01*
X205169Y-105691D01*
X205306Y-105000D01*
X205169Y-104309D01*
X204777Y-103723D01*
X204191Y-103331D01*
X203500Y-103194D01*
D02*
G37*
G36*
X248000Y-104194D02*
X247309Y-104331D01*
X246723Y-104723D01*
X246331Y-105309D01*
X246194Y-106000D01*
X246331Y-106691D01*
X246723Y-107277D01*
X247309Y-107669D01*
X248000Y-107806D01*
X248691Y-107669D01*
X249277Y-107277D01*
X249669Y-106691D01*
X249806Y-106000D01*
X249669Y-105309D01*
X249277Y-104723D01*
X248691Y-104331D01*
X248000Y-104194D01*
D02*
G37*
G36*
X188500D02*
X187809Y-104331D01*
X187223Y-104723D01*
X186831Y-105309D01*
X186694Y-106000D01*
X186831Y-106691D01*
X187223Y-107277D01*
X187809Y-107669D01*
X188500Y-107806D01*
X189191Y-107669D01*
X189777Y-107277D01*
X190169Y-106691D01*
X190306Y-106000D01*
X190169Y-105309D01*
X189777Y-104723D01*
X189191Y-104331D01*
X188500Y-104194D01*
D02*
G37*
G36*
X405500Y-104694D02*
X404809Y-104831D01*
X404223Y-105223D01*
X403831Y-105809D01*
X403694Y-106500D01*
X403831Y-107191D01*
X404223Y-107777D01*
X404809Y-108169D01*
X405500Y-108306D01*
X406191Y-108169D01*
X406777Y-107777D01*
X407169Y-107191D01*
X407306Y-106500D01*
X407169Y-105809D01*
X406777Y-105223D01*
X406191Y-104831D01*
X405500Y-104694D01*
D02*
G37*
G36*
X218500D02*
X217809Y-104831D01*
X217223Y-105223D01*
X216831Y-105809D01*
X216694Y-106500D01*
X216831Y-107191D01*
X217223Y-107777D01*
X217809Y-108169D01*
X218500Y-108306D01*
X219191Y-108169D01*
X219777Y-107777D01*
X220169Y-107191D01*
X220306Y-106500D01*
X220169Y-105809D01*
X219777Y-105223D01*
X219191Y-104831D01*
X218500Y-104694D01*
D02*
G37*
G36*
X103000Y-107694D02*
X102309Y-107831D01*
X101723Y-108223D01*
X101331Y-108809D01*
X101255Y-109192D01*
X100745D01*
X100669Y-108809D01*
X100277Y-108223D01*
X99691Y-107831D01*
X99000Y-107694D01*
X98309Y-107831D01*
X97723Y-108223D01*
X97331Y-108809D01*
X97194Y-109500D01*
X97331Y-110191D01*
X97723Y-110777D01*
X98309Y-111169D01*
X99000Y-111306D01*
X99691Y-111169D01*
X100277Y-110777D01*
X100669Y-110191D01*
X100745Y-109808D01*
X101255D01*
X101331Y-110191D01*
X101723Y-110777D01*
X102309Y-111169D01*
X103000Y-111306D01*
X103691Y-111169D01*
X104277Y-110777D01*
X104669Y-110191D01*
X104806Y-109500D01*
X104669Y-108809D01*
X104277Y-108223D01*
X103691Y-107831D01*
X103000Y-107694D01*
D02*
G37*
G36*
X37000Y-106194D02*
X36309Y-106331D01*
X35723Y-106723D01*
X35331Y-107309D01*
X35194Y-108000D01*
X35331Y-108691D01*
X35723Y-109277D01*
X36309Y-109669D01*
X37000Y-109806D01*
X37691Y-109669D01*
X38277Y-109277D01*
X38669Y-108691D01*
X38806Y-108000D01*
X38669Y-107309D01*
X38277Y-106723D01*
X37691Y-106331D01*
X37000Y-106194D01*
D02*
G37*
G36*
X228500Y-106694D02*
X227809Y-106831D01*
X227223Y-107223D01*
X226831Y-107809D01*
X226694Y-108500D01*
X226831Y-109191D01*
X227223Y-109777D01*
X227809Y-110169D01*
X228500Y-110306D01*
X229191Y-110169D01*
X229777Y-109777D01*
X230169Y-109191D01*
X230306Y-108500D01*
X230169Y-107809D01*
X229777Y-107223D01*
X229191Y-106831D01*
X228500Y-106694D01*
D02*
G37*
G36*
X299500Y-110194D02*
X298809Y-110331D01*
X298223Y-110723D01*
X297831Y-111309D01*
X297694Y-112000D01*
X297831Y-112691D01*
X298223Y-113277D01*
X298809Y-113669D01*
X299500Y-113806D01*
X300191Y-113669D01*
X300777Y-113277D01*
X301169Y-112691D01*
X301306Y-112000D01*
X301169Y-111309D01*
X300777Y-110723D01*
X300191Y-110331D01*
X299500Y-110194D01*
D02*
G37*
G36*
X233500D02*
X232809Y-110331D01*
X232223Y-110723D01*
X231831Y-111309D01*
X231694Y-112000D01*
X231831Y-112691D01*
X232223Y-113277D01*
X232809Y-113669D01*
X233500Y-113806D01*
X234191Y-113669D01*
X234777Y-113277D01*
X235169Y-112691D01*
X235306Y-112000D01*
X235169Y-111309D01*
X234777Y-110723D01*
X234191Y-110331D01*
X233500Y-110194D01*
D02*
G37*
G36*
X427500Y-111694D02*
X426809Y-111831D01*
X426223Y-112223D01*
X425831Y-112809D01*
X425694Y-113500D01*
X425831Y-114191D01*
X426223Y-114777D01*
X426809Y-115169D01*
X427500Y-115306D01*
X428191Y-115169D01*
X428777Y-114777D01*
X429169Y-114191D01*
X429306Y-113500D01*
X429169Y-112809D01*
X428777Y-112223D01*
X428191Y-111831D01*
X427500Y-111694D01*
D02*
G37*
G36*
X399174D02*
X398483Y-111831D01*
X397897Y-112223D01*
X397505Y-112809D01*
X397368Y-113500D01*
X397505Y-114191D01*
X397897Y-114777D01*
X398483Y-115169D01*
X399174Y-115306D01*
X399865Y-115169D01*
X400451Y-114777D01*
X400843Y-114191D01*
X400980Y-113500D01*
X400843Y-112809D01*
X400451Y-112223D01*
X399865Y-111831D01*
X399174Y-111694D01*
D02*
G37*
G36*
X198500D02*
X197809Y-111831D01*
X197223Y-112223D01*
X196831Y-112809D01*
X196694Y-113500D01*
X196831Y-114191D01*
X197223Y-114777D01*
X197809Y-115169D01*
X198500Y-115306D01*
X199191Y-115169D01*
X199777Y-114777D01*
X200169Y-114191D01*
X200306Y-113500D01*
X200169Y-112809D01*
X199777Y-112223D01*
X199191Y-111831D01*
X198500Y-111694D01*
D02*
G37*
G36*
X272000Y-112194D02*
X271309Y-112331D01*
X270723Y-112723D01*
X270331Y-113309D01*
X270194Y-114000D01*
X270331Y-114691D01*
X270723Y-115277D01*
X271309Y-115669D01*
X272000Y-115806D01*
X272691Y-115669D01*
X273277Y-115277D01*
X273669Y-114691D01*
X273806Y-114000D01*
X273669Y-113309D01*
X273277Y-112723D01*
X272691Y-112331D01*
X272000Y-112194D01*
D02*
G37*
G36*
X238009Y-112700D02*
X237318Y-112838D01*
X236732Y-113229D01*
X236340Y-113815D01*
X236203Y-114506D01*
X236340Y-115198D01*
X236732Y-115784D01*
X237318Y-116175D01*
X238009Y-116313D01*
X238701Y-116175D01*
X239287Y-115784D01*
X239678Y-115198D01*
X239816Y-114506D01*
X239678Y-113815D01*
X239287Y-113229D01*
X238701Y-112838D01*
X238009Y-112700D01*
D02*
G37*
G36*
X415500Y-113694D02*
X414809Y-113831D01*
X414223Y-114223D01*
X413831Y-114809D01*
X413694Y-115500D01*
X413831Y-116191D01*
X414223Y-116777D01*
X414809Y-117169D01*
X415500Y-117306D01*
X416191Y-117169D01*
X416777Y-116777D01*
X417169Y-116191D01*
X417306Y-115500D01*
X417169Y-114809D01*
X416777Y-114223D01*
X416191Y-113831D01*
X415500Y-113694D01*
D02*
G37*
G36*
X183500D02*
X182809Y-113831D01*
X182223Y-114223D01*
X181831Y-114809D01*
X181694Y-115500D01*
X181831Y-116191D01*
X182223Y-116777D01*
X182809Y-117169D01*
X183500Y-117306D01*
X184191Y-117169D01*
X184777Y-116777D01*
X185169Y-116191D01*
X185306Y-115500D01*
X185169Y-114809D01*
X184777Y-114223D01*
X184191Y-113831D01*
X183500Y-113694D01*
D02*
G37*
G36*
X175852Y-116855D02*
X175161Y-116992D01*
X174704Y-117297D01*
X174368Y-117351D01*
X174031Y-117297D01*
X173575Y-116992D01*
X172883Y-116855D01*
X172192Y-116992D01*
X171606Y-117384D01*
X171215Y-117970D01*
X171077Y-118661D01*
X171215Y-119352D01*
X171606Y-119938D01*
X172192Y-120330D01*
X172883Y-120467D01*
X173575Y-120330D01*
X174031Y-120025D01*
X174368Y-119971D01*
X174704Y-120025D01*
X175161Y-120330D01*
X175852Y-120467D01*
X176543Y-120330D01*
X177129Y-119938D01*
X177521Y-119352D01*
X177658Y-118661D01*
X177521Y-117970D01*
X177129Y-117384D01*
X176543Y-116992D01*
X175852Y-116855D01*
D02*
G37*
G36*
X320500Y-114194D02*
X319809Y-114331D01*
X319223Y-114723D01*
X318831Y-115309D01*
X318694Y-116000D01*
X318831Y-116691D01*
X319223Y-117277D01*
X319809Y-117669D01*
X320500Y-117806D01*
X321191Y-117669D01*
X321777Y-117277D01*
X322169Y-116691D01*
X322306Y-116000D01*
X322169Y-115309D01*
X321777Y-114723D01*
X321191Y-114331D01*
X320500Y-114194D01*
D02*
G37*
G36*
X303500D02*
X302809Y-114331D01*
X302223Y-114723D01*
X301831Y-115309D01*
X301694Y-116000D01*
X301831Y-116691D01*
X302223Y-117277D01*
X302809Y-117669D01*
X303500Y-117806D01*
X304191Y-117669D01*
X304777Y-117277D01*
X305169Y-116691D01*
X305306Y-116000D01*
X305169Y-115309D01*
X304777Y-114723D01*
X304191Y-114331D01*
X303500Y-114194D01*
D02*
G37*
G36*
X104000Y-114694D02*
X103309Y-114831D01*
X102723Y-115223D01*
X102331Y-115809D01*
X102194Y-116500D01*
X102331Y-117191D01*
X102723Y-117777D01*
X103309Y-118169D01*
X104000Y-118306D01*
X104691Y-118169D01*
X105277Y-117777D01*
X105669Y-117191D01*
X105806Y-116500D01*
X105669Y-115809D01*
X105277Y-115223D01*
X104691Y-114831D01*
X104000Y-114694D01*
D02*
G37*
G36*
X258500Y-116694D02*
X257809Y-116831D01*
X257223Y-117223D01*
X256831Y-117809D01*
X256694Y-118500D01*
X256831Y-119191D01*
X257223Y-119777D01*
X257809Y-120169D01*
X258500Y-120306D01*
X259191Y-120169D01*
X259777Y-119777D01*
X260169Y-119191D01*
X260306Y-118500D01*
X260169Y-117809D01*
X259777Y-117223D01*
X259191Y-116831D01*
X258500Y-116694D01*
D02*
G37*
G36*
X193000Y-117194D02*
X192309Y-117331D01*
X191723Y-117723D01*
X191331Y-118309D01*
X191194Y-119000D01*
X191331Y-119691D01*
X191723Y-120277D01*
X192309Y-120669D01*
X193000Y-120806D01*
X193691Y-120669D01*
X194277Y-120277D01*
X194669Y-119691D01*
X194806Y-119000D01*
X194669Y-118309D01*
X194277Y-117723D01*
X193691Y-117331D01*
X193000Y-117194D01*
D02*
G37*
G36*
X58000D02*
X57309Y-117331D01*
X56723Y-117723D01*
X56331Y-118309D01*
X56194Y-119000D01*
X56331Y-119691D01*
X56723Y-120277D01*
X57309Y-120669D01*
X58000Y-120806D01*
X58691Y-120669D01*
X59277Y-120277D01*
X59669Y-119691D01*
X59806Y-119000D01*
X59669Y-118309D01*
X59277Y-117723D01*
X58691Y-117331D01*
X58000Y-117194D01*
D02*
G37*
G36*
X250000Y-117694D02*
X249309Y-117831D01*
X248723Y-118223D01*
X248331Y-118809D01*
X248194Y-119500D01*
X248331Y-120191D01*
X248723Y-120777D01*
X249309Y-121169D01*
X250000Y-121306D01*
X250691Y-121169D01*
X251277Y-120777D01*
X251669Y-120191D01*
X251806Y-119500D01*
X251669Y-118809D01*
X251277Y-118223D01*
X250691Y-117831D01*
X250000Y-117694D01*
D02*
G37*
G36*
X204000Y-118194D02*
X203309Y-118331D01*
X202723Y-118723D01*
X202331Y-119309D01*
X202194Y-120000D01*
X202331Y-120691D01*
X202723Y-121277D01*
X203309Y-121669D01*
X204000Y-121806D01*
X204691Y-121669D01*
X205277Y-121277D01*
X205669Y-120691D01*
X205806Y-120000D01*
X205669Y-119309D01*
X205277Y-118723D01*
X204691Y-118331D01*
X204000Y-118194D01*
D02*
G37*
G36*
X111973Y-119694D02*
X111282Y-119831D01*
X110696Y-120223D01*
X110304Y-120809D01*
X110167Y-121500D01*
X110304Y-122191D01*
X110696Y-122777D01*
X111282Y-123169D01*
X111973Y-123306D01*
X112664Y-123169D01*
X113250Y-122777D01*
X113642Y-122191D01*
X113779Y-121500D01*
X113642Y-120809D01*
X113250Y-120223D01*
X112664Y-119831D01*
X111973Y-119694D01*
D02*
G37*
G36*
X398896Y-120194D02*
X398204Y-120331D01*
X397618Y-120723D01*
X397227Y-121309D01*
X397089Y-122000D01*
X397227Y-122691D01*
X397618Y-123277D01*
X398204Y-123669D01*
X398896Y-123806D01*
X399587Y-123669D01*
X400173Y-123277D01*
X400564Y-122691D01*
X400702Y-122000D01*
X400564Y-121309D01*
X400173Y-120723D01*
X399587Y-120331D01*
X398896Y-120194D01*
D02*
G37*
G36*
X137589Y-114700D02*
X136897Y-114838D01*
X136311Y-115229D01*
X135920Y-115815D01*
X135782Y-116507D01*
X135920Y-117198D01*
X136311Y-117784D01*
Y-118229D01*
X135920Y-118815D01*
X135782Y-119507D01*
X135920Y-120198D01*
X136311Y-120784D01*
Y-121229D01*
X135920Y-121815D01*
X135782Y-122507D01*
X135920Y-123198D01*
X136311Y-123784D01*
X136897Y-124176D01*
X137589Y-124313D01*
X138280Y-124176D01*
X138866Y-123784D01*
X139257Y-123198D01*
X139395Y-122507D01*
X139257Y-121815D01*
X138866Y-121229D01*
Y-120784D01*
X139257Y-120198D01*
X139395Y-119507D01*
X139257Y-118815D01*
X138866Y-118229D01*
Y-117784D01*
X139257Y-117198D01*
X139395Y-116507D01*
X139257Y-115815D01*
X138866Y-115229D01*
X138280Y-114838D01*
X137589Y-114700D01*
D02*
G37*
G36*
X129412D02*
X128720Y-114838D01*
X128134Y-115229D01*
X127743Y-115815D01*
X127605Y-116507D01*
X127743Y-117198D01*
X128134Y-117784D01*
Y-118229D01*
X127743Y-118815D01*
X127605Y-119507D01*
X127743Y-120198D01*
X128134Y-120784D01*
Y-121229D01*
X127743Y-121815D01*
X127605Y-122507D01*
X127743Y-123198D01*
X128134Y-123784D01*
X128720Y-124176D01*
X129412Y-124313D01*
X130103Y-124176D01*
X130689Y-123784D01*
X131080Y-123198D01*
X131218Y-122507D01*
X131080Y-121815D01*
X130689Y-121229D01*
Y-120784D01*
X131080Y-120198D01*
X131218Y-119507D01*
X131080Y-118815D01*
X130689Y-118229D01*
Y-117784D01*
X131080Y-117198D01*
X131218Y-116507D01*
X131080Y-115815D01*
X130689Y-115229D01*
X130103Y-114838D01*
X129412Y-114700D01*
D02*
G37*
G36*
X259000Y-122694D02*
X258309Y-122831D01*
X257723Y-123223D01*
X257331Y-123809D01*
X257194Y-124500D01*
X257331Y-125191D01*
X257723Y-125777D01*
X258309Y-126169D01*
X259000Y-126306D01*
X259691Y-126169D01*
X260277Y-125777D01*
X260669Y-125191D01*
X260806Y-124500D01*
X260669Y-123809D01*
X260277Y-123223D01*
X259691Y-122831D01*
X259000Y-122694D01*
D02*
G37*
G36*
X15560Y-115171D02*
X14325Y-115293D01*
X13138Y-115653D01*
X12043Y-116238D01*
X11084Y-117025D01*
X10297Y-117984D01*
X9712Y-119079D01*
X9352Y-120266D01*
X9230Y-121501D01*
X9352Y-122736D01*
X9712Y-123923D01*
X10297Y-125018D01*
X11084Y-125977D01*
X12043Y-126764D01*
X13138Y-127349D01*
X14325Y-127709D01*
X15560Y-127831D01*
X16795Y-127709D01*
X17982Y-127349D01*
X19076Y-126764D01*
X20036Y-125977D01*
X20823Y-125018D01*
X21408Y-123923D01*
X21768Y-122736D01*
X21890Y-121501D01*
X21768Y-120266D01*
X21408Y-119079D01*
X20823Y-117984D01*
X20036Y-117025D01*
X19076Y-116238D01*
X17982Y-115653D01*
X16795Y-115293D01*
X15560Y-115171D01*
D02*
G37*
G36*
X278500Y-125694D02*
X277809Y-125831D01*
X277223Y-126223D01*
X276831Y-126809D01*
X276694Y-127500D01*
X276831Y-128191D01*
X277223Y-128777D01*
X277809Y-129169D01*
X278500Y-129306D01*
X279191Y-129169D01*
X279777Y-128777D01*
X280169Y-128191D01*
X280306Y-127500D01*
X280169Y-126809D01*
X279777Y-126223D01*
X279191Y-125831D01*
X278500Y-125694D01*
D02*
G37*
G36*
X114508Y-127266D02*
X113817Y-127403D01*
X113231Y-127795D01*
X112840Y-128381D01*
X112702Y-129072D01*
X112840Y-129763D01*
X113231Y-130350D01*
X113817Y-130741D01*
X114508Y-130878D01*
X115200Y-130741D01*
X115786Y-130350D01*
X116177Y-129763D01*
X116315Y-129072D01*
X116177Y-128381D01*
X115786Y-127795D01*
X115200Y-127403D01*
X114508Y-127266D01*
D02*
G37*
G36*
X259000Y-129694D02*
X258309Y-129831D01*
X257723Y-130223D01*
X257331Y-130809D01*
X257194Y-131500D01*
X257331Y-132191D01*
X257723Y-132777D01*
X258309Y-133169D01*
X259000Y-133306D01*
X259691Y-133169D01*
X260277Y-132777D01*
X260669Y-132191D01*
X260806Y-131500D01*
X260669Y-130809D01*
X260277Y-130223D01*
X259691Y-129831D01*
X259000Y-129694D01*
D02*
G37*
G36*
X415000Y-131694D02*
X414309Y-131831D01*
X413723Y-132223D01*
X413331Y-132809D01*
X413194Y-133500D01*
X413331Y-134191D01*
X413723Y-134777D01*
X414309Y-135169D01*
X415000Y-135306D01*
X415691Y-135169D01*
X416277Y-134777D01*
X416669Y-134191D01*
X416806Y-133500D01*
X416669Y-132809D01*
X416277Y-132223D01*
X415691Y-131831D01*
X415000Y-131694D01*
D02*
G37*
G36*
X167000D02*
X166309Y-131831D01*
X165723Y-132223D01*
X165331Y-132809D01*
X165194Y-133500D01*
X165331Y-134191D01*
X165723Y-134777D01*
X166309Y-135169D01*
X167000Y-135306D01*
X167691Y-135169D01*
X168277Y-134777D01*
X168669Y-134191D01*
X168806Y-133500D01*
X168669Y-132809D01*
X168277Y-132223D01*
X167691Y-131831D01*
X167000Y-131694D01*
D02*
G37*
G36*
X122500Y-132194D02*
X121809Y-132331D01*
X121223Y-132723D01*
X120831Y-133309D01*
X120694Y-134000D01*
X120831Y-134691D01*
X121223Y-135277D01*
X121809Y-135669D01*
X122500Y-135806D01*
X123191Y-135669D01*
X123777Y-135277D01*
X124169Y-134691D01*
X124306Y-134000D01*
X124169Y-133309D01*
X123777Y-132723D01*
X123191Y-132331D01*
X122500Y-132194D01*
D02*
G37*
G36*
X217087Y-132431D02*
X216395Y-132569D01*
X215809Y-132960D01*
X215418Y-133546D01*
X215280Y-134238D01*
X215418Y-134929D01*
X215809Y-135515D01*
X216395Y-135907D01*
X217087Y-136044D01*
X217778Y-135907D01*
X218364Y-135515D01*
X218756Y-134929D01*
X218893Y-134238D01*
X218756Y-133546D01*
X218364Y-132960D01*
X217778Y-132569D01*
X217087Y-132431D01*
D02*
G37*
G36*
X212587D02*
X211895Y-132569D01*
X211309Y-132960D01*
X210918Y-133546D01*
X210780Y-134238D01*
X210918Y-134929D01*
X211309Y-135515D01*
X211895Y-135907D01*
X212587Y-136044D01*
X213278Y-135907D01*
X213864Y-135515D01*
X214256Y-134929D01*
X214393Y-134238D01*
X214256Y-133546D01*
X213864Y-132960D01*
X213278Y-132569D01*
X212587Y-132431D01*
D02*
G37*
G36*
X206587D02*
X205895Y-132569D01*
X205309Y-132960D01*
X204918Y-133546D01*
X204780Y-134238D01*
X204918Y-134929D01*
X205309Y-135515D01*
X205895Y-135907D01*
X206587Y-136044D01*
X207278Y-135907D01*
X207864Y-135515D01*
X208256Y-134929D01*
X208393Y-134238D01*
X208256Y-133546D01*
X207864Y-132960D01*
X207278Y-132569D01*
X206587Y-132431D01*
D02*
G37*
G36*
X193500Y-134694D02*
X192809Y-134831D01*
X192223Y-135223D01*
X191831Y-135809D01*
X191694Y-136500D01*
X191831Y-137191D01*
X192223Y-137777D01*
X192809Y-138169D01*
X193500Y-138306D01*
X194191Y-138169D01*
X194777Y-137777D01*
X195169Y-137191D01*
X195306Y-136500D01*
X195169Y-135809D01*
X194777Y-135223D01*
X194191Y-134831D01*
X193500Y-134694D01*
D02*
G37*
G36*
X156000D02*
X155309Y-134831D01*
X154723Y-135223D01*
X154331Y-135809D01*
X154194Y-136500D01*
X154331Y-137191D01*
X154723Y-137777D01*
X155309Y-138169D01*
X156000Y-138306D01*
X156691Y-138169D01*
X157277Y-137777D01*
X157669Y-137191D01*
X157806Y-136500D01*
X157669Y-135809D01*
X157277Y-135223D01*
X156691Y-134831D01*
X156000Y-134694D01*
D02*
G37*
G36*
X101500D02*
X100809Y-134831D01*
X100223Y-135223D01*
X99831Y-135809D01*
X99694Y-136500D01*
X99831Y-137191D01*
X100223Y-137777D01*
X100809Y-138169D01*
X101500Y-138306D01*
X102191Y-138169D01*
X102777Y-137777D01*
X103169Y-137191D01*
X103306Y-136500D01*
X103169Y-135809D01*
X102777Y-135223D01*
X102191Y-134831D01*
X101500Y-134694D01*
D02*
G37*
G36*
X251492Y-135243D02*
X250801Y-135380D01*
X250215Y-135772D01*
X249823Y-136358D01*
X249686Y-137049D01*
X249823Y-137740D01*
X250215Y-138326D01*
X250801Y-138718D01*
X251492Y-138856D01*
X252183Y-138718D01*
X252769Y-138326D01*
X253161Y-137740D01*
X253298Y-137049D01*
X253161Y-136358D01*
X252769Y-135772D01*
X252183Y-135380D01*
X251492Y-135243D01*
D02*
G37*
G36*
X173000Y-136694D02*
X172309Y-136831D01*
X171723Y-137223D01*
X171331Y-137809D01*
X171194Y-138500D01*
X171331Y-139191D01*
X171723Y-139777D01*
X172309Y-140169D01*
X173000Y-140306D01*
X173691Y-140169D01*
X174277Y-139777D01*
X174669Y-139191D01*
X174806Y-138500D01*
X174669Y-137809D01*
X174277Y-137223D01*
X173691Y-136831D01*
X173000Y-136694D01*
D02*
G37*
G36*
X167000D02*
X166309Y-136831D01*
X165723Y-137223D01*
X165331Y-137809D01*
X165194Y-138500D01*
X165331Y-139191D01*
X165723Y-139777D01*
X166309Y-140169D01*
X167000Y-140306D01*
X167691Y-140169D01*
X168277Y-139777D01*
X168669Y-139191D01*
X168806Y-138500D01*
X168669Y-137809D01*
X168277Y-137223D01*
X167691Y-136831D01*
X167000Y-136694D01*
D02*
G37*
G36*
X124000D02*
X123309Y-136831D01*
X122723Y-137223D01*
X122331Y-137809D01*
X122194Y-138500D01*
X122331Y-139191D01*
X122723Y-139777D01*
X123309Y-140169D01*
X124000Y-140306D01*
X124691Y-140169D01*
X125277Y-139777D01*
X125669Y-139191D01*
X125806Y-138500D01*
X125669Y-137809D01*
X125277Y-137223D01*
X124691Y-136831D01*
X124000Y-136694D01*
D02*
G37*
G36*
X130500Y-137194D02*
X129809Y-137331D01*
X129223Y-137723D01*
X128831Y-138309D01*
X128694Y-139000D01*
X128831Y-139691D01*
X129223Y-140277D01*
X129809Y-140669D01*
X130500Y-140806D01*
X131191Y-140669D01*
X131777Y-140277D01*
X132169Y-139691D01*
X132306Y-139000D01*
X132169Y-138309D01*
X131777Y-137723D01*
X131191Y-137331D01*
X130500Y-137194D01*
D02*
G37*
G36*
X144732Y-137472D02*
X144041Y-137610D01*
X143455Y-138001D01*
X143063Y-138587D01*
X142926Y-139278D01*
X143063Y-139970D01*
X143455Y-140556D01*
X144041Y-140947D01*
X144732Y-141085D01*
X145424Y-140947D01*
X146010Y-140556D01*
X146401Y-139970D01*
X146539Y-139278D01*
X146401Y-138587D01*
X146010Y-138001D01*
X145424Y-137610D01*
X144732Y-137472D01*
D02*
G37*
G36*
X427000Y-140194D02*
X426309Y-140331D01*
X425723Y-140723D01*
X425331Y-141309D01*
X425194Y-142000D01*
X425331Y-142691D01*
X425723Y-143277D01*
X426309Y-143669D01*
X427000Y-143806D01*
X427691Y-143669D01*
X428277Y-143277D01*
X428669Y-142691D01*
X428806Y-142000D01*
X428669Y-141309D01*
X428277Y-140723D01*
X427691Y-140331D01*
X427000Y-140194D01*
D02*
G37*
G36*
X148500D02*
X147809Y-140331D01*
X147223Y-140723D01*
X146831Y-141309D01*
X146694Y-142000D01*
X146831Y-142691D01*
X147223Y-143277D01*
X147809Y-143669D01*
X148500Y-143806D01*
X149191Y-143669D01*
X149777Y-143277D01*
X150169Y-142691D01*
X150306Y-142000D01*
X150169Y-141309D01*
X149777Y-140723D01*
X149191Y-140331D01*
X148500Y-140194D01*
D02*
G37*
G36*
X102000Y-142194D02*
X101309Y-142331D01*
X100723Y-142723D01*
X100331Y-143309D01*
X100194Y-144000D01*
X100331Y-144691D01*
X100723Y-145277D01*
X101309Y-145669D01*
X102000Y-145806D01*
X102691Y-145669D01*
X103277Y-145277D01*
X103669Y-144691D01*
X103806Y-144000D01*
X103669Y-143309D01*
X103277Y-142723D01*
X102691Y-142331D01*
X102000Y-142194D01*
D02*
G37*
G36*
X45500D02*
X44809Y-142331D01*
X44223Y-142723D01*
X43831Y-143309D01*
X43694Y-144000D01*
X43831Y-144691D01*
X44223Y-145277D01*
X44809Y-145669D01*
X45500Y-145806D01*
X46191Y-145669D01*
X46777Y-145277D01*
X47169Y-144691D01*
X47306Y-144000D01*
X47169Y-143309D01*
X46777Y-142723D01*
X46191Y-142331D01*
X45500Y-142194D01*
D02*
G37*
G36*
X159210Y-143661D02*
X158519Y-143799D01*
X157933Y-144191D01*
X157541Y-144776D01*
X157404Y-145468D01*
X157541Y-146159D01*
X157933Y-146745D01*
X158519Y-147137D01*
X159210Y-147274D01*
X159901Y-147137D01*
X160487Y-146745D01*
X160879Y-146159D01*
X161016Y-145468D01*
X160879Y-144776D01*
X160487Y-144191D01*
X159901Y-143799D01*
X159210Y-143661D01*
D02*
G37*
G36*
X276635Y-144080D02*
X275943Y-144218D01*
X275357Y-144609D01*
X274966Y-145195D01*
X274828Y-145887D01*
X274966Y-146578D01*
X275357Y-147164D01*
X275943Y-147556D01*
X276635Y-147693D01*
X277326Y-147556D01*
X277912Y-147164D01*
X278303Y-146578D01*
X278441Y-145887D01*
X278303Y-145195D01*
X277912Y-144609D01*
X277326Y-144218D01*
X276635Y-144080D01*
D02*
G37*
G36*
X15560Y-135171D02*
X14325Y-135293D01*
X13138Y-135653D01*
X12043Y-136238D01*
X11084Y-137025D01*
X10297Y-137985D01*
X9712Y-139079D01*
X9352Y-140266D01*
X9230Y-141501D01*
X9352Y-142736D01*
X9712Y-143923D01*
X10297Y-145018D01*
X11084Y-145977D01*
X12043Y-146764D01*
X13138Y-147349D01*
X14325Y-147709D01*
X15560Y-147831D01*
X16795Y-147709D01*
X17982Y-147349D01*
X19076Y-146764D01*
X20036Y-145977D01*
X20823Y-145018D01*
X21408Y-143923D01*
X21768Y-142736D01*
X21890Y-141501D01*
X21768Y-140266D01*
X21408Y-139079D01*
X20823Y-137985D01*
X20036Y-137025D01*
X19076Y-136238D01*
X17982Y-135653D01*
X16795Y-135293D01*
X15560Y-135171D01*
D02*
G37*
G36*
X387500Y-146194D02*
X386809Y-146331D01*
X386223Y-146723D01*
X385831Y-147309D01*
X385694Y-148000D01*
X385831Y-148691D01*
X386223Y-149277D01*
X386809Y-149669D01*
X387500Y-149806D01*
X388191Y-149669D01*
X388777Y-149277D01*
X389169Y-148691D01*
X389306Y-148000D01*
X389169Y-147309D01*
X388777Y-146723D01*
X388191Y-146331D01*
X387500Y-146194D01*
D02*
G37*
G36*
X52078Y-146381D02*
X51387Y-146518D01*
X50801Y-146910D01*
X50409Y-147496D01*
X50272Y-148187D01*
X50409Y-148878D01*
X50801Y-149464D01*
X51387Y-149856D01*
X52078Y-149994D01*
X52769Y-149856D01*
X53355Y-149464D01*
X53747Y-148878D01*
X53885Y-148187D01*
X53747Y-147496D01*
X53355Y-146910D01*
X52769Y-146518D01*
X52078Y-146381D01*
D02*
G37*
G36*
X118000Y-146694D02*
X117309Y-146831D01*
X116723Y-147223D01*
X116331Y-147809D01*
X116194Y-148500D01*
X116331Y-149191D01*
X116723Y-149777D01*
X117309Y-150169D01*
X118000Y-150306D01*
X118691Y-150169D01*
X119277Y-149777D01*
X119669Y-149191D01*
X119806Y-148500D01*
X119669Y-147809D01*
X119277Y-147223D01*
X118691Y-146831D01*
X118000Y-146694D01*
D02*
G37*
G36*
X167500Y-147694D02*
X166809Y-147831D01*
X166223Y-148223D01*
X165831Y-148809D01*
X165694Y-149500D01*
X165831Y-150191D01*
X166223Y-150777D01*
X166809Y-151169D01*
X167500Y-151306D01*
X168191Y-151169D01*
X168777Y-150777D01*
X169169Y-150191D01*
X169306Y-149500D01*
X169169Y-148809D01*
X168777Y-148223D01*
X168191Y-147831D01*
X167500Y-147694D01*
D02*
G37*
G36*
X276635Y-150080D02*
X275943Y-150218D01*
X275357Y-150609D01*
X274966Y-151196D01*
X274828Y-151887D01*
X274966Y-152578D01*
X275357Y-153164D01*
X275943Y-153556D01*
X276635Y-153693D01*
X277326Y-153556D01*
X277912Y-153164D01*
X278303Y-152578D01*
X278441Y-151887D01*
X278303Y-151196D01*
X277912Y-150609D01*
X277326Y-150218D01*
X276635Y-150080D01*
D02*
G37*
G36*
X271635D02*
X270943Y-150218D01*
X270357Y-150609D01*
X269966Y-151196D01*
X269828Y-151887D01*
X269966Y-152578D01*
X270357Y-153164D01*
X270943Y-153556D01*
X271635Y-153693D01*
X272326Y-153556D01*
X272912Y-153164D01*
X273303Y-152578D01*
X273441Y-151887D01*
X273303Y-151196D01*
X272912Y-150609D01*
X272326Y-150218D01*
X271635Y-150080D01*
D02*
G37*
G36*
X32500Y-150194D02*
X31809Y-150331D01*
X31223Y-150723D01*
X30831Y-151309D01*
X30694Y-152000D01*
X30831Y-152691D01*
X31223Y-153277D01*
X31809Y-153669D01*
X32500Y-153806D01*
X33191Y-153669D01*
X33777Y-153277D01*
X34169Y-152691D01*
X34306Y-152000D01*
X34169Y-151309D01*
X33777Y-150723D01*
X33191Y-150331D01*
X32500Y-150194D01*
D02*
G37*
G36*
X229000Y-151194D02*
X228309Y-151331D01*
X227723Y-151723D01*
X227331Y-152309D01*
X227194Y-153000D01*
X227331Y-153691D01*
X227723Y-154277D01*
X228309Y-154669D01*
X229000Y-154806D01*
X229691Y-154669D01*
X230277Y-154277D01*
X230669Y-153691D01*
X230806Y-153000D01*
X230669Y-152309D01*
X230277Y-151723D01*
X229691Y-151331D01*
X229000Y-151194D01*
D02*
G37*
G36*
X256000Y-147694D02*
X255309Y-147831D01*
X254723Y-148223D01*
X254331Y-148809D01*
X254194Y-149500D01*
X254331Y-150191D01*
X254723Y-150777D01*
X255309Y-151169D01*
X255966Y-151300D01*
X256000Y-151306D01*
X256040Y-151785D01*
X256029Y-151787D01*
X255809Y-151831D01*
X255223Y-152223D01*
X254831Y-152809D01*
X254694Y-153500D01*
X254831Y-154191D01*
X255223Y-154777D01*
X255809Y-155169D01*
X256500Y-155306D01*
X257191Y-155169D01*
X257777Y-154777D01*
X258169Y-154191D01*
X258306Y-153500D01*
X258169Y-152809D01*
X257777Y-152223D01*
X257191Y-151831D01*
X256534Y-151700D01*
X256500Y-151694D01*
X256460Y-151215D01*
X256471Y-151213D01*
X256691Y-151169D01*
X257277Y-150777D01*
X257669Y-150191D01*
X257806Y-149500D01*
X257669Y-148809D01*
X257277Y-148223D01*
X256691Y-147831D01*
X256000Y-147694D01*
D02*
G37*
G36*
X303500Y-153694D02*
X302809Y-153831D01*
X302223Y-154223D01*
X301831Y-154809D01*
X301694Y-155500D01*
X301831Y-156191D01*
X302223Y-156777D01*
X302809Y-157169D01*
X303500Y-157306D01*
X304191Y-157169D01*
X304777Y-156777D01*
X305169Y-156191D01*
X305306Y-155500D01*
X305169Y-154809D01*
X304777Y-154223D01*
X304191Y-153831D01*
X303500Y-153694D01*
D02*
G37*
G36*
X112500D02*
X111809Y-153831D01*
X111223Y-154223D01*
X110831Y-154809D01*
X110694Y-155500D01*
X110831Y-156191D01*
X111223Y-156777D01*
X111809Y-157169D01*
X112500Y-157306D01*
X113191Y-157169D01*
X113777Y-156777D01*
X114169Y-156191D01*
X114306Y-155500D01*
X114169Y-154809D01*
X113777Y-154223D01*
X113191Y-153831D01*
X112500Y-153694D01*
D02*
G37*
G36*
X59500D02*
X58809Y-153831D01*
X58223Y-154223D01*
X57831Y-154809D01*
X57694Y-155500D01*
X57831Y-156191D01*
X58223Y-156777D01*
X58809Y-157169D01*
X59500Y-157306D01*
X60191Y-157169D01*
X60777Y-156777D01*
X61169Y-156191D01*
X61306Y-155500D01*
X61169Y-154809D01*
X60777Y-154223D01*
X60191Y-153831D01*
X59500Y-153694D01*
D02*
G37*
G36*
X159755Y-154091D02*
X159064Y-154228D01*
X158478Y-154620D01*
X158086Y-155206D01*
X157949Y-155897D01*
X158086Y-156588D01*
X158478Y-157174D01*
X159064Y-157566D01*
X159755Y-157703D01*
X160446Y-157566D01*
X161032Y-157174D01*
X161424Y-156588D01*
X161561Y-155897D01*
X161424Y-155206D01*
X161032Y-154620D01*
X160446Y-154228D01*
X159755Y-154091D01*
D02*
G37*
G36*
X463500Y-154694D02*
X462809Y-154831D01*
X462223Y-155223D01*
X461831Y-155809D01*
X461694Y-156500D01*
X461831Y-157191D01*
X462223Y-157777D01*
X462809Y-158169D01*
X463500Y-158306D01*
X464191Y-158169D01*
X464777Y-157777D01*
X465169Y-157191D01*
X465306Y-156500D01*
X465169Y-155809D01*
X464777Y-155223D01*
X464191Y-154831D01*
X463500Y-154694D01*
D02*
G37*
G36*
X135500Y-153694D02*
X134809Y-153831D01*
X134223Y-154223D01*
X133831Y-154809D01*
X133694Y-155500D01*
X133831Y-156191D01*
X134223Y-156777D01*
X134809Y-157169D01*
X135192Y-157245D01*
Y-157755D01*
X134809Y-157831D01*
X134223Y-158223D01*
X133831Y-158809D01*
X133694Y-159500D01*
X133831Y-160191D01*
X134223Y-160777D01*
X134809Y-161169D01*
X135500Y-161306D01*
X136191Y-161169D01*
X136777Y-160777D01*
X137169Y-160191D01*
X137306Y-159500D01*
X137169Y-158809D01*
X136777Y-158223D01*
X136191Y-157831D01*
X135808Y-157755D01*
Y-157245D01*
X136191Y-157169D01*
X136777Y-156777D01*
X137169Y-156191D01*
X137306Y-155500D01*
X137169Y-154809D01*
X136777Y-154223D01*
X136191Y-153831D01*
X135500Y-153694D01*
D02*
G37*
G36*
X55500Y-158194D02*
X54809Y-158331D01*
X54223Y-158723D01*
X53831Y-159309D01*
X53694Y-160000D01*
X53831Y-160691D01*
X54223Y-161277D01*
X54809Y-161669D01*
X55500Y-161806D01*
X56191Y-161669D01*
X56777Y-161277D01*
X57169Y-160691D01*
X57306Y-160000D01*
X57169Y-159309D01*
X56777Y-158723D01*
X56191Y-158331D01*
X55500Y-158194D01*
D02*
G37*
G36*
X493920Y-154480D02*
X486080D01*
Y-162320D01*
X493920D01*
Y-154480D01*
D02*
G37*
G36*
X299500Y-163194D02*
X298809Y-163331D01*
X298223Y-163723D01*
X297831Y-164309D01*
X297694Y-165000D01*
X297831Y-165691D01*
X298223Y-166277D01*
X298809Y-166669D01*
X299500Y-166806D01*
X300191Y-166669D01*
X300777Y-166277D01*
X301169Y-165691D01*
X301306Y-165000D01*
X301169Y-164309D01*
X300777Y-163723D01*
X300191Y-163331D01*
X299500Y-163194D01*
D02*
G37*
G36*
X102000D02*
X101309Y-163331D01*
X100723Y-163723D01*
X100331Y-164309D01*
X100194Y-165000D01*
X100331Y-165691D01*
X100723Y-166277D01*
X101309Y-166669D01*
X102000Y-166806D01*
X102691Y-166669D01*
X103277Y-166277D01*
X103669Y-165691D01*
X103806Y-165000D01*
X103669Y-164309D01*
X103277Y-163723D01*
X102691Y-163331D01*
X102000Y-163194D01*
D02*
G37*
G36*
X148360Y-164032D02*
X147668Y-164169D01*
X147082Y-164561D01*
X146691Y-165147D01*
X146553Y-165838D01*
X146691Y-166529D01*
X147082Y-167115D01*
X147668Y-167507D01*
X148360Y-167644D01*
X149051Y-167507D01*
X149637Y-167115D01*
X150028Y-166529D01*
X150166Y-165838D01*
X150028Y-165147D01*
X149637Y-164561D01*
X149051Y-164169D01*
X148360Y-164032D01*
D02*
G37*
G36*
X478800Y-159846D02*
X477777Y-159981D01*
X476823Y-160376D01*
X476004Y-161004D01*
X475376Y-161823D01*
X474981Y-162777D01*
X474846Y-163800D01*
X474981Y-164823D01*
X475376Y-165777D01*
X476004Y-166596D01*
X476823Y-167224D01*
X477777Y-167619D01*
X478800Y-167754D01*
X479823Y-167619D01*
X480777Y-167224D01*
X481596Y-166596D01*
X482224Y-165777D01*
X482619Y-164823D01*
X482754Y-163800D01*
X482619Y-162777D01*
X482224Y-161823D01*
X481596Y-161004D01*
X480777Y-160376D01*
X479823Y-159981D01*
X478800Y-159846D01*
D02*
G37*
G36*
X15560Y-155172D02*
X14325Y-155293D01*
X13138Y-155653D01*
X12043Y-156238D01*
X11084Y-157025D01*
X10297Y-157985D01*
X9712Y-159079D01*
X9352Y-160266D01*
X9230Y-161501D01*
X9352Y-162736D01*
X9712Y-163924D01*
X10297Y-165018D01*
X11084Y-165977D01*
X12043Y-166764D01*
X13138Y-167349D01*
X14325Y-167709D01*
X15560Y-167831D01*
X16795Y-167709D01*
X17982Y-167349D01*
X19076Y-166764D01*
X20036Y-165977D01*
X20823Y-165018D01*
X21408Y-163924D01*
X21768Y-162736D01*
X21890Y-161501D01*
X21768Y-160266D01*
X21408Y-159079D01*
X20823Y-157985D01*
X20036Y-157025D01*
X19076Y-156238D01*
X17982Y-155653D01*
X16795Y-155293D01*
X15560Y-155172D01*
D02*
G37*
G36*
X175500Y-162694D02*
X174809Y-162831D01*
X174223Y-163223D01*
X173831Y-163809D01*
X173694Y-164500D01*
X173831Y-165191D01*
X174136Y-165648D01*
X174190Y-165984D01*
X174136Y-166321D01*
X173831Y-166777D01*
X173694Y-167469D01*
X173831Y-168160D01*
X174223Y-168746D01*
X174809Y-169137D01*
X175500Y-169275D01*
X176191Y-169137D01*
X176777Y-168746D01*
X177169Y-168160D01*
X177306Y-167469D01*
X177169Y-166777D01*
X176864Y-166321D01*
X176810Y-165984D01*
X176864Y-165648D01*
X177169Y-165191D01*
X177306Y-164500D01*
X177169Y-163809D01*
X176777Y-163223D01*
X176191Y-162831D01*
X175500Y-162694D01*
D02*
G37*
G36*
X118500Y-165694D02*
X117809Y-165831D01*
X117223Y-166223D01*
X116831Y-166809D01*
X116694Y-167500D01*
X116831Y-168191D01*
X117223Y-168777D01*
X117809Y-169169D01*
X118500Y-169306D01*
X119191Y-169169D01*
X119777Y-168777D01*
X120169Y-168191D01*
X120306Y-167500D01*
X120169Y-166809D01*
X119777Y-166223D01*
X119191Y-165831D01*
X118500Y-165694D01*
D02*
G37*
G36*
X219332Y-165776D02*
X218641Y-165913D01*
X218055Y-166305D01*
X217663Y-166891D01*
X217526Y-167582D01*
X217663Y-168273D01*
X218055Y-168859D01*
X218641Y-169251D01*
X219332Y-169388D01*
X220023Y-169251D01*
X220609Y-168859D01*
X221001Y-168273D01*
X221138Y-167582D01*
X221001Y-166891D01*
X220609Y-166305D01*
X220023Y-165913D01*
X219332Y-165776D01*
D02*
G37*
G36*
X416500Y-167194D02*
X415809Y-167331D01*
X415223Y-167723D01*
X414831Y-168309D01*
X414694Y-169000D01*
X414831Y-169691D01*
X415223Y-170277D01*
X415809Y-170669D01*
X416500Y-170806D01*
X417191Y-170669D01*
X417777Y-170277D01*
X418169Y-169691D01*
X418306Y-169000D01*
X418169Y-168309D01*
X417777Y-167723D01*
X417191Y-167331D01*
X416500Y-167194D01*
D02*
G37*
G36*
X154500Y-167694D02*
X153809Y-167831D01*
X153223Y-168223D01*
X152831Y-168809D01*
X152694Y-169500D01*
X152831Y-170191D01*
X153223Y-170777D01*
X153809Y-171169D01*
X154500Y-171306D01*
X155191Y-171169D01*
X155777Y-170777D01*
X156169Y-170191D01*
X156306Y-169500D01*
X156169Y-168809D01*
X155777Y-168223D01*
X155191Y-167831D01*
X154500Y-167694D01*
D02*
G37*
G36*
X57500D02*
X56809Y-167831D01*
X56223Y-168223D01*
X55831Y-168809D01*
X55694Y-169500D01*
X55831Y-170191D01*
X56223Y-170777D01*
X56809Y-171169D01*
X57500Y-171306D01*
X58191Y-171169D01*
X58777Y-170777D01*
X59169Y-170191D01*
X59306Y-169500D01*
X59169Y-168809D01*
X58777Y-168223D01*
X58191Y-167831D01*
X57500Y-167694D01*
D02*
G37*
G36*
X145500Y-168194D02*
X144809Y-168331D01*
X144223Y-168723D01*
X143831Y-169309D01*
X143694Y-170000D01*
X143831Y-170691D01*
X144223Y-171277D01*
X144809Y-171669D01*
X145500Y-171806D01*
X146191Y-171669D01*
X146777Y-171277D01*
X147169Y-170691D01*
X147306Y-170000D01*
X147169Y-169309D01*
X146777Y-168723D01*
X146191Y-168331D01*
X145500Y-168194D01*
D02*
G37*
G36*
X275000Y-168694D02*
X274309Y-168831D01*
X273723Y-169223D01*
X273331Y-169809D01*
X273194Y-170500D01*
X273331Y-171191D01*
X273723Y-171777D01*
X274309Y-172169D01*
X275000Y-172306D01*
X275691Y-172169D01*
X276277Y-171777D01*
X276669Y-171191D01*
X276806Y-170500D01*
X276669Y-169809D01*
X276277Y-169223D01*
X275691Y-168831D01*
X275000Y-168694D01*
D02*
G37*
G36*
X490000Y-165246D02*
X488977Y-165381D01*
X488023Y-165776D01*
X487204Y-166404D01*
X486576Y-167223D01*
X486181Y-168177D01*
X486046Y-169200D01*
X486181Y-170223D01*
X486576Y-171177D01*
X487204Y-171996D01*
X488023Y-172624D01*
X488977Y-173019D01*
X490000Y-173154D01*
X491023Y-173019D01*
X491977Y-172624D01*
X492796Y-171996D01*
X493424Y-171177D01*
X493819Y-170223D01*
X493954Y-169200D01*
X493819Y-168177D01*
X493424Y-167223D01*
X492796Y-166404D01*
X491977Y-165776D01*
X491023Y-165381D01*
X490000Y-165246D01*
D02*
G37*
G36*
X383803Y-169819D02*
X383112Y-169956D01*
X382526Y-170348D01*
X382134Y-170934D01*
X381997Y-171625D01*
X382134Y-172317D01*
X382526Y-172903D01*
X383112Y-173294D01*
X383803Y-173432D01*
X384494Y-173294D01*
X385081Y-172903D01*
X385472Y-172317D01*
X385610Y-171625D01*
X385472Y-170934D01*
X385081Y-170348D01*
X384494Y-169956D01*
X383803Y-169819D01*
D02*
G37*
G36*
X243500Y-170694D02*
X242809Y-170831D01*
X242223Y-171223D01*
X241831Y-171809D01*
X241694Y-172500D01*
X241831Y-173191D01*
X242223Y-173777D01*
X242809Y-174169D01*
X243500Y-174306D01*
X244191Y-174169D01*
X244777Y-173777D01*
X245169Y-173191D01*
X245306Y-172500D01*
X245169Y-171809D01*
X244777Y-171223D01*
X244191Y-170831D01*
X243500Y-170694D01*
D02*
G37*
G36*
X225332Y-170776D02*
X224641Y-170913D01*
X224055Y-171305D01*
X223663Y-171891D01*
X223526Y-172582D01*
X223663Y-173273D01*
X224055Y-173859D01*
X224641Y-174251D01*
X225332Y-174388D01*
X226023Y-174251D01*
X226609Y-173859D01*
X227001Y-173273D01*
X227138Y-172582D01*
X227001Y-171891D01*
X226609Y-171305D01*
X226023Y-170913D01*
X225332Y-170776D01*
D02*
G37*
G36*
X219332D02*
X218641Y-170913D01*
X218055Y-171305D01*
X217663Y-171891D01*
X217526Y-172582D01*
X217663Y-173273D01*
X218055Y-173859D01*
X218641Y-174251D01*
X219332Y-174388D01*
X220023Y-174251D01*
X220609Y-173859D01*
X221001Y-173273D01*
X221138Y-172582D01*
X221001Y-171891D01*
X220609Y-171305D01*
X220023Y-170913D01*
X219332Y-170776D01*
D02*
G37*
G36*
X288000Y-171694D02*
X287309Y-171831D01*
X286723Y-172223D01*
X286331Y-172809D01*
X286194Y-173500D01*
X286331Y-174191D01*
X286723Y-174777D01*
X287309Y-175169D01*
X288000Y-175306D01*
X288691Y-175169D01*
X289277Y-174777D01*
X289669Y-174191D01*
X289806Y-173500D01*
X289669Y-172809D01*
X289277Y-172223D01*
X288691Y-171831D01*
X288000Y-171694D01*
D02*
G37*
G36*
X206585Y-172026D02*
X205894Y-172164D01*
X205308Y-172555D01*
X204916Y-173142D01*
X204779Y-173833D01*
X204916Y-174524D01*
X205308Y-175110D01*
X205894Y-175502D01*
X206585Y-175639D01*
X207276Y-175502D01*
X207862Y-175110D01*
X208254Y-174524D01*
X208391Y-173833D01*
X208254Y-173142D01*
X207862Y-172555D01*
X207276Y-172164D01*
X206585Y-172026D01*
D02*
G37*
G36*
X298000Y-172694D02*
X297309Y-172831D01*
X296723Y-173223D01*
X296331Y-173809D01*
X296194Y-174500D01*
X296331Y-175191D01*
X296723Y-175777D01*
X297309Y-176169D01*
X298000Y-176306D01*
X298691Y-176169D01*
X299277Y-175777D01*
X299669Y-175191D01*
X299806Y-174500D01*
X299669Y-173809D01*
X299277Y-173223D01*
X298691Y-172831D01*
X298000Y-172694D01*
D02*
G37*
G36*
X107000Y-173694D02*
X106309Y-173831D01*
X105723Y-174223D01*
X105331Y-174809D01*
X105194Y-175500D01*
X105331Y-176191D01*
X105723Y-176777D01*
X106309Y-177169D01*
X107000Y-177306D01*
X107691Y-177169D01*
X108277Y-176777D01*
X108669Y-176191D01*
X108806Y-175500D01*
X108669Y-174809D01*
X108277Y-174223D01*
X107691Y-173831D01*
X107000Y-173694D01*
D02*
G37*
G36*
X255884Y-176194D02*
X255193Y-176331D01*
X254607Y-176723D01*
X254215Y-177309D01*
X254078Y-178000D01*
X254215Y-178691D01*
X254607Y-179277D01*
X255193Y-179669D01*
X255884Y-179806D01*
X256575Y-179669D01*
X257161Y-179277D01*
X257553Y-178691D01*
X257691Y-178000D01*
X257553Y-177309D01*
X257161Y-176723D01*
X256575Y-176331D01*
X255884Y-176194D01*
D02*
G37*
G36*
X164500D02*
X163809Y-176331D01*
X163223Y-176723D01*
X162831Y-177309D01*
X162694Y-178000D01*
X162831Y-178691D01*
X163223Y-179277D01*
X163809Y-179669D01*
X164500Y-179806D01*
X165191Y-179669D01*
X165777Y-179277D01*
X166169Y-178691D01*
X166306Y-178000D01*
X166169Y-177309D01*
X165777Y-176723D01*
X165191Y-176331D01*
X164500Y-176194D01*
D02*
G37*
G36*
X228500Y-176694D02*
X227809Y-176831D01*
X227223Y-177223D01*
X226831Y-177809D01*
X226694Y-178500D01*
X226831Y-179191D01*
X227223Y-179777D01*
X227809Y-180169D01*
X228500Y-180306D01*
X229191Y-180169D01*
X229777Y-179777D01*
X230169Y-179191D01*
X230306Y-178500D01*
X230169Y-177809D01*
X229777Y-177223D01*
X229191Y-176831D01*
X228500Y-176694D01*
D02*
G37*
G36*
X426000Y-177678D02*
X425303Y-177816D01*
X424711Y-178211D01*
X424316Y-178803D01*
X424178Y-179500D01*
X424316Y-180197D01*
X424711Y-180789D01*
X425303Y-181184D01*
X426000Y-181322D01*
X426697Y-181184D01*
X427289Y-180789D01*
X427684Y-180197D01*
X427822Y-179500D01*
X427684Y-178803D01*
X427289Y-178211D01*
X426697Y-177816D01*
X426000Y-177678D01*
D02*
G37*
G36*
X409500D02*
X408803Y-177816D01*
X408211Y-178211D01*
X407816Y-178803D01*
X407678Y-179500D01*
X407816Y-180197D01*
X408211Y-180789D01*
X408803Y-181184D01*
X409500Y-181322D01*
X410197Y-181184D01*
X410789Y-180789D01*
X411184Y-180197D01*
X411322Y-179500D01*
X411184Y-178803D01*
X410789Y-178211D01*
X410197Y-177816D01*
X409500Y-177678D01*
D02*
G37*
G36*
X149000Y-178194D02*
X148309Y-178331D01*
X147723Y-178723D01*
X147331Y-179309D01*
X147194Y-180000D01*
X147331Y-180691D01*
X147723Y-181277D01*
X148309Y-181669D01*
X149000Y-181806D01*
X149691Y-181669D01*
X150277Y-181277D01*
X150669Y-180691D01*
X150806Y-180000D01*
X150669Y-179309D01*
X150277Y-178723D01*
X149691Y-178331D01*
X149000Y-178194D01*
D02*
G37*
G36*
X438000Y-178178D02*
X437303Y-178316D01*
X436711Y-178711D01*
X436316Y-179303D01*
X436178Y-180000D01*
X436316Y-180697D01*
X436711Y-181289D01*
X437303Y-181684D01*
X438000Y-181822D01*
X438697Y-181684D01*
X439289Y-181289D01*
X439684Y-180697D01*
X439822Y-180000D01*
X439684Y-179303D01*
X439289Y-178711D01*
X438697Y-178316D01*
X438000Y-178178D01*
D02*
G37*
G36*
X130848Y-176208D02*
X130157Y-176346D01*
X129571Y-176737D01*
X129179Y-177323D01*
X129042Y-178014D01*
X129179Y-178706D01*
X129539Y-179244D01*
X129572Y-179331D01*
X129597Y-179911D01*
X129331Y-180309D01*
X129194Y-181000D01*
X129331Y-181691D01*
X129723Y-182277D01*
X130309Y-182669D01*
X131000Y-182806D01*
X131691Y-182669D01*
X132277Y-182277D01*
X132669Y-181691D01*
X132806Y-181000D01*
X132669Y-180309D01*
X132309Y-179770D01*
X132276Y-179683D01*
X132251Y-179104D01*
X132517Y-178706D01*
X132654Y-178014D01*
X132517Y-177323D01*
X132125Y-176737D01*
X131539Y-176346D01*
X130848Y-176208D01*
D02*
G37*
G36*
X490000Y-176046D02*
X488977Y-176181D01*
X488023Y-176576D01*
X487204Y-177204D01*
X486576Y-178023D01*
X486181Y-178977D01*
X486046Y-180000D01*
X486181Y-181023D01*
X486576Y-181977D01*
X487204Y-182796D01*
X488023Y-183424D01*
X488977Y-183819D01*
X490000Y-183954D01*
X491023Y-183819D01*
X491977Y-183424D01*
X492796Y-182796D01*
X493424Y-181977D01*
X493819Y-181023D01*
X493954Y-180000D01*
X493819Y-178977D01*
X493424Y-178023D01*
X492796Y-177204D01*
X491977Y-176576D01*
X491023Y-176181D01*
X490000Y-176046D01*
D02*
G37*
G36*
X108000Y-178694D02*
X107309Y-178831D01*
X106723Y-179223D01*
X106331Y-179809D01*
X106194Y-180500D01*
X106305Y-181058D01*
X106206Y-181587D01*
X105620Y-181979D01*
X105229Y-182565D01*
X105091Y-183256D01*
X105229Y-183948D01*
X105620Y-184534D01*
X106206Y-184925D01*
X106897Y-185063D01*
X107589Y-184925D01*
X108175Y-184534D01*
X108566Y-183948D01*
X108704Y-183256D01*
X108593Y-182698D01*
X108691Y-182169D01*
X109277Y-181777D01*
X109669Y-181191D01*
X109806Y-180500D01*
X109669Y-179809D01*
X109277Y-179223D01*
X108691Y-178831D01*
X108000Y-178694D01*
D02*
G37*
G36*
X472000Y-182194D02*
X471309Y-182331D01*
X470723Y-182723D01*
X470331Y-183309D01*
X470194Y-184000D01*
X470331Y-184691D01*
X470723Y-185277D01*
X471309Y-185669D01*
X472000Y-185806D01*
X472691Y-185669D01*
X473277Y-185277D01*
X473669Y-184691D01*
X473806Y-184000D01*
X473669Y-183309D01*
X473277Y-182723D01*
X472691Y-182331D01*
X472000Y-182194D01*
D02*
G37*
G36*
X206085Y-184026D02*
X205394Y-184164D01*
X204808Y-184555D01*
X204416Y-185142D01*
X204279Y-185833D01*
X204416Y-186524D01*
X204808Y-187110D01*
X205394Y-187502D01*
X206085Y-187639D01*
X206776Y-187502D01*
X207362Y-187110D01*
X207754Y-186524D01*
X207891Y-185833D01*
X207754Y-185142D01*
X207362Y-184555D01*
X206776Y-184164D01*
X206085Y-184026D01*
D02*
G37*
G36*
X15560Y-175171D02*
X14325Y-175293D01*
X13138Y-175653D01*
X12043Y-176238D01*
X11084Y-177025D01*
X10297Y-177985D01*
X9712Y-179079D01*
X9352Y-180266D01*
X9230Y-181501D01*
X9352Y-182736D01*
X9712Y-183923D01*
X10297Y-185018D01*
X11084Y-185977D01*
X12043Y-186764D01*
X13138Y-187349D01*
X14325Y-187709D01*
X15560Y-187831D01*
X16795Y-187709D01*
X17982Y-187349D01*
X19076Y-186764D01*
X20036Y-185977D01*
X20823Y-185018D01*
X21408Y-183923D01*
X21768Y-182736D01*
X21890Y-181501D01*
X21768Y-180266D01*
X21408Y-179079D01*
X20823Y-177985D01*
X20036Y-177025D01*
X19076Y-176238D01*
X17982Y-175653D01*
X16795Y-175293D01*
X15560Y-175171D01*
D02*
G37*
G36*
X478800Y-181446D02*
X477777Y-181581D01*
X476823Y-181976D01*
X476004Y-182604D01*
X475376Y-183423D01*
X474981Y-184377D01*
X474846Y-185400D01*
X474981Y-186423D01*
X475376Y-187377D01*
X476004Y-188196D01*
X476823Y-188824D01*
X477777Y-189219D01*
X478800Y-189354D01*
X479823Y-189219D01*
X480777Y-188824D01*
X481596Y-188196D01*
X482224Y-187377D01*
X482619Y-186423D01*
X482754Y-185400D01*
X482619Y-184377D01*
X482224Y-183423D01*
X481596Y-182604D01*
X480777Y-181976D01*
X479823Y-181581D01*
X478800Y-181446D01*
D02*
G37*
G36*
X218000Y-186194D02*
X217309Y-186331D01*
X216723Y-186723D01*
X216331Y-187309D01*
X216194Y-188000D01*
X216331Y-188691D01*
X216723Y-189277D01*
X217309Y-189669D01*
X218000Y-189806D01*
X218691Y-189669D01*
X219277Y-189277D01*
X219669Y-188691D01*
X219806Y-188000D01*
X219669Y-187309D01*
X219277Y-186723D01*
X218691Y-186331D01*
X218000Y-186194D01*
D02*
G37*
G36*
X148000Y-186694D02*
X147309Y-186831D01*
X146723Y-187223D01*
X146331Y-187809D01*
X146194Y-188500D01*
X146331Y-189191D01*
X146723Y-189777D01*
X147309Y-190169D01*
X148000Y-190306D01*
X148691Y-190169D01*
X149277Y-189777D01*
X149669Y-189191D01*
X149806Y-188500D01*
X149669Y-187809D01*
X149277Y-187223D01*
X148691Y-186831D01*
X148000Y-186694D01*
D02*
G37*
G36*
X62500D02*
X61809Y-186831D01*
X61223Y-187223D01*
X60831Y-187809D01*
X60694Y-188500D01*
X60831Y-189191D01*
X61223Y-189777D01*
X61809Y-190169D01*
X62500Y-190306D01*
X63191Y-190169D01*
X63777Y-189777D01*
X64169Y-189191D01*
X64306Y-188500D01*
X64169Y-187809D01*
X63777Y-187223D01*
X63191Y-186831D01*
X62500Y-186694D01*
D02*
G37*
G36*
X213585Y-189026D02*
X212894Y-189164D01*
X212308Y-189556D01*
X211916Y-190141D01*
X211779Y-190833D01*
X211916Y-191524D01*
X212308Y-192110D01*
X212894Y-192502D01*
X213585Y-192639D01*
X214276Y-192502D01*
X214862Y-192110D01*
X215254Y-191524D01*
X215391Y-190833D01*
X215254Y-190141D01*
X214862Y-189556D01*
X214276Y-189164D01*
X213585Y-189026D01*
D02*
G37*
G36*
X391500Y-189694D02*
X390809Y-189831D01*
X390223Y-190223D01*
X389831Y-190809D01*
X389694Y-191500D01*
X389831Y-192191D01*
X390223Y-192777D01*
X390809Y-193169D01*
X391500Y-193306D01*
X392191Y-193169D01*
X392777Y-192777D01*
X393169Y-192191D01*
X393306Y-191500D01*
X393169Y-190809D01*
X392777Y-190223D01*
X392191Y-189831D01*
X391500Y-189694D01*
D02*
G37*
G36*
X490000Y-186846D02*
X488977Y-186981D01*
X488023Y-187376D01*
X487204Y-188004D01*
X486576Y-188823D01*
X486181Y-189777D01*
X486046Y-190800D01*
X486181Y-191823D01*
X486576Y-192777D01*
X487204Y-193596D01*
X488023Y-194224D01*
X488977Y-194619D01*
X490000Y-194754D01*
X491023Y-194619D01*
X491977Y-194224D01*
X492796Y-193596D01*
X493424Y-192777D01*
X493819Y-191823D01*
X493954Y-190800D01*
X493819Y-189777D01*
X493424Y-188823D01*
X492796Y-188004D01*
X491977Y-187376D01*
X491023Y-186981D01*
X490000Y-186846D01*
D02*
G37*
G36*
X320500Y-191694D02*
X319809Y-191831D01*
X319223Y-192223D01*
X318831Y-192809D01*
X318694Y-193500D01*
X318831Y-194191D01*
X319223Y-194777D01*
X319809Y-195169D01*
X320500Y-195306D01*
X321191Y-195169D01*
X321777Y-194777D01*
X322169Y-194191D01*
X322306Y-193500D01*
X322169Y-192809D01*
X321777Y-192223D01*
X321191Y-191831D01*
X320500Y-191694D01*
D02*
G37*
G36*
X222500D02*
X221809Y-191831D01*
X221223Y-192223D01*
X220831Y-192809D01*
X220694Y-193500D01*
X220831Y-194191D01*
X221223Y-194777D01*
X221809Y-195169D01*
X222500Y-195306D01*
X223191Y-195169D01*
X223777Y-194777D01*
X224169Y-194191D01*
X224306Y-193500D01*
X224169Y-192809D01*
X223777Y-192223D01*
X223191Y-191831D01*
X222500Y-191694D01*
D02*
G37*
G36*
X56000D02*
X55309Y-191831D01*
X54723Y-192223D01*
X54331Y-192809D01*
X54194Y-193500D01*
X54331Y-194191D01*
X54723Y-194777D01*
X55309Y-195169D01*
X56000Y-195306D01*
X56691Y-195169D01*
X57277Y-194777D01*
X57669Y-194191D01*
X57806Y-193500D01*
X57669Y-192809D01*
X57277Y-192223D01*
X56691Y-191831D01*
X56000Y-191694D01*
D02*
G37*
G36*
X414281Y-192172D02*
X413584Y-192311D01*
X412992Y-192706D01*
X412597Y-193297D01*
X412459Y-193994D01*
X412597Y-194692D01*
X412992Y-195283D01*
X413584Y-195678D01*
X414281Y-195817D01*
X414978Y-195678D01*
X415570Y-195283D01*
X415965Y-194692D01*
X416103Y-193994D01*
X415965Y-193297D01*
X415570Y-192706D01*
X414978Y-192311D01*
X414281Y-192172D01*
D02*
G37*
G36*
X124810Y-194014D02*
X124119Y-194151D01*
X123533Y-194543D01*
X123142Y-195129D01*
X123004Y-195820D01*
X123031Y-195957D01*
X122892Y-196110D01*
X122592Y-196311D01*
X122000Y-196194D01*
X121309Y-196331D01*
X120723Y-196723D01*
X120331Y-197309D01*
X120194Y-198000D01*
X120331Y-198691D01*
X120723Y-199277D01*
X121309Y-199669D01*
X122000Y-199806D01*
X122691Y-199669D01*
X123277Y-199277D01*
X123669Y-198691D01*
X123806Y-198000D01*
X123779Y-197863D01*
X123918Y-197710D01*
X124218Y-197509D01*
X124810Y-197627D01*
X125502Y-197489D01*
X126088Y-197098D01*
X126479Y-196512D01*
X126617Y-195820D01*
X126479Y-195129D01*
X126088Y-194543D01*
X125502Y-194151D01*
X124810Y-194014D01*
D02*
G37*
G36*
X404537Y-189178D02*
X403839Y-189316D01*
X403248Y-189711D01*
X402853Y-190303D01*
X402714Y-191000D01*
X402853Y-191697D01*
X403248Y-192289D01*
X403470Y-192437D01*
Y-193038D01*
X403211Y-193211D01*
X402816Y-193803D01*
X402678Y-194500D01*
X402816Y-195197D01*
X403211Y-195789D01*
X403803Y-196184D01*
X404500Y-196322D01*
X405197Y-196184D01*
X405789Y-195789D01*
X406184Y-195197D01*
X406322Y-194500D01*
X406184Y-193803D01*
X405789Y-193211D01*
X405567Y-193063D01*
Y-192462D01*
X405826Y-192289D01*
X406220Y-191697D01*
X406359Y-191000D01*
X406220Y-190303D01*
X405826Y-189711D01*
X405234Y-189316D01*
X404537Y-189178D01*
D02*
G37*
G36*
X219085Y-194026D02*
X218394Y-194164D01*
X217808Y-194555D01*
X217416Y-195141D01*
X217279Y-195833D01*
X217416Y-196524D01*
X217808Y-197110D01*
X218394Y-197502D01*
X219085Y-197639D01*
X219776Y-197502D01*
X220362Y-197110D01*
X220754Y-196524D01*
X220891Y-195833D01*
X220754Y-195141D01*
X220362Y-194555D01*
X219776Y-194164D01*
X219085Y-194026D01*
D02*
G37*
G36*
X271500Y-194194D02*
X270809Y-194331D01*
X270223Y-194723D01*
X269831Y-195309D01*
X269694Y-196000D01*
X269831Y-196691D01*
X270223Y-197277D01*
X270809Y-197669D01*
X271500Y-197806D01*
X272191Y-197669D01*
X272777Y-197277D01*
X273169Y-196691D01*
X273306Y-196000D01*
X273169Y-195309D01*
X272777Y-194723D01*
X272191Y-194331D01*
X271500Y-194194D01*
D02*
G37*
G36*
X383500Y-195194D02*
X382809Y-195331D01*
X382223Y-195723D01*
X381831Y-196309D01*
X381694Y-197000D01*
X381831Y-197691D01*
X382223Y-198277D01*
X382809Y-198669D01*
X383500Y-198806D01*
X384191Y-198669D01*
X384777Y-198277D01*
X385169Y-197691D01*
X385306Y-197000D01*
X385169Y-196309D01*
X384777Y-195723D01*
X384191Y-195331D01*
X383500Y-195194D01*
D02*
G37*
G36*
X254500Y-195694D02*
X253809Y-195831D01*
X253223Y-196223D01*
X252831Y-196809D01*
X252694Y-197500D01*
X252831Y-198191D01*
X253223Y-198777D01*
X253809Y-199169D01*
X254500Y-199306D01*
X255191Y-199169D01*
X255777Y-198777D01*
X256169Y-198191D01*
X256306Y-197500D01*
X256169Y-196809D01*
X255777Y-196223D01*
X255191Y-195831D01*
X254500Y-195694D01*
D02*
G37*
G36*
X140500D02*
X139809Y-195831D01*
X139223Y-196223D01*
X138831Y-196809D01*
X138694Y-197500D01*
X138831Y-198191D01*
X139223Y-198777D01*
X139809Y-199169D01*
X140500Y-199306D01*
X141191Y-199169D01*
X141777Y-198777D01*
X142169Y-198191D01*
X142306Y-197500D01*
X142169Y-196809D01*
X141777Y-196223D01*
X141191Y-195831D01*
X140500Y-195694D01*
D02*
G37*
G36*
X407000Y-196178D02*
X406303Y-196316D01*
X405711Y-196711D01*
X405316Y-197303D01*
X405178Y-198000D01*
X405316Y-198697D01*
X405711Y-199289D01*
X406303Y-199684D01*
X407000Y-199822D01*
X407697Y-199684D01*
X408289Y-199289D01*
X408684Y-198697D01*
X408822Y-198000D01*
X408684Y-197303D01*
X408289Y-196711D01*
X407697Y-196316D01*
X407000Y-196178D01*
D02*
G37*
G36*
X478800Y-192246D02*
X477777Y-192381D01*
X476823Y-192776D01*
X476004Y-193404D01*
X475376Y-194223D01*
X474981Y-195177D01*
X474846Y-196200D01*
X474981Y-197223D01*
X475376Y-198177D01*
X476004Y-198996D01*
X476823Y-199624D01*
X477777Y-200019D01*
X478800Y-200154D01*
X479823Y-200019D01*
X480777Y-199624D01*
X481596Y-198996D01*
X482224Y-198177D01*
X482619Y-197223D01*
X482754Y-196200D01*
X482619Y-195177D01*
X482224Y-194223D01*
X481596Y-193404D01*
X480777Y-192776D01*
X479823Y-192381D01*
X478800Y-192246D01*
D02*
G37*
G36*
X164000Y-196694D02*
X163309Y-196831D01*
X162723Y-197223D01*
X162331Y-197809D01*
X162194Y-198500D01*
X162331Y-199191D01*
X162723Y-199777D01*
X163309Y-200169D01*
X164000Y-200306D01*
X164691Y-200169D01*
X165277Y-199777D01*
X165669Y-199191D01*
X165806Y-198500D01*
X165669Y-197809D01*
X165277Y-197223D01*
X164691Y-196831D01*
X164000Y-196694D01*
D02*
G37*
G36*
X26022Y-197022D02*
X25331Y-197160D01*
X24745Y-197551D01*
X24353Y-198137D01*
X24216Y-198829D01*
X24353Y-199520D01*
X24745Y-200106D01*
X25331Y-200498D01*
X26022Y-200635D01*
X26713Y-200498D01*
X27299Y-200106D01*
X27691Y-199520D01*
X27828Y-198829D01*
X27691Y-198137D01*
X27299Y-197551D01*
X26713Y-197160D01*
X26022Y-197022D01*
D02*
G37*
G36*
X297500Y-199194D02*
X296809Y-199331D01*
X296223Y-199723D01*
X295831Y-200309D01*
X295694Y-201000D01*
X295831Y-201691D01*
X296223Y-202277D01*
X296809Y-202669D01*
X297500Y-202806D01*
X298191Y-202669D01*
X298777Y-202277D01*
X299169Y-201691D01*
X299306Y-201000D01*
X299169Y-200309D01*
X298777Y-199723D01*
X298191Y-199331D01*
X297500Y-199194D01*
D02*
G37*
G36*
X403000Y-199694D02*
X402309Y-199831D01*
X401723Y-200223D01*
X401331Y-200809D01*
X401194Y-201500D01*
X401331Y-202191D01*
X401723Y-202777D01*
X402309Y-203169D01*
X403000Y-203306D01*
X403691Y-203169D01*
X404277Y-202777D01*
X404669Y-202191D01*
X404806Y-201500D01*
X404669Y-200809D01*
X404277Y-200223D01*
X403691Y-199831D01*
X403000Y-199694D01*
D02*
G37*
G36*
X322500D02*
X321809Y-199831D01*
X321223Y-200223D01*
X320831Y-200809D01*
X320694Y-201500D01*
X320831Y-202191D01*
X321223Y-202777D01*
X321809Y-203169D01*
X322500Y-203306D01*
X323191Y-203169D01*
X323777Y-202777D01*
X324169Y-202191D01*
X324306Y-201500D01*
X324169Y-200809D01*
X323777Y-200223D01*
X323191Y-199831D01*
X322500Y-199694D01*
D02*
G37*
G36*
X86543Y-196272D02*
X79457D01*
Y-203358D01*
X86543D01*
Y-196272D01*
D02*
G37*
G36*
X278500Y-200694D02*
X277809Y-200831D01*
X277223Y-201223D01*
X276831Y-201809D01*
X276694Y-202500D01*
X276831Y-203191D01*
X277223Y-203777D01*
X277809Y-204169D01*
X278500Y-204306D01*
X279191Y-204169D01*
X279777Y-203777D01*
X280169Y-203191D01*
X280306Y-202500D01*
X280169Y-201809D01*
X279777Y-201223D01*
X279191Y-200831D01*
X278500Y-200694D01*
D02*
G37*
G36*
X145500D02*
X144809Y-200831D01*
X144223Y-201223D01*
X143831Y-201809D01*
X143694Y-202500D01*
X143831Y-203191D01*
X144223Y-203777D01*
X144809Y-204169D01*
X145500Y-204306D01*
X146191Y-204169D01*
X146777Y-203777D01*
X147169Y-203191D01*
X147306Y-202500D01*
X147169Y-201809D01*
X146777Y-201223D01*
X146191Y-200831D01*
X145500Y-200694D01*
D02*
G37*
G36*
X490000Y-197646D02*
X488977Y-197781D01*
X488023Y-198176D01*
X487204Y-198804D01*
X486576Y-199623D01*
X486181Y-200577D01*
X486046Y-201600D01*
X486181Y-202623D01*
X486576Y-203577D01*
X487204Y-204396D01*
X488023Y-205024D01*
X488977Y-205419D01*
X490000Y-205554D01*
X491023Y-205419D01*
X491977Y-205024D01*
X492796Y-204396D01*
X493424Y-203577D01*
X493819Y-202623D01*
X493954Y-201600D01*
X493819Y-200577D01*
X493424Y-199623D01*
X492796Y-198804D01*
X491977Y-198176D01*
X491023Y-197781D01*
X490000Y-197646D01*
D02*
G37*
G36*
X46500Y-203694D02*
X45809Y-203831D01*
X45223Y-204223D01*
X44831Y-204809D01*
X44694Y-205500D01*
X44831Y-206191D01*
X45223Y-206777D01*
X45809Y-207169D01*
X46500Y-207306D01*
X47191Y-207169D01*
X47777Y-206777D01*
X48169Y-206191D01*
X48306Y-205500D01*
X48169Y-204809D01*
X47777Y-204223D01*
X47191Y-203831D01*
X46500Y-203694D01*
D02*
G37*
G36*
X271500Y-204194D02*
X270809Y-204331D01*
X270223Y-204723D01*
X269831Y-205309D01*
X269694Y-206000D01*
X269831Y-206691D01*
X270223Y-207277D01*
X270809Y-207669D01*
X271500Y-207806D01*
X272191Y-207669D01*
X272777Y-207277D01*
X273169Y-206691D01*
X273306Y-206000D01*
X273169Y-205309D01*
X272777Y-204723D01*
X272191Y-204331D01*
X271500Y-204194D01*
D02*
G37*
G36*
X255500D02*
X254809Y-204331D01*
X254223Y-204723D01*
X253831Y-205309D01*
X253694Y-206000D01*
X253831Y-206691D01*
X254223Y-207277D01*
X254809Y-207669D01*
X255500Y-207806D01*
X256191Y-207669D01*
X256777Y-207277D01*
X257169Y-206691D01*
X257306Y-206000D01*
X257169Y-205309D01*
X256777Y-204723D01*
X256191Y-204331D01*
X255500Y-204194D01*
D02*
G37*
G36*
X214500Y-204694D02*
X213809Y-204831D01*
X213223Y-205223D01*
X212831Y-205809D01*
X212694Y-206500D01*
X212831Y-207191D01*
X213223Y-207777D01*
X213809Y-208169D01*
X214500Y-208306D01*
X215191Y-208169D01*
X215777Y-207777D01*
X216169Y-207191D01*
X216306Y-206500D01*
X216169Y-205809D01*
X215777Y-205223D01*
X215191Y-204831D01*
X214500Y-204694D01*
D02*
G37*
G36*
X149500D02*
X148809Y-204831D01*
X148223Y-205223D01*
X147831Y-205809D01*
X147694Y-206500D01*
X147831Y-207191D01*
X148223Y-207777D01*
X148809Y-208169D01*
X149500Y-208306D01*
X150191Y-208169D01*
X150777Y-207777D01*
X151169Y-207191D01*
X151306Y-206500D01*
X151169Y-205809D01*
X150777Y-205223D01*
X150191Y-204831D01*
X149500Y-204694D01*
D02*
G37*
G36*
X459000Y-204678D02*
X458303Y-204816D01*
X457711Y-205211D01*
X457316Y-205803D01*
X457178Y-206500D01*
X457316Y-207197D01*
X457711Y-207789D01*
X458303Y-208184D01*
X459000Y-208322D01*
X459697Y-208184D01*
X460289Y-207789D01*
X460684Y-207197D01*
X460822Y-206500D01*
X460684Y-205803D01*
X460289Y-205211D01*
X459697Y-204816D01*
X459000Y-204678D01*
D02*
G37*
G36*
X154000Y-206194D02*
X153309Y-206331D01*
X152723Y-206723D01*
X152331Y-207309D01*
X152194Y-208000D01*
X152331Y-208691D01*
X152723Y-209277D01*
X153309Y-209669D01*
X154000Y-209806D01*
X154691Y-209669D01*
X155277Y-209277D01*
X155669Y-208691D01*
X155806Y-208000D01*
X155669Y-207309D01*
X155277Y-206723D01*
X154691Y-206331D01*
X154000Y-206194D01*
D02*
G37*
G36*
X437741Y-207844D02*
X437050Y-207982D01*
X436464Y-208373D01*
X436072Y-208959D01*
X435935Y-209651D01*
X436072Y-210342D01*
X436464Y-210928D01*
X437050Y-211319D01*
X437741Y-211457D01*
X438432Y-211319D01*
X439018Y-210928D01*
X439410Y-210342D01*
X439547Y-209651D01*
X439410Y-208959D01*
X439018Y-208373D01*
X438432Y-207982D01*
X437741Y-207844D01*
D02*
G37*
G36*
X290146Y-206107D02*
X289478Y-206195D01*
X288855Y-206453D01*
X288321Y-206863D01*
X287911Y-207398D01*
X287653Y-208021D01*
X287565Y-208689D01*
Y-211321D01*
X287065Y-211581D01*
X286691Y-211331D01*
X286000Y-211194D01*
X285309Y-211331D01*
X284723Y-211723D01*
X284331Y-212309D01*
X284194Y-213000D01*
X284331Y-213691D01*
X284723Y-214277D01*
X285309Y-214669D01*
X286000Y-214806D01*
X286691Y-214669D01*
X287277Y-214277D01*
X287365Y-214146D01*
X287863Y-214195D01*
X287911Y-214310D01*
X288321Y-214844D01*
X288855Y-215255D01*
X289478Y-215512D01*
X290146Y-215600D01*
X290814Y-215512D01*
X291436Y-215255D01*
X291971Y-214844D01*
X292381Y-214310D01*
X292480Y-214070D01*
X292980Y-214170D01*
Y-218964D01*
Y-223286D01*
X292480Y-223386D01*
X292381Y-223146D01*
X291971Y-222611D01*
X291436Y-222201D01*
X290814Y-221943D01*
X290146Y-221855D01*
X289478Y-221943D01*
X288855Y-222201D01*
X288321Y-222611D01*
X287911Y-223146D01*
X287653Y-223769D01*
X287565Y-224437D01*
Y-228767D01*
X287653Y-229435D01*
X287911Y-230058D01*
X288321Y-230592D01*
X288855Y-231003D01*
X289478Y-231260D01*
X290146Y-231348D01*
X290814Y-231260D01*
X291436Y-231003D01*
X291971Y-230592D01*
X292381Y-230058D01*
X292486Y-229804D01*
X292980Y-229791D01*
X293033Y-229791D01*
X296996D01*
Y-226051D01*
Y-222508D01*
Y-218964D01*
Y-215420D01*
Y-211681D01*
Y-207665D01*
X293033D01*
X292980Y-207665D01*
X292486Y-207651D01*
X292381Y-207398D01*
X291971Y-206863D01*
X291436Y-206453D01*
X290814Y-206195D01*
X290146Y-206107D01*
D02*
G37*
G36*
X471000Y-208194D02*
X470309Y-208331D01*
X469723Y-208723D01*
X469331Y-209309D01*
X469194Y-210000D01*
X469331Y-210691D01*
X469723Y-211277D01*
X470309Y-211669D01*
X471000Y-211806D01*
X471691Y-211669D01*
X472277Y-211277D01*
X472669Y-210691D01*
X472806Y-210000D01*
X472669Y-209309D01*
X472277Y-208723D01*
X471691Y-208331D01*
X471000Y-208194D01*
D02*
G37*
G36*
X425000D02*
X424309Y-208331D01*
X423723Y-208723D01*
X423331Y-209309D01*
X423194Y-210000D01*
X423331Y-210691D01*
X423723Y-211277D01*
X424309Y-211669D01*
X425000Y-211806D01*
X425691Y-211669D01*
X426277Y-211277D01*
X426669Y-210691D01*
X426806Y-210000D01*
X426669Y-209309D01*
X426277Y-208723D01*
X425691Y-208331D01*
X425000Y-208194D01*
D02*
G37*
G36*
X202500D02*
X201809Y-208331D01*
X201223Y-208723D01*
X200831Y-209309D01*
X200694Y-210000D01*
X200831Y-210691D01*
X201223Y-211277D01*
X201809Y-211669D01*
X202500Y-211806D01*
X203191Y-211669D01*
X203777Y-211277D01*
X204169Y-210691D01*
X204306Y-210000D01*
X204169Y-209309D01*
X203777Y-208723D01*
X203191Y-208331D01*
X202500Y-208194D01*
D02*
G37*
G36*
X59500D02*
X58809Y-208331D01*
X58223Y-208723D01*
X57831Y-209309D01*
X57694Y-210000D01*
X57831Y-210691D01*
X58223Y-211277D01*
X58809Y-211669D01*
X59500Y-211806D01*
X60191Y-211669D01*
X60777Y-211277D01*
X61169Y-210691D01*
X61306Y-210000D01*
X61169Y-209309D01*
X60777Y-208723D01*
X60191Y-208331D01*
X59500Y-208194D01*
D02*
G37*
G36*
X83000Y-206084D02*
X82075Y-206205D01*
X81213Y-206562D01*
X80473Y-207130D01*
X79905Y-207871D01*
X79548Y-208733D01*
X79426Y-209658D01*
X79548Y-210582D01*
X79905Y-211444D01*
X80473Y-212185D01*
X81213Y-212753D01*
X82075Y-213110D01*
X83000Y-213231D01*
X83925Y-213110D01*
X84787Y-212753D01*
X85527Y-212185D01*
X86095Y-211444D01*
X86452Y-210582D01*
X86574Y-209658D01*
X86452Y-208733D01*
X86095Y-207871D01*
X85527Y-207130D01*
X84787Y-206562D01*
X83925Y-206205D01*
X83000Y-206084D01*
D02*
G37*
G36*
X109793Y-210690D02*
X109102Y-210828D01*
X108516Y-211220D01*
X108124Y-211806D01*
X107986Y-212497D01*
X108124Y-213188D01*
X108516Y-213774D01*
X109102Y-214166D01*
X109793Y-214303D01*
X110484Y-214166D01*
X111070Y-213774D01*
X111462Y-213188D01*
X111599Y-212497D01*
X111462Y-211806D01*
X111070Y-211220D01*
X110484Y-210828D01*
X109793Y-210690D01*
D02*
G37*
G36*
X175500Y-210694D02*
X174809Y-210831D01*
X174223Y-211223D01*
X173831Y-211809D01*
X173694Y-212500D01*
X173831Y-213191D01*
X174223Y-213777D01*
X174809Y-214169D01*
X175500Y-214306D01*
X176191Y-214169D01*
X176777Y-213777D01*
X177169Y-213191D01*
X177306Y-212500D01*
X177169Y-211809D01*
X176777Y-211223D01*
X176191Y-210831D01*
X175500Y-210694D01*
D02*
G37*
G36*
X342000Y-211194D02*
X341309Y-211331D01*
X340723Y-211723D01*
X340331Y-212309D01*
X340194Y-213000D01*
X340331Y-213691D01*
X340723Y-214277D01*
X341309Y-214669D01*
X342000Y-214806D01*
X342691Y-214669D01*
X343277Y-214277D01*
X343669Y-213691D01*
X343806Y-213000D01*
X343669Y-212309D01*
X343277Y-211723D01*
X342691Y-211331D01*
X342000Y-211194D01*
D02*
G37*
G36*
X384000Y-211694D02*
X383309Y-211831D01*
X382723Y-212223D01*
X382331Y-212809D01*
X382194Y-213500D01*
X382331Y-214191D01*
X382723Y-214777D01*
X383309Y-215169D01*
X384000Y-215306D01*
X384691Y-215169D01*
X385277Y-214777D01*
X385669Y-214191D01*
X385806Y-213500D01*
X385669Y-212809D01*
X385277Y-212223D01*
X384691Y-211831D01*
X384000Y-211694D01*
D02*
G37*
G36*
X250500D02*
X249809Y-211831D01*
X249223Y-212223D01*
X248831Y-212809D01*
X248694Y-213500D01*
X248831Y-214191D01*
X249223Y-214777D01*
X249809Y-215169D01*
X250500Y-215306D01*
X251191Y-215169D01*
X251777Y-214777D01*
X252169Y-214191D01*
X252306Y-213500D01*
X252169Y-212809D01*
X251777Y-212223D01*
X251191Y-211831D01*
X250500Y-211694D01*
D02*
G37*
G36*
X330343Y-206107D02*
X329675Y-206195D01*
X329052Y-206453D01*
X328518Y-206863D01*
X328107Y-207398D01*
X328002Y-207651D01*
X327508Y-207665D01*
X327456Y-207665D01*
X323492D01*
Y-211681D01*
Y-215420D01*
Y-218964D01*
Y-222508D01*
Y-226051D01*
Y-229791D01*
X327455D01*
X327508Y-229791D01*
X328002Y-229804D01*
X328107Y-230058D01*
X328518Y-230592D01*
X329052Y-231003D01*
X329675Y-231260D01*
X330343Y-231348D01*
X331011Y-231260D01*
X331633Y-231003D01*
X332168Y-230592D01*
X332578Y-230058D01*
X332836Y-229435D01*
X332924Y-228767D01*
Y-224437D01*
X332836Y-223769D01*
X332578Y-223146D01*
X332168Y-222611D01*
X331633Y-222201D01*
X331011Y-221943D01*
X330343Y-221855D01*
X329675Y-221943D01*
X329052Y-222201D01*
X328518Y-222611D01*
X328107Y-223146D01*
X328008Y-223386D01*
X327508Y-223286D01*
Y-218964D01*
Y-214170D01*
X328008Y-214070D01*
X328107Y-214310D01*
X328518Y-214844D01*
X329052Y-215255D01*
X329675Y-215512D01*
X330343Y-215600D01*
X331011Y-215512D01*
X331633Y-215255D01*
X332168Y-214844D01*
X332578Y-214310D01*
X332836Y-213687D01*
X332924Y-213019D01*
Y-208689D01*
X332836Y-208021D01*
X332578Y-207398D01*
X332168Y-206863D01*
X331633Y-206453D01*
X331011Y-206195D01*
X330343Y-206107D01*
D02*
G37*
G36*
X305343D02*
X304675Y-206195D01*
X304052Y-206453D01*
X303518Y-206863D01*
X303107Y-207398D01*
X303002Y-207651D01*
X302508Y-207665D01*
X302456Y-207665D01*
X298492D01*
Y-211681D01*
Y-215420D01*
Y-218964D01*
Y-222508D01*
Y-226051D01*
Y-229791D01*
X302455D01*
X302508Y-229791D01*
X303002Y-229804D01*
X303107Y-230058D01*
X303518Y-230592D01*
X304052Y-231003D01*
X304675Y-231260D01*
X305343Y-231348D01*
X306011Y-231260D01*
X306633Y-231003D01*
X307168Y-230592D01*
X307578Y-230058D01*
X307836Y-229435D01*
X307924Y-228767D01*
Y-224437D01*
X307836Y-223769D01*
X307578Y-223146D01*
X307168Y-222611D01*
X306633Y-222201D01*
X306011Y-221943D01*
X305343Y-221855D01*
X304675Y-221943D01*
X304052Y-222201D01*
X303518Y-222611D01*
X303107Y-223146D01*
X303008Y-223386D01*
X302508Y-223287D01*
Y-218964D01*
Y-214169D01*
X303008Y-214070D01*
X303107Y-214310D01*
X303518Y-214844D01*
X304052Y-215255D01*
X304675Y-215512D01*
X305343Y-215600D01*
X306011Y-215512D01*
X306633Y-215255D01*
X307168Y-214844D01*
X307578Y-214310D01*
X307836Y-213687D01*
X307924Y-213019D01*
Y-208689D01*
X307836Y-208021D01*
X307578Y-207398D01*
X307168Y-206863D01*
X306633Y-206453D01*
X306011Y-206195D01*
X305343Y-206107D01*
D02*
G37*
G36*
X416000Y-212194D02*
X415309Y-212331D01*
X414723Y-212723D01*
X414331Y-213309D01*
X414194Y-214000D01*
X414331Y-214691D01*
X414723Y-215277D01*
X415309Y-215669D01*
X416000Y-215806D01*
X416691Y-215669D01*
X417277Y-215277D01*
X417669Y-214691D01*
X417806Y-214000D01*
X417669Y-213309D01*
X417277Y-212723D01*
X416691Y-212331D01*
X416000Y-212194D01*
D02*
G37*
G36*
X355600Y-200463D02*
X355400D01*
X354411Y-200594D01*
X353490Y-200975D01*
X352699Y-201582D01*
X352092Y-202373D01*
X351710Y-203295D01*
X351580Y-204283D01*
X351710Y-205272D01*
X352092Y-206193D01*
X352699Y-206985D01*
X353490Y-207592D01*
X354411Y-207973D01*
Y-208468D01*
X353490Y-208849D01*
X352699Y-209456D01*
X352092Y-210247D01*
X351710Y-211169D01*
X351580Y-212158D01*
X351710Y-213146D01*
X352092Y-214068D01*
X352699Y-214859D01*
X353490Y-215466D01*
X354411Y-215847D01*
X355400Y-215978D01*
X355600D01*
X356589Y-215847D01*
X357510Y-215466D01*
X358301Y-214859D01*
X358908Y-214068D01*
X359290Y-213146D01*
X359420Y-212158D01*
X359290Y-211169D01*
X358908Y-210247D01*
X358301Y-209456D01*
X357510Y-208849D01*
X356589Y-208468D01*
Y-207973D01*
X357510Y-207592D01*
X358301Y-206985D01*
X358908Y-206193D01*
X359290Y-205272D01*
X359420Y-204283D01*
X359290Y-203295D01*
X358908Y-202373D01*
X358301Y-201582D01*
X357510Y-200975D01*
X356589Y-200594D01*
X355600Y-200463D01*
D02*
G37*
G36*
X191500Y-214694D02*
X190809Y-214831D01*
X190223Y-215223D01*
X189831Y-215809D01*
X189694Y-216500D01*
X189831Y-217191D01*
X190223Y-217777D01*
X190809Y-218169D01*
X191500Y-218306D01*
X192191Y-218169D01*
X192777Y-217777D01*
X193169Y-217191D01*
X193306Y-216500D01*
X193169Y-215809D01*
X192777Y-215223D01*
X192191Y-214831D01*
X191500Y-214694D01*
D02*
G37*
G36*
X245268Y-211795D02*
X235819D01*
Y-218488D01*
X245268D01*
Y-211795D01*
D02*
G37*
G36*
X396500Y-215194D02*
X395809Y-215331D01*
X395223Y-215723D01*
X394831Y-216309D01*
X394694Y-217000D01*
X394831Y-217691D01*
X395223Y-218277D01*
X395809Y-218669D01*
X396500Y-218806D01*
X397191Y-218669D01*
X397777Y-218277D01*
X398169Y-217691D01*
X398306Y-217000D01*
X398169Y-216309D01*
X397777Y-215723D01*
X397191Y-215331D01*
X396500Y-215194D01*
D02*
G37*
G36*
X143500D02*
X142809Y-215331D01*
X142223Y-215723D01*
X141831Y-216309D01*
X141694Y-217000D01*
X141831Y-217691D01*
X142223Y-218277D01*
X142809Y-218669D01*
X143500Y-218806D01*
X144191Y-218669D01*
X144777Y-218277D01*
X145169Y-217691D01*
X145306Y-217000D01*
X145169Y-216309D01*
X144777Y-215723D01*
X144191Y-215331D01*
X143500Y-215194D01*
D02*
G37*
G36*
X83000Y-215926D02*
X82075Y-216048D01*
X81213Y-216405D01*
X80473Y-216973D01*
X79905Y-217713D01*
X79548Y-218575D01*
X79426Y-219500D01*
X79548Y-220425D01*
X79905Y-221287D01*
X80473Y-222027D01*
X81213Y-222595D01*
X82075Y-222952D01*
X83000Y-223074D01*
X83925Y-222952D01*
X84787Y-222595D01*
X85527Y-222027D01*
X86095Y-221287D01*
X86452Y-220425D01*
X86574Y-219500D01*
X86452Y-218575D01*
X86095Y-217713D01*
X85527Y-216973D01*
X84787Y-216405D01*
X83925Y-216048D01*
X83000Y-215926D01*
D02*
G37*
G36*
X315146Y-206107D02*
X314478Y-206195D01*
X313855Y-206453D01*
X313321Y-206863D01*
X312911Y-207398D01*
X312653Y-208021D01*
X312565Y-208689D01*
Y-213019D01*
X312653Y-213687D01*
X312911Y-214310D01*
X313321Y-214844D01*
X313855Y-215255D01*
X314478Y-215512D01*
X315146Y-215600D01*
X315814Y-215512D01*
X316436Y-215255D01*
X316971Y-214844D01*
X317381Y-214310D01*
X317480Y-214070D01*
X317981Y-214169D01*
Y-218964D01*
Y-223287D01*
X317480Y-223386D01*
X317381Y-223146D01*
X316971Y-222611D01*
X316436Y-222201D01*
X315814Y-221943D01*
X315146Y-221855D01*
X314478Y-221943D01*
X313855Y-222201D01*
X313321Y-222611D01*
X312911Y-223146D01*
X312653Y-223769D01*
X312565Y-224437D01*
Y-228767D01*
X312653Y-229435D01*
X312911Y-230058D01*
X313321Y-230592D01*
X313855Y-231003D01*
X314478Y-231260D01*
X315146Y-231348D01*
X315814Y-231260D01*
X316436Y-231003D01*
X316971Y-230592D01*
X317381Y-230058D01*
X317486Y-229804D01*
X317981Y-229791D01*
X318033Y-229791D01*
X321996D01*
Y-226051D01*
Y-222508D01*
Y-218964D01*
Y-215420D01*
Y-211681D01*
Y-207665D01*
X318033D01*
X317981Y-207665D01*
X317486Y-207651D01*
X317381Y-207398D01*
X316971Y-206863D01*
X316436Y-206453D01*
X315814Y-206195D01*
X315146Y-206107D01*
D02*
G37*
G36*
X16500Y-213536D02*
X15215Y-213705D01*
X14018Y-214201D01*
X12990Y-214990D01*
X12201Y-216018D01*
X11705Y-217215D01*
X11536Y-218500D01*
X11705Y-219785D01*
X12201Y-220982D01*
X12990Y-222010D01*
X14018Y-222799D01*
X15215Y-223295D01*
X16500Y-223464D01*
X17785Y-223295D01*
X18982Y-222799D01*
X20010Y-222010D01*
X20799Y-220982D01*
X21295Y-219785D01*
X21464Y-218500D01*
X21295Y-217215D01*
X20799Y-216018D01*
X20010Y-214990D01*
X18982Y-214201D01*
X17785Y-213705D01*
X16500Y-213536D01*
D02*
G37*
G36*
X214389Y-220268D02*
X213698Y-220405D01*
X213112Y-220797D01*
X212720Y-221383D01*
X212583Y-222074D01*
X212720Y-222765D01*
X213112Y-223351D01*
X213698Y-223743D01*
X214389Y-223880D01*
X215080Y-223743D01*
X215666Y-223351D01*
X216058Y-222765D01*
X216196Y-222074D01*
X216058Y-221383D01*
X215666Y-220797D01*
X215080Y-220405D01*
X214389Y-220268D01*
D02*
G37*
G36*
X209877Y-220490D02*
X209186Y-220628D01*
X208600Y-221019D01*
X208208Y-221605D01*
X208071Y-222297D01*
X208208Y-222988D01*
X208600Y-223574D01*
X209186Y-223965D01*
X209877Y-224103D01*
X210569Y-223965D01*
X211155Y-223574D01*
X211546Y-222988D01*
X211684Y-222297D01*
X211546Y-221605D01*
X211155Y-221019D01*
X210569Y-220628D01*
X209877Y-220490D01*
D02*
G37*
G36*
X278500Y-220694D02*
X277809Y-220831D01*
X277223Y-221223D01*
X276831Y-221809D01*
X276694Y-222500D01*
X276831Y-223191D01*
X277223Y-223777D01*
X277809Y-224169D01*
X278500Y-224306D01*
X279191Y-224169D01*
X279777Y-223777D01*
X280169Y-223191D01*
X280306Y-222500D01*
X280169Y-221809D01*
X279777Y-221223D01*
X279191Y-220831D01*
X278500Y-220694D01*
D02*
G37*
G36*
X227551Y-220823D02*
X226729Y-220932D01*
X225963Y-221249D01*
X225305Y-221754D01*
X224800Y-222412D01*
X224483Y-223178D01*
X224374Y-224000D01*
X224474Y-224752D01*
X224317Y-224914D01*
X224042Y-225066D01*
X223691Y-224831D01*
X223000Y-224694D01*
X222309Y-224831D01*
X221723Y-225223D01*
X221331Y-225809D01*
X221194Y-226500D01*
X221331Y-227191D01*
X221723Y-227777D01*
X222309Y-228169D01*
X223000Y-228306D01*
X223691Y-228169D01*
X224277Y-227777D01*
X224669Y-227191D01*
X224806Y-226500D01*
X224784Y-226389D01*
X225252Y-226177D01*
X225305Y-226246D01*
X225963Y-226751D01*
X226729Y-227068D01*
X227551Y-227177D01*
X228373Y-227068D01*
X229140Y-226751D01*
X229798Y-226246D01*
X230302Y-225588D01*
X230620Y-224822D01*
X230728Y-224000D01*
X230620Y-223178D01*
X230302Y-222412D01*
X229798Y-221754D01*
X229140Y-221249D01*
X228373Y-220932D01*
X227551Y-220823D01*
D02*
G37*
G36*
X355600Y-218180D02*
X355400D01*
X354411Y-218310D01*
X353490Y-218692D01*
X352699Y-219299D01*
X352092Y-220090D01*
X351710Y-221011D01*
X351580Y-222000D01*
X351710Y-222989D01*
X352092Y-223910D01*
X352699Y-224701D01*
X353490Y-225308D01*
X354411Y-225690D01*
X355400Y-225820D01*
X355600D01*
X356589Y-225690D01*
X357510Y-225308D01*
X358301Y-224701D01*
X358908Y-223910D01*
X359290Y-222989D01*
X359420Y-222000D01*
X359290Y-221011D01*
X358908Y-220090D01*
X358301Y-219299D01*
X357510Y-218692D01*
X356589Y-218310D01*
X355600Y-218180D01*
D02*
G37*
G36*
X160000Y-224694D02*
X159309Y-224831D01*
X158723Y-225223D01*
X158331Y-225809D01*
X158194Y-226500D01*
X158331Y-227191D01*
X158723Y-227777D01*
X159309Y-228169D01*
X160000Y-228306D01*
X160691Y-228169D01*
X161277Y-227777D01*
X161669Y-227191D01*
X161806Y-226500D01*
X161669Y-225809D01*
X161277Y-225223D01*
X160691Y-224831D01*
X160000Y-224694D01*
D02*
G37*
G36*
X249402Y-219276D02*
X242709D01*
Y-228724D01*
X249402D01*
Y-219276D01*
D02*
G37*
G36*
X138233Y-225195D02*
X137542Y-225332D01*
X136956Y-225724D01*
X136564Y-226310D01*
X136427Y-227001D01*
X136564Y-227692D01*
X136956Y-228278D01*
X137542Y-228670D01*
X138233Y-228807D01*
X138925Y-228670D01*
X139511Y-228278D01*
X139902Y-227692D01*
X140040Y-227001D01*
X139902Y-226310D01*
X139511Y-225724D01*
X138925Y-225332D01*
X138233Y-225195D01*
D02*
G37*
G36*
X191000Y-226194D02*
X190309Y-226331D01*
X189723Y-226723D01*
X189331Y-227309D01*
X189194Y-228000D01*
X189331Y-228691D01*
X189723Y-229277D01*
X190309Y-229669D01*
X191000Y-229806D01*
X191691Y-229669D01*
X192277Y-229277D01*
X192669Y-228691D01*
X192806Y-228000D01*
X192669Y-227309D01*
X192277Y-226723D01*
X191691Y-226331D01*
X191000Y-226194D01*
D02*
G37*
G36*
X263400Y-222685D02*
X258600D01*
X258059Y-222793D01*
X257600Y-223100D01*
X257293Y-223559D01*
X257185Y-224100D01*
Y-228900D01*
X257293Y-229441D01*
X257600Y-229900D01*
X258059Y-230207D01*
X258600Y-230315D01*
X263400D01*
X263941Y-230207D01*
X264400Y-229900D01*
X264707Y-229441D01*
X264815Y-228900D01*
Y-224100D01*
X264707Y-223559D01*
X264400Y-223100D01*
X263941Y-222793D01*
X263400Y-222685D01*
D02*
G37*
G36*
X226750Y-228944D02*
X226059Y-229081D01*
X225473Y-229473D01*
X225081Y-230059D01*
X224944Y-230750D01*
X225081Y-231441D01*
X225473Y-232027D01*
X226059Y-232419D01*
X226750Y-232556D01*
X227441Y-232419D01*
X228027Y-232027D01*
X228419Y-231441D01*
X228556Y-230750D01*
X228419Y-230059D01*
X228027Y-229473D01*
X227441Y-229081D01*
X226750Y-228944D01*
D02*
G37*
G36*
X97500D02*
X96809Y-229081D01*
X96223Y-229473D01*
X95831Y-230059D01*
X95694Y-230750D01*
X95831Y-231441D01*
X96223Y-232027D01*
X96809Y-232419D01*
X97500Y-232556D01*
X98191Y-232419D01*
X98777Y-232027D01*
X99169Y-231441D01*
X99306Y-230750D01*
X99169Y-230059D01*
X98777Y-229473D01*
X98191Y-229081D01*
X97500Y-228944D01*
D02*
G37*
G36*
X83000Y-225769D02*
X82075Y-225890D01*
X81213Y-226248D01*
X80473Y-226815D01*
X79905Y-227556D01*
X79548Y-228417D01*
X79426Y-229343D01*
X79548Y-230268D01*
X79905Y-231130D01*
X80473Y-231870D01*
X81213Y-232438D01*
X82075Y-232795D01*
X83000Y-232916D01*
X83925Y-232795D01*
X84787Y-232438D01*
X85527Y-231870D01*
X86095Y-231130D01*
X86452Y-230268D01*
X86574Y-229343D01*
X86452Y-228417D01*
X86095Y-227556D01*
X85527Y-226815D01*
X84787Y-226248D01*
X83925Y-225890D01*
X83000Y-225769D01*
D02*
G37*
G36*
X253000Y-231194D02*
X252309Y-231331D01*
X251723Y-231723D01*
X251331Y-232309D01*
X251194Y-233000D01*
X251331Y-233691D01*
X251723Y-234277D01*
X252309Y-234669D01*
X253000Y-234806D01*
X253691Y-234669D01*
X254277Y-234277D01*
X254669Y-233691D01*
X254806Y-233000D01*
X254669Y-232309D01*
X254277Y-231723D01*
X253691Y-231331D01*
X253000Y-231194D01*
D02*
G37*
G36*
X275500Y-232194D02*
X274809Y-232331D01*
X274223Y-232723D01*
X273831Y-233309D01*
X273694Y-234000D01*
X273831Y-234691D01*
X274223Y-235277D01*
X274809Y-235669D01*
X275500Y-235806D01*
X276191Y-235669D01*
X276777Y-235277D01*
X277169Y-234691D01*
X277306Y-234000D01*
X277169Y-233309D01*
X276777Y-232723D01*
X276191Y-232331D01*
X275500Y-232194D01*
D02*
G37*
G36*
X245268Y-229512D02*
X235819D01*
Y-236205D01*
X245268D01*
Y-229512D01*
D02*
G37*
G36*
X210017Y-234138D02*
X209326Y-234275D01*
X208740Y-234667D01*
X208348Y-235253D01*
X208211Y-235944D01*
X208348Y-236635D01*
X208740Y-237221D01*
X209326Y-237613D01*
X210017Y-237751D01*
X210709Y-237613D01*
X211295Y-237221D01*
X211686Y-236635D01*
X211824Y-235944D01*
X211686Y-235253D01*
X211295Y-234667D01*
X210709Y-234275D01*
X210017Y-234138D01*
D02*
G37*
G36*
X21421Y-228579D02*
X11579D01*
Y-238421D01*
X21421D01*
Y-228579D01*
D02*
G37*
%LPD*%
D115*
X484400Y-229200D02*
D03*
Y-130800D02*
D03*
D118*
X478800Y-174600D02*
D03*
D130*
X293000Y-73500D02*
D03*
D163*
X325500Y-231524D02*
D03*
Y-205932D02*
D03*
X319988D02*
D03*
Y-231524D02*
D03*
X300500D02*
D03*
Y-205932D02*
D03*
X294988D02*
D03*
Y-231524D02*
D03*
D164*
X47059Y-228594D02*
D03*
X103059Y-13595D02*
D03*
X504315Y-93094D02*
D03*
D166*
X268500Y-76000D02*
D03*
Y-71000D02*
D03*
Y-66000D02*
D03*
Y-61000D02*
D03*
D169*
X271000Y-226500D02*
D03*
D171*
X366169Y-182354D02*
D03*
Y-234087D02*
D03*
D172*
X355500Y-194441D02*
D03*
D173*
X34500Y-34000D02*
D03*
D178*
X60815Y-8000D02*
D03*
X80500D02*
D03*
D181*
X331063Y-73374D02*
D03*
X323189D02*
D03*
X317027Y-194902D02*
D03*
X319329Y-77681D02*
D03*
X321220Y-61563D02*
D03*
X323189Y-57626D02*
D03*
X319252D02*
D03*
X331063D02*
D03*
X319252Y-65500D02*
D03*
X27842Y-47980D02*
D03*
X21520Y-47643D02*
D03*
X261000Y-101884D02*
D03*
X260650Y-110684D02*
D03*
X318256Y-109819D02*
D03*
X375329Y-109681D02*
D03*
X315315Y-81248D02*
D03*
X319252D02*
D03*
X387893Y-76792D02*
D03*
X317284Y-85185D02*
D03*
X259002Y-85914D02*
D03*
X257002Y-58914D02*
D03*
X100756Y-124819D02*
D03*
X32756Y-25319D02*
D03*
X40756D02*
D03*
X224756Y-127319D02*
D03*
X212256Y-123819D02*
D03*
X203756D02*
D03*
X218756Y-123319D02*
D03*
X256256Y-157819D02*
D03*
X262756D02*
D03*
X267256D02*
D03*
X271756D02*
D03*
X277756Y-93319D02*
D03*
X261000Y-116425D02*
D03*
Y-146500D02*
D03*
X228444Y-133065D02*
D03*
X261000Y-138000D02*
D03*
X517814Y-53170D02*
D03*
X511909Y-64981D02*
D03*
X517814Y-76792D02*
D03*
Y-100414D02*
D03*
X511909Y-112225D02*
D03*
X517814Y-124036D02*
D03*
X511909Y-135847D02*
D03*
X517814Y-147658D02*
D03*
X511909Y-159469D02*
D03*
X517814Y-171280D02*
D03*
X511909Y-183091D02*
D03*
X517814Y-194902D02*
D03*
X511909Y-206713D02*
D03*
X517814Y-218524D02*
D03*
X511909Y-230335D02*
D03*
X500098Y-64981D02*
D03*
X506003Y-76792D02*
D03*
X500098Y-112225D02*
D03*
X506003Y-124036D02*
D03*
X500098Y-135847D02*
D03*
X506003Y-147658D02*
D03*
X500098Y-159469D02*
D03*
X506003Y-171280D02*
D03*
X500098Y-183091D02*
D03*
X506003Y-194902D02*
D03*
X500098Y-206713D02*
D03*
X506003Y-218524D02*
D03*
X500098Y-230335D02*
D03*
X488287Y-64981D02*
D03*
X494192Y-76792D02*
D03*
X488287Y-88603D02*
D03*
X494192Y-100414D02*
D03*
X488287Y-112225D02*
D03*
X494192Y-124036D02*
D03*
Y-147658D02*
D03*
Y-194902D02*
D03*
Y-218524D02*
D03*
X476476Y-64981D02*
D03*
X482381Y-76792D02*
D03*
X476476Y-88603D02*
D03*
X482381Y-100414D02*
D03*
X476476Y-112225D02*
D03*
X482381Y-147658D02*
D03*
Y-218524D02*
D03*
X464665Y-64981D02*
D03*
X470570Y-76792D02*
D03*
X464665Y-88603D02*
D03*
X470570Y-100414D02*
D03*
X464665Y-112225D02*
D03*
X470570Y-124036D02*
D03*
X464665Y-135847D02*
D03*
X470570Y-147658D02*
D03*
Y-218524D02*
D03*
X464665Y-230335D02*
D03*
X452854Y-64981D02*
D03*
X458759Y-76792D02*
D03*
X452854Y-88603D02*
D03*
X458759Y-100414D02*
D03*
X452854Y-112225D02*
D03*
X458759Y-124036D02*
D03*
X452854Y-135847D02*
D03*
X458759Y-147658D02*
D03*
X452854Y-159469D02*
D03*
X458759Y-194902D02*
D03*
Y-218524D02*
D03*
X452854Y-230335D02*
D03*
X441043Y-64981D02*
D03*
X446948Y-76792D02*
D03*
X441043Y-88603D02*
D03*
X446948Y-100414D02*
D03*
X441043Y-112225D02*
D03*
X446948Y-124036D02*
D03*
X441043Y-135847D02*
D03*
X446948Y-147658D02*
D03*
X441043Y-159469D02*
D03*
X446948Y-218524D02*
D03*
X429232Y-64981D02*
D03*
X435137Y-76792D02*
D03*
X429232Y-88603D02*
D03*
X435137Y-100414D02*
D03*
Y-124036D02*
D03*
Y-147658D02*
D03*
X429232Y-159469D02*
D03*
X435137Y-171280D02*
D03*
X417421Y-64981D02*
D03*
X423326Y-76792D02*
D03*
Y-100414D02*
D03*
Y-124036D02*
D03*
X417421Y-159469D02*
D03*
Y-183091D02*
D03*
Y-230335D02*
D03*
X405610Y-64981D02*
D03*
X411515Y-76792D02*
D03*
X405610Y-230335D02*
D03*
X393799Y-64981D02*
D03*
X399704Y-76792D02*
D03*
X393799Y-159469D02*
D03*
Y-183091D02*
D03*
X399704Y-194902D02*
D03*
X393799Y-230335D02*
D03*
X381988Y-64981D02*
D03*
Y-159469D02*
D03*
Y-230335D02*
D03*
X370177Y-64981D02*
D03*
X376082Y-76792D02*
D03*
X370177Y-112225D02*
D03*
X376082Y-124036D02*
D03*
X370177Y-135847D02*
D03*
X376082Y-147658D02*
D03*
X370177Y-159469D02*
D03*
Y-206713D02*
D03*
X376082Y-218524D02*
D03*
X358366Y-64981D02*
D03*
X364271Y-76792D02*
D03*
X358366Y-112225D02*
D03*
X364271Y-124036D02*
D03*
X358366Y-135847D02*
D03*
Y-159469D02*
D03*
Y-183091D02*
D03*
X364271Y-218524D02*
D03*
X358366Y-230335D02*
D03*
X346554Y-64981D02*
D03*
X352460Y-76792D02*
D03*
X346554Y-112225D02*
D03*
X352460Y-124036D02*
D03*
X346554Y-135847D02*
D03*
Y-159469D02*
D03*
Y-183091D02*
D03*
Y-230335D02*
D03*
X340649Y-76792D02*
D03*
X334743Y-112225D02*
D03*
X340649Y-124036D02*
D03*
X334743Y-135847D02*
D03*
Y-159469D02*
D03*
Y-183091D02*
D03*
Y-230335D02*
D03*
X322933Y-112225D02*
D03*
X328838Y-124036D02*
D03*
X322933Y-135847D02*
D03*
Y-183091D02*
D03*
X328838Y-218524D02*
D03*
X311121Y-64981D02*
D03*
X317027Y-147658D02*
D03*
X311121Y-159469D02*
D03*
Y-183091D02*
D03*
Y-206713D02*
D03*
Y-230335D02*
D03*
X299310Y-64981D02*
D03*
X305216Y-76792D02*
D03*
X293405Y-124036D02*
D03*
Y-147658D02*
D03*
X287499Y-159469D02*
D03*
Y-183091D02*
D03*
X281594Y-124036D02*
D03*
X275688Y-135847D02*
D03*
X281594Y-147658D02*
D03*
X275688Y-159469D02*
D03*
Y-206713D02*
D03*
X269783Y-171280D02*
D03*
X257972D02*
D03*
Y-218524D02*
D03*
X246161Y-124036D02*
D03*
Y-147658D02*
D03*
X228444Y-41359D02*
D03*
X234350Y-53170D02*
D03*
X228444Y-64981D02*
D03*
X234350Y-76792D02*
D03*
X228444Y-88603D02*
D03*
Y-112225D02*
D03*
X234350Y-124036D02*
D03*
Y-147658D02*
D03*
Y-218524D02*
D03*
X222539Y-53170D02*
D03*
Y-76792D02*
D03*
X216633Y-88603D02*
D03*
Y-112225D02*
D03*
Y-159469D02*
D03*
X222539Y-218524D02*
D03*
X204822Y-88603D02*
D03*
X193011Y-64981D02*
D03*
Y-88603D02*
D03*
Y-159469D02*
D03*
X198917Y-171280D02*
D03*
Y-218524D02*
D03*
X187106Y-29548D02*
D03*
Y-53170D02*
D03*
Y-171280D02*
D03*
X175295Y-53170D02*
D03*
X169389Y-64981D02*
D03*
X175295Y-124036D02*
D03*
X169389Y-159469D02*
D03*
X175295Y-171280D02*
D03*
X163484Y-29548D02*
D03*
X157578Y-41359D02*
D03*
Y-159469D02*
D03*
X145767Y-17737D02*
D03*
X151673Y-29548D02*
D03*
X145767Y-41359D02*
D03*
Y-64981D02*
D03*
X133956Y-17737D02*
D03*
X139862Y-171280D02*
D03*
Y-218524D02*
D03*
X122145Y-17737D02*
D03*
X116240Y-29548D02*
D03*
X110334Y-41359D02*
D03*
X116240Y-218524D02*
D03*
X98523Y-135847D02*
D03*
Y-183091D02*
D03*
X86712Y-17737D02*
D03*
Y-135847D02*
D03*
Y-183091D02*
D03*
X80807Y-124036D02*
D03*
X74901Y-135847D02*
D03*
Y-183091D02*
D03*
Y-230335D02*
D03*
X68995Y-29548D02*
D03*
X63090Y-135847D02*
D03*
Y-183091D02*
D03*
Y-230335D02*
D03*
X51279Y-41359D02*
D03*
X57184Y-124036D02*
D03*
X51279Y-159469D02*
D03*
Y-183091D02*
D03*
X57184Y-218524D02*
D03*
X39468Y-41359D02*
D03*
X27657Y-17737D02*
D03*
Y-41359D02*
D03*
X33562Y-218524D02*
D03*
X27657Y-230335D02*
D03*
X15846Y-17737D02*
D03*
X21751Y-29548D02*
D03*
Y-171280D02*
D03*
X15846Y-206713D02*
D03*
X4035Y-17737D02*
D03*
Y-135847D02*
D03*
X9940Y-147658D02*
D03*
X4035Y-159469D02*
D03*
X9940Y-171280D02*
D03*
X4035Y-183091D02*
D03*
X9940Y-194902D02*
D03*
X4035Y-206713D02*
D03*
X9940Y-218524D02*
D03*
X4035Y-230335D02*
D03*
X61329Y-129681D02*
D03*
Y-125681D02*
D03*
Y-118681D02*
D03*
X147615Y-83742D02*
D03*
X140000Y-84500D02*
D03*
X132829Y-26181D02*
D03*
X53829Y-42181D02*
D03*
X414329Y-157681D02*
D03*
X399329Y-156681D02*
D03*
X387829Y-219681D02*
D03*
X379329Y-205681D02*
D03*
X387829Y-188681D02*
D03*
X342329Y-224181D02*
D03*
X336829Y-224681D02*
D03*
X336500Y-213500D02*
D03*
X344998Y-208401D02*
D03*
X341829Y-191181D02*
D03*
X328829Y-197181D02*
D03*
X303829D02*
D03*
X280829Y-219181D02*
D03*
Y-215181D02*
D03*
X269329Y-217181D02*
D03*
X271329Y-210181D02*
D03*
X222329Y-234681D02*
D03*
X159829Y-237181D02*
D03*
X197829Y-233181D02*
D03*
X190329Y-239181D02*
D03*
X181329Y-216681D02*
D03*
X164329Y-152181D02*
D03*
X120122Y-191892D02*
D03*
X130829Y-186181D02*
D03*
X131829Y-191181D02*
D03*
X134329Y-200681D02*
D03*
X103329Y-195681D02*
D03*
X103829Y-227681D02*
D03*
X61329Y-199181D02*
D03*
X52329Y-192681D02*
D03*
X52829Y-175181D02*
D03*
X68829Y-133181D02*
D03*
X75329Y-129181D02*
D03*
Y-124681D02*
D03*
X120500Y-129500D02*
D03*
X127329Y-147681D02*
D03*
X164500Y-126000D02*
D03*
X144829Y-132181D02*
D03*
X153329D02*
D03*
X158829Y-132681D02*
D03*
X164500Y-114000D02*
D03*
X153829Y-100181D02*
D03*
X133329Y-113681D02*
D03*
X139329Y-90181D02*
D03*
X106000Y-91000D02*
D03*
X130829Y-83181D02*
D03*
X113329Y-63181D02*
D03*
X141829Y-61681D02*
D03*
X157829Y-67181D02*
D03*
X169829Y-55681D02*
D03*
X157829Y-46181D02*
D03*
X165829Y-40181D02*
D03*
X206329Y-48681D02*
D03*
X213829D02*
D03*
X220329Y-55681D02*
D03*
X219829Y-61681D02*
D03*
X212829Y-69181D02*
D03*
X206829D02*
D03*
X320329Y-53681D02*
D03*
X318829Y-69181D02*
D03*
X331829Y-79181D02*
D03*
X336329D02*
D03*
X348829Y-91181D02*
D03*
X366329D02*
D03*
X381329Y-94181D02*
D03*
X395829Y-130181D02*
D03*
X400829Y-131681D02*
D03*
X388329Y-133181D02*
D03*
X386829Y-138681D02*
D03*
X428829Y-168681D02*
D03*
X424329D02*
D03*
X468329Y-156681D02*
D03*
X458329Y-176681D02*
D03*
X458000Y-181000D02*
D03*
X460000Y-184000D02*
D03*
X470528Y-188000D02*
D03*
X419569Y-213927D02*
D03*
X430829Y-213681D02*
D03*
X439036Y-213553D02*
D03*
X441000Y-206500D02*
D03*
X446709Y-206748D02*
D03*
X463549Y-218119D02*
D03*
X262509Y-53345D02*
D03*
X437000Y-197894D02*
D03*
Y-192500D02*
D03*
X432512Y-197894D02*
D03*
X422630Y-192500D02*
D03*
X432512Y-202382D02*
D03*
X427118D02*
D03*
Y-188012D02*
D03*
X432512D02*
D03*
Y-192500D02*
D03*
X422630Y-197894D02*
D03*
X427118D02*
D03*
Y-192500D02*
D03*
X260197Y-34004D02*
D03*
X167349Y-36520D02*
D03*
Y-32520D02*
D03*
X293661Y-53689D02*
D03*
X522008D02*
D03*
X520040Y-57626D02*
D03*
X514134Y-53689D02*
D03*
X516103Y-57626D02*
D03*
X510197Y-53689D02*
D03*
X512165Y-57626D02*
D03*
X506260Y-53689D02*
D03*
X508228Y-57626D02*
D03*
X502323Y-53689D02*
D03*
X504291Y-57626D02*
D03*
X498386Y-53689D02*
D03*
X500354Y-57626D02*
D03*
X494449Y-53689D02*
D03*
X496417Y-57626D02*
D03*
X490512Y-53689D02*
D03*
X492480Y-57626D02*
D03*
X486575Y-53689D02*
D03*
X488543Y-57626D02*
D03*
X482638Y-53689D02*
D03*
X484606Y-57626D02*
D03*
X478701Y-53689D02*
D03*
X480669Y-57626D02*
D03*
X474764Y-53689D02*
D03*
X476732Y-57626D02*
D03*
X470827Y-53689D02*
D03*
X472795Y-57626D02*
D03*
X466890Y-53689D02*
D03*
X468858Y-57626D02*
D03*
X462953Y-53689D02*
D03*
X464921Y-57626D02*
D03*
X459016Y-53689D02*
D03*
X460984Y-57626D02*
D03*
X455079Y-53689D02*
D03*
X457047Y-57626D02*
D03*
X451142Y-53689D02*
D03*
X453110Y-57626D02*
D03*
X447205Y-53689D02*
D03*
X449173Y-57626D02*
D03*
X443268Y-53689D02*
D03*
X445236Y-57626D02*
D03*
X439331Y-53689D02*
D03*
X441299Y-57626D02*
D03*
X435394Y-53689D02*
D03*
X437362Y-57626D02*
D03*
X431457Y-53689D02*
D03*
X433425Y-57626D02*
D03*
X427520Y-53689D02*
D03*
X429488Y-57626D02*
D03*
X423583Y-53689D02*
D03*
X425551Y-57626D02*
D03*
X419646Y-53689D02*
D03*
X421614Y-57626D02*
D03*
X415709Y-53689D02*
D03*
X417677Y-57626D02*
D03*
X411772Y-53689D02*
D03*
X413740Y-57626D02*
D03*
X407835Y-53689D02*
D03*
X409803Y-57626D02*
D03*
X403898Y-53689D02*
D03*
X405866Y-57626D02*
D03*
X399961Y-53689D02*
D03*
X401929Y-57626D02*
D03*
X396024Y-53689D02*
D03*
X397992Y-57626D02*
D03*
X392087Y-53689D02*
D03*
X394055Y-57626D02*
D03*
X388150Y-53689D02*
D03*
X390118Y-57626D02*
D03*
X384213Y-53689D02*
D03*
X386181Y-57626D02*
D03*
X380276Y-53689D02*
D03*
X382244Y-57626D02*
D03*
X376339Y-53689D02*
D03*
X378307Y-57626D02*
D03*
X372402Y-53689D02*
D03*
X374370Y-57626D02*
D03*
X368465Y-53689D02*
D03*
X370433Y-57626D02*
D03*
X364528Y-53689D02*
D03*
X366496Y-57626D02*
D03*
X360591Y-53689D02*
D03*
X362559Y-57626D02*
D03*
X356654Y-53689D02*
D03*
X358622Y-57626D02*
D03*
X352717Y-53689D02*
D03*
X354685Y-57626D02*
D03*
X348780Y-53689D02*
D03*
X350748Y-57626D02*
D03*
X344843Y-53689D02*
D03*
X346811Y-57626D02*
D03*
X340905Y-53689D02*
D03*
X342874Y-57626D02*
D03*
X336968Y-53689D02*
D03*
X338937Y-57626D02*
D03*
X336968Y-61563D02*
D03*
X333032Y-53689D02*
D03*
X335000Y-57626D02*
D03*
X333032Y-61563D02*
D03*
X335000Y-65500D02*
D03*
Y-73374D02*
D03*
X331063Y-65500D02*
D03*
X317284Y-53689D02*
D03*
Y-61563D02*
D03*
X319252Y-73374D02*
D03*
X313347Y-53689D02*
D03*
X315315Y-57626D02*
D03*
Y-65500D02*
D03*
Y-73374D02*
D03*
X309409Y-53689D02*
D03*
X305472D02*
D03*
X301535D02*
D03*
X297598D02*
D03*
X289724D02*
D03*
X285787D02*
D03*
X281850D02*
D03*
X277913D02*
D03*
X273976D02*
D03*
X270039D02*
D03*
X266102D02*
D03*
X264134Y-26130D02*
D03*
X262165Y-30067D02*
D03*
Y-37941D02*
D03*
X264134Y-41878D02*
D03*
Y-49752D02*
D03*
X260197Y-26130D02*
D03*
X258228Y-30067D02*
D03*
X260197Y-41878D02*
D03*
Y-49752D02*
D03*
X256260Y-26130D02*
D03*
X242480Y-30067D02*
D03*
X240512Y-26130D02*
D03*
X238543Y-30067D02*
D03*
X240512Y-34004D02*
D03*
X236575Y-26130D02*
D03*
X234606Y-30067D02*
D03*
X236575Y-34004D02*
D03*
X232638Y-26130D02*
D03*
X230669Y-30067D02*
D03*
X232638Y-34004D02*
D03*
X228701Y-26130D02*
D03*
X226732Y-30067D02*
D03*
X228701Y-34004D02*
D03*
X224764Y-26130D02*
D03*
X222795Y-30067D02*
D03*
X224764Y-34004D02*
D03*
X220827Y-26130D02*
D03*
X218858Y-30067D02*
D03*
X220827Y-34004D02*
D03*
X216890Y-26130D02*
D03*
X214921Y-30067D02*
D03*
X216890Y-34004D02*
D03*
X212953Y-26130D02*
D03*
X210984Y-30067D02*
D03*
X212953Y-34004D02*
D03*
X209016Y-26130D02*
D03*
X207047Y-30067D02*
D03*
X209016Y-34004D02*
D03*
X205079Y-26130D02*
D03*
X203110Y-30067D02*
D03*
X205079Y-34004D02*
D03*
X201142Y-26130D02*
D03*
X199173Y-30067D02*
D03*
X201142Y-34004D02*
D03*
X197205Y-26130D02*
D03*
X195236Y-30067D02*
D03*
X193268Y-26130D02*
D03*
X189331D02*
D03*
Y-34004D02*
D03*
X173583Y-26130D02*
D03*
X169646D02*
D03*
X165709D02*
D03*
X161772D02*
D03*
Y-34004D02*
D03*
X157834Y-26130D02*
D03*
Y-34004D02*
D03*
X151929Y-6445D02*
D03*
X153898Y-10382D02*
D03*
X151929Y-14319D02*
D03*
X153898Y-18256D02*
D03*
Y-34004D02*
D03*
X147992Y-6445D02*
D03*
X149960Y-10382D02*
D03*
X147992Y-14319D02*
D03*
X149960Y-18256D02*
D03*
X119500Y-178350D02*
D03*
Y-184650D02*
D03*
X122650Y-181500D02*
D03*
X116350D02*
D03*
X147000Y-157500D02*
D03*
Y-151201D02*
D03*
X150150Y-154350D02*
D03*
X143850D02*
D03*
D183*
X227551Y-224000D02*
D03*
M02*
