M48
;Layer_Color=9474304
;FILE_FORMAT=2:5
INCH,LZ
;TYPE=PLATED
T1F00S00C0.01181
T3F00S00C0.03000
T4F00S00C0.03937
T5F00S00C0.04016
T6F00S00C0.12598
;TYPE=NON_PLATED
T7F00S00C0.02756
%
T01
X0355Y-03405
X03645Y-0329
X0376Y-03385
X03755Y-03445
X03155Y-0337
X0281961Y-0331
X0276685Y-0340487
X0277Y-0343
Y-03465
X02585Y-034
X0258Y-03215
X0278461Y-03185
X0287Y-03155
X02845Y-03125
X0289961Y-03075
X0270874Y-0305402
X02645Y-03045
X02615Y-0298
X02565Y-0299
X0266683Y-0297183
X0275521Y-0283711
X0282115Y-0278923
X02895Y-0278461
X0300136Y-0268936
X0297Y-026
T03
X0288685Y-0327041
X0296685
X0304685
T04
X0326893Y-0303432
X0332461Y-0309
T05
X02565Y-02775
Y-02675
X02665
Y-02775
X0299961Y-0286
Y-0296
X0309961
Y-0286
T06
X0263685Y-0358541
X0330185Y-0360541
T07
X0353307Y-0355243
X0376063
M30
