M48
;Layer_Color=9474304
;FILE_FORMAT=2:5
INCH,LZ
;TYPE=PLATED
T1F00S00C0.00787
T2F00S00C0.01181
T4F00S00C0.03543
T5F00S00C0.04331
T6F00S00C0.05512
T7F00S00C0.12598
;TYPE=NON_PLATED
T8F00S00C0.02756
%
T01
X0803563Y0576094
Y0580031
Y0583968
Y0587906
X08075
X0811437
Y0583968
X08075
Y0580031
X0811437
Y0576094
X08075
T02
X1102362Y0472441
X1122047
X1141732
X1161417
X1181102
X1190945Y0492126
X117126
X1151575
X113189
X1112205
X1122047Y0511811
X1141732
X1161417
X11595Y05185
X1146Y05325
X113189Y0531496
X1112205
X1122047Y0551181
X1141732
X1152Y05665
X117126Y0570866
X1176Y05865
X117126Y0610236
X1191Y0606
X113189Y0610236
X1112205
X11185Y05935
X1122047Y0590551
X1141732
X113189Y0570866
X1112205
X1101Y0577
X1102362Y0551181
Y0511811
X11815Y05085
X1082677Y0511811
X1060101Y0518704
X10605Y0497
X10545Y0497425
X1047Y0498
X1043307Y0511811
X1023622
X1022Y0535
X101378Y0531496
X1007Y05445
X1003937Y0551181
X0994Y055
X0989Y0545
X0991Y0532
X0994952Y0528215
X09995Y05165
X0984252Y0511811
X0964567
X0953Y05195
X0952007Y0524911
X0955007
X0958007
Y0533088
X0955007
X0952007
X0941Y05325
X0937906Y0532485
X0939299Y0530592
X0938395Y0526452
X0940096Y0524544
X0939624Y0518136
X0938546Y054056
X0977Y05375
X0974409Y0531496
Y0570866
X0954724
X09475Y0581
X0964567Y0590551
X0984252
X0995Y0587
X1003937Y0590551
X10145Y0595
X1027Y0589
X1035Y0576
X1033465Y0570866
X1035Y05605
X1031Y05555
X1034947Y0548482
X1037944Y0541756
X10355Y05375
X10305Y05395
X10275Y0545
X10175Y05555
X105315Y0570866
X1072835
X10905Y05815
X1082677Y0551181
X1072835Y0531496
X1066Y0498
X1062992Y0472441
X1082677
X109252Y0492126
X1033465
X101378
X1009Y0484
X0996Y04845
X1003697Y0495435
X1003937Y0472441
X1023622
X0984252
X0964567
X0944882
X0974409Y0492126
X0994Y0605
X0994094Y0610236
X1009Y06105
X1033465Y0610236
X1038Y061
X1072835Y0610236
X0954724
X0935039
X09355Y0588
X0925197Y0590551
X0905512
X0885827
X0866142
X0875984Y0570866
X0895669
X0915354
X09175Y0568
X09225Y0567
X0925Y055
X09285Y05455
X091642Y0542276
X09035Y0548
X0895669Y0531496
X0875984
X0856299
X0836614
X084505Y0547397
X0826772Y0551181
X08295Y0565
X0807087Y0551181
X0787402
X0785Y0568
X0789342Y0587
X0794473Y0596783
X07915Y061
X08065Y06045
X08155Y06055
X0797244Y0531496
X078735Y0521902
X0787402Y0511811
X0807087
X0826772
X0846457
X0866142
X0875984Y0492126
X0895669
X0915354
X09165Y05085
X0922639Y0508516
X09255Y0526
X09245Y0529
X0935039Y0531496
X0936Y0525
X0936393Y051798
X0936Y04995
X0925197Y0472441
X0905512
X0885827
X0866142
X0846457
X0826772
X0807087
X0787402
X0797244Y0492126
X0816929
X0836614
X0856299
X0905512Y0511811
X0767717
X0777559Y0492126
X0767717Y0472441
Y0590551
X0777559Y0610236
X0767717Y0629921
X07675Y06585
X07615Y06565
X0765Y0668
X0781Y06705
X0778Y0652
X0777559Y0688976
X0767717Y0708661
X0777559Y0728346
X0767717Y0748032
X0765Y07555
X0765169Y076047
X07655Y07655
X07715Y0768
X0797244Y0767717
X0816929
X0836614
X0826772Y0748032
X0807087
X0787402
X07875Y0702
X07915Y07055
X0807087Y0708661
X0826772
X0846457
X08555Y0705
X08665Y0703
X0875984Y0688976
X0874Y0678
X0866142Y0669291
X0846457
X0826772
X0830266Y0646656
X0816929Y0649606
X0826772Y0629921
X0846457
X0856299Y0649606
X0875984
X08775Y06525
X08835Y06515
X08935Y0651
X08905Y0664
X0885003Y0666156
X0905512Y0669291
X0925197
X0935039Y0649606
X0915354
X0925197Y0629921
X0905512
X0885827
Y0708661
X0905512
X0894Y0723
X08945Y07295
X0886Y074
X0891Y0751
X0895Y075
X0905512Y0748032
X0925197
X0935039Y0767717
X0915354
X0895669
X08855Y07635
X0875984Y0767717
X0915354Y0728346
Y0688976
X0856299
X0836614
X0816929
X0797244
X0793Y0679
X0784Y068
X0787402Y0669291
X07905Y06705
X08
X0802Y06755
X07815Y06575
X0816929Y0728346
X0836614
X0944882Y0748032
X0964567
X0965291Y073901
X097Y07435
X09725Y07545
X0974409Y0767717
X0994094
X09915Y07345
X10015Y0735
X0997835Y07265
X09935Y07235
X10015Y07135
X1003Y071
X1Y0709
X09855Y0706
X0982457Y0707936
X0979819Y0705805
X09755Y07065
X0975Y0716
X09745Y07235
X09585Y07115
X0944882Y0708661
X0942Y0703
X0981222Y0689248
X09895Y06915
Y0676
X0986Y0671126
X0989771Y0657851
X09975Y0659
X10095Y06515
X10175Y0635
X1003937Y0629921
X0984252
X0964567
X09485Y06395
X0954724Y0649606
X0964567Y0669291
X1006Y0685
X1009Y0691
X10105Y06955
X1015822Y0703135
X10225Y0706
X1018331Y0711531
X1026Y0713
X10285Y07175
X1034Y07155
X10375Y06955
X1034Y0689
X10345Y0685
X10285Y06885
X10245Y0685
X10265Y0678
X1031096Y0677354
X10395Y06765
Y06715
X1043307Y0669291
X10345Y06645
X1026614Y0668656
X10185Y0681
X10135Y06785
X10325Y06535
X10515Y06515
X1062922Y0660043
X1072835Y0649606
X1082677Y0629921
X109Y06355
X1062992Y0629921
X1043307
X1072835Y0688976
X109252
X1082677Y0708661
X109252Y0728346
X1072835
X10765Y0754
X1082677Y0748032
X1072835Y0767717
X1033465
X1043307Y0748032
X1023622
X1011Y074
X0954724Y0767717
X1101Y0767
X1112205Y0767717
X113189
X1122047Y0748032
X115Y0747
X1157622Y0748621
X1162566Y0746182
X1165646Y0747367
X1162697Y0739435
X1157463Y073905
X11495Y0737
X1156Y07255
X11605Y0727
X11575Y07565
X1162378Y0758
X1172Y07555
X11865Y07525
X1182Y07475
X11785Y0742
X1181Y0714
X1172Y06925
X117126Y0688976
X113189
X1112205
X1122047Y0708661
X1112205Y0728346
X1097227Y0775379
X1154985Y0775207
X11575Y07725
Y0778
X1156Y07805
X11655Y0777
X1175Y0774
X11755Y07805
X1182
X11945Y0758
X1197Y065
X11685Y0637
X1141732Y0629921
X1122047
Y0669291
X1141732
X11055Y06555
X1102362Y0787402
X1122047
X1133567Y0792876
X1136Y07965
X1131506Y0799046
X1131Y08055
X11335Y08085
X1129485Y0813707
X11205Y08135
X1114174Y0818898
X1110237
X11063
X1102363
X1098426
X1094489
X1096457Y0822835
X1100394
X1104331
X1108268
X1112205
X1116142
X1114174Y0826772
X1118111
X1122048
X1125985
X1129922
X1133859
X1135827Y0822835
X113189
X1127953
X1110237Y0826772
X11063
X1102363
X1098426
X1094489
X1117Y0801
X11445Y07905
X1148Y079
X115Y0793
X11535Y079
X11475Y08115
X1147638Y0814961
X11445Y08165
X1149607Y0818898
X1153544
X1157481
X1161418
X1165355
X1169292
X1173229
X1177166
X1181103
X1183072Y0814961
X1179134
X11765Y08085
X1182Y08025
X11815Y0797
Y07915
X1178Y07945
X1191Y0799
X11945Y07925
X1197Y08055
X1194882Y0814961
X1190946
X1192914Y0818898
X1196851
X1194882Y0822835
X1190946
X1192914Y0826772
X1090552
X109252Y0822835
X1090552Y0818898
X1091Y08135
X10915Y0801
X1074804Y0818898
X1070867
X106693
X1062993
X1059056
X1055119
X1051182
X1047245
X1043308
X1039371
X1035434
X1031497
X1015749
X1011812
X1007875
X1003938
X1
X0996064
X0992126
X098819
X0984252
X0986221Y0822835
X0990158
X0994095
X0998032
X1001969
X1005906
X1009843
X101378
X1011812Y0826772
X1015749
X1007875
X1003938
X1
X0996064
X0992126
X098819
X0984252
X0980315
X0976379
X0972441
X0968505
X0964567
X096063
X0956693
X0952756
X0948819
X0944882
X0940945
X0942914Y0822835
X0946851
X0950788
X0954725
X0958662
X0962599
X0966536
X0970473
X097441
X0978347
X0982284
X0979807Y0816586
X0976379Y0818898
X0972441
X0968505
X0964567
X096063
X0956693
X09525Y08165
X0948819Y0818898
X0944882
X0940945
X0938977Y0822835
X0944882Y0787402
X0959Y0792252
X0964567Y0787402
X097325Y0792252
X09705Y0811
X0984
X1015439Y0813747
X10135Y0802
X10305Y0792
X1043307Y0787402
X1055Y07965
X10645Y07925
X1001Y07865
X0925197Y0787402
X0905512
X0885827
X0885827Y0818898
X0889764
X0893701
X0897638
X0901575
X0905512
X0909449
X0913386
X0917323
X092126
X0925197
X0929134
X0933071
X0937008
X093504Y0822835
X0931103
X0927166
X0923229
X0919292
X0915355
X0911418
X0907481
X0903544
X0899607
X089567
X0891733
X0887796
X0883859
X0879922
X0875985
X0872048
X0868111
X0864174
X0860237
X08563
X0852363
X0848426
X0844489
X0840552
X0836615
X0832678
X0828741
X0824804
X0820867
X081693
X0812993
X0809056
X0805118
X0801182
X0799213Y0826772
X080315
X0807087
X0811024
X0814961
X0818898
X0822835
X0826772
X0830709
X0834646
X0838583
X084252
X0846457
X0850394
X0854331
X0858268
X0862205
X0866142
X0870079
X0874016
X0877953
X088189
X0885827
X0889764
X0893701
X0897638
X0901575
X0905512
X0909449
X0913386
X0917323
X092126
X0925197
X0929134
X0933071
X0937008
X088189Y0818898
X0877953
X0874016
X0870079
X0866142
X0862205
X0858268
X0854331
X0850394
X0846457
X084252
X0838583
X0834646
X0830709
X0826772
X0822835
X0818898
X0814961
X0811024
X0807087
X080315
X0799213
X0787402
X0783465
X0785433Y0822835
X078937
X0787402Y0826772
X0783465
X0781496Y0822835
X0816929Y0807087
X0836614
X08555Y0805
X0866Y08115
X0846457Y0787402
X0767717
X0777559Y0807087
X0775591Y0818898
X0779528
X077756Y0822835
X0773623
X0769686
X0765748
X0761811
X0759843Y0826772
X076378
X0767717
X0771654
X0775591
X0779528
X0771654Y0818898
X0767717
X076378
X0759843
T04
X1105693Y0500551
Y0508425
Y0516299
Y0524173
Y0532047
Y0539921
Y0547795
Y0555669
Y0563543
Y0571417
X1192307
Y0563543
Y0555669
Y0547795
Y0539921
Y0532047
Y0524173
Y0516299
Y0508425
Y0500551
X10475Y0697252
Y0705126
Y0713
Y0720874
Y0728748
Y0736622
T05
X1131Y07055
X1141
Y07155
X1131
Y07255
X1141
Y07355
Y07455
X1131
Y07355
T06
X09375Y0490386
X09225
X08415Y0498248
X08215
T07
X08855Y0512
X0896Y0692
X10825Y06755
T08
X1045122Y0487798
X1067878
M30
